<?xml version="1.0" encoding="UTF-8"?>
<svg id="Layer_2" data-name="Layer 2" xmlns="http://www.w3.org/2000/svg" viewBox="0 0 1914.24 404.65">
  <defs>
    <style>
      .cls-1 {
        fill: #0066b0;
      }

      .cls-2 {
        fill: #86b5e2;
      }
    </style>
  </defs>
  <g id="Layer_1-2" data-name="Layer 1">
    <g>
      <g>
        <path class="cls-1" d="M1496.95,404.65c-20.95,0-37.94-16.98-37.94-37.94V37.94c0-20.95,16.98-37.94,37.94-37.94s37.94,16.98,37.94,37.94v328.78c0,20.95-16.98,37.94-37.94,37.94Z"/>
        <path class="cls-1" d="M1623.4,303.49c-20.95,0-37.94-16.98-37.94-37.94v-126.45c0-20.95,16.98-37.94,37.94-37.94s37.94,16.98,37.94,37.94v126.45c0,20.95-16.98,37.94-37.94,37.94Z"/>
        <path class="cls-1" d="M1749.86,404.65c-20.95,0-37.94-16.98-37.94-37.94V37.94c0-20.95,16.98-37.94,37.94-37.94s37.94,16.98,37.94,37.94v328.78c0,20.95-16.98,37.94-37.94,37.94Z"/>
        <path class="cls-1" d="M1876.31,303.49c-20.95,0-37.94-16.98-37.94-37.94v-126.45c0-20.95,16.98-37.94,37.94-37.94s37.94,16.98,37.94,37.94v126.45c0,20.95-16.98,37.94-37.94,37.94Z"/>
        <path class="cls-2" d="M1560.2,177.04c-13.97,0-25.3-11.33-25.3-25.3v101.16c0-13.97,11.3-25.3,25.27-25.3s25.3,11.33,25.3,25.3v-101.16c0,13.97-11.3,25.3-25.27,25.3Z"/>
        <path class="cls-2" d="M1686.64,177.04c-13.97,0-25.3-11.33-25.3-25.3v101.16c0-13.97,11.3-25.3,25.27-25.3s25.3,11.33,25.3,25.3v-101.16c0,13.97-11.3,25.3-25.27,25.3Z"/>
        <path class="cls-2" d="M1813.09,177.04c-13.97,0-25.3-11.33-25.3-25.3v101.16c0-13.97,11.3-25.3,25.27-25.3s25.3,11.33,25.3,25.3v-101.16c0,13.97-11.3,25.3-25.27,25.3Z"/>
      </g>
      <g>
        <rect class="cls-1" x="567.67" y="56.87" width="18.32" height="104.81"/>
        <path class="cls-1" d="M1345.12,126.72c0-20.31-15.86-36.84-35.35-36.84-28.94,0-33.87,26.17-35.97,37.34-.44,2.36-2.97,15.94-14.24,16.28h-21.61v-51.55h-18.17v51.55h-8.66c-3.98,0-7.17-.69-9.58-2.06-2.41-1.37-4.8-3.76-7.17-7.17.09-.95.16-1.92.21-2.91.05-.99.07-1.96.07-2.91v-28.68h-18.17v27.26c0,5.49-1.14,9.61-3.41,12.35-2.27,2.75-5.78,4.12-10.51,4.12h-13.06v-43.73h-18.17v43.73h-40.89v-51.55h-18.32v51.55h-43.51v-51.55h-18.17v51.55h-8.66c-3.98,0-7.17-.69-9.58-2.06-2.41-1.37-4.81-3.76-7.17-7.17.09-.95.16-1.92.21-2.91.05-.99.07-1.96.07-2.91v-28.68h-18.17v27.26c0,5.49-1.14,9.61-3.41,12.35-2.27,2.75-5.78,4.12-10.51,4.12h-13.06v-43.73h-18.17v43.73h-42.12c4.27-5.62,6.51-14.92,6.51-22.48,0-33.57-31.08-36.37-37.17-36.37s-37.17,2.8-37.17,36.37c0,7.56,2.24,16.86,6.51,22.48h-29.98s-12.24-33.81-12.24-33.81c-3.22-8.92-11.77-14.91-21.26-14.91h-23.77c-15.88,0-28.76,12.88-28.76,28.76v4.21c0,4.75,2.83,9,7.2,10.82l22.77,9.55c4.95,2.07,4.45,6.56,4.19,7.88-.26,1.34-1.55,5.67-6.91,5.67h-65.86c-7.42,0-13.43-6.01-13.43-13.43v-28.49h-15.8v28.49c0,17.47,11.76,31.64,29.22,31.64h65.87c12.37,0,22.32-8.15,24.77-20.29,2.43-12.12-3.6-23.48-15.01-28.25l-18.8-7.89c.05-5.78,4.03-10.46,9.81-10.46h24.51c1.84,0,3.51,1.16,4.14,2.9l14.44,39.95c1.27,3.51,4.61,5.85,8.34,5.85,0,0,45.07,0,45.37,0,9,0,15.45-1.82,21.85-3.06,6.4,1.24,12.85,3.06,21.85,3.06.37,0,85.72,0,85.72,0,5.2,0,9.68-.9,13.42-2.7,3.74-1.8,6.84-4.35,9.3-7.67,3.6,3.6,7.22,6.23,10.86,7.88,3.64,1.66,7.55,2.48,11.71,2.48h164.05c5.2,0,9.68-.9,13.42-2.7,3.74-1.8,6.84-4.35,9.3-7.67,3.6,3.6,7.22,6.23,10.86,7.88,3.64,1.66,7.55,2.48,11.71,2.48h47.65c8.41,0,15.83-3.05,21.64-8.65,6.87,6.67,17.38,10.55,29.08,10.55,19.49,0,35.35-16.53,35.35-36.84ZM849.19,140.45c-15.41-3.03-18.96-13.58-18.96-19.43,0-15.25,14.83-18.19,18.96-18.19s18.96,2.95,18.96,18.19c0,5.85-3.55,16.4-18.96,19.43ZM1309.76,145.39c-12.94,0-19.02-8.24-19.16-9.12,0-3.75,2.44-27.92,19.16-27.92,9.31,0,16.88,8.24,16.88,18.37s-7.57,18.67-16.88,18.67Z"/>
        <path class="cls-1" d="M312.39,161.58c8.41,0,15.83-3.05,21.64-8.65,6.87,6.67,17.38,10.55,29.08,10.55,10.63,0,20.17-4.92,26.66-12.69,2.84,3.81,9.96,10.94,23.49,10.94l129.29-.06V56.87h-18.32v86.63h-25.77c-8.76-8.64-13.07-29.09-18.84-38.08-17.61-27.47-51.47-16.85-55.81-14.27l4.53,15.78c4.66-2.19,21.2-5.37,31.87,3.76,7.28,5.8,11.6,25.58,16.99,32.81h-61.65c-13.53,0-17.08-11.11-17.08-16.86,0-20.31-15.86-36.84-35.35-36.84-28.94,0-33.87,26.17-35.97,37.34-.44,2.36-2.97,15.94-14.24,16.28l-54.64.09V56.87h-18.32v104.81l72.44-.09ZM363.11,108.26c9.31,0,16.88,8.24,16.88,18.37s-7.57,18.67-16.88,18.67c-12.94,0-19.02-8.24-19.16-9.12,0-3.75,2.44-27.92,19.16-27.92Z"/>
        <path class="cls-1" d="M222.09,143.44h-.04c-.79-28.46-20.54-50.5-45.62-50.5h-18.67v18.23h9.7c22.62,0,33.51,10,34.82,32.27h-54.39v18.23h74.19v-18.23Z"/>
        <path class="cls-1" d="M40.96,246.53L0,337.85h19.57l7.57-17.74h47.09l7.57,17.74h19.7l-40.83-91.32h-19.7ZM33.79,304.19l16.96-39.79,16.96,39.79h-33.92Z"/>
        <rect class="cls-1" x="109.85" y="246.53" width="17.35" height="91.32"/>
        <polygon class="cls-1" points="237.8 283.19 194.23 283.19 194.23 246.53 176.23 246.53 176.23 337.85 194.23 337.85 194.23 299.76 237.8 299.76 237.8 337.85 255.8 337.85 255.8 246.53 237.8 246.53 237.8 283.19"/>
        <path class="cls-1" d="M322.99,281.1c-5.22-5.87-13.18-9.13-22.31-9.13-18.52,0-31.31,13.83-31.31,33.66s12.78,33.66,31.31,33.66c9.13,0,16.96-3.26,22.31-9.26l1.17,7.83h15v-64.44h-15l-1.17,7.7ZM304.21,324.15c-10.31,0-17.61-7.7-17.61-18.53s7.31-18.53,17.61-18.53,17.74,7.7,17.74,18.53-7.31,18.53-17.74,18.53Z"/>
        <path class="cls-1" d="M433.1,272.1c-9.91,0-17.48,3.65-22.57,10.7-3.91-6.65-11.22-10.7-20.09-10.7-7.57,0-14.09,3.26-18.39,8.87l-1.17-7.57h-15v64.44h17.35v-35.48c0-9.13,5.61-15.13,13.96-15.13,7.7,0,12,5.09,12,14.22v36.4h17.22v-35.48c0-9.13,5.61-15.13,13.96-15.13,7.7,0,12,5.09,12,14.22v36.4h17.35v-38.35c0-17.09-10.17-27.4-26.61-27.4Z"/>
        <path class="cls-1" d="M552.74,272.1c-9.91,0-17.48,3.65-22.57,10.7-3.91-6.65-11.22-10.7-20.09-10.7-7.57,0-14.09,3.26-18.39,8.87l-1.17-7.57-15,1.21v63.23h17.35v-35.48c0-9.13,5.61-15.13,13.96-15.13,7.7,0,12,5.09,12,14.22v36.4h17.22v-35.48c0-9.13,5.61-15.13,13.96-15.13,7.7,0,12,5.09,12,14.22v36.4h17.35v-38.35c0-17.09-10.17-27.4-26.61-27.4Z"/>
        <path class="cls-1" d="M644.85,281.1c-5.22-5.87-13.18-9.13-22.31-9.13-18.52,0-31.31,13.83-31.31,33.66s12.79,33.66,31.31,33.66c9.13,0,16.96-3.26,22.31-9.26l1.17,7.83h15v-64.44h-15l-1.17,7.7ZM626.07,324.15c-10.31,0-17.61-7.7-17.61-18.53s7.31-18.53,17.61-18.53,17.74,7.7,17.74,18.53-7.31,18.53-17.74,18.53Z"/>
        <path class="cls-1" d="M726.27,279.93c-5.22-5.08-12.65-7.96-21.14-7.96-18.52,0-31.31,13.83-31.31,33.66s12.79,33.66,31.31,33.66c9.26,0,17.09-3.26,22.31-9.26l1.17,7.83h15v-91.32h-17.35v33.4ZM708.65,324.15c-10.31,0-17.61-7.7-17.61-18.53s7.3-18.53,17.61-18.53,17.74,7.7,17.74,18.53-7.3,18.53-17.74,18.53Z"/>
        <rect class="cls-1" x="760.32" y="273.41" width="17.35" height="64.44"/>
        <polygon class="cls-1" points="889.74 283.19 846.17 283.19 846.17 246.53 828.16 246.53 828.16 337.85 846.17 337.85 846.17 299.76 889.74 299.76 889.74 337.85 907.74 337.85 907.74 246.53 889.74 246.53 889.74 283.19"/>
        <path class="cls-1" d="M956.15,271.97c-21.27,0-34.83,13.96-34.83,33.66s13.57,33.66,34.83,33.66,34.83-13.96,34.83-33.66-13.57-33.66-34.83-33.66ZM956.15,324.15c-10.7,0-17.61-8.22-17.61-18.53s6.92-18.53,17.61-18.53,17.61,8.22,17.61,18.53-6.91,18.53-17.61,18.53Z"/>
        <path class="cls-1" d="M1028.82,298.19c-7.96-.78-11.22-2.61-11.22-6.13,0-3.91,4.18-6,12.26-6,6.65,0,12.65,1.57,18,4.96l7.04-12c-6.78-4.56-15.78-7.3-25.83-7.3-17.22,0-28.44,8.22-28.44,20.35s9.91,18.91,26.48,20.22c8.87.78,12.4,2.61,12.4,6.52s-4.05,6-10.96,6c-8.22,0-16.96-2.48-22.96-6.65l-7.17,12.26c8.22,5.87,18.13,9.13,29.35,9.13,17.74,0,28.83-8.22,28.83-20.74s-9.13-18.78-27.79-20.61Z"/>
        <path class="cls-1" d="M1107.23,271.97c-9.13,0-17.09,3.26-22.31,9.13l-1.17-7.7h-15v93.27h17.35v-35.49c5.22,5.22,12.65,8.09,21.13,8.09,18.52,0,31.31-13.83,31.31-33.66s-12.79-33.66-31.31-33.66ZM1103.71,324.15c-10.44,0-17.74-7.7-17.74-18.53s7.31-18.53,17.74-18.53,17.61,7.7,17.61,18.53-7.3,18.53-17.61,18.53Z"/>
        <rect class="cls-1" x="1151.33" y="273.41" width="17.35" height="64.44"/>
        <path class="cls-1" d="M1217.47,323.89c-5.22,0-8.22-3-8.22-8.87v-27.39h17.35v-14.22h-17.35v-18.46h-17.22v18.46h-11.61v14.22h11.61v27.39c0,16.83,8.74,23.87,21.92,23.87,5.74,0,10.44-.92,15.79-3.39l-4.57-13.44c-2.22,1.04-5.22,1.83-7.7,1.83Z"/>
        <path class="cls-1" d="M1289.23,281.1c-5.22-5.87-13.18-9.13-22.31-9.13-18.53,0-31.31,13.83-31.31,33.66s12.78,33.66,31.31,33.66c9.13,0,16.96-3.26,22.31-9.26l1.17,7.83h15v-64.44h-15l-1.17,7.7ZM1270.44,324.15c-10.31,0-17.61-7.7-17.61-18.53s7.31-18.53,17.61-18.53,17.74,7.7,17.74,18.53-7.3,18.53-17.74,18.53Z"/>
        <rect class="cls-1" x="1322.11" y="246.53" width="17.35" height="91.32"/>
        <path class="cls-1" d="M111.82,131.26l-29.26-10.15c.87-5.64,5.76-9.97,11.64-9.97h29.83v-18.2h-29.83c-16.53,0-29.97,13.45-29.97,29.97,0,6.64,4.22,12.57,10.49,14.74l31.13,10.69c2.39.84,3.99,3.09,3.99,5.61,0,3.27-2.66,5.93-5.93,5.93h-63.36c-10.15,0-18.4-8.25-18.4-18.39v-23.54H3.96v23.54c0,20.17,16.41,36.58,36.58,36.58h63.36c13.31.01,24.13-10.81,24.13-24.12,0-10.26-6.52-19.31-16.22-22.69Z"/>
        <path class="cls-1" d="M769,244.95c-5.58,0-10.1,4.52-10.1,10.1s4.52,10.1,10.1,10.1,10.1-4.52,10.1-10.1-4.52-10.1-10.1-10.1Z"/>
        <path class="cls-1" d="M1160,244.95c-5.58,0-10.1,4.52-10.1,10.1s4.52,10.1,10.1,10.1,10.1-4.52,10.1-10.1-4.52-10.1-10.1-10.1Z"/>
        <circle class="cls-1" cx="975.3" cy="47.05" r="9.09"/>
        <circle class="cls-1" cx="988.27" cy="69.31" r="10.5"/>
        <circle class="cls-1" cx="962.32" cy="69.31" r="10.5"/>
        <circle class="cls-1" cx="1094.24" cy="61.88" r="10.5"/>
        <circle class="cls-1" cx="1068.3" cy="61.88" r="10.5"/>
        <circle class="cls-1" cx="849.19" cy="61.88" r="10.5"/>
        <path class="cls-1" d="M89.28,203.25c1.4-7.4-4.96-13.76-12.36-12.36-4.11.78-7.47,4.14-8.25,8.25-1.4,7.4,4.96,13.76,12.36,12.36,4.11-.78,7.47-4.14,8.25-8.25Z"/>
        <path class="cls-1" d="M63.33,203.25c1.4-7.4-4.96-13.76-12.36-12.36-4.11.78-7.47,4.14-8.25,8.25-1.4,7.4,4.96,13.76,12.36,12.36,4.11-.78,7.47-4.14,8.25-8.25Z"/>
      </g>
    </g>
  </g>
</svg>