<svg width="396" height="109" viewBox="0 0 396 109" fill="none" xmlns="http://www.w3.org/2000/svg">
<g clip-path="url(#clip0_913_5062)">
<path fill-rule="evenodd" clip-rule="evenodd" d="M306.692 62.2217C307.656 63.1069 308.309 64.1078 308.856 65.1829C309.495 66.4295 309.894 67.7549 309.991 69.1498C310.186 71.8746 310.357 74.6041 309.787 77.3151C309.509 78.6266 309.018 79.8268 308.082 80.8463C306.868 82.1671 305.7 83.5388 304.532 84.9012C304.324 85.1514 304.148 85.4666 304.055 85.777C303.893 86.3795 304.124 86.6946 304.755 86.8244C304.782 86.829 304.815 86.8336 304.843 86.8383C305.663 86.9958 305.867 87.1951 305.737 87.6956C305.566 88.3629 304.75 88.8634 304.171 88.6595C303.726 88.5019 303.369 88.2053 303.29 87.7697C303.179 87.1441 303.04 86.4814 303.161 85.8744C303.309 85.0727 303.643 84.2895 303.999 83.548C304.532 82.4358 305.139 81.3607 305.756 80.2902C306.446 79.0761 306.65 77.7507 306.78 76.4022C306.817 76.05 306.687 75.8183 306.381 75.6468C305.593 75.2158 304.769 74.9517 303.856 75.1417C303.61 75.1927 303.364 75.2483 303.128 75.3178C301.038 75.9527 299.717 77.5005 298.327 79.1502C298.638 79.2336 298.832 79.3032 299.032 79.3356C299.68 79.4468 300.329 79.5673 300.987 79.6461C302.382 79.8175 303.693 79.6785 304.736 78.2836C304.783 78.6312 304.884 78.8444 304.815 78.9788C304.027 80.6146 303.207 82.2366 302.359 83.9419C301.539 83.5712 300.779 83.2283 300.014 82.8853C298.475 82.1949 296.872 82.0929 295.236 82.3988C294.481 82.5378 293.809 82.8853 293.294 83.4553C292.84 83.9512 292.576 84.4841 292.794 85.2117C292.956 85.7631 292.975 86.3609 292.979 86.9402C292.979 87.1765 292.836 87.4685 292.66 87.6492C292.317 87.9875 291.849 87.9087 291.673 87.4639C291.529 87.107 291.469 86.6853 291.492 86.3053C291.547 85.309 291.895 84.3868 292.405 83.5249C293.067 82.4127 293.73 81.2958 294.402 80.1836C294.828 79.4746 295.009 78.7193 294.963 77.8944C294.935 77.3522 294.745 76.949 294.11 76.7822C293.702 77.2688 293.41 77.9129 292.711 78.1446C292.131 76.5551 293.081 74.8219 295.069 73.9137C295.222 72.8432 294.699 72.0322 293.92 71.3046C293.026 70.4566 292.057 70.6512 291.07 71.1795C290.991 69.4788 291.992 68.501 294.513 67.7595C294.434 65.1042 295.473 62.7825 297.252 60.5303C296.603 60.6647 296.177 60.8593 295.778 60.813C295.13 60.7434 294.504 60.5303 293.874 60.3588C293.508 60.2615 293.165 60.0993 292.803 60.0112C292.145 59.8537 291.844 59.9927 291.473 60.5673C291.293 60.8454 291.116 61.1281 290.913 61.4664C290.732 60.5534 291.001 59.4691 291.603 58.6813C292.289 57.7869 293.202 57.2076 294.328 57.013C294.675 56.9527 295.083 57.0269 295.417 57.1381C296.131 57.3698 296.84 57.6432 297.521 57.9444C298.137 58.2132 298.73 58.19 299.347 57.9722C299.982 57.7498 300.626 57.5552 301.344 57.4949C301.21 57.62 301.084 57.7452 300.945 57.861C298.744 59.6822 297.697 62.0132 297.706 64.8215C297.715 67.6807 297.632 70.5354 297.729 73.3854C297.817 75.7117 297.169 77.8063 296.131 79.8407C295.978 80.128 295.834 80.42 295.686 80.7166C295.778 80.7397 295.82 80.7629 295.829 80.7536C297.4 79.0344 298.749 77.1668 298.86 74.7849C299.008 71.5966 299.018 68.4037 299.101 65.2107C299.12 64.5064 299.166 63.7973 299.259 63.1022C299.639 60.1549 302.025 57.7869 305.223 57.2586C305.037 57.4671 304.931 57.6293 304.782 57.7405C302.711 59.3578 301.807 61.4756 301.9 64.0429C301.937 65.081 301.905 66.119 301.905 67.2868C302.725 66.8466 303.1 66.1607 303.619 65.6325C304.143 65.1088 304.606 64.5249 305.107 63.9734C305.617 63.4034 306.136 62.8381 306.682 62.231M301.932 74.9054C303.684 74.2798 305.278 74.5485 306.845 75.0398C307.1 73.9507 307.012 71.2444 306.696 70.5632C305.162 71.4205 303.582 71.2629 301.932 70.5771V74.9054ZM304.662 65.4981C303.744 66.5964 302.92 67.5556 302.136 68.5427C301.724 69.0617 301.863 69.6873 302.447 70.0395C303.703 70.8088 304.972 70.8227 306.261 70.0859C306.715 69.8263 306.891 69.502 306.682 69.0246C306.275 68.0654 305.872 67.1061 305.413 66.1746C305.297 65.9337 304.982 65.7761 304.662 65.4981" fill="#2E358F"/>
<path fill-rule="evenodd" clip-rule="evenodd" d="M205.158 57.2633C204.69 57.6758 204.37 57.9585 204.05 58.2458C202.503 59.636 201.752 61.3599 201.752 63.4036C201.752 64.6501 201.752 65.9014 201.844 67.1989C202.493 66.7772 202.924 66.1979 203.415 65.6697C203.939 65.0997 204.449 64.5158 204.968 63.9411C205.464 63.3897 205.96 62.8428 206.502 62.2404C206.715 62.4443 206.905 62.5972 207.058 62.778C208.861 64.8726 209.797 67.2962 209.875 70.035C209.912 71.2909 210.033 72.5513 209.987 73.8072C209.936 75.026 209.778 76.254 209.565 77.4589C209.329 78.8074 208.717 79.9984 207.753 81.0365C206.553 82.3294 205.408 83.6779 204.268 85.0172C204.073 85.2442 203.93 85.5455 203.86 85.8328C203.726 86.3935 203.958 86.6901 204.532 86.8198C204.593 86.8338 204.657 86.8384 204.718 86.8477C205.473 86.9959 205.644 87.1581 205.556 87.6679C205.45 88.2564 204.75 88.7986 204.203 88.7059C203.656 88.6133 203.313 88.2796 203.11 87.7884C202.827 87.0747 202.813 86.3333 203.022 85.6196C203.235 84.8874 203.517 84.1645 203.856 83.4786C204.398 82.3711 205.01 81.296 205.603 80.2162C206.261 79.0252 206.506 77.7416 206.581 76.4116C206.604 76.0177 206.479 75.7767 206.126 75.596C205.329 75.1789 204.486 74.8916 203.596 75.165C202.794 75.4152 201.993 75.7072 201.27 76.115C199.995 76.8287 199.171 78.0104 198.1 79.1226C198.415 79.2106 198.605 79.2894 198.809 79.3265C199.333 79.4145 199.87 79.4608 200.389 79.5628C201.951 79.8547 203.397 79.776 204.602 78.2467C204.63 78.6267 204.713 78.8399 204.648 78.9835C203.846 80.6147 203.026 82.2321 202.169 83.942C201.386 83.5899 200.64 83.2794 199.921 82.9318C198.392 82.195 196.789 82.1162 195.148 82.3757C194.425 82.4962 193.772 82.816 193.253 83.3211C192.687 83.8633 192.344 84.4472 192.618 85.2952C192.794 85.8374 192.766 86.4491 192.766 87.033C192.766 87.4872 192.4 87.8811 192.048 87.8625C191.649 87.8394 191.422 87.5567 191.376 87.2045C191.325 86.7828 191.237 86.324 191.353 85.9394C191.598 85.0913 191.89 84.234 192.294 83.4508C192.877 82.3294 193.582 81.2728 194.221 80.1791C194.671 79.4145 194.912 78.6035 194.745 77.7091C194.674 77.3384 194.404 77.0295 193.934 76.7823C193.535 77.2967 193.197 77.8991 192.511 78.1633C192.025 76.3838 192.859 74.9009 194.847 73.9138C195.032 72.8155 194.499 71.9906 193.707 71.2723C192.826 70.4753 191.886 70.6374 190.931 71.1518C190.676 69.6226 191.927 68.3575 194.3 67.7875C194.249 65.1506 195.259 62.8197 196.895 60.7204C196.765 60.6463 196.701 60.5814 196.668 60.5953C195.658 61.0541 194.708 60.7482 193.753 60.3914C193.433 60.2709 193.109 60.1458 192.78 60.0577C191.927 59.8399 191.668 59.9511 191.223 60.6602C191.061 60.9197 190.885 61.1745 190.718 61.4294C190.713 61.4433 190.662 61.4294 190.625 61.4248C190.463 59.1911 192.08 57.3143 194.319 56.9807C194.611 56.9343 194.94 57.0316 195.227 57.1289C195.936 57.3746 196.645 57.6341 197.331 57.9399C197.952 58.2133 198.536 58.1902 199.157 57.9724C199.792 57.7453 200.436 57.546 201.159 57.4858C200.936 57.685 200.709 57.8797 200.491 58.0789C198.693 59.7241 197.6 61.7075 197.563 64.1497C197.521 67.2221 197.447 70.2899 197.535 73.3577C197.604 75.6794 197.002 77.7879 195.95 79.813C195.811 80.0818 195.686 80.3506 195.649 80.7121C195.727 80.6611 195.834 80.6286 195.89 80.5545C196.803 79.4516 197.59 78.2791 198.165 76.9677C198.647 75.8694 198.74 74.7062 198.767 73.543C198.846 70.3826 198.874 67.2221 198.967 64.0616C199.083 60.0206 201.761 58.1021 204.671 57.2726C204.755 57.2494 204.847 57.2726 205.144 57.2726M206.706 75.0723V70.6514C205.811 70.8414 205.023 71.1333 204.236 71.1379C203.425 71.1379 202.604 70.8645 201.766 70.7116V74.8823C203.462 74.3123 205.061 74.4838 206.706 75.0723M204.463 65.5167C203.554 66.6104 202.688 67.6114 201.872 68.6494C201.543 69.0804 201.719 69.7014 202.22 70.0072C203.466 70.7718 204.732 70.8553 206.034 70.1092C206.479 69.8589 206.641 69.5531 206.53 69.0572C206.275 67.9682 205.774 66.9811 205.167 66.0543C205.028 65.8504 204.755 65.7345 204.467 65.5167" fill="#2E358F"/>
<path fill-rule="evenodd" clip-rule="evenodd" d="M237.601 80.5823C237.875 80.4387 238.065 80.346 238.385 80.1791C238.385 80.4618 238.459 80.6935 238.371 80.8187C237.685 81.7687 236.971 82.7001 236.267 83.6316C235.456 83.4369 234.955 82.9828 234.789 82.283C234.566 81.333 234.33 80.3599 234.307 79.3913C234.246 76.3514 234.283 73.3114 234.288 70.2714C234.288 69.2519 233.903 68.4455 232.995 67.7689C232.397 68.566 231.832 69.2936 231.313 70.0536C231.183 70.2343 231.179 70.5216 231.179 70.758C231.169 73.557 231.155 76.3513 231.188 79.1411C231.192 79.5118 231.369 79.9011 231.531 80.2579C231.679 80.5916 231.915 80.8835 232.17 81.2821C231.42 82.0745 230.683 82.853 229.881 83.7011C228.954 83.0013 228.426 82.0513 227.638 81.2913C228.393 80.5313 228.551 79.6648 228.546 78.7101C228.523 76.0038 228.57 73.3021 228.519 70.605C228.5 69.8543 228.31 69.085 228.051 68.3714C227.796 67.6577 227.406 67.6531 226.911 68.2416C226.892 68.2694 226.869 68.288 226.855 68.3158C225.835 69.5824 225.326 71.0236 225.326 72.6394C225.326 74.544 225.358 76.4487 225.312 78.3487C225.293 79.2523 225.502 80.0448 226.025 80.7769C226.118 80.8974 226.178 81.0365 226.294 81.245C225.567 82.0652 224.839 82.8855 224.042 83.7799C223.296 82.8623 222.619 82.0328 221.998 81.2774C221.998 81.1338 221.984 81.0874 222.003 81.0735C222.795 80.193 222.777 79.1318 222.763 78.0474C222.721 75.1279 222.721 72.2084 222.721 69.2936C222.726 68.7143 222.615 68.2045 222.128 67.7411C221.915 67.8199 221.669 67.9126 221.299 68.0562C221.312 67.7921 221.252 67.565 221.345 67.4353C222.054 66.4714 222.805 65.526 223.606 64.488C224.871 65.6975 225.159 67.2221 225.497 68.9414C226.818 67.426 227.791 65.8643 229.024 64.4138C230.414 65.577 230.78 67.1665 231.276 68.8672C232.49 67.4538 233.366 65.9338 234.548 64.4926C235.182 65.4148 235.776 66.2675 236.448 67.2406C236.879 66.6938 237.254 66.2258 237.713 65.6419C237.81 65.9431 237.917 66.1331 237.907 66.3045C237.898 66.476 237.768 66.6428 237.685 66.805C237.11 67.9265 236.869 69.0943 236.888 70.3594C236.939 73.0333 236.902 75.7072 236.902 78.3765C236.902 79.155 237.031 79.8965 237.597 80.587" fill="#2E358F"/>
<path fill-rule="evenodd" clip-rule="evenodd" d="M254.484 80.5452C254.706 80.4479 254.919 80.3506 255.114 80.2672C255.406 80.4989 255.336 80.7167 255.169 80.9345C254.502 81.8243 253.835 82.714 253.158 83.6177C252.315 83.4601 251.819 82.9504 251.643 82.2367C251.42 81.3516 251.226 80.434 251.212 79.5257C251.161 76.4857 251.193 73.4457 251.189 70.4058C251.189 69.2704 250.813 68.5336 249.836 67.7921C249.27 68.5521 248.691 69.3028 248.163 70.0906C248.024 70.2992 248.042 70.6236 248.042 70.8923C248.033 73.594 248.056 76.2957 248.024 79.0021C248.014 79.6416 248.311 80.1096 248.621 80.6055C249.043 81.2682 249.038 81.3052 248.496 81.8752C247.931 82.4777 247.342 83.0708 246.675 83.7613C245.92 82.8947 245.238 82.1116 244.534 81.3006C245.308 80.4757 245.401 79.5304 245.387 78.5201C245.35 75.8462 245.368 73.177 245.382 70.5031C245.382 69.7523 245.266 69.034 244.937 68.3575C244.599 67.6762 244.251 67.6484 243.774 68.237C243.751 68.2601 243.732 68.2833 243.714 68.3111C242.691 69.6118 242.18 71.0839 242.18 72.7275C242.18 74.5672 242.212 76.4116 242.171 78.256C242.147 79.1874 242.337 80.0169 242.894 80.7723C242.982 80.8928 243.028 81.0411 243.135 81.2635C242.435 82.056 241.721 82.8623 240.915 83.7799C240.178 82.8762 239.487 82.0328 238.741 81.1199C239.803 80.1791 239.668 78.965 239.654 77.7648C239.617 74.8823 239.585 71.9953 239.571 69.1082C239.571 68.5845 239.432 68.1443 239.019 67.7272C238.792 67.8106 238.547 67.8987 238.222 68.0192C238.195 67.8338 238.083 67.616 238.153 67.528C238.904 66.5131 239.682 65.5167 240.498 64.4694C241.735 65.7114 242.041 67.2128 242.337 68.7884C242.977 68.4733 243.204 67.8755 243.579 67.4214C243.973 66.9441 244.326 66.4343 244.696 65.9431C245.067 65.4519 245.438 64.9699 245.864 64.4092C247.301 65.5584 247.648 67.1572 248.135 68.8023C248.881 68.1443 249.279 67.3472 249.808 66.6567C250.322 65.9755 250.827 65.2711 251.406 64.4833C252.065 65.4241 252.658 66.2721 253.334 67.2453C253.761 66.6984 254.122 66.2304 254.474 65.767C254.817 65.906 254.854 66.1238 254.748 66.3833C254.669 66.5826 254.567 66.7726 254.474 66.9672C254.011 67.9543 253.756 68.9692 253.775 70.0767C253.821 72.8711 253.793 75.6655 253.793 78.4599C253.793 79.206 253.909 79.9243 254.484 80.5406" fill="#2E358F"/>
<path fill-rule="evenodd" clip-rule="evenodd" d="M274.475 66.6658C274.818 66.3183 275.087 66.0448 275.453 65.6648C275.411 66.4805 275.351 67.1431 275.351 67.8012C275.342 71.7912 275.332 75.7812 275.36 79.7712C275.365 80.4338 275.147 80.7999 274.586 81.1753C273.446 81.9307 272.399 82.8158 271.241 83.7009C270.513 83.1309 269.79 82.4451 268.961 81.9353C268.145 81.4394 267.218 81.1243 266.226 80.6795C267.116 79.4838 267.033 78.1585 267.028 76.8424C267.023 74.048 267.047 71.2583 267.014 68.4685C267.005 67.8707 267.167 67.4953 267.732 67.2312C268.298 66.9763 268.817 66.6195 269.419 66.2719C269.252 66.0263 269.132 65.8178 268.984 65.6417C268.168 64.7149 267.343 63.7788 266.509 62.8658C266.217 62.5507 266.083 62.2217 266.101 61.7907C266.134 60.8871 266.106 59.9788 266.106 59.0705C266.175 59.0427 266.236 59.0102 266.305 58.9871C269.016 61.5451 271.736 64.0985 274.475 66.6751M272.626 80.4292C272.677 80.1373 272.714 80.0168 272.714 79.9009C272.719 76.6477 272.723 73.3946 272.714 70.1414C272.714 69.9329 272.691 69.678 272.571 69.5344C271.908 68.7326 271.217 67.9541 270.559 67.1988C269.748 67.5139 269.568 68.0097 269.577 68.7048C269.614 70.7902 269.591 72.8756 269.591 74.9656V78.0936C269.591 78.3995 269.563 78.7146 269.897 78.9046C270.763 79.3865 271.625 79.8731 272.621 80.4292" fill="#2E358F"/>
<path fill-rule="evenodd" clip-rule="evenodd" d="M338.167 88.7384C336.443 88.7755 336.132 87.3111 335.187 86.5233C334.617 87.0609 334.154 87.7838 333.222 87.9413C334.362 84.8133 334.552 83.5945 334.269 81.0828C333.788 80.967 333.282 80.8465 332.717 80.7121C332.703 80.4109 332.685 80.1143 332.68 79.9475C333.162 79.5953 333.588 79.3543 333.922 79.0206C334.307 78.6221 334.316 78.0799 334.316 77.547C334.307 75.0631 334.316 72.5745 334.307 70.0906C334.307 69.2009 334.2 68.3204 333.565 67.528C333.287 67.6809 333.037 67.8199 332.8 67.9497C332.453 67.7087 332.597 67.5002 332.749 67.2916C333.421 66.3648 334.093 65.4426 334.83 64.4324C336.35 65.3638 336.475 66.9441 336.943 68.5568C337.967 67.1387 338.899 65.8551 339.9 64.4694C340.15 64.7197 340.387 64.9097 340.563 65.1368C341.828 66.7448 342.527 68.5521 342.532 70.5911C342.541 73.4458 342.541 76.3004 342.527 79.155C342.523 79.4377 342.453 79.7945 342.273 79.9938C341.216 81.157 340.118 82.2877 338.982 83.474C338.371 83.0894 337.722 82.677 336.967 82.195C336.475 84.577 336.781 86.6901 338.162 88.7384M338.565 67.8292C337.782 68.5707 337.309 69.3585 336.892 70.188C336.818 70.3409 336.795 70.5448 336.795 70.7209C336.786 73.2372 336.781 75.7536 336.804 78.2699C336.804 78.4784 336.925 78.7982 337.087 78.8816C337.972 79.3172 338.885 79.6972 339.914 80.156C339.937 79.6972 339.979 79.4006 339.979 79.104C339.979 76.3421 339.965 73.5802 339.983 70.8182C339.997 69.618 339.395 68.7375 338.565 67.8292Z" fill="#2E358F"/>
<path fill-rule="evenodd" clip-rule="evenodd" d="M316.354 83.6175C314.658 82.6444 313.346 81.1939 311.437 80.6146C311.47 80.4663 311.47 80.3412 311.53 80.2439C312.016 79.3819 312.104 78.4458 312.104 77.4866C312.104 74.5439 312.104 71.6012 312.104 68.6539V67.6344C313.773 67.032 314.917 65.8595 316.025 64.5156C317.304 65.8178 318.764 66.791 320.511 67.3842V68.2461C320.511 72.0785 320.497 75.911 320.529 79.7434C320.529 80.3644 320.344 80.7583 319.82 81.1105C318.639 81.9122 317.503 82.7788 316.359 83.6129M317.716 80.6517C317.8 80.4524 317.869 80.3736 317.869 80.2949C317.879 76.8888 317.879 73.4873 317.892 70.0859C317.892 69.692 317.689 69.4742 317.369 69.2888C316.664 68.8902 315.974 68.4639 315.274 68.0607C315.131 67.982 314.95 67.9681 314.709 67.9078C314.709 71.4529 314.709 74.9146 314.718 78.3763C314.718 78.571 314.792 78.849 314.936 78.9417C315.835 79.5256 316.762 80.0724 317.721 80.6517" fill="#2E358F"/>
<path fill-rule="evenodd" clip-rule="evenodd" d="M322.323 83.4785C321.901 82.9826 322.216 82.7 322.35 82.4265C323.157 80.7629 323.991 79.1131 324.816 77.4541C324.96 77.1529 325.103 76.847 325.289 76.4531C324.654 75.9063 324.042 75.3409 323.389 74.8358C322.925 74.479 322.735 74.0758 322.744 73.5012C322.777 71.8422 322.772 70.1831 322.744 68.5288C322.74 68.019 322.939 67.7178 323.328 67.3749C324.283 66.5407 325.145 65.6093 326.164 64.5897C326.957 64.9883 327.898 65.4378 328.82 65.9429C329.39 66.2534 329.913 66.3461 330.493 65.9846C331.267 65.498 331.498 64.6315 331.039 63.8344C330.933 63.649 330.757 63.4822 330.706 63.2876C330.632 63.0002 330.558 62.6805 330.636 62.4117C330.771 61.9158 331.243 61.851 331.554 62.2588C331.679 62.421 331.767 62.6341 331.832 62.8334C332.124 63.788 332.031 64.7195 331.596 65.6093C331.155 66.5222 330.678 67.4258 330.224 68.3341C329.765 69.2424 329.316 70.1507 328.815 71.1609C329.487 71.7402 330.145 72.3473 330.85 72.9034C331.28 73.2463 331.438 73.6309 331.429 74.1731C331.406 76.1056 331.406 78.0426 331.429 79.9751C331.438 80.5312 331.239 80.8417 330.766 81.1614C329.969 81.6943 329.251 82.3524 328.509 82.9641C328.268 83.1634 328.055 83.3765 327.772 83.636C326.002 82.3709 324.19 81.9075 322.327 83.4831M328.954 80.6563C328.996 80.5914 329.056 80.5497 329.056 80.5034C329.065 79.0621 329.079 77.6256 329.07 76.189C329.07 76.0222 329 75.809 328.88 75.6931C328.38 75.2019 327.856 74.7339 327.328 74.2519C326.595 75.2344 324.77 79.0482 324.709 79.6368C325.451 79.6785 326.225 79.6182 326.934 79.7851C327.638 79.9565 328.282 80.3551 328.954 80.6563M329.172 68.9273C328.384 68.8346 327.731 68.8114 327.105 68.6724C326.489 68.5334 325.905 68.2832 325.196 68.0375C325.196 69.4417 325.187 70.7253 325.2 72.0044C325.2 72.1712 325.275 72.389 325.395 72.4956C325.817 72.8756 326.28 73.2185 326.799 73.6402C327.643 72.0044 328.426 70.4983 329.172 68.9273" fill="#2E358F"/>
<path fill-rule="evenodd" clip-rule="evenodd" d="M212.332 83.6407C210.603 82.0049 209.954 80.1003 210.209 77.95C210.464 75.7673 211.062 73.6634 212.517 71.9025C212.795 71.5688 212.744 71.2444 212.647 70.8691C212.262 69.4139 211.905 67.9496 211.511 66.4017C212.934 66.3044 214.032 65.6649 214.922 64.5435C216.145 65.1876 217.35 65.8178 218.546 66.4435C218.856 66.1932 219.111 65.9754 219.385 65.7715C219.417 65.7437 219.496 65.7715 219.616 65.7854C219.385 66.4852 219.139 67.1664 218.935 67.8661C218.824 68.2461 218.736 68.6447 218.731 69.0339C218.699 72.3195 218.694 75.6051 218.685 78.8907C218.68 79.5442 218.727 80.1837 219.32 80.6749C219.385 80.6656 219.482 80.6749 219.556 80.6332C219.741 80.5498 219.936 80.3042 220.098 80.6054C220.159 80.7166 220.103 80.9622 220.015 81.0781C219.399 81.852 218.768 82.6212 218.12 83.3673C217.791 83.752 217.489 83.7751 217.188 83.3766C216.901 82.9919 216.655 82.5378 216.53 82.0744C216.312 81.2541 216.196 80.4015 216.011 79.4051C214.681 80.7629 213.638 82.2366 212.327 83.6407M213.434 72.2964C211.868 73.9647 212.313 78.7517 213.972 80.8324C214.741 80.0168 215.441 79.1688 216.085 78.2837C216.182 78.1539 216.155 77.9268 216.159 77.7461C216.164 76.8286 216.182 75.9064 216.15 74.9934C216.141 74.7432 216.062 74.4142 215.891 74.2612C215.098 73.5754 214.259 72.9405 213.439 72.2964M215.881 73.2649C215.965 73.2325 216.043 73.1954 216.122 73.163C216.122 71.8608 216.145 70.5586 216.104 69.2564C216.094 69.0478 215.844 68.7744 215.636 68.6493C214.727 68.1117 213.796 67.6159 212.864 67.1108C212.725 67.0366 212.545 67.0366 212.359 66.9949C212.341 67.1617 212.304 67.2591 212.322 67.3378C212.614 68.4917 212.901 69.6503 213.212 70.8042C213.268 71.0034 213.351 71.2352 213.499 71.3603C214.282 72.0091 215.089 72.6347 215.881 73.2649Z" fill="#2E358F"/>
<path fill-rule="evenodd" clip-rule="evenodd" d="M368.062 80.7119C368.284 80.6053 368.474 80.5219 368.803 80.3644C368.803 80.6378 368.877 80.8741 368.794 80.99C368.14 81.8149 367.455 82.6119 366.787 83.4229C366.523 83.738 366.227 83.6963 365.976 83.4553C365.782 83.27 365.578 83.029 365.508 82.7788C365.276 81.9863 365.087 81.1846 364.901 80.3783C364.836 80.1188 364.827 79.85 364.781 79.4283C364.164 79.85 363.854 80.3736 363.46 80.8093C363.066 81.2495 362.705 81.7129 362.325 82.1624C361.926 82.6258 361.523 83.0939 361.046 83.6546C360.656 83.2144 360.295 82.8807 360.026 82.4868C359.02 80.9853 358.691 79.3356 358.969 77.5654C359.294 75.5078 359.878 73.5522 361.226 71.8885C361.477 71.5827 361.463 71.3 361.375 70.9478C360.981 69.4649 360.619 67.9727 360.23 66.4064C361.653 66.2859 362.783 65.6556 363.631 64.5249C364.883 65.1922 366.064 65.8178 367.232 66.4342C367.584 66.1607 367.881 65.929 368.182 65.6927C368.228 65.7251 368.266 65.7576 368.312 65.79C368.089 66.4805 367.848 67.1664 367.645 67.8661C367.547 68.2137 367.464 68.5844 367.455 68.9459C367.422 72.199 367.394 75.4476 367.38 78.7007C367.376 79.4051 367.38 80.1234 368.071 80.7119M362.57 80.9483C363.451 80.0261 364.104 79.178 364.757 78.3439C364.846 78.2327 364.873 78.0566 364.873 77.9083C364.883 76.898 364.892 75.8924 364.873 74.8822C364.869 74.6876 364.795 74.428 364.656 74.3122C363.84 73.6171 362.987 72.959 362.056 72.2129C360.522 75.2483 361.171 78.001 362.57 80.9483ZM364.6 73.2742C364.716 73.1073 364.781 73.061 364.781 73.01C364.795 71.7866 364.799 70.5632 364.818 69.3398C364.822 68.9829 364.637 68.7837 364.336 68.6168C363.432 68.1256 362.542 67.6159 361.643 67.1247C361.486 67.0412 361.305 67.0134 361.083 66.9393C361.064 67.12 361.018 67.2451 361.05 67.3517C361.347 68.5381 361.643 69.729 361.968 70.9107C362.019 71.1054 362.158 71.3046 362.311 71.4344C363.047 72.0507 363.807 72.6346 364.6 73.2695" fill="#2E358F"/>
<path fill-rule="evenodd" clip-rule="evenodd" d="M265.049 65.8456C264.072 67.5371 264.076 69.3769 264.072 71.2212C264.072 73.7978 264.03 76.379 264.035 78.9556C264.035 79.5998 264.104 80.2485 264.748 80.7073C264.934 80.6193 265.119 80.5312 265.429 80.3829C265.453 80.6285 265.555 80.8695 265.471 80.9715C264.799 81.8195 264.099 82.649 263.4 83.4739C263.168 83.7473 262.871 83.6917 262.658 83.4739C262.445 83.2561 262.227 82.9966 262.148 82.7232C261.917 81.9632 261.745 81.1846 261.574 80.4061C261.504 80.1188 261.481 79.8268 261.407 79.3125C260.114 80.8324 258.96 82.1856 257.727 83.6268C257.412 83.3071 257.102 83.0615 256.875 82.7556C255.707 81.1846 255.322 79.419 255.633 77.519C255.966 75.4661 256.555 73.5012 257.917 71.8422C258.145 71.5642 258.112 71.2954 258.033 70.9849C257.676 69.6178 257.343 68.2461 256.995 66.8744C256.958 66.7354 256.935 66.5871 256.893 66.3832C258.348 66.3137 259.405 65.5908 260.323 64.5481C261.532 65.1876 262.709 65.8132 263.891 66.4435C264.225 66.1747 264.53 65.9337 264.832 65.6927C264.901 65.7437 264.975 65.7993 265.049 65.8456M258.803 72.301C257.083 74.2381 257.843 79.039 259.28 80.7583C259.354 80.7212 259.461 80.7027 259.512 80.6424C260.133 79.9103 260.758 79.1873 261.342 78.432C261.481 78.2605 261.523 77.9778 261.527 77.7415C261.551 76.8239 261.551 75.9064 261.527 74.9934C261.518 74.7617 261.463 74.4559 261.31 74.3261C260.494 73.6264 259.641 72.9683 258.803 72.3056M257.792 66.8837C257.714 67.1247 257.667 67.1849 257.681 67.2405C257.802 67.7781 257.922 68.3203 258.061 68.8532C258.494 70.5369 259.414 71.9025 260.823 72.9498C260.976 73.0656 261.166 73.1351 261.458 73.2834C261.458 71.8654 261.467 70.5817 261.449 69.3027C261.444 69.1174 261.324 68.8625 261.171 68.7744C260.077 68.1349 258.956 67.5325 257.788 66.8883" fill="#2E358F"/>
<path fill-rule="evenodd" clip-rule="evenodd" d="M369.767 58.4913C370.759 58.7972 371.305 59.3348 371.792 60.0438C372.673 59.2096 373.141 57.9399 374.559 57.8796C374.244 58.8157 373.896 59.6591 373.678 60.5304C373.525 61.1513 373.479 61.8048 373.474 62.4443C373.46 67.5372 373.493 72.6347 373.446 77.7323C373.437 78.6406 373.669 79.3311 374.364 79.9103C374.554 80.0632 374.684 80.2903 374.832 80.4757C375.129 80.3413 375.314 80.2532 375.643 80.105C375.652 80.3969 375.768 80.7074 375.657 80.851C374.925 81.801 374.142 82.7232 373.372 83.6547C372.246 82.5981 371.157 81.5693 370.003 80.4803C370.031 80.4293 370.11 80.2671 370.207 80.1281C370.731 79.4237 370.888 78.622 370.888 77.7786C370.898 72.3752 370.888 66.9718 370.898 61.573C370.898 60.4887 370.434 59.5665 369.772 58.496" fill="#2E358F"/>
<path fill-rule="evenodd" clip-rule="evenodd" d="M177.205 58.5191C178.085 58.7925 178.646 59.3208 179.119 60.0623C180.004 59.154 180.509 57.9213 182.052 57.8425C181.936 58.0742 181.881 58.2225 181.788 58.3616C181.083 59.4645 180.815 60.6972 180.805 61.9623C180.778 67.4213 180.796 72.8803 180.787 78.3393C180.787 78.7656 180.893 79.1086 181.218 79.4052C181.561 79.7156 181.862 80.0678 182.223 80.4386C182.423 80.3413 182.608 80.2532 182.817 80.1559C182.872 80.2069 182.993 80.2578 182.997 80.3227C183.011 80.5174 183.053 80.7676 182.946 80.8974C182.205 81.8427 181.426 82.7603 180.694 83.6454C179.55 82.5656 178.451 81.5322 177.307 80.4571C178.169 79.4978 178.229 78.2652 178.224 76.9908C178.206 72.0508 178.201 67.1154 178.229 62.1754C178.238 60.9706 178.002 59.8676 177.311 58.862C177.265 58.7972 177.265 58.7045 177.209 58.5237" fill="#2E358F"/>
<path fill-rule="evenodd" clip-rule="evenodd" d="M356.759 80.6843C357.125 80.3553 357.417 80.0958 357.718 79.8316C358.019 80.017 358.154 80.2255 357.927 80.5128C357.037 81.5787 356.143 82.6399 355.258 83.6919C354.21 82.6631 353.218 81.6899 352.157 80.6472C352.194 80.536 352.296 80.3182 352.343 80.0865C352.519 79.1875 352.797 78.2838 352.82 77.3848C352.876 74.3494 352.839 71.3094 352.839 68.2694V67.3055C352.523 67.1943 352.241 67.0924 351.861 66.958C351.949 66.6799 351.99 66.3834 352.125 66.1192C353.135 64.1451 354.159 62.1756 355.179 60.2061C355.207 60.1551 355.262 60.118 355.415 59.9558V65.1785C356.43 65.2156 357.348 65.2526 358.311 65.2897V66.9997H355.54C355.489 67.2916 355.42 67.4909 355.42 67.6902C355.41 71.3141 355.42 74.9333 355.406 78.5572C355.406 78.9836 355.512 79.3311 355.818 79.637C356.143 79.9567 356.43 80.3136 356.759 80.6843" fill="#2E358F"/>
<path fill-rule="evenodd" clip-rule="evenodd" d="M344.84 67.0321C345.554 66.2165 346.179 65.4936 346.884 64.678C347.565 65.526 348.2 66.3138 348.793 67.046C348.784 67.1943 348.802 67.2685 348.774 67.3102C348.121 68.2138 348.051 69.2194 348.061 70.2899C348.102 73.2975 348.075 76.3097 348.079 79.3172C348.079 79.9289 348.07 80.5499 348.714 80.9809C348.932 80.7955 349.14 80.6194 349.335 80.4526C349.692 80.6472 349.757 80.8604 349.516 81.1384C348.849 81.9123 348.186 82.6909 347.523 83.4694C347.231 83.8077 346.865 83.7752 346.619 83.4972C346.267 83.0848 345.915 82.626 345.73 82.1255C345.549 81.6204 345.517 81.0411 345.512 80.4943C345.493 77.2087 345.498 73.9231 345.503 70.6375C345.512 69.4094 345.614 68.1767 344.84 67.0368" fill="#2E358F"/>
<path fill-rule="evenodd" clip-rule="evenodd" d="M281.959 80.9762C282.182 80.8001 282.39 80.6333 282.608 80.4618C282.919 80.6333 283.03 80.8233 282.775 81.1153C282.108 81.8938 281.45 82.6677 280.787 83.4509C280.495 83.7984 280.134 83.7706 279.897 83.4879C279.531 83.0477 279.17 82.5611 278.97 82.0374C278.79 81.5648 278.785 81.0133 278.78 80.4943C278.766 77.1484 278.762 73.8026 278.78 70.4614C278.79 69.2889 278.813 68.1304 278.104 67.0182C278.766 66.2629 279.415 65.5168 280.152 64.6733C280.829 65.5168 281.464 66.2999 282.052 67.0321C282.047 67.1711 282.071 67.2499 282.038 67.2916C281.338 68.2463 281.301 69.326 281.311 70.4475C281.352 73.367 281.32 76.2819 281.329 79.1967C281.329 79.8362 281.311 80.4943 281.955 80.9762" fill="#2E358F"/>
<path fill-rule="evenodd" clip-rule="evenodd" d="M311.025 22.1642C311.039 20.8852 312.049 19.9167 313.342 19.9399C314.57 19.963 315.543 20.9455 315.552 22.1781C315.566 23.4247 314.514 24.4767 313.272 24.4674C312.012 24.4581 311.006 23.4294 311.025 22.1596" fill="#2E358F"/>
<path fill-rule="evenodd" clip-rule="evenodd" d="M172.381 59.7379C173.312 58.5238 174.137 57.3421 175.685 56.8833C175.624 57.0501 175.597 57.217 175.513 57.3467C175.212 57.8518 174.874 58.3338 174.586 58.8435C174.081 59.7426 173.803 60.6972 173.808 61.7399C173.817 67.1108 173.817 72.4864 173.808 77.8574C173.808 78.7703 174.002 79.6045 174.661 80.3784C174.966 80.105 175.231 79.864 175.499 79.623C176.069 80.1189 176.092 80.1328 175.699 80.6101C174.874 81.6203 174.035 82.612 173.182 83.5991C172.844 83.9884 172.612 84.0069 172.242 83.6547C172.005 83.4276 171.783 83.1403 171.653 82.8391C171.245 81.852 170.884 80.8372 170.485 79.7759C169.887 79.9937 169.554 80.6054 169.072 81.0503C168.594 81.4952 168.168 81.9818 167.705 82.4406C167.223 82.9225 166.727 83.3859 166.18 83.9188C165.782 83.6269 165.383 83.3349 164.994 83.043C163.942 82.2598 162.894 81.4813 161.847 80.6935C161.509 80.434 161.189 80.2625 160.735 80.4618C160.272 80.6657 160.197 81.0642 160.197 81.4535C160.197 81.9076 160.304 82.3664 160.369 82.8206C160.452 83.4369 160.304 83.8169 159.938 83.9049C159.544 83.993 159.164 83.6223 159.062 83.0152C159.034 82.8391 159.044 82.6398 159.094 82.4776C159.484 81.3469 159.827 80.193 160.304 79.0993C160.888 77.7415 161.588 76.4347 162.232 75.1001C162.352 74.8545 162.464 74.6042 162.593 74.3169C161.615 73.2047 160.865 71.9674 160.327 70.6189C159.104 67.5743 159.201 64.5343 160.503 61.5684C161.954 58.2689 165.295 56.7165 168.863 57.5877C169.253 57.6804 169.623 57.875 169.962 58.0882C170.74 58.5887 171.5 59.1401 172.381 59.7426M169.049 61.7584C167.723 60.5257 165.629 60.1689 164.127 60.9104C162.538 61.6935 161.425 62.9262 160.869 64.5621C159.854 67.5372 160.36 70.3038 162.287 72.8155C162.468 73.0518 162.704 73.2418 163.029 73.5662C164.363 70.9016 165.633 68.3574 166.922 65.804C166.449 65.3452 165.934 65.1413 165.355 65.1413C164.419 65.1413 163.919 65.8457 163.349 66.5501C163.168 65.373 163.548 64.5111 164.289 63.765C165.439 62.6111 166.796 62.4952 168.307 63.0838C168.59 62.5787 168.822 62.1569 169.049 61.7538M170.55 75.6284C170.351 75.545 170.267 75.4755 170.189 75.4755C167.964 75.4616 165.74 75.4476 163.511 75.4569C163.33 75.4569 163.066 75.6006 162.987 75.7489C162.695 76.2772 162.468 76.8425 162.204 77.4264C164.095 78.6498 165.897 79.813 167.691 80.9854C168.052 81.2218 168.312 81.1708 168.585 80.8557C169.141 80.1976 169.725 79.5535 170.277 78.8908C170.406 78.7333 170.536 78.5154 170.545 78.3254C170.569 77.4125 170.555 76.5042 170.555 75.6237M169.948 62.5416C169.85 62.523 169.744 62.5091 169.646 62.4952C168.006 65.7252 166.375 68.9599 164.767 72.2501C166.041 72.4586 169.822 72.403 170.49 72.1852C170.499 72.074 170.522 71.9581 170.518 71.8377C170.462 69.2703 170.416 66.6984 170.318 64.1311C170.3 63.5982 170.082 63.0745 169.952 62.5462" fill="#2E358F"/>
<path fill-rule="evenodd" clip-rule="evenodd" d="M327.258 22.1642C327.272 20.8852 328.282 19.9167 329.575 19.9399C330.799 19.963 331.776 20.9455 331.786 22.1781C331.8 23.4247 330.748 24.4767 329.506 24.4674C328.245 24.4581 327.24 23.4294 327.258 22.1596" fill="#2E358F"/>
<path fill-rule="evenodd" clip-rule="evenodd" d="M324.311 27.072C324.325 25.7929 325.335 24.8244 326.628 24.8476C327.856 24.8707 328.829 25.8532 328.838 27.0859C328.848 28.3278 327.8 29.3844 326.554 29.3751C325.293 29.3659 324.288 28.3371 324.306 27.0673" fill="#2E358F"/>
<path fill-rule="evenodd" clip-rule="evenodd" d="M330.284 27.072C330.298 25.7929 331.308 24.8244 332.601 24.8476C333.825 24.8707 334.802 25.8532 334.812 27.0859C334.826 28.3278 333.774 29.3844 332.532 29.3751C331.276 29.3659 330.266 28.3371 330.284 27.0673" fill="#2E358F"/>
<path fill-rule="evenodd" clip-rule="evenodd" d="M338.792 22.1642C338.806 20.8852 339.817 19.9167 341.109 19.9399C342.337 19.963 343.311 20.9455 343.32 22.1781C343.334 23.4247 342.282 24.4767 341.04 24.4674C339.779 24.4581 338.778 23.4294 338.792 22.1596" fill="#2E358F"/>
<path fill-rule="evenodd" clip-rule="evenodd" d="M338.792 27.072C338.806 25.7929 339.817 24.8244 341.109 24.8476C342.337 24.8707 343.311 25.8532 343.32 27.0859C343.334 28.3278 342.282 29.3844 341.04 29.3751C339.779 29.3659 338.778 28.3371 338.792 27.0673" fill="#2E358F"/>
<path fill-rule="evenodd" clip-rule="evenodd" d="M344.492 60.5905C344.506 59.3115 345.517 58.343 346.81 58.3661C348.038 58.3893 349.011 59.3717 349.02 60.6044C349.034 61.851 347.982 62.9029 346.74 62.8937C345.479 62.8844 344.474 61.8556 344.492 60.5859" fill="#2E358F"/>
<path fill-rule="evenodd" clip-rule="evenodd" d="M277.844 60.5905C277.858 59.3115 278.868 58.343 280.161 58.3661C281.389 58.3893 282.363 59.3717 282.372 60.6044C282.386 61.851 281.334 62.9029 280.092 62.8937C278.831 62.8844 277.826 61.8556 277.844 60.5859" fill="#2E358F"/>
<path fill-rule="evenodd" clip-rule="evenodd" d="M170.888 49.4454C170.902 48.1664 171.913 47.1979 173.206 47.2257C174.434 47.2489 175.407 48.2313 175.416 49.464C175.43 50.7106 174.378 51.7625 173.131 51.7532C171.876 51.744 170.865 50.7152 170.884 49.4454" fill="#2E358F"/>
<path fill-rule="evenodd" clip-rule="evenodd" d="M166.05 49.4454C166.064 48.1664 167.075 47.1979 168.367 47.2257C169.596 47.2489 170.569 48.2313 170.578 49.464C170.592 50.7106 169.54 51.7625 168.298 51.7532C167.037 51.744 166.032 50.7152 166.05 49.4454" fill="#2E358F"/>
<path fill-rule="evenodd" clip-rule="evenodd" d="M159.169 45.0337C159.285 44.9549 159.451 44.8298 159.451 44.8298C159.632 44.7 160.888 44.3896 161.722 42.99C162.556 41.5905 164.642 38.1057 164.642 38.1057C166.713 40.5896 170.819 41.09 170.077 38.1891C169.294 34.7737 168.942 33.212 168.942 33.212C165.656 21.9696 175.407 24.2913 177.594 19.1011C180.273 28.8189 182.594 37.443 182.594 37.443C183.507 40.7518 184.633 40.6127 187.386 39.2503V45.0383H179.67L175.37 29.6252C174.535 26.5713 173.071 28.805 173.474 30.5845C173.882 32.3593 176.871 45.0383 176.871 45.0383H159.159L159.169 45.0337Z" fill="#2E358F"/>
<path d="M206.256 39.0465C206.256 37.7119 205.714 36.799 204.639 36.799H190.329C190.329 36.799 190.468 36.28 190.792 35.988C192.766 34.1575 193.943 31.5531 193.943 31.5531L194.499 31.4651C195.139 31.4651 194.773 32.0258 195.686 32.0258H206.78C208.828 32.0258 211.743 32.7348 211.743 36.3495V45.0802L190.329 45.0385V39.0465H206.252H206.256Z" fill="#2E358F"/>
<path d="M64.9567 93.91C43.0512 93.91 25.2885 76.152 25.2885 54.2418C25.2885 32.3316 43.0512 14.5783 64.9567 14.5783C74.0906 14.5783 82.5016 17.6739 89.2071 22.8641C80.0408 11.5105 66.0179 4.24414 50.2897 4.24414C22.6795 4.24414 0.291992 26.6316 0.291992 54.2465C0.291992 81.8613 22.6795 104.244 50.2897 104.244C66.0179 104.244 80.0408 96.9778 89.2071 85.6242C82.5016 90.8144 74.0952 93.91 64.9567 93.91" fill="#EC2027"/>
<path fill-rule="evenodd" clip-rule="evenodd" d="M109.658 41.7436V51.7441H104.657V29.2454H94.6569V51.7441H89.6567V41.7436H79.6562V51.7441H74.656V29.2454H64.6555V79.243H74.656V56.7443H79.6562V66.7448H89.6567V56.7443H94.6569V79.243H104.657V56.7443H109.658V66.7448H119.658V41.7436H109.658Z" fill="#2E358F"/>
<path fill-rule="evenodd" clip-rule="evenodd" d="M268.849 22.0763C267.394 21.5017 265.721 20.7695 265.054 20.1578C264.238 19.4766 264.683 19.2124 263.775 18.9807L263.761 18.9714H263.752V39.0419H258.668V38.3699C258.571 36.1085 256.509 32.0212 251.926 32.0212H235.558C235.766 32.8599 235.998 32.4475 236.605 33.1751C237.143 33.7636 237.791 35.2419 238.297 36.5302C238.635 37.3226 238.843 37.2299 239.548 36.8963C239.826 36.8082 240.002 36.8082 240.326 36.8082C240.651 36.8082 247.537 36.7943 250.206 36.7943C252.876 36.7943 252.876 38.0363 252.876 39.0419H235.98C235.98 39.0419 235.34 39.0465 235.062 38.6155V38.6433C234.052 36.1409 231.6 34.8016 228.736 34.8016C225.872 34.8016 223.44 36.127 222.425 38.6155C222.147 39.0465 221.502 39.0465 221.502 39.0465H220.909H220.084V24.3841C220.084 24.0134 220.084 23.8141 220.186 23.499C220.562 22.7065 220.668 22.4702 219.774 22.0856C218.319 21.5109 216.646 20.7787 215.979 20.167C215.158 19.4766 215.626 19.217 214.676 18.9853V45.0848L214.69 45.0431H222.188C222.188 45.0431 222.828 45.0431 223.111 45.4741H223.115C224.343 47.2628 226.401 48.4399 228.736 48.4399C231.072 48.4399 233.143 47.2582 234.371 45.4602V45.4787C234.65 45.0431 235.294 45.0477 235.294 45.0477C235.294 45.0477 253.103 45.0338 253.853 45.0338C254.604 45.0338 254.817 45.1636 255.026 45.4509C256.027 46.7438 258.858 47.3926 259.952 46.8689L259.076 45.0477H264.924H269.146V24.3702C269.146 24.0041 269.146 23.8002 269.248 23.4897C269.623 22.6973 269.73 22.4563 268.836 22.0763M228.718 43.8845C227.457 43.8753 226.456 42.8419 226.47 41.5767C226.484 40.2977 227.499 39.3292 228.792 39.3524C230.02 39.3755 230.993 40.358 231.002 41.5906C231.012 42.8372 229.964 43.8892 228.718 43.8799" fill="#2E358F"/>
<path fill-rule="evenodd" clip-rule="evenodd" d="M270.926 45.0756H276.334V38.4348V24.4073C276.334 24.0412 276.334 23.8373 276.431 23.5268C276.806 22.7344 276.913 22.498 276.018 22.1134C274.563 21.5388 272.89 20.8066 272.228 20.1949C271.412 19.5137 271.857 19.2495 270.949 19.0178L270.939 19.0085C270.939 19.0085 270.93 19.0085 270.926 19.0085V45.0756V45.0756Z" fill="#2E358F"/>
<path d="M375.689 30.2603H375.68C375.166 30.3901 374.892 30.8488 374.869 30.9044C374.447 31.5069 372.483 31.9796 370.559 32.1418C368.618 32.3086 365.907 34.5515 365.11 36.1225C364.6 37.1235 364.285 37.99 364.113 39.0373H363.038V29.3705L363.024 29.3752L363.01 29.3798C362.102 29.6115 362.547 29.8757 361.736 30.5569C361.073 31.164 359.4 31.9008 357.941 32.4754C357.046 32.8554 357.153 33.0964 357.524 33.8888C357.626 34.2039 357.626 34.4032 357.626 34.7693V39.0373H356.601V32.0027L356.583 32.0074H356.574C355.665 32.2391 356.11 32.5032 355.295 33.1844C354.632 33.7915 352.959 34.5283 351.504 35.0983C350.609 35.4783 350.711 35.7193 351.091 36.5117C351.189 36.8269 351.193 37.0261 351.193 37.3969V39.0373H350.197V32.0027L350.183 32.0074H350.174C349.266 32.2391 349.71 32.5032 348.895 33.1844C348.232 33.7915 346.559 34.5283 345.099 35.0983C344.205 35.4783 344.307 35.7193 344.687 36.5117C344.784 36.8269 344.789 37.0261 344.789 37.3969V39.0373H343.76V29.3705L343.746 29.3752L343.737 29.3798C342.829 29.6115 343.274 29.8757 342.458 30.5569C341.795 31.164 340.118 31.9008 338.663 32.4754C337.768 32.8554 337.875 33.0964 338.246 33.8888C338.348 34.2039 338.348 34.4032 338.348 34.7693V39.0373H337.351V32.0027L337.337 32.0074H337.328C336.42 32.2391 336.865 32.5032 336.049 33.1844C335.386 33.7915 333.713 34.5283 332.258 35.0983C331.364 35.4783 331.47 35.7193 331.846 36.5117C331.943 36.8269 331.943 37.0261 331.943 37.3969V39.0373H330.97V32.0027L330.956 32.0074H330.947C330.039 32.2391 330.483 32.5032 329.668 33.1844C329.005 33.7915 327.328 34.5283 325.872 35.0983C324.978 35.4783 325.085 35.7193 325.46 36.5117C325.557 36.8269 325.562 37.0261 325.562 37.3969V39.0373H324.58V32.0027L324.566 32.0074H324.552C323.643 32.2391 324.088 32.5032 323.277 33.1844C322.615 33.7915 320.937 34.5283 319.482 35.0983C318.588 35.4783 318.694 35.7193 319.07 36.5117C319.167 36.8269 319.171 37.0261 319.171 37.3969V39.0373H315.9V25.3667L315.886 25.3713H315.877C315.362 25.5057 315.089 25.9598 315.066 26.0201C314.644 26.6225 312.684 27.0952 310.756 27.2574C308.814 27.4242 306.103 29.6671 305.306 31.2381C304.514 32.8091 304.175 34.0279 304.157 36.1781L304.352 36.6832H310.737V39.0373L303.485 39.0791L297.609 19.4396C297.294 18.434 296.979 19.3006 296.979 19.6574C296.979 20.0142 296.487 20.524 295.774 21.0569C295.065 21.5898 290.746 24.8801 290.746 24.8801C288.438 26.5159 288.151 29.1759 289.291 32.531C290.305 35.52 291.093 37.6147 291.093 37.6147C291.802 39.4266 290.736 39.0327 289.912 39.0327H283.957C283.957 39.0327 282.274 42.7447 280.968 44.1627V45.071H296.742C297.887 45.071 297.572 44.362 297.294 43.6483C296.872 42.5593 296.904 42.5454 294.022 32.5264L293.471 30.2001C293.114 28.8191 294.143 28.4252 294.652 28.4252C295.162 28.4252 295.639 28.3835 296.112 30.5569C296.585 32.7257 299.861 43.9634 299.861 43.9634C300.255 45.1081 300.607 45.0664 301.279 45.0664H315.631L315.608 45.0339L375.708 45.0432V30.2418L375.694 30.2464M310.742 33.6988C310.028 33.6988 309.454 33.1196 309.454 32.4105C309.454 31.7015 310.033 31.1222 310.742 31.1222C311.451 31.1222 312.03 31.7015 312.03 32.4105C312.03 33.1196 311.451 33.6988 310.742 33.6988ZM370.383 39.0327C369.67 39.0327 369.095 38.4581 369.095 37.7444C369.095 37.0308 369.674 36.4561 370.383 36.4561C371.092 36.4561 371.672 37.0308 371.672 37.7444C371.672 38.4581 371.092 39.0327 370.383 39.0327Z" fill="#2E358F"/>
</g>
<defs>
<clipPath id="clip0_913_5062">
<rect width="375.416" height="100" fill="white" transform="translate(0.291992 4.24414)"/>
</clipPath>
</defs>
</svg>
