<svg width="32" height="33" viewBox="0 0 32 33" fill="none" xmlns="http://www.w3.org/2000/svg">
<g filter="url(#filter0_d_6703_2128)">
<rect x="2" y="2.51953" width="28" height="28" rx="14" fill="#DAEEF1"/>
<path fill-rule="evenodd" clip-rule="evenodd" d="M8.3287 14.3666L13.8914 9.71422C14.4476 9.25909 14.5993 9.20852 14.5993 9.86593V12.7484H17.6841C24.9661 12.7484 25.0167 18.0076 22.4882 23.4186C22.2859 23.8737 21.9319 23.6209 21.9319 23.3175C22.1342 19.1707 22.1342 16.9963 17.6841 16.9963H14.5993V19.5247C14.5993 20.4856 14.3465 20.435 13.7397 19.9293L8.27813 15.378C7.92415 15.024 7.87358 14.7206 8.3287 14.3666Z" fill="#368796"/>
<rect x="1.5" y="2.01953" width="29" height="29" rx="14.5" stroke="#8ECBD7"/>
</g>
<defs>
<filter id="filter0_d_6703_2128" x="0" y="0.519531" width="32" height="32" filterUnits="userSpaceOnUse" color-interpolation-filters="sRGB">
<feFlood flood-opacity="0" result="BackgroundImageFix"/>
<feColorMatrix in="SourceAlpha" type="matrix" values="0 0 0 0 0 0 0 0 0 0 0 0 0 0 0 0 0 0 127 0" result="hardAlpha"/>
<feOffset/>
<feGaussianBlur stdDeviation="0.5"/>
<feComposite in2="hardAlpha" operator="out"/>
<feColorMatrix type="matrix" values="0 0 0 0 0.211765 0 0 0 0 0.529412 0 0 0 0 0.588235 0 0 0 0.2 0"/>
<feBlend mode="normal" in2="BackgroundImageFix" result="effect1_dropShadow_6703_2128"/>
<feBlend mode="normal" in="SourceGraphic" in2="effect1_dropShadow_6703_2128" result="shape"/>
</filter>
</defs>
</svg>
