<svg width="35" height="34" viewBox="0 0 35 34" fill="none" xmlns="http://www.w3.org/2000/svg">
<path fill-rule="evenodd" clip-rule="evenodd" d="M3.50033 0C1.93552 0 0.666992 1.26853 0.666992 2.83333V31.1667C0.666992 32.7315 1.93552 34 3.50033 34H31.8337C33.3985 34 34.667 32.7315 34.667 31.1667V2.83333C34.667 1.26853 33.3985 0 31.8337 0H3.50033ZM27.3696 13.0979L26.6284 12.7417C29.7038 15.6408 28.9204 20.0097 26.9992 23.3324C25.998 25.0639 24.6319 26.6382 23.1359 27.7887C21.655 28.9275 19.9558 29.7188 18.2973 29.7188C16.6334 29.7188 14.9744 28.9223 13.5452 27.7879C12.1027 26.6431 10.8051 25.0857 9.85153 23.3962C8.90056 21.7115 8.2591 19.8368 8.19903 18.0508C8.1639 17.0041 8.33003 15.9725 8.76022 15.0389C8.75125 15.0277 8.74161 15.0159 8.73132 15.0035C8.63801 14.8911 8.49426 14.7336 8.30254 14.568C7.91636 14.234 7.36461 13.8905 6.65647 13.7771C6.40459 13.7367 6.17981 13.5962 6.03314 13.3875C5.88646 13.1788 5.83046 12.9196 5.87787 12.669C6.1936 10.9998 6.47872 10.0077 6.69944 9.41403C6.81023 9.11616 6.90901 8.90715 6.99411 8.75764C7.03699 8.68237 7.07807 8.61928 7.11736 8.56611C7.13719 8.53929 7.15684 8.51464 7.17648 8.49178C7.1863 8.48026 7.19622 8.46931 7.20614 8.45863L7.22106 8.44296L7.22852 8.43531L7.2323 8.43153L7.23419 8.42964C7.23513 8.42879 7.23608 8.42785 7.89832 9.10114C8.16531 8.19523 8.1655 8.19532 8.16579 8.19542L8.16777 8.19598L8.17193 8.19721L8.18524 8.20118L8.23086 8.21525C8.26949 8.22724 8.32436 8.24462 8.39302 8.26738C8.53044 8.31272 8.72414 8.37939 8.95648 8.46694C9.41878 8.64101 10.0451 8.90177 10.688 9.24592C11.1839 9.5114 11.7114 9.8379 12.1864 10.2278L11.2082 8.721C10.9296 8.29184 11.0433 7.71894 11.4647 7.42881L14.4954 5.34225C14.9141 5.05401 15.4858 5.14883 15.7891 5.55683L16.2573 6.18706V5.22589C16.2573 4.70428 16.6802 4.28145 17.2018 4.28145H20.9725C21.4942 4.28145 21.917 4.70428 21.917 5.22589V6.49712C21.9353 6.51346 21.9541 6.53036 21.9733 6.54793C22.1484 6.7082 22.3571 6.92061 22.5798 7.19157C24.1713 6.91097 26.0925 7.07011 28.3834 7.91709L29.2435 8.23508L28.951 9.10416C28.7403 9.73023 28.5085 10.2275 28.2974 10.6802L28.2917 10.6924C28.0779 11.1509 27.8856 11.5648 27.7106 12.085L27.3696 13.0979ZM7.89832 9.10114L7.23607 8.42784C7.48059 8.18729 7.83674 8.09842 8.16579 8.19542L7.89832 9.10114ZM10.2575 13.0904C10.6517 12.7689 11.0858 12.54 11.539 12.3834L11.6187 12.3444C11.5259 12.2115 11.4076 12.0734 11.2607 11.9307C10.8722 11.5528 10.3508 11.2079 9.79656 10.9113C9.29459 10.6426 8.79498 10.4288 8.39812 10.2756C8.26769 10.663 8.09882 11.2604 7.90597 12.1628C8.59532 12.4198 9.14064 12.7955 9.53806 13.1391C9.6327 13.2209 9.71978 13.3017 9.7992 13.3794C9.886 13.3228 9.97931 13.263 10.0787 13.2009C10.1362 13.1649 10.1959 13.128 10.2575 13.0904ZM12.2584 14.1354C11.9359 14.2984 11.6344 14.4675 11.3658 14.6278C10.439 15.4602 10.0408 16.6151 10.0869 17.9873C10.1339 19.388 10.6487 20.9657 11.4965 22.4678C12.3416 23.965 13.4853 25.3289 14.7195 26.3084C15.967 27.2986 17.2203 27.8299 18.2973 27.8299C19.3798 27.8299 20.6799 27.2945 21.9844 26.2913C23.2739 25.2998 24.4795 23.9167 25.364 22.3869C27.1803 19.2457 27.4314 15.9717 25.2088 14.0028C24.9409 13.7656 24.7561 13.6566 24.509 13.5315C24.4511 13.5022 24.3866 13.4706 24.3154 13.4358C24.1538 13.3567 23.9575 13.2607 23.7248 13.1353C23.1455 13.4356 22.4886 13.9625 21.8985 14.5158C21.5546 14.8384 21.26 15.1444 21.0515 15.3696C20.9475 15.4819 20.8656 15.5733 20.8107 15.6358C20.7831 15.667 20.7623 15.6909 20.7489 15.7065L20.7344 15.7235L20.7313 15.727L20.5951 15.8878L20.5237 16.0045L19.4259 19.9455L19.8103 20.8339L21.8109 20.6016L22.0287 22.478L20.2258 22.6873L20.3419 24.3895L18.4574 24.5181L18.291 22.0791L17.427 20.0823L17.4697 19.9291L16.9006 20.1865L16.1038 22.2004L14.3474 21.5056L14.8828 20.1522L13.1976 19.7551L13.6308 17.9166L16.0667 18.4905L18.1304 17.5572L18.7037 15.4993C18.6557 15.4758 18.6061 15.4518 18.5547 15.4272C17.9339 15.1302 17.0855 14.763 16.1612 14.4723C15.2297 14.1793 14.2652 13.9782 13.4004 13.9812C12.973 13.9827 12.5919 14.0335 12.2584 14.1354ZM19.7117 13.8204C19.7373 13.787 19.7638 13.7527 19.791 13.7178C20.1657 13.2376 20.7146 12.6067 21.4008 12.0297C22.5603 11.0545 24.2928 10.0989 26.2661 10.5852C26.3704 10.3432 26.4746 10.1198 26.574 9.90628L26.5797 9.89419C26.6607 9.7206 26.7386 9.55334 26.8136 9.38428C23.5956 8.43653 21.5828 9.19719 20.3234 10.2386C19.2534 11.1237 18.6366 12.2882 18.3353 13.0826C18.7558 13.2993 19.1701 13.5226 19.5173 13.7131C19.5846 13.7502 19.6496 13.7861 19.7117 13.8204ZM14.2201 10.9344C14.2269 10.9002 14.2328 10.8749 14.2373 10.8572C14.408 10.5581 14.4066 10.1787 14.2092 9.87464L13.293 8.46336L14.8163 7.41464L15.8235 8.77002C16.005 9.01416 16.2928 9.15601 16.597 9.151C16.9011 9.14609 17.1843 8.99489 17.3576 8.74499L17.9778 7.85069C18.0875 7.69269 18.1462 7.50484 18.1462 7.31246V6.17034H20.0281V6.953C20.0281 7.26297 20.1801 7.55216 20.433 7.72811C19.7343 8.08926 19.083 8.62278 18.5364 9.19199C17.7266 10.0352 17.0086 11.0973 16.5683 12.1918C15.6132 12.0336 15.0406 12.0316 14.6045 12.0316C14.3637 12.0316 14.2399 12.0297 14.1248 12.0132C14.1439 11.4299 14.1866 11.1036 14.2201 10.9344Z" fill="#368796"/>
</svg>
