<svg width="41" height="41" viewBox="0 0 41 41" fill="none" xmlns="http://www.w3.org/2000/svg">
<path fill-rule="evenodd" clip-rule="evenodd" d="M3.94631 13.3851L31.8536 7.0562L31.4669 5.35043C31.3596 4.86479 30.8696 4.55989 30.3885 4.66721L4.23455 10.5579C3.74892 10.6652 3.44401 11.1508 3.55133 11.6365C3.68441 12.2165 3.81299 12.8049 3.94631 13.3851ZM3.71432 9.01124L30.1991 3.0515C31.4623 2.76801 32.7212 3.56289 33.0049 4.82609L35.7806 17.0933H34.122L32.8629 11.5376L4.95558 17.8664L6.68298 25.4847L6.83771 26.1593C6.89788 26.43 7.16861 26.6062 7.44367 26.5417L7.64992 26.4945V28.1187L7.61984 28.1276C6.57153 28.3639 5.52735 27.698 5.28672 26.6538L1.9308 11.8219C1.78906 11.1902 1.89206 10.5975 2.23595 10.0473C2.5796 9.49745 3.08261 9.15299 3.71432 9.01124Z" fill="#41A5B4"/>
<path fill-rule="evenodd" clip-rule="evenodd" d="M10.3642 17.5358C9.07093 17.5358 8.01807 18.5927 8.01807 19.8862V35.1481C8.01807 36.4413 9.07068 37.4942 10.3642 37.4942H37.5193C38.8125 37.4942 39.8695 36.4373 39.8695 35.1481V19.8862C39.8695 18.5929 38.8125 17.5358 37.5193 17.5358H10.3642ZM36.9482 24.3674V21.2608C36.9482 21.0589 36.7891 20.8998 36.5872 20.8998H29.6392C29.4416 20.8998 29.2782 21.0629 29.2782 21.2608V24.3674C29.2782 24.5649 29.4414 24.7283 29.6392 24.7283H36.5872C36.7805 24.7283 36.9482 24.5693 36.9482 24.3674ZM31.8264 33.7858C31.6245 33.7858 31.4611 33.6224 31.4611 33.4249V32.7031C31.4611 32.5056 31.6245 32.3421 31.8264 32.3421H36.5829C36.7804 32.3421 36.9438 32.5055 36.9438 32.7031V33.4249C36.9438 33.6224 36.7807 33.7858 36.5829 33.7858H31.8264ZM25.1882 33.7858C24.9907 33.7858 24.8272 33.6224 24.8272 33.4249V32.7073C24.8272 32.5053 24.9904 32.3463 25.1882 32.3463H29.949C30.1466 32.3463 30.31 32.5094 30.31 32.7073V33.4249C30.31 33.6224 30.1466 33.7858 29.949 33.7858H25.1882ZM18.5538 33.7858C18.3562 33.7858 18.1928 33.6224 18.1928 33.4249V32.7073C18.1928 32.5053 18.356 32.3463 18.5538 32.3463H23.3146C23.5122 32.3463 23.6756 32.5094 23.6756 32.7073V33.4249C23.6756 33.6224 23.5122 33.7858 23.3146 33.7858H18.5538ZM11.9199 33.7858C11.7224 33.7858 11.559 33.6224 11.559 33.4249V32.7073C11.559 32.5053 11.7224 32.3463 11.9199 32.3463H16.6807C16.8783 32.3463 17.0417 32.5094 17.0417 32.7073V33.4249C17.0417 33.6224 16.8786 33.7858 16.6807 33.7858H11.9199Z" fill="#6268B2"/>
<circle cx="12.3677" cy="22.9495" r="2" fill="#F0920A"/>
<circle cx="14.2793" cy="22.9495" r="2" fill="#EB6247" fill-opacity="0.9"/>
</svg>
