<svg width="365" height="404" viewBox="0 0 365 404" fill="none" xmlns="http://www.w3.org/2000/svg">
<g clip-path="url(#clip0_5472_26790)">
<circle cx="182.25" cy="221.4" r="178.25" fill="#ECF6F8" stroke="#69BAC9" stroke-width="8"/>
<mask id="mask0_5472_26790" style="mask-type:alpha" maskUnits="userSpaceOnUse" x="8" y="-17" width="350" height="414">
<path d="M356.923 217.071C356.923 315.632 278.923 395.51 182.73 395.51C86.5372 395.51 8.53711 315.632 8.53711 217.071C8.53711 167.774 28.0512 109.401 59.6159 63.355C91.1885 17.2974 134.73 -16.308 182.73 -16.308C230.73 -16.308 274.271 17.2974 305.844 63.355C337.409 109.401 356.923 167.774 356.923 217.071Z" fill="#ECF6F8" stroke="#69BAC9"/>
</mask>
<g mask="url(#mask0_5472_26790)">
<path fill-rule="evenodd" clip-rule="evenodd" d="M138.871 73.6901C138.871 73.6901 132.128 59.6895 132.964 51.475C133.801 43.2606 137.307 35.768 141.37 32.1093C145.434 28.4505 143.438 25.8309 147.118 22.719C150.799 19.6017 154.124 16.5773 158.428 16.4023C162.732 16.2273 168.863 16.8617 168.863 16.8617C168.863 16.8617 170.586 10.9497 171.581 10.1075C172.576 9.26525 178.303 2.83917 182.716 1.52661C187.135 0.214051 188.218 -0.628176 184.767 2.38525C181.316 5.39867 178.592 8.40662 178.636 10.5395C178.68 12.6724 181.103 10.8786 186.342 7.90894C191.581 4.94474 202.765 2.19383 209.766 5.38773C216.761 8.58163 226.238 15.8171 231.817 18.9727C237.395 22.1229 242.591 25.109 245.265 25.3879C247.939 25.6668 244.275 28.549 240.972 28.9701C237.669 29.3912 238.653 32.0437 241.251 34.2641C243.849 36.4845 247.491 42.3746 246.167 51.2016C244.844 60.0285 244.51 63.2935 241.634 66.9742C238.757 70.6603 234.961 74.1058 234.961 74.1058C234.961 74.1058 233.326 79.6623 221.885 83.7039C210.444 87.7455 161.305 91.7597 150.29 87.0017C139.276 82.2436 138.871 73.701 138.871 73.701V73.6901Z" fill="#323C54"/>
<path fill-rule="evenodd" clip-rule="evenodd" d="M171.793 43.1458C171.793 43.1458 170.738 42.4075 167.582 47.8765C164.432 53.3455 162.999 56.162 159.384 59.4051C155.775 62.6483 150.049 63.0913 150.049 63.0913C150.049 63.0913 149.546 65.5086 149.524 68.1501C149.502 70.7861 148.583 81.6038 148.583 81.6038C148.583 81.6038 146.155 71.076 145.761 70.4142C145.367 69.758 140.013 65.1257 137.246 71.8034C134.484 78.481 134.637 82.3695 137.142 88.1776C139.652 93.9857 142.928 96.7147 145.553 97.6772C148.178 98.6398 148.709 101.314 148.709 101.314C148.709 101.314 148.37 105.651 149.436 109.638C150.503 113.625 151.974 117.191 151.974 117.191L151.148 122.993C151.148 122.993 149.086 132.301 148.971 133.122C148.856 133.942 147.812 139.482 147.812 139.482C147.812 139.482 160.828 169.677 173.735 169.108C186.642 168.539 198.963 160.604 199.395 159.696C199.828 158.788 202.103 150.524 202.103 150.524L205.515 130.015C205.515 130.015 211.044 121.358 212.559 116.693C214.069 112.028 215.015 108.096 215.015 108.096C215.015 108.096 218.892 107.806 220.172 106.231C221.447 104.65 224.941 100.373 227.003 95.4131C229.065 90.4527 229.601 85.1532 229.273 83.4086C228.945 81.664 226.675 80.4717 225.412 80.6686C224.148 80.8655 221.047 80.5702 221.047 80.5702C221.047 80.5702 205.018 74.5324 202.66 72.0003C200.303 69.4681 189.852 66.2633 186.472 66.143C183.092 66.0226 175.217 62.703 173.593 59.5364C171.968 56.3753 171.175 53.6627 171.203 50.7751C171.23 47.8874 171.782 43.1458 171.782 43.1458H171.793Z" fill="#FFF0F2"/>
<path fill-rule="evenodd" clip-rule="evenodd" d="M160.484 94.1715C166.451 94.1715 171.296 98.4483 171.296 103.709C171.296 108.971 166.451 113.247 160.484 113.247C154.517 113.247 149.672 108.971 149.672 103.709C149.672 98.4483 154.517 94.1715 160.484 94.1715Z" fill="#FFDDE3"/>
<path fill-rule="evenodd" clip-rule="evenodd" d="M206.685 102.813C212.652 102.813 217.497 107.089 217.497 112.351C217.497 117.612 212.652 121.889 206.685 121.889C200.719 121.889 195.873 117.612 195.873 112.351C195.873 107.089 200.719 102.813 206.685 102.813Z" fill="#FFDDE3"/>
<path fill-rule="evenodd" clip-rule="evenodd" d="M159.357 84.907C160.074 83.9226 164.733 80.685 169.229 80.9748C173.724 81.2647 175.026 83.6984 175.622 85.2735C176.218 86.8485 174.479 93.023 171.991 94.0512C169.502 95.0794 166.872 94.9755 163.257 93.023C159.642 91.0706 158.646 85.8969 159.357 84.907Z" fill="white"/>
<path fill-rule="evenodd" clip-rule="evenodd" d="M198.307 96.0036C198.307 96.0036 198.028 90.3596 202.726 88.4236C207.424 86.493 212.663 88.2541 213.97 90.7315C215.277 93.209 212.925 100.898 211.449 101.768C209.972 102.638 206.368 102.78 203.24 101.161C200.112 99.5476 198.307 95.9982 198.307 95.9982V96.0036Z" fill="white"/>
<path fill-rule="evenodd" clip-rule="evenodd" d="M148.775 133.822C148.775 133.822 148.649 137.798 149.956 140.56C151.257 143.322 160.992 156.469 167.276 160.314C173.555 164.164 177.525 164.59 180.227 164.011C182.928 163.431 191.46 160.625 194.993 158.378C198.526 156.13 200.462 156.321 201.337 154.26C202.218 152.198 202.699 149.091 202.699 149.091C202.699 149.091 204.274 146.247 205.051 149.321C205.833 152.4 205.636 153.975 207.709 155.195C209.781 156.414 212.035 159.592 214.993 161.922C217.947 164.251 226.09 169.436 226.09 169.436C226.09 169.436 233.287 175.168 245.767 181.594C258.248 188.02 268.704 192.28 274.337 197.902C279.97 203.524 288.223 212.63 288.223 212.63C288.223 212.63 296.115 226.248 298.177 236.388C300.239 246.522 304.351 260.358 305.505 265.258C306.659 270.159 312.259 284.684 312.259 284.684C312.259 284.684 323.821 316.946 327.206 329.049C330.592 341.152 333.37 365.423 333.37 365.423C333.37 365.423 334.414 379.221 331.598 384.149C328.781 389.077 325.467 392.506 320.25 397.154C315.032 401.809 308.475 406.824 302.891 408.224C297.307 409.618 284.614 410.717 284.614 410.717C284.614 410.717 272.352 412.511 269.224 409.186C266.096 405.861 266.364 399.429 266.697 397.761C267.036 396.093 265.133 390.477 265.133 390.477L141.769 428.361L98.0441 426.08C98.0441 426.08 81.3417 425.298 59.5149 413.436C37.6936 401.568 29.2003 395.601 24.661 386.998C20.1217 378.396 18.4318 364.887 18.9076 353.758C19.3779 342.634 20.7342 333.982 20.7342 333.982C20.7342 333.982 28.9596 290.996 29.5339 290.049C30.1081 289.103 40.9477 244.438 41.9813 242.321C43.015 240.205 50.6114 212.313 56.5617 203.481C62.512 194.648 70.0647 190.393 70.6717 190.065C71.2788 189.737 88.6757 179.953 94.708 177.47C100.735 174.987 112.165 167.237 113.702 166.176C115.239 165.115 125.663 159.056 125.663 159.056C125.663 159.056 140.511 144.273 142.392 141.73C144.279 139.187 144.082 137.098 145.652 135.052C147.227 133.007 148.78 133.827 148.78 133.827L148.775 133.822Z" fill="white"/>
<path fill-rule="evenodd" clip-rule="evenodd" d="M167.009 190.098C167.009 190.098 163.984 181.528 163.585 179.565C163.186 177.601 162.01 173.866 162.01 173.866C162.01 173.866 168.267 169.179 170.542 167.724C172.817 166.269 176.339 164.224 177.17 164.793C178.007 165.362 178.898 167.937 179.938 169.54C180.977 171.142 185.97 178.717 185.97 178.717L180.9 191.629C180.9 191.629 181.157 198.34 181.108 199.324C181.053 200.309 180.829 224.241 181.409 233.5C181.988 242.764 183.908 260.539 183.908 260.539C183.908 260.539 189.552 297.799 190.088 304.597C190.629 311.395 191.433 318.926 192.205 322.765C192.97 326.604 194.972 335.929 194.972 335.929C194.972 335.929 194.135 348.212 190.192 353.178C186.249 358.144 157.252 369.334 153.741 369.29C150.23 369.241 145.401 365.899 145.428 364.023C145.455 362.147 144.646 345.686 144.646 345.686L140.987 301.578C140.987 301.578 142.781 294.993 143.027 294.178C143.273 293.358 147.878 262.458 148.299 261.479C148.72 260.5 157.52 227.161 158.51 223.475C159.5 219.789 163.191 205.756 163.191 205.756C163.191 205.756 166.063 194.216 166.528 193.598C166.987 192.975 167.014 190.098 167.014 190.098H167.009Z" fill="#6492FE"/>
<path fill-rule="evenodd" clip-rule="evenodd" d="M288.502 342.317C288.502 342.317 285.762 343.875 284.11 340.501C282.459 337.127 278.302 330.613 277.608 325.778C276.913 320.944 276.208 318.723 273.353 316.273C270.498 313.829 264.821 313.566 260.156 313.812C255.491 314.064 246.019 316.766 243.29 318.302C240.561 319.845 229.508 326.675 227.49 332.33C225.472 337.985 224.684 344.198 225.663 345.39C226.642 346.583 242.333 354.387 246.057 357.209C249.782 360.031 264.739 381.797 270.044 382.875C275.349 383.952 276.908 383.504 280.233 381.42C283.558 379.336 287.742 375.596 288.19 373.911C288.639 372.227 290.81 361.075 291.051 355.081C291.297 349.082 288.502 342.311 288.502 342.311V342.317Z" fill="#FFF0F2"/>
<path fill-rule="evenodd" clip-rule="evenodd" d="M155.541 381.376C156.033 380.343 158.385 374.349 160.282 370.323C162.18 366.298 168.119 353.577 170.012 350.919C171.904 348.256 172.894 344.373 174.48 343.531C176.066 342.688 189.809 341.693 195.574 341.07C201.338 340.446 219.337 340.074 219.337 340.074C219.337 340.074 219.61 337.668 222.963 338.122C226.315 338.576 228.831 337.947 228.831 337.947C228.831 337.947 228.743 334.403 232.019 332.872C235.295 331.34 241.836 331.45 243.471 333.222C245.106 334.999 245.921 338.494 245.921 338.494C245.921 338.494 252.085 338.97 252.96 339.516C253.835 340.063 253.655 341.901 253.655 341.901C253.655 341.901 259.862 340.763 266.616 340.999C273.37 341.234 282.602 342.147 284.926 344.307C287.251 346.468 288.58 349.317 286.463 353.796C284.341 358.275 279.446 366.812 274.787 376.028C270.127 385.248 250.362 425.692 250.362 425.692L138.598 427.814C138.598 427.814 143.181 418.155 144.942 413.129C146.703 408.098 147.972 402.355 150.072 397.51C152.172 392.664 155.048 382.41 155.541 381.382V381.376Z" fill="#AAC7FD"/>
<path fill-rule="evenodd" clip-rule="evenodd" d="M250.29 314.578C250.29 314.578 257.312 309.087 260.03 305.735C262.748 302.382 275.19 288.463 280.277 283.946C285.363 279.429 291.165 273.473 293.358 273.796C295.552 274.118 297.865 275.535 295.043 279.604C292.215 283.673 289.798 286.057 286.134 288.66C282.47 291.264 276.569 296.536 276.186 296.765C275.803 296.995 266.62 304.892 263.788 307.621C260.949 310.35 257.848 313.763 257.449 313.801C257.05 313.84 250.29 314.578 250.29 314.578Z" fill="#415381"/>
<path fill-rule="evenodd" clip-rule="evenodd" d="M115.464 363.099C115.464 363.099 122.568 365.483 129.869 365.965C137.17 366.446 145.494 366.32 151.586 366.096C157.679 365.872 162.612 366.041 162.612 366.041L157.712 375.328C157.712 375.328 175.82 379.796 185.653 379.052C195.486 378.308 201.223 378.002 202.213 379.44C203.203 380.884 201.557 384.379 201.557 384.379C201.557 384.379 203.4 386.266 201.442 388.645C199.484 391.029 196.678 393.791 195.721 395.629C194.764 397.461 194.441 399.008 191.674 401.305C188.907 403.602 174.95 408.147 172.888 408.771C170.826 409.394 156.76 409.99 151.362 410.05C145.959 410.111 137.783 410.127 137.783 410.127C137.783 410.127 113.145 406.971 106.079 405.5C99.0128 404.034 96.2236 403.356 96.2236 403.356C96.2236 403.356 97.2682 387.206 104.247 377.286C111.231 367.37 115.464 363.094 115.464 363.094V363.099Z" fill="#FFF0F2"/>
<path fill-rule="evenodd" clip-rule="evenodd" d="M142.786 140.587L142.485 144.552C142.485 144.552 141.752 144.459 139.871 147.095C137.989 149.731 136.228 153.592 134.681 156.031C133.133 158.471 125.646 168.736 121.861 180.812C118.082 192.887 115.052 202.791 114.544 205.717C114.035 208.643 109.813 229.633 109.545 239.62C109.277 249.606 109.425 258.942 109.425 258.942C109.425 258.942 118.952 261.556 120.565 266.101C122.179 270.645 123.6 274.774 122.354 278.592C121.101 282.409 113.275 292.314 102.791 289.628C92.3123 286.938 92.0826 275.573 95.4187 268.048C98.7602 260.522 103.513 259.614 103.513 259.614L103.792 255.83C103.792 255.83 106.455 224 108.719 212.964C110.983 201.933 114.227 187.369 114.5 186.702C114.779 186.034 122.775 162.452 126.844 156.179C130.913 149.912 136.119 144.372 138.498 143.01C140.877 141.648 142.786 140.582 142.786 140.582V140.587Z" fill="#E5EEFF"/>
<path fill-rule="evenodd" clip-rule="evenodd" d="M215.596 161.867C215.596 161.867 224.138 162.211 227.332 167.319C230.526 172.427 232.724 177.546 233.944 183.945C235.158 190.344 237.931 208.441 237.931 208.441C237.931 208.441 247.874 211.946 251.713 218.061C255.552 224.175 259.123 233.921 259.112 241.638C259.101 249.354 259.058 261.906 257.669 269.902C256.285 277.897 255.218 280.582 253.2 284.066C251.182 287.555 248.224 290.574 249.049 289.989C249.875 289.404 256.996 287.512 259.036 285.215C261.076 282.918 263.072 281.124 263.072 281.124C263.072 281.124 259.998 280.987 260.458 277.432C260.917 273.877 262.077 271.034 265.205 269.869C268.333 268.704 271.237 273.019 270.75 276.809C270.264 280.599 266.856 285.598 264.658 288.392C262.459 291.181 259.528 293.09 256.4 293.528C253.271 293.965 245.041 293.812 245.041 293.812C245.041 293.812 241.951 295.721 239.112 297.082C236.274 298.444 229.58 300.238 229.58 300.238C229.58 300.238 228.847 303.339 225.38 304.132C221.907 304.93 216.044 304.498 215.847 299.194C215.65 293.883 217.553 291.542 220.539 291.209C223.526 290.875 227.376 292.735 227.846 293.659C228.316 294.583 231.636 294.096 233.452 293.413C235.268 292.729 238.636 290.771 238.636 290.771L233.621 288.463C233.621 288.463 221.972 277.864 219.582 260.812C217.192 243.754 217.728 231.58 220.78 225.346C223.832 219.116 232.26 211.296 232.26 211.296L233.539 207.052C233.539 207.052 229.695 186.373 228.196 182.835C226.698 179.297 224.614 171.596 223.482 169.622C222.35 167.648 215.579 161.867 215.579 161.867H215.596ZM223.892 231.334C224.28 230.355 228.136 221.474 229.755 219.647C231.374 217.82 236.509 213.314 240.211 214.84C243.914 216.365 250.078 220.773 252.161 232.909C254.245 245.045 253.9 253.79 253.736 255.923C253.572 258.056 253.184 270.481 251.642 275.135C250.099 279.789 247.961 282.125 246.802 283.804C245.642 285.483 241.89 289.262 241.89 289.262C241.89 289.262 232.708 283.678 229.897 277.558C227.091 271.438 223.99 260.845 223.99 260.845C223.99 260.845 221.136 249.923 221.923 242.989C222.711 236.054 223.493 232.308 223.881 231.329L223.892 231.334Z" fill="#E5EEFF"/>
<path fill-rule="evenodd" clip-rule="evenodd" d="M167.358 46.3998C165.641 50.4086 163.443 54.8056 160.369 57.923C157.388 60.9419 153.571 62.7357 148.534 61.6911C148.162 61.6145 147.796 61.8552 147.719 62.2271C147.643 62.599 147.883 62.9654 148.255 63.042C153.828 64.1959 158.056 62.2271 161.354 58.891C164.547 55.6533 166.85 51.1031 168.633 46.9412C168.78 46.5912 168.622 46.1865 168.272 46.0388C167.922 45.8912 167.517 46.0498 167.369 46.3998H167.358Z" fill="#232124"/>
<path fill-rule="evenodd" clip-rule="evenodd" d="M171.459 42.938C169.797 49.55 170.07 54.926 172.406 58.9293C174.752 62.9545 179.187 65.6398 185.969 66.7719C186.341 66.832 186.696 66.5805 186.762 66.2086C186.822 65.8312 186.57 65.4757 186.193 65.4156C179.915 64.371 175.769 61.9646 173.598 58.2402C171.416 54.494 171.246 49.4679 172.799 43.277C172.892 42.9106 172.668 42.5332 172.296 42.4403C171.93 42.3473 171.552 42.5715 171.459 42.938Z" fill="#232124"/>
<path fill-rule="evenodd" clip-rule="evenodd" d="M182.141 49.7194C182.037 53.8594 182.775 56.7908 184.224 59.0933C186.363 62.495 190.076 64.524 195.075 67.0233C198.126 68.5492 201.977 69.8891 205.466 69.8891C205.849 69.8891 206.155 69.5828 206.155 69.2C206.155 68.8172 205.849 68.5109 205.466 68.5109C202.184 68.5109 198.569 67.2312 195.693 65.7928C190.967 63.4302 187.407 61.5762 185.389 58.3659C184.066 56.2549 183.42 53.5587 183.519 49.7632C183.53 49.3803 183.229 49.0686 182.846 49.0577C182.463 49.0467 182.151 49.3475 182.141 49.7304V49.7194Z" fill="#232124"/>
<path fill-rule="evenodd" clip-rule="evenodd" d="M169.977 17.0859C170.163 13.46 172.012 10.3426 174.626 7.78861C178.646 3.86734 184.487 1.26956 189.174 0.224982C189.545 0.142946 189.781 -0.223477 189.699 -0.595369C189.617 -0.967261 189.25 -1.20243 188.878 -1.12039C183.973 -0.0320616 177.875 2.69697 173.669 6.80419C170.798 9.60432 168.812 13.0389 168.605 17.0148C168.583 17.3922 168.878 17.7203 169.255 17.7367C169.633 17.7586 169.961 17.4633 169.977 17.0859Z" fill="#232124"/>
<path fill-rule="evenodd" clip-rule="evenodd" d="M185.609 0.843008C181.939 2.83919 178.455 7.49878 178.258 11.7701C178.242 12.1529 178.537 12.4756 178.915 12.492C179.292 12.5084 179.615 12.2131 179.637 11.8357C179.817 8.00193 182.978 3.84549 186.271 2.05166C186.604 1.87118 186.73 1.45007 186.544 1.11646C186.364 0.782849 185.942 0.657062 185.609 0.843008Z" fill="#232124"/>
<path fill-rule="evenodd" clip-rule="evenodd" d="M180.949 11.6771C183.503 9.35279 186.85 8.20976 190.038 7.02299C206.905 0.755512 217.05 9.19965 229.891 17.961C232.39 19.6619 234.282 21.3408 237.154 22.5276C237.504 22.6698 237.908 22.5057 238.056 22.1557C238.198 21.8057 238.034 21.401 237.684 21.2533C234.911 20.1103 233.09 18.4696 230.673 16.8234C217.443 7.79959 206.937 -0.721119 189.562 5.73777C186.21 6.98471 182.71 8.2207 180.024 10.6599C179.74 10.9169 179.724 11.3544 179.981 11.6334C180.238 11.9123 180.675 11.9342 180.954 11.6771H180.949Z" fill="#232124"/>
<path fill-rule="evenodd" clip-rule="evenodd" d="M229.529 27.7231C230.793 28.6091 232.898 29.1669 235.195 29.3802C238.575 29.6919 242.365 29.2599 244.394 28.2481C244.733 28.0786 244.87 27.6629 244.7 27.3239C244.531 26.9848 244.115 26.8426 243.776 27.0176C241.911 27.9528 238.422 28.2973 235.321 28.013C233.297 27.827 231.432 27.384 230.317 26.602C230.005 26.3832 229.573 26.4598 229.354 26.7715C229.136 27.0832 229.212 27.5153 229.524 27.734L229.529 27.7231Z" fill="#232124"/>
<path fill-rule="evenodd" clip-rule="evenodd" d="M239.676 32.618C243.586 34.7345 245.271 39.3776 245.714 44.5951C246.397 52.6618 244.057 62.1506 241.623 66.5312C241.437 66.8649 241.557 67.2805 241.891 67.4664C242.224 67.6524 242.646 67.5321 242.826 67.1985C245.347 62.6647 247.792 52.8369 247.086 44.4802C246.6 38.7542 244.62 33.7282 240.332 31.4038C239.999 31.2234 239.577 31.3491 239.397 31.6827C239.216 32.0164 239.342 32.4375 239.676 32.618Z" fill="#232124"/>
<path fill-rule="evenodd" clip-rule="evenodd" d="M238.466 50.1132C240.664 56.9768 239.139 66.2413 234.698 72.7822C231.777 77.0809 227.583 80.2037 222.316 80.6084C221.939 80.6357 221.654 80.9693 221.682 81.3467C221.709 81.7241 222.042 82.0084 222.42 81.9811C228.113 81.5436 232.674 78.2075 235.835 73.5588C240.511 66.6788 242.086 56.9221 239.778 49.6976C239.664 49.3366 239.275 49.1343 238.914 49.2491C238.553 49.364 238.351 49.7523 238.466 50.1132Z" fill="#232124"/>
<path fill-rule="evenodd" clip-rule="evenodd" d="M166.194 15.7898C159.68 15.6585 156.623 15.1772 153.353 16.6539C151.171 17.6383 148.885 19.4923 145.423 22.9542C145.155 23.2221 145.155 23.6597 145.423 23.9276C145.691 24.1956 146.128 24.1956 146.396 23.9276C149.688 20.6353 151.843 18.8415 153.921 17.9063C157.039 16.5007 159.954 17.0367 166.167 17.1679C166.544 17.1789 166.861 16.8726 166.872 16.4953C166.878 16.1124 166.577 15.8007 166.199 15.7898H166.194Z" fill="#232124"/>
<path fill-rule="evenodd" clip-rule="evenodd" d="M147.653 26.602C140.275 30.2936 135.386 37.6822 133.477 45.8365C131.574 53.9798 132.64 62.8724 137.109 69.5774C137.322 69.8946 137.749 69.9767 138.066 69.7688C138.383 69.5555 138.465 69.129 138.257 68.8118C133.991 62.413 133.001 53.9197 134.817 46.1482C136.633 38.3932 141.249 31.3436 148.265 27.8325C148.604 27.663 148.741 27.2473 148.572 26.9083C148.402 26.5692 147.986 26.4325 147.647 26.602H147.653Z" fill="#232124"/>
<path fill-rule="evenodd" clip-rule="evenodd" d="M148.595 65.8694C149.3 73.8268 148.13 82.4514 147.856 90.4198C147.648 96.37 147.189 103.19 148.491 109.047C151.088 120.734 161.698 130.387 171.269 136.77C171.586 136.983 172.013 136.895 172.226 136.578C172.439 136.261 172.352 135.834 172.035 135.621C162.732 129.419 152.357 120.1 149.836 108.746C148.556 102.998 149.032 96.3044 149.234 90.4635C149.513 82.4405 150.684 73.7612 149.967 65.7436C149.934 65.3663 149.601 65.0819 149.218 65.1202C148.841 65.153 148.562 65.4866 148.595 65.8694Z" fill="#232124"/>
<path fill-rule="evenodd" clip-rule="evenodd" d="M222.891 82.5882C221.83 84.6774 221.464 87.2424 220.775 89.4737C219.249 94.3903 217.231 99.1484 215.661 104.049C214.037 109.107 212.659 114.801 210.482 119.996C208.355 125.077 205.456 129.682 200.747 132.684C197.641 134.664 194.08 135.195 190.662 136.338C190.301 136.458 190.104 136.846 190.225 137.207C190.345 137.568 190.733 137.765 191.094 137.645C194.616 136.469 198.275 135.889 201.485 133.849C206.44 130.694 209.514 125.875 211.756 120.532C213.949 115.304 215.338 109.567 216.974 104.475C218.549 99.575 220.567 94.806 222.093 89.8894C222.765 87.7291 223.094 85.2407 224.122 83.2172C224.291 82.8781 224.16 82.4625 223.821 82.2929C223.482 82.1179 223.066 82.2546 222.897 82.5937L222.891 82.5882Z" fill="#232124"/>
<path fill-rule="evenodd" clip-rule="evenodd" d="M206.008 128.561C205.187 129.605 204.454 131.694 203.853 134.254C202.507 139.953 201.682 148.047 201.211 151.317C201.157 151.695 201.419 152.045 201.796 152.099C202.174 152.154 202.524 151.891 202.579 151.514C203.043 148.265 203.858 140.237 205.198 134.577C205.745 132.269 206.358 130.36 207.096 129.419C207.331 129.118 207.276 128.686 206.981 128.451C206.68 128.216 206.248 128.271 206.013 128.566L206.008 128.561Z" fill="#232124"/>
<path fill-rule="evenodd" clip-rule="evenodd" d="M150.859 117.841C150.558 122.321 149.295 126.608 148.737 131.044C148.534 132.668 147.802 134.505 148.009 136.152C148.507 140.117 151.274 143.218 153.107 146.515C154.457 148.944 156.481 151.044 158.286 153.111C163.35 158.903 169.388 164.235 177.301 165.558C177.679 165.619 178.029 165.367 178.094 164.99C178.155 164.612 177.903 164.257 177.526 164.197C169.929 162.928 164.181 157.76 159.319 152.203C157.575 150.212 155.606 148.194 154.304 145.848C152.554 142.698 149.842 139.767 149.366 135.982C149.174 134.445 149.902 132.733 150.093 131.219C150.651 126.756 151.92 122.446 152.221 117.94C152.248 117.562 151.958 117.229 151.581 117.207C151.203 117.18 150.87 117.469 150.848 117.847L150.859 117.841Z" fill="#232124"/>
<path fill-rule="evenodd" clip-rule="evenodd" d="M180.008 165.208C181.933 164.979 183.836 163.666 185.619 162.917C190.126 161.008 194.681 159.663 198.625 156.77C199.139 156.392 199.751 156.07 200.32 155.709C200.987 155.282 201.605 154.801 202.026 154.172C202.24 153.855 202.152 153.428 201.835 153.215C201.518 153.002 201.091 153.089 200.878 153.406C200.561 153.882 200.085 154.227 199.582 154.549C198.98 154.932 198.346 155.271 197.81 155.665C193.954 158.492 189.491 159.789 185.083 161.654C183.415 162.359 181.649 163.633 179.849 163.847C179.472 163.89 179.204 164.235 179.248 164.612C179.292 164.99 179.636 165.258 180.013 165.214L180.008 165.208Z" fill="#232124"/>
<path fill-rule="evenodd" clip-rule="evenodd" d="M189.918 95.3309C189.82 97.4256 190.236 99.7444 190.69 101.79C190.87 102.605 191.105 103.305 191.264 103.939C191.417 104.524 191.515 105.038 191.357 105.52C191.193 106.006 190.772 106.444 189.979 106.931C189.464 107.248 189.043 107.346 188.453 107.434C188.075 107.489 187.813 107.839 187.868 108.21C187.922 108.588 188.272 108.85 188.65 108.796C189.443 108.681 190.006 108.533 190.7 108.107C191.69 107.499 192.237 106.898 192.527 106.296C192.883 105.558 192.872 104.798 192.68 103.928C192.522 103.223 192.243 102.435 192.035 101.495C191.608 99.564 191.204 97.3763 191.297 95.3966C191.313 95.0137 191.018 94.6965 190.64 94.6747C190.263 94.6583 189.935 94.9536 189.918 95.3309Z" fill="#232124"/>
<path fill-rule="evenodd" clip-rule="evenodd" d="M172.363 111.202C172.795 112.044 173.517 112.635 174.364 113.061C175.474 113.619 176.814 113.893 177.87 114.221C184.001 116.108 187.927 117.595 194.682 116.715C195.059 116.666 195.327 116.321 195.278 115.944C195.228 115.566 194.884 115.298 194.507 115.347C187.982 116.201 184.203 114.724 178.28 112.903C177.443 112.646 176.415 112.427 175.485 112.055C174.698 111.738 173.97 111.317 173.588 110.573C173.413 110.234 172.997 110.103 172.658 110.272C172.319 110.447 172.188 110.863 172.357 111.202H172.363Z" fill="#232124"/>
<path fill-rule="evenodd" clip-rule="evenodd" d="M157.618 74.062C158.843 74.0948 160.27 73.6245 161.55 73.5698C166.942 73.3456 172.324 73.4877 177.148 75.905C177.487 76.0746 177.902 75.9379 178.072 75.5988C178.241 75.2597 178.105 74.8441 177.766 74.6745C172.729 72.1588 167.123 71.9619 161.495 72.1971C160.248 72.2463 158.859 72.7221 157.661 72.6893C157.279 72.6783 156.961 72.9791 156.95 73.3565C156.94 73.7393 157.24 74.0565 157.618 74.062Z" fill="#232124"/>
<path fill-rule="evenodd" clip-rule="evenodd" d="M201.923 80.7889C207.151 80.1983 212.784 79.4162 217.537 82.8617C217.843 83.0859 218.275 83.0148 218.5 82.7086C218.724 82.4023 218.653 81.9703 218.346 81.746C213.293 78.0873 207.326 78.7982 201.77 79.4217C201.392 79.4654 201.119 79.8045 201.163 80.1819C201.207 80.5592 201.546 80.8327 201.923 80.7889Z" fill="#232124"/>
<path fill-rule="evenodd" clip-rule="evenodd" d="M159.461 85.1094C161.55 83.5398 165.275 81.828 168.622 81.56C170.503 81.4069 172.27 81.6967 173.489 82.8288C174.293 83.5726 174.851 84.6719 175.07 86.2086C175.125 86.586 175.475 86.8485 175.846 86.7938C176.224 86.7391 176.486 86.3891 176.432 86.0172C176.158 84.0976 175.425 82.7468 174.424 81.817C172.931 80.4388 170.804 80.0013 168.512 80.1873C164.903 80.4826 160.889 82.3147 158.635 84.0101C158.329 84.2398 158.269 84.6718 158.499 84.9726C158.728 85.2789 159.161 85.3391 159.461 85.1094Z" fill="#232124"/>
<path fill-rule="evenodd" clip-rule="evenodd" d="M201.572 89.4245C203.956 88.5932 207.539 87.9697 210.399 88.7026C212.165 89.1565 213.647 90.1518 214.287 92.0277C214.408 92.3887 214.801 92.5801 215.162 92.4598C215.523 92.3394 215.715 91.9457 215.594 91.5847C214.791 89.2276 212.964 87.9424 210.749 87.3681C207.632 86.5642 203.721 87.215 201.123 88.1228C200.763 88.2486 200.577 88.6424 200.702 88.9979C200.828 89.3588 201.222 89.5448 201.577 89.419L201.572 89.4245Z" fill="#232124"/>
<path fill-rule="evenodd" clip-rule="evenodd" d="M167.823 94.1879C168.397 94.3903 168.911 94.4067 169.365 94.3028C170.131 94.1278 170.754 93.5863 171.224 92.8261C172.209 91.2347 172.515 88.6259 172.515 87.4829C172.515 86.9524 172.559 86.0336 172.362 85.2844C172.187 84.6008 171.815 84.0539 171.208 83.8023C170.218 83.3921 169.037 83.846 168.255 84.4093C165.717 86.2415 165.4 88.5658 165.87 91.4644C165.958 92.0222 165.925 92.8316 166.144 93.3512C166.275 93.6574 166.472 93.8926 166.734 94.0457C166.986 94.1879 167.309 94.27 167.741 94.2043C167.763 94.2043 167.79 94.1934 167.812 94.1879H167.823Z" fill="#232124"/>
<path fill-rule="evenodd" clip-rule="evenodd" d="M203.717 94.166C203.241 95.3419 203.033 96.6927 203.082 97.6662C203.115 98.3389 203.131 99.1866 203.394 99.8812C203.558 100.313 203.804 100.691 204.171 100.975C204.641 101.571 205.297 101.976 205.997 102.08C206.823 102.205 207.742 101.938 208.513 101.057C210.154 99.1811 210.597 95.9927 210.154 93.6301C210.044 93.0558 209.864 92.1535 209.476 91.4753C209.136 90.8792 208.644 90.4471 207.993 90.3432C206.664 90.119 205.532 90.9667 204.805 91.9949C204.329 92.673 203.957 93.4059 203.717 94.177V94.166ZM206.079 99.6952C206.134 99.6241 206.216 99.5147 206.26 99.4327C206.462 99.0717 206.615 98.6561 206.697 98.503C207.381 97.2178 207.704 95.9927 207.643 94.5215C207.632 94.2864 207.583 94.0184 207.463 93.7832C207.386 93.6301 207.282 93.4879 207.113 93.4441C207.031 93.4223 206.954 93.466 206.878 93.5098C206.763 93.5754 206.654 93.6684 206.55 93.7723C206.221 94.1004 205.948 94.527 205.778 94.8005C205.237 95.67 204.942 96.7201 205.007 97.7264C205.062 97.885 205.122 98.0436 205.193 98.1967C205.335 98.5084 205.565 99.0499 205.871 99.4491C205.943 99.5421 206.003 99.6351 206.079 99.6897V99.6952Z" fill="#232124"/>
<path fill-rule="evenodd" clip-rule="evenodd" d="M206.204 99.9195C206.275 99.9414 206.352 99.9468 206.423 99.9468C206.538 99.9468 206.768 99.9359 206.986 99.6624C207.331 99.2304 207.55 98.6288 207.686 97.9671L207.697 97.9124H207.725C208.102 97.9671 208.447 97.7045 208.501 97.3272C208.561 96.9006 208.638 96.474 208.676 96.042C208.715 95.6044 208.736 95.1615 208.736 94.7239C208.736 94.0403 208.611 93.7122 208.534 93.5973C208.37 93.3567 208.162 93.2856 207.976 93.2692C208.009 93.1434 208.004 93.0012 207.954 92.8699C207.829 92.5145 207.429 92.3285 207.074 92.4543C206.718 92.5856 206.418 92.8426 206.177 93.1707C205.92 93.5208 205.728 93.9583 205.559 94.2919C204.886 95.588 204.492 96.8623 204.399 98.328C204.389 98.4702 204.296 99.3999 204.465 99.8265C204.591 100.144 204.815 100.33 205.072 100.406C205.444 100.51 205.832 100.384 206.144 100.007C206.166 99.9797 206.188 99.9468 206.21 99.914L206.204 99.9195Z" fill="#232124"/>
<path fill-rule="evenodd" clip-rule="evenodd" d="M148.889 81.1498C148.878 81.1061 148.774 80.7232 148.742 80.4498C148.654 79.706 148.654 78.8091 148.589 78.3989C148.315 76.6926 147.938 75.2378 147.358 73.6135C146.603 71.4806 146.395 69.8946 144.459 68.6039C143.738 68.1226 143.12 68.1281 142.283 68.1281C139.882 68.1281 138.219 69.4188 137.104 71.229C136.065 72.919 135.512 75.0847 135.255 76.9824C134.664 81.3522 135.447 86.493 137.596 90.7479C139.783 95.0739 143.371 98.4701 148.331 99.296C148.709 99.3616 149.059 99.1046 149.125 98.7272C149.185 98.3498 148.933 97.9998 148.556 97.9342C144.044 97.1795 140.806 94.0512 138.821 90.119C136.797 86.1157 136.059 81.2756 136.617 77.1629C136.847 75.4456 137.333 73.4823 138.274 71.9455C139.138 70.5345 140.412 69.5008 142.277 69.5008C142.813 69.5008 143.229 69.4352 143.688 69.7469C144.618 70.3704 145.028 71.0923 145.345 71.9345C145.586 72.5799 145.777 73.2909 146.056 74.0729C146.603 75.6152 146.959 76.9988 147.221 78.6231C147.298 79.0989 147.287 80.2256 147.424 81.0022C147.511 81.5108 147.686 81.9045 147.883 82.1014C148.151 82.3694 148.589 82.3694 148.857 82.1014C149.114 81.8389 149.125 81.4233 148.884 81.1553L148.889 81.1498Z" fill="#232124"/>
<path fill-rule="evenodd" clip-rule="evenodd" d="M142.469 75.7684C142.562 75.8559 142.72 76.0145 142.819 76.1567C143.404 76.9934 143.891 78.2951 143.907 78.3443C144.88 80.9639 145.323 83.7203 145.57 86.4876C145.493 86.4767 145.416 86.4767 145.34 86.4876C145.105 86.5095 144.848 86.608 144.596 86.8814C143.814 87.7291 143.387 89.2221 143.387 90.3488C143.387 90.5019 143.338 90.7699 143.344 90.9941C143.344 91.191 143.387 91.3715 143.448 91.5082C143.535 91.7051 143.672 91.8473 143.852 91.9402C144.005 92.0223 144.197 92.066 144.448 92.0277C144.826 91.9676 145.077 91.6121 145.017 91.2402C144.99 91.0543 144.886 90.8956 144.744 90.7917C144.755 90.6386 144.771 90.4417 144.771 90.3542C144.771 89.6214 144.99 88.6643 145.444 88.0299C145.477 88.0736 145.509 88.1229 145.531 88.1557C145.63 88.3198 145.717 88.4674 145.772 88.533C145.848 88.626 145.92 88.6807 145.98 88.7135C146.198 88.8448 147.134 88.9979 147.057 87.8549C146.833 84.4696 146.39 81.0679 145.198 77.8685C145.17 77.8029 144.383 75.752 143.557 74.8879C143.212 74.5324 142.84 74.3519 142.507 74.3355C142.206 74.3246 141.9 74.4175 141.621 74.6965C141.353 74.9644 141.353 75.402 141.621 75.6699C141.851 75.8996 142.206 75.9325 142.469 75.7684Z" fill="#232124"/>
<path fill-rule="evenodd" clip-rule="evenodd" d="M142.332 82.0358C142.688 81.6257 143.093 81.1499 143.552 80.7506C143.935 80.417 144.356 80.1272 144.832 80.0451C145.209 79.9795 145.455 79.6185 145.39 79.2467C145.324 78.8748 144.963 78.6232 144.591 78.6888C143.262 78.9295 142.141 80.16 141.299 81.1335C141.047 81.4233 141.08 81.8554 141.364 82.1069C141.649 82.3585 142.086 82.3257 142.338 82.0413L142.332 82.0358Z" fill="#232124"/>
<path fill-rule="evenodd" clip-rule="evenodd" d="M226.156 81.8444C226.632 81.5655 227.031 81.4944 227.37 81.6202C227.72 81.7514 227.982 82.0686 228.196 82.4569C228.726 83.4249 228.907 84.814 228.792 85.793C228.453 88.6806 226.91 93.7942 224.903 98.0928C223.596 100.893 222.103 103.348 220.594 104.557C219.905 105.11 218.953 106.192 218.001 106.969C217.509 107.368 217.05 107.713 216.618 107.713C216.235 107.713 215.929 108.019 215.929 108.402C215.929 108.785 216.235 109.091 216.618 109.091C217.296 109.091 218.094 108.67 218.871 108.035C219.817 107.264 220.769 106.181 221.452 105.635C223.082 104.333 224.734 101.702 226.15 98.678C228.223 94.2371 229.804 88.9431 230.154 85.9571C230.296 84.7375 230.061 83.0038 229.399 81.8006C229.016 81.1006 228.491 80.5756 227.851 80.3349C227.195 80.0888 226.402 80.1216 225.467 80.6576C225.139 80.849 225.024 81.2701 225.215 81.5983C225.406 81.9264 225.828 82.0413 226.156 81.8499V81.8444Z" fill="#232124"/>
<path fill-rule="evenodd" clip-rule="evenodd" d="M148.293 132.115C145.87 133.116 144.459 135.08 143.595 137.371C142.78 139.531 142.452 141.992 142.146 144.136C140.215 157.661 138.903 172.077 140.264 185.712C140.439 187.484 140.614 192.887 141.353 196.524C141.708 198.269 142.239 199.63 142.879 200.177C143.59 200.79 144.317 200.719 144.973 200.308C145.684 199.865 146.297 198.914 146.576 198.323C147.916 195.529 149.015 192.406 150.666 189.759C154.692 183.316 158.93 176.081 165.575 172.094C166.548 171.509 167.68 170.464 168.878 169.556C169.923 168.763 171.011 168.063 172.105 168.063C172.482 168.063 172.794 167.757 172.794 167.374C172.794 166.991 172.488 166.685 172.105 166.685C171 166.685 169.874 167.194 168.791 167.926C167.363 168.889 166.007 170.229 164.869 170.913C158.039 175.009 153.642 182.408 149.502 189.026C147.823 191.711 146.696 194.883 145.334 197.727C145.165 198.083 144.842 198.629 144.443 198.985C144.24 199.165 144.011 199.324 143.775 199.127C143.611 198.985 143.475 198.75 143.343 198.454C143.086 197.886 142.879 197.12 142.704 196.245C141.976 192.652 141.812 187.314 141.637 185.564C140.286 172.034 141.593 157.738 143.513 144.317C143.803 142.266 144.109 139.914 144.886 137.847C145.619 135.911 146.778 134.226 148.823 133.379C149.173 133.231 149.343 132.832 149.195 132.476C149.048 132.126 148.648 131.957 148.293 132.105V132.115Z" fill="#232124"/>
<path fill-rule="evenodd" clip-rule="evenodd" d="M197.568 204.618C197.377 204.317 197.164 203.962 197.136 203.902C196.961 203.459 196.956 202.917 196.961 202.376C196.972 201.703 197.011 201.019 196.929 200.434C196.458 196.967 195.419 193.27 194.134 190.016C190.71 181.326 183.59 174.582 179.023 166.592C178.832 166.264 178.416 166.149 178.082 166.335C177.754 166.521 177.639 166.942 177.825 167.276C182.359 175.206 189.452 181.894 192.849 190.519C194.09 193.675 195.102 197.257 195.561 200.62C195.632 201.14 195.589 201.752 195.583 202.354C195.572 203.087 195.616 203.814 195.857 204.41C195.922 204.574 196.573 205.799 196.972 206.138C197.426 206.521 197.842 206.412 198.11 206.138C198.793 205.455 199.253 204.405 199.592 203.24C200.04 201.698 200.281 199.948 200.762 198.783C201.38 197.284 201.648 195.758 202.157 194.232C202.277 193.871 202.08 193.483 201.719 193.363C201.358 193.243 200.97 193.439 200.85 193.8C200.352 195.293 200.095 196.792 199.488 198.258C199.072 199.269 198.815 200.702 198.476 202.086C198.247 203.016 197.984 203.923 197.568 204.613V204.618Z" fill="#232124"/>
<path fill-rule="evenodd" clip-rule="evenodd" d="M203.344 148.834C205.86 153.86 204.947 159.537 204.443 164.935C203.563 174.314 203.191 184.109 200.588 193.21C200.484 193.576 200.697 193.959 201.058 194.063C201.425 194.167 201.807 193.954 201.911 193.587C204.536 184.405 204.925 174.528 205.811 165.061C206.341 159.406 207.205 153.477 204.569 148.216C204.4 147.877 203.984 147.741 203.645 147.91C203.306 148.08 203.169 148.495 203.339 148.834H203.344Z" fill="#232124"/>
<path fill-rule="evenodd" clip-rule="evenodd" d="M161.452 174.856C161.818 176.568 163.366 182.944 165.056 187.145C165.843 189.102 166.707 190.59 167.468 191.093C167.834 191.339 168.468 191.547 169.223 191.695C170.771 191.996 172.86 192.083 173.73 192.083C175.759 192.083 177.257 192.242 178.422 192.192C179.324 192.154 180.052 191.996 180.686 191.618C181.687 191.022 182.48 189.852 183.268 187.484C183.689 186.22 183.902 184.875 184.383 183.639C184.968 182.14 185.931 180.423 185.931 178.761C185.931 178.383 185.619 178.072 185.242 178.072C184.864 178.072 184.553 178.383 184.553 178.761C184.553 180.259 183.623 181.785 183.098 183.141C182.606 184.399 182.387 185.766 181.96 187.052C181.326 188.955 180.785 189.961 179.981 190.437C179.401 190.781 178.701 190.836 177.793 190.825C176.732 190.82 175.42 190.71 173.735 190.71C172.915 190.71 170.946 190.628 169.491 190.344C168.955 190.24 168.496 190.125 168.239 189.95C168.02 189.808 167.812 189.535 167.588 189.185C167.172 188.545 166.757 187.653 166.346 186.63C164.684 182.501 163.174 176.245 162.808 174.566C162.726 174.194 162.36 173.959 161.988 174.035C161.616 174.117 161.381 174.484 161.463 174.856H161.452Z" fill="#232124"/>
<path fill-rule="evenodd" clip-rule="evenodd" d="M166.785 190.869C165.292 196.847 162.929 202.584 161.546 208.572C159.5 217.443 157.378 226.374 155.169 235.206C154.015 239.811 152.319 244.257 151.045 248.824C146.599 264.755 143.137 282.01 141.764 298.493C141.731 298.871 142.016 299.204 142.393 299.237C142.771 299.27 143.104 298.986 143.137 298.608C144.504 282.207 147.95 265.04 152.374 249.196C153.654 244.618 155.355 240.161 156.509 235.54C158.718 226.696 160.846 217.76 162.891 208.878C164.269 202.901 166.632 197.169 168.125 191.203C168.218 190.836 167.994 190.459 167.622 190.366C167.255 190.273 166.878 190.497 166.785 190.869Z" fill="#232124"/>
<path fill-rule="evenodd" clip-rule="evenodd" d="M181.736 191.399C181.818 191.301 181.873 191.175 181.884 191.039C181.922 190.661 181.643 190.322 181.266 190.284C181.091 190.267 180.916 190.306 180.757 190.426C180.648 190.508 180.456 190.732 180.38 191.164C180.221 192.045 180.199 194.664 180.298 198.482C180.484 205.745 180.237 213.024 180.675 220.276C180.992 225.608 180.593 230.957 180.927 236.289C181.998 253.44 184.498 270.224 187.063 287.145C188.392 295.912 188.955 304.734 190.694 313.451C190.771 313.823 191.132 314.064 191.504 313.993C191.875 313.916 192.116 313.555 192.045 313.183C190.306 304.488 189.748 295.682 188.425 286.943C185.865 270.066 183.371 253.32 182.299 236.207C181.966 230.875 182.37 225.526 182.048 220.194C181.616 212.958 181.862 205.695 181.676 198.449C181.599 195.529 181.588 193.33 181.665 192.105C181.681 191.81 181.72 191.525 181.741 191.394L181.736 191.399Z" fill="#232124"/>
<path fill-rule="evenodd" clip-rule="evenodd" d="M141.442 145.99C141.759 146.045 142.076 145.881 142.202 145.569C142.344 145.219 142.174 144.814 141.819 144.672C141.425 144.514 140.867 144.618 140.304 145.11C139.024 146.231 137.225 149.622 137.077 149.846C133.539 155.271 130.613 160.669 127.457 166.341C113.593 191.241 108.349 228.375 108.349 256.475C108.349 256.858 108.655 257.164 109.038 257.164C109.421 257.164 109.727 256.858 109.727 256.475C109.727 228.589 114.9 191.722 128.661 167.013C131.8 161.375 134.715 155.999 138.231 150.601C138.352 150.415 139.659 147.91 140.802 146.576C141.015 146.324 141.349 146.061 141.442 145.99Z" fill="#232124"/>
<path fill-rule="evenodd" clip-rule="evenodd" d="M142.322 139.969C128.972 148.041 124.296 158.438 118.51 172.586C111.712 189.212 108.611 206.1 106.298 223.825C104.799 235.332 103.038 246.751 103.038 258.362C103.038 258.745 103.344 259.051 103.727 259.051C104.11 259.051 104.416 258.745 104.416 258.362C104.416 246.811 106.172 235.452 107.665 224.006C109.962 206.395 113.03 189.622 119.79 173.111C125.456 159.264 129.973 149.053 143.038 141.156C143.361 140.959 143.47 140.532 143.274 140.21C143.077 139.887 142.65 139.778 142.327 139.974L142.322 139.969Z" fill="#232124"/>
<path fill-rule="evenodd" clip-rule="evenodd" d="M109.912 258.958C109.896 258.871 109.868 258.789 109.814 258.707C109.578 258.335 109.163 258.116 108.627 258.072C107.888 258.012 106.849 258.313 106.357 258.395C102.851 258.947 99.9967 260.2 97.7653 263.049C94.998 266.587 92.9854 271.668 92.8323 276.492C92.6791 281.43 94.462 286.084 99.2638 288.633C100.593 289.338 101.873 289.984 103.366 290.295C111.596 292.029 121.408 285.882 123.213 277.449C124.673 270.64 120.549 263.213 114.55 259.986C113.144 259.226 111.465 259.149 109.912 258.958ZM108.676 259.478C108.627 259.467 108.424 259.434 108.293 259.439C107.681 259.467 106.948 259.691 106.576 259.751C103.437 260.249 100.855 261.337 98.8536 263.891C96.2504 267.216 94.3526 271.996 94.2105 276.525C94.0737 280.938 95.616 285.127 99.9092 287.408C101.123 288.053 102.288 288.655 103.644 288.939C111.197 290.531 120.205 284.892 121.862 277.153C123.196 270.924 119.384 264.148 113.893 261.189C112.614 260.5 111.066 260.484 109.655 260.309C109.343 260.271 109.108 260.03 109.059 259.735C108.906 259.696 108.763 259.609 108.67 259.472L108.676 259.478Z" fill="#232124"/>
<path fill-rule="evenodd" clip-rule="evenodd" d="M112.242 269.677C111.367 268.594 110.579 267.337 109.152 266.894C106.828 266.166 104.208 267.402 102.359 269.426C100.527 271.433 99.4936 274.173 100.133 276.306C101.763 281.742 108.151 281.315 111.301 277.766C112.581 276.322 112.674 273.91 112.674 272.111C112.674 271.728 112.368 271.422 111.985 271.422C111.602 271.422 111.296 271.734 111.296 272.111C111.296 272.904 111.296 273.828 111.148 274.72C111.017 275.518 110.776 276.284 110.273 276.853C107.79 279.647 102.737 280.194 101.452 275.912C100.932 274.178 101.884 271.985 103.377 270.356C104.853 268.742 106.888 267.632 108.742 268.212C109.267 268.376 109.655 268.704 110.005 269.087C110.426 269.546 110.782 270.071 111.17 270.552C111.411 270.848 111.843 270.891 112.138 270.656C112.433 270.416 112.477 269.984 112.242 269.688V269.677Z" fill="#232124"/>
<path fill-rule="evenodd" clip-rule="evenodd" d="M120.419 268.808C119.899 270.208 119.855 271.745 119.828 273.292C119.801 274.692 119.79 276.098 119.33 277.389C118.641 279.336 117.881 281.742 116.311 283.191C113.194 286.068 108.545 287.566 104.383 287.566C104.001 287.566 103.694 287.873 103.694 288.256C103.694 288.638 104.001 288.945 104.383 288.945C108.873 288.945 113.883 287.304 117.247 284.203C118.969 282.611 119.872 279.992 120.626 277.848C121.13 276.421 121.168 274.867 121.201 273.32C121.228 271.925 121.244 270.541 121.709 269.284C121.84 268.928 121.66 268.529 121.305 268.398C120.949 268.266 120.55 268.447 120.419 268.802V268.808Z" fill="#232124"/>
<path fill-rule="evenodd" clip-rule="evenodd" d="M205.675 154.495C209.372 156.513 211.609 159.887 214.518 162.797C215.618 163.896 217.854 165.208 219.747 166.526C220.884 167.319 221.901 168.102 222.35 168.845C223.761 171.197 224.198 174.271 225.298 176.797C229.088 185.52 232.347 200.336 232.347 210.098C232.347 210.481 232.654 210.787 233.036 210.787C233.419 210.787 233.725 210.481 233.725 210.098C233.725 200.172 230.417 185.11 226.561 176.245C225.44 173.663 224.97 170.53 223.531 168.129C223.012 167.259 221.863 166.313 220.534 165.389C218.719 164.126 216.553 162.873 215.497 161.818C212.495 158.815 210.16 155.364 206.342 153.281C206.009 153.1 205.587 153.22 205.407 153.554C205.227 153.888 205.347 154.309 205.68 154.489L205.675 154.495Z" fill="#232124"/>
<path fill-rule="evenodd" clip-rule="evenodd" d="M215.917 162.458C216.782 162.124 218.121 162.403 219.538 162.89C221.851 163.683 224.34 165.099 225.483 166.034C226.56 166.915 227.096 168.359 227.955 169.436C231.356 173.685 231.936 179.537 232.97 184.695C233.402 186.866 234.244 188.906 234.835 191.028C236.333 196.376 237.077 202.786 237.077 208.353C237.077 208.731 237.389 209.043 237.766 209.043C238.143 209.043 238.455 208.736 238.455 208.353C238.455 202.666 237.695 196.119 236.164 190.656C235.578 188.567 234.747 186.559 234.321 184.427C233.249 179.067 232.571 173.002 229.032 168.577C228.113 167.429 227.506 165.914 226.358 164.973C224.925 163.797 221.529 161.911 218.75 161.227C217.438 160.904 216.251 160.855 215.42 161.183C215.064 161.32 214.889 161.719 215.026 162.075C215.163 162.43 215.562 162.605 215.917 162.468V162.458Z" fill="#232124"/>
<path fill-rule="evenodd" clip-rule="evenodd" d="M231.067 211.219C222.645 216.141 218.992 225.406 217.663 234.714C216.022 246.21 217.592 257.815 221.25 268.775C224.597 278.821 228.426 286.303 237.843 291.602C243.859 294.988 253.753 295.644 260.064 292.488C261.251 291.892 262.098 290.662 263.066 289.77C267.556 285.652 271.789 279.357 271.029 272.904C270.674 269.874 267.343 267.993 264.516 268.933C261.19 270.044 259.145 273.068 259.145 276.464C259.145 277.618 259.55 279.21 260.414 280.303C261.054 281.113 261.94 281.66 263.072 281.66C263.455 281.66 263.761 281.348 263.761 280.971C263.761 280.593 263.455 280.282 263.072 280.282C262.202 280.282 261.601 279.713 261.196 279.013C260.731 278.209 260.518 277.219 260.518 276.464C260.518 273.664 262.202 271.159 264.948 270.241C266.982 269.562 269.399 270.886 269.656 273.068C270.367 279.089 266.32 284.919 262.131 288.759C261.251 289.563 260.518 290.722 259.446 291.258C253.501 294.228 244.187 293.593 238.516 290.405C229.432 285.297 225.784 278.039 222.552 268.343C218.964 257.585 217.411 246.199 219.024 234.916C220.293 226.024 223.711 217.12 231.762 212.417C232.09 212.225 232.199 211.804 232.008 211.476C231.816 211.148 231.395 211.039 231.067 211.23V211.219Z" fill="#232124"/>
<path fill-rule="evenodd" clip-rule="evenodd" d="M238.521 213.341C235.623 213.582 233.348 215.474 231.308 217.399C227.332 221.156 225.44 226.21 223.246 231.132C221.606 234.823 221.354 239.078 221.135 243.071C220.649 251.859 222.541 258.974 224.953 267.249C226.058 271.034 227.452 275.081 229.618 278.417C231.866 281.879 234.66 286.133 238.199 288.42C242.629 291.285 250.362 291.406 255.021 288.923C257.739 287.473 260.348 285.056 262.536 282.874C262.804 282.606 262.804 282.168 262.536 281.9C262.268 281.633 261.83 281.633 261.562 281.9C259.468 283.995 256.979 286.319 254.376 287.709C250.105 289.984 243.017 289.891 238.953 287.266C235.574 285.078 232.932 280.982 230.783 277.667C228.683 274.441 227.348 270.525 226.282 266.866C223.914 258.756 222.038 251.777 222.514 243.153C222.727 239.324 222.935 235.239 224.51 231.7C226.626 226.942 228.415 222.037 232.254 218.411C234.07 216.694 236.055 214.938 238.636 214.725C239.014 214.692 239.298 214.358 239.265 213.981C239.232 213.604 238.899 213.319 238.521 213.352V213.341Z" fill="#232124"/>
<path fill-rule="evenodd" clip-rule="evenodd" d="M240.255 215.201C242.022 215.698 243.695 217.159 245.183 218.958C247.507 221.769 249.35 225.417 250.258 227.856C252.413 233.675 253.244 240.194 253.375 246.363C253.556 254.785 253.435 263.366 251.729 271.657C250.652 276.891 248.202 281.31 244.844 285.341C244.012 286.336 243.11 287.627 241.836 288.053C241.475 288.174 241.278 288.562 241.398 288.923C241.518 289.284 241.907 289.481 242.268 289.36C243.777 288.857 244.915 287.402 245.899 286.221C249.405 282.015 251.953 277.394 253.08 271.931C254.808 263.541 254.939 254.856 254.753 246.33C254.617 240.013 253.758 233.336 251.549 227.375C250.602 224.826 248.677 221.014 246.244 218.077C244.559 216.043 242.629 214.435 240.627 213.872C240.261 213.768 239.883 213.981 239.779 214.347C239.675 214.714 239.889 215.097 240.255 215.195V215.201Z" fill="#232124"/>
<path fill-rule="evenodd" clip-rule="evenodd" d="M249.191 288.02C248.835 288.048 248.551 288.343 248.551 288.709C248.551 289.076 248.862 289.399 249.24 289.399C249.617 289.399 250.115 289.136 250.574 288.638C251.285 287.867 252.056 286.511 252.401 286.035C255.556 281.698 257.011 276.437 258.05 271.225C259.549 263.716 259.877 255.945 259.642 248.31C259.347 238.586 259.117 228.758 254.096 220.09C251.586 215.753 248.491 212.253 244.022 209.868C243.262 209.464 242.36 208.878 241.441 208.539C240.725 208.277 239.992 208.157 239.292 208.304C238.92 208.381 238.679 208.747 238.761 209.119C238.838 209.491 239.204 209.732 239.576 209.65C240.156 209.529 240.768 209.726 241.359 209.994C242.075 210.317 242.77 210.76 243.372 211.082C247.605 213.336 250.52 216.666 252.899 220.779C257.799 229.245 257.968 238.854 258.258 248.348C258.488 255.879 258.171 263.547 256.689 270.952C255.688 275.967 254.315 281.047 251.274 285.22C250.99 285.614 250.405 286.631 249.814 287.386C249.644 287.599 249.48 287.785 249.322 287.922C249.278 287.96 249.201 288.004 249.18 288.02H249.191Z" fill="#232124"/>
<path fill-rule="evenodd" clip-rule="evenodd" d="M229.546 300.982C230.404 300.708 233.117 300.019 233.434 299.888C237.093 298.318 240.495 297.148 243.82 294.928C244.137 294.714 244.219 294.288 244.011 293.971C243.798 293.653 243.371 293.571 243.054 293.779C239.8 295.95 236.475 297.082 232.893 298.619C232.559 298.761 229.573 299.505 228.939 299.735C228.594 299.861 228.468 300.074 228.441 300.129C227.282 302.442 224.815 304.34 222.102 304.023C216.201 303.328 214.397 295.48 219.603 292.417C222.502 290.717 225.444 292.664 227.38 294.605C227.517 294.742 227.796 294.884 228.2 294.895C228.933 294.922 230.399 294.605 230.667 294.556C233.451 294.091 235.299 292.899 237.875 292.056C238.236 291.936 238.433 291.548 238.318 291.187C238.198 290.826 237.809 290.629 237.448 290.744C234.938 291.564 233.144 292.74 230.437 293.194C230.268 293.221 229.595 293.369 228.96 293.457C228.709 293.489 228.375 293.5 228.228 293.506C225.887 291.214 222.332 289.207 218.898 291.225C212.548 294.961 214.736 304.537 221.933 305.384C225.127 305.762 228.091 303.667 229.54 300.976L229.546 300.982Z" fill="#232124"/>
<path fill-rule="evenodd" clip-rule="evenodd" d="M139.133 153.997C135.228 173.674 135.857 194.752 136.365 214.73C137.191 247.03 138.296 279.117 140.872 311.318C141.845 323.498 143.114 335.841 143.645 348.043C143.847 352.724 143.623 360.616 145.799 364.958C145.969 365.297 146.385 365.44 146.724 365.265C147.063 365.095 147.199 364.679 147.03 364.34C144.93 360.14 145.22 352.505 145.023 347.977C144.492 335.765 143.223 323.399 142.25 311.203C139.674 279.029 138.575 246.965 137.743 214.692C137.235 194.812 136.6 173.844 140.483 154.265C140.56 153.893 140.314 153.527 139.942 153.456C139.57 153.379 139.209 153.625 139.133 153.997Z" fill="#232124"/>
<path fill-rule="evenodd" clip-rule="evenodd" d="M204.909 180.516C205.861 195.829 203.514 212.045 202.24 227.314C200.785 244.755 201.699 262.376 200.162 279.833C198.368 300.151 194.961 320.9 194.961 341.256C194.961 341.638 195.273 341.945 195.65 341.945C196.027 341.945 196.339 341.638 196.339 341.256C196.339 320.944 199.746 300.233 201.535 279.954C203.077 262.496 202.164 244.875 203.613 227.429C204.893 212.1 207.239 195.813 206.287 180.434C206.265 180.057 205.937 179.767 205.554 179.789C205.177 179.811 204.887 180.139 204.909 180.516Z" fill="#232124"/>
<path fill-rule="evenodd" clip-rule="evenodd" d="M191.227 317.356C190.97 320.982 191.73 324.723 192.572 328.48C193.381 332.117 194.267 335.77 194.267 339.341C194.267 339.724 194.574 340.031 194.956 340.031C195.339 340.031 195.646 339.724 195.646 339.341C195.646 335.672 194.754 331.915 193.917 328.179C193.108 324.559 192.353 320.949 192.605 317.454C192.632 317.077 192.348 316.744 191.965 316.716C191.588 316.689 191.254 316.973 191.227 317.356Z" fill="#232124"/>
<path fill-rule="evenodd" clip-rule="evenodd" d="M123.224 158.864C120.549 161.993 117.12 163.283 113.658 165.187C108.435 168.058 103.869 172.039 98.553 174.823C90.4424 179.072 79.9529 183.338 71.0439 189.037C65.0225 192.887 59.7285 197.394 56.3268 202.961C47.2592 217.804 43.9832 235.693 39.0557 252.116C33.2257 271.548 20.8165 315.245 18.4867 348.901C17.4804 363.449 18.3719 376.132 22.4244 384.237C30.4037 400.19 46.8982 407.398 61.5442 415.29C71.9627 420.895 85.1867 426.315 97.317 426.315C97.6943 426.315 98.0061 426.009 98.0061 425.626C98.0061 425.243 97.6998 424.937 97.317 424.937C85.4055 424.937 72.4275 419.583 62.2005 414.075C47.7897 406.315 31.503 399.309 23.6604 383.619C19.6899 375.678 18.8805 363.247 19.8704 348.994C22.1947 315.447 34.5765 271.887 40.3846 252.51C45.2794 236.196 48.5061 218.416 57.5135 203.677C61.6426 196.918 68.6758 191.799 76.3269 187.484C84.0765 183.114 92.466 179.57 99.2092 176.043C104.531 173.253 109.103 169.272 114.337 166.395C117.946 164.41 121.495 163.026 124.285 159.761C124.531 159.471 124.498 159.039 124.208 158.788C123.918 158.542 123.486 158.575 123.235 158.864H123.224Z" fill="#232124"/>
<path fill-rule="evenodd" clip-rule="evenodd" d="M72.1262 196.508C81.4344 204.148 87.3683 212.472 90.3927 224.082C90.4911 224.449 90.863 224.673 91.2349 224.574C91.6013 224.481 91.8255 224.104 91.7271 223.732C88.6262 211.826 82.5501 203.278 73.0012 195.441C72.7059 195.2 72.2739 195.244 72.0332 195.534C71.7926 195.829 71.8363 196.261 72.1317 196.502L72.1262 196.508Z" fill="#232124"/>
<path fill-rule="evenodd" clip-rule="evenodd" d="M232.155 174.402C235.737 177.962 253.517 186.105 258.548 188.484C266.506 192.253 279.292 202.239 285.155 209.409C297.083 223.989 298.789 244.044 303.788 261.545C311.466 288.42 323.52 313.965 329.317 341.507C330.75 348.327 332.921 360.113 332.724 370.58C332.598 377.428 331.483 383.712 328.409 387.584C328.174 387.879 328.223 388.316 328.519 388.552C328.814 388.787 329.251 388.738 329.487 388.442C332.719 384.373 333.966 377.794 334.102 370.608C334.299 360.025 332.117 348.114 330.662 341.223C324.86 313.654 312.801 288.075 305.111 261.168C300.063 243.492 298.264 223.262 286.216 208.534C280.249 201.238 267.233 191.071 259.133 187.238C254.184 184.891 236.65 176.928 233.123 173.423C232.855 173.155 232.417 173.155 232.149 173.423C231.881 173.691 231.881 174.128 232.149 174.396L232.155 174.402Z" fill="#232124"/>
<path fill-rule="evenodd" clip-rule="evenodd" d="M274.977 201.665C272.423 208.928 270.646 218.154 269.623 225.821C269.574 226.199 269.836 226.543 270.214 226.592C270.591 226.642 270.936 226.379 270.99 226.002C272.002 218.422 273.752 209.305 276.273 202.124C276.399 201.763 276.213 201.369 275.852 201.244C275.491 201.118 275.098 201.309 274.972 201.665H274.977Z" fill="#232124"/>
<path fill-rule="evenodd" clip-rule="evenodd" d="M253.938 312.379C255.563 310.274 257.838 308.671 259.593 306.664C265.79 299.582 272.861 293.314 279.287 286.456C282.339 283.197 288.399 276.3 292.763 274.55C294.759 273.752 296.258 275.972 295.306 277.706C293.168 281.622 288.836 285.045 285.549 287.938C282.284 290.815 278.773 293.473 275.448 296.29C269.831 301.042 263.98 305.795 258.795 310.979C258.527 311.247 258.527 311.685 258.795 311.953C259.063 312.221 259.5 312.221 259.768 311.953C264.926 306.795 270.756 302.065 276.34 297.34C279.67 294.518 283.187 291.854 286.463 288.972C289.864 285.98 294.311 282.415 296.52 278.362C298.073 275.513 295.53 271.958 292.254 273.265C287.748 275.07 281.437 282.141 278.286 285.505C271.849 292.374 264.767 298.652 258.56 305.745C256.782 307.774 254.485 309.399 252.85 311.526C252.615 311.827 252.675 312.259 252.976 312.494C253.277 312.724 253.709 312.669 253.944 312.368L253.938 312.379Z" fill="#232124"/>
<path fill-rule="evenodd" clip-rule="evenodd" d="M283.778 282.021C285.183 283.301 286.376 284.602 287.13 286.363C287.278 286.713 287.683 286.877 288.033 286.724C288.383 286.576 288.547 286.172 288.394 285.822C287.557 283.869 286.255 282.42 284.702 281.004C284.423 280.747 283.986 280.768 283.729 281.047C283.472 281.326 283.494 281.764 283.772 282.021H283.778Z" fill="#232124"/>
<path fill-rule="evenodd" clip-rule="evenodd" d="M279.637 285.937C279.751 286.473 280.145 287.134 280.676 287.774C281.392 288.638 282.344 289.464 282.94 289.863C283.257 290.077 283.684 289.989 283.897 289.672C284.11 289.355 284.023 288.928 283.705 288.715C283.186 288.37 282.366 287.643 281.737 286.894C281.37 286.456 281.064 286.019 280.982 285.652C280.905 285.28 280.533 285.045 280.167 285.122C279.795 285.204 279.56 285.57 279.637 285.942V285.937Z" fill="#232124"/>
<path fill-rule="evenodd" clip-rule="evenodd" d="M265.56 240.981C265.746 248.911 265.254 256.973 265.817 264.886C265.845 265.264 266.173 265.554 266.556 265.526C266.933 265.499 267.223 265.171 267.196 264.788C266.632 256.896 267.124 248.857 266.939 240.949C266.928 240.566 266.616 240.265 266.233 240.276C265.85 240.287 265.549 240.599 265.56 240.981Z" fill="#232124"/>
<path fill-rule="evenodd" clip-rule="evenodd" d="M265.751 287.457C265.483 290.438 265.675 293.462 265.303 296.426C265.253 296.804 265.521 297.148 265.899 297.197C266.276 297.247 266.621 296.979 266.67 296.601C267.042 293.621 266.85 290.58 267.124 287.588C267.157 287.211 266.878 286.872 266.5 286.839C266.123 286.806 265.789 287.085 265.751 287.463V287.457Z" fill="#232124"/>
<path fill-rule="evenodd" clip-rule="evenodd" d="M121.446 359.539C119.389 359.451 117.158 360.616 115.069 362.333C112.11 364.772 109.403 368.289 107.839 370.389C99.9526 381.01 95.2931 395.125 95.2931 408.289C95.2931 410.663 95.2767 413.343 95.6978 415.891C96.1408 418.538 97.0595 421.043 98.9026 422.952C99.1651 423.225 99.6026 423.231 99.8761 422.968C100.15 422.706 100.155 422.268 99.8925 421.995C98.2408 420.288 97.4478 418.035 97.0541 415.667C96.6439 413.195 96.6658 410.592 96.6658 408.289C96.6658 395.41 101.221 381.601 108.938 371.215C110.448 369.18 113.067 365.762 115.939 363.405C117.732 361.929 119.614 360.846 121.38 360.922C121.758 360.939 122.08 360.643 122.097 360.266C122.113 359.883 121.818 359.566 121.44 359.549L121.446 359.539Z" fill="#232124"/>
<path fill-rule="evenodd" clip-rule="evenodd" d="M67.1276 336.897C82.3806 344.286 99.3838 347.25 114.478 355.076C117.295 356.536 120.636 357.127 123.59 358.177C126.319 359.145 128.709 360.512 129.857 363.575C129.988 363.93 130.388 364.111 130.743 363.979C131.099 363.848 131.279 363.449 131.148 363.093C129.841 359.604 127.166 357.985 124.049 356.881C121.156 355.853 117.874 355.289 115.113 353.856C100.007 346.025 82.9986 343.055 67.7292 335.661C67.3846 335.497 66.9744 335.639 66.8104 335.984C66.6463 336.323 66.7885 336.738 67.1276 336.902V336.897Z" fill="#232124"/>
<path fill-rule="evenodd" clip-rule="evenodd" d="M78.3115 334.879C77.8247 334.359 77.5622 333.654 77.4146 332.888C77.1684 331.608 77.256 330.175 77.3599 329.065C77.3927 328.688 77.1138 328.349 76.7364 328.316C76.359 328.283 76.02 328.562 75.9871 328.939C75.8778 330.159 75.7903 331.734 76.0637 333.145C76.2606 334.179 76.6489 335.119 77.3106 335.819C77.5732 336.093 78.0052 336.109 78.2841 335.847C78.563 335.584 78.574 335.147 78.3115 334.873V334.879Z" fill="#232124"/>
<path fill-rule="evenodd" clip-rule="evenodd" d="M83.0372 337.613C82.5396 336.946 82.5614 335.858 82.72 334.687C82.999 332.658 83.8138 330.4 84.1693 329.207C86.7179 320.643 89.5508 312.106 91.1532 303.301C91.2189 302.929 90.9728 302.568 90.6009 302.502C90.229 302.437 89.868 302.683 89.7969 303.055C88.2054 311.811 85.378 320.304 82.8513 328.819C82.4849 330.061 81.6481 332.401 81.3583 334.507C81.1395 336.093 81.2598 337.548 81.938 338.45C82.1677 338.756 82.5997 338.816 82.9005 338.587C83.2068 338.357 83.2669 337.925 83.0372 337.624V337.613Z" fill="#232124"/>
<path fill-rule="evenodd" clip-rule="evenodd" d="M159.188 374.775C162.065 369.902 164.012 364.554 166.199 359.364C167.414 356.481 169.475 354.026 170.919 351.286C172.068 349.109 172.664 346.468 174.458 344.674C175.612 343.52 177.247 343.246 178.931 343.164C180.824 343.071 182.787 343.235 184.384 342.967C195.453 341.124 206.922 340.402 218.155 340.402C218.538 340.402 218.844 340.091 218.844 339.713C218.844 339.336 218.538 339.024 218.155 339.024C206.845 339.024 195.3 339.752 184.154 341.611C182.601 341.868 180.698 341.704 178.86 341.792C176.82 341.89 174.879 342.306 173.479 343.7C171.592 345.587 170.903 348.349 169.7 350.646C168.239 353.424 166.161 355.913 164.931 358.833C162.77 363.963 160.851 369.257 158.001 374.075C157.81 374.403 157.919 374.824 158.248 375.021C158.576 375.218 158.997 375.103 159.188 374.775Z" fill="#232124"/>
<path fill-rule="evenodd" clip-rule="evenodd" d="M218.991 338.609C218.143 339.341 217.815 340.156 217.378 341.212C216.388 343.624 216.497 345.106 217.126 345.986C217.771 346.889 219.051 347.277 220.686 347.321C222.518 347.37 224.837 347.042 226.959 347.042C234.118 347.042 243.591 348.557 250.542 347.162C250.974 347.075 251.449 346.785 251.909 346.303C252.768 345.407 253.615 343.837 254.036 342.382C254.293 341.496 254.386 340.654 254.271 340.014C254.168 339.434 253.905 338.997 253.5 338.723C252.587 338.116 251.236 337.843 249.77 337.761C247.769 337.651 245.532 337.865 244.072 337.794C241.365 337.657 238.614 337.657 235.907 337.657C231.739 337.657 225.187 336.902 221.184 338.237C220.823 338.357 220.626 338.745 220.746 339.106C220.867 339.467 221.255 339.664 221.616 339.544C225.499 338.248 231.859 339.035 235.901 339.035C238.586 339.035 241.315 339.035 244.001 339.172C245.461 339.243 247.692 339.024 249.688 339.139C250.886 339.205 251.991 339.374 252.735 339.872C252.899 339.981 252.921 340.206 252.937 340.463C252.964 340.906 252.871 341.436 252.707 341.994C252.396 343.066 251.827 344.214 251.209 345.002C250.886 345.412 250.58 345.74 250.268 345.8C243.394 347.173 234.031 345.653 226.954 345.653C224.843 345.653 222.54 345.981 220.714 345.932C220.101 345.915 219.543 345.855 219.084 345.713C218.723 345.598 218.428 345.439 218.242 345.177C218.05 344.909 217.979 344.537 218.007 344.061C218.045 343.449 218.253 342.683 218.641 341.731C218.985 340.895 219.204 340.227 219.877 339.648C220.167 339.402 220.2 338.964 219.948 338.674C219.702 338.384 219.264 338.352 218.975 338.603L218.991 338.609Z" fill="#232124"/>
<path fill-rule="evenodd" clip-rule="evenodd" d="M229.443 338.127C229.197 336.208 230.214 334.797 231.724 333.812C234.179 332.21 237.904 331.696 240.261 332.128C243.46 332.708 244.22 334.999 244.866 337.581C244.959 337.947 245.33 338.171 245.702 338.084C246.074 337.991 246.298 337.619 246.206 337.247C245.423 334.124 244.373 331.477 240.507 330.772C237.876 330.29 233.714 330.87 230.969 332.658C229.011 333.938 227.753 335.814 228.076 338.308C228.125 338.685 228.47 338.953 228.847 338.904C229.224 338.855 229.492 338.51 229.443 338.133V338.127Z" fill="#232124"/>
<path fill-rule="evenodd" clip-rule="evenodd" d="M254.797 342.295C262.793 341.196 271.719 342.481 279.561 344.045C280.759 344.285 282.35 344.307 283.794 344.586C285.014 344.816 286.146 345.204 286.671 346.254C287.316 347.545 286.966 349.558 286.206 351.855C284.286 357.668 279.506 365.122 277.877 367.966C269.449 382.716 262.678 398.226 255.087 413.408C253.408 416.766 252.369 420.403 250.499 423.674C250.307 424.002 250.422 424.423 250.756 424.614C251.084 424.806 251.505 424.691 251.697 424.357C253.578 421.059 254.633 417.401 256.323 414.021C263.903 398.861 270.658 383.378 279.074 368.644C280.726 365.751 285.566 358.182 287.513 352.281C288.41 349.558 288.667 347.157 287.901 345.631C287.316 344.46 286.244 343.804 284.959 343.438C283.302 342.962 281.284 342.978 279.829 342.689C271.844 341.092 262.755 339.801 254.606 340.922C254.229 340.971 253.966 341.321 254.015 341.699C254.065 342.076 254.415 342.339 254.792 342.289L254.797 342.295Z" fill="#232124"/>
<path fill-rule="evenodd" clip-rule="evenodd" d="M117.284 364.592C131.657 368.645 145.953 366.905 160.615 366.905C160.998 366.905 161.304 366.599 161.304 366.216C161.304 365.833 160.998 365.527 160.615 365.527C146.079 365.527 131.908 367.283 117.662 363.268C117.295 363.165 116.912 363.378 116.809 363.744C116.705 364.111 116.918 364.494 117.284 364.592Z" fill="#232124"/>
<path fill-rule="evenodd" clip-rule="evenodd" d="M153.445 374.994C163.956 378.467 175.862 379.779 186.91 379.779C188.693 379.779 194.063 378.915 197.733 379.096C198.603 379.139 199.374 379.238 199.953 379.435C200.243 379.533 200.478 379.648 200.621 379.812C201.266 380.55 201.528 381.201 201.446 381.797C201.359 382.394 200.949 382.902 200.391 383.362C198.362 385.035 194.457 385.954 192.997 386.276C182.097 388.699 169.108 388.77 158.154 386.949C157.782 386.889 157.426 387.141 157.361 387.518C157.301 387.895 157.552 388.251 157.93 388.311C169.048 390.165 182.234 390.083 193.298 387.627C194.884 387.277 199.078 386.238 201.271 384.428C202.119 383.728 202.682 382.908 202.814 381.994C202.945 381.081 202.655 380.042 201.665 378.91C201.386 378.587 200.96 378.325 200.407 378.133C199.729 377.898 198.827 377.767 197.804 377.717C194.112 377.537 188.709 378.401 186.915 378.401C176.016 378.401 164.263 377.11 153.882 373.687C153.522 373.567 153.133 373.763 153.013 374.124C152.893 374.485 153.089 374.874 153.45 374.994H153.445Z" fill="#232124"/>
<path fill-rule="evenodd" clip-rule="evenodd" d="M157.191 395.01C167.566 397.411 177.673 397.045 188.244 395.218C190.558 394.819 195.917 392.998 199.467 390.86C201.091 389.881 202.338 388.809 202.841 387.802C203.011 387.463 202.874 387.048 202.535 386.878C202.196 386.709 201.78 386.845 201.61 387.184C201.189 388.027 200.112 388.863 198.756 389.684C195.359 391.735 190.229 393.485 188.009 393.867C177.623 395.656 167.692 396.033 157.497 393.676C157.126 393.589 156.759 393.824 156.672 394.19C156.584 394.562 156.819 394.928 157.186 395.016L157.191 395.01Z" fill="#232124"/>
<path fill-rule="evenodd" clip-rule="evenodd" d="M156.984 404.133C158.75 404.182 160.539 404.505 162.24 404.844C167.813 405.959 180.134 403.105 185.734 401.579C189.53 400.545 192.822 397.98 196.301 396.241C196.64 396.071 196.776 395.656 196.607 395.317C196.437 394.978 196.022 394.841 195.683 395.011C192.286 396.711 189.081 399.238 185.374 400.25C179.926 401.737 167.938 404.576 162.513 403.493C160.741 403.137 158.871 402.809 157.028 402.755C156.645 402.744 156.328 403.044 156.317 403.422C156.306 403.799 156.607 404.116 156.984 404.133Z" fill="#232124"/>
<path fill-rule="evenodd" clip-rule="evenodd" d="M99.3407 404.723C117.831 409.142 137.142 411.341 156.169 410.685C172.193 410.132 185.56 408.94 197.296 397.198C197.564 396.93 197.564 396.493 197.296 396.225C197.028 395.957 196.591 395.957 196.323 396.225C184.86 407.693 171.772 408.765 156.12 409.306C137.219 409.957 118.034 407.77 99.6634 403.383C99.2915 403.296 98.9196 403.526 98.8321 403.892C98.7446 404.264 98.9743 404.636 99.3407 404.723Z" fill="#232124"/>
<path fill-rule="evenodd" clip-rule="evenodd" d="M285.915 341.956C283.957 338.538 281.633 335.59 280.402 331.74C279.593 329.197 279.15 326.019 278.346 323.033C277.498 319.888 276.246 316.951 273.878 315.054C272.532 313.976 270.788 313.413 268.917 313.145C266.27 312.762 263.361 312.965 261.086 312.965C253.971 312.965 244.127 315.994 236.732 321.07C231.728 324.504 227.856 328.874 226.615 333.84C226.522 334.212 226.746 334.584 227.118 334.677C227.484 334.77 227.862 334.545 227.955 334.173C229.12 329.503 232.811 325.434 237.514 322.207C244.673 317.291 254.2 314.343 261.091 314.343C263.306 314.343 266.145 314.135 268.726 314.507C270.345 314.742 271.86 315.201 273.019 316.126C275.169 317.843 276.251 320.534 277.017 323.389C277.827 326.396 278.275 329.596 279.09 332.155C280.348 336.104 282.71 339.139 284.717 342.639C284.909 342.968 285.33 343.082 285.658 342.896C285.986 342.705 286.101 342.284 285.915 341.956Z" fill="#232124"/>
<path fill-rule="evenodd" clip-rule="evenodd" d="M253.429 323.186C251.301 324.553 248.589 325.428 245.953 326.429C243.174 327.485 240.484 328.677 238.548 330.613C238.28 330.881 238.28 331.319 238.548 331.586C238.816 331.854 239.253 331.854 239.521 331.586C241.326 329.782 243.853 328.699 246.439 327.714C249.168 326.675 251.969 325.757 254.173 324.34C254.49 324.132 254.588 323.706 254.38 323.388C254.173 323.071 253.746 322.973 253.429 323.181V323.186Z" fill="#232124"/>
<path fill-rule="evenodd" clip-rule="evenodd" d="M255.622 333.326C252.795 334.146 249.967 335.393 247.408 336.93C247.08 337.127 246.976 337.548 247.173 337.876C247.37 338.204 247.791 338.308 248.119 338.111C250.58 336.634 253.293 335.437 256.011 334.649C256.377 334.545 256.585 334.162 256.481 333.796C256.377 333.429 255.994 333.222 255.628 333.326H255.622Z" fill="#232124"/>
<path fill-rule="evenodd" clip-rule="evenodd" d="M289.256 341.097C289.267 341.053 289.267 341.004 289.267 340.949C289.262 340.567 288.945 340.266 288.567 340.271C288.288 340.271 288.097 340.397 287.966 340.594C287.878 340.72 287.78 340.982 287.878 341.349C288.026 341.907 288.835 343.328 288.983 343.662C289.574 345.007 290.071 346.238 290.263 347.715C290.974 353.244 290.432 359.019 289.421 364.461C287.55 374.518 283.465 384.991 279.057 394.218C278.318 395.765 277.509 396.859 276.683 397.526C275.978 398.095 275.272 398.33 274.605 398.215C273.921 398.095 273.303 397.619 272.773 396.865C272.166 396 271.685 394.797 271.384 393.293C271.307 392.921 270.946 392.681 270.574 392.752C270.203 392.828 269.962 393.189 270.033 393.561C270.449 395.65 271.198 397.231 272.106 398.237C272.784 398.987 273.555 399.43 274.364 399.577C275.376 399.758 276.475 399.468 277.547 398.604C278.499 397.838 279.445 396.597 280.298 394.819C284.761 385.495 288.879 374.896 290.777 364.723C291.816 359.139 292.363 353.216 291.63 347.545C291.422 345.932 290.886 344.586 290.246 343.115C290.132 342.853 289.442 341.474 289.256 341.097ZM288.835 341.606C288.77 341.633 288.704 341.649 288.628 341.655C288.704 341.655 288.77 341.633 288.835 341.606Z" fill="#232124"/>
<path fill-rule="evenodd" clip-rule="evenodd" d="M271.013 383.887C275.426 384.937 279.276 383.903 282.596 380.589C282.864 380.321 282.864 379.883 282.596 379.615C282.328 379.347 281.89 379.347 281.622 379.615C278.675 382.563 275.251 383.476 271.335 382.547C270.963 382.459 270.591 382.689 270.504 383.055C270.416 383.427 270.646 383.799 271.018 383.887H271.013Z" fill="#232124"/>
<path fill-rule="evenodd" clip-rule="evenodd" d="M284.385 334.299C286.747 334.031 290.565 333.358 294.092 333.287C296.334 333.244 298.462 333.435 299.971 334.19C302.334 335.371 304.166 337.438 305.621 339.867C307.879 343.624 309.23 348.234 310.149 351.915C314.442 369.082 310.455 392.44 299.49 406.698C299.26 406.999 299.315 407.431 299.616 407.666C299.916 407.901 300.349 407.841 300.584 407.54C311.79 392.971 315.875 369.12 311.489 351.581C310.543 347.791 309.132 343.033 306.802 339.161C305.205 336.498 303.171 334.25 300.584 332.959C298.91 332.122 296.559 331.865 294.065 331.909C290.488 331.975 286.621 332.653 284.226 332.926C283.849 332.97 283.575 333.309 283.619 333.687C283.663 334.064 284.002 334.337 284.385 334.294V334.299Z" fill="#232124"/>
<path fill-rule="evenodd" clip-rule="evenodd" d="M290.072 411.204C301.026 410.597 310.192 406.118 318.532 399.167C320.944 397.154 325.981 393.118 327.31 390.466C327.48 390.127 327.343 389.711 327.004 389.542C326.665 389.372 326.249 389.509 326.08 389.848C324.816 392.38 319.96 396.186 317.652 398.106C309.547 404.86 300.643 409.235 290.001 409.826C289.623 409.848 289.328 410.171 289.35 410.553C289.372 410.931 289.694 411.226 290.077 411.204H290.072Z" fill="#232124"/>
<path fill-rule="evenodd" clip-rule="evenodd" d="M291.954 330.985C293.458 329.612 295.186 328.682 297.002 327.775C297.341 327.605 297.477 327.189 297.308 326.85C297.138 326.511 296.723 326.375 296.384 326.544C294.453 327.512 292.621 328.507 291.019 329.968C290.74 330.225 290.718 330.662 290.975 330.941C291.232 331.22 291.669 331.242 291.948 330.985H291.954Z" fill="#232124"/>
<path fill-rule="evenodd" clip-rule="evenodd" d="M76.2562 413.764C73.6858 407.124 74.353 398.128 76.9508 389.082C80.8721 375.431 89.2123 361.661 97.7932 355.656C98.1049 355.437 98.1815 355.005 97.9627 354.698C97.744 354.387 97.3174 354.31 97.0056 354.529C88.2224 360.676 79.6416 374.737 75.6273 388.705C72.9366 398.073 72.3076 407.392 74.971 414.261C75.1078 414.617 75.507 414.792 75.8625 414.655C76.218 414.518 76.393 414.119 76.2562 413.764Z" fill="#232124"/>
</g>
</g>
<defs>
<clipPath id="clip0_5472_26790">
<rect width="364.5" height="403.299" fill="white" transform="translate(0 0.350281)"/>
</clipPath>
</defs>
</svg>
