<svg width="28" height="31" viewBox="0 0 28 31" fill="none" xmlns="http://www.w3.org/2000/svg">
<g clip-path="url(#clip0_9377_29100)">
<path d="M16.5524 29.414L6.7086 29.4048C4.87088 29.4048 3.03317 29.3947 1.19646 29.417C0.826686 29.4221 0.727129 29.2413 0.725098 28.9589C0.725098 26.9879 0.75248 27.0062 0.794177 25.0347C0.833796 23.1421 1.27164 21.3511 2.41958 19.7928C3.29933 18.5961 4.4879 17.8027 5.82783 17.2104L6.36624 16.9727C6.55824 17.0936 6.48814 17.2897 6.50033 17.4583C6.519 17.5968 6.54546 17.7341 6.57957 17.8697C6.68527 19.7716 7.0265 21.6532 7.59544 23.4712C7.69703 23.8075 7.56293 24.0432 7.36484 24.2941C6.84573 24.9473 7.08954 25.8179 7.85551 26.0963C8.11698 26.1779 8.39925 26.1619 8.64977 26.051C8.90028 25.9401 9.10196 25.742 9.21726 25.4934C9.33257 25.245 9.35364 24.9631 9.27656 24.7001C9.19948 24.4372 9.02949 24.2113 8.79824 24.0645C8.67901 23.9815 8.54121 23.9292 8.39697 23.9121C7.9703 23.901 7.77424 23.6521 7.65741 23.2752C7.2029 21.8344 6.90589 20.3487 6.77157 18.8439C6.72269 18.3348 6.70064 17.8234 6.70555 17.312C6.70555 17.1281 6.70555 16.9422 6.80714 16.7787C6.86418 16.7056 6.94161 16.6512 7.0296 16.6222C7.8677 16.3581 8.71189 16.1214 9.59163 16.0432C9.88928 16.0706 9.96547 16.2738 9.99798 16.5318C10.2849 18.863 10.7606 21.1671 11.4202 23.4215C11.8764 24.9717 12.494 26.4335 13.6033 27.6475C13.9 27.9726 13.8847 27.9695 14.1773 27.6363C15.4268 26.2141 16.075 24.5115 16.5504 22.7215C17.0939 20.6796 17.5287 18.6154 17.7481 16.5095C17.7735 16.2636 17.8497 16.0747 18.1331 16.0472C19.086 16.1661 20.0257 16.3347 20.9024 16.7533C21.135 17.1434 21.0456 17.5761 21.0182 17.9845C20.948 19.2297 20.7723 20.4667 20.493 21.6823C20.3609 22.2298 20.2766 22.3274 19.7199 22.3071C18.8056 22.2735 18.2469 22.7429 17.8822 23.5261C17.5317 24.2758 17.231 25.0499 16.8714 25.7925C16.7404 26.0648 16.7647 26.3005 16.973 26.5118C17.1264 26.6682 17.227 26.8775 17.4809 27.0197C17.4183 26.8258 17.3075 26.651 17.1589 26.5118C17.0659 26.4176 17.005 26.2966 16.9846 26.1658C16.9641 26.0351 16.9853 25.9013 17.0451 25.7834C17.4017 24.9788 17.7217 24.158 18.1189 23.3727C18.2815 23.0555 18.5375 22.7961 18.8524 22.6291C19.1672 22.4622 19.5257 22.3958 19.8794 22.4391C20.2362 22.4976 20.5676 22.6606 20.8317 22.9073C21.0959 23.1542 21.281 23.4738 21.3636 23.8258C21.429 24.1366 21.3956 24.4602 21.2681 24.7512C20.939 25.5639 20.5712 26.3665 20.2136 27.17C20.1688 27.2873 20.0909 27.3891 19.9894 27.463C19.8878 27.537 19.767 27.5798 19.6417 27.5865C19.482 27.5914 19.3245 27.6259 19.1774 27.6881C19.7321 27.8771 20.1395 27.7115 20.365 27.2076C20.6748 26.5118 20.9745 25.8118 21.2793 25.1149C21.7202 24.1143 21.584 23.4276 20.7917 22.6626C20.6856 22.5743 20.6069 22.4577 20.5646 22.3265C20.5223 22.1951 20.5183 22.0545 20.5529 21.921C20.8218 20.7547 21.0058 19.5705 21.1035 18.3777C21.1289 18.0627 21.1157 17.7478 21.135 17.4339C21.1482 17.2236 21.1513 17.0012 21.4215 16.9351C21.6968 16.9514 21.9447 17.0174 22.0767 17.2947C24.8389 18.4945 26.3891 20.6288 26.7772 23.5769C27.0964 26.0044 26.9441 26.5008 26.9671 28.9436C26.9671 29.2972 26.8798 29.4119 26.509 29.4099C23.1922 29.4028 19.8713 29.4119 16.5524 29.414Z" fill="#F8F7F7"/>
<path d="M20.8728 16.8173L18.075 16.1427C17.5835 16.2645 17.0729 16.29 16.5715 16.2179C16.406 16.1052 16.409 15.9274 16.407 15.7587C16.3978 15.1157 16.407 14.4726 16.407 13.8286C16.4039 13.5636 16.4991 13.307 16.6741 13.1083C17.2515 12.4575 17.6646 11.6779 17.879 10.8348C17.9196 10.6652 17.9877 10.4812 18.1776 10.4518C18.7811 10.3583 18.9131 9.8839 19.0452 9.41152C19.1082 9.18498 19.0879 8.95032 19.0706 8.63438C18.8983 8.87682 18.688 9.08985 18.4479 9.26524C18.0253 9.55374 17.7012 9.51006 17.3914 9.10168C17.1435 8.77559 16.985 8.39667 16.8296 8.02181C16.4622 7.15265 16.2105 6.23902 16.0809 5.30435C15.9376 5.26676 15.8706 5.36733 15.7903 5.42321C14.6018 6.25825 13.2628 6.68898 11.8366 6.86067C11.0005 6.96225 10.3595 7.29444 10.072 8.13762C10.0212 8.28695 10.0111 8.44238 9.97042 8.59781C9.86884 8.97876 9.62807 9.04886 9.33855 8.78676C9.23696 8.68517 9.15569 8.56225 9.04395 8.47082C8.82147 8.28898 8.663 8.33165 8.56141 8.59374C8.32268 9.2114 8.80319 10.2344 9.42388 10.4142C9.50603 10.4359 9.58081 10.4793 9.64034 10.5399C9.69988 10.6005 9.74196 10.676 9.76217 10.7586C10.009 11.5652 10.4621 12.2509 10.9985 12.8919C11.1575 13.0692 11.2472 13.2979 11.2514 13.536C11.2595 14.2809 11.2595 15.0289 11.2514 15.7801C11.2514 15.9365 11.2443 16.0991 11.1001 16.2088C10.6199 16.2883 10.1282 16.2633 9.65855 16.1356L6.84966 16.8152C6.72979 16.7766 6.64649 16.7137 6.6983 16.5704L7.33017 15.073C7.72941 14.37 8.17436 13.6874 8.51366 12.9559C8.85296 12.2245 8.76661 11.4738 8.53804 10.721C8.0555 9.13317 7.79442 7.50778 7.93969 5.8326C8.17233 3.12936 9.76827 1.30688 12.44 0.731899C13.9455 0.408851 15.4206 0.492153 16.8082 1.20631C17.69 1.65838 18.3392 2.31057 18.4174 3.37622C18.4204 3.41896 18.4323 3.46061 18.4522 3.49854C18.4722 3.53647 18.4998 3.56989 18.5332 3.59667C19.5613 4.1686 19.7289 5.1093 19.6669 6.16479C19.61 7.12073 19.5653 8.0787 19.544 9.03565C19.5074 10.9029 19.9625 12.6166 21.1541 14.1008C21.8358 14.9501 22.1253 15.9487 22.1812 17.0225C22.1863 17.1119 22.1121 17.2064 22.0735 17.2978L21.3675 17.0093C21.2009 16.9554 21.0881 16.7523 20.8728 16.8173Z" fill="#222A2B"/>
<path d="M6.69827 16.5714L6.85065 16.8163C6.79275 19.1091 7.18183 21.3339 7.89497 23.5058C7.92922 23.5659 7.97696 23.6173 8.03442 23.6559C8.09188 23.6945 8.1575 23.7192 8.22614 23.7283C8.91287 23.7892 9.39541 24.2027 9.49802 24.8569C9.53736 25.1493 9.47562 25.4463 9.32301 25.6989C9.17041 25.9514 8.93611 26.1442 8.65894 26.2453C8.38176 26.3464 8.07836 26.3498 7.799 26.2548C7.51964 26.16 7.2811 25.9724 7.1229 25.7234C6.95157 25.4627 6.8831 25.1475 6.93077 24.8392C6.97844 24.5309 7.13885 24.2511 7.38094 24.0544C7.59122 23.8735 7.52417 23.7252 7.46525 23.5464C6.87116 21.7235 6.52937 19.8279 6.44938 17.9124C6.4062 17.4919 6.4062 17.0681 6.44938 16.6476L6.69827 16.5714Z" fill="#5491CD"/>
<path d="M6.44756 16.6436V17.9083C6.42013 17.5964 6.39169 17.2846 6.36426 16.9727C6.39169 16.863 6.42013 16.7523 6.44756 16.6436Z" fill="#9FD7E6"/>
<path d="M16.5564 16.1895L18.0802 16.1417C18.0183 16.2961 17.9228 16.4465 17.9014 16.608C17.5124 19.5672 16.9414 22.4808 15.8494 25.2744C15.4298 26.3472 14.672 27.1904 14.0025 28.0945C13.9802 28.126 13.7872 28.0945 13.7333 28.0315C12.6547 26.8421 11.8596 25.4237 11.408 23.8827C10.6704 21.4466 10.1456 18.951 9.83948 16.4241C9.82729 16.3225 9.72164 16.2332 9.65967 16.1366L11.091 16.1671C11.3287 16.2839 11.3186 16.5349 11.3877 16.736C11.9088 18.2598 13.6724 18.9598 15.0682 18.1582C15.64 17.8495 16.0686 17.3298 16.2628 16.7096C16.3207 16.5217 16.3238 16.288 16.5564 16.1895Z" fill="#3DAEAC"/>
<path d="M20.8732 16.8173L21.1058 16.5958L21.371 17.0093C21.3335 17.0746 21.307 17.1456 21.2927 17.2196C21.2666 18.8627 21.0592 20.4981 20.6741 22.0957C20.6701 22.1719 20.6835 22.248 20.713 22.3184C20.7425 22.3887 20.7875 22.4515 20.8447 22.5021C21.6656 23.1655 21.9043 24.0635 21.4837 25.0347C21.1343 25.8413 20.7645 26.6397 20.4282 27.4514C20.3134 27.7288 20.1682 27.8801 19.8553 27.874C19.6074 27.869 19.3575 27.9248 19.1106 27.9157C19.0233 27.9157 18.94 27.7978 18.8546 27.7338C18.9259 27.6547 19.0026 27.5806 19.0842 27.5124C19.1319 27.488 19.1866 27.4815 19.2386 27.4941C19.8593 27.5815 20.094 27.2097 20.2819 26.6966C20.5115 26.0698 20.8153 25.4695 21.0814 24.8559C21.4634 23.9741 21.1424 23.0913 20.3043 22.7083C19.4662 22.3253 18.5773 22.6839 18.1842 23.5525C17.8398 24.3185 17.5157 25.0936 17.1632 25.8555C17.0616 26.0668 17.0718 26.2131 17.2394 26.3766C17.395 26.5194 17.5316 26.6815 17.6458 26.8592C17.6965 26.9445 17.6529 27.0857 17.6519 27.2005C17.5503 27.1843 17.4019 27.2056 17.342 27.1436C17.0939 26.8891 16.8641 26.6176 16.6543 26.3309C16.6273 26.2752 16.6125 26.2144 16.611 26.1526C16.6094 26.0908 16.621 26.0293 16.6451 25.9723C17.0372 25.058 17.4294 24.1437 17.852 23.2376C18.2258 22.4411 18.9451 22.0734 19.8959 22.1486C20.0879 22.1638 20.2332 22.1933 20.2941 21.9261C20.6741 20.2438 20.9179 18.5473 20.8732 16.8173Z" fill="#5490CD"/>
<path d="M8.20226 25.634C8.1207 25.6373 8.03932 25.6241 7.96293 25.5953C7.88655 25.5666 7.81673 25.5227 7.75761 25.4664C7.69848 25.4101 7.65126 25.3426 7.61876 25.2677C7.58625 25.1928 7.56911 25.1122 7.56836 25.0306C7.56836 24.7258 7.8975 24.3865 8.19617 24.3804C8.5629 24.3723 8.82703 24.6476 8.82601 25.0347C8.82601 25.3922 8.57306 25.634 8.20226 25.634Z" fill="#8FBDE6"/>
<path d="M16.5917 16.1947C16.4454 16.8113 16.2432 17.3955 15.7668 17.8526C15.0008 18.5901 14.0947 18.8177 13.092 18.5302C12.0893 18.2427 11.4737 17.5621 11.2167 16.5543C11.1842 16.4273 11.1547 16.3004 11.1242 16.1734C11.1242 15.2591 11.1395 14.3367 11.1303 13.4183C11.1182 13.2797 11.0613 13.1487 10.9678 13.0455C10.3644 12.3557 9.88489 11.6009 9.62787 10.709C9.60857 10.643 9.46838 10.6074 9.37898 10.5657C9.23168 10.5017 9.02952 10.4895 8.93809 10.3808C8.72286 10.1407 8.56582 9.85429 8.47914 9.5437C8.39246 9.23312 8.37848 8.90674 8.43828 8.58988C8.46571 8.4375 8.62114 8.21298 8.74304 8.19672C8.89644 8.17641 9.09251 8.30848 9.23778 8.41819C9.40957 8.5644 9.57113 8.72223 9.72133 8.89056C9.78127 8.68739 9.85238 8.48929 9.89809 8.28104C10.0698 7.51507 10.6925 6.94212 11.4828 6.76841C12.4276 6.56523 13.3866 6.38542 14.2938 6.06745C14.9846 5.82568 15.6042 5.38377 16.2503 5.03329C16.3204 6.16802 16.6861 7.27939 17.1595 8.36028C17.2022 8.46187 17.252 8.54923 17.3018 8.64168C17.7884 9.55596 18.1978 9.58442 18.8256 8.75648C18.9272 8.62137 19.0125 8.47202 19.1496 8.26072C19.2063 8.40795 19.2498 8.55991 19.2797 8.71482C19.3313 9.25505 19.1871 9.79584 18.8733 10.2386C18.7301 10.4418 18.5686 10.645 18.2567 10.5505C18.2171 10.5393 18.1023 10.646 18.087 10.7131C17.8607 11.6891 17.381 12.5883 16.6963 13.3198C16.6219 13.4046 16.578 13.5119 16.5714 13.6246C16.5754 14.4901 16.5856 15.3424 16.5917 16.1947Z" fill="#F8B891"/>
</g>
<defs>
<clipPath id="clip0_9377_29100">
<rect width="27" height="30" fill="white" transform="translate(0.675781 0.105942)"/>
</clipPath>
</defs>
</svg>
