<svg width="260" height="315" viewBox="0 0 260 315" fill="none" xmlns="http://www.w3.org/2000/svg">
<path d="M156.64 314.17L59.7399 314.08C41.6499 314.08 23.5599 313.98 5.47985 314.2C1.83985 314.25 0.859844 312.47 0.839844 309.69C0.839844 305.45 1.33985 301.21 1.35985 296.97C1.43985 278.49 1.12984 259.97 1.51984 241.53C1.90984 222.9 6.21985 205.27 17.5199 189.93C26.1799 178.15 37.8799 170.34 51.0699 164.51L56.3698 162.17C58.2598 163.36 57.5698 165.29 57.6898 166.95C57.8736 168.313 58.134 169.665 58.4698 171C59.5103 189.722 62.8693 208.244 68.4698 226.14C69.4698 229.45 68.1498 231.77 66.1998 234.24C61.0898 240.67 63.4898 249.24 71.0298 251.98C73.6037 252.784 76.3823 252.626 78.8483 251.534C81.3143 250.443 83.2996 248.493 84.4346 246.046C85.5697 243.6 85.7771 240.825 85.0183 238.237C84.2595 235.649 82.5862 233.425 80.3098 231.98C79.1362 231.163 77.7797 230.648 76.3598 230.48C72.1598 230.37 70.2298 227.92 69.0798 224.21C64.6057 210.027 61.682 195.402 60.3598 180.59C59.8786 175.578 59.6616 170.544 59.7099 165.51C59.7099 163.7 59.7099 161.87 60.7099 160.26C61.2714 159.541 62.0336 159.005 62.8998 158.72C71.1498 156.12 79.4598 153.79 88.1198 153.02C91.0498 153.29 91.7998 155.29 92.1198 157.83C94.9444 180.778 99.6264 203.459 106.12 225.65C110.61 240.91 116.69 255.3 127.61 267.25C130.53 270.45 130.38 270.42 133.26 267.14C145.56 253.14 151.94 236.38 156.62 218.76C161.97 198.66 166.25 178.34 168.41 157.61C168.66 155.19 169.41 153.33 172.2 153.06C181.58 154.23 190.83 155.89 199.46 160.01C201.75 163.85 200.87 168.11 200.6 172.13C199.909 184.387 198.179 196.564 195.43 208.53C194.13 213.92 193.3 214.88 187.82 214.68C178.82 214.35 173.32 218.97 169.73 226.68C166.28 234.06 163.32 241.68 159.78 248.99C158.49 251.67 158.73 253.99 160.78 256.07C162.29 257.61 163.28 259.67 165.78 261.07C165.164 259.161 164.073 257.441 162.61 256.07C161.695 255.143 161.095 253.952 160.894 252.665C160.693 251.378 160.901 250.061 161.49 248.9C165 240.98 168.15 232.9 172.06 225.17C173.661 222.048 176.181 219.494 179.28 217.85C182.379 216.207 185.908 215.554 189.39 215.98C192.902 216.556 196.164 218.16 198.764 220.589C201.365 223.019 203.187 226.165 204 229.63C204.644 232.69 204.315 235.875 203.06 238.74C199.82 246.74 196.2 254.64 192.68 262.55C192.239 263.704 191.472 264.706 190.473 265.434C189.473 266.162 188.284 266.584 187.05 266.65C185.478 266.698 183.928 267.037 182.48 267.65C187.94 269.51 191.95 267.88 194.17 262.92C197.22 256.07 200.17 249.18 203.17 242.32C207.51 232.47 206.17 225.71 198.37 218.18C197.326 217.311 196.551 216.163 196.135 214.871C195.719 213.578 195.679 212.194 196.02 210.88C198.667 199.399 200.478 187.742 201.44 176C201.69 172.9 201.56 169.8 201.75 166.71C201.88 164.64 201.91 162.45 204.57 161.8C207.28 161.96 209.72 162.61 211.02 165.34C238.21 177.15 253.47 198.16 257.29 227.18C258.93 239.65 258.79 252.37 259.02 264.99C259.29 279.83 259.02 294.69 259.16 309.54C259.16 313.02 258.3 314.15 254.65 314.13C222 314.06 189.31 314.15 156.64 314.17Z" fill="#F8F7F7"/>
<path d="M199.17 160.64L171.63 154C166.791 155.199 161.765 155.45 156.83 154.74C155.2 153.63 155.23 151.88 155.21 150.22C155.12 143.89 155.21 137.56 155.21 131.22C155.18 128.612 156.117 126.086 157.84 124.13C163.523 117.723 167.59 110.049 169.7 101.75C170.1 100.08 170.77 98.2696 172.64 97.9796C178.58 97.0596 179.88 92.3896 181.18 87.7396C181.8 85.5096 181.6 83.1996 181.43 80.0896C179.734 82.4761 177.664 84.5731 175.3 86.2996C171.14 89.1396 167.95 88.7096 164.9 84.6896C162.46 81.4796 160.9 77.7496 159.37 74.0596C155.754 65.5038 153.276 56.5103 152 47.3096C150.59 46.9396 149.93 47.9296 149.14 48.4796C137.44 56.6996 124.26 60.9396 110.22 62.6296C101.99 63.6296 95.6802 66.8996 92.8502 75.1996C92.3502 76.6696 92.2502 78.1996 91.8502 79.7296C90.8502 83.4796 88.4802 84.1696 85.6302 81.5896C84.6302 80.5896 83.8302 79.3796 82.7302 78.4796C80.5402 76.6896 78.9802 77.1096 77.9802 79.6896C75.6302 85.7696 80.3602 95.8396 86.4702 97.6096C87.2788 97.823 88.0149 98.2505 88.6009 98.8471C89.187 99.4437 89.6013 100.187 89.8002 101C92.2302 108.94 96.6902 115.69 101.97 122C103.535 123.745 104.418 125.996 104.46 128.34C104.54 135.673 104.54 143.036 104.46 150.43C104.46 151.97 104.39 153.57 102.97 154.65C98.2434 155.433 93.4034 155.187 88.7802 153.93L61.1302 160.62C59.9502 160.24 59.1302 159.62 59.6402 158.21L65.8602 143.47C69.7902 136.55 74.1702 129.83 77.5102 122.63C80.8502 115.43 80.0002 108.04 77.7502 100.63C73.0002 84.9996 70.4302 68.9996 71.8602 52.5096C74.1502 25.8996 89.8602 7.95956 116.16 2.29956C130.98 -0.880443 145.5 -0.0604448 159.16 6.96956C167.84 11.4196 174.23 17.8396 175 28.3296C175.03 28.7503 175.147 29.1603 175.343 29.5337C175.54 29.9071 175.811 30.236 176.14 30.4996C186.26 36.1296 187.91 45.3896 187.3 55.7796C186.74 65.1896 186.3 74.6196 186.09 84.0396C185.73 102.42 190.21 119.29 201.94 133.9C208.65 142.26 211.5 152.09 212.05 162.66C212.1 163.54 211.37 164.47 210.99 165.37L204.04 162.53C202.4 162 201.29 160 199.17 160.64Z" fill="#222A2B"/>
<path d="M59.6399 158.22L61.1399 160.63C60.5699 183.2 64.3999 205.1 71.4199 226.48C71.7571 227.072 72.227 227.578 72.7926 227.958C73.3582 228.338 74.0042 228.581 74.6799 228.67C81.4399 229.27 86.1899 233.34 87.1999 239.78C87.5872 242.658 86.9794 245.582 85.4772 248.068C83.975 250.554 81.6686 252.452 78.9402 253.447C76.2118 254.442 73.2252 254.476 70.4752 253.541C67.7253 252.607 65.3771 250.761 63.8199 248.31C62.1333 245.743 61.4593 242.641 61.9286 239.606C62.3978 236.571 63.9769 233.817 66.3599 231.88C68.4299 230.1 67.7699 228.64 67.1899 226.88C61.3418 208.936 57.9773 190.276 57.1899 171.42C56.7648 167.281 56.7648 163.109 57.1899 158.97L59.6399 158.22Z" fill="#5491CD"/>
<path d="M57.1701 158.93V171.38C56.9001 168.31 56.6201 165.24 56.3501 162.17C56.6201 161.09 56.9001 160 57.1701 158.93Z" fill="#9FD7E6"/>
<path d="M156.68 154.46L171.68 153.99C171.07 155.51 170.13 156.99 169.92 158.58C166.09 187.71 160.47 216.39 149.72 243.89C145.59 254.45 138.13 262.75 131.54 271.65C131.32 271.96 129.42 271.65 128.89 271.03C118.272 259.322 110.446 245.359 106 230.19C98.7395 206.21 93.5734 181.644 90.56 156.77C90.44 155.77 89.4 154.89 88.79 153.94L102.88 154.24C105.22 155.39 105.12 157.86 105.8 159.84C110.93 174.84 128.29 181.73 142.03 173.84C147.659 170.801 151.878 165.685 153.79 159.58C154.36 157.73 154.39 155.43 156.68 154.46Z" fill="#3DAEAC"/>
<path d="M199.17 160.64L201.46 158.46L204.07 162.53C203.701 163.173 203.44 163.872 203.3 164.6C203.043 180.775 201.001 196.873 197.21 212.6C197.171 213.35 197.303 214.099 197.593 214.792C197.884 215.484 198.327 216.102 198.89 216.6C206.97 223.13 209.32 231.97 205.18 241.53C201.74 249.47 198.1 257.33 194.79 265.32C193.66 268.05 192.23 269.54 189.15 269.48C186.71 269.43 184.25 269.98 181.82 269.89C180.96 269.89 180.14 268.73 179.3 268.1C180.001 267.321 180.756 266.592 181.56 265.92C182.029 265.68 182.568 265.616 183.08 265.74C189.19 266.6 191.5 262.94 193.35 257.89C195.61 251.72 198.6 245.81 201.22 239.77C204.98 231.09 201.82 222.4 193.57 218.63C185.32 214.86 176.57 218.39 172.7 226.94C169.31 234.48 166.12 242.11 162.65 249.61C161.65 251.69 161.75 253.13 163.4 254.74C164.932 256.145 166.276 257.741 167.4 259.49C167.9 260.33 167.47 261.72 167.46 262.85C166.46 262.69 165 262.9 164.41 262.29C161.968 259.785 159.706 257.112 157.64 254.29C157.375 253.742 157.229 253.143 157.214 252.535C157.198 251.926 157.313 251.321 157.55 250.76C161.41 241.76 165.27 232.76 169.43 223.84C173.11 216 180.19 212.38 189.55 213.12C191.44 213.27 192.87 213.56 193.47 210.93C197.21 194.37 199.61 177.67 199.17 160.64Z" fill="#5490CD"/>
<path d="M156.68 154.46C155.24 160.53 153.25 166.28 148.56 170.78C141.02 178.04 132.1 180.28 122.23 177.45C112.36 174.62 106.3 167.92 103.77 158C103.45 156.75 103.16 155.5 102.86 154.25C102.86 145.25 103.01 136.17 102.92 127.13C102.801 125.765 102.24 124.476 101.32 123.46C95.3801 116.67 90.6601 109.24 88.1301 100.46C87.9401 99.8099 86.5601 99.4599 85.6801 99.0499C84.2301 98.4199 82.2401 98.2998 81.3401 97.2298C79.2214 94.8663 77.6755 92.0465 76.8223 88.9891C75.969 85.9318 75.8314 82.719 76.4201 79.5999C76.6901 78.0999 78.2201 75.8898 79.4201 75.7298C80.9301 75.5298 82.8601 76.8299 84.2901 77.9099C85.9812 79.3491 87.5716 80.9028 89.0501 82.5598C89.6401 80.5598 90.3401 78.6098 90.7901 76.5598C92.4801 69.0198 98.6101 63.3798 106.39 61.6698C115.69 59.6698 125.13 57.8998 134.06 54.7698C140.86 52.3898 146.96 48.0398 153.32 44.5898C154.01 55.7598 157.61 66.6998 162.27 77.3398C162.69 78.3398 163.18 79.1998 163.67 80.1098C168.46 89.1098 172.49 89.3899 178.67 81.2399C179.67 79.9099 180.51 78.4398 181.86 76.3598C182.418 77.8091 182.846 79.3049 183.14 80.8298C183.648 86.1477 182.229 91.4711 179.14 95.8298C177.73 97.8298 176.14 99.8298 173.07 98.8998C172.68 98.7898 171.55 99.8398 171.4 100.5C169.172 110.108 164.45 118.959 157.71 126.16C156.978 126.995 156.545 128.051 156.48 129.16C156.52 137.68 156.62 146.07 156.68 154.46Z" fill="#F8B891"/>
<path d="M74.4402 247.43C73.6373 247.462 72.8362 247.332 72.0843 247.049C71.3324 246.766 70.6451 246.334 70.0631 245.78C69.4811 245.226 69.0163 244.561 68.6963 243.824C68.3763 243.087 68.2076 242.293 68.2002 241.49C68.2002 238.49 71.4402 235.15 74.3802 235.09C77.9902 235.01 80.5902 237.72 80.5802 241.53C80.5802 245.05 78.0902 247.43 74.4402 247.43Z" fill="#8FBDE6"/>
</svg>
