<svg width="48" height="48" viewBox="0 0 48 48" fill="none" xmlns="http://www.w3.org/2000/svg">
<path d="M25.7281 41.2755C18.0186 41.2755 11.7673 35.0588 11.7673 27.3885C11.7673 19.7181 18.0186 13.503 25.7281 13.503C28.9427 13.503 31.9028 14.5867 34.2628 16.4037C31.0368 12.4291 26.1016 9.88525 20.5662 9.88525C10.849 9.88525 2.96997 17.7227 2.96997 27.3901C2.96997 37.0575 10.849 44.8933 20.5662 44.8933C26.1016 44.8933 31.0368 42.3495 34.2628 38.3748C31.9028 40.1918 28.9443 41.2755 25.7281 41.2755" fill="#D60007"/>
<path fill-rule="evenodd" clip-rule="evenodd" d="M41.4602 23.0146V26.5155H39.7005V18.6392H36.1809V26.5155H34.4211V23.0146H30.9015V26.5155H29.1418V18.6392H25.6222V36.1424H29.1418V28.266H30.9015V31.767H34.4211V28.266H36.1809V36.1424H39.7005V28.266H41.4602V31.767H44.9798V23.0146H41.4602Z" fill="#1E2ABE"/>
<path d="M31.5898 5.29787C34.1288 4.8021 34.6227 4.30829 35.1184 1.76923C35.1318 1.70095 35.2294 1.70095 35.2428 1.76923C35.7385 4.30829 36.2323 4.8021 38.7714 5.29787C38.8397 5.3112 38.8397 5.40884 38.7714 5.4222C36.2323 5.91796 35.7385 6.41177 35.2428 8.95084C35.2294 9.01912 35.1318 9.01912 35.1184 8.95084C34.6227 6.41174 34.1288 5.91796 31.5898 5.4222C31.5215 5.40887 31.5215 5.3112 31.5898 5.29787Z" fill="url(#paint0_linear_5814_12613)"/>
<path d="M39.6697 3.16143C40.9719 2.90774 41.2231 2.65654 41.4768 1.35432C41.4833 1.32069 41.5315 1.32069 41.5381 1.35432C41.7918 2.65654 42.043 2.90774 43.3452 3.16143C43.3788 3.16799 43.3788 3.21618 43.3452 3.22271C42.043 3.4764 41.7918 3.7276 41.5381 5.02982C41.5315 5.06348 41.4833 5.06348 41.4768 5.02982C41.2231 3.7276 40.9719 3.4764 39.6697 3.22271C39.636 3.21618 39.636 3.16799 39.6697 3.16143Z" fill="url(#paint1_linear_5814_12613)"/>
<path d="M36.0631 10.7897C39.3872 10.1242 40.0903 9.42101 40.7559 6.09692C40.7815 5.969 40.9642 5.969 40.9898 6.09692C41.6554 9.42097 42.3586 10.1242 45.6826 10.7897C45.8106 10.8153 45.8106 10.998 45.6826 11.0236C42.3586 11.6892 41.6554 12.3924 40.9898 15.7165C40.9642 15.8444 40.7816 15.8444 40.7559 15.7165C40.0903 12.3924 39.3872 11.6892 36.0631 11.0236C35.9352 10.998 35.9352 10.8153 36.0631 10.7897Z" fill="url(#paint2_linear_5814_12613)"/>
<defs>
<linearGradient id="paint0_linear_5814_12613" x1="19.9701" y1="-9.85038" x2="49.8865" y2="20.0663" gradientUnits="userSpaceOnUse">
<stop offset="0.427928" stop-color="#306FDE"/>
<stop offset="0.458302" stop-color="#4E63D5"/>
<stop offset="0.503063" stop-color="#7C51C7"/>
<stop offset="0.552619" stop-color="#9E44BD"/>
</linearGradient>
<linearGradient id="paint1_linear_5814_12613" x1="33.7268" y1="-4.58842" x2="49.0298" y2="10.7149" gradientUnits="userSpaceOnUse">
<stop offset="0.43139" stop-color="#4E63D5"/>
<stop offset="0.468375" stop-color="#0C64FE"/>
<stop offset="0.544913" stop-color="#7C51C7"/>
<stop offset="0.657923" stop-color="#9E44BD"/>
</linearGradient>
<linearGradient id="paint2_linear_5814_12613" x1="20.3847" y1="-9.58139" x2="60.6815" y2="30.7156" gradientUnits="userSpaceOnUse">
<stop offset="0.427928" stop-color="#306FDE"/>
<stop offset="0.458302" stop-color="#4E63D5"/>
<stop offset="0.503063" stop-color="#7C51C7"/>
<stop offset="0.552619" stop-color="#9E44BD"/>
</linearGradient>
</defs>
</svg>
