<svg width="1280" height="141" viewBox="0 0 1280 141" fill="none" xmlns="http://www.w3.org/2000/svg">
<g clip-path="url(#clip0_16893_3693)">
<rect width="1280" height="140" transform="translate(0 0.161621)" fill="#1B94AC"/>
<path d="M0 0.161621H1280V140.162H0V0.161621Z" fill="#69BAC9"/>
<g opacity="0.4">
<mask id="mask0_16893_3693" style="mask-type:luminance" maskUnits="userSpaceOnUse" x="0" y="1" width="1280" height="150">
<path d="M1278.93 2.70752V149.1H1.13184V2.70752H1278.93Z" fill="white" stroke="white" stroke-width="2.14405"/>
</mask>
<g mask="url(#mask0_16893_3693)">
<mask id="mask1_16893_3693" style="mask-type:luminance" maskUnits="userSpaceOnUse" x="-131" y="-24" width="706" height="364">
<path d="M573.268 -22.2061V338.754H-129.113V-22.2061H573.268Z" fill="white" stroke="white" stroke-width="2.14405"/>
</mask>
<g mask="url(#mask1_16893_3693)">
<path d="M-170.063 94.9768C-158.293 108.345 -134.602 114.607 -114.706 109.628C-94.8105 104.632 -80.3816 88.799 -81.0248 72.6456C-81.325 64.8981 -84.7124 57.3869 -85.5057 49.6562C-88.3357 22.1939 -54.0539 -2.73666 -18.4214 -2.24716C17.2111 -1.74079 48.7701 20.911 56.8743 47.732C64.9784 74.553 51.8789 103.636 27.6522 123.823C13.4378 135.672 -4.20695 144.753 -19.086 156.096C-33.965 167.439 -46.5072 182.191 -46.0998 198.345C-45.5638 220.338 -20.6296 238.298 6.59856 244.695C29.0886 249.978 54.9018 248.83 74.3904 238.686C93.8789 228.541 105.199 208.506 97.8238 191.239C92.0566 177.752 76.0198 166.089 78.614 152.045C80.9723 139.251 98.2955 131.233 114.761 128.954C131.227 126.676 148.357 128.229 164.629 125.224C180.902 122.22 197.218 112.345 196.703 99.416C195.995 81.7435 167.588 74.131 153.588 60.1551C135.879 42.4826 145.098 14.5476 167.845 0.774206C190.614 -13.0161 222.345 -14.8053 250.623 -10.1129C297.19 -2.3822 340.219 23.848 352.054 59.5137C363.888 95.1793 337.153 137.9 290.994 146.981C266.146 151.876 239.711 147.235 214.412 150.475C189.113 153.716 162.593 171.017 169.732 190.057C173.913 201.197 187.827 208.101 197.603 216.878C214.691 232.221 217.521 258.418 197.453 271.431C176.764 284.833 146.02 278.318 119.328 275.162C89.0765 271.583 56.8957 273.643 30.0105 284.969C3.1468 296.311 -17.4137 317.917 -18.3142 341.564C-19.6863 377.23 23.836 406.633 69.4164 412.187C114.997 417.74 160.92 405.047 202.535 389.636C225.368 381.18 248.029 371.626 265.674 357.583C283.319 343.539 295.475 324.297 293.245 304.818C289.665 273.676 251.309 248.56 253.303 217.334C254.697 195.61 278.816 176.115 306.838 174.106C334.859 172.098 356.706 193.534 363.267 214.684C367.19 227.36 370.556 235.276 375.959 247.615C384.942 268.106 417.852 279.027 444.565 272.562C471.258 266.098 489.717 245.1 491.711 223.528C493.726 201.957 481.034 180.537 461.546 165.008C445.166 151.961 422.333 139.69 422.611 121.511C423.062 92.1411 483.928 77.7094 478.976 48.5928C476.703 35.2752 460.581 26.0085 444.501 20.9448C428.421 15.881 410.712 13.2141 396.648 5.33157C365.668 -12.0202 364.832 -50.4709 388.072 -73.9498C411.313 -97.4456 451.405 -107.607 489.631 -108.586C528.072 -109.565 567.907 -102.037 597.579 -83.1321C627.252 -64.2105 644.832 -32.866 636.278 -3.88444C629.739 18.2948 609.586 36.4567 588.639 52.4075C567.693 68.3752 544.86 83.5158 530.345 103.298C515.852 123.081 511.392 149.277 528.18 167.945C555.279 198.041 623.993 196.859 640.501 231.242C649.356 249.674 637.414 270.858 618.826 284.276C600.238 297.695 576.054 305.257 553.05 313.646C530.045 322.035 506.761 332.196 492.976 348.704C479.169 365.212 478.268 389.704 497.328 402.718C495.742 399.916 494.155 397.097 492.569 394.295" stroke="#1B94AC" stroke-width="1.86533" stroke-miterlimit="10"/>
<path d="M-156.535 91.9724C-147.359 102.269 -125.64 101.29 -113.763 92.7995C-101.885 84.3093 -97.8118 71.1604 -96.311 58.7204C-94.8102 46.2636 -95.2176 33.4523 -89.8577 21.6538C-81.5392 3.3568 -59.5208 -10.1972 -35.144 -14.7714C-10.7672 -19.3457 15.4533 -15.6154 37.8576 -6.87197C50.5927 -1.89262 62.5131 4.82528 70.5744 13.9232C80.0506 24.6414 83.5667 37.9084 84.1241 50.8716C85.7536 88.394 63.092 126.068 24.951 149.294C14.7672 155.489 3.57579 160.721 -5.81473 167.608C-15.2052 174.512 -22.8591 183.576 -23.2879 193.585C-23.6953 203.307 -17.0276 212.692 -7.42269 218.954C2.20366 225.216 14.4671 228.643 26.8806 230.263C35.3277 231.377 44.1608 231.698 52.3508 229.791C60.5621 227.883 68.1088 223.478 71.2175 217.3C76.1272 207.544 69.1808 196.944 64.5713 187.103C58.3324 173.752 56.3599 158.831 62.0629 145.327C67.7658 131.824 81.873 120.076 99.7536 116.835C111.931 114.624 124.731 116.346 137.144 115.164C149.558 114 163.043 108.328 164.758 98.7409C166.452 89.2211 156.118 81.3723 148.7 73.6585C134.121 58.5179 129.019 38.1616 135.257 19.9153C141.496 1.66889 159.012 -13.9275 181.267 -21.6919C218.614 -34.7057 310.676 -32.7646 350.746 17.0964C390.817 66.9575 384.556 125.545 336.339 147.319C288.121 169.11 207.316 152.113 189.8 173.465C172.284 194.817 214.219 206.97 222.045 231.124C229.87 255.278 225.496 280.935 192.93 295.468C160.363 309.984 87.1042 280.951 48.2772 298.86C9.45023 316.769 13.2022 367.12 94.6295 373.905C176.035 380.69 249.316 354.055 262.458 316.296C275.601 278.538 223.545 233.386 243.677 196.724C263.809 160.063 329.478 157.514 358.272 181.229C387.086 204.945 381.448 253.844 426.535 259.177C471.622 264.511 489.16 207.848 437.812 173.246C386.465 138.643 393.347 114.911 422.783 92.6476C452.22 70.3839 466.627 42.7865 437.812 34.06C408.997 25.3503 364.532 11.3069 361.402 -39.5331C358.272 -90.3732 418.388 -121.346 520.462 -117.971C622.535 -114.578 668.888 -55.5177 660.74 -7.10828C652.593 41.3012 552.792 81.2879 540.508 124.583C528.223 167.878 611.901 174.444 648.842 212.692C685.782 250.94 651.972 292.092 601.868 313.393C551.763 334.695 477.861 352.131 515.445 405.857" stroke="#1B94AC" stroke-width="1.86533" stroke-miterlimit="10"/>
<path d="M-158.4 126.659C-140.305 134.558 -117.258 135.234 -98.434 128.431C-79.6101 121.629 -65.5029 107.518 -61.7081 91.736C-59.3068 81.7098 -60.8719 71.3966 -61.1078 61.1847C-61.3436 50.9728 -60.0143 40.2545 -52.682 31.7643C-41.3191 18.5986 -16.7708 14.3619 2.03168 20.6072C20.8342 26.8525 33.3548 41.9256 35.9705 57.6232C38.5861 73.3208 32.3043 89.356 21.5202 102.809C10.7576 116.261 -4.2501 127.402 -20.0725 137.428C-34.0511 146.289 -49.0802 154.645 -59.3283 166.156C-72.1063 180.487 -76.2655 199.206 -70.434 216.017C-64.581 232.829 -48.8229 247.412 -28.4768 254.839C-6.28687 262.958 16.5248 263.819 40.8372 261.237C65.1497 258.654 88.8189 249.573 103.741 234.517C118.663 219.461 123.722 198.193 113.839 180.824C109.251 172.773 101.533 164.688 104.02 156.113C105.928 149.581 113.582 144.821 121.75 142.61C129.94 140.415 138.752 140.264 147.392 139.707C166.559 138.474 186.326 134.778 200.905 125.072C215.484 115.367 223.309 98.4539 215.033 85.0181C204.957 68.6284 176.571 63.379 164.865 47.6645C152.88 31.5787 164.715 11.8638 185.511 5.11215C211.196 -3.22616 241.34 -3.1924 266.853 5.51724C295.646 15.3409 317.858 35.9672 325.126 59.6318C330.893 78.4521 327.227 99.1459 313.655 115.384C300.084 131.638 276.458 142.93 251.459 143.808C230.556 144.551 209.073 138.407 189.027 143.082C177.064 145.867 166.709 152.552 161.027 161.143C155.346 169.735 154.402 180.149 158.497 189.264C162.571 198.379 171.147 205.772 179.122 213.165C187.119 220.558 194.988 228.609 197.153 238.112C199.34 247.598 193.937 258.806 182.21 262.064C161.499 267.786 142.911 268.427 120.935 267.853C98.9598 267.279 76.7485 265.524 55.0945 268.562C25.0577 272.765 -2.57782 286.521 -19.9439 305.916C-37.3313 325.327 -44.2777 350.139 -38.8107 373.365" stroke="#1B94AC" stroke-width="1.86533" stroke-miterlimit="10"/>
<path d="M274.379 362.9C303.665 347.557 318.18 317.157 308.81 290.792C304.458 278.504 295.625 267.516 287.971 256.223C280.296 244.948 273.564 232.744 273.971 220.001C274.379 207.257 283.683 193.939 299.356 190.023C314.878 186.158 332.201 192.505 342.685 202.159C353.169 211.814 358.293 224.187 363.16 236.205C368.026 248.223 373.15 260.595 383.634 270.25C400.679 285.948 430.844 291.619 456.014 285.171C481.184 278.723 500.523 261.186 506.869 241.285C513.215 221.385 507.126 199.661 492.504 182.563C483.543 172.098 471.665 163.32 462.082 153.21C452.477 143.082 445.037 130.828 447.031 118.371C449.389 103.653 464.011 92.2086 476.939 81.254C489.867 70.2995 502.602 56.7455 499.837 42.0775C497.092 27.5108 479.834 17.1808 462.318 11.4419C444.801 5.68606 425.57 2.79972 409.533 -5.13348C393.497 -13.0667 381.147 -28.528 387.858 -42.3014" stroke="#1B94AC" stroke-width="1.86533" stroke-miterlimit="10"/>
<path d="M609.092 6.14185C592.97 30.2959 564.627 47.8671 540.529 67.6495C516.431 87.4319 495.077 112.717 498.915 139.74C501.766 159.843 518.382 177.415 538.278 190.53C547.132 196.37 556.951 200.944 566.278 206.244C574.853 211.122 584.287 213.215 594.406 215.984C617.347 222.229 643.674 235.732 628.195 257.27C621.184 267.026 608.192 273.221 595.371 278.301C574.36 286.64 552.235 293.206 531.181 301.46C510.127 309.73 489.846 319.942 474.988 334.121C460.13 348.299 451.19 366.968 455.028 384.978" stroke="#1B94AC" stroke-width="1.86533" stroke-miterlimit="10"/>
<path d="M-150.617 142.508C-128.899 147.015 -104.801 144.179 -85.8057 134.845C-66.8317 125.528 -53.2605 109.864 -49.3156 92.7487C-46.6571 81.1696 -48.2008 69.1516 -44.6847 57.7075C-41.1686 46.2804 -30.1701 34.7519 -14.9695 34.2624C-4.54986 33.9248 5.31233 39.073 10.7151 45.9765C16.1179 52.8801 17.6186 61.2184 17.2327 69.2867C16.5038 84.5285 9.23576 99.551 -3.15629 111.417C-18.2712 125.916 -40.0752 135.284 -56.8195 148.686C-81.3892 168.35 -93.7598 196.741 -89.6005 223.883C-86.9206 241.302 -76.9297 259.076 -56.4121 268.022C-47.6005 271.87 -39.1533 272.123 -29.4841 273.305C-25.4749 273.795 -20.2222 274.487 -18.0782 277.559C-13.2329 284.53 -23.9312 293.02 -28.5193 298.185C-35.4657 306 -40.3753 315.486 -44.2773 324.432C-52.4029 343.067 -55.2329 363.102 -52.1885 382.631" stroke="#1B94AC" stroke-width="1.86533" stroke-miterlimit="10"/>
<path d="M-24.0388 55.5977C-26.4829 60.5771 -26.2042 66.0628 -26.5687 71.3797C-27.5764 86.3853 -34.0511 101.155 -45.071 113.544C-47.4079 116.16 -49.9378 119.705 -47.4294 122.203C-44.6422 124.954 -38.9393 123.317 -35.2946 121.258C-20.973 113.173 -10.146 101.425 -4.9362 88.3264C-0.841243 78.0301 0.144966 66.2822 -3.22104 55.7497C-6.62993 45.0651 -18.9148 45.1664 -24.0388 55.5977Z" stroke="#1B94AC" stroke-width="1.86533" stroke-miterlimit="10"/>
<path d="M-165.389 80.8659C-149.781 87.9214 -127.098 82.807 -118.844 70.3502C-112.477 60.7459 -114.47 49.285 -113.849 38.4992C-112.262 11.5601 -91.5302 -14.5182 -60.4429 -26.7387C-41.7905 -34.0812 -20.4796 -36.4274 0.445435 -36.6299C19.4409 -36.8156 39.4011 -35.0602 55.0305 -26.6881C67.3797 -20.0715 75.8268 -9.91022 82.0014 0.673015C98.1883 28.4392 100.268 60.9485 87.6829 89.8119C86.3108 92.9851 84.7243 96.2597 85.3246 99.5849C85.9249 102.893 89.5696 106.168 93.8575 105.78C98.0597 105.391 100.568 101.982 104.256 100.361C114.482 95.8884 129.19 106.32 138.152 100.463C141.946 97.9814 142.482 93.4578 140.939 89.795C139.395 86.1322 136.179 83.0602 133.328 79.9038C114.268 58.6529 111.224 29.874 123.401 5.80428C135.6 -18.2654 162.057 -37.3726 193.144 -46.8925" stroke="#1B94AC" stroke-width="1.86533" stroke-miterlimit="10"/>
<path d="M65.0212 -43.3142C76.2556 -40.6135 84.8099 -33.2036 89.6982 -24.9159C94.5864 -16.6283 96.2801 -7.46287 97.6951 1.56748C98.2096 4.90955 100.053 9.23062 104.427 9.11246C108.522 9.01119 110.151 5.06147 110.902 1.9557C116.669 -22.4853 133.864 -45.2215 158.583 -61.1217" stroke="#1B94AC" stroke-width="1.86533" stroke-miterlimit="10"/>
<path d="M109.551 65.4551C108.629 64.358 106.378 63.8853 105.285 64.8643C104.749 65.3538 104.642 66.0121 104.556 66.6535C104.063 70.2319 104.149 74.2323 103.055 77.7431C102.005 81.0852 99.3247 83.0094 98.0597 86.2671C97.3093 88.2082 97.7167 90.5713 99.732 91.871C102.755 93.829 111.953 89.8624 116.669 90.7907C118.749 91.1958 120.786 91.8879 122.951 91.8879C125.095 91.8879 127.496 90.9089 127.796 89.2716C128.225 87.1111 125.181 85.6595 122.801 84.4948C118.342 82.3174 114.783 79.0766 112.617 75.3632C110.923 72.46 111.652 67.9701 109.551 65.472V65.4551Z" stroke="#1B94AC" stroke-width="1.86533" stroke-miterlimit="10"/>
<path d="M289.515 40.1532C279.588 27.747 263.809 18.3454 246.014 13.6361C228.284 8.92679 198.204 7.62709 187.934 22.8521C171.061 47.867 225.261 61.5391 235.273 80.3763C242.498 93.9809 233.6 109.746 220.865 120.701C217.328 123.739 213.169 127.503 214.777 131.402C216.62 135.875 224.36 136.618 230.363 136.027C257.356 133.377 282.054 119.553 293.76 100.564C305.466 81.5747 303.815 58.0451 289.493 40.1532H289.515Z" stroke="#1B94AC" stroke-width="1.86533" stroke-miterlimit="10"/>
<path d="M207.015 38.0773C210.488 52.2051 247.171 67.3457 252.746 78.5366C258.813 90.6727 251.202 104.429 240.825 114.692C239.217 116.278 237.438 118.084 237.781 120.076C238.188 122.49 241.726 123.992 244.877 123.773C248.008 123.553 250.752 122.085 253.217 120.566C278.966 104.497 289.021 75.0426 276.908 51.243C271.913 41.4193 263.358 32.524 251.824 26.8526C241.79 21.907 225.689 19.6115 215.355 25.3504C208.066 29.4014 205.922 33.6887 206.994 38.0941L207.015 38.0773Z" stroke="#1B94AC" stroke-width="1.86533" stroke-miterlimit="10"/>
<path d="M225.56 41.6556C226.354 44.2887 228.326 46.618 230.534 48.711C234.394 52.4245 239.025 55.6146 243.613 58.7879C249.273 62.7039 254.933 66.603 260.593 70.5189C261.708 71.2954 263.208 72.1224 264.58 71.6498C265.953 71.1772 266.146 69.7425 266.081 68.5778C265.438 57.9271 259.799 47.5801 250.752 39.5625C247.129 36.3555 241.383 30.9711 235.294 31.0723C228.391 31.1905 224.145 36.845 225.603 41.6556H225.56Z" stroke="#1B94AC" stroke-width="1.86533" stroke-miterlimit="10"/>
<path d="M419.224 -36.5625C414.014 -28.3255 418.559 -17.9785 426.963 -11.5138C435.368 -5.04912 446.838 -1.6564 458.072 1.31433C469.285 4.28506 480.884 7.10387 490.21 12.7753C501.702 19.7801 508.691 30.7685 509.913 42.0437C511.135 53.319 506.826 64.7631 498.914 74.2829C492.247 82.3174 483.178 88.9678 475.502 96.4284C467.806 103.889 461.288 112.7 461.138 122.253C460.966 134.356 470.85 144.973 480.305 154.611C482.17 156.518 484.571 158.611 487.659 158.426C490.489 158.257 492.525 156.062 492.868 153.868C493.212 151.691 492.268 149.53 491.389 147.437C485.751 134.001 482.149 119.367 487.401 105.847C494.862 86.6216 517.953 74.1141 535.705 59.463C566.042 34.4312 582.507 -0.339834 580.277 -34.6045" stroke="#1B94AC" stroke-width="1.92965" stroke-miterlimit="10"/>
<path d="M446.881 -32.6296C445.98 -25.4391 451.662 -18.5186 459.123 -14.1638C466.584 -9.80899 475.653 -7.49654 484.486 -5.0997C493.319 -2.71974 502.302 -0.0697152 509.248 4.7746C517.203 10.311 521.748 18.3623 523.27 26.5487C524.471 32.9459 523.784 39.073 522.241 45.3352C521.812 47.1075 519.347 48.441 520.89 50.3146C526.036 56.6105 538.685 43.0397 540.829 40.1871C560.682 13.7037 564.67 -19.5651 551.399 -48.4116" stroke="#1B94AC" stroke-width="1.92965" stroke-miterlimit="10"/>
<path d="M473.552 -32.714C476.017 -26.8232 482.664 -22.5528 489.653 -19.5314C496.642 -16.51 504.275 -14.3833 510.899 -10.923C518.961 -6.72011 525.307 -0.609853 528.866 6.37812C530.431 9.467 533.089 13.4842 537.249 12.7078C540.036 12.1845 541.301 9.70331 541.922 7.5259C546.553 -8.40802 540.979 -25.9286 527.301 -38.3685" stroke="#1B94AC" stroke-width="1.92965" stroke-miterlimit="10"/>
<path d="M291.894 -35.6849C291.894 -35.6849 333.165 -24.9836 362.323 16.1678C391.481 57.3192 384.492 98.5888 387.665 105.796C390.838 113.004 400.228 97.019 407.754 85.8956C415.279 74.7554 438.434 66.4171 434.06 51.9517C429.686 37.4862 357.028 24.8944 348.881 -29.3215" stroke="#1B94AC" stroke-width="1.92965" stroke-miterlimit="10"/>
<path d="M387.214 38.9043C386.485 40.3559 386.85 41.9763 387.214 43.5123C390.152 55.5133 393.067 67.5313 396.005 79.5324C398.534 79.718 400.614 77.8613 401.343 75.9878C402.072 74.0973 401.965 72.0718 402.715 70.1813C404.687 65.2357 412.127 62.2819 413.285 57.1844C414.164 53.3866 411.205 49.7069 407.903 46.8206C405.159 44.4069 390.473 32.3551 387.193 38.9043H387.214Z" stroke="#1B94AC" stroke-width="1.92965" stroke-miterlimit="10"/>
<path d="M371.649 135.875C372.593 132.432 373.022 128.161 377.181 126.726C380.268 125.663 384.041 126.963 386.1 129.039C388.158 131.115 388.908 133.765 389.594 136.331C393.067 149.53 396.262 163.574 407.711 173.752C415.686 180.841 426.856 185.28 435.797 191.644C447.395 199.914 454.942 211.51 456.636 223.647C457.901 232.879 454.749 243.631 444.201 248.054C435.26 251.818 423.747 249.674 415.558 244.982C404.816 238.821 398.577 229.048 394.44 219.241C390.302 209.417 387.836 199.172 382.626 189.652C377.417 180.149 368.819 171.119 356.427 167.27C352.804 166.139 348.924 165.481 345.6 163.894C334.323 158.561 342.32 152.366 351.11 151.218C361.616 149.851 369.42 144.179 371.692 135.841L371.649 135.875Z" stroke="#1B94AC" stroke-width="1.92965" stroke-miterlimit="10"/>
<path d="M587.374 86.7735C573.16 96.0739 558.731 106.91 555.386 121.055C553.221 130.17 556.222 139.943 563.448 147.336C570.673 154.729 581.993 159.641 593.935 160.552" stroke="#1B94AC" stroke-width="1.92965" stroke-miterlimit="10"/>
<path d="M578.177 108.227C570.909 114 568.036 122.844 570.909 130.592C573.803 138.322 582.336 144.635 592.455 146.526" stroke="#1B94AC" stroke-width="1.92965" stroke-miterlimit="10"/>
</g>
<mask id="mask2_16893_3693" style="mask-type:luminance" maskUnits="userSpaceOnUse" x="575" y="-24" width="706" height="364">
<path d="M576.677 338.737V-22.2232L1279.06 -22.2232V338.737L576.677 338.737Z" fill="white" stroke="white" stroke-width="2.14405"/>
</mask>
<g mask="url(#mask2_16893_3693)">
<path d="M1320.03 94.9768C1308.26 108.345 1284.57 114.607 1264.67 109.628C1244.78 104.632 1230.35 88.799 1230.99 72.6456C1231.29 64.8981 1234.68 57.3869 1235.47 49.6562C1238.3 22.1939 1204.02 -2.73666 1168.39 -2.24716C1132.75 -1.74079 1101.19 20.911 1093.09 47.732C1084.99 74.553 1098.09 103.636 1122.31 123.823C1136.53 135.672 1154.17 144.753 1169.05 156.096C1183.93 167.439 1196.47 182.191 1196.06 198.345C1195.53 220.338 1170.59 238.298 1143.37 244.695C1120.88 249.978 1095.06 248.83 1075.57 238.686C1056.06 228.525 1044.77 208.506 1052.14 191.239C1057.91 177.752 1073.94 166.089 1071.35 152.045C1068.99 139.251 1051.67 131.233 1035.2 128.954C1018.74 126.676 1001.61 128.229 985.335 125.224C969.063 122.22 952.747 112.345 953.262 99.416C953.969 81.7435 982.377 74.131 996.377 60.1551C1014.09 42.4826 1004.87 14.5476 982.119 0.774206C959.35 -13.0161 927.62 -14.8053 899.341 -10.1129C852.774 -2.3822 809.745 23.848 797.911 59.5137C786.076 95.1793 812.811 137.9 858.971 146.981C883.819 151.876 910.254 147.235 935.553 150.475C960.851 153.716 987.372 171.017 980.233 190.057C976.052 201.197 962.138 208.101 952.361 216.878C935.274 232.221 932.444 258.418 952.511 271.431C973.2 284.833 1003.94 278.318 1030.64 275.162C1060.89 271.583 1093.07 273.643 1119.95 284.969C1146.82 296.311 1167.38 317.917 1168.28 341.564C1169.65 377.23 1126.13 406.633 1080.55 412.187C1034.97 417.74 989.044 405.047 947.43 389.636C924.597 381.18 901.935 371.626 884.291 357.583C866.646 343.539 854.49 324.297 856.719 304.818C860.3 273.676 898.655 248.56 896.661 217.334C895.268 195.61 871.148 176.115 843.127 174.106C815.105 172.098 793.258 193.534 786.698 214.684C782.774 227.36 779.408 235.276 774.006 247.615C765.022 268.106 732.113 279.027 705.399 272.562C678.707 266.098 660.247 245.1 658.254 223.528C656.238 201.957 668.93 180.537 688.419 165.008C704.799 151.961 727.632 139.69 727.353 121.511C726.903 92.1411 666.036 77.7094 670.989 48.5928C673.261 35.2752 689.384 26.0085 705.463 20.9448C721.543 15.881 739.252 13.2141 753.317 5.33157C784.297 -12.0202 785.133 -50.4709 761.892 -73.9498C738.652 -97.4456 698.56 -107.607 660.333 -108.586C621.892 -109.565 582.057 -102.037 552.385 -83.1321C522.713 -64.2105 505.132 -32.866 513.687 -3.88444C520.226 18.2948 540.379 36.4567 561.325 52.4075C582.272 68.3752 605.105 83.5158 619.62 103.298C634.113 123.081 638.572 149.277 621.785 167.945C594.685 198.041 525.972 196.859 509.463 231.242C500.609 249.674 512.55 270.858 531.139 284.276C549.727 297.695 573.91 305.257 596.915 313.646C619.92 322.035 643.203 332.196 656.989 348.704C670.796 365.212 671.696 389.704 652.636 402.718C654.223 399.916 655.809 397.097 657.396 394.295" stroke="#1B94AC" stroke-width="1.86533" stroke-miterlimit="10"/>
<path d="M1306.48 91.9724C1297.3 102.269 1275.58 101.29 1263.71 92.7995C1251.83 84.3093 1247.75 71.1604 1246.25 58.7204C1244.75 46.2636 1245.16 33.4523 1239.8 21.6538C1231.48 3.3568 1209.46 -10.1972 1185.09 -14.7714C1160.71 -19.3457 1134.49 -15.6154 1112.09 -6.87197C1099.35 -1.89262 1087.43 4.82528 1079.37 13.9232C1069.89 24.6414 1066.38 37.9084 1065.82 50.8716C1064.19 88.394 1086.85 126.068 1124.99 149.294C1135.18 155.489 1146.37 160.721 1155.76 167.608C1165.15 174.512 1172.8 183.576 1173.23 193.585C1173.64 203.307 1166.97 212.692 1157.37 218.954C1147.74 225.216 1135.48 228.643 1123.06 230.263C1114.62 231.377 1105.78 231.698 1097.59 229.791C1089.38 227.883 1081.83 223.478 1078.73 217.3C1073.82 207.544 1080.76 196.944 1085.37 187.103C1091.61 173.752 1093.58 158.831 1087.88 145.327C1082.18 131.824 1068.07 120.076 1050.19 116.835C1038.01 114.624 1025.21 116.346 1012.8 115.164C1000.39 114 986.9 108.328 985.185 98.7409C983.491 89.2211 993.825 81.3723 1001.24 73.6585C1015.82 58.5179 1020.92 38.1616 1014.69 19.9153C1008.45 1.66889 990.931 -13.9275 968.676 -21.6919C931.329 -34.7057 839.267 -32.7646 799.197 17.0964C759.126 66.9575 765.387 125.545 813.604 147.319C861.822 169.11 942.627 152.113 960.143 173.465C977.66 194.817 935.724 206.97 927.898 231.124C920.073 255.278 924.447 280.935 957.013 295.468C989.58 309.984 1062.84 280.951 1101.67 298.86C1140.49 316.769 1136.74 367.12 1055.31 373.905C973.908 380.69 900.627 354.055 887.485 316.296C874.342 278.538 926.398 233.386 906.266 196.724C886.134 160.063 820.465 157.514 791.672 181.229C762.857 204.945 768.495 253.844 723.408 259.177C678.321 264.511 660.783 207.848 712.131 173.246C763.479 138.643 756.596 114.911 727.16 92.6476C697.724 70.3839 683.316 42.7865 712.131 34.06C740.946 25.3503 785.411 11.3069 788.541 -39.5331C791.672 -90.3732 731.555 -121.346 629.481 -117.971C527.408 -114.578 481.056 -55.5177 489.203 -7.10828C497.35 41.3012 597.151 81.2879 609.435 124.583C621.72 167.878 538.042 174.444 501.102 212.692C464.161 250.94 497.971 292.092 548.076 313.393C598.18 334.695 672.082 352.131 634.498 405.857" stroke="#1B94AC" stroke-width="1.86533" stroke-miterlimit="10"/>
<path d="M1308.36 126.659C1290.27 134.558 1267.22 135.234 1248.4 128.431C1229.57 121.629 1215.47 107.518 1211.67 91.736C1209.27 81.7098 1210.84 71.3966 1211.07 61.1847C1211.31 50.9728 1209.98 40.2545 1202.65 31.7643C1191.28 18.5986 1166.73 14.3619 1147.93 20.6072C1129.13 26.8525 1116.61 41.9256 1113.99 57.6232C1111.38 73.3208 1117.66 89.356 1128.44 102.809C1139.21 116.261 1154.21 127.402 1170.04 137.428C1184.01 146.289 1199.04 154.645 1209.29 166.156C1222.07 180.487 1226.23 199.206 1220.4 216.017C1214.54 232.829 1198.79 247.412 1178.44 254.839C1156.25 262.958 1133.44 263.819 1109.13 261.237C1084.81 258.654 1061.14 249.573 1046.22 234.517C1031.28 219.461 1026.24 198.193 1036.12 180.824C1040.71 172.773 1048.43 164.688 1045.94 156.113C1044.04 149.581 1036.38 144.821 1028.21 142.61C1020.02 140.415 1011.21 140.264 1002.57 139.707C983.405 138.474 963.638 134.778 949.059 125.072C934.48 115.367 926.655 98.4539 934.93 85.0181C945.007 68.6284 973.393 63.379 985.099 47.6645C997.084 31.5787 985.249 11.8638 964.453 5.11215C938.768 -3.22616 908.624 -3.1924 883.111 5.51724C854.318 15.3409 832.106 35.9672 824.838 59.6318C819.071 78.4521 822.737 99.1459 836.309 115.384C849.88 131.638 873.506 142.93 898.505 143.808C919.408 144.551 940.891 138.407 960.937 143.082C972.9 145.867 983.255 152.552 988.937 161.143C994.618 169.735 995.561 180.149 991.466 189.264C987.393 198.379 978.817 205.772 970.842 213.165C962.845 220.558 954.976 228.609 952.811 238.112C950.624 247.598 956.027 258.806 967.754 262.064C988.465 267.786 1007.05 268.427 1029.03 267.853C1051 267.279 1073.22 265.524 1094.87 268.562C1124.91 272.765 1152.54 286.521 1169.91 305.916C1187.3 325.327 1194.24 350.139 1188.77 373.365" stroke="#1B94AC" stroke-width="1.86533" stroke-miterlimit="10"/>
<path d="M875.565 362.9C846.278 347.556 831.764 317.157 841.133 290.792C845.485 278.504 854.318 267.515 861.972 256.223C869.648 244.948 876.38 232.744 875.972 220.001C875.565 207.257 866.26 193.939 850.588 190.023C835.066 186.158 817.742 192.504 807.258 202.159C796.775 211.814 791.65 224.187 786.784 236.205C781.917 248.223 776.793 260.595 766.309 270.25C749.265 285.947 719.099 291.619 693.929 285.171C668.759 278.723 649.421 261.186 643.075 241.285C636.728 221.385 642.817 199.661 657.439 182.563C666.401 172.098 678.278 163.32 687.862 153.21C697.467 143.082 704.906 130.828 702.912 118.371C700.554 103.653 685.932 92.2085 673.004 81.2539C660.076 70.2993 647.341 56.7454 650.107 42.0774C652.851 27.5107 670.11 17.1806 687.626 11.4417C705.142 5.68594 724.373 2.7996 740.41 -5.1336C756.447 -13.0668 768.796 -28.5281 762.085 -42.3015" stroke="#1B94AC" stroke-width="1.86533" stroke-miterlimit="10"/>
<path d="M540.872 6.14185C556.995 30.2959 585.338 47.8671 609.436 67.6495C633.534 87.4319 654.888 112.717 651.05 139.74C648.198 159.843 631.583 177.415 611.687 190.53C602.832 196.37 593.013 200.944 583.687 206.244C575.111 211.122 565.678 213.215 555.558 215.984C532.618 222.229 506.29 235.732 521.77 257.27C528.78 267.026 541.773 273.221 554.593 278.301C575.604 286.64 597.73 293.206 618.783 301.46C639.837 309.73 660.119 319.942 674.976 334.121C689.834 348.299 698.774 366.968 694.937 384.978" stroke="#1B94AC" stroke-width="1.86533" stroke-miterlimit="10"/>
<path d="M1300.58 142.509C1278.86 147.015 1254.77 144.18 1235.77 134.845C1216.8 125.528 1203.22 109.864 1199.28 92.7488C1196.62 81.1697 1198.17 69.1517 1194.65 57.7077C1191.13 46.2805 1180.13 34.752 1164.93 34.2625C1154.51 33.9249 1144.65 39.0731 1139.25 45.9767C1133.85 52.8802 1132.35 61.2185 1132.73 69.2868C1133.46 84.5287 1140.73 99.5511 1153.12 111.417C1168.24 125.916 1190.04 135.284 1206.78 148.686C1231.35 168.351 1243.72 196.741 1239.56 223.883C1236.88 241.302 1226.89 259.076 1206.38 268.022C1197.56 271.87 1189.12 272.124 1179.45 273.305C1175.44 273.795 1170.19 274.487 1168.04 277.559C1163.2 284.53 1173.9 293.02 1178.48 298.185C1185.43 306 1190.34 315.486 1194.24 324.432C1202.37 343.067 1205.2 363.102 1202.15 382.632" stroke="#1B94AC" stroke-width="1.86533" stroke-miterlimit="10"/>
<path d="M1173.98 55.5977C1176.43 60.5771 1176.15 66.0628 1176.51 71.3797C1177.52 86.3853 1183.99 101.155 1195.01 113.544C1197.35 116.16 1199.88 119.705 1197.37 122.203C1194.58 124.954 1188.88 123.317 1185.24 121.258C1170.92 113.173 1160.09 101.425 1154.88 88.3264C1150.78 78.0301 1149.8 66.2822 1153.16 55.7497C1156.57 45.0651 1168.86 45.1664 1173.98 55.5977Z" stroke="#1B94AC" stroke-width="1.86533" stroke-miterlimit="10"/>
<path d="M1306.35 153.547C1293.01 158.983 1276.57 158.02 1262.55 153.767C1248.53 149.497 1236.43 142.255 1224.54 135.132C1220.85 132.921 1215.94 130.609 1211.84 132.347C1208.43 133.782 1207.62 137.479 1208.99 140.28C1210.36 143.082 1213.28 145.226 1216.07 147.319C1232.92 160.063 1247.11 175.22 1255.02 192.386C1262.93 209.553 1264.24 228.829 1256.22 245.961C1248.21 263.093 1230.32 277.727 1207.79 283.112C1202.05 284.479 1195.38 285.644 1192.42 289.678C1188.35 295.214 1193.9 301.831 1198.47 307.131C1219.03 331.015 1222.28 363.22 1206.78 389.282" stroke="#1B94AC" stroke-width="1.86533" stroke-miterlimit="10"/>
<path d="M1315.33 80.8659C1299.72 87.9214 1277.04 82.807 1268.79 70.3502C1262.42 60.7459 1264.41 49.285 1263.79 38.4992C1262.21 11.5601 1241.47 -14.5182 1210.39 -26.7387C1191.73 -34.0812 1170.42 -36.4274 1149.5 -36.6299C1130.5 -36.8156 1110.54 -35.0602 1094.91 -26.6881C1082.56 -20.0715 1074.12 -9.91022 1067.94 0.673015C1051.75 28.4392 1049.68 60.9485 1062.26 89.8119C1063.63 92.9851 1065.22 96.2597 1064.62 99.5849C1064.02 102.893 1060.37 106.168 1056.09 105.78C1051.88 105.391 1049.38 101.982 1045.69 100.361C1035.46 95.8884 1020.75 106.32 1011.79 100.463C1008 97.9814 1007.46 93.4578 1009 89.795C1010.55 86.1322 1013.76 83.0602 1016.62 79.9038C1035.68 58.6529 1038.72 29.874 1026.54 5.80428C1014.34 -18.2654 987.886 -37.3726 956.799 -46.8925" stroke="#1B94AC" stroke-width="1.86533" stroke-miterlimit="10"/>
<path d="M1222.82 -31.1949C1244 -26.013 1261.61 -12.7291 1268.77 3.54236C1272.37 11.695 1273.44 20.354 1275.76 28.7767C1278.09 37.1994 1281.95 45.7403 1289.93 51.7661C1297.88 57.792 1310.81 60.5601 1320.52 56.3235" stroke="#1B94AC" stroke-width="1.86533" stroke-miterlimit="10"/>
<path d="M1285.3 22.4809C1284.87 -1.41997 1269.39 -24.8989 1244.62 -39.2124" stroke="#1B94AC" stroke-width="1.86533" stroke-miterlimit="10"/>
<path d="M1084.94 -43.3142C1073.71 -40.6135 1065.15 -33.2036 1060.27 -24.9159C1055.38 -16.6283 1053.68 -7.46287 1052.27 1.56748C1051.75 4.90955 1049.91 9.23062 1045.54 9.11246C1041.44 9.01119 1039.81 5.06147 1039.06 1.9557C1033.3 -22.4853 1016.1 -45.2215 991.381 -61.1217" stroke="#1B94AC" stroke-width="1.86533" stroke-miterlimit="10"/>
<path d="M1040.41 65.4551C1041.33 64.358 1043.59 63.8853 1044.68 64.8643C1045.22 65.3538 1045.32 66.0121 1045.41 66.6535C1045.9 70.2319 1045.82 74.2323 1046.91 77.7431C1047.96 81.0852 1050.64 83.0094 1051.9 86.2671C1052.65 88.2082 1052.25 90.5713 1050.23 91.871C1047.21 93.829 1038.01 89.8624 1033.3 90.7907C1031.22 91.1958 1029.18 91.8879 1027.01 91.8879C1024.87 91.8879 1022.47 90.9089 1022.17 89.2716C1021.74 87.1111 1024.78 85.6595 1027.16 84.4948C1031.62 82.3174 1035.18 79.0766 1037.35 75.3632C1039.04 72.46 1038.31 67.9701 1040.41 65.472V65.4551Z" stroke="#1B94AC" stroke-width="1.86533" stroke-miterlimit="10"/>
<path d="M860.45 40.1532C870.376 27.747 886.156 18.3454 903.95 13.6361C921.681 8.92679 951.761 7.62709 962.03 22.8521C978.903 47.867 924.704 61.5391 914.692 80.3763C907.466 93.9809 916.364 109.746 929.099 120.701C932.636 123.739 936.796 127.503 935.188 131.402C933.344 135.875 925.604 136.618 919.601 136.027C892.609 133.377 867.911 119.553 856.205 100.564C844.499 81.5747 846.149 58.0451 860.471 40.1532H860.45Z" stroke="#1B94AC" stroke-width="1.86533" stroke-miterlimit="10"/>
<path d="M942.927 38.0773C939.454 52.2051 902.771 67.3457 897.197 78.5366C891.13 90.6727 898.741 104.429 909.117 114.692C910.725 116.278 912.505 118.084 912.162 120.076C911.754 122.49 908.217 123.992 905.065 123.773C901.935 123.553 899.191 122.085 896.725 120.566C870.976 104.497 860.921 75.0426 873.035 51.243C878.03 41.4193 886.584 32.524 898.119 26.8526C908.153 21.907 924.254 19.6115 934.587 25.3504C941.877 29.4014 944.021 33.6887 942.949 38.0941L942.927 38.0773Z" stroke="#1B94AC" stroke-width="1.86533" stroke-miterlimit="10"/>
<path d="M924.404 41.6556C923.611 44.2887 921.638 46.618 919.43 48.711C915.571 52.4245 910.94 55.6146 906.352 58.7879C900.692 62.7039 895.032 66.603 889.372 70.5189C888.257 71.2954 886.756 72.1224 885.384 71.6498C884.012 71.1772 883.819 69.7425 883.883 68.5778C884.526 57.9271 890.165 47.5801 899.213 39.5625C902.836 36.3555 908.582 30.9711 914.67 31.0723C921.574 31.1905 925.819 36.845 924.361 41.6556H924.404Z" stroke="#1B94AC" stroke-width="1.86533" stroke-miterlimit="10"/>
<path d="M730.74 -36.5625C735.95 -28.3255 731.405 -17.9785 723.001 -11.5138C714.596 -5.04912 703.126 -1.6564 691.892 1.31433C680.679 4.28506 669.08 7.10387 659.754 12.7753C648.262 19.7801 641.273 30.7685 640.051 42.0437C638.829 53.319 643.138 64.7631 651.05 74.2829C657.717 82.3174 666.786 88.9678 674.462 96.4284C682.158 103.889 688.676 112.7 688.826 122.253C688.998 134.356 679.114 144.973 669.659 154.611C667.794 156.518 665.393 158.611 662.305 158.426C659.475 158.257 657.439 156.062 657.096 153.868C656.753 151.691 657.696 149.53 658.575 147.437C664.214 134.001 667.815 119.367 662.563 105.847C655.102 86.6216 632.011 74.1141 614.259 59.463C583.922 34.4312 567.457 -0.339834 569.687 -34.6045" stroke="#1B94AC" stroke-width="1.92965" stroke-miterlimit="10"/>
<path d="M703.083 -32.6296C703.984 -25.4391 698.302 -18.5186 690.841 -14.1638C683.38 -9.80899 674.311 -7.49654 665.478 -5.0997C656.645 -2.71974 647.662 -0.0697152 640.716 4.7746C632.762 10.311 628.216 18.3623 626.694 26.5487C625.493 32.9459 626.18 39.073 627.723 45.3352C628.152 47.1075 630.618 48.441 629.074 50.3146C623.928 56.6105 611.279 43.0397 609.135 40.1871C589.282 13.7037 585.294 -19.5651 598.565 -48.4116" stroke="#1B94AC" stroke-width="1.92965" stroke-miterlimit="10"/>
<path d="M676.391 -32.714C673.926 -26.8232 667.279 -22.5528 660.29 -19.5314C653.301 -16.51 645.668 -14.3833 639.043 -10.923C630.982 -6.72011 624.636 -0.609853 621.077 6.37812C619.512 9.467 616.854 13.4842 612.694 12.7078C609.907 12.1845 608.642 9.70331 608.02 7.5259C603.39 -8.40802 608.964 -25.9286 622.642 -38.3685" stroke="#1B94AC" stroke-width="1.92965" stroke-miterlimit="10"/>
<path d="M858.049 -35.6849C858.049 -35.6849 816.778 -24.9836 787.62 16.1678C758.462 57.3192 765.451 98.5888 762.278 105.796C759.105 113.004 749.715 97.019 742.189 85.8956C734.664 74.7554 711.509 66.4171 715.883 51.9517C720.257 37.4862 792.915 24.8944 801.062 -29.3215" stroke="#1B94AC" stroke-width="1.92965" stroke-miterlimit="10"/>
<path d="M762.75 38.9043C763.479 40.3559 763.114 41.9763 762.75 43.5123C759.812 55.5133 756.897 67.5313 753.959 79.5324C751.43 79.718 749.35 77.8613 748.621 75.9878C747.892 74.0973 747.999 72.0718 747.249 70.1813C745.276 65.2357 737.837 62.2819 736.679 57.1844C735.8 53.3866 738.759 49.7069 742.061 46.8206C744.805 44.4069 759.491 32.3551 762.771 38.9043H762.75Z" stroke="#1B94AC" stroke-width="1.92965" stroke-miterlimit="10"/>
<path d="M778.293 135.875C777.35 132.432 776.921 128.161 772.762 126.726C769.675 125.663 765.901 126.963 763.843 129.039C761.785 131.115 761.035 133.765 760.348 136.331C756.875 149.53 753.681 163.574 742.232 173.752C734.257 180.841 723.087 185.28 714.146 191.644C702.547 199.914 695.001 211.51 693.307 223.647C692.042 232.879 695.194 243.631 705.742 248.054C714.682 251.818 726.195 249.674 734.385 244.982C745.126 238.821 751.365 229.048 755.503 219.241C759.641 209.417 762.107 199.172 767.316 189.652C772.526 180.149 781.123 171.119 793.515 167.27C797.139 166.139 801.019 165.481 804.342 163.894C815.62 158.561 807.623 152.366 798.832 151.218C788.327 149.851 780.523 144.179 778.25 135.841L778.293 135.875Z" stroke="#1B94AC" stroke-width="1.92965" stroke-miterlimit="10"/>
<path d="M562.569 86.7735C576.784 96.0739 591.212 106.91 594.557 121.055C596.722 130.17 593.721 139.943 586.496 147.336C579.27 154.729 567.95 159.641 556.009 160.552" stroke="#1B94AC" stroke-width="1.92965" stroke-miterlimit="10"/>
<path d="M571.767 108.227C579.035 114 581.907 122.844 579.035 130.592C576.14 138.322 567.607 144.635 557.488 146.526" stroke="#1B94AC" stroke-width="1.92965" stroke-miterlimit="10"/>
</g>
</g>
</g>
<path d="M0 18.1572H316.042C338.482 18.1572 359.067 30.5271 369.901 50.1786C382.217 72.5207 398.038 100.508 406.761 113.12C422.434 135.783 435.563 140.162 435.563 140.162H0V18.1572Z" fill="white"/>
<g clip-path="url(#clip1_16893_3693)">
<path fill-rule="evenodd" clip-rule="evenodd" d="M278.453 87.4122C279.222 88.1183 279.743 88.9168 280.179 89.7745C280.69 90.769 281.008 91.8263 281.085 92.9391C281.24 95.1129 281.377 97.2904 280.922 99.4531C280.701 100.499 280.309 101.457 279.562 102.27C278.593 103.324 277.662 104.418 276.73 105.505C276.564 105.705 276.423 105.956 276.349 106.204C276.22 106.684 276.405 106.936 276.908 107.039C276.93 107.043 276.956 107.047 276.978 107.05C277.632 107.176 277.795 107.335 277.691 107.734C277.555 108.267 276.904 108.666 276.442 108.503C276.087 108.378 275.802 108.141 275.739 107.793C275.651 107.294 275.54 106.766 275.636 106.281C275.754 105.642 276.02 105.017 276.305 104.426C276.73 103.538 277.214 102.681 277.706 101.827C278.257 100.858 278.42 99.8006 278.523 98.7248C278.553 98.4439 278.449 98.259 278.205 98.1222C277.577 97.7784 276.919 97.5677 276.19 97.7193C275.994 97.7599 275.799 97.8043 275.61 97.8597C273.943 98.3662 272.889 99.601 271.78 100.917C272.028 100.984 272.183 101.039 272.342 101.065C272.859 101.154 273.377 101.25 273.902 101.313C275.015 101.449 276.061 101.339 276.893 100.226C276.93 100.503 277.011 100.673 276.956 100.78C276.327 102.085 275.673 103.379 274.996 104.74C274.342 104.444 273.736 104.17 273.126 103.897C271.898 103.346 270.619 103.265 269.314 103.509C268.711 103.62 268.175 103.897 267.765 104.352C267.403 104.747 267.192 105.172 267.366 105.753C267.495 106.193 267.51 106.67 267.514 107.132C267.514 107.32 267.399 107.553 267.259 107.697C266.985 107.967 266.612 107.904 266.471 107.549C266.357 107.265 266.308 106.928 266.327 106.625C266.371 105.83 266.649 105.095 267.055 104.407C267.584 103.52 268.113 102.629 268.649 101.742C268.989 101.176 269.133 100.573 269.096 99.9152C269.074 99.4827 268.922 99.1611 268.416 99.028C268.09 99.4162 267.857 99.93 267.299 100.115C266.837 98.8468 267.595 97.4642 269.181 96.7396C269.303 95.8856 268.885 95.2386 268.264 94.6582C267.551 93.9816 266.778 94.1369 265.99 94.5584C265.928 93.2016 266.726 92.4215 268.737 91.83C268.675 89.7117 269.503 87.8595 270.922 86.0628C270.405 86.17 270.065 86.3253 269.747 86.2883C269.229 86.2328 268.73 86.0628 268.227 85.926C267.935 85.8483 267.662 85.719 267.373 85.6487C266.848 85.523 266.608 85.6339 266.312 86.0923C266.168 86.3142 266.027 86.5397 265.865 86.8096C265.721 86.0813 265.935 85.2162 266.416 84.5877C266.963 83.8742 267.691 83.4121 268.589 83.2568C268.867 83.2087 269.192 83.2679 269.458 83.3566C270.028 83.5414 270.593 83.7596 271.137 83.9999C271.628 84.2143 272.102 84.1958 272.593 84.0221C273.1 83.8446 273.614 83.6893 274.187 83.6413C274.079 83.7411 273.98 83.8409 273.869 83.9333C272.113 85.3862 271.277 87.2458 271.285 89.4861C271.292 91.7672 271.225 94.0445 271.303 96.3181C271.373 98.174 270.856 99.845 270.028 101.468C269.906 101.697 269.791 101.93 269.673 102.167C269.747 102.185 269.78 102.204 269.787 102.196C271.041 100.825 272.116 99.3348 272.205 97.4346C272.323 94.8911 272.331 92.3439 272.397 89.7967C272.412 89.2348 272.449 88.6691 272.523 88.1146C272.826 85.7633 274.73 83.8742 277.281 83.4527C277.133 83.6191 277.048 83.7485 276.93 83.8372C275.277 85.1274 274.556 86.8169 274.63 88.8651C274.66 89.6932 274.634 90.5213 274.634 91.4529C275.288 91.1017 275.588 90.5546 276.002 90.1331C276.42 89.7154 276.789 89.2495 277.189 88.8096C277.595 88.3549 278.009 87.9038 278.446 87.4195M274.656 97.5307C276.054 97.0316 277.325 97.246 278.575 97.6379C278.778 96.7691 278.708 94.6101 278.457 94.0667C277.233 94.7506 275.972 94.6249 274.656 94.0778V97.5307ZM276.834 90.0259C276.102 90.9021 275.444 91.6673 274.819 92.4548C274.49 92.8689 274.601 93.3679 275.067 93.6489C276.068 94.2626 277.081 94.2737 278.109 93.6859C278.471 93.4789 278.612 93.2201 278.446 92.8393C278.12 92.074 277.799 91.3087 277.433 90.5657C277.34 90.3734 277.089 90.2477 276.834 90.0259" fill="#2E358F"/>
<path fill-rule="evenodd" clip-rule="evenodd" d="M197.453 83.4564C197.08 83.7854 196.824 84.0109 196.569 84.2401C195.335 85.3492 194.736 86.7245 194.736 88.3548C194.736 89.3493 194.736 90.3475 194.81 91.3826C195.327 91.0462 195.671 90.5841 196.063 90.1627C196.481 89.7079 196.887 89.2421 197.301 88.7837C197.697 88.3438 198.092 87.9075 198.525 87.4269C198.695 87.5896 198.847 87.7116 198.969 87.8558C200.407 89.5268 201.154 91.4603 201.216 93.6452C201.246 94.647 201.342 95.6526 201.305 96.6545C201.264 97.6268 201.139 98.6065 200.969 99.5677C200.78 100.644 200.292 101.594 199.523 102.422C198.566 103.453 197.653 104.529 196.743 105.597C196.588 105.779 196.473 106.019 196.418 106.248C196.311 106.695 196.495 106.932 196.954 107.036C197.002 107.047 197.054 107.05 197.102 107.058C197.704 107.176 197.841 107.305 197.771 107.712C197.686 108.182 197.128 108.614 196.691 108.54C196.255 108.466 195.982 108.2 195.819 107.808C195.593 107.239 195.582 106.647 195.749 106.078C195.919 105.494 196.144 104.917 196.414 104.37C196.847 103.486 197.335 102.629 197.808 101.767C198.333 100.817 198.529 99.7932 198.588 98.7322C198.606 98.4179 198.507 98.2257 198.226 98.0815C197.59 97.7488 196.917 97.5196 196.207 97.7377C195.567 97.9373 194.928 98.1702 194.351 98.4956C193.335 99.0649 192.676 100.008 191.822 100.895C192.074 100.965 192.225 101.028 192.388 101.058C192.806 101.128 193.235 101.165 193.649 101.246C194.895 101.479 196.048 101.416 197.009 100.196C197.031 100.499 197.098 100.669 197.046 100.784C196.407 102.085 195.752 103.376 195.068 104.74C194.444 104.459 193.848 104.211 193.275 103.934C192.055 103.346 190.776 103.283 189.468 103.49C188.891 103.586 188.37 103.841 187.955 104.244C187.504 104.677 187.231 105.143 187.449 105.819C187.589 106.252 187.567 106.74 187.567 107.206C187.567 107.568 187.275 107.882 186.994 107.867C186.676 107.849 186.495 107.623 186.458 107.342C186.418 107.006 186.347 106.64 186.44 106.333C186.636 105.657 186.869 104.973 187.19 104.348C187.656 103.453 188.218 102.61 188.728 101.738C189.087 101.128 189.279 100.481 189.146 99.7673C189.089 99.4716 188.874 99.2251 188.499 99.0279C188.181 99.4383 187.911 99.9189 187.364 100.13C186.976 98.71 187.641 97.527 189.227 96.7395C189.375 95.8633 188.95 95.2053 188.318 94.6323C187.615 93.9964 186.865 94.1258 186.103 94.5361C185.9 93.3161 186.898 92.3069 188.791 91.8522C188.75 89.7486 189.556 87.889 190.861 86.2143C190.758 86.1552 190.706 86.1034 190.68 86.1145C189.874 86.4805 189.116 86.2365 188.355 85.9518C188.1 85.8557 187.841 85.7559 187.578 85.6856C186.898 85.5119 186.691 85.6006 186.336 86.1662C186.207 86.3733 186.066 86.5766 185.933 86.7799C185.93 86.791 185.889 86.7799 185.859 86.7762C185.73 84.9943 187.02 83.497 188.806 83.2309C189.039 83.1939 189.301 83.2715 189.53 83.3492C190.096 83.5451 190.662 83.7521 191.209 83.9961C191.704 84.2143 192.17 84.1958 192.665 84.022C193.172 83.8409 193.686 83.6819 194.262 83.6338C194.085 83.7928 193.904 83.9481 193.73 84.107C192.296 85.4195 191.423 87.0018 191.394 88.9501C191.36 91.4011 191.301 93.8485 191.371 96.2959C191.427 98.1481 190.946 99.8302 190.107 101.446C189.996 101.66 189.896 101.875 189.867 102.163C189.93 102.122 190.015 102.096 190.059 102.037C190.787 101.157 191.416 100.222 191.874 99.1758C192.259 98.2996 192.333 97.3717 192.355 96.4438C192.418 93.9224 192.44 91.4011 192.514 88.8798C192.606 85.6561 194.743 84.1255 197.065 83.4638C197.131 83.4453 197.205 83.4638 197.442 83.4638M198.688 97.6638V94.1369C197.974 94.2884 197.346 94.5214 196.717 94.5251C196.07 94.5251 195.416 94.3069 194.747 94.1849V97.5122C196.1 97.0575 197.375 97.1942 198.688 97.6638M196.898 90.0407C196.174 90.9131 195.482 91.7117 194.832 92.5398C194.569 92.8836 194.71 93.379 195.109 93.623C196.104 94.233 197.113 94.2995 198.152 93.7043C198.507 93.5047 198.636 93.2607 198.547 92.8651C198.344 91.9963 197.945 91.2089 197.46 90.4695C197.349 90.3068 197.131 90.2144 196.902 90.0407" fill="#2E358F"/>
<path fill-rule="evenodd" clip-rule="evenodd" d="M223.335 102.059C223.553 101.945 223.705 101.871 223.96 101.738C223.96 101.963 224.019 102.148 223.949 102.248C223.402 103.006 222.833 103.749 222.271 104.492C221.624 104.337 221.224 103.974 221.091 103.416C220.914 102.658 220.725 101.882 220.707 101.109C220.659 98.6839 220.688 96.2587 220.692 93.8335C220.692 93.0202 220.385 92.3769 219.661 91.8372C219.184 92.4731 218.733 93.0535 218.319 93.6598C218.215 93.804 218.211 94.0332 218.211 94.2217C218.204 96.4547 218.193 98.6839 218.219 100.909C218.222 101.205 218.363 101.516 218.492 101.8C218.611 102.067 218.799 102.3 219.003 102.617C218.404 103.25 217.816 103.871 217.176 104.547C216.437 103.989 216.015 103.231 215.387 102.625C215.989 102.019 216.115 101.327 216.111 100.566C216.093 98.4067 216.13 96.2513 216.089 94.0997C216.075 93.5008 215.923 92.8871 215.716 92.3178C215.513 91.7485 215.202 91.7448 214.806 92.2143C214.792 92.2365 214.773 92.2512 214.762 92.2734C213.949 93.2839 213.542 94.4337 213.542 95.7227C213.542 97.2421 213.568 98.7616 213.531 100.277C213.516 100.998 213.683 101.63 214.1 102.215C214.174 102.311 214.222 102.422 214.315 102.588C213.734 103.242 213.154 103.897 212.518 104.61C211.923 103.878 211.383 103.216 210.888 102.614C210.888 102.499 210.877 102.462 210.891 102.451C211.524 101.749 211.509 100.902 211.498 100.037C211.464 97.7079 211.464 95.3789 211.464 93.0535C211.468 92.5914 211.379 92.1847 210.991 91.815C210.821 91.8778 210.625 91.9518 210.329 92.0664C210.341 91.8557 210.293 91.6745 210.366 91.571C210.932 90.802 211.531 90.0479 212.171 89.2197C213.18 90.1846 213.409 91.4009 213.679 92.7725C214.733 91.5636 215.509 90.3177 216.492 89.1606C217.601 90.0885 217.893 91.3566 218.289 92.7134C219.258 91.5858 219.956 90.3732 220.899 89.2234C221.406 89.9591 221.879 90.6394 222.415 91.4157C222.759 90.9795 223.058 90.6061 223.424 90.1403C223.502 90.3806 223.587 90.5322 223.579 90.6689C223.572 90.8057 223.468 90.9388 223.402 91.0682C222.943 91.9629 222.751 92.8945 222.766 93.9038C222.807 96.0369 222.777 98.1701 222.777 100.3C222.777 100.921 222.881 101.512 223.332 102.063" fill="#2E358F"/>
<path fill-rule="evenodd" clip-rule="evenodd" d="M236.803 102.03C236.98 101.952 237.15 101.875 237.306 101.808C237.539 101.993 237.483 102.167 237.35 102.34C236.818 103.05 236.285 103.76 235.745 104.481C235.073 104.355 234.677 103.949 234.537 103.379C234.359 102.673 234.204 101.941 234.193 101.216C234.152 98.7913 234.178 96.3661 234.174 93.9409C234.174 93.0351 233.875 92.4473 233.095 91.8558C232.644 92.4621 232.182 93.061 231.76 93.6895C231.649 93.8559 231.664 94.1147 231.664 94.3291C231.657 96.4844 231.675 98.6397 231.649 100.799C231.642 101.309 231.878 101.682 232.126 102.078C232.463 102.607 232.459 102.636 232.026 103.091C231.575 103.571 231.106 104.045 230.573 104.596C229.971 103.904 229.427 103.279 228.865 102.632C229.483 101.974 229.557 101.22 229.546 100.414C229.516 98.2811 229.531 96.1517 229.542 94.0185C229.542 93.4196 229.45 92.8466 229.187 92.3068C228.917 91.7634 228.64 91.7412 228.259 92.2107C228.241 92.2292 228.226 92.2477 228.211 92.2699C227.395 93.3075 226.987 94.4819 226.987 95.7931C226.987 97.2608 227.013 98.7321 226.98 100.204C226.962 100.947 227.113 101.608 227.557 102.211C227.627 102.307 227.664 102.425 227.749 102.603C227.191 103.235 226.621 103.878 225.978 104.61C225.39 103.889 224.839 103.217 224.244 102.488C225.091 101.738 224.984 100.769 224.973 99.8117C224.943 97.5122 224.917 95.209 224.906 92.9058C224.906 92.488 224.795 92.1368 224.466 91.8041C224.285 91.8706 224.089 91.9408 223.83 92.037C223.808 91.8891 223.719 91.7153 223.775 91.6451C224.374 90.8355 224.995 90.0406 225.645 89.2051C226.633 90.1959 226.877 91.3937 227.113 92.6507C227.623 92.3993 227.804 91.9224 228.104 91.5601C228.418 91.1793 228.699 90.7726 228.995 90.3807C229.291 89.9889 229.586 89.6044 229.926 89.157C231.073 90.0739 231.35 91.3493 231.738 92.6618C232.333 92.1368 232.651 91.5009 233.073 90.9501C233.483 90.4066 233.886 89.8447 234.348 89.2162C234.873 89.9667 235.346 90.6432 235.886 91.4196C236.226 90.9833 236.514 90.6099 236.795 90.2402C237.069 90.3512 237.099 90.5249 237.014 90.7319C236.951 90.8909 236.869 91.0425 236.795 91.1978C236.426 91.9852 236.222 92.7948 236.237 93.6784C236.274 95.9077 236.252 98.1369 236.252 100.366C236.252 100.961 236.344 101.534 236.803 102.026" fill="#2E358F"/>
<path fill-rule="evenodd" clip-rule="evenodd" d="M252.752 90.9575C253.025 90.6802 253.24 90.4621 253.532 90.1589C253.498 90.8096 253.45 91.3382 253.45 91.8632C253.443 95.0463 253.435 98.2294 253.458 101.412C253.461 101.941 253.288 102.233 252.84 102.533C251.931 103.135 251.095 103.841 250.171 104.547C249.591 104.093 249.014 103.546 248.352 103.139C247.702 102.743 246.962 102.492 246.171 102.137C246.881 101.183 246.814 100.126 246.811 99.076C246.807 96.8467 246.825 94.6211 246.799 92.3956C246.792 91.9187 246.921 91.6192 247.372 91.4085C247.824 91.2051 248.238 90.9205 248.718 90.6432C248.585 90.4473 248.489 90.2809 248.371 90.1404C247.72 89.401 247.062 88.6543 246.396 87.926C246.164 87.6746 246.056 87.4121 246.071 87.0683C246.097 86.3474 246.075 85.6228 246.075 84.8981C246.13 84.876 246.178 84.8501 246.234 84.8316C248.397 86.8723 250.567 88.9093 252.752 90.9648M251.276 101.937C251.317 101.704 251.347 101.608 251.347 101.516C251.35 98.9207 251.354 96.3254 251.347 93.7302C251.347 93.5638 251.328 93.3605 251.232 93.2459C250.703 92.6063 250.153 91.9852 249.628 91.3826C248.981 91.634 248.836 92.0296 248.844 92.5841C248.873 94.2477 248.855 95.9114 248.855 97.5787V100.074C248.855 100.318 248.833 100.57 249.099 100.721C249.79 101.106 250.478 101.494 251.273 101.937" fill="#2E358F"/>
<path fill-rule="evenodd" clip-rule="evenodd" d="M303.562 108.566C302.187 108.596 301.94 107.427 301.185 106.799C300.731 107.228 300.361 107.804 299.618 107.93C300.527 105.435 300.679 104.462 300.453 102.459C300.069 102.366 299.666 102.27 299.215 102.163C299.204 101.923 299.189 101.686 299.185 101.553C299.57 101.272 299.91 101.08 300.176 100.813C300.483 100.495 300.49 100.063 300.49 99.6378C300.483 97.6562 300.49 95.671 300.483 93.6894C300.483 92.9796 300.398 92.2772 299.891 91.645C299.67 91.767 299.47 91.8779 299.281 91.9814C299.004 91.7892 299.119 91.6228 299.241 91.4564C299.777 90.717 300.313 89.9814 300.901 89.1754C302.113 89.9185 302.213 91.1792 302.586 92.4657C303.404 91.3344 304.147 90.3104 304.945 89.205C305.145 89.4046 305.333 89.5562 305.474 89.7373C306.483 91.0202 307.041 92.462 307.045 94.0887C307.052 96.366 307.052 98.6433 307.041 100.921C307.038 101.146 306.982 101.431 306.838 101.59C305.995 102.518 305.119 103.42 304.213 104.366C303.725 104.059 303.208 103.73 302.605 103.346C302.213 105.246 302.457 106.932 303.559 108.566M303.88 91.8853C303.256 92.4768 302.879 93.1053 302.546 93.767C302.487 93.889 302.468 94.0517 302.468 94.1922C302.461 96.1996 302.457 98.2071 302.476 100.215C302.476 100.381 302.572 100.636 302.701 100.703C303.407 101.05 304.136 101.353 304.956 101.719C304.975 101.353 305.008 101.117 305.008 100.88C305.008 98.6766 304.997 96.4732 305.012 94.2698C305.023 93.3123 304.542 92.6099 303.88 91.8853Z" fill="#2E358F"/>
<path fill-rule="evenodd" clip-rule="evenodd" d="M286.161 104.481C284.808 103.704 283.761 102.547 282.238 102.085C282.264 101.967 282.264 101.867 282.312 101.789C282.7 101.102 282.771 100.355 282.771 99.5898C282.771 97.2422 282.771 94.8946 282.771 92.5434V91.7301C284.102 91.2494 285.015 90.3141 285.898 89.242C286.919 90.2808 288.083 91.0572 289.477 91.5304V92.2181C289.477 95.2754 289.466 98.3328 289.492 101.39C289.492 101.886 289.344 102.2 288.926 102.481C287.983 103.12 287.078 103.812 286.164 104.477M287.248 102.115C287.314 101.956 287.37 101.893 287.37 101.83C287.377 99.1129 287.377 96.3993 287.388 93.6857C287.388 93.3715 287.225 93.1977 286.97 93.0499C286.408 92.7319 285.858 92.3918 285.299 92.0702C285.185 92.0073 285.041 91.9962 284.848 91.9482C284.848 94.7763 284.848 97.538 284.856 100.3C284.856 100.455 284.915 100.677 285.029 100.751C285.747 101.216 286.486 101.653 287.251 102.115" fill="#2E358F"/>
<path fill-rule="evenodd" clip-rule="evenodd" d="M290.923 104.37C290.586 103.974 290.838 103.749 290.945 103.531C291.588 102.204 292.254 100.888 292.912 99.564C293.026 99.3237 293.141 99.0797 293.289 98.7655C292.782 98.3292 292.294 97.8782 291.773 97.4752C291.403 97.1906 291.252 96.8689 291.259 96.4105C291.285 95.087 291.281 93.7635 291.259 92.4437C291.255 92.037 291.414 91.7967 291.725 91.5231C292.487 90.8577 293.174 90.1146 293.988 89.3013C294.62 89.6192 295.37 89.9778 296.106 90.3808C296.561 90.6285 296.978 90.7024 297.44 90.4141C298.058 90.0259 298.243 89.3346 297.877 88.6987C297.792 88.5508 297.651 88.4177 297.611 88.2624C297.551 88.0332 297.492 87.7781 297.555 87.5637C297.662 87.1681 298.039 87.1164 298.287 87.4417C298.387 87.5711 298.457 87.7412 298.509 87.9001C298.742 88.6617 298.668 89.4048 298.32 90.1146C297.969 90.8429 297.588 91.5638 297.226 92.2884C296.86 93.013 296.501 93.7376 296.102 94.5436C296.638 95.0057 297.163 95.49 297.725 95.9336C298.069 96.2072 298.195 96.514 298.187 96.9466C298.169 98.4882 298.169 100.034 298.187 101.575C298.195 102.019 298.036 102.266 297.659 102.522C297.023 102.947 296.45 103.472 295.858 103.96C295.666 104.119 295.496 104.289 295.27 104.496C293.858 103.486 292.413 103.117 290.926 104.374M296.213 102.119C296.246 102.067 296.294 102.034 296.294 101.997C296.302 100.847 296.313 99.7008 296.306 98.5547C296.306 98.4217 296.25 98.2516 296.154 98.1592C295.755 97.7673 295.337 97.3939 294.915 97.0094C294.331 97.7932 292.875 100.836 292.827 101.305C293.418 101.339 294.036 101.29 294.601 101.424C295.163 101.56 295.677 101.878 296.213 102.119M296.387 92.7616C295.758 92.6877 295.237 92.6692 294.738 92.5583C294.246 92.4474 293.781 92.2478 293.215 92.0518C293.215 93.172 293.207 94.196 293.219 95.2164C293.219 95.3495 293.278 95.5232 293.374 95.6083C293.71 95.9114 294.08 96.185 294.494 96.5214C295.167 95.2164 295.792 94.0149 296.387 92.7616" fill="#2E358F"/>
<path fill-rule="evenodd" clip-rule="evenodd" d="M203.176 104.499C201.797 103.194 201.279 101.675 201.483 99.9594C201.686 98.2182 202.163 96.5398 203.324 95.1349C203.545 94.8687 203.505 94.61 203.427 94.3105C203.12 93.1497 202.836 91.9814 202.521 90.7466C203.656 90.669 204.533 90.1588 205.242 89.2642C206.218 89.778 207.18 90.2808 208.133 90.7799C208.381 90.5803 208.584 90.4065 208.803 90.2439C208.828 90.2217 208.891 90.2439 208.987 90.2549C208.803 90.8132 208.607 91.3566 208.444 91.9149C208.355 92.218 208.285 92.536 208.281 92.8465C208.255 95.4676 208.252 98.0888 208.244 100.71C208.241 101.231 208.278 101.741 208.751 102.133C208.803 102.126 208.88 102.133 208.939 102.1C209.087 102.033 209.242 101.837 209.372 102.078C209.42 102.167 209.376 102.362 209.305 102.455C208.814 103.072 208.311 103.686 207.793 104.281C207.531 104.588 207.29 104.607 207.05 104.289C206.821 103.982 206.625 103.619 206.525 103.25C206.351 102.595 206.259 101.915 206.111 101.12C205.05 102.203 204.218 103.379 203.172 104.499M204.056 95.4492C202.806 96.7801 203.161 100.599 204.484 102.259C205.098 101.608 205.656 100.932 206.17 100.226C206.248 100.122 206.226 99.941 206.229 99.7968C206.233 99.0648 206.248 98.3291 206.222 97.6008C206.215 97.4011 206.152 97.1387 206.015 97.0167C205.383 96.4695 204.714 95.963 204.059 95.4492M206.008 96.2218C206.074 96.1959 206.137 96.1664 206.2 96.1405C206.2 95.1016 206.218 94.0628 206.185 93.024C206.178 92.8576 205.978 92.6395 205.812 92.5397C205.087 92.1108 204.344 91.7152 203.601 91.3123C203.49 91.2531 203.346 91.2531 203.198 91.2199C203.183 91.3529 203.154 91.4306 203.168 91.4934C203.401 92.414 203.63 93.3382 203.878 94.2587C203.923 94.4177 203.989 94.6026 204.107 94.7024C204.732 95.22 205.375 95.719 206.008 96.2218Z" fill="#2E358F"/>
<path fill-rule="evenodd" clip-rule="evenodd" d="M327.411 102.163C327.589 102.078 327.741 102.011 328.003 101.886C328.003 102.104 328.062 102.292 327.996 102.385C327.474 103.043 326.927 103.679 326.395 104.326C326.184 104.577 325.947 104.544 325.748 104.351C325.593 104.204 325.43 104.011 325.374 103.812C325.19 103.18 325.038 102.54 324.89 101.897C324.838 101.69 324.831 101.475 324.794 101.139C324.302 101.475 324.055 101.893 323.74 102.24C323.426 102.592 323.138 102.961 322.835 103.32C322.517 103.69 322.195 104.063 321.814 104.51C321.504 104.159 321.215 103.893 321.001 103.579C320.199 102.381 319.936 101.065 320.158 99.6526C320.417 98.0112 320.883 96.4511 321.958 95.1238C322.158 94.8798 322.147 94.6543 322.077 94.3734C321.763 93.1903 321.474 91.9999 321.164 90.7504C322.299 90.6542 323.201 90.1514 323.877 89.2494C324.875 89.7818 325.818 90.2808 326.75 90.7725C327.031 90.5544 327.267 90.3696 327.508 90.181C327.545 90.2069 327.574 90.2328 327.611 90.2587C327.434 90.8095 327.241 91.3566 327.079 91.9149C327.001 92.1922 326.935 92.4879 326.927 92.7763C326.901 95.3715 326.879 97.9631 326.868 100.558C326.864 101.12 326.868 101.693 327.419 102.163M323.031 102.351C323.733 101.616 324.254 100.939 324.776 100.274C324.846 100.185 324.868 100.044 324.868 99.9262C324.875 99.1203 324.883 98.318 324.868 97.5121C324.864 97.3568 324.805 97.1498 324.694 97.0574C324.044 96.5028 323.363 95.9778 322.62 95.3826C321.397 97.8041 321.914 100 323.031 102.351ZM324.65 96.2292C324.742 96.0961 324.794 96.0592 324.794 96.0185C324.805 95.0425 324.809 94.0665 324.824 93.0905C324.827 92.8059 324.679 92.6469 324.439 92.5138C323.718 92.1219 323.008 91.7153 322.291 91.3234C322.166 91.2568 322.021 91.2346 321.844 91.1755C321.829 91.3197 321.792 91.4195 321.818 91.5045C322.055 92.4509 322.291 93.4011 322.55 94.3438C322.591 94.4991 322.702 94.658 322.824 94.7615C323.411 95.2532 324.018 95.7191 324.65 96.2255" fill="#2E358F"/>
<path fill-rule="evenodd" clip-rule="evenodd" d="M245.232 90.3032C244.452 91.6526 244.456 93.1203 244.452 94.5917C244.452 96.6472 244.419 98.7064 244.422 100.762C244.422 101.276 244.478 101.793 244.992 102.159C245.14 102.089 245.288 102.019 245.535 101.901C245.554 102.096 245.635 102.289 245.569 102.37C245.032 103.047 244.474 103.708 243.916 104.366C243.731 104.585 243.495 104.54 243.324 104.366C243.154 104.193 242.981 103.986 242.918 103.768C242.733 103.161 242.596 102.54 242.459 101.919C242.404 101.69 242.385 101.457 242.326 101.047C241.295 102.259 240.374 103.339 239.391 104.488C239.14 104.233 238.892 104.037 238.711 103.793C237.779 102.54 237.472 101.132 237.72 99.6158C237.986 97.9781 238.456 96.4106 239.543 95.0871C239.724 94.8652 239.698 94.6508 239.635 94.4031C239.35 93.3125 239.084 92.2182 238.807 91.1239C238.777 91.013 238.759 90.8947 238.725 90.7321C239.886 90.6766 240.729 90.0999 241.461 89.2681C242.426 89.7782 243.365 90.2773 244.308 90.7801C244.574 90.5657 244.818 90.3735 245.058 90.1812C245.114 90.2219 245.173 90.2662 245.232 90.3032M240.249 95.4531C238.877 96.9984 239.483 100.828 240.629 102.2C240.689 102.17 240.774 102.156 240.814 102.108C241.31 101.523 241.809 100.947 242.275 100.344C242.385 100.207 242.419 99.9818 242.422 99.7933C242.441 99.0613 242.441 98.3293 242.422 97.601C242.415 97.4161 242.371 97.1721 242.249 97.0686C241.598 96.5104 240.918 95.9854 240.249 95.4568M239.443 91.1313C239.38 91.3236 239.343 91.3716 239.354 91.416C239.45 91.8448 239.546 92.2774 239.657 92.7025C240.002 94.0458 240.737 95.1351 241.86 95.9706C241.982 96.0631 242.134 96.1185 242.367 96.2368C242.367 95.1055 242.374 94.0815 242.36 93.0611C242.356 92.9133 242.26 92.7099 242.138 92.6397C241.265 92.1295 240.371 91.6489 239.439 91.135" fill="#2E358F"/>
<path fill-rule="evenodd" clip-rule="evenodd" d="M328.772 84.4359C329.563 84.6799 329.999 85.1087 330.388 85.6744C331.09 85.0089 331.463 83.9959 332.595 83.9479C332.343 84.6947 332.066 85.3675 331.892 86.0625C331.77 86.5579 331.733 87.0792 331.73 87.5894C331.718 91.6523 331.744 95.719 331.707 99.7856C331.7 100.51 331.885 101.061 332.439 101.523C332.591 101.645 332.694 101.826 332.813 101.974C333.049 101.867 333.197 101.797 333.46 101.678C333.467 101.911 333.56 102.159 333.471 102.274C332.887 103.032 332.262 103.767 331.648 104.51C330.75 103.667 329.881 102.847 328.961 101.978C328.983 101.937 329.046 101.808 329.123 101.697C329.541 101.135 329.667 100.495 329.667 99.8226C329.674 95.5119 329.667 91.2013 329.674 86.8943C329.674 86.0293 329.304 85.2936 328.776 84.4396" fill="#2E358F"/>
<path fill-rule="evenodd" clip-rule="evenodd" d="M175.153 84.4584C175.855 84.6765 176.302 85.098 176.679 85.6895C177.386 84.9649 177.789 83.9815 179.02 83.9186C178.927 84.1035 178.883 84.2218 178.809 84.3327C178.247 85.2126 178.033 86.196 178.025 87.2052C178.003 91.5602 178.018 95.9152 178.01 100.27C178.01 100.61 178.095 100.884 178.354 101.121C178.628 101.368 178.868 101.649 179.156 101.945C179.315 101.867 179.463 101.797 179.63 101.719C179.674 101.76 179.77 101.801 179.774 101.853C179.785 102.008 179.818 102.207 179.733 102.311C179.142 103.065 178.521 103.797 177.936 104.503C177.023 103.642 176.147 102.817 175.234 101.96C175.922 101.194 175.97 100.211 175.966 99.1944C175.951 95.2535 175.947 91.3162 175.97 87.3753C175.977 86.4141 175.788 85.5342 175.238 84.732C175.201 84.6802 175.201 84.6063 175.156 84.4621" fill="#2E358F"/>
<path fill-rule="evenodd" clip-rule="evenodd" d="M318.394 102.141C318.687 101.878 318.919 101.671 319.16 101.46C319.4 101.608 319.507 101.775 319.326 102.004C318.616 102.854 317.903 103.701 317.197 104.54C316.361 103.719 315.57 102.943 314.723 102.111C314.753 102.022 314.834 101.849 314.871 101.664C315.012 100.946 315.234 100.226 315.252 99.5084C315.296 97.0869 315.267 94.6617 315.267 92.2365V91.4675C315.015 91.3788 314.79 91.2974 314.487 91.1902C314.557 90.9684 314.59 90.7318 314.698 90.5211C315.503 88.9462 316.32 87.375 317.134 85.8038C317.156 85.7631 317.2 85.7335 317.322 85.6041V89.7706C318.132 89.8002 318.864 89.8297 319.633 89.8593V91.2235H317.422C317.382 91.4564 317.326 91.6154 317.326 91.7743C317.319 94.6654 317.326 97.5527 317.315 100.444C317.315 100.784 317.4 101.061 317.644 101.305C317.903 101.56 318.132 101.845 318.394 102.141" fill="#2E358F"/>
<path fill-rule="evenodd" clip-rule="evenodd" d="M308.886 91.2493C309.455 90.5987 309.954 90.0219 310.516 89.3713C311.06 90.0478 311.566 90.6763 312.039 91.2604C312.032 91.3787 312.047 91.4379 312.025 91.4711C311.503 92.192 311.448 92.9943 311.455 93.8483C311.489 96.2476 311.466 98.6506 311.47 101.05C311.47 101.538 311.463 102.033 311.977 102.377C312.15 102.229 312.317 102.089 312.472 101.956C312.757 102.111 312.808 102.281 312.616 102.503C312.084 103.12 311.555 103.741 311.027 104.362C310.794 104.632 310.502 104.606 310.306 104.385C310.025 104.056 309.744 103.69 309.596 103.29C309.452 102.887 309.426 102.425 309.422 101.989C309.407 99.3678 309.411 96.7467 309.415 94.1256C309.422 93.1459 309.503 92.1625 308.886 91.253" fill="#2E358F"/>
<path fill-rule="evenodd" clip-rule="evenodd" d="M258.722 102.374C258.9 102.233 259.066 102.1 259.24 101.963C259.488 102.1 259.576 102.252 259.373 102.485C258.841 103.106 258.316 103.723 257.787 104.348C257.554 104.625 257.266 104.603 257.077 104.377C256.785 104.026 256.497 103.638 256.338 103.22C256.194 102.843 256.19 102.403 256.186 101.989C256.175 99.3201 256.171 96.6509 256.186 93.9854C256.194 93.05 256.212 92.1258 255.646 91.2385C256.175 90.6359 256.693 90.0407 257.281 89.3679C257.82 90.0407 258.327 90.6655 258.796 91.2496C258.793 91.3605 258.811 91.4234 258.785 91.4566C258.227 92.2182 258.197 93.0796 258.205 93.9743C258.238 96.3033 258.212 98.6287 258.22 100.954C258.22 101.464 258.205 101.989 258.719 102.374" fill="#2E358F"/>
<path fill-rule="evenodd" clip-rule="evenodd" d="M281.909 55.4556C281.92 54.4352 282.726 53.6626 283.758 53.681C284.738 53.6995 285.514 54.4833 285.521 55.4667C285.532 56.4612 284.693 57.3004 283.702 57.293C282.697 57.2856 281.895 56.4649 281.909 55.4519" fill="#2E358F"/>
<path fill-rule="evenodd" clip-rule="evenodd" d="M171.304 85.4305C172.047 84.4619 172.705 83.5192 173.94 83.1532C173.892 83.2863 173.87 83.4194 173.803 83.5229C173.563 83.9259 173.293 84.3103 173.064 84.717C172.661 85.4342 172.439 86.1958 172.442 87.0276C172.45 91.3124 172.45 95.6008 172.442 99.8856C172.442 100.614 172.598 101.279 173.123 101.897C173.367 101.679 173.577 101.486 173.792 101.294C174.247 101.69 174.265 101.701 173.951 102.082C173.293 102.888 172.624 103.679 171.943 104.466C171.674 104.777 171.489 104.791 171.193 104.51C171.004 104.329 170.827 104.1 170.723 103.86C170.398 103.072 170.11 102.263 169.792 101.416C169.315 101.59 169.049 102.078 168.664 102.433C168.283 102.788 167.943 103.176 167.574 103.542C167.189 103.926 166.794 104.296 166.357 104.721C166.039 104.488 165.721 104.255 165.411 104.022C164.572 103.398 163.736 102.777 162.901 102.148C162.631 101.941 162.376 101.804 162.013 101.963C161.644 102.126 161.585 102.444 161.585 102.754C161.585 103.117 161.67 103.483 161.721 103.845C161.788 104.337 161.67 104.64 161.378 104.71C161.063 104.78 160.76 104.485 160.679 104C160.657 103.86 160.664 103.701 160.705 103.571C161.015 102.669 161.289 101.749 161.67 100.876C162.135 99.7932 162.694 98.7506 163.208 97.6859C163.304 97.49 163.392 97.2903 163.496 97.0611C162.716 96.1739 162.117 95.1868 161.688 94.111C160.712 91.6821 160.79 89.2569 161.829 86.8908C162.986 84.2586 165.651 83.0201 168.498 83.7151C168.808 83.7891 169.104 83.9443 169.374 84.1144C169.995 84.5137 170.601 84.9536 171.304 85.4342M168.646 87.0424C167.588 86.059 165.917 85.7743 164.72 86.3658C163.452 86.9906 162.564 87.974 162.121 89.279C161.311 91.6525 161.714 93.8596 163.252 95.8633C163.396 96.0519 163.585 96.2034 163.843 96.4622C164.908 94.3365 165.921 92.3068 166.949 90.2698C166.572 89.9038 166.161 89.7412 165.699 89.7412C164.952 89.7412 164.553 90.3031 164.098 90.865C163.954 89.926 164.257 89.2384 164.849 88.6432C165.766 87.7226 166.849 87.6302 168.054 88.0997C168.28 87.6968 168.465 87.3603 168.646 87.0387M169.844 98.1074C169.685 98.0408 169.618 97.9854 169.555 97.9854C167.781 97.9743 166.006 97.9632 164.228 97.9706C164.084 97.9706 163.873 98.0852 163.81 98.2035C163.577 98.6249 163.396 99.076 163.185 99.5418C164.694 100.518 166.132 101.446 167.563 102.381C167.851 102.57 168.058 102.529 168.276 102.278C168.72 101.753 169.185 101.239 169.625 100.71C169.729 100.584 169.832 100.411 169.84 100.259C169.858 99.5307 169.847 98.8061 169.847 98.1037M169.363 87.6672C169.285 87.6524 169.2 87.6413 169.123 87.6302C167.814 90.207 166.513 92.7875 165.23 95.4123C166.246 95.5787 169.263 95.5343 169.795 95.3605C169.803 95.2718 169.821 95.1794 169.818 95.0833C169.773 93.0352 169.736 90.9833 169.659 88.9352C169.644 88.5101 169.47 88.0923 169.367 87.6709" fill="#2E358F"/>
<path fill-rule="evenodd" clip-rule="evenodd" d="M294.86 55.4556C294.871 54.4352 295.677 53.6626 296.709 53.681C297.685 53.6995 298.465 54.4833 298.472 55.4667C298.483 56.4612 297.644 57.3004 296.653 57.293C295.648 57.2856 294.845 56.4649 294.86 55.4519" fill="#2E358F"/>
<path fill-rule="evenodd" clip-rule="evenodd" d="M292.509 59.3708C292.52 58.3504 293.326 57.5778 294.358 57.5963C295.337 57.6148 296.114 58.3985 296.121 59.3819C296.128 60.3727 295.293 61.2156 294.298 61.2082C293.293 61.2008 292.491 60.3801 292.505 59.3671" fill="#2E358F"/>
<path fill-rule="evenodd" clip-rule="evenodd" d="M297.274 59.3708C297.285 58.3504 298.091 57.5778 299.123 57.5963C300.099 57.6148 300.879 58.3985 300.886 59.3819C300.897 60.3727 300.058 61.2156 299.067 61.2082C298.065 61.2008 297.259 60.3801 297.274 59.3671" fill="#2E358F"/>
<path fill-rule="evenodd" clip-rule="evenodd" d="M304.062 55.4556C304.073 54.4352 304.879 53.6626 305.91 53.681C306.89 53.6995 307.666 54.4833 307.674 55.4667C307.685 56.4612 306.845 57.3004 305.855 57.293C304.849 57.2856 304.051 56.4649 304.062 55.4519" fill="#2E358F"/>
<path fill-rule="evenodd" clip-rule="evenodd" d="M304.062 59.3708C304.073 58.3504 304.879 57.5778 305.91 57.5963C306.89 57.6148 307.666 58.3985 307.674 59.3819C307.685 60.3727 306.845 61.2156 305.855 61.2082C304.849 61.2008 304.051 60.3801 304.062 59.3671" fill="#2E358F"/>
<path fill-rule="evenodd" clip-rule="evenodd" d="M308.609 86.1107C308.62 85.0903 309.426 84.3177 310.458 84.3361C311.437 84.3546 312.214 85.1384 312.221 86.1218C312.232 87.1162 311.393 87.9555 310.402 87.9481C309.397 87.9407 308.594 87.1199 308.609 86.107" fill="#2E358F"/>
<path fill-rule="evenodd" clip-rule="evenodd" d="M255.439 86.1107C255.45 85.0903 256.256 84.3177 257.288 84.3361C258.267 84.3546 259.044 85.1384 259.051 86.1218C259.062 87.1162 258.223 87.9555 257.232 87.9481C256.227 87.9407 255.424 87.1199 255.439 86.107" fill="#2E358F"/>
<path fill-rule="evenodd" clip-rule="evenodd" d="M170.114 77.2195C170.125 76.1992 170.931 75.4265 171.962 75.4487C172.942 75.4672 173.718 76.2509 173.725 77.2343C173.737 78.2288 172.897 79.068 171.903 79.0606C170.901 79.0532 170.095 78.2325 170.11 77.2195" fill="#2E358F"/>
<path fill-rule="evenodd" clip-rule="evenodd" d="M166.254 77.2195C166.265 76.1992 167.071 75.4265 168.103 75.4487C169.082 75.4672 169.859 76.2509 169.866 77.2343C169.877 78.2288 169.038 79.068 168.047 79.0606C167.042 79.0532 166.239 78.2325 166.254 77.2195" fill="#2E358F"/>
<path fill-rule="evenodd" clip-rule="evenodd" d="M160.764 73.7001C160.856 73.6373 160.99 73.5374 160.99 73.5374C161.134 73.4339 162.136 73.1862 162.801 72.0697C163.466 70.9533 165.13 68.1732 165.13 68.1732C166.783 70.1547 170.058 70.554 169.467 68.2397C168.842 65.5151 168.561 64.2692 168.561 64.2692C165.94 55.3004 173.718 57.1525 175.463 53.012C177.6 60.7645 179.452 67.6445 179.452 67.6445C180.18 70.2841 181.079 70.1732 183.275 69.0863V73.7038H177.119L173.689 61.4077C173.023 58.9714 171.855 60.7534 172.176 62.173C172.502 63.5889 174.886 73.7038 174.886 73.7038H160.757L160.764 73.7001Z" fill="#2E358F"/>
<path d="M198.329 68.9234C198.329 67.8587 197.896 67.1304 197.039 67.1304H185.622C185.622 67.1304 185.733 66.7163 185.992 66.4834C187.567 65.0231 188.506 62.9454 188.506 62.9454L188.95 62.8752C189.46 62.8752 189.168 63.3225 189.896 63.3225H198.746C200.381 63.3225 202.706 63.8881 202.706 66.7718V73.7368L185.622 73.7035V68.9234H198.325H198.329Z" fill="#2E358F"/>
<path d="M85.6051 112.692C68.1296 112.692 53.9592 98.525 53.9592 81.0458C53.9592 63.5666 68.1296 49.4036 85.6051 49.4036C92.8917 49.4036 99.6017 51.8732 104.951 56.0138C97.6386 46.9562 86.4517 41.1594 73.9042 41.1594C51.8778 41.1594 34.0178 59.0194 34.0178 81.0495C34.0178 103.08 51.8778 120.936 73.9042 120.936C86.4517 120.936 97.6386 115.139 104.951 106.082C99.6017 110.222 92.8954 112.692 85.6051 112.692" fill="#EC2027"/>
<path fill-rule="evenodd" clip-rule="evenodd" d="M121.266 71.075V79.0531H117.277V61.1044H109.299V79.0531H105.31V71.075H97.3318V79.0531H93.3428V61.1044H85.3647V100.991H93.3428V83.0421H97.3318V91.0201H105.31V83.0421H109.299V100.991H117.277V83.0421H121.266V91.0201H129.244V71.075H121.266Z" fill="#2E358F"/>
<path fill-rule="evenodd" clip-rule="evenodd" d="M248.263 55.3852C247.102 54.9268 245.768 54.3427 245.235 53.8547C244.585 53.3112 244.94 53.1005 244.215 52.9157L244.204 52.9083H244.197V68.9198H240.141V68.3837C240.063 66.5796 238.418 63.3189 234.762 63.3189H221.704C221.871 63.988 222.056 63.659 222.54 64.2394C222.969 64.7089 223.486 65.8883 223.889 66.916C224.159 67.5482 224.325 67.4742 224.887 67.2081C225.109 67.1378 225.25 67.1378 225.509 67.1378C225.767 67.1378 231.261 67.1267 233.39 67.1267C235.52 67.1267 235.52 68.1175 235.52 68.9198H222.041C222.041 68.9198 221.531 68.9235 221.309 68.5796V68.6018C220.503 66.6055 218.547 65.537 216.262 65.537C213.978 65.537 212.037 66.5944 211.227 68.5796C211.005 68.9235 210.492 68.9235 210.492 68.9235H210.018H209.36V57.2263C209.36 56.9305 209.36 56.7716 209.442 56.5202C209.741 55.888 209.826 55.6995 209.113 55.3926C207.952 54.9342 206.617 54.3501 206.085 53.8621C205.43 53.3112 205.804 53.1042 205.046 52.9194V73.7406L205.057 73.7073H211.039C211.039 73.7073 211.549 73.7073 211.774 74.0511H211.778C212.758 75.4781 214.399 76.4172 216.262 76.4172C218.126 76.4172 219.778 75.4745 220.758 74.04V74.0548C220.98 73.7073 221.494 73.711 221.494 73.711C221.494 73.711 235.701 73.6999 236.3 73.6999C236.899 73.6999 237.069 73.8034 237.235 74.0326C238.034 75.0641 240.293 75.5817 241.165 75.1639L240.466 73.711H245.132H248.5V57.2152C248.5 56.9232 248.5 56.7605 248.581 56.5128C248.881 55.8806 248.966 55.6884 248.252 55.3852M216.248 72.7831C215.242 72.7757 214.444 71.9513 214.455 70.942C214.466 69.9216 215.275 69.149 216.307 69.1675C217.287 69.1859 218.063 69.9697 218.07 70.9531C218.078 71.9476 217.242 72.7868 216.248 72.7794" fill="#2E358F"/>
<path fill-rule="evenodd" clip-rule="evenodd" d="M249.92 73.7333H254.234V68.4355V57.2449C254.234 56.9528 254.234 56.7901 254.312 56.5425C254.611 55.9103 254.696 55.7217 253.983 55.4149C252.822 54.9565 251.487 54.3723 250.959 53.8843C250.308 53.3409 250.663 53.1302 249.938 52.9453L249.931 52.9379C249.931 52.9379 249.923 52.9379 249.92 52.9379V73.7333V73.7333Z" fill="#2E358F"/>
<path d="M333.497 61.9142H333.489C333.079 62.0177 332.861 62.3837 332.842 62.4281C332.506 62.9087 330.938 63.2858 329.404 63.4152C327.855 63.5483 325.692 65.3376 325.056 66.5909C324.65 67.3894 324.398 68.0807 324.262 68.9162H323.404V61.2044L323.393 61.2081L323.382 61.2118C322.657 61.3966 323.012 61.6074 322.365 62.1508C321.836 62.6351 320.502 63.2229 319.337 63.6814C318.624 63.9845 318.709 64.1768 319.005 64.8089C319.086 65.0603 319.086 65.2193 319.086 65.5114V68.9162H318.269V63.3043L318.254 63.308H318.247C317.522 63.4928 317.877 63.7035 317.226 64.247C316.698 64.7313 315.363 65.3191 314.202 65.7738C313.489 66.077 313.57 66.2692 313.873 66.9014C313.951 67.1528 313.955 67.3118 313.955 67.6075V68.9162H313.16V63.3043L313.149 63.308H313.141C312.417 63.4928 312.771 63.7035 312.121 64.247C311.592 64.7313 310.258 65.3191 309.093 65.7738C308.379 66.077 308.461 66.2692 308.764 66.9014C308.842 67.1528 308.845 67.3118 308.845 67.6075V68.9162H308.025V61.2044L308.014 61.2081L308.006 61.2118C307.282 61.3966 307.636 61.6074 306.986 62.1508C306.457 62.6351 305.119 63.2229 303.958 63.6814C303.244 63.9845 303.329 64.1768 303.625 64.8089C303.707 65.0603 303.707 65.2193 303.707 65.5114V68.9162H302.912V63.3043L302.901 63.308H302.893C302.169 63.4928 302.524 63.7035 301.873 64.247C301.344 64.7313 300.01 65.3191 298.849 65.7738C298.135 66.077 298.22 66.2692 298.52 66.9014C298.597 67.1528 298.597 67.3118 298.597 67.6075V68.9162H297.821V63.3043L297.81 63.308H297.803C297.078 63.4928 297.433 63.7035 296.782 64.247C296.254 64.7313 294.915 65.3191 293.754 65.7738C293.041 66.077 293.126 66.2692 293.425 66.9014C293.503 67.1528 293.507 67.3118 293.507 67.6075V68.9162H292.723V63.3043L292.712 63.308H292.701C291.976 63.4928 292.331 63.7035 291.684 64.247C291.155 64.7313 289.817 65.3191 288.656 65.7738C287.943 66.077 288.028 66.2692 288.327 66.9014C288.405 67.1528 288.409 67.3118 288.409 67.6075V68.9162H285.799V58.0102L285.787 58.0139H285.78C285.37 58.1211 285.152 58.4834 285.133 58.5315C284.797 59.0121 283.233 59.3892 281.695 59.5186C280.146 59.6517 277.983 61.441 277.347 62.6943C276.715 63.9475 276.445 64.9198 276.43 66.6352L276.586 67.0382H281.68V68.9162L275.894 68.9495L271.207 53.2818C270.955 52.4796 270.704 53.1709 270.704 53.4556C270.704 53.7403 270.312 54.1469 269.743 54.5721C269.177 54.9972 265.731 57.6221 265.731 57.6221C263.89 58.9271 263.661 61.0491 264.571 63.7257C265.38 66.1103 266.009 67.7813 266.009 67.7813C266.574 69.2268 265.724 68.9125 265.066 68.9125H260.315C260.315 68.9125 258.973 71.8738 257.931 73.0051V73.7297H270.515C271.428 73.7297 271.177 73.164 270.955 72.5947C270.619 71.7259 270.645 71.7148 268.345 63.722L267.905 61.8662C267.621 60.7645 268.441 60.4502 268.848 60.4502C269.255 60.4502 269.635 60.417 270.013 62.1508C270.39 63.881 273.003 72.8461 273.003 72.8461C273.318 73.7592 273.599 73.726 274.135 73.726H285.584L285.566 73.7001L333.511 73.7075V61.8994L333.5 61.9031M281.684 64.6574C281.114 64.6574 280.656 64.1952 280.656 63.6296C280.656 63.064 281.118 62.6018 281.684 62.6018C282.249 62.6018 282.712 63.064 282.712 63.6296C282.712 64.1952 282.249 64.6574 281.684 64.6574ZM329.264 68.9125C328.694 68.9125 328.236 68.4541 328.236 67.8848C328.236 67.3155 328.698 66.857 329.264 66.857C329.829 66.857 330.291 67.3155 330.291 67.8848C330.291 68.4541 329.829 68.9125 329.264 68.9125Z" fill="#2E358F"/>
</g>
</g>
<defs>
<clipPath id="clip0_16893_3693">
<rect width="1280" height="140" fill="white" transform="translate(0 0.161621)"/>
</clipPath>
<clipPath id="clip1_16893_3693">
<rect width="299.494" height="79.7765" fill="white" transform="translate(34.0178 41.1594)"/>
</clipPath>
</defs>
</svg>
