<svg width="262" height="401" viewBox="0 0 262 401" fill="none" xmlns="http://www.w3.org/2000/svg">
<path d="M0 249C0 242.373 5.37258 237 12 237H73V251C73 257.627 67.6274 263 61 263H12C5.37259 263 0 257.627 0 251V249Z" fill="#B4DDE4"/>
<path d="M28.016 253.112H30.944V254H26.924V245.636H28.016V253.112ZM38.1037 250.46C38.1037 250.668 38.0917 250.888 38.0677 251.12H32.8117C32.8517 251.768 33.0717 252.276 33.4717 252.644C33.8797 253.004 34.3717 253.184 34.9477 253.184C35.4197 253.184 35.8117 253.076 36.1237 252.86C36.4437 252.636 36.6677 252.34 36.7957 251.972H37.9717C37.7957 252.604 37.4437 253.12 36.9157 253.52C36.3877 253.912 35.7317 254.108 34.9477 254.108C34.3237 254.108 33.7637 253.968 33.2677 253.688C32.7797 253.408 32.3957 253.012 32.1157 252.5C31.8357 251.98 31.6957 251.38 31.6957 250.7C31.6957 250.02 31.8317 249.424 32.1037 248.912C32.3757 248.4 32.7557 248.008 33.2437 247.736C33.7397 247.456 34.3077 247.316 34.9477 247.316C35.5717 247.316 36.1237 247.452 36.6037 247.724C37.0837 247.996 37.4517 248.372 37.7077 248.852C37.9717 249.324 38.1037 249.86 38.1037 250.46ZM36.9757 250.232C36.9757 249.816 36.8837 249.46 36.6997 249.164C36.5157 248.86 36.2637 248.632 35.9437 248.48C35.6317 248.32 35.2837 248.24 34.8997 248.24C34.3477 248.24 33.8757 248.416 33.4837 248.768C33.0997 249.12 32.8797 249.608 32.8237 250.232H36.9757ZM42.2211 248.324H40.8411V254H39.7491V248.324H38.8971V247.424H39.7491V246.956C39.7491 246.22 39.9371 245.684 40.3131 245.348C40.6971 245.004 41.3091 244.832 42.1491 244.832V245.744C41.6691 245.744 41.3291 245.84 41.1291 246.032C40.9371 246.216 40.8411 246.524 40.8411 246.956V247.424H42.2211V248.324ZM44.8263 248.324V252.2C44.8263 252.52 44.8943 252.748 45.0303 252.884C45.1663 253.012 45.4023 253.076 45.7383 253.076H46.5423V254H45.5583C44.9503 254 44.4943 253.86 44.1903 253.58C43.8863 253.3 43.7343 252.84 43.7343 252.2V248.324H42.8823V247.424H43.7343V245.768H44.8263V247.424H46.5423V248.324H44.8263Z" fill="#1B444B"/>
<path d="M189 237H250C256.627 237 262 242.373 262 249V251C262 257.627 256.627 263 250 263H201C194.373 263 189 257.627 189 251V237Z" fill="#B4DDE4"/>
<path d="M215.328 254L213.336 250.58H212.016V254H210.924V245.636H213.624C214.256 245.636 214.788 245.744 215.22 245.96C215.66 246.176 215.988 246.468 216.204 246.836C216.42 247.204 216.528 247.624 216.528 248.096C216.528 248.672 216.36 249.18 216.024 249.62C215.696 250.06 215.2 250.352 214.536 250.496L216.636 254H215.328ZM212.016 249.704H213.624C214.216 249.704 214.66 249.56 214.956 249.272C215.252 248.976 215.4 248.584 215.4 248.096C215.4 247.6 215.252 247.216 214.956 246.944C214.668 246.672 214.224 246.536 213.624 246.536H212.016V249.704ZM218.789 246.356C218.581 246.356 218.405 246.284 218.261 246.14C218.117 245.996 218.045 245.82 218.045 245.612C218.045 245.404 218.117 245.228 218.261 245.084C218.405 244.94 218.581 244.868 218.789 244.868C218.989 244.868 219.157 244.94 219.293 245.084C219.437 245.228 219.509 245.404 219.509 245.612C219.509 245.82 219.437 245.996 219.293 246.14C219.157 246.284 218.989 246.356 218.789 246.356ZM219.317 247.424V254H218.225V247.424H219.317ZM223.89 247.316C224.458 247.316 224.954 247.44 225.378 247.688C225.81 247.936 226.13 248.248 226.338 248.624V247.424H227.442V254.144C227.442 254.744 227.314 255.276 227.058 255.74C226.802 256.212 226.434 256.58 225.954 256.844C225.482 257.108 224.93 257.24 224.298 257.24C223.434 257.24 222.714 257.036 222.138 256.628C221.562 256.22 221.222 255.664 221.118 254.96H222.198C222.318 255.36 222.566 255.68 222.942 255.92C223.318 256.168 223.77 256.292 224.298 256.292C224.898 256.292 225.386 256.104 225.762 255.728C226.146 255.352 226.338 254.824 226.338 254.144V252.764C226.122 253.148 225.802 253.468 225.378 253.724C224.954 253.98 224.458 254.108 223.89 254.108C223.306 254.108 222.774 253.964 222.294 253.676C221.822 253.388 221.45 252.984 221.178 252.464C220.906 251.944 220.77 251.352 220.77 250.688C220.77 250.016 220.906 249.428 221.178 248.924C221.45 248.412 221.822 248.016 222.294 247.736C222.774 247.456 223.306 247.316 223.89 247.316ZM226.338 250.7C226.338 250.204 226.238 249.772 226.038 249.404C225.838 249.036 225.566 248.756 225.222 248.564C224.886 248.364 224.514 248.264 224.106 248.264C223.698 248.264 223.326 248.36 222.99 248.552C222.654 248.744 222.386 249.024 222.186 249.392C221.986 249.76 221.886 250.192 221.886 250.688C221.886 251.192 221.986 251.632 222.186 252.008C222.386 252.376 222.654 252.66 222.99 252.86C223.326 253.052 223.698 253.148 224.106 253.148C224.514 253.148 224.886 253.052 225.222 252.86C225.566 252.66 225.838 252.376 226.038 252.008C226.238 251.632 226.338 251.196 226.338 250.7ZM232.551 247.304C233.047 247.304 233.495 247.412 233.895 247.628C234.295 247.836 234.607 248.152 234.831 248.576C235.063 249 235.179 249.516 235.179 250.124V254H234.099V250.28C234.099 249.624 233.935 249.124 233.607 248.78C233.279 248.428 232.831 248.252 232.263 248.252C231.687 248.252 231.227 248.432 230.883 248.792C230.547 249.152 230.379 249.676 230.379 250.364V254H229.287V245.12H230.379V248.36C230.595 248.024 230.891 247.764 231.267 247.58C231.651 247.396 232.079 247.304 232.551 247.304ZM238.295 248.324V252.2C238.295 252.52 238.363 252.748 238.499 252.884C238.635 253.012 238.871 253.076 239.207 253.076H240.011V254H239.027C238.419 254 237.963 253.86 237.659 253.58C237.355 253.3 237.203 252.84 237.203 252.2V248.324H236.351V247.424H237.203V245.768H238.295V247.424H240.011V248.324H238.295Z" fill="#1B444B"/>
<path d="M205.601 209.66C205.692 205.249 205.262 200.853 204.804 197.538C204.571 195.85 204.331 194.444 204.15 193.46C204.059 192.968 203.983 192.582 203.929 192.319C203.902 192.188 203.881 192.087 203.867 192.019L203.851 191.943L203.847 191.924L203.846 191.919L203.845 191.918L203.845 191.918L203.843 191.907L203.841 191.896L204.089 191.864C203.841 191.896 203.841 191.896 203.841 191.896L203.841 191.895L203.841 191.89L203.839 191.874L203.83 191.807L203.796 191.548C203.767 191.319 203.723 190.983 203.666 190.55C203.552 189.685 203.386 188.436 203.178 186.9C202.761 183.828 202.177 179.607 201.502 175.016C200.154 165.83 198.449 155.171 197.022 149.242C194.169 137.387 188.678 125.975 185.174 120.714C184.714 120.023 184.303 119.022 183.932 117.797C183.559 116.567 183.222 115.096 182.913 113.454C182.296 110.171 181.794 106.188 181.368 102.06C180.942 97.9308 180.591 93.6514 180.278 89.7738L180.218 89.0339C179.93 85.4533 179.672 82.2584 179.414 79.895C178.871 74.9185 176.332 71.5185 172.896 69.3004C169.45 67.0768 165.096 66.0387 160.943 65.8183C156.705 65.5935 152.1 63.6466 148.571 61.7722C146.803 60.8331 145.297 59.908 144.234 59.2176C143.702 58.8724 143.281 58.5857 142.992 58.385C142.847 58.2847 142.736 58.2058 142.66 58.152C142.623 58.125 142.594 58.1043 142.575 58.0903L142.552 58.0742L142.547 58.0701L142.545 58.069L142.545 58.0687C142.545 58.0686 142.545 58.0686 142.57 58.034L142.545 58.0685L142.466 58.0112L142.447 57.9162C141.252 51.9691 141.244 44.0731 141.3 40.7508L141.302 40.6828L141.337 40.6247C142.469 38.7718 143.463 36.6733 144.269 34.4134L144.299 34.3294L144.376 34.2833C145.638 33.5221 146.668 32.6763 147.494 31.3618C148.322 30.0427 148.956 28.2336 149.392 25.5289L149.392 25.5286C149.783 23.1241 149.287 22.0059 148.679 21.4867C148.058 20.9555 147.228 20.9677 146.776 21.031L146.498 21.07L146.492 20.7886C146.463 19.4482 146.36 18.0983 146.182 16.7482C145.331 10.3064 142.625 6.33377 139.654 3.87366C133.81 -0.957888 125.61 -0.957888 119.765 3.87366C116.795 6.3337 114.088 10.3157 113.238 16.7482L113.237 16.7498C113.05 18.0977 112.956 19.4564 112.928 20.7981L112.922 21.0833L112.64 21.0399C112.225 20.976 111.368 20.9251 110.715 21.4378C110.081 21.9352 109.543 23.0452 109.943 25.5289L109.696 25.5687L109.943 25.5289C110.383 28.2664 111.029 30.0865 111.874 31.4098C112.717 32.7285 113.77 33.5724 115.062 34.3391L115.139 34.3849L115.169 34.4695C116.079 37.0013 117.222 39.3244 118.532 41.336L118.572 41.397L118.572 41.4698C118.61 45.1138 118.526 52.3666 117.416 57.916L117.397 58.0111L117.319 58.0685L117.171 57.8669C117.319 58.0685 117.319 58.0686 117.319 58.0687L117.318 58.069L117.317 58.0701L117.311 58.0742L117.289 58.0903C117.27 58.1043 117.241 58.125 117.203 58.152C117.128 58.2058 117.016 58.2847 116.872 58.385C116.583 58.5857 116.161 58.8724 115.629 59.2176C114.566 59.908 113.061 60.8331 111.293 61.7722C107.764 63.6466 103.158 65.5935 98.9209 65.8183L98.9206 65.8183C94.7673 66.034 90.4134 67.0721 86.968 69.2969C83.5312 71.5161 80.9925 74.9184 80.4493 79.8947C80.1965 82.2331 79.9431 85.3833 79.659 88.9148C79.636 89.2005 79.6128 89.4887 79.5894 89.7791C79.2769 93.6579 78.926 97.9379 78.4992 102.067C78.0724 106.195 77.5693 110.177 76.9517 113.46C76.6429 115.101 76.3047 116.571 75.9319 117.8C75.5602 119.024 75.1494 120.025 74.689 120.715C71.1852 125.975 65.6943 137.387 62.8412 149.242C61.4191 155.166 59.7169 165.825 58.3693 175.013C57.6958 179.605 57.1113 183.825 56.6952 186.899C56.4872 188.435 56.3212 189.685 56.2073 190.55C56.1503 190.982 56.1064 191.319 56.0767 191.547L56.0429 191.807L56.0344 191.874L56.0322 191.89L56.0317 191.895L56.0315 191.896C56.0315 191.896 56.0315 191.896 55.7836 191.864M205.601 209.66L196.683 194.583L196.622 194.419L196.388 194.507C196.622 194.419 196.622 194.419 196.622 194.419L196.621 194.418L196.62 194.414L196.614 194.4L196.593 194.341L196.507 194.113C196.431 193.912 196.32 193.617 196.177 193.238C195.89 192.479 195.475 191.386 194.961 190.045C193.933 187.363 192.509 183.691 190.927 179.729C187.765 171.812 183.963 162.722 181.42 158.086C178.907 153.496 176.384 145.437 174.486 138.503C173.539 135.04 172.749 131.866 172.196 129.558C171.919 128.403 171.702 127.466 171.554 126.817C171.48 126.492 171.423 126.24 171.385 126.069L171.342 125.874L171.331 125.824L171.328 125.812L171.328 125.809L171.327 125.808C171.327 125.808 171.327 125.808 171.083 125.861M205.601 209.66H205.591L205.586 209.904C205.477 214.424 205.365 217.089 204.849 219.23C204.337 221.355 203.422 222.973 201.669 225.384C200.783 226.603 200.008 227.848 199.326 228.977C199.169 229.236 199.018 229.489 198.872 229.733C198.377 230.558 197.937 231.292 197.538 231.881C197.279 232.261 197.044 232.572 196.827 232.802C196.608 233.036 196.427 233.165 196.283 233.214C196.159 233.256 196.057 233.243 195.943 233.154C195.812 233.052 195.662 232.844 195.504 232.474L195.504 232.473C195.203 231.773 195.206 230.884 195.409 229.854C195.61 228.827 196.003 227.696 196.442 226.527C196.562 226.208 196.686 225.886 196.81 225.563C197.138 224.711 197.468 223.852 197.739 223.027C198.112 221.89 198.384 220.787 198.384 219.811C198.384 219.051 198.43 218.144 198.479 217.176C198.49 216.964 198.501 216.749 198.511 216.532C198.57 215.329 198.619 214.069 198.578 212.93C198.537 211.797 198.407 210.755 198.089 210.002C197.93 209.624 197.716 209.301 197.426 209.081C197.131 208.857 196.774 208.752 196.359 208.783C195.504 208.848 194.911 209.536 194.467 210.425C194.017 211.324 193.675 212.517 193.359 213.754C193.269 214.104 193.182 214.457 193.095 214.81C192.871 215.714 192.649 216.614 192.396 217.435C192.043 218.581 191.644 219.525 191.134 220.087L205.601 209.66ZM55.7836 191.864L56.0277 191.918L56.0277 191.918L56.0274 191.919L56.0264 191.924L56.0222 191.943L56.0059 192.019C55.9916 192.087 55.9705 192.188 55.9438 192.319C55.8903 192.582 55.814 192.969 55.7231 193.46C55.5412 194.444 55.3009 195.85 55.0673 197.538C54.5999 200.914 54.1604 205.411 54.2685 209.904C54.3772 214.424 54.4862 217.091 55.006 219.232C55.5218 221.356 56.4454 222.972 58.2214 225.373L58.2225 225.374C59.1114 226.594 59.8875 227.839 60.5701 228.968C60.7295 229.231 60.8834 229.488 61.0324 229.736C61.5242 230.557 61.9616 231.286 62.359 231.871C62.6173 232.252 62.8528 232.562 63.0691 232.792C63.289 233.026 63.4697 233.156 63.6143 233.205C63.7384 233.247 63.8413 233.233 63.9556 233.145C64.0872 233.042 64.2385 232.834 64.3976 232.464C64.6986 231.763 64.6951 230.874 64.4926 229.844C64.2908 228.818 63.8987 227.686 63.459 226.518C63.3389 226.199 63.2151 225.877 63.091 225.554C62.7635 224.701 62.4335 223.843 62.1626 223.018C61.7892 221.88 61.5175 220.777 61.5175 219.802C61.5175 219.046 61.4723 218.144 61.424 217.181C61.4131 216.964 61.4021 216.744 61.3914 216.522C61.3334 215.32 61.2854 214.059 61.3277 212.92C61.3698 211.787 61.5018 210.745 61.82 209.993C61.9801 209.614 62.1944 209.292 62.4844 209.072C62.78 208.847 63.1371 208.742 63.5514 208.774C64.4065 208.839 64.9993 209.527 65.4438 210.415C65.8938 211.315 66.2361 212.508 66.552 213.744C66.6414 214.094 66.7287 214.448 66.8158 214.801C67.0393 215.705 67.2614 216.605 67.5143 217.426C67.8676 218.572 68.2672 219.515 68.7767 220.077C69.0447 220.372 69.2277 220.483 69.3348 220.508C69.3792 220.518 69.4029 220.512 69.4188 220.504C69.4384 220.494 69.4702 220.471 69.5082 220.411C69.5883 220.286 69.6582 220.062 69.705 219.729C69.7509 219.403 69.7714 219 69.7714 218.538C69.7714 216.965 69.535 214.798 69.3272 212.894C69.2903 212.556 69.2543 212.226 69.2206 211.909C68.7782 207.739 68.1398 204.169 66.5945 200.31C65.7181 198.126 64.9006 196.713 64.3069 195.85C64.01 195.418 63.769 195.124 63.6045 194.939C63.5222 194.847 63.4589 194.782 63.4174 194.741C63.3966 194.721 63.3812 194.706 63.3716 194.697L63.3615 194.688L63.3602 194.687L63.36 194.687L63.3598 194.687L63.3597 194.687L63.2278 194.573L63.2889 194.41L63.523 194.497C63.2889 194.41 63.2889 194.41 63.289 194.41L63.2894 194.409L63.2907 194.405L63.2963 194.39L63.3181 194.332L63.4039 194.103C63.4793 193.903 63.5905 193.607 63.7338 193.228C64.0205 192.47 64.4356 191.376 64.9496 190.035C65.9775 187.353 67.4008 183.681 68.9822 179.72C72.1428 171.803 75.9426 162.713 78.4807 158.077C80.9941 153.487 83.5171 145.428 85.415 138.493C86.3627 135.031 87.1525 131.857 87.7054 129.548C87.9818 128.394 88.199 127.456 88.347 126.807C88.421 126.483 88.4777 126.23 88.516 126.059L88.5592 125.864L88.5702 125.815L88.5729 125.802L88.5736 125.799L88.5737 125.799C88.5738 125.798 88.5738 125.798 88.818 125.852M55.7836 191.864L56.0315 191.896L56.0301 191.907L56.0277 191.918L55.7836 191.864ZM88.818 125.852L88.6004 125.729L88.6006 125.728L88.6013 125.727L88.6043 125.722L88.6164 125.7L88.6639 125.615C88.7056 125.54 88.767 125.429 88.8453 125.286C89.002 125 89.2264 124.585 89.4973 124.069C90.039 123.037 90.7659 121.604 91.5063 120C92.9928 116.78 94.5143 112.913 94.7321 110.211L95.2162 110.146L94.9813 110.231L95.2162 110.146L95.2163 110.146L95.2166 110.147L95.218 110.151L95.2237 110.166L95.2461 110.227C95.2658 110.281 95.2952 110.36 95.3333 110.462C95.4096 110.666 95.5211 110.962 95.6618 111.327C95.9433 112.057 96.3415 113.066 96.808 114.176C97.7437 116.404 98.9463 119.025 100.031 120.654L100.071 120.714L100.073 120.785L99.8232 120.793C100.073 120.785 100.073 120.785 100.073 120.785L100.073 120.786L100.073 120.791L100.074 120.809L100.076 120.881L100.085 121.163C100.093 121.41 100.105 121.774 100.119 122.24C100.148 123.172 100.189 124.513 100.235 126.15C100.329 129.423 100.446 133.88 100.543 138.612C100.736 148.069 100.848 158.645 100.516 163.058C100.191 167.39 98.9144 171.086 97.6018 174.886L97.5029 175.172C96.1545 179.078 94.7885 183.123 94.3526 188.148L94.3526 188.148C93.9092 193.205 92.7536 207.553 92.6711 223.301C92.5885 239.062 93.5816 256.182 97.4156 266.805L97.4276 266.839L97.4299 266.874L97.3975 266.876C97.4299 266.874 97.4299 266.874 97.4299 266.874L97.43 266.875L97.4301 266.877L97.4307 266.886L97.4331 266.923L97.442 267.067C97.4498 267.193 97.4611 267.379 97.4749 267.617C97.5025 268.095 97.5406 268.785 97.582 269.635C97.665 271.335 97.7618 273.675 97.8174 276.236C97.9282 281.348 97.8753 287.369 97.2091 290.919C96.5522 294.419 95.8918 302.324 95.6713 310.518C95.4506 318.716 95.672 327.156 96.763 331.74C97.8642 336.367 99.6799 345.725 101.219 353.919C101.989 358.018 102.69 361.827 103.199 364.613C103.453 366.005 103.66 367.141 103.802 367.93C103.874 368.324 103.929 368.631 103.967 368.84L104.009 369.077L104.02 369.138L104.023 369.153L104.024 369.157L104.024 369.158C104.024 369.158 104.024 369.158 103.778 369.202L104.024 369.158L104.036 369.227L104.011 369.293L103.999 369.288C104.011 369.293 104.011 369.293 104.011 369.293L104.011 369.293L104.01 369.295L104.008 369.3L104 369.322L103.967 369.405C103.938 369.479 103.895 369.587 103.84 369.725C103.728 370.002 103.565 370.4 103.359 370.89C102.946 371.869 102.359 373.211 101.661 374.663C100.272 377.557 98.4247 380.931 96.6305 382.725L96.6302 382.725C95.7502 383.603 94.7536 384.46 93.7597 385.315L93.725 385.345C92.7167 386.212 91.7123 387.077 90.8187 387.971C89.0253 389.764 87.7277 391.625 87.7277 393.761C87.7277 395.872 89.0546 397.464 91.2998 398.483C93.5501 399.504 96.6881 399.928 100.193 399.694L100.194 399.694C101.002 399.642 101.775 399.259 102.514 398.654C103.253 398.048 103.943 397.232 104.582 396.342C105.221 395.453 105.802 394.499 106.327 393.623C106.39 393.518 106.452 393.414 106.513 393.311C106.961 392.562 107.368 391.88 107.728 391.379C108.315 390.56 108.878 389.558 109.492 388.464C109.706 388.082 109.927 387.689 110.157 387.288C111.041 385.752 112.055 384.128 113.362 382.7C113.548 382.497 113.694 382.159 113.788 381.683C113.881 381.212 113.919 380.633 113.911 379.975C113.895 378.659 113.696 377.064 113.422 375.459C112.873 372.251 112.026 369.044 111.757 368.05L111.746 368.009L111.749 367.967C111.981 364.697 112.653 355.368 113.415 346.145C114.177 336.933 115.03 327.798 115.624 324.933C115.949 323.361 116.265 318.916 116.555 313.1C116.845 307.296 117.106 300.154 117.327 293.211C117.548 286.267 117.727 279.523 117.851 274.514C117.913 272.01 117.961 269.94 117.994 268.496C118.011 267.774 118.023 267.208 118.032 266.823L118.041 266.384L118.043 266.271L118.044 266.243L118.044 266.236L118.044 266.234C118.044 266.234 118.044 266.234 118.294 266.239L118.044 266.234L118.045 266.198L118.055 266.165L118.06 266.166C118.055 266.165 118.055 266.165 118.055 266.165L118.056 266.164L118.056 266.162L118.06 266.151L118.072 266.11C118.083 266.074 118.1 266.02 118.121 265.948C118.165 265.804 118.228 265.591 118.309 265.314C118.47 264.76 118.701 263.95 118.977 262.925C119.529 260.876 120.263 257.973 120.991 254.554C122.446 247.714 123.872 238.825 123.764 230.603C123.594 217.399 124.964 206.861 125.522 203.162C125.656 202.271 126.469 201.664 127.361 201.752C128.862 201.901 130.865 201.892 132.567 201.715L132.568 201.714C133.457 201.626 134.255 202.248 134.388 203.134C134.388 203.134 134.388 203.134 134.389 203.134L134.141 203.171C134.698 206.833 136.076 217.376 135.897 230.609C135.67 247.107 141.616 266.248 141.616 266.248C141.866 266.243 141.866 266.243 141.866 266.244L141.866 266.245L141.867 266.253L141.867 266.281L141.87 266.393L141.879 266.832C141.887 267.217 141.9 267.783 141.916 268.505C141.949 269.949 141.996 272.02 142.058 274.524C142.181 279.532 142.36 286.277 142.579 293.22C142.798 300.164 143.059 307.306 143.347 313.11C143.636 318.926 143.952 323.371 144.278 324.942C144.871 327.812 145.724 336.947 146.486 346.158C147.248 355.38 147.921 364.706 148.152 367.977L148.155 368.019L148.144 368.06C147.875 369.054 147.028 372.26 146.479 375.468C146.205 377.073 146.006 378.669 145.99 379.984C145.982 380.642 146.02 381.221 146.113 381.692C146.207 382.169 146.353 382.507 146.539 382.71C147.846 384.137 148.86 385.761 149.744 387.298C149.974 387.698 150.195 388.091 150.409 388.473C151.023 389.567 151.586 390.569 152.174 391.388C152.532 391.888 152.939 392.567 153.386 393.314C153.448 393.418 153.512 393.524 153.576 393.631C154.101 394.507 154.683 395.459 155.322 396.348C155.962 397.237 156.653 398.053 157.392 398.659C158.131 399.265 158.902 399.649 159.708 399.703C163.213 399.938 166.351 399.514 168.601 398.492C170.847 397.473 172.173 395.882 172.173 393.771C172.173 391.634 170.874 389.774 169.079 387.98C168.185 387.086 167.18 386.221 166.172 385.354L166.154 385.338C165.155 384.479 164.153 383.617 163.271 382.735C161.472 380.94 159.625 377.567 158.236 374.673C157.539 373.22 156.953 371.878 156.541 370.899C156.335 370.41 156.172 370.011 156.061 369.734C156.006 369.596 155.963 369.488 155.934 369.415L155.901 369.331L155.893 369.309L155.891 369.304L155.89 369.303L155.89 369.302C155.89 369.302 155.89 369.302 156.123 369.212M88.818 125.852L88.5738 125.798L88.5818 125.762L88.6004 125.729L88.818 125.852ZM156.123 369.212C155.877 369.168 155.877 369.168 155.877 369.167L155.878 369.166L155.878 369.163L155.881 369.147L155.892 369.087L155.935 368.849C155.972 368.64 156.028 368.333 156.099 367.939C156.242 367.151 156.448 366.015 156.702 364.622C157.211 361.837 157.912 358.027 158.682 353.929C160.221 345.734 162.037 336.377 163.138 331.75C164.229 327.166 164.451 318.726 164.23 310.527C164.009 302.334 163.349 294.429 162.692 290.929C162.026 287.379 161.973 281.357 162.084 276.245C162.139 273.685 162.236 271.344 162.319 269.645C162.361 268.795 162.399 268.104 162.426 267.627C162.44 267.388 162.451 267.202 162.459 267.076L162.468 266.932L162.471 266.896L162.471 266.886L162.471 266.884L162.471 266.883L162.474 266.848L162.486 266.815C166.32 256.191 167.31 239.071 167.227 223.311C167.143 207.562 165.987 193.214 165.549 188.158C165.113 183.128 163.747 179.081 162.398 175.175L162.297 174.881C160.985 171.083 159.71 167.392 159.385 163.067C159.054 158.65 159.165 148.074 159.359 138.618C159.455 133.887 159.573 129.431 159.666 126.158C159.713 124.521 159.753 123.18 159.782 122.249C159.796 121.783 159.808 121.419 159.816 121.172L159.825 120.89L159.827 120.818L159.828 120.8L159.828 120.796L159.828 120.794C159.828 120.794 159.828 120.794 159.882 120.796L159.828 120.794L159.831 120.723L159.87 120.664C160.955 119.034 162.157 116.414 163.093 114.186C163.56 113.075 163.958 112.067 164.239 111.336C164.38 110.971 164.492 110.676 164.568 110.472C164.606 110.369 164.635 110.29 164.655 110.237L164.678 110.176L164.683 110.16L164.685 110.156L164.685 110.155L164.685 110.155L164.92 110.241L164.685 110.155L165.169 110.221C165.387 112.922 166.908 116.79 168.395 120.01C169.135 121.613 169.862 123.046 170.404 124.078C170.675 124.594 170.899 125.009 171.056 125.296C171.134 125.439 171.196 125.55 171.237 125.625L171.285 125.71L171.297 125.731L171.3 125.737L171.301 125.738L171.301 125.738L171.083 125.861M156.123 369.212L155.89 369.302L155.865 369.237L155.877 369.168L156.123 369.212ZM171.083 125.861L171.301 125.738L171.319 125.771L171.327 125.808L171.083 125.861ZM196.551 194.697L196.551 194.696L191.319 220.255C189.286 222.489 189.883 217.016 190.335 212.873C190.372 212.536 190.408 212.207 190.441 211.892C190.885 207.711 191.527 204.115 193.084 200.227L193.316 200.32C193.316 200.32 193.316 200.32 193.316 200.319C194.193 198.136 195.01 196.722 195.604 195.859C195.901 195.427 196.142 195.133 196.306 194.948C196.389 194.856 196.452 194.791 196.493 194.751C196.514 194.73 196.529 194.716 196.539 194.707L196.549 194.698L196.551 194.697Z" fill="#DBEFF0" stroke="#69BAC9" stroke-width="0.5"/>
</svg>
