<svg width="33" height="33" viewBox="0 0 33 33" fill="none" xmlns="http://www.w3.org/2000/svg">
<g clip-path="url(#clip0_13878_1177)">
<circle cx="16.5" cy="16.1666" r="16" fill="#DAEEF1"/>
<path d="M16.9324 18.9784H16.0672V19.9944H15.0466V20.8643H16.0672V21.8808H16.9324V20.8645H17.9531V19.9946H16.9324V18.9784Z" fill="#368796"/>
<path fill-rule="evenodd" clip-rule="evenodd" d="M20.8121 10.1139C20.8843 10.1255 20.9564 10.1371 21.0286 10.1473C21.1996 10.1717 21.2215 10.1996 21.2071 10.372C21.1999 10.458 21.1921 10.5441 21.18 10.6293C21.1689 10.7098 21.1371 10.774 21.0826 10.8438C21.0097 10.9373 20.9706 11.061 20.9334 11.1787C20.9306 11.1875 20.9279 11.1962 20.9251 11.2049C20.8763 11.3576 20.8323 11.5118 20.7883 11.666C20.7625 11.7566 20.7366 11.8471 20.7098 11.9373C20.5884 12.3468 20.3091 12.5887 19.9021 12.6966C19.3412 12.8457 18.7753 12.854 18.2131 12.7251C17.6865 12.6045 17.3365 12.258 17.1112 11.7782C17.0488 11.645 16.993 11.5086 16.9372 11.3722C16.9248 11.3418 16.9123 11.3113 16.8998 11.2809C16.8198 11.0881 16.6956 10.994 16.5124 10.9926C16.5091 10.9926 16.5057 10.9926 16.5027 10.9929V11.0003C16.4977 11.0001 16.4922 11.0001 16.4869 11.0001C16.3038 11.0014 16.1795 11.0955 16.0996 11.2884C16.0871 11.3186 16.0747 11.3489 16.0624 11.3791C16.0065 11.5157 15.9507 11.6522 15.8881 11.7857C15.6629 12.2655 15.3129 12.612 14.7863 12.7326C14.224 12.8616 13.6581 12.8533 13.0972 12.7041C12.6902 12.5962 12.411 12.3544 12.2895 11.9448C12.2627 11.8546 12.2369 11.7642 12.2111 11.6738C12.1671 11.5195 12.1231 11.3652 12.0742 11.2124C12.0714 11.2037 12.0687 11.195 12.0659 11.1862C12.0287 11.0685 11.9896 10.9448 11.9167 10.8512C11.8622 10.7815 11.8304 10.7173 11.8194 10.6368C11.8072 10.5516 11.7994 10.4655 11.7922 10.3795C11.7779 10.2071 11.7997 10.1791 11.9707 10.1548C12.0429 10.1445 12.1151 10.133 12.1873 10.1214C12.3626 10.0933 12.538 10.0652 12.7143 10.056C13.1725 10.0322 13.6321 10.0112 14.0901 10.0253C14.5686 10.04 15.0357 10.1396 15.5026 10.2391C15.6148 10.2631 15.7271 10.287 15.8394 10.3097C15.889 10.3198 15.9385 10.3308 15.988 10.3418C16.1552 10.379 16.3228 10.4162 16.4944 10.4171V10.4096C16.6695 10.4103 16.84 10.3724 17.0102 10.3345C17.0601 10.3234 17.11 10.3124 17.1599 10.3023C17.2724 10.2795 17.3847 10.2555 17.4971 10.2316C17.9639 10.1321 18.4309 10.0325 18.9093 10.0178C19.3673 10.0037 19.8269 10.0247 20.2851 10.0485C20.4614 10.0577 20.6368 10.0858 20.8121 10.1139ZM15.501 11.8564C15.6385 11.6488 15.7578 11.4354 15.8233 11.2088C15.8737 11.034 15.8782 10.86 15.7302 10.7044C15.6184 10.587 15.4612 10.5062 15.2806 10.461C15.0646 10.4069 14.8428 10.3616 14.6191 10.329C14.3936 10.2961 14.1625 10.297 13.9323 10.3151C13.849 10.3217 13.7655 10.3263 13.682 10.331C13.5725 10.3371 13.4631 10.3432 13.3543 10.3536C13.1057 10.3774 12.8589 10.4099 12.6466 10.5202C12.4973 10.5977 12.4148 10.7036 12.3931 10.8348C12.3869 10.8725 12.3855 10.9105 12.3842 10.9486C12.3836 10.966 12.383 10.9833 12.3819 11.0006C12.3767 11.2658 12.4598 11.5205 12.5514 11.774C12.6091 11.9339 12.6863 12.0885 12.8304 12.2187C12.9365 12.3146 13.0679 12.3906 13.2253 12.4367C13.4935 12.5153 13.773 12.537 14.0617 12.5334C14.3484 12.5299 14.6123 12.4792 14.8587 12.3766C15.1499 12.2552 15.3562 12.0748 15.501 11.8564ZM20.1934 12.2187C20.3375 12.0885 20.4147 11.9339 20.4724 11.774C20.564 11.5205 20.6471 11.2658 20.6419 11.0007C20.6408 10.9834 20.6402 10.966 20.6396 10.9486C20.6382 10.9106 20.6369 10.8725 20.6307 10.8349C20.6089 10.7036 20.5265 10.5977 20.3772 10.5202C20.1648 10.41 19.9181 10.3774 19.6695 10.3536C19.5604 10.3432 19.4505 10.3371 19.3407 10.3309C19.2575 10.3263 19.1744 10.3216 19.0915 10.3151C18.8613 10.297 18.6302 10.2961 18.4047 10.329C18.181 10.3616 17.9592 10.407 17.7431 10.461C17.5625 10.5062 17.4054 10.587 17.2935 10.7044C17.1455 10.8599 17.1501 11.034 17.2005 11.2088C17.266 11.4354 17.3853 11.6488 17.5228 11.8564C17.6676 12.0749 17.8739 12.2553 18.1651 12.3766C18.4116 12.4792 18.6754 12.5299 18.9621 12.5335C19.2508 12.537 19.5303 12.5153 19.7985 12.4367C19.9559 12.3906 20.0873 12.3146 20.1934 12.2187Z" fill="#368796"/>
<path fill-rule="evenodd" clip-rule="evenodd" d="M9.61236 15.9428H10.0644L10.0646 8.99704C10.0646 8.12711 10.7794 7.41663 11.6493 7.41663H21.3507C22.2202 7.41663 22.9352 8.12711 22.9352 8.99704V14.0698H23.3873C23.9298 14.0698 24.382 14.4915 24.4163 15.0255C24.4163 16.5032 24.4173 17.9809 24.4184 19.4579C24.4195 20.9337 24.4205 22.4089 24.4205 23.8828C24.4205 24.4513 23.9558 24.9166 23.3873 24.9166H9.61236C9.04401 24.9166 8.5791 24.4515 8.5791 23.8828C8.5791 22.721 8.58012 21.5591 8.58114 20.3965C8.58216 19.2328 8.58318 18.0684 8.58318 16.903C8.62207 16.369 9.06987 15.9428 9.61236 15.9428ZM19.1633 20.4295C19.1633 18.9611 17.9704 17.768 16.5021 17.768C15.0295 17.768 13.8366 18.9611 13.8366 20.4295C13.8366 21.9018 15.0295 23.0908 16.5021 23.0908C17.9704 23.0908 19.1633 21.9016 19.1633 20.4295ZM22.496 8.99704V14.0698H18.3149L15.8002 15.9428H10.5039V8.99704C10.5039 8.36822 11.0205 7.85159 11.6493 7.85159H21.3505C21.9793 7.85159 22.496 8.36841 22.496 8.99704Z" fill="#368796"/>
<path d="M24.4205 13.1827V14.0521C24.1536 13.7939 23.7876 13.6303 23.3873 13.6303H23.37V12.1489H23.3873C23.9556 12.1489 24.4205 12.614 24.4205 13.1827Z" fill="#368796"/>
<path d="M9.61236 10.2716H9.62966V15.5077H9.61236C9.212 15.5077 8.85015 15.6667 8.58318 15.93L8.5791 11.3052C8.5791 10.7367 9.04381 10.2716 9.61236 10.2716Z" fill="#368796"/>
</g>
<defs>
<clipPath id="clip0_13878_1177">
<rect width="32" height="32" fill="white" transform="translate(0.5 0.166626)"/>
</clipPath>
</defs>
</svg>
