<svg width="24" height="24" viewBox="0 0 24 24" fill="none" xmlns="http://www.w3.org/2000/svg">
<path d="M12.4196 21.9999C11.0826 21.9999 9.88452 21.7828 8.82536 21.3488C7.76619 20.9147 6.91538 20.2722 6.27293 19.4214C5.64785 18.5706 4.72782 16.9686 4.94511 15.0751H9.79224C9.86169 15.7523 10.3273 17.5462 10.7267 17.9108C11.126 18.2581 11.6469 18.4317 12.2894 18.4317C12.9492 18.4317 13.4701 18.2841 13.8521 17.9889C14.2341 17.6764 14.4251 17.251 14.4251 16.7127C14.4251 16.2613 14.2688 15.888 13.9562 15.5928C13.6611 15.2976 13.2878 15.0545 12.8363 14.8635C12.4022 14.6725 11.7771 14.4555 10.9611 14.2124C9.78034 13.8478 8.81667 13.4831 8.07004 13.1185C7.32342 12.7539 6.68097 12.2156 6.14271 11.5037C5.60444 10.7918 5.33531 9.86286 5.33531 8.71687C5.33531 7.01525 5.95171 5.68695 7.18451 4.73197C8.41731 3.75961 10.0234 3.27344 12.0029 3.27344C14.017 3.27344 16.4966 3.6923 17.7294 4.66465C18.6737 5.51896 18.9062 6.54361 18.8527 8.74291H14.0344C13.9997 8.15256 13.7826 7.69243 13.3832 7.36252C12.9839 7.01525 12.4717 6.84162 11.8466 6.84162C11.3083 6.84162 10.8742 6.98921 10.5443 7.28439C10.2144 7.5622 10.0495 7.97024 10.0495 8.50851C10.0495 9.09887 10.3273 9.55899 10.8829 9.8889C11.4386 10.2188 12.3067 10.5748 13.4874 10.9568C14.6681 11.3561 15.6231 11.7381 16.3524 12.1027C17.099 12.4674 17.7415 12.997 18.2797 13.6915C18.818 14.386 19.0871 15.2802 19.0871 16.3741C19.0871 17.4159 18.818 18.3623 18.2797 19.2131C17.7588 20.0639 16.9948 20.741 15.9878 21.2446C14.9807 21.7481 13.7913 21.9999 12.4196 21.9999Z" fill="#286571"/>
<path d="M12.3942 20.7264C11.0572 20.7264 9.85912 20.5094 8.79995 20.0753C7.74078 19.6412 6.88997 18.9988 6.24753 18.148C5.62244 17.2972 5.29254 16.2727 5.25781 15.0747H9.99803C10.0675 15.7518 10.3019 16.2727 10.7012 16.6374C11.1006 16.9846 11.6215 17.1583 12.264 17.1583C12.9238 17.1583 13.4447 17.0107 13.8267 16.7155C14.2087 16.403 14.3997 15.9776 14.3997 15.4393C14.3997 14.9878 14.2434 14.6145 13.9308 14.3193C13.6357 14.0242 13.2623 13.7811 12.8109 13.5901C12.3768 13.3991 11.7517 13.182 10.9357 12.939C9.75494 12.5743 8.79127 12.2097 8.04464 11.8451C7.29801 11.4804 6.65557 10.9422 6.1173 10.2303C5.57904 9.51836 5.3099 8.58942 5.3099 7.44343C5.3099 5.74182 5.9263 4.41352 7.15911 3.45853C8.39191 2.48618 9.99803 2 11.9775 2C13.9916 2 15.6151 2.48618 16.8479 3.45853C18.0807 4.41352 18.7405 5.7505 18.8273 7.46948H14.009C13.9742 6.87912 13.7572 6.41899 13.3578 6.08909C12.9585 5.74182 12.4463 5.56818 11.8212 5.56818C11.2829 5.56818 10.8488 5.71577 10.5189 6.01095C10.189 6.28876 10.0241 6.6968 10.0241 7.23507C10.0241 7.82543 10.3019 8.28556 10.8575 8.61546C11.4131 8.94537 12.2813 9.30132 13.462 9.68331C14.6427 10.0827 15.5977 10.4647 16.327 10.8293C17.0736 11.1939 17.7161 11.7235 18.2543 12.4181C18.7926 13.1126 19.0617 14.0068 19.0617 15.1007C19.0617 16.1425 18.7926 17.0888 18.2543 17.9396C17.7334 18.7904 16.9694 19.4676 15.9624 19.9711C14.9553 20.4747 13.7659 20.7264 12.3942 20.7264Z" fill="#69BAC9"/>
</svg>
