<svg width="145" height="160" viewBox="0 0 145 160" fill="none" xmlns="http://www.w3.org/2000/svg">
<g clip-path="url(#clip0_9463_29471)">
<circle cx="72.3036" cy="87.6964" r="70.7167" fill="#ECF6F8" stroke="#69BAC9" stroke-width="3.17382"/>
<mask id="mask0_9463_29471" style="mask-type:alpha" maskUnits="userSpaceOnUse" x="-4" y="-7" width="146" height="164">
<path d="M141.601 85.9792C141.601 105.575 139.156 122.215 129.316 134.481C119.482 146.741 102.223 154.676 72.487 156.771C34.3042 156.767 -3.02722 125.056 -3.02722 85.9792C-3.02722 66.431 6.31125 43.2759 20.4375 25.0049C34.5669 6.72965 53.4456 -6.60881 72.494 -6.60881C91.5369 -6.60881 108.811 6.72339 121.337 24.9957C133.859 43.2634 141.601 66.4215 141.601 85.9792Z" fill="#ECF6F8" stroke="#69BAC9" stroke-width="0.396728"/>
</mask>
<g mask="url(#mask0_9463_29471)">
<path d="M127.984 62.8181C127.984 62.2442 127.864 61.6662 127.656 61.1297C127.223 60.0111 126.433 59.0505 125.402 58.435C124.853 58.1065 124.221 57.8986 123.734 57.4744C123.235 57.0336 123.098 56.389 123.102 55.7486C123.102 55.0583 123.264 54.368 123.368 53.686C123.481 52.9832 123.576 52.2804 123.651 51.5735C123.938 48.8164 123.83 45.8597 122.258 43.4685C120.765 41.2063 118.249 39.8506 115.7 39.1395C114.157 38.707 112.564 38.4908 110.976 38.3286C110.186 38.2454 109.391 38.1789 108.601 38.0999C108.423 38.0833 108.231 38.0666 108.044 38.0417C107.77 37.8837 107.616 37.6674 107.616 37.343C107.616 35.268 108.015 32.5524 108.015 32.5524L109.533 26.639C109.932 24.801 111.608 17.2907 106.339 9.85947C102.164 3.97518 97.0865 4.154 95.1528 4.48252C94.6454 4.56985 94.3543 4.66549 94.3543 4.66549C94.3294 4.65302 94.3003 4.64054 94.2753 4.62807C88.8817 2.22029 84.927 5.30175 84.927 5.30175C81.2509 6.02117 78.5354 9.05688 78.5354 9.05688C73.4204 11.132 73.1834 17.6858 73.1834 17.6858C72.9422 18.2181 72.7467 18.7171 72.5845 19.187C72.1562 19.9397 71.7986 20.7298 71.5491 21.5615C71.2538 22.5512 71.1415 23.6033 71.3786 24.618C71.4867 25.0755 71.6738 25.5246 71.9566 25.903C72.2726 26.323 72.6802 26.5891 73.1293 26.8553C73.3123 26.9634 73.5202 27.0923 73.62 27.2878C73.7572 27.5498 73.6366 27.8492 73.5036 28.0862C73.2249 28.5811 72.7592 28.9886 72.3683 29.3961C71.5491 30.2403 70.7174 31.072 69.9356 31.9495C69.1579 32.8186 68.4302 33.7293 67.8189 34.7273C67.1826 35.767 66.6337 36.948 66.484 38.1706C66.3343 39.4015 66.6587 40.7198 67.6359 41.5473C68.1432 41.9715 68.7795 42.1794 69.4324 42.1877C69.7734 42.1877 70.1144 42.1378 70.4429 42.0588C70.7589 41.9839 71.0334 41.8218 71.3162 41.6762C73.3705 41.618 75.2709 38.8692 75.3291 38.786C75.2335 38.8484 72.1188 40.7946 70.9378 36.7068C69.7401 32.5524 73.4952 30.0781 73.4952 30.0781L89.9546 52.767L83.9622 66.5067L124.865 70.424C124.865 70.424 127.701 68.274 127.589 64.4274C127.826 63.9284 127.976 63.3836 127.98 62.8305L127.984 62.8181ZM73.1917 26.0693C72.8008 25.8448 72.493 25.5287 72.2768 25.1295C71.8402 24.3186 71.8111 23.3206 71.9608 22.4348C71.9774 22.3225 72.0023 22.2102 72.0273 22.098C72.0065 24.1481 72.9214 25.3 73.4911 26.2398C73.3913 26.1816 73.2915 26.1234 73.1917 26.0693ZM69.5156 41.4808C68.9666 41.4808 68.451 41.3186 68.0393 40.9485C67.2325 40.2249 67.0537 39.073 67.2325 38.05C67.3947 37.106 67.8023 36.1995 68.2888 35.3636C67.8106 36.7609 67.8106 38.2538 68.7088 39.8132C69.1829 40.6366 69.6944 41.1398 70.21 41.4101C69.9813 41.4475 69.7526 41.4808 69.5156 41.4808ZM114.827 39.5886C117.051 40.1126 119.206 41.0316 120.823 42.6909C122.803 44.7161 123.281 47.5563 123.131 50.2843C123.073 51.3531 122.932 52.4135 122.769 53.4697C123.011 50.3966 123.106 46.446 119.114 42.4539C117.696 41.0358 116.224 40.1584 114.827 39.5928V39.5886ZM122.898 57.4037C123.065 57.6782 123.285 57.9235 123.589 58.1314C124.113 58.4974 124.724 58.7011 125.265 59.0421C125.751 59.3499 126.179 59.7574 126.529 60.2148C127.261 61.1796 127.543 62.2899 127.514 63.4876C127.514 63.5167 127.51 63.5416 127.51 63.5708C126.961 60.5808 123.842 59.5661 122.898 57.4037Z" fill="#286571"/>
<path d="M49.8912 132.926C48.5729 140 48.81 148.725 47.9783 156.068H123.172C122.274 151.132 121.384 147.265 121.147 146.263C121.11 146.096 121.089 146.009 121.089 146.009C121.147 145.893 121.21 145.772 121.268 145.656C135.611 117.136 139.366 85.1285 135.939 76.1128C134.924 73.443 132.841 70.7567 130.404 68.299C130.292 68.1825 130.175 68.0661 130.055 67.9497C124.27 62.2359 116.743 57.8195 116.743 57.8195C117.288 55.104 111.495 42.7907 100.084 45.1444C95.1732 46.1591 90.262 49.1199 86.2573 52.164C85.226 52.9458 84.2529 53.7359 83.3589 54.501C79.6619 57.6574 77.2667 60.3562 77.2667 60.3562C77.2667 60.3562 69.1201 65.0637 60.0629 80.0925C51.0098 95.1213 37.9688 121.378 37.9688 121.378C38.5135 130.252 49.887 132.918 49.887 132.918L49.8912 132.926Z" fill="white"/>
<path d="M112.785 54.7215C112.785 54.7215 105.52 62.7432 97.2156 73.2185C97.1906 73.2476 97.1698 73.2767 97.1449 73.31C96.9827 73.5138 96.8205 73.7258 96.65 73.9421C89.0774 83.7853 74.768 107.759 71.674 112.974C71.2873 113.627 71.0752 113.984 71.0752 113.984C71.1293 113.402 71.254 112.575 71.4328 111.552C71.4328 111.552 71.4328 111.543 71.4328 111.539C72.8342 103.546 77.7122 83.4526 81.2303 71.3721C81.4091 70.7483 81.5879 70.1495 81.7626 69.5756C82.2699 67.8873 82.7398 66.4027 83.1557 65.1926C86.8359 54.5302 89.5722 52.3594 89.5722 52.3594L105.333 45.8472C108.768 46.5708 110.643 48.1635 111.658 49.7978C111.766 49.9683 111.862 50.1388 111.949 50.3093C113.105 52.5466 112.785 54.7131 112.785 54.7131V54.7215Z" fill="#E6D9D2"/>
<path d="M96.2669 71.0353C95.8303 69.9249 95.4061 68.798 94.853 67.7376C94.2833 66.6397 93.5265 65.6126 92.4411 64.9805C92.3288 64.9139 92.1458 64.9597 92.071 65.0637C91.9837 65.1842 91.8963 65.3048 91.8132 65.4254C91.7716 65.4546 91.7425 65.492 91.705 65.5336C91.6551 65.5918 91.6094 65.6542 91.5678 65.7165C91.5138 65.7914 91.4639 65.8704 91.414 65.9494C91.1894 66.1573 91.0023 66.3902 90.8359 66.648C90.4908 67.1762 90.2288 67.75 89.9294 68.3031C89.6466 68.8229 89.3056 69.3386 88.8357 69.7045C88.5737 69.9042 88.2992 70.0206 87.9832 70.1162C87.6962 70.2036 87.4343 70.3283 87.2471 70.5695C87.0683 70.7982 86.9727 71.0561 86.8853 71.3347C86.8853 71.343 86.8853 71.3513 86.8812 71.3555C86.64 71.7921 86.4196 72.2412 86.195 72.6904C85.8 73.4805 85.4299 74.2831 85.0639 75.0857C84.3403 76.6617 83.6334 78.2461 82.9472 79.8388C81.5583 83.0534 80.2317 86.2928 78.9675 89.5531C77.7075 92.8009 76.5099 96.0736 75.3621 99.363C74.2185 102.648 73.1415 105.958 72.1226 109.289C71.8939 110.042 71.6652 110.795 71.4406 111.547C71.4406 111.547 71.4406 111.556 71.4406 111.56C71.2618 112.587 71.1371 113.41 71.083 113.993C71.083 113.993 71.2951 113.635 71.6818 112.982C71.8981 112.242 72.1185 111.498 72.3389 110.757C73.3369 107.431 74.4015 104.125 75.516 100.835C76.6346 97.5333 77.8198 94.2564 79.0632 91.0003C80.3024 87.7608 81.5957 84.5421 82.9555 81.3484C83.6334 79.7515 84.3237 78.1588 85.0265 76.5744C85.7251 74.99 86.4695 73.4181 87.1307 71.8171C87.2388 71.5509 87.3428 71.2848 87.4384 71.0145C87.4467 71.002 87.4551 70.9895 87.4634 70.9771C87.6463 70.7359 87.9083 70.6485 88.1953 70.5778C88.4864 70.5071 88.7567 70.4115 89.0145 70.2576C89.8462 69.7586 90.3036 68.877 90.7361 68.0287C90.8775 67.8041 91.0189 67.5837 91.1644 67.3675C91.5512 66.7977 91.9587 66.2488 92.3829 65.7041C94.1045 66.9641 94.799 69.1515 95.5517 71.0602C95.9301 72.0167 96.296 72.9815 96.6578 73.9462C96.8242 73.7258 96.9905 73.5179 97.1527 73.3141C96.8657 72.5573 96.5747 71.8004 96.2794 71.0436L96.2669 71.0353Z" fill="#C1A599"/>
<path d="M111.95 50.3176C111.796 50.4839 111.638 50.6461 111.471 50.8083C111.089 51.1867 110.685 51.5402 110.265 51.8729C110.049 52.0434 109.829 52.2056 109.6 52.3553C109.371 52.505 109.147 52.6048 108.889 52.688C108.806 52.7129 108.731 52.6131 108.789 52.5466C109.13 52.139 109.542 51.8188 109.949 51.4778C110.34 51.1451 110.719 50.7917 111.076 50.4257C111.276 50.222 111.467 50.0182 111.659 49.8061C111.767 49.9766 111.862 50.1471 111.95 50.3176Z" fill="#C1A599"/>
<path d="M86.6033 61.8408C86.1999 62.1361 85.8714 62.4313 85.6135 62.868C85.3557 63.3046 85.1727 63.7787 84.9856 64.2486C84.1955 66.2239 83.447 68.2366 82.2659 70.0206C81.9582 70.4822 81.6172 70.9438 81.2305 71.3721C81.4093 70.7484 81.5881 70.1537 81.7628 69.5757C82.4614 68.5111 83.0145 67.355 83.5301 66.1865C83.9543 65.2217 84.3452 64.2361 84.8193 63.2963C85.1603 62.6143 85.6967 61.741 86.5201 61.6121C86.649 61.5913 86.6947 61.7701 86.6033 61.8367V61.8408Z" fill="#C1A599"/>
<path d="M116.416 58.8467C115.833 60.0527 115.318 61.2877 114.748 62.502C114.178 63.7163 113.584 64.914 112.977 66.1075C111.75 68.5069 110.415 70.8482 108.98 73.1312C108.194 74.3787 107.375 75.6055 106.527 76.8156C103.266 76.7699 100.01 77.2897 96.9247 78.3418C96.0306 78.6454 95.1574 78.9947 94.3007 79.3856C94.1177 79.4687 94.0346 79.6725 94.151 79.8513C95.5898 82.1052 97.1243 84.2843 98.717 86.4301C94.7457 88.8878 91.0654 91.7862 87.6097 94.9259C84.0874 98.1238 80.8022 101.567 77.6126 105.093C75.812 107.085 73.9906 109.069 72.2856 111.144C72.1151 111.352 72.4186 111.602 72.6016 111.41C74.2401 109.68 75.7912 107.867 77.3922 106.108C78.9974 104.345 80.6234 102.598 82.2868 100.889C85.5928 97.5 89.0319 94.2314 92.7621 91.308C94.8538 89.6696 97.0287 88.1392 99.2951 86.7503C99.424 86.6713 99.4573 86.4717 99.3699 86.3511C97.7897 84.2302 96.3009 82.0345 94.8621 79.8139C96.7625 78.9656 98.7545 78.3252 100.8 77.9301C101.865 77.7222 102.946 77.5766 104.027 77.4934C104.568 77.4519 105.113 77.4269 105.653 77.4186C105.924 77.4144 106.198 77.4144 106.468 77.4186C106.585 77.4186 106.714 77.4435 106.818 77.3895C106.943 77.323 107.026 77.1566 107.105 77.0443C109.604 73.468 111.837 69.7087 113.779 65.7997C114.324 64.7019 114.844 63.5832 115.318 62.4521C115.796 61.3044 116.299 60.1608 116.682 58.9756C116.736 58.801 116.499 58.6804 116.416 58.855V58.8467Z" fill="#CEC4C0"/>
<path d="M64.2754 156.068C64.3752 154.759 64.4792 153.449 64.5956 152.139C64.9616 147.972 65.4149 143.809 65.9763 139.667C66.5418 135.509 67.2113 131.367 68.0264 127.25C68.8332 123.154 69.7896 119.095 70.8334 115.053C70.9665 114.542 71.0663 114.03 71.1661 113.514C71.191 113.39 70.9997 113.327 70.954 113.448C70.1847 115.377 69.694 117.432 69.1825 119.444C68.6668 121.465 68.1927 123.499 67.7644 125.541C66.8994 129.645 66.1759 133.779 65.5812 137.933C64.9782 142.112 64.4958 146.308 64.1008 150.513C63.9261 152.363 63.7722 154.218 63.6309 156.073H64.2837L64.2754 156.068Z" fill="#CEC4C0"/>
<path d="M71.7317 133.242C72.1101 129.217 72.2265 125.146 72.0477 121.108C72.0436 120.996 72.1475 120.9 72.2556 120.9C73.3077 120.908 74.3598 120.95 75.4036 120.912L40.1229 91.6656L1.19922 87.9853C1.19922 87.9853 47.3711 129.832 46.3523 129.741C45.5289 129.666 58.9443 131.5 71.7317 133.242Z" fill="#43A9BC"/>
<path d="M108.917 52.5965C108.917 52.5965 99.2905 61.0923 92.0713 63.4959L87.1144 70.2909L86.5488 61.7951C86.5488 61.7951 88.7528 61.1339 89.4057 56.3142C89.6552 54.447 89.676 51.9519 89.2394 48.6334L104.243 33.6295C104.243 33.6295 104.709 40.1085 106.194 45.868C106.871 48.492 107.761 50.9622 108.913 52.6006L108.917 52.5965Z" fill="#FF9E87"/>
<path d="M106.198 45.868C99.3278 56.127 92.5744 56.7425 89.4056 56.3183C89.6551 54.4512 89.6759 51.9561 89.2393 48.6376L104.243 33.6337C104.243 33.6337 104.709 40.1126 106.193 45.8722L106.198 45.868Z" fill="#E27560"/>
<path d="M85.9958 11.3607C85.8876 11.3233 85.8003 11.2567 85.6963 11.2193C85.5882 11.1819 85.4593 11.1652 85.3429 11.1445C85.0975 11.0987 84.848 11.0738 84.5985 11.0571C84.1078 11.0322 83.6213 11.0405 83.1347 11.0946C82.1782 11.2027 81.2343 11.4397 80.336 11.789C78.5354 12.4918 76.9468 13.6104 75.5413 14.9204C75.142 15.2905 74.7636 15.6772 74.4018 16.0806C74.0567 16.4632 73.6408 16.8749 73.4329 17.3489C73.3747 17.4779 73.5244 17.5985 73.6408 17.5236C74.0234 17.2741 74.3311 16.8874 74.6472 16.563C74.9632 16.2428 75.2793 15.9267 75.6078 15.6148C76.2732 14.9828 76.9801 14.3964 77.7286 13.8683C79.2507 12.7954 80.9848 11.9969 82.8311 11.7017C83.351 11.6185 83.8791 11.5769 84.4031 11.5686C84.6567 11.5686 84.9062 11.5769 85.1599 11.5853C85.293 11.5894 85.426 11.5977 85.5633 11.606C85.7005 11.6144 85.8253 11.5769 85.9625 11.5811C86.0831 11.5853 86.1122 11.3898 86.0041 11.3524L85.9958 11.3607Z" fill="#1B444B"/>
<path d="M85.983 7.54734C85.5298 7.11486 84.7729 7.0608 84.1824 7.06912C83.5378 7.07743 82.9057 7.19803 82.2778 7.34358C81.6665 7.48497 81.0552 7.65131 80.473 7.88002C80.1819 7.9923 79.895 8.13369 79.633 8.30003C79.4043 8.44974 79.1215 8.62856 79.0217 8.89054C79.0134 8.91133 79.03 8.94044 79.055 8.93629C79.3169 8.88638 79.5457 8.71173 79.7869 8.59529C80.0447 8.47053 80.3108 8.36241 80.5811 8.26677C81.1384 8.063 81.7206 7.93408 82.2986 7.80517C82.8849 7.6721 83.4838 7.55982 84.0868 7.54319C84.3945 7.53487 84.7022 7.5515 85.0058 7.6014C85.2969 7.65131 85.5921 7.73863 85.8874 7.7719C86.0121 7.78438 86.0787 7.64299 85.9872 7.55566L85.983 7.54734Z" fill="#1B444B"/>
<path d="M86.9769 5.28927C86.9312 5.25184 86.873 5.24352 86.8231 5.22689C86.7981 5.2061 86.7732 5.19362 86.7441 5.18946C86.7274 5.1853 86.7066 5.18115 86.6858 5.18115C86.6526 5.18115 86.6151 5.18115 86.5819 5.17699C86.4447 5.17699 86.3116 5.18946 86.1743 5.2061C86.0371 5.22273 85.8957 5.24768 85.7627 5.28511C85.6337 5.32253 85.509 5.36828 85.3801 5.40986C85.2761 5.44313 85.3094 5.61363 85.4217 5.60115C85.5547 5.58036 85.692 5.58036 85.825 5.5762C85.9498 5.57204 86.0787 5.55957 86.2035 5.55125C86.3282 5.54294 86.4571 5.54294 86.5819 5.53878C86.6651 5.53878 86.7316 5.5263 86.8064 5.49719C86.8605 5.4764 86.9146 5.46808 86.9645 5.43481C87.0102 5.40155 87.0185 5.33085 86.9728 5.29342L86.9769 5.28927Z" fill="#1B444B"/>
<path d="M103.045 14.5752C102.892 14.28 102.721 13.9847 102.534 13.7061C102.351 13.4358 102.16 13.1696 101.943 12.9243C101.831 12.7954 101.719 12.6789 101.594 12.5667C101.461 12.4502 101.295 12.3754 101.162 12.2589C101.116 12.2173 101.041 12.2839 101.079 12.3338C101.174 12.4585 101.224 12.6166 101.303 12.7496C101.386 12.8827 101.474 13.0158 101.565 13.1447C101.752 13.4108 101.939 13.6811 102.114 13.9556C102.284 14.2259 102.447 14.4962 102.596 14.7748C102.75 15.0618 102.896 15.3529 103.116 15.5899C103.199 15.6814 103.362 15.644 103.353 15.5067C103.332 15.174 103.199 14.8622 103.045 14.5669V14.5752Z" fill="#1B444B"/>
<path d="M102.189 9.42283C101.89 9.22322 101.64 8.93213 101.382 8.6743C101.137 8.42895 100.875 8.20023 100.596 7.98399C99.594 7.20634 98.4338 6.62831 97.2029 6.31226C96.5874 6.15424 95.9554 6.0586 95.3233 6.01701C94.7369 5.98374 94.1464 6.01701 93.56 6.02949C92.8198 6.80297 92.1087 7.60556 91.4392 8.44142C92.0131 8.2335 92.6161 8.13785 93.244 8.13785C94.9698 8.14201 96.575 8.82816 97.9015 9.90937C98.5544 10.4417 99.1449 11.0613 99.6564 11.735C100.164 12.4045 100.621 13.1197 100.912 13.9099C100.958 14.0346 100.792 14.1053 100.713 14.0138C100.143 13.311 99.6523 12.5459 99.0701 11.8556C98.0471 10.6454 96.8411 9.61828 95.3441 9.04856C94.005 8.53707 92.5121 8.42479 91.1356 8.83232C90.7406 9.33966 90.3622 9.85947 90.0004 10.3918C88.8526 12.0884 87.9378 13.9015 86.9688 15.7063C86.9106 15.8103 86.7151 15.7687 86.7567 15.6398C87.0977 14.5336 87.5801 13.4774 88.1332 12.4627C89.1229 10.6496 90.2915 8.9446 91.6222 7.36437C92.2876 6.57841 92.9945 5.82156 93.743 5.11461C93.9177 4.94827 94.0923 4.78193 94.2753 4.62391C94.3003 4.63639 94.3294 4.64886 94.3543 4.66134C94.3543 4.66134 94.6454 4.56569 95.1528 4.47836C95.1236 4.50331 95.0945 4.53242 95.0654 4.55737C94.6537 4.94412 94.242 5.33086 93.847 5.73839C93.8387 5.74671 93.8345 5.75087 93.8304 5.75502C94.4042 5.61364 94.9989 5.58868 95.5894 5.61364C96.9284 5.6677 98.2592 6.03364 99.4568 6.64079C100.051 6.94436 100.617 7.31031 101.137 7.73447C101.628 8.13369 102.226 8.63271 102.451 9.24401C102.509 9.40619 102.318 9.506 102.193 9.42283H102.189Z" fill="#1B444B"/>
<path d="M120.428 59.9113C120.15 59.6742 119.863 59.4455 119.642 59.1503C119.418 58.855 119.268 58.5223 119.135 58.1813C118.852 57.4661 118.752 56.6926 118.748 55.9233C118.74 53.9397 119.389 51.9685 118.835 50.0016C118.357 48.2882 117.076 47.0033 115.484 46.2838C113.933 45.5811 112.207 45.3108 110.718 44.4666C109.891 44.0008 109.217 43.3271 108.718 42.5204C108.472 42.1212 108.265 41.7053 108.107 41.2604C108.027 41.04 107.961 40.8196 107.907 40.595C107.845 40.3372 107.778 40.0835 107.761 39.8174C107.753 39.7051 107.591 39.7259 107.591 39.834C107.591 40.0461 107.562 40.2623 107.578 40.4744C107.595 40.6948 107.624 40.9152 107.67 41.1315C107.753 41.5515 107.882 41.9673 108.065 42.3582C108.427 43.1275 108.967 43.8137 109.62 44.3543C110.98 45.4771 112.743 45.8389 114.361 46.4294C115.163 46.7205 115.958 47.0781 116.623 47.6229C117.297 48.1718 117.821 48.8995 118.133 49.7063C118.89 51.6566 118.228 53.7359 118.183 55.7445C118.162 56.6094 118.278 57.5035 118.598 58.3102C118.89 59.0463 119.493 59.8863 120.278 60.1358C120.416 60.1816 120.549 60.0152 120.424 59.9071L120.428 59.9113Z" fill="#1B444B"/>
<path d="M123.273 60.6307C123.165 60.2855 122.986 59.9612 122.774 59.6659C122.558 59.3665 122.292 59.0879 122.005 58.8592C121.859 58.7427 121.706 58.6304 121.543 58.5306C121.473 58.4849 121.402 58.4433 121.327 58.4059C121.231 58.3601 121.136 58.3518 121.036 58.3186C121.003 58.3061 120.961 58.3435 120.986 58.3768C121.036 58.4392 121.065 58.514 121.115 58.5764C121.165 58.6388 121.227 58.6928 121.281 58.751C121.402 58.8758 121.527 58.9964 121.643 59.1253C121.872 59.3748 122.084 59.6368 122.271 59.9196C122.446 60.1816 122.595 60.4602 122.695 60.7596C122.799 61.0715 122.828 61.4083 122.949 61.7119C123.007 61.8533 123.203 61.8658 123.273 61.7244C123.435 61.3959 123.373 60.9717 123.265 60.6307H123.273Z" fill="#772D17"/>
<path d="M103.619 28.3898C103.619 28.3898 104.019 23.8362 107.532 22.8756C111.046 21.915 111.928 32.3819 105.295 34.6982C105.295 34.6982 104.738 42.8946 101.989 46.6997C100.168 49.2197 96.3461 53.6319 91.7926 53.9521C87.239 54.2723 84.2033 53.6319 80.5272 47.1613C76.851 40.6906 73.4951 30.0657 73.4951 30.0657C73.4951 30.0657 76.0526 27.6704 76.3728 23.9152C76.693 20.1601 80.3691 13.7685 87.397 14.3299C87.397 14.3299 92.1086 13.8516 94.9863 21.0417C97.864 28.2318 100.417 31.2675 103.615 28.3898H103.619Z" fill="#FFB19E"/>
<path d="M81.1594 32.6065C81.2925 33.2344 81.0929 33.8125 80.7103 33.8956C80.3277 33.9788 79.9077 33.5338 79.7746 32.9018C79.6415 32.2738 79.8411 31.6958 80.2237 31.6126C80.6063 31.5294 81.0263 31.9744 81.1594 32.6065Z" fill="black"/>
<path d="M92.7326 29.6914C92.8657 30.3193 92.6661 30.8974 92.2835 30.9805C91.9009 31.0637 91.4809 30.6187 91.3478 29.9866C91.2148 29.3587 91.4144 28.7807 91.797 28.6975C92.1796 28.6143 92.5996 29.0593 92.7326 29.6914Z" fill="black"/>
<path d="M93.7057 25.0921C93.8138 25.4913 91.5059 25.4206 89.6678 25.9279C87.8297 26.4353 87.1561 27.3294 87.0438 26.9301C86.9357 26.5309 87.4097 25.2709 89.2519 24.7636C91.09 24.2562 93.5976 24.697 93.7057 25.0962V25.0921Z" fill="#944426"/>
<path d="M75.7741 30.2403C75.9155 30.6395 77.2545 29.4169 78.6185 28.9304C79.9784 28.4438 80.8475 28.8722 80.7061 28.473C80.5647 28.0737 79.6207 27.2296 78.2567 27.7203C76.8969 28.2068 75.6286 29.8453 75.7741 30.2445V30.2403Z" fill="#944426"/>
<path d="M84.3362 45.5935C84.3362 45.5935 84.3695 44.5165 86.5943 43.7056C88.8191 42.8947 92.8279 43.1982 93.5681 42.9279L93.0025 43.5267C93.0025 43.5267 93.2437 46.2672 89.4428 47.3734C89.4428 47.3734 86.141 48.4629 86.2366 45.9636C86.2366 45.9636 84.5233 45.8347 84.332 45.5935H84.3362Z" fill="#E27560"/>
<path d="M74.0277 68.6233C73.8863 69.1348 74.3229 69.6671 74.5683 70.0788C75.6869 71.9751 76.7973 73.8755 77.9076 75.7718C77.9949 75.9174 77.9866 76.1461 77.8203 76.2459C76.5228 76.9986 75.2253 77.7513 73.9279 78.504C73.2875 78.8741 72.6471 79.2483 72.0067 79.6184C71.7447 79.7723 71.4328 79.9095 71.2124 80.1216C70.9878 80.342 71.0086 80.6622 71.0128 80.9533C71.0918 86.3219 71.1833 91.6906 71.2706 97.0551C71.3122 99.7498 71.3496 102.444 71.3829 105.139C71.3995 106.495 71.4161 107.855 71.4286 109.215C71.4369 110.524 71.5201 111.851 71.3579 113.153C71.333 113.352 71.0502 113.319 71.0253 113.14C70.7882 111.622 70.8548 110.05 70.8132 108.516C70.7757 106.973 70.7508 105.426 70.7175 103.879C70.6094 98.3899 70.5304 92.8966 70.4389 87.4032C70.4181 86.0475 70.3932 84.6877 70.3724 83.3278C70.3599 82.6167 70.3516 81.9098 70.3391 81.1987C70.3308 80.683 70.2934 80.1299 70.6593 79.7141C71.0377 79.2858 71.6615 79.0321 72.1522 78.7451C72.7386 78.4042 73.3249 78.0673 73.9113 77.7222C74.9925 77.0942 76.0778 76.4663 77.1591 75.8384C76.5602 74.8112 75.9614 73.7882 75.3626 72.7652C75.0382 72.2121 74.7138 71.6549 74.3895 71.0977C74.0859 70.5778 73.7366 70.0622 73.4954 69.5091C73.3041 69.0725 73.2875 68.6275 73.4829 68.1909C73.6867 67.7293 73.9986 67.2968 74.2647 66.8685C74.797 66.0035 75.3459 65.1468 75.9073 64.3027C77.0426 62.5977 78.2361 60.9301 79.4961 59.3166C80.5482 57.9692 81.6419 56.6385 82.7855 55.3535C83.6796 54.5884 84.6527 53.7983 85.684 53.0165C84.9479 53.8232 84.216 54.63 83.5008 55.4575C80.9142 58.4475 78.4939 61.5664 76.3107 64.8599C75.7618 65.6874 75.2253 66.5316 74.7097 67.3758C74.4727 67.7625 74.14 68.1784 74.0194 68.6192L74.0277 68.6233Z" fill="#CEC4C0"/>
<path d="M70.979 135.779C70.979 135.779 49.4629 122.85 48.049 120.68C46.6351 118.509 37.5737 107.655 37.4822 106.146C37.4822 106.146 36.9167 104.258 37.6694 103.314C38.4262 102.37 42.4807 105.484 42.4807 105.484C42.4807 105.484 39.9316 102.935 40.9712 101.991C42.0108 101.047 47.0094 104.349 49.8413 107.938C52.6732 111.523 57.2975 114.354 60.5994 115.203C60.5994 115.203 57.7674 102.557 59.0898 101.896C60.4122 101.234 64.0925 108.878 65.8848 112.088C67.6771 115.298 68.434 116.617 69.6608 120.297L71.8315 123.033C71.8315 123.033 71.9271 132.847 70.9832 135.771L70.979 135.779Z" fill="#FF9E87"/>
<path d="M51.1229 116.23C50.8235 115.881 50.4992 115.552 50.1914 115.207C49.8962 114.87 49.6134 114.525 49.3389 114.171C48.7692 113.444 48.2577 112.679 47.7504 111.909C46.7315 110.362 45.7917 108.757 44.6273 107.314C43.9703 106.499 43.2509 105.771 42.361 105.21C42.2237 105.123 42.0907 105.281 42.1988 105.401C43.4588 106.757 44.5774 108.204 45.5963 109.747C46.6151 111.294 47.5591 112.895 48.7401 114.329C49.3764 115.103 50.0958 115.901 50.9691 116.413C51.073 116.471 51.1978 116.321 51.1229 116.23Z" fill="#D86E59"/>
<path d="M48.257 117.81C47.5458 117.062 46.8888 116.251 46.3149 115.394C45.7369 114.529 45.2212 113.618 44.6682 112.737C43.537 110.936 42.1523 109.281 40.5762 107.851C40.1271 107.443 39.6613 107.052 39.1789 106.686C38.7298 106.345 38.2266 105.925 37.6819 105.751C37.6528 105.742 37.6195 105.771 37.6403 105.796C37.9605 106.208 38.4262 106.524 38.8213 106.865C39.2205 107.21 39.6156 107.559 39.9982 107.925C40.7841 108.678 41.5243 109.468 42.2146 110.312C42.9008 111.148 43.5329 112.026 44.1109 112.936C44.6682 113.818 45.1797 114.729 45.7618 115.594C46.0862 116.072 46.4314 116.534 46.8223 116.962C47.0052 117.166 47.2049 117.353 47.4086 117.536C47.6332 117.731 47.8702 117.873 48.1239 118.022C48.2528 118.097 48.3401 117.91 48.2528 117.818L48.257 117.81Z" fill="#D86E59"/>
<path d="M130.405 68.3031C127.502 70.2119 125.248 72.9648 123.452 75.9174C122.362 77.7097 121.414 79.5769 120.499 81.4607C119.535 83.4484 118.591 85.4445 117.638 87.4406C115.721 91.466 113.813 95.4956 111.937 99.5377C110.057 103.601 108.207 107.676 106.415 111.776C104.689 115.718 103.017 119.686 101.412 123.678C101.453 123.67 101.495 123.661 101.528 123.653C102.185 123.499 102.855 123.383 103.524 123.287C104.859 123.091 106.269 122.863 107.612 123.071C107.741 123.091 107.779 123.308 107.637 123.341C106.514 123.595 105.35 123.628 104.206 123.773C103.62 123.848 103.034 123.936 102.447 124.031C102.385 124.044 102.323 124.052 102.264 124.065C104.044 124.48 105.816 124.954 107.533 125.57C107.77 125.657 107.641 126.044 107.404 125.99C104.843 125.391 102.298 124.713 99.7193 124.185C95.1325 123.245 90.4916 122.588 85.8341 122.081C81.3055 121.586 76.7602 121.237 72.2191 120.892C72.2482 122.563 72.2358 124.239 72.1775 125.911C71.9571 132.182 71.1254 138.424 69.6908 144.533C70.011 144.687 70.3353 144.836 70.6638 144.974C72.3106 145.668 74.0322 146.171 75.7622 146.608C77.5503 147.061 79.3551 147.465 81.1558 147.851C84.8194 148.641 88.5038 149.328 92.2049 149.914C95.8977 150.5 99.6154 150.995 103.337 151.357C106.864 151.702 110.544 151.856 113.966 150.775C115.372 150.334 116.703 149.693 117.913 148.849C118.499 148.438 119.052 147.976 119.551 147.456C120.046 146.941 120.57 146.354 120.932 145.73C121.011 145.597 121.165 145.589 121.269 145.651C121.36 145.701 121.414 145.801 121.344 145.922C121.277 146.034 121.215 146.146 121.152 146.259C121.04 146.462 120.924 146.666 120.795 146.866C119.988 148.097 118.778 149.124 117.53 149.893C116.254 150.683 114.848 151.265 113.393 151.64C109.779 152.575 105.995 152.317 102.327 151.931C98.5342 151.532 94.7541 151.02 90.9906 150.405C87.2106 149.785 83.4471 149.061 79.7044 148.23C76.1281 147.435 72.4562 146.666 69.1501 145.032C69.0212 144.969 68.9214 144.811 68.9547 144.662C69.3664 142.936 69.7282 141.198 70.0442 139.451C71.167 133.217 71.6619 126.876 71.5205 120.546C71.5163 120.305 71.691 120.16 71.9239 120.176C74.5604 120.376 77.1927 120.576 79.8292 120.8C84.52 121.204 89.2025 121.694 93.8517 122.422C96.1513 122.784 98.4427 123.208 100.713 123.707C100.905 123.233 101.096 122.759 101.287 122.285C102.98 118.101 104.751 113.951 106.577 109.826C108.398 105.696 110.278 101.592 112.182 97.5C114.083 93.4247 116.012 89.366 117.95 85.3114C119.797 81.4523 121.543 77.4893 124.001 73.9712C125.082 72.4201 126.33 70.9854 127.735 69.717C128.467 69.0558 129.241 68.4653 130.06 67.9455C130.176 68.0578 130.293 68.1742 130.409 68.2948L130.405 68.3031Z" fill="#CEC4C0"/>
<path d="M40.7638 92.2728C40.743 92.2728 40.7181 92.2728 40.6973 92.2728L0.567676 88.659C0.155984 88.6216 -0.147587 88.2598 -0.110161 87.8481C-0.0727342 87.4364 0.289056 87.1329 0.700748 87.1703L40.8303 90.7799C41.242 90.8173 41.5456 91.1791 41.5082 91.5908C41.4749 91.9775 41.1464 92.2728 40.7638 92.2728Z" fill="#286571"/>
<path d="M118.445 58.801C118.416 58.5306 118.046 58.5805 118.037 58.8384C117.975 60.6307 117.376 62.3523 116.74 64.0074C116.145 65.5544 115.497 67.0805 114.798 68.5859C113.413 71.5759 111.837 74.4744 110.111 77.2814C108.39 80.0884 106.518 82.7997 104.56 85.4445C102.576 88.1143 100.497 90.7133 98.3635 93.2584C96.226 95.8075 94.0345 98.3068 91.8221 100.789C91.5518 101.093 91.2857 101.397 91.0237 101.708C90.7576 102.029 91.2316 102.42 91.5144 102.12C92.6746 100.906 93.7642 99.6209 94.8703 98.3608C95.9723 97.105 97.0619 95.8408 98.1431 94.5641C100.31 92.0025 102.422 89.3951 104.439 86.717C106.448 84.0514 108.365 81.311 110.14 78.4832C111.908 75.672 113.538 72.7694 114.968 69.7753C115.688 68.2699 116.357 66.7395 116.969 65.1843C117.289 64.3733 117.597 63.5583 117.867 62.7307C118.137 61.8949 118.403 61.0174 118.466 60.1358C118.495 59.6909 118.495 59.2501 118.449 58.8051L118.445 58.801Z" fill="#666D91"/>
<path d="M91.9838 105.609C90.3412 108.811 87.6548 110.712 85.9831 109.855C84.3155 108.998 84.2947 105.709 85.9373 102.503C87.5799 99.3007 90.2663 97.3961 91.938 98.2569C93.6056 99.1135 93.6264 102.403 91.9838 105.609Z" fill="#666D91"/>
<path d="M89.5886 104.012C88.5489 106.033 86.9271 107.277 85.9665 106.782C85.0059 106.287 85.0683 104.249 86.1079 102.224C87.1475 100.203 88.7693 98.9596 89.7299 99.4545C90.6906 99.9494 90.6282 101.987 89.5886 104.012Z" fill="#475177"/>
<path d="M87.4644 98.3192L89.8098 99.5917L85.9881 106.67L83.7051 105.647L87.4644 98.3192Z" fill="#475177"/>
<path d="M87.3268 102.877C86.2872 104.902 84.6654 106.141 83.7048 105.647C82.7442 105.152 82.8065 103.114 83.8462 101.089C84.8858 99.0678 86.5076 97.8244 87.4682 98.3192C88.4288 98.8141 88.3665 100.852 87.3268 102.877Z" fill="#9598AE"/>
<path d="M79.5828 57.9318C78.6596 58.7469 77.9235 59.7865 77.1708 60.7596C76.3974 61.7577 75.6488 62.7806 74.9003 63.8036C73.4074 65.8496 71.9436 67.9122 70.5089 69.9998C70.1138 70.5695 69.7271 71.1434 69.3362 71.7173C69.1324 72.0167 68.9328 72.3161 68.7332 72.6197C68.6126 72.8026 68.4671 72.9815 68.3673 73.1728C67.4399 72.9399 66.4752 73.2684 65.7349 73.8548C64.9074 74.5076 64.3543 75.4225 63.8428 76.3249C62.6535 78.4291 61.4766 80.5416 60.2956 82.6542C59.1104 84.775 57.9253 86.9 56.7401 89.0208C56.1496 90.0771 55.5632 91.1292 54.9727 92.1855C54.4321 93.1544 53.879 94.1316 53.5297 95.1921C53.1846 96.2358 53.0307 97.3295 53.2636 98.4149C53.4715 99.388 53.9622 100.336 54.8064 100.91C55.1682 101.155 55.6173 100.644 55.2513 100.382C53.7834 99.3256 53.6046 97.3794 54.062 95.7535C54.3448 94.7554 54.8396 93.8239 55.3428 92.9215C55.8917 91.9318 56.4448 90.9462 56.9979 89.9565C59.2477 85.9269 61.4974 81.9015 63.7389 77.8677C64.6537 76.2209 65.7682 73.6843 67.9514 73.6759C68.6417 73.9088 69.2239 74.3247 69.6564 74.9318C70.197 75.6887 70.3925 76.5786 70.3841 77.4976C70.3717 78.5871 70.0598 79.6559 69.7521 80.6913C69.4277 81.7684 69.0867 82.8371 68.7332 83.9017C67.311 88.16 65.6518 92.3352 63.9052 96.4687C63.4228 97.6123 62.9487 98.7642 62.4372 99.8912C62.2418 100.319 62.0089 100.798 61.5847 101.047C61.2521 101.243 60.7946 101.263 60.4744 101.031C60.2124 100.843 59.859 101.135 60.0461 101.421C60.6241 102.291 61.8592 101.908 62.4456 101.268C62.799 100.881 63.0153 100.394 63.2232 99.9203C63.4644 99.3714 63.7014 98.8183 63.9343 98.2652C64.8824 96.057 65.8056 93.8405 66.6914 91.6074C67.5855 89.3452 68.4338 87.0663 69.2198 84.7667C69.6065 83.6272 69.9766 82.4837 70.3259 81.3359C70.6711 80.2089 71.0204 79.0612 71.0911 77.8802C71.1576 76.72 70.9455 75.5639 70.2552 74.6074C69.9392 74.1666 69.5067 73.7591 69.0077 73.5096C69.0867 73.4015 69.1574 73.2809 69.2364 73.1644C69.4194 72.89 69.6023 72.6114 69.7895 72.3369C70.143 71.8129 70.4964 71.2848 70.8499 70.7608C71.561 69.7129 72.2763 68.6691 72.9998 67.6295C74.4304 65.5752 75.8817 63.5375 77.3455 61.504C77.753 60.9426 78.1564 60.377 78.5515 59.8032C78.9507 59.221 79.3582 58.6471 79.6659 58.0108C79.6867 57.9693 79.6285 57.9152 79.5911 57.9485L79.5828 57.9318Z" fill="#666D91"/>
<path d="M56.5119 100.344C55.9962 101.001 55.2976 101.309 54.9483 101.035C54.599 100.76 54.7362 100.008 55.2519 99.3506C55.7675 98.6935 56.4662 98.3858 56.8155 98.6602C57.1648 98.9347 57.0276 99.6874 56.5119 100.344Z" fill="#475177"/>
<path d="M60.9238 99.8579C60.799 100.681 60.3416 101.297 59.905 101.23C59.4683 101.164 59.2146 100.44 59.3394 99.6167C59.4642 98.7933 59.9216 98.1779 60.3582 98.2444C60.7949 98.3109 61.0485 99.0345 60.9238 99.8579Z" fill="#475177"/>
<path d="M85.6388 38.8193C85.643 38.8609 85.5057 38.9274 85.2396 38.9981C85.1065 39.0314 84.936 39.0647 84.7323 39.0771C84.5285 39.0896 84.2873 39.0813 84.0211 38.9981C83.7633 38.915 83.4764 38.7611 83.2643 38.47C83.1603 38.3245 83.0813 38.1456 83.0522 37.9585C83.0189 37.7714 83.0273 37.5842 83.0522 37.4096C83.0772 37.2308 83.1187 37.0644 83.1603 36.8981C83.2019 36.7359 83.2393 36.5779 83.2809 36.4157C83.3516 36.0872 83.4223 35.7462 83.4722 35.3927C83.6885 33.9788 83.6302 32.673 83.5304 31.7374C83.4306 30.7976 83.3059 30.2154 83.3974 30.1863C83.4722 30.1613 83.755 30.7019 83.9754 31.6625C84.1958 32.6148 84.333 33.9913 84.1002 35.4842C84.0461 35.8585 83.9671 36.2161 83.8839 36.5613C83.8382 36.7318 83.7924 36.9022 83.7425 37.0603C83.6968 37.2183 83.651 37.3638 83.6261 37.5011C83.572 37.7755 83.5928 37.9959 83.7009 38.1748C83.8091 38.3536 83.992 38.4908 84.1792 38.5781C84.5576 38.7486 84.9485 38.7403 85.2105 38.7528C85.4766 38.7611 85.6305 38.7777 85.6388 38.8193Z" fill="#E27560"/>
<path d="M107.259 29.0011C107.163 29.0468 107.076 29.0967 106.997 29.1508C107.001 29.1217 107.009 29.0884 107.013 29.0593C107.338 27.3751 107.92 26.086 107.753 25.9986C107.679 25.9571 107.433 26.2357 107.15 26.7555C106.868 27.2753 106.564 28.0446 106.389 28.9345C106.215 29.8245 106.202 30.652 106.265 31.2384C106.327 31.8289 106.452 32.1782 106.535 32.1699C106.693 32.1532 106.681 31.1344 106.88 29.8037C107.051 29.7746 107.275 29.6914 107.516 29.5833C107.936 29.392 108.286 29.1841 108.252 29.0094C108.228 28.8389 107.758 28.7724 107.254 29.0011H107.259Z" fill="#E27560"/>
<path d="M94.2673 42.2459C94.3255 42.3041 94.0136 42.7325 93.3773 43.298C93.0613 43.5808 92.6579 43.8885 92.1838 44.2004C91.7098 44.504 91.165 44.8076 90.5703 45.0737C89.9715 45.3357 89.381 45.5312 88.8362 45.6767C88.2873 45.8139 87.7883 45.9054 87.3641 45.947C86.5158 46.0343 85.9877 45.9761 85.9835 45.8929C85.9669 45.7016 88.0295 45.5104 90.3125 44.4915C92.608 43.4976 94.1383 42.1045 94.2673 42.2459Z" fill="#B54B3C"/>
</g>
</g>
<defs>
<clipPath id="clip0_9463_29471">
<rect width="144.607" height="160" fill="white"/>
</clipPath>
</defs>
</svg>
