<svg width="32" height="39" viewBox="0 0 32 39" fill="none" xmlns="http://www.w3.org/2000/svg">
<path fill-rule="evenodd" clip-rule="evenodd" d="M24.8321 13.918C27.0473 16.1236 28.4157 19.1758 28.4157 22.548C28.4157 27.1616 25.848 31.178 22.0668 33.2428L21.2674 31.8553L21.0418 31.4601C20.943 31.2485 20.7314 31.1026 20.4821 31.1026L13.6532 31.103V31.1076C13.4416 31.1076 13.2394 31.2158 13.1219 31.4134L11.711 33.8588C9.41138 32.9369 7.45952 31.3379 6.10043 29.3063H12.7974C13.8274 29.833 14.9983 30.1293 16.2352 30.1293C20.4209 30.1293 23.8163 26.7339 23.8163 22.5482C23.8163 20.8834 23.2803 19.3408 22.3678 18.0898C22.7065 17.8782 23.0216 17.6289 23.3036 17.3468C24.1878 16.458 24.7615 15.2541 24.8319 13.9184L24.8321 13.918ZM2.60566 38.5195V36.3327H10.9907L9.73042 38.5195H31.5284V36.3327H23.1433L20.7355 32.1659L20.4769 31.719H13.6527L13.394 32.1659L9.72568 38.5195H2.60566ZM17.0677 32.5562C16.3621 32.5562 15.718 32.8432 15.2571 33.3085C14.7915 33.7741 14.5094 34.4136 14.5094 35.1191C14.5094 35.8246 14.7965 36.4689 15.2571 36.9298C15.7227 37.3954 16.3622 37.6821 17.0677 37.6821C17.7732 37.6821 18.4128 37.3951 18.8784 36.9298C19.344 36.4642 19.6307 35.8246 19.6307 35.1191C19.6307 34.4136 19.3436 33.7741 18.8784 33.3085C18.4125 32.8429 17.773 32.5562 17.0677 32.5562ZM18.013 34.1739C17.773 33.9339 17.4392 33.7834 17.0677 33.7834C16.7009 33.7834 16.3671 33.9339 16.1225 34.1739C15.8825 34.4139 15.732 34.7476 15.732 35.1191C15.732 35.486 15.8825 35.8197 16.1225 36.0644C16.3624 36.3044 16.6962 36.4549 17.0677 36.4549C17.4345 36.4549 17.7683 36.3044 18.013 36.0644C18.2529 35.8244 18.4035 35.4907 18.4035 35.1191C18.4031 34.7477 18.2526 34.4139 18.013 34.1739ZM24.3195 0.519531L22.9791 1.85995L22.2124 1.09797L7.05546 16.2605L7.83147 17.0365L6.48172 18.3676L9.91952 21.8054L11.2693 20.4743L12.0216 21.2266L15.9016 17.3466C14.9564 16.4013 14.3683 15.0893 14.3683 13.6454C14.3683 12.2015 14.9561 10.8895 15.9016 9.94428C16.8469 8.99439 18.1589 8.41095 19.6028 8.41095C21.0467 8.41095 22.3587 8.99872 23.3039 9.94428L27.184 6.06425L26.422 5.29759L27.7624 3.95718L24.3195 0.519531ZM19.6024 9.01789C17.0487 9.01789 14.9794 11.0873 14.9794 13.6408C14.9794 16.1945 17.0488 18.2638 19.6024 18.2638C22.156 18.2638 24.2253 16.1944 24.2253 13.6408C24.2253 11.0919 22.1513 9.01789 19.6024 9.01789ZM19.6024 11.3506C18.3374 11.3506 17.3074 12.3759 17.3074 13.6456C17.3074 14.9105 18.3327 15.9406 19.6024 15.9406C20.8673 15.9406 21.8974 14.9152 21.8974 13.6456C21.8927 12.3756 20.8677 11.3506 19.6024 11.3506ZM0.470703 25.582V28.6954H16.9784V25.582H0.470703Z" fill="#69BAC9"/>
</svg>
