<svg width="21" height="22" viewBox="0 0 21 22" fill="none" xmlns="http://www.w3.org/2000/svg">
<g clip-path="url(#clip0_7128_7698)">
<path d="M7.09451 9.64041H13.0731V10.2533H7.09451V9.64041ZM7.09451 11.1727H13.0731V11.7856H7.09451V11.1727ZM7.09451 12.7049H13.0731V13.3178H7.09451V12.7049Z" fill="#EB6247" stroke="#EB6247" stroke-width="0.25"/>
<path d="M20 4.10358V3.64389C20 2.25936 18.913 1.12671 17.5484 1.04672V1.03906H8.20163C6.76529 1.03906 5.5968 2.20755 5.5968 3.64389V15.1358H1V15.5955C1 17.0318 2.16849 18.2003 3.60483 18.2003H12.7984C12.909 18.2003 13.019 18.1908 13.1284 18.177C13.7622 19.2873 14.9552 20.039 16.3226 20.039C18.3504 20.039 20 18.3894 20 16.3616C20 14.909 19.1646 13.6197 17.8549 13.0209V9.92608H18.4678V9.31317H15.4033V4.10358H20ZM19.3813 3.49066H15.4087C15.4875 2.46343 16.348 1.65198 17.3949 1.65198C18.4417 1.65198 19.3028 2.46343 19.3813 3.49066ZM3.60483 17.5875C2.55797 17.5875 1.69716 16.7759 1.61871 15.7488H10.1981C10.241 16.4849 10.591 17.1401 11.1217 17.5875H3.60483ZM16.3226 19.4261C14.6328 19.4261 13.2581 18.0514 13.2581 16.3616C13.2581 16.0429 13.3065 15.734 13.3975 15.4423H15.7376C15.8841 16.3104 16.6392 16.9745 17.5487 16.9745C18.3783 16.9745 19.0807 16.422 19.3087 15.666C19.361 15.8942 19.3873 16.1276 19.3871 16.3617C19.3871 18.0514 18.0123 19.4261 16.3226 19.4261ZM16.3661 15.4423H18.7307C18.5937 15.9694 18.1181 16.3617 17.5484 16.3617C16.9787 16.3617 16.5031 15.9694 16.3661 15.4423ZM17.4369 13.5092C18.1053 13.7706 18.64 14.2409 18.9795 14.8293H13.6659C14.0052 14.2413 14.5403 13.7708 15.2086 13.5092L15.4032 13.4332V9.92615H17.2419V13.4332L17.4369 13.5092ZM14.1774 9.31323V9.92615H14.7903V13.021C13.4806 13.6198 12.6452 14.909 12.6452 16.3616C12.6452 16.7907 12.7231 17.2013 12.8585 17.5844C12.8383 17.585 12.8183 17.5875 12.7984 17.5875C11.7001 17.5875 10.8065 16.6938 10.8065 15.5956V15.1359H6.20965V3.64389C6.20965 2.54555 7.10329 1.65198 8.20157 1.65198H15.7201C15.1522 2.13007 14.7903 2.84531 14.7903 3.64389V9.31323H14.1774Z" fill="#43A9BC" stroke="#43A9BC" stroke-width="0.2"/>
<path d="M15.4032 16.4195C14.8963 16.4195 14.4838 16.8321 14.4838 17.3389C14.4838 17.8458 14.8963 18.2583 15.4032 18.2583C15.9101 18.2583 16.3226 17.8458 16.3226 17.3389C16.3226 16.8321 15.9101 16.4195 15.4032 16.4195ZM15.4032 17.6454C15.234 17.6454 15.0967 17.5078 15.0967 17.3389C15.0967 17.17 15.234 17.0325 15.4032 17.0325C15.5724 17.0325 15.7097 17.17 15.7097 17.3389C15.7097 17.5078 15.5724 17.6454 15.4032 17.6454ZM13.2581 2.93565C12.7512 2.93565 12.3387 3.34817 12.3387 3.85503C12.3387 4.09681 12.4343 4.31529 12.5872 4.47959L12.0123 5.43784C11.9217 5.40752 11.8266 5.38725 11.7258 5.38725C11.4785 5.38725 11.2548 5.48655 11.0894 5.64589L10.4608 5.33146C10.4838 5.25114 10.5 5.16812 10.5 5.0808C10.5 4.57394 10.0876 4.16142 9.58063 4.16142C9.07371 4.16142 8.66126 4.57394 8.66126 5.0808C8.66126 5.25391 8.7121 5.41422 8.79576 5.55245L8.05079 6.6701C7.95361 6.63548 7.85064 6.61308 7.74188 6.61308C7.23502 6.61308 6.82251 7.0256 6.82251 7.53246C6.82251 8.03932 7.23496 8.45183 7.74188 8.45183C8.24881 8.45183 8.66126 8.03932 8.66126 7.53246C8.66126 7.35934 8.61042 7.19904 8.52676 7.0608L9.27173 5.94315C9.3689 5.97777 9.47187 6.00017 9.58063 6.00017C9.77402 6.00017 9.95325 5.93948 10.1013 5.83716L10.8175 6.19542C10.8132 6.23217 10.8065 6.26866 10.8065 6.30669C10.8065 6.81355 11.2189 7.22606 11.7258 7.22606C12.2328 7.22606 12.6452 6.81355 12.6452 6.30669C12.6452 6.12585 12.591 5.95827 12.5003 5.81573L13.1328 4.76185C13.1742 4.76739 13.2153 4.7744 13.2582 4.7744C13.765 4.7744 14.1776 4.36189 14.1776 3.85503C14.1776 3.34817 13.7649 2.93565 13.2581 2.93565ZM7.74195 7.83892C7.57276 7.83892 7.43549 7.70132 7.43549 7.53246C7.43549 7.36359 7.57276 7.226 7.74195 7.226C7.91114 7.226 8.04841 7.36359 8.04841 7.53246C8.04841 7.70132 7.91114 7.83892 7.74195 7.83892ZM9.27417 5.08086C9.27417 4.91199 9.41144 4.7744 9.58063 4.7744C9.74982 4.7744 9.88709 4.91199 9.88709 5.08086C9.88709 5.24973 9.74982 5.38732 9.58063 5.38732C9.49938 5.38722 9.4215 5.35489 9.36405 5.29744C9.3066 5.23999 9.27428 5.16211 9.27417 5.08086ZM11.7258 6.61308C11.5566 6.61308 11.4194 6.47549 11.4194 6.30663C11.4194 6.13776 11.5566 6.00017 11.7258 6.00017C11.895 6.00017 12.0323 6.13776 12.0323 6.30663C12.0323 6.47549 11.895 6.61308 11.7258 6.61308ZM13.2581 4.16149C13.0889 4.16149 12.9516 4.0239 12.9516 3.85503C12.9516 3.68616 13.0889 3.54857 13.2581 3.54857C13.4273 3.54857 13.5645 3.68616 13.5645 3.85503C13.5645 4.0239 13.4273 4.16149 13.2581 4.16149Z" fill="#EB6247" stroke="#EB6247" stroke-width="0.2"/>
</g>
<defs>
<clipPath id="clip0_7128_7698">
<rect width="20" height="21" fill="white" transform="translate(0.5 0.0195312)"/>
</clipPath>
</defs>
</svg>
