<svg width="29" height="31" viewBox="0 0 29 31" fill="none" xmlns="http://www.w3.org/2000/svg">
<g clip-path="url(#clip0_9377_29110)">
<path d="M21.0035 16.0643L21.4789 16.2248C21.6466 16.3447 21.6293 16.5296 21.6303 16.6982C21.6349 18.2334 21.449 19.7631 21.0766 21.2524C20.9598 21.7278 20.842 21.8345 20.3472 21.8121C19.3629 21.7684 18.7767 22.2743 18.4069 23.1226C18.1022 23.8337 17.8066 24.5499 17.4672 25.2447C17.2895 25.6105 17.3128 25.9 17.6054 26.1753C17.7385 26.3012 17.8248 26.475 18.0351 26.5816C17.9965 26.3551 17.8543 26.2312 17.7365 26.0991C17.6369 25.9989 17.5714 25.87 17.5491 25.7305C17.5269 25.591 17.5491 25.4481 17.6125 25.3219C17.9539 24.5092 18.2972 23.6965 18.6812 22.9072C18.8726 22.5122 19.2072 22.2048 19.617 22.0477C20.0269 21.8904 20.4812 21.8952 20.8877 22.061C21.7786 22.4348 22.2286 23.3664 21.9036 24.2573C21.5917 25.1086 21.1975 25.9274 20.8237 26.7543C20.7724 26.8788 20.6862 26.9857 20.5756 27.0623C20.4649 27.139 20.3344 27.1819 20.1999 27.1861C20.0523 27.1859 19.9068 27.2206 19.7753 27.2877C20.3564 27.4725 20.7404 27.307 20.9791 26.7797C21.3154 26.0392 21.6364 25.2915 21.9584 24.5448C22.2896 23.7778 22.2246 22.8585 21.485 22.254C21.23 22.0447 21.0787 21.808 21.164 21.4555C21.4898 20.0381 21.6937 18.5954 21.7735 17.1432C21.8965 16.9085 21.6892 16.5458 21.9229 16.3426C22.8026 16.8364 23.7961 17.3077 24.6129 17.8908C26.0351 18.9067 26.8986 20.3432 27.2694 22.0397C27.4808 22.9581 27.6039 23.8945 27.6372 24.8364C27.69 27.1048 27.6483 27.3743 27.6646 29.6427C27.6646 30.0054 27.5478 30.0877 27.2054 30.0866C22.6137 30.0759 18.0222 30.0728 13.4312 30.0775C13.2585 30.0775 13.0848 30.0836 12.9111 30.0877C9.12184 30.0877 5.33263 30.0765 1.54343 30.0877C1.16654 30.0877 1.0426 29.9983 1.04565 29.6041C1.06495 27.2422 1.01009 26.8793 1.0741 24.5194C1.12895 22.5293 1.61047 20.6428 2.89251 19.0428C3.89721 17.7903 5.33771 16.9247 6.82902 16.3538C6.86864 16.5194 6.78025 16.7307 6.81276 16.8699C6.96311 16.9572 6.97022 17.1106 6.9753 17.2549C7.05852 19.2013 7.40293 21.1277 7.9993 22.9824C8.10089 23.2973 8.01048 23.536 7.80222 23.7859C7.32984 24.3498 7.38064 25.068 7.88654 25.4571C8.06646 25.6085 8.28853 25.701 8.52273 25.7221C8.75692 25.7431 8.99194 25.6917 9.196 25.5749C9.57594 25.3575 9.84006 24.8638 9.77302 24.4676C9.68464 23.9454 9.39308 23.5411 8.86787 23.4741C8.30406 23.4019 8.13035 23.0748 7.99016 22.6025C7.42188 20.725 7.11424 18.7783 7.07587 16.8171C7.07587 16.6139 7.03321 16.3833 7.23232 16.2248L10.2586 15.5137C10.2988 15.5321 10.3322 15.5627 10.3541 15.6011C10.5756 16.6962 10.6832 17.8106 10.8976 18.9077C11.2582 20.7515 11.6829 22.5781 12.331 24.3447C12.5789 25.0202 12.8674 25.6775 13.294 26.2637C13.549 26.6334 13.8396 26.9748 14.122 27.3283C14.3516 27.6148 14.3719 27.6117 14.6096 27.3059C14.894 26.9412 15.1551 26.5583 15.4467 26.1966C16.1639 25.1178 16.5733 23.9058 16.9278 22.6766C17.5592 20.4882 18.0114 18.252 18.2799 15.9901C18.292 15.8577 18.3185 15.7268 18.3592 15.6C18.3804 15.5609 18.414 15.5299 18.4547 15.5117L21.0035 16.0643Z" fill="#F8F7F7"/>
<path d="M19.8829 7.45683C19.9296 8.09683 19.8666 8.72261 19.4532 9.23867C19.3272 9.39715 19.0661 9.44185 18.8711 9.55258C18.8 9.59118 18.6974 9.64502 18.6842 9.70699C18.4609 10.7276 17.991 11.678 17.3158 12.4752C17.2142 12.61 17.1567 12.7729 17.1512 12.9415C17.1339 13.5012 17.1512 14.0589 17.1512 14.6217C17.1512 14.7904 17.0334 14.8849 16.9145 14.9661C16.1618 15.4812 15.4212 16.0135 14.6522 16.5042C14.5457 16.585 14.4121 16.6215 14.2793 16.6057C13.4016 16.0887 12.5839 15.4802 11.7397 14.9133C11.6866 14.8844 11.6428 14.8413 11.6134 14.7885C11.5839 14.7359 11.5699 14.676 11.5731 14.6156C11.5822 14.2967 11.5924 13.9787 11.6015 13.6597C11.6188 13.04 11.5152 12.4955 11.0641 11.9876C10.5135 11.3679 10.2392 10.5654 10.0554 9.7588C10.0188 9.60032 9.98526 9.56172 9.79224 9.53327C9.54435 9.47443 9.32714 9.32564 9.18272 9.11575C8.83935 8.61492 8.78653 8.02877 8.84139 7.43245C8.99478 6.92451 9.10551 6.90115 9.94767 7.22013C9.95783 6.892 9.94767 6.57607 9.94767 6.26013C9.94229 5.83245 10.0235 5.40811 10.1864 5.01264C10.4119 4.49251 10.738 4.30153 11.2703 4.46915C12.2323 4.74993 13.2285 4.89558 14.2306 4.90191C15.2457 4.92316 16.2587 4.79689 17.2376 4.52705C18.0503 4.30356 18.3774 4.49962 18.6283 5.31435C18.7827 5.82229 18.7451 6.34546 18.8264 6.85848C18.8263 6.95035 18.8396 7.04173 18.866 7.12972C19.7204 6.96515 19.7204 6.96515 19.8829 7.45683Z" fill="#F6AB80"/>
<path d="M19.8829 7.45685C19.5781 7.0058 19.4968 7.00681 18.7004 7.47818C18.6435 6.82497 18.5988 6.16974 18.5226 5.51653C18.4953 5.31874 18.4344 5.12705 18.3428 4.94967C18.1772 4.61443 17.9365 4.4712 17.5301 4.59005C15.4632 5.20748 13.2613 5.20995 11.1931 4.59716C10.7654 4.47424 10.482 4.57075 10.3581 5.02078C10.2057 5.5785 10.1549 6.16466 10.0797 6.74777C10.0627 6.99937 10.061 7.25177 10.0746 7.50358C9.15222 7.01494 9.15019 7.01494 8.84339 7.44059C8.84339 6.36174 8.80581 5.28085 8.85254 4.20301C8.86981 3.82408 9.03844 3.42891 9.2213 3.08554C9.44276 2.66904 9.74447 2.29316 10.0259 1.91018C10.5694 1.16961 11.3211 0.72567 12.1876 0.487956C13.6445 0.0696796 15.1914 0.0823821 16.6412 0.524528C17.6987 0.848591 18.5622 1.43881 19.0326 2.48618C19.0455 2.52397 19.0663 2.55859 19.0935 2.58777C19.8717 3.23183 19.9387 4.10447 19.9062 5.02586C19.8768 5.83043 19.889 6.64415 19.8829 7.45685Z" fill="#222A2B"/>
<path d="M7.2301 16.2258C7.18337 18.5562 7.58058 20.8176 8.27848 23.0322C8.35569 23.276 8.51213 23.2628 8.70413 23.2729C8.87779 23.2823 9.04783 23.3262 9.20432 23.402C9.3608 23.4779 9.50059 23.5843 9.61551 23.7148C9.73043 23.8454 9.81818 23.9974 9.87363 24.1623C9.92907 24.3271 9.9511 24.5013 9.93842 24.6748C9.90937 25.0242 9.74379 25.3482 9.47757 25.5763C9.21136 25.8045 8.86595 25.9186 8.5162 25.8939C7.78578 25.8228 7.21486 25.1736 7.32966 24.4564C7.39142 24.1469 7.53729 23.8604 7.75125 23.6285C7.92598 23.4345 7.94528 23.2993 7.87213 23.0748C7.21139 21.0701 6.85359 18.9781 6.81055 16.8678C6.81055 16.6951 6.81055 16.5225 6.8268 16.3518" fill="#5491CD"/>
<path d="M14.2807 16.5245C14.6941 16.2695 15.1147 16.0247 15.518 15.7555C16.0686 15.3877 16.607 15.0007 17.1505 14.6218C17.824 14.2733 17.824 14.2733 18.1796 14.9814C18.269 15.1591 18.3614 15.3359 18.4529 15.5127C18.449 15.535 18.4436 15.5571 18.4366 15.5787C18.34 15.7213 18.2225 15.8487 18.0882 15.9566C17.2948 16.5357 16.5064 17.1228 15.709 17.6978C15.5922 17.7811 15.4784 17.8837 15.3138 17.8492C15.0355 17.3748 14.5804 17.0558 14.2471 16.6301C14.2447 16.6111 14.2465 16.5918 14.2523 16.5735C14.2581 16.5554 14.2678 16.5386 14.2807 16.5245Z" fill="#81B6E4"/>
<path d="M14.2802 16.5245L14.2721 16.6118C14.3625 16.8049 14.2101 16.9095 14.1065 17.0182C13.8647 17.263 13.6362 17.519 13.4127 17.7801C13.2217 17.8624 13.0764 17.7537 12.9393 17.6521C12.1621 17.0731 11.3738 16.5072 10.5885 15.9373C10.4677 15.8345 10.3623 15.7147 10.2756 15.5817C10.2677 15.5609 10.2612 15.5396 10.2563 15.5177C10.423 15.213 10.6078 14.9214 10.749 14.6035C10.8903 14.2855 11.0426 14.2642 11.2905 14.4704C11.3785 14.5296 11.4725 14.5794 11.5709 14.6187C12.3382 15.1497 13.1046 15.681 13.8698 16.2126C14.011 16.3111 14.1482 16.4209 14.2802 16.5245Z" fill="#81B6E4"/>
<path d="M21.9209 16.3447C21.9076 16.6708 21.9056 16.751 21.8965 17.1868C21.7004 18.6243 21.5155 20.0638 21.2971 21.4972C21.2585 21.7522 21.2605 21.8923 21.4891 22.0589C21.8638 22.3242 22.1347 22.7113 22.2557 23.1541C22.3767 23.5969 22.3402 24.0679 22.1525 24.4869C21.7736 25.3839 21.3824 26.2748 20.971 27.1566C20.8791 27.3034 20.7331 27.4081 20.5647 27.4482C20.2908 27.5071 20.0105 27.5306 19.7306 27.5182C19.629 27.5182 19.5366 27.3923 19.4391 27.3242C19.5193 27.2501 19.5955 27.1718 19.6819 27.1038C19.7183 27.0866 19.7595 27.0823 19.7987 27.0916C20.4265 27.1647 20.7028 26.8193 20.8979 26.2697C21.1285 25.6186 21.4515 25.0009 21.7197 24.3619C22.0864 23.4873 21.739 22.5933 20.907 22.2215C20.075 21.8497 19.1587 22.2032 18.7584 23.0931C18.4141 23.8591 18.09 24.6342 17.7344 25.3941C17.6186 25.6399 17.641 25.8106 17.836 25.9934C17.9903 26.14 18.1267 26.3044 18.2424 26.4831C18.2861 26.5511 18.2424 26.6761 18.2353 26.7756C18.1266 26.7706 17.9732 26.8092 17.9183 26.7523C17.6564 26.4859 17.4137 26.2015 17.192 25.901C17.133 25.8207 17.1513 25.6409 17.197 25.5342C17.5902 24.62 17.9864 23.6965 18.4059 22.7914C18.7828 21.9787 19.5234 21.5855 20.4671 21.6556C20.6469 21.6689 20.8278 21.743 20.8938 21.4586C21.288 19.7377 21.548 18.0046 21.482 16.2289" fill="#5491CD"/>
<path d="M10.2759 15.5777C11.051 16.1283 11.8251 16.6819 12.6022 17.2305C12.8603 17.4123 13.1274 17.581 13.3906 17.7547C13.6405 17.7821 13.7613 17.9426 13.8223 18.1671C13.9686 19.057 13.7918 19.9419 13.7563 20.8277C13.737 21.3275 13.6923 21.8334 13.6598 22.3343C13.5907 23.4324 13.5135 24.5316 13.4739 25.6318C13.4637 25.9081 13.4739 26.1956 13.23 26.3998C12.587 25.6236 12.27 24.687 11.9572 23.7585C11.246 21.6363 10.8072 19.4471 10.4506 17.2417C10.3622 16.6901 10.3328 16.1313 10.2759 15.5777Z" fill="#B0DBF6"/>
<path d="M15.3034 17.8146C16.2678 17.1117 17.2319 16.4097 18.1956 15.7087C18.2726 15.6596 18.3531 15.6161 18.4364 15.5787C18.2779 16.7094 18.154 17.8451 17.9538 18.9687C17.6125 20.8826 17.1686 22.7772 16.43 24.5824C16.1811 25.1919 15.8032 25.7445 15.4842 26.3236C15.2577 26.1448 15.2476 25.8837 15.2404 25.6338C15.1968 24.0379 15.0373 22.4491 14.9733 20.8541C14.9499 20.3137 14.9479 19.7651 14.8534 19.2287C14.8021 18.8983 14.8114 18.5612 14.8808 18.2342C14.9204 17.9853 15.023 17.8106 15.3034 17.8146Z" fill="#B0DBF6"/>
<path d="M14.9733 18.1468C15.1426 20.8727 15.3119 23.5983 15.4812 26.3236C15.1521 26.7736 14.8189 27.2216 14.4958 27.6767C14.378 27.8423 14.3049 27.7976 14.2022 27.6625C13.8822 27.2379 13.5531 26.8203 13.228 26.3998C13.3296 24.8323 13.4403 23.2648 13.5399 21.6973C13.608 20.6337 13.6659 19.564 13.7238 18.5054C13.7309 18.3612 13.7116 18.2149 13.7045 18.0696C14.0092 18.0645 14.2652 18.348 14.5954 18.2088C14.7132 18.16 14.8362 18.092 14.9733 18.1468Z" fill="#EC6544"/>
<path d="M9.23463 24.559C9.23463 24.9725 9.03857 25.1899 8.64949 25.199C8.23704 25.2092 7.98815 24.9725 7.99527 24.5773C7.99463 24.41 8.05899 24.2491 8.1748 24.1283C8.29061 24.0076 8.44879 23.9365 8.61596 23.9302C8.69842 23.929 8.78029 23.9444 8.85659 23.9757C8.93291 24.007 9.00208 24.0534 9.05991 24.1122C9.11775 24.171 9.16306 24.241 9.19309 24.3178C9.22312 24.3946 9.23725 24.4766 9.23463 24.559Z" fill="#8FBDE6"/>
<path d="M14.9734 18.1468C14.4776 18.5125 14.1139 18.4902 13.7066 18.0696L13.3906 17.7547C13.5067 17.5478 13.6335 17.347 13.7706 17.1533C13.9199 16.9593 14.1038 16.7917 14.2724 16.6118C14.7062 16.7602 15.3066 17.4601 15.3035 17.8146L14.9734 18.1468Z" fill="#E9493D"/>
</g>
<defs>
<clipPath id="clip0_9377_29110">
<rect width="28" height="30" fill="white" transform="translate(0.175781 0.105942)"/>
</clipPath>
</defs>
</svg>
