<svg width="264" height="315" viewBox="0 0 264 315" fill="none" xmlns="http://www.w3.org/2000/svg">
<path d="M197.48 157.09L202.16 158.67C203.81 159.85 203.64 161.67 203.65 163.33C203.695 178.442 201.865 193.5 198.2 208.16C197.05 212.84 195.89 213.89 191.02 213.67C181.33 213.24 175.56 218.22 171.92 226.57C168.92 233.57 166.01 240.62 162.67 247.46C160.92 251.06 161.15 253.91 164.03 256.62C165.34 257.86 166.19 259.57 168.26 260.62C167.88 258.39 166.48 257.17 165.32 255.87C164.34 254.884 163.695 253.615 163.476 252.242C163.257 250.869 163.476 249.462 164.1 248.22C167.46 240.22 170.84 232.22 174.62 224.45C176.504 220.562 179.798 217.536 183.832 215.989C187.867 214.441 192.339 214.488 196.34 216.12C205.11 219.8 209.54 228.97 206.34 237.74C203.27 246.12 199.39 254.18 195.71 262.32C195.205 263.545 194.357 264.598 193.268 265.352C192.178 266.107 190.894 266.529 189.57 266.57C188.117 266.568 186.684 266.91 185.39 267.57C191.11 269.39 194.89 267.76 197.24 262.57C200.55 255.28 203.71 247.92 206.88 240.57C210.14 233.02 209.5 223.97 202.22 218.02C199.71 215.96 198.22 213.63 199.06 210.16C202.267 196.207 204.274 182.006 205.06 167.71C206.27 165.4 204.23 161.83 206.53 159.83C215.19 164.69 224.97 169.33 233.01 175.07C247.01 185.07 255.51 199.21 259.16 215.91C261.241 224.951 262.453 234.169 262.78 243.44C263.3 265.77 262.89 288.11 263.05 310.44C263.05 314.01 261.9 314.82 258.53 314.81C213.33 314.704 168.133 314.674 122.94 314.72C121.24 314.72 119.53 314.78 117.82 314.82C80.5199 314.82 43.2199 314.71 5.91989 314.82C2.20989 314.82 0.98989 313.94 1.01989 310.06C1.20989 286.81 0.669896 263.55 1.2999 240.32C1.8399 220.73 6.57989 202.16 19.1999 186.41C29.0899 174.08 43.2699 165.56 57.9499 159.94C58.3399 161.57 57.4699 163.65 57.7899 165.02C59.2699 165.88 59.3399 167.39 59.3899 168.81C60.2091 187.97 63.5994 206.933 69.4699 225.19C70.4699 228.29 69.5799 230.64 67.5299 233.1C62.8799 238.65 63.3799 245.72 68.3599 249.55C70.131 251.041 72.317 251.951 74.6224 252.159C76.9277 252.366 79.2412 251.86 81.2499 250.71C84.9899 248.57 87.5899 243.71 86.9299 239.81C86.0599 234.67 83.1899 230.69 78.0199 230.03C72.4699 229.32 70.7599 226.1 69.3799 221.45C63.7859 202.969 60.7576 183.806 60.3799 164.5C60.3799 162.5 59.9599 160.23 61.9199 158.67L91.7099 151.67C92.1059 151.851 92.4348 152.152 92.6499 152.53C94.8299 163.31 95.8899 174.28 97.9999 185.08C101.55 203.23 105.73 221.21 112.11 238.6C114.55 245.25 117.39 251.72 121.59 257.49C124.1 261.13 126.96 264.49 129.74 267.97C132 270.79 132.2 270.76 134.54 267.75C137.34 264.16 139.91 260.39 142.78 256.83C149.84 246.21 153.87 234.28 157.36 222.18C163.575 200.638 168.026 178.625 170.67 156.36C170.789 155.056 171.05 153.768 171.45 152.52C171.659 152.135 171.99 151.83 172.39 151.65L197.48 157.09Z" fill="#F8F7F7"/>
<path d="M186.45 72.3604C186.91 78.6604 186.29 84.8204 182.22 89.9004C180.98 91.4604 178.41 91.9004 176.49 92.9904C175.79 93.3704 174.78 93.9004 174.65 94.5104C172.452 104.557 167.827 113.913 161.18 121.76C160.18 123.087 159.614 124.69 159.56 126.35C159.39 131.86 159.56 137.35 159.56 142.89C159.56 144.55 158.4 145.48 157.23 146.28C149.82 151.35 142.53 156.59 134.96 161.42C133.912 162.216 132.597 162.575 131.29 162.42C122.65 157.33 114.6 151.34 106.29 145.76C105.768 145.476 105.337 145.051 105.047 144.532C104.757 144.014 104.619 143.424 104.65 142.83C104.74 139.69 104.84 136.56 104.93 133.42C105.1 127.32 104.08 121.96 99.6401 116.96C94.2201 110.86 91.5201 102.96 89.7101 95.0204C89.3501 93.4604 89.0201 93.0804 87.1201 92.8004C84.6799 92.2212 82.5417 90.7565 81.1201 88.6904C77.7401 83.7604 77.2201 77.9904 77.7601 72.1204C79.2701 67.1204 80.3601 66.8904 88.6501 70.0304C88.7501 66.8004 88.6501 63.6904 88.6501 60.5804C88.5971 56.3704 89.3965 52.1933 91.0001 48.3004C93.2201 43.1804 96.4301 41.3004 101.67 42.9504C111.139 45.7144 120.946 47.1481 130.81 47.2104C140.803 47.4196 150.774 46.1766 160.41 43.5204C168.41 41.3204 171.63 43.2504 174.1 51.2704C175.62 56.2704 175.25 61.4204 176.05 66.4704C176.049 67.3747 176.18 68.2743 176.44 69.1404C184.85 67.5204 184.85 67.5204 186.45 72.3604Z" fill="#F6AB80"/>
<path d="M186.45 72.3605C183.45 67.9205 182.65 67.9305 174.81 72.5705C174.25 66.1405 173.81 59.6905 173.06 53.2605C172.791 51.3135 172.192 49.4266 171.29 47.6805C169.66 44.3805 167.29 42.9705 163.29 44.1405C142.944 50.2183 121.269 50.2426 100.91 44.2105C96.7001 43.0005 93.9101 43.9505 92.6901 48.3805C91.1901 53.8705 90.6901 59.6405 89.9501 65.3805C89.7828 67.8572 89.7661 70.3418 89.9001 72.8205C80.8201 68.0105 80.8001 68.0105 77.7801 72.2005C77.7801 61.5805 77.4101 50.9405 77.8701 40.3305C78.0401 36.6005 79.7001 32.7105 81.5001 29.3305C83.6801 25.2305 86.6501 21.5305 89.4201 17.7605C94.7701 10.4705 102.17 6.10049 110.7 3.76049C125.041 -0.35692 140.268 -0.23188 154.54 4.12049C164.95 7.31049 173.45 13.1205 178.08 23.4305C178.207 23.8025 178.412 24.1433 178.68 24.4305C186.34 30.7705 187 39.3605 186.68 48.4305C186.39 56.3505 186.51 64.3605 186.45 72.3605Z" fill="#222A2B"/>
<path d="M61.9 158.68C61.44 181.62 65.35 203.88 72.22 225.68C72.98 228.08 74.52 227.95 76.41 228.05C78.1194 228.142 79.7933 228.574 81.3337 229.321C82.8741 230.068 84.2501 231.115 85.3814 232.4C86.5126 233.685 87.3764 235.182 87.9222 236.805C88.468 238.427 88.6848 240.142 88.56 241.85C88.274 245.289 86.6441 248.478 84.0235 250.724C81.403 252.97 78.0029 254.093 74.56 253.85C67.37 253.15 61.75 246.76 62.88 239.7C63.488 236.653 64.9239 233.833 67.03 231.55C68.75 229.64 68.94 228.31 68.22 226.1C61.7158 206.366 58.1937 185.773 57.77 165C57.77 163.3 57.77 161.6 57.93 159.92" fill="#5491CD"/>
<path d="M131.3 161.62C135.37 159.11 139.51 156.7 143.48 154.05C148.9 150.43 154.2 146.62 159.55 142.89C166.18 139.46 166.18 139.46 169.68 146.43C170.56 148.18 171.47 149.92 172.37 151.66C172.332 151.88 172.279 152.097 172.21 152.31C171.259 153.714 170.102 154.968 168.78 156.03C160.97 161.73 153.21 167.51 145.36 173.17C144.21 173.99 143.09 175 141.47 174.66C138.73 169.99 134.25 166.85 130.97 162.66C130.946 162.473 130.964 162.283 131.021 162.103C131.078 161.924 131.173 161.759 131.3 161.62Z" fill="#81B6E4"/>
<path d="M131.3 161.62L131.22 162.48C132.11 164.38 130.61 165.41 129.59 166.48C127.21 168.89 124.96 171.41 122.76 173.98C120.88 174.79 119.45 173.72 118.1 172.72C110.45 167.02 102.69 161.45 94.9599 155.84C93.7706 154.828 92.7333 153.649 91.8799 152.34C91.8016 152.135 91.7381 151.925 91.6899 151.71C93.3299 148.71 95.1499 145.84 96.5399 142.71C97.9299 139.58 99.4299 139.37 101.87 141.4C102.736 141.983 103.661 142.473 104.63 142.86C112.183 148.087 119.727 153.317 127.26 158.55C128.65 159.52 130 160.6 131.3 161.62Z" fill="#81B6E4"/>
<path d="M206.51 159.85C206.38 163.06 206.36 163.85 206.27 168.14C204.34 182.29 202.52 196.46 200.37 210.57C199.99 213.08 200.01 214.46 202.26 216.1C205.948 218.711 208.615 222.522 209.806 226.88C210.997 231.239 210.638 235.876 208.79 240C205.06 248.83 201.21 257.6 197.16 266.28C196.255 267.725 194.818 268.756 193.16 269.15C190.464 269.73 187.705 269.962 184.95 269.84C183.95 269.84 183.04 268.6 182.08 267.93C182.87 267.2 183.62 266.43 184.47 265.76C184.829 265.591 185.234 265.549 185.62 265.64C191.8 266.36 194.52 262.96 196.44 257.55C198.71 251.14 201.89 245.06 204.53 238.77C208.14 230.16 204.72 221.36 196.53 217.7C188.34 214.04 179.32 217.52 175.38 226.28C171.99 233.82 168.8 241.45 165.3 248.93C164.16 251.35 164.38 253.03 166.3 254.83C167.819 256.273 169.161 257.891 170.3 259.65C170.73 260.32 170.3 261.55 170.23 262.53C169.16 262.48 167.65 262.86 167.11 262.3C164.532 259.678 162.143 256.878 159.96 253.92C159.38 253.13 159.56 251.36 160.01 250.31C163.88 241.31 167.78 232.22 171.91 223.31C175.62 215.31 182.91 211.44 192.2 212.13C193.97 212.26 195.75 212.99 196.4 210.19C200.28 193.25 202.84 176.19 202.19 158.71" fill="#5491CD"/>
<path d="M91.8799 152.3C99.5099 157.72 107.13 163.17 114.78 168.57C117.32 170.36 119.95 172.02 122.54 173.73C125 174 126.19 175.58 126.79 177.79C128.23 186.55 126.49 195.26 126.14 203.98C125.95 208.9 125.51 213.88 125.19 218.81C124.51 229.62 123.75 240.44 123.36 251.27C123.26 253.99 123.36 256.82 120.96 258.83C114.63 251.19 111.51 241.97 108.43 232.83C101.43 211.94 97.1099 190.39 93.5999 168.68C92.7299 163.25 92.4399 157.75 91.8799 152.3Z" fill="#B0DBF6"/>
<path d="M141.37 174.32C150.863 167.4 160.353 160.49 169.84 153.59C170.598 153.106 171.39 152.678 172.21 152.31C170.65 163.44 169.43 174.62 167.46 185.68C164.1 204.52 159.73 223.17 152.46 240.94C150.01 246.94 146.29 252.38 143.15 258.08C140.92 256.32 140.82 253.75 140.75 251.29C140.32 235.58 138.75 219.94 138.12 204.24C137.89 198.92 137.87 193.52 136.94 188.24C136.435 184.987 136.527 181.669 137.21 178.45C137.6 176 138.61 174.28 141.37 174.32Z" fill="#B0DBF6"/>
<path d="M138.12 177.59C139.787 204.423 141.453 231.253 143.12 258.08C139.88 262.51 136.6 266.92 133.42 271.4C132.26 273.03 131.54 272.59 130.53 271.26C127.38 267.08 124.14 262.97 120.94 258.83C121.94 243.4 123.03 227.97 124.01 212.54C124.68 202.07 125.25 191.54 125.82 181.12C125.89 179.7 125.7 178.26 125.63 176.83C128.63 176.78 131.15 179.57 134.4 178.2C135.56 177.72 136.77 177.05 138.12 177.59Z" fill="#EC6544"/>
<path d="M81.6299 240.71C81.6299 244.78 79.6999 246.92 75.8699 247.01C71.8099 247.11 69.3599 244.78 69.4299 240.89C69.4236 239.243 70.0572 237.659 71.1972 236.47C72.3372 235.282 73.8943 234.582 75.5399 234.52C76.3516 234.508 77.1575 234.66 77.9086 234.968C78.6598 235.276 79.3407 235.733 79.91 236.312C80.4794 236.89 80.9254 237.579 81.221 238.335C81.5166 239.091 81.6557 239.899 81.6299 240.71Z" fill="#8FBDE6"/>
<path d="M138.12 177.59C133.24 181.19 129.66 180.97 125.65 176.83L122.54 173.73C123.683 171.693 124.931 169.717 126.28 167.81C127.75 165.9 129.56 164.25 131.22 162.48C135.49 163.94 141.4 170.83 141.37 174.32L138.12 177.59Z" fill="#E9493D"/>
</svg>
