<svg width="161" height="141" viewBox="0 0 161 141" fill="none" xmlns="http://www.w3.org/2000/svg">
<g clip-path="url(#clip0_10071_4481)">
<path d="M86.6404 1.39166V1.39157C108.233 0.863885 127.906 9.75621 139.061 24.3975L139.459 24.0944L139.061 24.3975C150.351 39.214 157.017 53.9963 158.982 66.9868C160.947 79.9745 158.21 91.1311 150.751 98.7949L151.11 99.1436L150.751 98.7949C147.623 102.009 138.654 109.758 125.394 112.529L125.394 112.529C114.725 114.76 107.08 112.559 99.8212 110.199C99.4174 110.067 99.0146 109.935 98.6124 109.804C91.7837 107.568 85.1214 105.386 76.5508 107.049L76.646 107.539L76.5508 107.049C64.5341 109.381 57.8996 117.487 52.3283 124.98C51.9344 125.51 51.5463 126.036 51.1623 126.556C48.8172 129.735 46.6258 132.706 44.2197 135.03C41.4348 137.72 38.4086 139.496 34.5993 139.692C27.2849 140.068 19.4892 134.482 13.1687 125.842C6.86966 117.23 2.14472 105.724 0.930365 94.5608L0.433323 94.6149L0.930364 94.5608C-1.17139 75.2435 6.8418 53.2502 21.3921 35.4653C35.9377 17.686 56.9671 4.17383 80.8145 1.75812L80.8146 1.75811C82.7861 1.55793 84.7318 1.44079 86.6404 1.39166Z" fill="#DAEEF1" stroke="#8ECBD7"/>
<mask id="mask0_10071_4481" style="mask-type:alpha" maskUnits="userSpaceOnUse" x="0" y="0" width="161" height="141">
<path d="M86.6237 0.891826C108.355 0.359482 128.192 9.30668 139.459 24.0944C162.11 53.8221 166.304 83.5307 151.11 99.1436C147.942 102.399 138.889 110.22 125.496 113.019C103.894 117.536 94.5024 104.075 76.646 107.539C53.0175 112.125 50.5041 139.374 34.625 140.191C19.4722 140.971 2.88208 117.125 0.433297 94.6149C-1.70378 74.9729 6.52549 52.6491 21.3622 34.7147C35.9599 17.069 56.954 3.6726 80.7641 1.26066C82.749 1.05913 84.7073 0.941258 86.6275 0.891826H86.6237Z" fill="#94C8E3"/>
</mask>
<g mask="url(#mask0_10071_4481)">
<path d="M20.5396 130.946V117.873C20.5396 115.517 22.448 113.608 24.8045 113.608H88.5546" stroke="#263238" stroke-width="3.58398" stroke-miterlimit="10"/>
<path d="M84.6122 68.1187V125.839H15.6563C11.938 125.839 8.91846 128.858 8.91846 132.577V162.521H81.0103C85.5082 162.521 89.1549 158.874 89.1549 154.376V68.1277H84.6032L84.6122 68.1187Z" fill="#2E353A"/>
<path opacity="0.3" d="M84.6122 68.1187V125.839H15.6563C11.938 125.839 8.91846 128.858 8.91846 132.577V162.521H81.0103C85.5082 162.521 89.1549 158.874 89.1549 154.376V68.1277H84.6032L84.6122 68.1187Z" fill="white"/>
<path d="M86.207 69.8301H124.412V146.966C124.412 153.498 119.108 158.793 112.585 158.793H86.216V69.8301H86.207Z" fill="#263238"/>
<path d="M86.7805 76.6396C86.0368 76.6396 85.4365 76.0393 85.4365 75.2956V65.0007C85.4365 60.897 88.6442 57.537 92.7389 57.3399L101.412 56.9188C102.156 56.874 102.783 57.4564 102.819 58.2C102.855 58.9437 102.281 59.5709 101.538 59.6068L92.8643 60.0279C90.2032 60.1533 88.1156 62.3395 88.1156 65.0096V75.3046C88.1156 76.0483 87.5152 76.6486 86.7716 76.6486L86.7805 76.6396Z" fill="#263238"/>
<path d="M57.1142 110.67L54.2022 115.813C54.2022 115.813 11.3109 115.866 2.8975 124.378C-5.5159 132.881 -16.5098 159.313 -16.5098 159.313L-0.148888 165.46L18.1115 139.288L75.061 143.051L80.6251 109.827L57.1142 110.679V110.67Z" fill="#263238"/>
<path opacity="0.2" d="M80.6248 109.809L75.0607 143.033L42.2762 140.874L18.1112 139.279L10.4504 150.255L-0.149202 165.451L-16.519 159.304C-16.519 159.304 -5.52518 132.872 2.88822 124.369C11.3016 115.866 54.1929 115.804 54.1929 115.804L57.1049 110.661L80.6248 109.809Z" fill="white"/>
<path opacity="0.2" d="M42.2765 140.874L18.1115 139.279L10.4507 150.255C9.3128 144.063 8.08528 130.023 11.3288 125.31C15.5489 119.199 43.1187 117.667 56.021 118.536C63.628 119.047 55.4386 131.107 42.2765 140.874Z" fill="black"/>
<path d="M65.4643 60.3594C63.529 72.6076 61.504 84.7215 57.9021 96.683C55.6353 104.021 36.5147 110.177 29.526 112.336C26.4258 113.205 24.589 108.985 27.3308 107.319C31.972 104.559 36.685 101.799 41.1381 98.9768C43.4497 97.4805 47.428 94.8731 48.5121 93.3679C48.4584 93.4754 48.3867 93.6277 48.3508 93.7442C48.3687 93.6814 48.4583 93.2693 48.4763 93.1976C50.9134 81.8722 52.4366 70.063 54.5332 58.6032C56.0116 51.5338 66.2797 53.1645 65.4643 60.3683V60.3594Z" fill="#DD8A7D"/>
<path d="M61.7104 48.9265C55.3937 49.8225 51.9441 54.8132 49.3726 76.0483L65.6797 79.91C65.6797 79.91 70.4643 67.0256 70.2851 60.9059C70.1059 54.7863 61.7104 48.9265 61.7104 48.9265Z" fill="#43A9BC"/>
<path opacity="0.2" d="M65.6707 79.901L63.6368 79.4172L54.193 77.1862L49.3726 76.0483C51.9441 54.8042 55.3937 49.8135 61.7104 48.9265C61.7104 48.9265 70.1059 54.7773 70.2851 60.897C70.4643 67.0256 65.6707 79.901 65.6707 79.901Z" fill="white"/>
<path opacity="0.2" d="M63.6367 79.4172L54.1929 77.1862C55.0351 73.3513 57.508 64.1763 62.1941 62.689C66.7995 61.2285 71.0286 75.9497 63.6367 79.4172Z" fill="black"/>
<path d="M99.3778 110.329C99.3778 110.329 103.329 137.657 94.1272 147.54C84.9253 157.423 38.1275 143.221 36.7029 143.929C35.2872 144.637 40.1704 193.979 40.1704 193.979L26.4168 195.977C26.4168 195.977 11.4985 145.604 11.8211 130.946C12.1436 116.296 62.0237 117.954 62.0237 117.954L64.8998 110.32H99.3778V110.329Z" fill="#2E353A"/>
<path opacity="0.2" d="M99.3778 110.329C99.3778 110.329 103.329 137.657 94.1272 147.54C84.9253 157.423 38.1275 143.221 36.7029 143.929C35.2872 144.637 40.1704 193.979 40.1704 193.979L26.4168 195.977C26.4168 195.977 11.4985 145.604 11.8211 130.946C12.1436 116.296 62.0237 117.954 62.0237 117.954L64.8998 110.32H99.3778V110.329Z" fill="white"/>
<path d="M99.5573 110.67C100.677 86.5762 107.765 52.4836 107.765 52.4836C88.1065 47.7438 61.7105 48.9265 61.7105 48.9265C56.5675 67.3213 56.666 97.0056 57.1051 110.67H99.5484H99.5573Z" fill="#43A9BC"/>
<path opacity="0.2" d="M99.5477 110.67C99.9061 102.901 100.892 94.0937 102.057 85.7251C102.72 80.9584 103.445 76.335 104.144 72.1238C106.035 60.7985 107.764 52.4836 107.764 52.4836C88.1059 47.7438 61.7188 48.9355 61.7188 48.9355C56.5758 67.3303 56.6743 97.0146 57.1134 110.679H99.5477V110.67Z" fill="white"/>
<path opacity="0.2" d="M104.144 72.1238C103.446 76.335 102.72 80.9583 102.057 85.725C97.4961 77.4729 101.241 69.4 101.241 69.4L104.144 72.1238Z" fill="black"/>
<path d="M92.165 49.8225C88.5273 53.1287 79.6121 51.9101 79.6121 51.9101C79.6121 51.9101 74.048 50.3869 75.2217 48.6487C78.5011 48.1111 80.087 46.579 80.7411 44.6257C81.1174 43.4878 81.1801 42.2065 81.0726 40.8804C81.0278 40.1905 80.9203 39.4827 80.7948 38.7928L91.8156 30.6302C90.373 36.0152 88.6079 45.9249 92.165 49.8225Z" fill="#E4897B"/>
<path opacity="0.2" d="M89.2711 35.8091C88.832 42.4216 83.4023 44.2404 80.7412 44.6167C81.1175 43.4788 81.1802 42.1976 81.0727 40.8715L89.2711 35.8091Z" fill="black"/>
<path d="M72.4086 13.687C72.4086 13.687 69.3711 23.982 74.4066 28.7935C79.4332 33.596 82.1122 14.0275 82.1122 14.0275L72.4175 13.6959L72.4086 13.687Z" fill="#263238"/>
<path d="M89.468 39.3662C86.2245 42.8875 81.6729 43.3086 78.0083 41.5704C75.6518 40.4593 73.6627 38.4433 72.6144 35.8001C72.471 35.4507 72.3545 35.0923 72.247 34.725C70.3744 27.9243 71.0374 16.5631 78.4115 13.2748C83.653 10.8915 89.8444 13.2121 92.2188 18.4626C92.9087 19.95 93.2133 21.5807 93.1506 23.2293C92.9624 30.8543 93.2044 35.3521 89.477 39.3662H89.468Z" fill="#E4897B"/>
<path d="M87.2372 13.902L86.7803 17.262C87.8734 17.8623 88.5185 19.1167 87.9988 20.4338C86.8699 23.2473 88.411 27.6556 90.5614 29.4386C90.5614 29.4386 90.642 28.2111 91.6724 28.5157C92.7028 28.8204 92.3265 35.1999 90.2657 38.2104C90.2657 38.2104 93.3569 35.5045 95.1758 28.8293C96.8602 22.6559 97.129 17.495 95.8925 15.0848L87.2462 13.902H87.2372Z" fill="#263238"/>
<path d="M96.6811 29.3669C95.8927 31.1231 94.4412 32.4939 92.6492 33.1749C90.2658 34.0619 88.8591 31.9832 89.334 29.6178C89.773 27.5212 91.5381 24.4568 94.02 24.6092C96.5109 24.7615 97.6219 27.2076 96.6811 29.3669Z" fill="#E4897B"/>
<path d="M86.7715 17.2531C86.7715 17.2531 69.2727 20.7295 72.7133 9.70877C72.7133 9.70877 82.4528 5.59615 90.1225 8.13182C97.8012 10.6764 96.0898 18.7494 96.0898 18.7494L86.7715 17.2531Z" fill="#263238"/>
<path d="M73.1518 36.947C73.1518 36.947 75.8845 40.6565 79.585 40.7461C83.2855 40.8357 89.5574 33.9992 93.1593 34.2322L94.1629 35.4149C94.1629 35.4149 93.0966 43.9089 94.1629 45.916C95.2291 47.923 98.7683 50.1719 98.7683 50.1719V50.7543C98.7683 50.7543 89.5485 59.3469 78.4471 57.1249C67.3457 54.9028 68.4836 48.8011 68.4836 48.8011L69.5857 48.0484C69.5857 48.0484 72.8561 46.4984 73.5818 44.2584C74.3076 42.0184 72.2737 37.6638 72.2737 37.6638L73.1607 36.947H73.1518Z" fill="#43A9BC"/>
<path opacity="0.6" d="M73.1518 36.947C73.1518 36.947 75.8845 40.6565 79.585 40.7461C83.2855 40.8357 89.5574 33.9992 93.1593 34.2322L94.1629 35.4149C94.1629 35.4149 93.0966 43.9089 94.1629 45.916C95.2291 47.923 98.7683 50.1719 98.7683 50.1719V50.7543C98.7683 50.7543 89.5485 59.3469 78.4471 57.1249C67.3457 54.9028 68.4836 48.8011 68.4836 48.8011L69.5857 48.0484C69.5857 48.0484 72.8561 46.4984 73.5818 44.2584C74.3076 42.0184 72.2737 37.6638 72.2737 37.6638L73.1607 36.947H73.1518Z" fill="white"/>
<path opacity="0.1" d="M91.3141 34.5816L92.1653 36.1496C92.1653 36.1496 91.7711 43.4968 92.1653 45.8622C92.5595 48.2276 96.1614 51.3636 96.1614 51.3636V52.7703L95.6866 51.5428C95.6866 51.5428 91.6635 49.473 91.3141 44.8676C90.9647 40.2622 91.7083 36.499 91.7083 36.499L91.3141 34.5906V34.5816Z" fill="black"/>
<path d="M89.603 40.2085L93.1332 38.9451V40.7192L89.603 42.0184V40.2085Z" fill="white"/>
<path d="M95.0237 48.0484L94.9072 48.1111L91.7085 49.8673L92.7389 51.5338L96.1616 49.2849" fill="white"/>
<path d="M27.9132 106.835L20.4316 107.695L25.4313 115.813C25.4313 115.813 31.6226 113.662 30.8252 110.239L27.9222 106.835H27.9132Z" fill="#E4897B"/>
<path d="M16.0234 112.023L20.4676 118.545L25.4224 115.813L20.4228 107.695L16.0234 112.023Z" fill="#E4897B"/>
<path d="M111.832 59.2484C114.171 68.4144 118.606 88.5922 109.377 94.9807C100.874 100.097 86.4934 96.8264 77.5872 94.1385C76.1357 93.6815 75.3293 92.1314 75.7952 90.6799C76.1984 89.4166 77.4169 88.655 78.6803 88.7625C81.0726 88.8879 83.5635 89.0134 85.9827 89.0402C91.502 89.0402 97.5141 89.2732 102.603 87.3737C103.069 87.1676 103.419 86.9705 103.705 86.7375C103.356 86.9705 103.813 86.3522 103.929 85.4383C104.87 77.7955 102.702 69.4896 101.107 61.9812C99.7183 54.9476 109.673 52.403 111.832 59.2484Z" fill="#DD8A7D"/>
<path d="M107.764 52.4746C113.301 54.3025 115.586 60.8611 117.28 78.3779L101.976 79.7219C101.976 79.7219 97.4692 67.2227 98.3025 60.5207C99.1268 53.8276 107.773 52.4657 107.773 52.4657L107.764 52.4746Z" fill="#43A9BC"/>
<path opacity="0.2" d="M107.764 52.4746C113.301 54.3025 115.586 60.8611 117.28 78.3779L101.976 79.7219C101.976 79.7219 97.4692 67.2227 98.3025 60.5207C99.1268 53.8276 107.773 52.4657 107.773 52.4657L107.764 52.4746Z" fill="white"/>
<path d="M66.8622 83.494C63.3231 83.6911 61.8984 90.1781 62.2568 95.2226C62.6152 100.267 72.5339 99.5592 72.5339 99.5592C72.5339 99.5592 95.2205 104.639 107.039 101.808C118.857 98.9768 117.199 82.4278 117.199 82.4278C117.199 82.4278 115.425 81.4959 108.571 81.0748C101.716 80.6537 101.125 81.8364 101.125 81.8364C101.125 81.8364 102.003 84.7663 99.799 85.725C97.5859 86.6837 75.3742 83.0191 66.8712 83.494H66.8622Z" fill="#43A9BC"/>
<path opacity="0.6" d="M66.8622 83.494C63.3231 83.6911 61.8984 90.1781 62.2568 95.2226C62.6152 100.267 72.5339 99.5592 72.5339 99.5592C72.5339 99.5592 95.2205 104.639 107.039 101.808C118.857 98.9768 117.199 82.4278 117.199 82.4278C117.199 82.4278 115.425 81.4959 108.571 81.0748C101.716 80.6537 101.125 81.8364 101.125 81.8364C101.125 81.8364 102.003 84.7663 99.799 85.725C97.5859 86.6837 75.3742 83.0191 66.8712 83.494H66.8622Z" fill="white"/>
<path d="M67.6509 48.4606C67.6509 48.4606 69.5325 58.0925 75.7776 71.0128C82.5513 85.0082 96.1615 93.1887 96.1615 93.1887L93.151 95.2226C93.151 95.2226 80.4099 85.725 72.8835 71.8371C66.7191 60.4669 65.0884 48.7562 65.0884 48.7562L67.6509 48.4516V48.4606Z" fill="#263238"/>
<path d="M93.8405 96.0738L97.2274 93.8607C97.2274 93.8607 102.523 95.6079 106.205 95.2226C109.897 94.8373 112.549 94.7477 114.861 96.9608C114.861 96.9608 110.694 103.699 101.483 103.519C92.2636 103.34 89.2799 102.668 89.2799 102.668C89.2799 102.668 89.0828 101.217 89.9698 100.24C90.8568 99.2635 93.8495 96.0738 93.8495 96.0738H93.8405Z" fill="#43A9BC"/>
<path d="M92.8285 94.8283L95.7494 92.8123C95.9914 92.6421 96.3139 92.669 96.529 92.8751L97.183 93.4933C97.4787 93.7711 97.4429 94.237 97.1113 94.4699L94.0918 96.5397C93.823 96.7189 93.4647 96.6741 93.2586 96.4232L92.7031 95.7602C92.4701 95.4735 92.5239 95.0523 92.8285 94.8463V94.8283Z" stroke="white" stroke-width="0.895996" stroke-linecap="round" stroke-linejoin="round"/>
<path d="M58.189 130.946H54.605V117.873C54.605 114.531 57.3199 111.816 60.6619 111.816H124.412V115.4H60.6619C59.3 115.4 58.189 116.511 58.189 117.873V130.946Z" fill="#263238"/>
<g opacity="0.4">
<path d="M58.189 130.946H54.605V117.873C54.605 114.531 57.3199 111.816 60.6619 111.816H124.412V115.4H60.6619C59.3 115.4 58.189 116.511 58.189 117.873V130.946Z" fill="white"/>
</g>
<path d="M124.412 76.6396C123.669 76.6396 123.068 76.0393 123.068 75.2956V65.0007C123.068 60.897 126.276 57.537 130.371 57.3399L139.044 56.9188C139.788 56.874 140.415 57.4564 140.451 58.2C140.487 58.9437 139.913 59.5709 139.169 59.6068L130.496 60.0279C127.835 60.1533 125.747 62.3395 125.747 65.0096V75.3046C125.747 76.0483 125.147 76.6486 124.403 76.6486L124.412 76.6396Z" fill="#263238"/>
<path d="M122.244 70.3946V125.839H53.2882C49.5698 125.839 46.5503 128.858 46.5503 132.577V162.521H118.642C123.14 162.521 126.787 158.874 126.787 154.376V70.4035C126.787 69.1491 125.765 68.1277 124.511 68.1277C123.256 68.1277 122.235 69.1491 122.235 70.4035L122.244 70.3946Z" fill="#2E353A"/>
<path opacity="0.4" d="M122.244 70.3946V125.839H53.2882C49.5698 125.839 46.5503 128.858 46.5503 132.577V162.521H118.642C123.14 162.521 126.787 158.874 126.787 154.376V70.4035C126.787 69.1491 125.765 68.1277 124.511 68.1277C123.256 68.1277 122.235 69.1491 122.235 70.4035L122.244 70.3946Z" fill="white"/>
</g>
</g>
<defs>
<clipPath id="clip0_10071_4481">
<rect width="159.999" height="139.34" fill="white" transform="translate(0.0986328 0.869324)"/>
</clipPath>
</defs>
</svg>
