<svg width="171" height="160" viewBox="0 0 171 160" fill="none" xmlns="http://www.w3.org/2000/svg">
<g clip-path="url(#clip0_9380_29124)">
<path d="M161.783 78.6914H135.705V8.69464C135.705 3.89474 139.594 0 144.399 0C149.199 0 153.094 3.89474 153.094 8.69464V69.9968L161.789 78.6914H161.783Z" fill="#6EB7C6"/>
<path d="M153.088 47.6059V69.9968C153.088 74.7967 156.983 78.6914 161.783 78.6914C166.583 78.6914 170.478 74.7967 170.478 69.9968V47.6059H153.088Z" fill="#6EB7C6"/>
<path d="M137.562 22.8202H29.2845C26.8336 22.8202 24.8467 24.8071 24.8467 27.258V155.562C24.8467 158.013 26.8336 160 29.2845 160H137.562C140.012 160 141.999 158.013 141.999 155.562V27.258C141.999 24.8071 140.012 22.8202 137.562 22.8202Z" fill="#413147"/>
<path d="M43.8547 0C36.7997 0 31.0791 5.72057 31.0791 12.7756V24.0512H135.71V8.69464C135.71 8.34292 135.73 7.99121 135.772 7.64466C136.289 3.34131 139.951 0 144.399 0H43.8547ZM40.141 21.6926C38.8014 21.6926 37.7048 20.6065 37.7048 19.2565C37.7048 17.9065 38.7962 16.8203 40.141 16.8203C41.4858 16.8203 42.5771 17.9117 42.5771 19.2565C42.5771 20.6013 41.4858 21.6926 40.141 21.6926ZM49.7563 21.6926C48.4167 21.6926 47.3201 20.6065 47.3201 19.2565C47.3201 17.9065 48.4115 16.8203 49.7563 16.8203C51.1011 16.8203 52.1924 17.9117 52.1924 19.2565C52.1924 20.6013 51.1063 21.6926 49.7563 21.6926ZM59.3768 21.6926C58.0268 21.6926 56.9406 20.6065 56.9406 19.2565C56.9406 17.9065 58.0268 16.8203 59.3768 16.8203C60.7267 16.8203 61.8129 17.9117 61.8129 19.2565C61.8129 20.6013 60.7216 21.6926 59.3768 21.6926ZM68.9921 21.6926C67.6421 21.6926 66.5559 20.6065 66.5559 19.2565C66.5559 17.9065 67.6421 16.8203 68.9921 16.8203C70.342 16.8203 71.4282 17.9117 71.4282 19.2565C71.4282 20.6013 70.3369 21.6926 68.9921 21.6926ZM78.6074 21.6926C77.2678 21.6926 76.1712 20.6065 76.1712 19.2565C76.1712 17.9065 77.2626 16.8203 78.6074 16.8203C79.9522 16.8203 81.0435 17.9117 81.0435 19.2565C81.0435 20.6013 79.9574 21.6926 78.6074 21.6926ZM88.2227 21.6926C86.8831 21.6926 85.7865 20.6065 85.7865 19.2565C85.7865 17.9065 86.8779 16.8203 88.2227 16.8203C89.5675 16.8203 90.664 17.9117 90.664 19.2565C90.664 20.6013 89.5727 21.6926 88.2227 21.6926ZM97.8484 21.6926C96.4984 21.6926 95.4122 20.6065 95.4122 19.2565C95.4122 17.9065 96.4984 16.8203 97.8484 16.8203C99.1983 16.8203 100.285 17.9117 100.285 19.2565C100.285 20.6013 99.1932 21.6926 97.8484 21.6926ZM107.464 21.6926C106.124 21.6926 105.028 20.6065 105.028 19.2565C105.028 17.9065 106.119 16.8203 107.464 16.8203C108.808 16.8203 109.9 17.9117 109.9 19.2565C109.9 20.6013 108.808 21.6926 107.464 21.6926ZM117.079 21.6926C115.739 21.6926 114.643 20.6065 114.643 19.2565C114.643 17.9065 115.734 16.8203 117.079 16.8203C118.424 16.8203 119.515 17.9117 119.515 19.2565C119.515 20.6013 118.429 21.6926 117.079 21.6926ZM126.699 21.6926C125.349 21.6926 124.258 20.6065 124.258 19.2565C124.258 17.9065 125.349 16.8203 126.699 16.8203C128.049 16.8203 129.136 17.9117 129.136 19.2565C129.136 20.6013 128.044 21.6926 126.699 21.6926Z" fill="#FEFFFF"/>
<path d="M135.772 25.4374H31.0791L34.767 151.543H135.772V25.4374ZM40.141 32.6631C38.8014 32.6631 37.7048 31.5717 37.7048 30.2269C37.7048 28.8821 38.7962 27.7908 40.141 27.7908C41.4858 27.7908 42.5823 28.877 42.5823 30.2269C42.5823 31.5769 41.4909 32.6631 40.141 32.6631ZM49.7615 32.6631C48.4115 32.6631 47.3253 31.5717 47.3253 30.2269C47.3253 28.8821 48.4115 27.7908 49.7615 27.7908C51.1114 27.7908 52.1976 28.877 52.1976 30.2269C52.1976 31.5769 51.1063 32.6631 49.7615 32.6631ZM59.3768 32.6631C58.0371 32.6631 56.9406 31.5717 56.9406 30.2269C56.9406 28.8821 58.032 27.7908 59.3768 27.7908C60.7216 27.7908 61.8129 28.877 61.8129 30.2269C61.8129 31.5769 60.7216 32.6631 59.3768 32.6631ZM68.9921 32.6631C67.6525 32.6631 66.5559 31.5717 66.5559 30.2269C66.5559 28.8821 67.6473 27.7908 68.9921 27.7908C70.3369 27.7908 71.4282 28.877 71.4282 30.2269C71.4282 31.5769 70.342 32.6631 68.9921 32.6631ZM78.6126 32.6631C77.2626 32.6631 76.1712 31.5717 76.1712 30.2269C76.1712 28.8821 77.2626 27.7908 78.6126 27.7908C79.9625 27.7908 81.0487 28.877 81.0487 30.2269C81.0487 31.5769 79.9574 32.6631 78.6126 32.6631ZM88.2279 32.6631C86.8779 32.6631 85.7917 31.5717 85.7917 30.2269C85.7917 28.8821 86.8779 27.7908 88.2279 27.7908C89.5778 27.7908 90.664 28.877 90.664 30.2269C90.664 31.5769 89.5727 32.6631 88.2279 32.6631ZM97.8432 32.6631C96.5036 32.6631 95.407 31.5717 95.407 30.2269C95.407 28.8821 96.4984 27.7908 97.8432 27.7908C99.188 27.7908 100.279 28.877 100.279 30.2269C100.279 31.5769 99.1931 32.6631 97.8432 32.6631ZM107.459 32.6631C106.119 32.6631 105.022 31.5717 105.022 30.2269C105.022 28.8821 106.114 27.7908 107.459 27.7908C108.803 27.7908 109.895 28.877 109.895 30.2269C109.895 31.5769 108.808 32.6631 107.459 32.6631ZM117.084 32.6631C115.734 32.6631 114.648 31.5717 114.648 30.2269C114.648 28.8821 115.734 27.7908 117.084 27.7908C118.434 27.7908 119.52 28.877 119.52 30.2269C119.52 31.5769 118.429 32.6631 117.084 32.6631ZM126.699 27.7908C128.039 27.7908 129.136 28.877 129.136 30.2269C129.136 31.5769 128.044 32.6631 126.699 32.6631C125.355 32.6631 124.263 31.5717 124.263 30.2269C124.263 28.8821 125.355 27.7908 126.699 27.7908Z" fill="#808080"/>
<path d="M31.0792 25.4374V95.4652C31.0792 111.246 28.8086 126.944 24.3346 142.078L19.0898 159.845H105.255C110.748 159.845 115.915 158.04 120.095 154.91C121.429 153.912 122.66 152.785 123.767 151.543C126.146 148.874 127.972 145.668 129.032 142.078C133.501 126.944 135.772 111.246 135.772 95.4652V25.4374H31.0792ZM117.089 27.796C118.429 27.796 119.526 28.8821 119.526 30.2321C119.526 31.5821 118.434 32.6683 117.089 32.6683C115.745 32.6683 114.653 31.5769 114.653 30.2321C114.653 28.8873 115.74 27.796 117.089 27.796ZM107.464 27.796C108.814 27.796 109.9 28.8821 109.9 30.2321C109.9 31.5821 108.814 32.6683 107.464 32.6683C106.114 32.6683 105.028 31.5769 105.028 30.2321C105.028 28.8873 106.119 27.796 107.464 27.796ZM97.8485 27.796C99.1985 27.796 100.285 28.8821 100.285 30.2321C100.285 31.5821 99.1985 32.6683 97.8485 32.6683C96.4985 32.6683 95.4124 31.5769 95.4124 30.2321C95.4124 28.8873 96.5037 27.796 97.8485 27.796ZM88.2332 27.796C89.5728 27.796 90.6693 28.8821 90.6693 30.2321C90.6693 31.5821 89.578 32.6683 88.2332 32.6683C86.8884 32.6683 85.797 31.5769 85.797 30.2321C85.797 28.8873 86.8832 27.796 88.2332 27.796ZM78.6179 27.796C79.9575 27.796 81.054 28.8821 81.054 30.2321C81.054 31.5821 79.9627 32.6683 78.6179 32.6683C77.2731 32.6683 76.1766 31.5769 76.1766 30.2321C76.1766 28.8873 77.2679 27.796 78.6179 27.796ZM68.9974 27.796C70.3474 27.796 71.4336 28.8821 71.4336 30.2321C71.4336 31.5821 70.3474 32.6683 68.9974 32.6683C67.6474 32.6683 66.5612 31.5769 66.5612 30.2321C66.5612 28.8873 67.6526 27.796 68.9974 27.796ZM59.3821 27.796C60.7217 27.796 61.8182 28.8821 61.8182 30.2321C61.8182 31.5821 60.7269 32.6683 59.3821 32.6683C58.0373 32.6683 56.9459 31.5769 56.9459 30.2321C56.9459 28.8873 58.0373 27.796 59.3821 27.796ZM49.7668 27.796C51.1064 27.796 52.2029 28.8821 52.2029 30.2321C52.2029 31.5821 51.1116 32.6683 49.7668 32.6683C48.422 32.6683 47.3306 31.5769 47.3306 30.2321C47.3306 28.8873 48.4168 27.796 49.7668 27.796ZM40.1463 27.796C41.4963 27.796 42.5876 28.8821 42.5876 30.2321C42.5876 31.5821 41.4963 32.6683 40.1463 32.6683C38.7963 32.6683 37.7101 31.5769 37.7101 30.2321C37.7101 28.8873 38.8015 27.796 40.1463 27.796ZM126.71 32.6683C125.37 32.6683 124.274 31.5769 124.274 30.2321C124.274 28.8873 125.365 27.796 126.71 27.796C128.055 27.796 129.146 28.8821 129.146 30.2321C129.146 31.5821 128.055 32.6683 126.71 32.6683Z" fill="#FEFFFF"/>
<path d="M118.657 137.49H109.828C109.202 137.49 108.695 136.983 108.695 136.357C108.695 135.732 109.202 135.225 109.828 135.225H118.657C119.283 135.225 119.789 135.732 119.789 136.357C119.789 136.983 119.283 137.49 118.657 137.49Z" fill="#346690"/>
<path d="M118.662 139.021H113.096C112.471 139.021 111.963 139.528 111.963 140.154V140.159C111.963 140.785 112.471 141.292 113.096 141.292H118.662C119.287 141.292 119.794 140.785 119.794 140.159V140.154C119.794 139.528 119.287 139.021 118.662 139.021Z" fill="#95B4E0"/>
<path d="M118.656 133.704H113.096C112.47 133.704 111.963 133.197 111.963 132.571C111.963 131.945 112.47 131.439 113.096 131.439H118.656C119.282 131.439 119.789 131.945 119.789 132.571C119.789 133.197 119.282 133.704 118.656 133.704Z" fill="#95B4E0"/>
<path d="M90.9227 145.512V138.747H0.640137V145.512C0.640137 153.431 7.05896 159.85 14.9778 159.85H105.26C97.3415 159.85 90.9227 153.431 90.9227 145.512Z" fill="#6EB7C6"/>
<path d="M40.1357 29.8235C39.5874 29.8235 39.1426 29.3787 39.1426 28.8304V20.6582C39.1426 20.1099 39.5874 19.6651 40.1357 19.6651C40.6839 19.6651 41.1287 20.1099 41.1287 20.6582V28.8304C41.1287 29.3787 40.6839 29.8235 40.1357 29.8235Z" fill="#251F2B"/>
<path d="M49.7563 29.8235C49.208 29.8235 48.7632 29.3787 48.7632 28.8304V20.6582C48.7632 20.1099 49.208 19.6651 49.7563 19.6651C50.3045 19.6651 50.7493 20.1099 50.7493 20.6582V28.8304C50.7493 29.3787 50.3045 29.8235 49.7563 29.8235Z" fill="#251F2B"/>
<path d="M59.3769 29.8235C58.8286 29.8235 58.3838 29.3787 58.3838 28.8304V20.6582C58.3838 20.1099 58.8286 19.6651 59.3769 19.6651C59.9251 19.6651 60.37 20.1099 60.37 20.6582V28.8304C60.37 29.3787 59.9251 29.8235 59.3769 29.8235Z" fill="#251F2B"/>
<path d="M68.9975 29.8235C68.4492 29.8235 68.0044 29.3787 68.0044 28.8304V20.6582C68.0044 20.1099 68.4492 19.6651 68.9975 19.6651C69.5457 19.6651 69.9906 20.1099 69.9906 20.6582V28.8304C69.9906 29.3787 69.5457 29.8235 68.9975 29.8235Z" fill="#251F2B"/>
<path d="M78.6127 29.8235C78.0644 29.8235 77.6196 29.3787 77.6196 28.8304V20.6582C77.6196 20.1099 78.0644 19.6651 78.6127 19.6651C79.161 19.6651 79.6058 20.1099 79.6058 20.6582V28.8304C79.6058 29.3787 79.161 29.8235 78.6127 29.8235Z" fill="#251F2B"/>
<path d="M88.2333 29.8235C87.6851 29.8235 87.2402 29.3787 87.2402 28.8304V20.6582C87.2402 20.1099 87.6851 19.6651 88.2333 19.6651C88.7816 19.6651 89.2264 20.1099 89.2264 20.6582V28.8304C89.2264 29.3787 88.7816 29.8235 88.2333 29.8235Z" fill="#251F2B"/>
<path d="M97.8534 29.8235C97.3052 29.8235 96.8604 29.3787 96.8604 28.8304V20.6582C96.8604 20.1099 97.3052 19.6651 97.8534 19.6651C98.4017 19.6651 98.8465 20.1099 98.8465 20.6582V28.8304C98.8465 29.3787 98.4017 29.8235 97.8534 29.8235Z" fill="#251F2B"/>
<path d="M107.474 29.8235C106.926 29.8235 106.481 29.3787 106.481 28.8304V20.6582C106.481 20.1099 106.926 19.6651 107.474 19.6651C108.022 19.6651 108.467 20.1099 108.467 20.6582V28.8304C108.467 29.3787 108.022 29.8235 107.474 29.8235Z" fill="#251F2B"/>
<path d="M117.095 29.8235C116.546 29.8235 116.102 29.3787 116.102 28.8304V20.6582C116.102 20.1099 116.546 19.6651 117.095 19.6651C117.643 19.6651 118.088 20.1099 118.088 20.6582V28.8304C118.088 29.3787 117.643 29.8235 117.095 29.8235Z" fill="#251F2B"/>
<path d="M126.715 29.8235C126.166 29.8235 125.722 29.3787 125.722 28.8304V20.6582C125.722 20.1099 126.166 19.6651 126.715 19.6651C127.263 19.6651 127.708 20.1099 127.708 20.6582V28.8304C127.708 29.3787 127.263 29.8235 126.715 29.8235Z" fill="#251F2B"/>
<path d="M49.7761 48.0287L46.1401 49.2767L49.7761 50.5247V52.5647L43.6561 50.3447V48.2087L49.7761 45.9887V48.0287Z" fill="#473A52"/>
<path d="M117.07 48.0287L120.706 49.2767L117.07 50.5247V52.5647L123.19 50.3447V48.2087L117.07 45.9887V48.0287Z" fill="#473A52"/>
<path d="M104.495 47.6835H62.356C60.9026 47.6835 59.7285 46.5042 59.7285 45.0559C59.7285 43.6025 60.9078 42.4284 62.356 42.4284H104.495C105.948 42.4284 107.122 43.6077 107.122 45.0559C107.122 46.5093 105.943 47.6835 104.495 47.6835Z" fill="#95B4E0"/>
<path d="M59.3822 60.9401H46.1463C45.267 60.9401 44.5532 60.2263 44.5532 59.347C44.5532 58.4677 45.267 57.7539 46.1463 57.7539H59.3822C60.2615 57.7539 60.9753 58.4677 60.9753 59.347C60.9753 60.2263 60.2615 60.9401 59.3822 60.9401Z" fill="#FFCA4E"/>
<path d="M79.828 60.9401H66.5921C65.7128 60.9401 64.999 60.2263 64.999 59.347C64.999 58.4677 65.7128 57.7539 66.5921 57.7539H79.828C80.7073 57.7539 81.4211 58.4677 81.4211 59.347C81.4211 60.2263 80.7073 60.9401 79.828 60.9401Z" fill="#FFCA4E"/>
<path d="M100.269 60.9401H87.033C86.1537 60.9401 85.4399 60.2263 85.4399 59.347C85.4399 58.4677 86.1537 57.7539 87.033 57.7539H100.269C101.148 57.7539 101.862 58.4677 101.862 59.347C101.862 60.2263 101.148 60.9401 100.269 60.9401Z" fill="#FFCA4E"/>
<path d="M120.715 60.9401H107.479C106.6 60.9401 105.886 60.2263 105.886 59.347C105.886 58.4677 106.6 57.7539 107.479 57.7539H120.715C121.595 57.7539 122.308 58.4677 122.308 59.347C122.308 60.2263 121.595 60.9401 120.715 60.9401Z" fill="#FFCA4E"/>
<path d="M58.57 64.9538H46.803C45.5575 64.9538 44.5479 65.9634 44.5479 67.2089V78.9759C44.5479 80.2214 45.5575 81.231 46.803 81.231H58.57C59.8154 81.231 60.8251 80.2214 60.8251 78.9759V67.2089C60.8251 65.9634 59.8154 64.9538 58.57 64.9538Z" fill="#D9DDF2"/>
<path d="M79.0885 64.9538H67.3215C66.0761 64.9538 65.0664 65.9634 65.0664 67.2089V78.9759C65.0664 80.2214 66.0761 81.231 67.3215 81.231H79.0885C80.334 81.231 81.3436 80.2214 81.3436 78.9759V67.2089C81.3436 65.9634 80.334 64.9538 79.0885 64.9538Z" fill="#D43F53"/>
<path d="M99.6071 64.9538H87.8401C86.5946 64.9538 85.585 65.9634 85.585 67.2089V78.9759C85.585 80.2214 86.5946 81.231 87.8401 81.231H99.6071C100.853 81.231 101.862 80.2214 101.862 78.9759V67.2089C101.862 65.9634 100.853 64.9538 99.6071 64.9538Z" fill="#D9DDF2"/>
<path d="M120.126 64.9538H108.359C107.113 64.9538 106.104 65.9634 106.104 67.2089V78.9759C106.104 80.2214 107.113 81.231 108.359 81.231H120.126C121.371 81.231 122.381 80.2214 122.381 78.9759V67.2089C122.381 65.9634 121.371 64.9538 120.126 64.9538Z" fill="#D9DDF2"/>
<path d="M58.57 85.8861H46.803C45.5575 85.8861 44.5479 86.8957 44.5479 88.1412V99.9082C44.5479 101.154 45.5575 102.163 46.803 102.163H58.57C59.8154 102.163 60.8251 101.154 60.8251 99.9082V88.1412C60.8251 86.8957 59.8154 85.8861 58.57 85.8861Z" fill="#D9DDF2"/>
<path d="M79.0885 85.8861H67.3215C66.0761 85.8861 65.0664 86.8957 65.0664 88.1412V99.9082C65.0664 101.154 66.0761 102.163 67.3215 102.163H79.0885C80.334 102.163 81.3436 101.154 81.3436 99.9082V88.1412C81.3436 86.8957 80.334 85.8861 79.0885 85.8861Z" fill="#D9DDF2"/>
<path d="M99.6071 85.8861H87.8401C86.5946 85.8861 85.585 86.8957 85.585 88.1412V99.9082C85.585 101.154 86.5946 102.163 87.8401 102.163H99.6071C100.853 102.163 101.862 101.154 101.862 99.9082V88.1412C101.862 86.8957 100.853 85.8861 99.6071 85.8861Z" fill="#D43F53"/>
<path d="M97.9052 94.5548C99.7568 92.9049 98.712 89.786 96.2345 89.6722C96.1828 89.6722 96.1311 89.6722 96.0793 89.6722C95.1121 89.6722 94.2328 90.0756 93.607 90.717C92.9811 90.0705 92.107 89.6722 91.1346 89.6722C91.0829 89.6722 91.0312 89.6722 90.9794 89.6722C88.5019 89.786 87.4571 92.9049 89.3088 94.5548L93.607 98.3772L97.9052 94.5548Z" fill="#FEFFFF"/>
<path d="M87.1626 94.3738H91.8125L92.9297 91.9377L94.1038 96.1169L95.2159 94.3738H100.29" stroke="#2C1817" stroke-width="0.9" stroke-miterlimit="10"/>
<path d="M120.126 85.8861H108.359C107.113 85.8861 106.104 86.8957 106.104 88.1412V99.9082C106.104 101.154 107.113 102.163 108.359 102.163H120.126C121.371 102.163 122.381 101.154 122.381 99.9082V88.1412C122.381 86.8957 121.371 85.8861 120.126 85.8861Z" fill="#D43F53"/>
<path d="M58.57 106.818H46.803C45.5575 106.818 44.5479 107.828 44.5479 109.074V120.841C44.5479 122.086 45.5575 123.096 46.803 123.096H58.57C59.8154 123.096 60.8251 122.086 60.8251 120.841V109.074C60.8251 107.828 59.8154 106.818 58.57 106.818Z" fill="#D9DDF2"/>
<path d="M79.0885 106.818H67.3215C66.0761 106.818 65.0664 107.828 65.0664 109.074V120.841C65.0664 122.086 66.0761 123.096 67.3215 123.096H79.0885C80.334 123.096 81.3436 122.086 81.3436 120.841V109.074C81.3436 107.828 80.334 106.818 79.0885 106.818Z" fill="#D9DDF2"/>
<path d="M99.6071 106.818H87.8401C86.5946 106.818 85.585 107.828 85.585 109.074V120.841C85.585 122.086 86.5946 123.096 87.8401 123.096H99.6071C100.853 123.096 101.862 122.086 101.862 120.841V109.074C101.862 107.828 100.853 106.818 99.6071 106.818Z" fill="#DEECFF"/>
<path d="M119.976 106.818H108.209C106.963 106.818 105.954 107.828 105.954 109.074V120.841C105.954 122.086 106.963 123.096 108.209 123.096H119.976C121.221 123.096 122.231 122.086 122.231 120.841V109.074C122.231 107.828 121.221 106.818 119.976 106.818Z" fill="#DEECFF"/>
<path d="M153.497 58.8039H112.982C111.837 58.8039 110.908 59.7325 110.908 60.878V76.2708C110.908 77.4163 111.837 78.3449 112.982 78.3449H153.497C154.642 78.3449 155.571 77.4163 155.571 76.2708V60.878C155.571 59.7325 154.642 58.8039 153.497 58.8039Z" fill="#346690"/>
<path d="M160.065 59.5323C160.469 57.0454 158.781 54.7015 156.294 54.297C153.808 53.8924 151.464 55.5804 151.059 58.0672C150.655 60.554 152.343 62.898 154.829 63.3025C157.316 63.7071 159.66 62.0191 160.065 59.5323Z" fill="#FFCA4E"/>
<path d="M157.413 59.4866H153.735V57.9298C153.735 56.916 154.558 56.0936 155.572 56.0936C156.585 56.0936 157.408 56.916 157.408 57.9298V59.4866H157.413Z" fill="#FEFFFF"/>
<path d="M158.411 60.2832H152.731C152.731 59.4039 153.445 58.6901 154.325 58.6901H156.823C157.702 58.6901 158.416 59.4039 158.416 60.2832H158.411Z" fill="#FEFFFF"/>
<path d="M154.78 60.7228C154.78 61.1625 155.137 61.5142 155.571 61.5142C156.006 61.5142 156.363 61.1573 156.363 60.7228H154.775H154.78Z" fill="#FEFFFF"/>
<path d="M115.279 76.3846V87.3757L126.715 76.3846H115.279Z" fill="#346690"/>
<path d="M127.007 69.7819C127.671 66.4656 125.521 63.2389 122.204 62.575C118.888 61.9111 115.661 64.0614 114.997 67.3778C114.334 70.6942 116.484 73.9209 119.8 74.5847C123.117 75.2486 126.343 73.0983 127.007 69.7819Z" fill="#FEFFFF"/>
<path d="M122.489 64.6745H119.505V72.4691H122.489V64.6745Z" fill="#D43F53"/>
<path d="M124.895 70.0692V67.0848H117.1V70.0692H124.895Z" fill="#D43F53"/>
<path d="M148.79 64.9538H133.641C133.158 64.9538 132.767 65.3451 132.767 65.8279C132.767 66.3107 133.158 66.702 133.641 66.702H148.79C149.273 66.702 149.665 66.3107 149.665 65.8279C149.665 65.3451 149.273 64.9538 148.79 64.9538Z" fill="#95B4E0"/>
<path d="M146.334 72.195H134.582C133.579 72.195 132.767 71.3829 132.767 70.3743C132.767 69.3709 133.579 68.5537 134.582 68.5537H146.334C147.337 68.5537 148.149 69.3657 148.149 70.3743C148.149 71.3778 147.337 72.195 146.334 72.195Z" fill="white"/>
</g>
<defs>
<clipPath id="clip0_9380_29124">
<rect width="169.838" height="160" fill="white" transform="translate(0.640137)"/>
</clipPath>
</defs>
</svg>
