<svg width="121" height="121" viewBox="0 0 121 121" fill="none" xmlns="http://www.w3.org/2000/svg">
<g clip-path="url(#clip0_10106_4874)">
<path d="M106.749 104.1C104.272 106.677 101.928 108.34 100.076 109.653C78.3084 125.089 52.5517 120.589 47.0776 119.491C38.9943 117.868 23.3687 114.732 12.0723 101.603C-5.0188 81.7376 -2.35716 50.4425 10.8992 29.7835C13.3241 26.0051 26.1333 5.03201 52.1681 1.66873C67.9235 -0.366679 86.29 3.7389 99.5904 14.7514C127.509 37.8681 125.522 84.5684 106.75 104.1H106.749Z" fill="#ECF6F8"/>
<path d="M30.218 115.008H73.5944C74.4198 115.008 75.0889 114.339 75.0889 113.514L75.0889 2.44315C75.0889 1.61781 74.4198 0.948723 73.5944 0.948723H30.218C29.3927 0.948723 28.7236 1.61781 28.7236 2.44315L28.7236 113.514C28.7236 114.339 29.3927 115.008 30.218 115.008Z" fill="#313435"/>
<path d="M46.1205 115.008H87.7487C89.0568 115.008 90.1172 113.948 90.1172 112.64L90.1172 3.31725C90.1172 2.00915 89.0568 0.948723 87.7487 0.948723H46.1205C44.8124 0.948723 43.7519 2.00915 43.7519 3.31725L43.7519 112.64C43.7519 113.948 44.8124 115.008 46.1205 115.008Z" fill="#74767B"/>
<path d="M46.8535 15.4661V8.78348C46.8535 7.47135 47.6588 6.40315 48.6483 6.40315H84.0902C85.0797 6.40315 85.885 7.47069 85.885 8.78348V15.4661C85.885 16.7782 85.0797 17.8464 84.0902 17.8464H48.6483C47.6588 17.8464 46.8535 16.7789 46.8535 15.4661ZM48.6483 6.99856C47.906 6.99856 47.3027 7.79922 47.3027 8.78348V15.4661C47.3027 16.4504 47.9066 17.251 48.6483 17.251H84.0902C84.8325 17.251 85.4358 16.4504 85.4358 15.4661V8.78348C85.4358 7.79922 84.8319 6.99856 84.0902 6.99856H48.6483Z" fill="#D7D9E0"/>
<path d="M46.8535 33.775V27.0923C46.8535 25.7802 47.6588 24.712 48.6483 24.712H84.0902C85.0797 24.712 85.885 25.7795 85.885 27.0923V33.775C85.885 35.0871 85.0797 36.1553 84.0902 36.1553H48.6483C47.6588 36.1553 46.8535 35.0877 46.8535 33.775ZM48.6483 25.3074C47.906 25.3074 47.3027 26.1081 47.3027 27.0923V33.775C47.3027 34.7592 47.9066 35.5599 48.6483 35.5599H84.0902C84.8325 35.5599 85.4358 34.7592 85.4358 33.775V27.0923C85.4358 26.1081 84.8319 25.3074 84.0902 25.3074H48.6483Z" fill="#D7D9E0"/>
<path d="M46.8535 53.2064V46.5238C46.8535 45.2117 47.6588 44.1435 48.6483 44.1435H84.0902C85.0797 44.1435 85.885 45.211 85.885 46.5238V53.2064C85.885 54.5186 85.0797 55.5868 84.0902 55.5868H48.6483C47.6588 55.5868 46.8535 54.5192 46.8535 53.2064ZM48.6483 44.7389C47.906 44.7389 47.3027 45.5395 47.3027 46.5238V53.2064C47.3027 54.1907 47.9066 54.9914 48.6483 54.9914H84.0902C84.8325 54.9914 85.4358 54.1907 85.4358 53.2064V46.5238C85.4358 45.5395 84.8319 44.7389 84.0902 44.7389H48.6483Z" fill="#D7D9E0"/>
<path d="M46.8535 71.5146V64.832C46.8535 63.5199 47.6588 62.4517 48.6483 62.4517H84.0902C85.0797 62.4517 85.885 63.5192 85.885 64.832V71.5146C85.885 72.8268 85.0797 73.895 84.0902 73.895H48.6483C47.6588 73.895 46.8535 72.8274 46.8535 71.5146ZM48.6483 63.0471C47.906 63.0471 47.3027 63.8477 47.3027 64.832V71.5146C47.3027 72.4989 47.9066 73.2995 48.6483 73.2995H84.0902C84.8325 73.2995 85.4358 72.4989 85.4358 71.5146V64.832C85.4358 63.8477 84.8319 63.0471 84.0902 63.0471H48.6483Z" fill="#D7D9E0"/>
<path d="M47.0776 90.293V83.6104C47.0776 82.2982 47.8829 81.23 48.8724 81.23H84.3144C85.3039 81.23 86.1091 82.2976 86.1091 83.6104V90.293C86.1091 91.6051 85.3039 92.6733 84.3144 92.6733H48.8724C47.8829 92.6733 47.0776 91.6058 47.0776 90.293ZM48.8724 81.8254C48.1301 81.8254 47.5268 82.6261 47.5268 83.6104V90.293C47.5268 91.2773 48.1308 92.0779 48.8724 92.0779H84.3144C85.0567 92.0779 85.6606 91.2773 85.6606 90.293V83.6104C85.6606 82.6261 85.0567 81.8254 84.3144 81.8254H48.8724Z" fill="#D7D9E0"/>
<path d="M46.8535 109.044V102.361C46.8535 101.049 47.6588 99.9809 48.6483 99.9809H84.0902C85.0797 99.9809 85.885 101.048 85.885 102.361V109.044C85.885 110.356 85.0797 111.424 84.0902 111.424H48.6483C47.6588 111.424 46.8535 110.357 46.8535 109.044ZM48.6483 100.576C47.906 100.576 47.3027 101.377 47.3027 102.361V109.044C47.3027 110.028 47.9066 110.829 48.6483 110.829H84.0902C84.8325 110.829 85.4358 110.028 85.4358 109.044V102.361C85.4358 101.377 84.8319 100.576 84.0902 100.576H48.6483Z" fill="#D7D9E0"/>
<path d="M83.0057 12.714C83.4805 12.714 83.8653 12.3479 83.8653 11.8963C83.8653 11.4447 83.4805 11.0786 83.0057 11.0786C82.5309 11.0786 82.146 11.4447 82.146 11.8963C82.146 12.3479 82.5309 12.714 83.0057 12.714Z" fill="#D7D9E0"/>
<path d="M83.0057 31.251C83.4805 31.251 83.8653 30.8849 83.8653 30.4333C83.8653 29.9817 83.4805 29.6156 83.0057 29.6156C82.5309 29.6156 82.146 29.9817 82.146 30.4333C82.146 30.8849 82.5309 31.251 83.0057 31.251Z" fill="#D7D9E0"/>
<path d="M83.0057 50.3415C83.4805 50.3415 83.8653 49.9754 83.8653 49.5238C83.8653 49.0722 83.4805 48.7061 83.0057 48.7061C82.5309 48.7061 82.146 49.0722 82.146 49.5238C82.146 49.9754 82.5309 50.3415 83.0057 50.3415Z" fill="#D7D9E0"/>
<path d="M83.0057 68.9914C83.4805 68.9914 83.8653 68.6253 83.8653 68.1736C83.8653 67.722 83.4805 67.3559 83.0057 67.3559C82.5309 67.3559 82.146 67.722 82.146 68.1736C82.146 68.6253 82.5309 68.9914 83.0057 68.9914Z" fill="#D7D9E0"/>
<path d="M83.0057 87.7697C83.4805 87.7697 83.8653 87.4036 83.8653 86.952C83.8653 86.5004 83.4805 86.1343 83.0057 86.1343C82.5309 86.1343 82.146 86.5004 82.146 86.952C82.146 87.4036 82.5309 87.7697 83.0057 87.7697Z" fill="#D7D9E0"/>
<path d="M83.3792 106.52C83.854 106.52 84.2389 106.154 84.2389 105.702C84.2389 105.251 83.854 104.884 83.3792 104.884C82.9044 104.884 82.5195 105.251 82.5195 105.702C82.5195 106.154 82.9044 106.52 83.3792 106.52Z" fill="#D7D9E0"/>
<path d="M77.6758 110.589H79.0889V105.515H77.6758V110.589Z" fill="#D7D9E0"/>
<path d="M75.3149 110.589H76.728V107.258H75.3149V110.589Z" fill="#D7D9E0"/>
<path d="M72.9546 110.589H74.3677V102.948H72.9546V110.589Z" fill="#D7D9E0"/>
<path d="M70.5937 110.589H72.0068V108.753H70.5937V110.589Z" fill="#D7D9E0"/>
<path d="M68.2329 110.589H69.646V103.97H68.2329V110.589Z" fill="#D7D9E0"/>
<path d="M65.8716 110.589H67.2847V105.116H65.8716V110.589Z" fill="#D7D9E0"/>
<path d="M63.5112 110.589H64.9243V106.361H63.5112V110.589Z" fill="#D7D9E0"/>
<path d="M61.1504 110.589H62.5635V101.403H61.1504V110.589Z" fill="#D7D9E0"/>
<path d="M58.79 110.589H60.2031V102.375H58.79V110.589Z" fill="#D7D9E0"/>
<path d="M56.4292 110.589H57.8423V103.845H56.4292V110.589Z" fill="#D7D9E0"/>
<path d="M54.0678 110.589H55.481V108.923H54.0678V110.589Z" fill="#D7D9E0"/>
<path d="M51.707 110.589H53.1201V105.688H51.707V110.589Z" fill="#D7D9E0"/>
<path d="M77.6377 91.5448H79.0508V86.47H77.6377V91.5448Z" fill="#D7D9E0"/>
<path d="M75.2768 91.5448H76.6899V88.2143H75.2768V91.5448Z" fill="#D7D9E0"/>
<path d="M72.9165 91.5448H74.3296V83.9041H72.9165V91.5448Z" fill="#D7D9E0"/>
<path d="M70.5556 91.5448H71.9688V89.7094H70.5556V91.5448Z" fill="#D7D9E0"/>
<path d="M68.1948 91.5448H69.6079V84.9258H68.1948V91.5448Z" fill="#D7D9E0"/>
<path d="M65.834 91.5448H67.2471V86.0714H65.834V91.5448Z" fill="#D7D9E0"/>
<path d="M63.4731 91.5448H64.8862V87.3173H63.4731V91.5448Z" fill="#D7D9E0"/>
<path d="M61.1133 91.5448H62.5264V82.3592H61.1133V91.5448Z" fill="#D7D9E0"/>
<path d="M58.7519 91.5448H60.165V83.331H58.7519V91.5448Z" fill="#D7D9E0"/>
<path d="M56.3911 91.5448H57.8042V84.8012H56.3911V91.5448Z" fill="#D7D9E0"/>
<path d="M54.0298 91.5448H55.4429V89.8792H54.0298V91.5448Z" fill="#D7D9E0"/>
<path d="M51.6689 91.5448H53.082V86.6445H51.6689V91.5448Z" fill="#D7D9E0"/>
<path d="M78.1308 72.8418H79.5439V67.7671H78.1308V72.8418Z" fill="#D7D9E0"/>
<path d="M75.77 72.8425H77.1831V69.512H75.77V72.8425Z" fill="#D7D9E0"/>
<path d="M73.4096 72.8425H74.8228V65.2018H73.4096V72.8425Z" fill="#D7D9E0"/>
<path d="M71.0488 72.8425H72.4619V71.0071H71.0488V72.8425Z" fill="#D7D9E0"/>
<path d="M68.6875 72.8418H70.1006V66.2228H68.6875V72.8418Z" fill="#D7D9E0"/>
<path d="M66.3266 72.8418H67.7397V67.3684H66.3266V72.8418Z" fill="#D7D9E0"/>
<path d="M63.9663 72.8418H65.3794V68.6143H63.9663V72.8418Z" fill="#D7D9E0"/>
<path d="M61.6054 72.8425H63.0186V63.6569H61.6054V72.8425Z" fill="#D7D9E0"/>
<path d="M59.2451 72.8425H60.6582V64.6287H59.2451V72.8425Z" fill="#D7D9E0"/>
<path d="M56.8838 72.8418H58.2969V66.0982H56.8838V72.8418Z" fill="#D7D9E0"/>
<path d="M54.5229 72.8418H55.936V71.1763H54.5229V72.8418Z" fill="#D7D9E0"/>
<path d="M52.1631 72.8418H53.5762V67.9415H52.1631V72.8418Z" fill="#D7D9E0"/>
<path d="M78.0927 54.4805H79.5059V49.4058H78.0927V54.4805Z" fill="#D7D9E0"/>
<path d="M75.7319 54.4812H77.145V51.1507H75.7319V54.4812Z" fill="#D7D9E0"/>
<path d="M73.3716 54.4805H74.7847V46.8399H73.3716V54.4805Z" fill="#D7D9E0"/>
<path d="M71.0107 54.4805H72.4238V52.6451H71.0107V54.4805Z" fill="#D7D9E0"/>
<path d="M68.6494 54.4805H70.0625V47.8615H68.6494V54.4805Z" fill="#D7D9E0"/>
<path d="M66.289 54.4805H67.7021V49.0071H66.289V54.4805Z" fill="#D7D9E0"/>
<path d="M63.9282 54.4812H65.3413V50.2536H63.9282V54.4812Z" fill="#D7D9E0"/>
<path d="M61.5674 54.4812H62.9805V45.2956H61.5674V54.4812Z" fill="#D7D9E0"/>
<path d="M59.207 54.4812H60.6201V46.2674H59.207V54.4812Z" fill="#D7D9E0"/>
<path d="M56.8457 54.4805H58.2588V47.7369H56.8457V54.4805Z" fill="#D7D9E0"/>
<path d="M54.4848 54.4805H55.8979V52.815H54.4848V54.4805Z" fill="#D7D9E0"/>
<path d="M52.125 54.4805H53.5381V49.5802H52.125V54.4805Z" fill="#D7D9E0"/>
<path d="M78.1308 35.1409H79.5439V30.0661H78.1308V35.1409Z" fill="#D7D9E0"/>
<path d="M75.77 35.1415H77.1831V31.811H75.77V35.1415Z" fill="#D7D9E0"/>
<path d="M73.4096 35.1409H74.8228V27.5002H73.4096V35.1409Z" fill="#D7D9E0"/>
<path d="M71.0488 35.1409H72.4619V33.3055H71.0488V35.1409Z" fill="#D7D9E0"/>
<path d="M68.6875 35.1409H70.1006V28.5219H68.6875V35.1409Z" fill="#D7D9E0"/>
<path d="M66.3266 35.1409H67.7397V29.6674H66.3266V35.1409Z" fill="#D7D9E0"/>
<path d="M63.9663 35.1415H65.3794V30.914H63.9663V35.1415Z" fill="#D7D9E0"/>
<path d="M61.6054 35.1415H63.0186V25.9559H61.6054V35.1415Z" fill="#D7D9E0"/>
<path d="M59.2451 35.1415H60.6582V26.9277H59.2451V35.1415Z" fill="#D7D9E0"/>
<path d="M56.8838 35.1409H58.2969V28.3973H56.8838V35.1409Z" fill="#D7D9E0"/>
<path d="M54.5229 35.1409H55.936V33.4753H54.5229V35.1409Z" fill="#D7D9E0"/>
<path d="M52.1631 35.1409H53.5762V30.2405H52.1631V35.1409Z" fill="#D7D9E0"/>
<path d="M78.0927 16.7796H79.5059V11.7048H78.0927V16.7796Z" fill="#D7D9E0"/>
<path d="M75.7319 16.7795H77.145V13.4491H75.7319V16.7795Z" fill="#D7D9E0"/>
<path d="M73.3716 16.7795H74.7847V9.13889H73.3716V16.7795Z" fill="#D7D9E0"/>
<path d="M71.0107 16.7796H72.4238V14.9441H71.0107V16.7796Z" fill="#D7D9E0"/>
<path d="M68.6494 16.7795H70.0625V10.1605H68.6494V16.7795Z" fill="#D7D9E0"/>
<path d="M66.289 16.7795H67.7021V11.3061H66.289V16.7795Z" fill="#D7D9E0"/>
<path d="M63.9282 16.7802H65.3413V12.5527H63.9282V16.7802Z" fill="#D7D9E0"/>
<path d="M61.5674 16.7802H62.9805V7.59463H61.5674V16.7802Z" fill="#D7D9E0"/>
<path d="M59.207 16.7795H60.6201V8.56578H59.207V16.7795Z" fill="#D7D9E0"/>
<path d="M56.8457 16.7795H58.2588V10.0359H56.8457V16.7795Z" fill="#D7D9E0"/>
<path d="M54.4848 16.7795H55.8979V15.114H54.4848V16.7795Z" fill="#D7D9E0"/>
<path d="M52.125 16.7795H53.5381V11.8792H52.125V16.7795Z" fill="#D7D9E0"/>
<path d="M43.6808 39.1658L92.9654 39.1218C95.6841 39.1192 97.928 41.2484 98.069 43.9638L101.77 115.414C101.88 117.539 100.209 119.333 98.0814 119.374L41.5962 120.45C39.5975 120.488 37.9562 118.879 37.9542 116.881L37.8906 44.9671C37.888 41.7664 40.4801 39.1691 43.6808 39.1664V39.1658Z" fill="#636869"/>
<path d="M49.8507 119.239H49.8488L43.5281 119.163C41.4088 119.138 39.6829 117.393 39.6809 115.273L39.6724 105.73C39.6724 105.65 39.7373 105.585 39.8179 105.585C39.8986 105.585 39.9635 105.65 39.9635 105.73L39.972 115.273C39.974 117.234 41.5701 118.848 43.5307 118.872L49.8514 118.948C49.932 118.949 49.9963 119.015 49.9956 119.096C49.9943 119.176 49.9294 119.24 49.8501 119.24L49.8507 119.239Z" fill="#5C5E61"/>
<path d="M39.8158 102.919C39.7352 102.919 39.6703 102.854 39.6703 102.774L39.6689 101.228C39.6689 101.147 39.7339 101.083 39.8145 101.083C39.8952 101.083 39.9601 101.147 39.9601 101.228L39.9614 102.774C39.9614 102.854 39.8965 102.919 39.8158 102.919Z" fill="#5C5E61"/>
<path d="M43.8316 38.5868C50.5627 39.4937 73.709 42.2956 92.8421 40.8097C93.7149 40.7422 94.4722 41.4025 94.5195 42.2766L98.3975 114.045C98.4506 115.029 97.6998 115.871 96.7162 115.93C88.669 116.414 55.5273 118.284 43.7044 117.056C42.985 116.982 42.4381 116.376 42.4335 115.653L41.9234 40.2674C41.9162 39.2432 42.8165 38.4497 43.8309 38.5868H43.8316Z" fill="#A8ABB2"/>
<path opacity="0.29" d="M44.5542 40.4477C51.0316 41.3205 73.3063 44.0169 91.7194 42.5874C92.5594 42.5225 93.2886 43.1579 93.3339 43.9986L97.0663 113.065C97.1175 114.012 96.3948 114.822 95.4486 114.879C87.7044 115.344 55.8106 117.144 44.4329 115.963C43.7404 115.891 43.2145 115.309 43.2099 114.612L42.7188 42.0655C42.7122 41.0799 43.5778 40.3166 44.5549 40.4477H44.5542Z" fill="white"/>
<path d="M48.7191 47.3848L49.4201 62.192C49.4437 62.6845 49.8417 63.0759 50.3342 63.0891C53.0765 63.1638 61.622 63.3651 66.4469 63.1087C66.9925 63.0799 67.424 62.6379 67.4417 62.0917C67.5315 59.3146 67.7256 51.232 67.0896 47.8537C66.9866 47.3081 66.5171 46.9087 65.9624 46.8897L49.7525 46.3369C49.1683 46.3173 48.6909 46.8005 48.7184 47.3848H48.7191Z" fill="white"/>
<path d="M60.3014 54.9212C61.5444 53.6782 61.5444 51.6629 60.3014 50.4199C59.0584 49.1768 57.043 49.1768 55.8 50.4199C54.557 51.6629 54.557 53.6782 55.8 54.9212C57.043 56.1643 59.0584 56.1643 60.3014 54.9212Z" fill="#74767B"/>
<path d="M53.2237 62.0209L63.3647 62.0117C63.9863 62.0117 64.3581 61.3245 64.0231 60.8005C63.1608 59.4536 61.3562 57.4746 58.2355 57.5671C55.227 57.6556 53.446 59.4464 52.5509 60.7297C52.1706 61.2746 52.5595 62.0215 53.2237 62.0209Z" fill="#74767B"/>
<g opacity="0.8">
<path d="M89.2683 48.6379C89.5889 48.6379 89.844 48.4137 89.8362 48.1409C89.8283 47.8681 89.5588 47.6399 89.2388 47.634L71.4742 47.333C71.1535 47.3278 70.9791 47.5704 71.0853 47.8727L71.1673 48.1041C71.2742 48.4064 71.6237 48.6537 71.9444 48.653L89.2689 48.6379H89.2683Z" fill="white"/>
</g>
<path d="M71.4761 50.0937C71.1555 50.0884 70.9811 50.331 71.0873 50.6333L71.1693 50.8648C71.2761 51.1671 71.6257 51.4143 71.9463 51.4137L89.2709 51.3986C89.5916 51.3986 89.8466 51.1743 89.8388 50.9015C89.8302 50.6281 89.5614 50.4005 89.2414 50.3946L71.4768 50.0937H71.4761Z" fill="white"/>
<g opacity="0.8">
<path d="M71.4791 52.8943C71.1584 52.8891 70.984 53.1317 71.0902 53.434L71.1722 53.6655C71.2791 53.9678 71.6286 54.215 71.9492 54.2143L89.2738 54.1992C89.5945 54.1992 89.8496 53.975 89.8417 53.7022C89.8338 53.4294 89.5643 53.2012 89.2443 53.1953L71.4797 52.8943H71.4791Z" fill="white"/>
</g>
<g opacity="0.8">
<path d="M91.0122 67.7035C91.3329 67.7035 91.5801 67.4792 91.5617 67.2064C91.5434 66.9336 91.266 66.7081 90.946 66.7054L49.3138 66.4143C48.9932 66.4123 48.8948 66.6149 49.0948 66.8654L49.4292 67.2845C49.6292 67.5349 50.0548 67.7395 50.3755 67.7395L91.0129 67.7035H91.0122Z" fill="white"/>
</g>
<g opacity="0.8">
<path d="M49.3163 69.175C48.9956 69.173 48.8973 69.3756 49.0973 69.6261L49.4317 70.0451C49.6317 70.2956 50.0573 70.5002 50.3779 70.5002L91.0153 70.4641C91.336 70.4641 91.5832 70.2399 91.5648 69.9671C91.5464 69.6943 91.2691 69.4687 90.9491 69.4661L49.3169 69.175H49.3163Z" fill="white"/>
</g>
<path d="M54.7621 79.8425H54.7536L51.2388 79.8117C50.7313 79.8071 50.3116 79.4576 50.2637 78.9992L49.9523 76.0504C49.9339 75.8746 49.9877 75.7002 50.1057 75.5605C50.2368 75.4038 50.4355 75.3055 50.6506 75.291C50.947 75.2707 51.3641 75.2346 51.806 75.1966C52.7837 75.1127 53.8913 75.0169 54.5424 75.0084C54.5477 75.0084 54.5529 75.0084 54.5582 75.0084C55.0244 75.0084 55.4263 75.2923 55.5378 75.7041C55.7221 76.3822 55.707 77.6641 55.6736 79.0307C55.6624 79.4805 55.2545 79.8432 54.7627 79.8432L54.7621 79.8425ZM50.6703 75.5822C50.5339 75.5914 50.4086 75.6523 50.328 75.7481C50.2618 75.8268 50.2309 75.9238 50.2414 76.0202L50.5529 78.9684C50.5857 79.2799 50.8814 79.5173 51.2414 79.5199L54.7562 79.5507H54.7627C55.0978 79.5507 55.3752 79.3153 55.3824 79.0228C55.4152 77.6792 55.4309 76.4202 55.2572 75.7802C55.1811 75.5002 54.888 75.2996 54.5582 75.2996C54.5542 75.2996 54.5509 75.2996 54.547 75.2996C53.9064 75.3081 52.7562 75.4071 51.8316 75.4864C51.3883 75.5245 50.9693 75.5605 50.6709 75.5815L50.6703 75.5822Z" fill="white"/>
<path d="M58.1402 76.7723C57.8195 76.7717 57.6248 77.0248 57.7067 77.3343L57.8733 77.9638C57.9552 78.2733 58.2844 78.5245 58.6051 78.5205L90.4687 78.1586C90.7893 78.1546 91.0451 77.8897 91.0379 77.5697L91.0346 77.4235C91.0274 77.1028 90.7592 76.8405 90.4385 76.8399L58.1402 76.7723Z" fill="white"/>
<path d="M51.1977 76.3376C51.4587 76.1841 51.7944 76.2753 51.9419 76.5395L52.6364 77.7815C52.7059 77.9061 52.8875 77.8976 52.9459 77.7677L54.6619 73.9382C54.7478 73.7474 55.0318 73.8117 55.0292 74.0209C55.0128 75.192 54.7039 77.4176 52.8351 79.2825C52.8351 79.2825 51.8036 78.8825 50.9721 77.0602C50.8521 76.7972 50.9492 76.4845 51.199 76.3376H51.1977Z" fill="#74767B"/>
<path d="M54.7679 87.375H54.7594L51.2446 87.3441C50.7371 87.3396 50.3174 86.9907 50.2696 86.5317L49.9581 83.5835C49.9397 83.4071 49.9942 83.2333 50.1115 83.093C50.2427 82.9369 50.4414 82.8386 50.6564 82.8235C50.9528 82.8032 51.3601 82.7677 51.8092 82.7291C52.7397 82.6491 53.8971 82.5494 54.5489 82.5409C54.5541 82.5409 54.5594 82.5409 54.5646 82.5409C55.0309 82.5409 55.4328 82.8255 55.5443 83.2366C55.7286 83.9146 55.7135 85.1973 55.6801 86.5632C55.6689 87.0123 55.261 87.3756 54.7686 87.3756L54.7679 87.375ZM54.5633 82.832C54.5601 82.832 54.5561 82.832 54.5528 82.832C53.9115 82.8405 52.7594 82.9395 51.8341 83.0195C51.3837 83.0582 50.9745 83.0936 50.6768 83.114C50.5404 83.1232 50.4158 83.1841 50.3351 83.2799C50.2689 83.3586 50.2381 83.4556 50.2479 83.552L50.5594 86.5002C50.5922 86.8117 50.8879 87.0484 51.2479 87.0517L54.7627 87.0825H54.7686C55.1037 87.0825 55.381 86.8471 55.3882 86.5546C55.4217 85.211 55.4368 83.9527 55.263 83.312C55.1869 83.032 54.8938 82.8314 54.564 82.8314L54.5633 82.832Z" fill="white"/>
<path opacity="0.8" d="M51.0549 83.4077C51.7932 83.3566 53.3978 83.192 54.1585 83.1822C54.4811 83.1776 54.7637 83.3723 54.8398 83.6523C54.9873 84.1953 54.969 85.2779 54.9441 86.2773C54.9369 86.5763 54.6621 86.8156 54.3264 86.813L51.5178 86.7887C51.1723 86.7855 50.8857 86.5507 50.8529 86.2438L50.6037 83.8877C50.5782 83.6438 50.7808 83.4281 51.0542 83.4091L51.0549 83.4077Z" fill="white"/>
<path d="M58.1465 84.3048C57.8259 84.3042 57.6311 84.5573 57.7131 84.8668L57.8796 85.4963C57.9616 85.8058 58.2908 86.0569 58.6114 86.053L90.475 85.691C90.7957 85.6871 91.0514 85.4222 91.0442 85.1022L91.0409 84.956C91.0337 84.6353 90.7655 84.373 90.4449 84.3723L58.1465 84.3048Z" fill="white"/>
<path d="M54.7753 94.9074H54.7667L51.252 94.8766C50.7445 94.872 50.3248 94.5225 50.2769 94.0641L49.9654 91.1153C49.9471 90.9395 50.0008 90.7651 50.1189 90.6254C50.25 90.4687 50.4487 90.3704 50.6638 90.3559C50.9602 90.3356 51.3772 90.2995 51.8192 90.2615C52.7969 90.1776 53.9045 90.0818 54.5556 90.0733C54.5608 90.0733 54.5661 90.0733 54.5713 90.0733C55.0376 90.0733 55.4395 90.3573 55.551 90.7691C55.7353 91.4471 55.7202 92.7291 55.6867 94.0956C55.6756 94.5454 55.2677 94.9081 54.7759 94.9081L54.7753 94.9074ZM50.6835 90.6471C50.5471 90.6563 50.4218 90.7173 50.3412 90.813C50.2749 90.8917 50.2441 90.9887 50.2546 91.0851L50.5661 94.034C50.5989 94.3455 50.8946 94.5828 51.2546 94.5854L54.7694 94.6163H54.7759C55.111 94.6163 55.3884 94.3809 55.3956 94.0884C55.4284 92.7448 55.4441 91.4858 55.2704 90.8458C55.1943 90.5658 54.9012 90.3651 54.5713 90.3651C54.5674 90.3651 54.5641 90.3651 54.5602 90.3651C53.9195 90.3736 52.7694 90.4727 51.8448 90.552C51.4015 90.59 50.9825 90.6261 50.6841 90.6471H50.6835Z" fill="white"/>
<path opacity="0.8" d="M51.0612 90.9402C51.7996 90.8891 53.4042 90.7245 54.1648 90.7146C54.4875 90.71 54.7701 90.9048 54.8462 91.1848C54.9937 91.7277 54.9753 92.8104 54.9504 93.8097C54.9432 94.1087 54.6684 94.3481 54.3327 94.3455L51.5242 94.3212C51.1786 94.3179 50.8921 94.0832 50.8593 93.7763L50.6101 91.4202C50.5845 91.1763 50.7871 90.9605 51.0606 90.9415L51.0612 90.9402Z" fill="white"/>
<path d="M58.1529 91.8373C57.8322 91.8366 57.6374 92.0897 57.7194 92.3992L57.886 93.0287C57.9679 93.3382 58.2971 93.5894 58.6178 93.5854L90.4814 93.2235C90.802 93.2195 91.0578 92.9546 91.0506 92.6346L91.0473 92.4884C91.0401 92.1677 90.7719 91.9054 90.4512 91.9048L58.1529 91.8373Z" fill="white"/>
<path d="M54.7821 102.441H54.7736L51.2588 102.41C50.7513 102.405 50.3316 102.056 50.2837 101.597L49.9722 98.6484C49.9539 98.472 50.0083 98.2982 50.1257 98.1579C50.2568 98.0018 50.4555 97.9035 50.6706 97.8884C50.967 97.8681 51.3742 97.8327 51.8234 97.794C52.7539 97.714 53.9113 97.6143 54.5631 97.6058C54.5683 97.6058 54.5736 97.6058 54.5788 97.6058C55.045 97.6058 55.447 97.8904 55.5585 98.3015C55.7427 98.9795 55.7277 100.262 55.6942 101.628C55.6831 102.077 55.2752 102.441 54.7827 102.441H54.7821ZM54.5775 97.8976C54.5742 97.8976 54.5703 97.8976 54.567 97.8976C53.9257 97.9061 52.7736 98.0051 51.8483 98.0851C51.3978 98.1238 50.9886 98.1592 50.6909 98.1795C50.5545 98.1887 50.4299 98.2497 50.3493 98.3454C50.2831 98.4241 50.2522 98.5212 50.2621 98.6176L50.5736 101.566C50.6063 101.877 50.9021 102.114 51.2621 102.117L54.7768 102.148H54.7827C55.1178 102.148 55.3952 101.913 55.4024 101.62C55.4359 100.277 55.4509 99.0182 55.2772 98.3776C55.2011 98.0976 54.908 97.8969 54.5781 97.8969L54.5775 97.8976Z" fill="white"/>
<path opacity="0.8" d="M51.0676 98.4733C51.8059 98.4222 53.4105 98.2576 54.1712 98.2478C54.4938 98.2432 54.7764 98.4379 54.8525 98.7179C55 99.2609 54.9817 100.343 54.9568 101.343C54.9496 101.642 54.6748 101.881 54.3391 101.879L51.5305 101.854C51.185 101.851 50.8984 101.616 50.8656 101.309L50.6164 98.9533C50.5909 98.7094 50.7935 98.4937 51.0669 98.4746L51.0676 98.4733Z" fill="white"/>
<path d="M58.1597 99.3697C57.839 99.3691 57.6443 99.6222 57.7263 99.9317L57.8928 100.561C57.9748 100.871 58.304 101.122 58.6246 101.118L90.4882 100.756C90.8089 100.752 91.0646 100.487 91.0574 100.167L91.0541 100.021C91.0469 99.7002 90.7787 99.4379 90.4581 99.4373L58.1597 99.3697Z" fill="white"/>
<path d="M71.3713 29.3992C69.5896 28.1625 68.0421 28.1881 66.9529 28.5107C65.9595 28.8051 65.3155 29.7651 65.4113 30.7973L65.886 35.9258L71.4781 36.4169C71.4781 36.4169 74.865 31.8248 71.3719 29.3986L71.3713 29.3992ZM68.9155 33.5396C68.1457 33.5402 67.5208 32.9166 67.5201 32.1468C67.5195 31.3769 68.1431 30.752 68.9129 30.7514C69.6827 30.7507 70.3076 31.3743 70.3083 32.1448C70.309 32.9146 69.6854 33.5395 68.9149 33.5402L68.9155 33.5396Z" fill="#333435"/>
<path d="M66.4415 33.7782C66.3674 33.7782 66.3038 33.7212 66.2966 33.6458L66.2212 32.8287C66.214 32.7487 66.273 32.6779 66.353 32.67C66.4343 32.6628 66.5038 32.7219 66.5117 32.8019L66.5871 33.6189C66.5943 33.6989 66.5353 33.7697 66.4553 33.7776C66.4507 33.7776 66.4461 33.7776 66.4415 33.7776V33.7782ZM66.2933 32.1776C66.2192 32.1776 66.1556 32.1205 66.1484 32.0451L66.0914 31.4248C66.0002 30.4366 66.6212 29.5159 67.5681 29.2353C68.2369 29.0373 68.9261 29.0084 69.6173 29.1494C69.696 29.1658 69.7471 29.2425 69.7307 29.3212C69.7143 29.3999 69.6376 29.4504 69.5589 29.4346C68.9156 29.3035 68.2737 29.3304 67.6514 29.5146C66.8369 29.7559 66.3032 30.5474 66.3819 31.3979L66.4389 32.0182C66.4461 32.0982 66.3871 32.1691 66.3071 32.1769C66.3025 32.1769 66.2979 32.1769 66.2933 32.1769V32.1776Z" fill="#5C5E61"/>
<path d="M58.2559 39.2471L58.2539 36.6681C58.2533 35.7776 58.9903 35.0641 59.8801 35.0937L77.6605 35.6871C78.4493 35.7133 79.0893 36.3356 79.1372 37.1238L79.288 39.6019L58.2565 39.2471H58.2559Z" fill="#333435"/>
<path d="M64.1182 36.0727C64.0376 36.0727 63.9727 36.0077 63.9727 35.9271C63.9727 35.8464 64.0376 35.7815 64.1182 35.7815H64.8828V35.7809C64.9635 35.7809 65.0284 35.8458 65.0284 35.9264C65.0284 36.0071 64.9635 36.072 64.8828 36.072H64.1182V36.0727Z" fill="#5C5E61"/>
<path d="M59.2178 38.4471C59.1372 38.4471 59.0723 38.3822 59.0723 38.3015V37.2582C59.0703 36.4464 59.7306 35.7848 60.5424 35.7841L63.3536 35.7815C63.4342 35.7815 63.4992 35.8464 63.4992 35.9271C63.4992 36.0078 63.4342 36.0727 63.3536 36.0727L60.5424 36.0753C59.8913 36.0753 59.3621 36.6064 59.3621 37.2576V38.3009C59.3628 38.3815 59.2978 38.4464 59.2172 38.4464L59.2178 38.4471Z" fill="#5C5E61"/>
<path d="M52.6843 38.3081L83.7755 38.2799C84.8935 38.2786 85.8502 39.0825 86.0417 40.1841L86.0679 40.3363C86.2778 41.5428 85.3499 42.6471 84.1257 42.6484L52.2279 42.6766C51.4948 42.6766 50.9106 42.0648 50.9453 41.333L51.0129 39.9055C51.0548 39.0123 51.7906 38.31 52.685 38.3087L52.6843 38.3081Z" fill="#48494B"/>
<path d="M82.3709 27.1504C89.1553 27.0213 94.5538 21.5838 94.4286 15.0054C94.3034 8.427 88.7021 3.19877 81.9176 3.32786C75.1332 3.45694 69.7348 8.89445 69.8599 15.4729C69.9851 22.0513 75.5864 27.2795 82.3709 27.1504Z" fill="#368796"/>
<path d="M82.3634 26.7558C88.9223 26.631 94.1412 21.3742 94.0202 15.0145C93.8992 8.65479 88.4841 3.60038 81.9252 3.72517C75.3663 3.84996 70.1474 9.1067 70.2684 15.4664C70.3894 21.8261 75.8045 26.8805 82.3634 26.7558Z" fill="#8ECBD7"/>
<path d="M71.2005 16.0202C71.1237 16.0202 71.0601 15.9605 71.0549 15.8838C71.0267 15.43 71.028 14.9717 71.0588 14.5205C71.0641 14.4405 71.1309 14.3835 71.2142 14.3848C71.2942 14.39 71.3552 14.4602 71.35 14.5402C71.3198 14.9789 71.3185 15.4248 71.346 15.8655C71.3513 15.9461 71.2903 16.015 71.2096 16.0202C71.2063 16.0202 71.2031 16.0202 71.2005 16.0202Z" fill="#8ECBD7"/>
<path d="M71.8598 11.7009C71.8428 11.7009 71.8251 11.6976 71.808 11.691C71.7326 11.6622 71.6952 11.5782 71.7241 11.5028C73.1923 7.66217 76.709 4.98807 80.9011 4.52512C81.5693 4.45168 82.2467 4.43594 82.9116 4.47856C82.9923 4.48381 83.0526 4.55332 83.0474 4.63332C83.0421 4.71332 82.9713 4.77365 82.8926 4.76906C82.2434 4.72709 81.5844 4.74217 80.9326 4.8143C76.85 5.26545 73.4251 7.86807 71.9956 11.6064C71.9733 11.6648 71.9182 11.7002 71.8598 11.7002V11.7009Z" fill="#8ECBD7"/>
<path d="M82.6165 25.2057C88.1677 25.1 92.5848 20.6511 92.4824 15.2686C92.3799 9.8862 87.7968 5.60849 82.2456 5.71411C76.6945 5.81973 72.2774 10.2687 72.3798 15.6511C72.4822 21.0336 77.0653 25.3113 82.6165 25.2057Z" fill="white"/>
<path fill-rule="evenodd" clip-rule="evenodd" d="M87.7653 8.36119C88.2768 8.39135 88.7928 8.46479 89.3043 8.58283H89.3023C89.3128 8.58545 89.3246 8.5802 89.3305 8.57037C89.3371 8.55791 89.3325 8.54217 89.32 8.53561C89.0853 8.40775 88.8381 8.30742 88.5856 8.21824C88.3332 8.12906 88.0741 8.05693 87.8099 8.00053C87.282 7.88775 86.7325 7.83988 86.1804 7.88184C85.6289 7.9225 85.0741 8.06152 84.5666 8.31004C84.3128 8.43332 84.0741 8.58807 83.8525 8.76119C83.6322 8.93627 83.4315 9.1343 83.2518 9.34611C82.8945 9.77299 82.6217 10.2556 82.4184 10.7553C82.3779 10.8504 82.3431 10.9466 82.3082 11.043C82.2973 11.073 82.2865 11.103 82.2754 11.133C82.2646 11.1671 82.2535 11.201 82.2424 11.235C82.2118 11.3285 82.1813 11.4218 82.1568 11.5166C82.0827 11.7736 82.0263 12.0333 81.9758 12.293C81.9697 12.3281 81.9635 12.3633 81.9572 12.3985C81.9403 12.4934 81.9233 12.5886 81.9109 12.6838L81.8827 12.8799L81.8584 13.0714C81.8256 13.3258 81.7948 13.5809 81.7646 13.8353L81.6294 14.9832L80.8042 14.773C80.3131 14.6477 79.8154 14.5277 79.3052 14.4287C79.0501 14.3782 78.7905 14.335 78.5255 14.3022L78.3255 14.2792L78.1223 14.2628C78.0541 14.2569 77.9872 14.2543 77.9203 14.2523C77.8998 14.2517 77.8795 14.251 77.8592 14.2502C77.8125 14.2484 77.766 14.2466 77.719 14.2471C77.1819 14.2405 76.6291 14.2884 76.0849 14.4412C75.5419 14.5933 75.0154 14.8746 74.6029 15.2661C74.498 15.3618 74.4042 15.4674 74.3137 15.5743L74.1846 15.7382C74.1702 15.7591 74.1557 15.7798 74.1411 15.8005C74.1159 15.8365 74.0907 15.8725 74.0665 15.9087C73.919 16.1402 73.7944 16.3809 73.6954 16.6281C73.595 16.8746 73.5229 17.1271 73.4606 17.3782C73.4062 17.6314 73.3603 17.8838 73.3373 18.1376C73.3098 18.3907 73.3013 18.6445 73.3013 18.8963C73.3018 19 73.3064 19.1041 73.3109 19.2076L73.3137 19.274C73.3236 19.3999 73.3341 19.5251 73.3491 19.6504C73.3504 19.6602 73.357 19.6687 73.3668 19.672C73.3806 19.6766 73.3957 19.6694 73.4003 19.6556C73.4332 19.5585 73.4618 19.4619 73.4902 19.3657L73.5105 19.2976L73.6187 18.9435C73.6359 18.8926 73.6517 18.8413 73.6674 18.79C73.6875 18.7245 73.7076 18.659 73.7308 18.5946L73.743 18.5576C73.7601 18.5056 73.7772 18.4536 73.7947 18.402L75.8217 22.7137C75.3562 22.7232 74.8882 22.7119 74.4197 22.6884C74.4066 22.6877 74.3948 22.6969 74.3928 22.71C74.3909 22.7238 74.4007 22.7363 74.4151 22.7382C74.6761 22.7743 74.9371 22.8071 75.1994 22.8307C75.4617 22.8569 75.7246 22.8733 75.9889 22.8832C76.5168 22.8995 77.0492 22.891 77.5784 22.815C78.1063 22.7409 78.6354 22.6077 79.1273 22.3723C79.6184 22.1376 80.061 21.794 80.4118 21.3789C80.762 20.9625 81.0269 20.4877 81.2263 19.9973C81.4269 19.5068 81.5745 19.0018 81.6964 18.4956C81.8959 17.6666 82.03 16.8329 82.1508 16.0011C82.6218 16.102 83.097 16.1964 83.5793 16.2727C84.0895 16.3507 84.6082 16.4077 85.1354 16.4222C85.6613 16.4373 86.1996 16.3986 86.7295 16.2733C86.7804 16.2632 86.8309 16.2481 86.8813 16.233L86.9268 16.2195C86.9496 16.2122 86.9726 16.2055 86.9955 16.1987C87.038 16.1863 87.0805 16.1739 87.1223 16.1573L87.3144 16.0832L87.3623 16.0641L87.4088 16.0418L87.5019 15.9966C87.604 15.9514 87.7001 15.8928 87.7957 15.8345C87.818 15.821 87.8403 15.8074 87.8626 15.794C87.8983 15.7706 87.9325 15.7456 87.9666 15.7207C87.987 15.7059 88.0073 15.6911 88.0278 15.6766L88.1098 15.6176L88.1872 15.5533C88.6023 15.2136 88.9354 14.7986 89.2009 14.3579C89.3321 14.1356 89.4462 13.9068 89.5498 13.6746C89.6495 13.4412 89.7386 13.2045 89.816 12.9651C89.9695 12.4858 90.0718 11.9946 90.1439 11.5028C90.1806 11.2569 90.2055 11.0091 90.2219 10.7618C90.2383 10.514 90.2488 10.2668 90.2409 10.0182H90.2442C90.2436 10.0064 90.2344 9.99529 90.2213 9.99398C90.2075 9.99266 90.1944 10.0025 90.1931 10.0169C90.1386 10.5041 90.0423 10.9861 89.9249 11.4589C89.8974 11.5677 89.8683 11.676 89.8376 11.7836L87.5654 8.35199C87.6319 8.35425 87.6986 8.35734 87.7653 8.36119ZM87.2575 8.3476C86.9189 8.34967 86.5841 8.37531 86.2584 8.43135C86.2203 8.43792 86.1823 8.44486 86.1445 8.45219L89.4165 12.9624C89.4344 12.9218 89.452 12.8809 89.4691 12.8399C89.5603 12.6169 89.6449 12.39 89.7223 12.1599C89.7304 12.1352 89.7384 12.1104 89.7463 12.0856C89.7335 12.0779 89.7227 12.0678 89.7132 12.0556L89.7079 12.0484L87.2575 8.3476ZM85.8735 8.51214C85.7629 8.53982 85.6539 8.57132 85.5469 8.60709C85.3181 8.68512 85.0971 8.77824 84.8886 8.89234C84.8799 8.8971 84.8713 8.90189 84.8627 8.90672L88.7401 14.1532L88.7839 14.0943C88.9209 13.9015 89.0449 13.6989 89.1603 13.4897C89.2063 13.403 89.2509 13.3155 89.2939 13.227L85.8735 8.51214ZM84.6443 9.03867C84.5256 9.11581 84.4117 9.19935 84.3036 9.28971C84.122 9.43988 83.9541 9.60578 83.8033 9.78807C83.8015 9.7902 83.7997 9.79234 83.798 9.79447L87.9675 14.9733C88.0971 14.8695 88.219 14.7546 88.3367 14.6359C88.4222 14.5494 88.502 14.4574 88.5786 14.3622L84.6443 9.03867ZM83.6371 9.99968C83.4518 10.2522 83.2932 10.5274 83.1603 10.8172L86.8438 15.5523C86.8652 15.5471 86.8864 15.5414 86.9072 15.5343L87.0685 15.4825L87.1091 15.47L87.1478 15.4536L87.2252 15.4215C87.3037 15.3929 87.3762 15.3547 87.4488 15.3162C87.4745 15.3027 87.5002 15.2891 87.5262 15.2759C87.5582 15.258 87.5895 15.2378 87.6207 15.2176C87.6374 15.2068 87.6542 15.1959 87.6711 15.1855L87.7439 15.1395L87.7636 15.125L83.6371 9.99968ZM83.0455 11.0843C83.0208 11.1454 82.9981 11.2075 82.9754 11.2697C82.9647 11.2991 82.954 11.3286 82.943 11.3579C82.9333 11.3881 82.9234 11.4183 82.9134 11.4485C82.8853 11.5342 82.8571 11.6201 82.8328 11.7074C82.7973 11.8248 82.7659 11.9439 82.7371 12.064C82.7376 12.0647 82.7381 12.0654 82.7386 12.0661L85.1146 15.6685L85.1642 15.672C85.6427 15.7067 86.1173 15.697 86.5691 15.6138L83.0455 11.0843ZM82.6605 12.4109C82.6596 12.4153 82.6587 12.4197 82.6577 12.4241C82.6509 12.4628 82.6436 12.5013 82.6364 12.5398C82.6208 12.6228 82.6051 12.7058 82.5935 12.79L82.5653 12.9736L82.5391 13.1632L82.4563 13.7696L83.4827 15.4261C83.561 15.4421 83.6393 15.4577 83.7177 15.4727C84.0754 15.5416 84.4331 15.5997 84.7894 15.6386L82.6605 12.4109ZM82.4025 14.1669L82.2705 15.1464C82.5597 15.2188 82.8484 15.2884 83.137 15.3523L82.4025 14.1669ZM81.5256 15.8615C81.3606 15.8237 81.1961 15.7855 81.032 15.7474C80.3934 15.5991 79.7611 15.4522 79.1354 15.3376C79.0189 15.3163 78.9029 15.2969 78.7875 15.2795L81.2826 17.6157C81.3225 17.3704 81.3587 17.124 81.3935 16.8773C81.441 16.5399 81.4843 16.2012 81.5256 15.8615ZM81.2317 17.9154L78.3584 15.2251L78.2442 15.2136L78.0704 15.2025C78.0134 15.1979 77.9537 15.1959 77.8947 15.1946C77.875 15.1942 77.8553 15.1935 77.8356 15.1927C77.7963 15.1913 77.7572 15.1898 77.7183 15.1907C77.6282 15.1899 77.5385 15.191 77.4493 15.1941L80.935 19.2366C81.0163 18.9532 81.0846 18.6644 81.1443 18.373C81.1756 18.2212 81.2046 18.0686 81.2317 17.9154ZM80.8474 19.5231L77.132 15.2141C76.868 15.2387 76.6112 15.2835 76.3668 15.3533C76.3048 15.3718 76.2434 15.3916 76.183 15.4129L80.3761 20.6259C80.5209 20.368 80.6414 20.0944 80.7463 19.8143C80.7819 19.7181 80.8156 19.621 80.8474 19.5231ZM80.2364 20.8575L75.936 15.5111C75.879 15.5366 75.823 15.5637 75.7682 15.5927C75.5813 15.693 75.4036 15.8077 75.2423 15.9454C75.2093 15.9727 75.1769 16.0008 75.1451 16.0296C75.9206 17.0924 78.2752 20.2671 79.3896 21.7681C79.643 21.5783 79.8687 21.3561 80.0604 21.1068C80.1225 21.0261 80.1811 20.9429 80.2364 20.8575ZM79.1805 21.9133C78.8563 21.4768 77.9182 20.2133 76.9813 18.9481C76.3092 18.0399 75.7741 17.3159 75.3912 16.7959L75.3609 16.7547C75.206 16.5439 75.0706 16.3598 74.9621 16.2113C74.7974 16.3892 74.6496 16.5892 74.5149 16.8034L78.0185 22.4251C78.3454 22.3318 78.6603 22.2092 78.9509 22.0491C79.0293 22.0065 79.1059 21.9612 79.1805 21.9133ZM77.7602 22.4923L74.3694 17.0516C74.2759 17.2235 74.1891 17.4018 74.1085 17.5855L74.0396 17.7487C74.016 17.8032 73.9937 17.8582 73.9734 17.914L73.9167 18.0599L76.0815 22.6648C76.0877 22.678 76.0913 22.6918 76.0927 22.7054C76.3174 22.6959 76.5411 22.6796 76.7633 22.6569C77.0204 22.6294 77.2755 22.592 77.5266 22.5428C77.6048 22.5274 77.6828 22.5106 77.7602 22.4923Z" fill="#368796"/>
<path d="M105.546 86.3477C111.842 85.6336 116.334 79.6493 115.577 72.9813C114.821 66.3133 109.104 61.4867 102.807 62.2008C96.5107 62.9149 92.0193 68.8992 92.7754 75.5672C93.5316 82.2351 99.249 87.0617 105.546 86.3477Z" fill="#368796"/>
<path d="M105.5 85.9457C111.587 85.2553 115.929 79.47 115.198 73.0236C114.467 66.5773 108.94 61.9112 102.852 62.6015C96.7652 63.2918 92.4232 69.0772 93.1542 75.5235C93.8853 81.9698 99.4125 86.636 105.5 85.9457Z" fill="#8ECBD7"/>
<path d="M93.9485 75.0051C93.8724 75.0051 93.8082 74.9461 93.8029 74.8687C93.7734 74.4064 93.7714 73.9396 93.7977 73.4812C93.8023 73.4005 93.8711 73.3396 93.9511 73.3441C94.0318 73.3487 94.0927 73.4176 94.0882 73.4976C94.0632 73.9441 94.0652 74.3999 94.0934 74.8504C94.0986 74.931 94.0377 74.9999 93.957 75.0051C93.9537 75.0051 93.9504 75.0051 93.9478 75.0051H93.9485Z" fill="#8ECBD7"/>
<path d="M94.5356 70.6071C94.5198 70.6071 94.5041 70.6045 94.4883 70.5992C94.4123 70.573 94.3723 70.4904 94.3979 70.4143C95.7441 66.5081 99.0156 63.8051 102.936 63.3605C103.562 63.2897 104.195 63.2779 104.819 63.3271C104.899 63.3336 104.96 63.4031 104.953 63.4838C104.947 63.5638 104.875 63.6222 104.797 63.6176C104.191 63.5704 103.576 63.5815 102.969 63.6504C99.1618 64.0818 95.9828 66.71 94.6733 70.5094C94.6523 70.5697 94.5959 70.6077 94.5356 70.6077V70.6071Z" fill="#8ECBD7"/>
<path d="M105.566 84.3811C110.718 83.7968 114.392 78.9002 113.774 73.4442C113.155 67.9882 108.477 64.0389 103.325 64.6231C98.1731 65.2074 94.4982 70.104 95.1169 75.56C95.7356 81.016 100.414 84.9653 105.566 84.3811Z" fill="white"/>
<path d="M105.833 69.131L105.827 65.9002H102.886L102.892 68.9363C102.892 70.5638 102.368 72.1481 101.398 73.455L97.5244 78.6773C97.3217 78.95 97.2129 79.2805 97.2129 79.6209V79.6235C97.2129 80.4982 97.9217 81.2071 98.7965 81.2071H109.959C110.834 81.2071 111.543 80.4982 111.543 79.6235C111.543 79.2825 111.433 78.95 111.229 78.6766L107.215 73.295C106.318 72.0923 105.833 70.6314 105.833 69.131H105.833Z" fill="#368796"/>
<path opacity="0.85" d="M98.7964 80.8104C98.1413 80.8104 97.6089 80.2779 97.6089 79.6228C97.6089 79.3677 97.6922 79.1159 97.8423 78.9133L101.716 73.691C102.73 72.3251 103.288 70.6366 103.288 68.9363L103.283 66.2963H105.432L105.437 69.1317C105.437 70.7061 105.956 72.2687 106.897 73.5317L110.911 78.9133C111.063 79.1172 111.147 79.3691 111.147 79.6235C111.147 80.2779 110.614 80.811 109.959 80.811H98.7964V80.8104Z" fill="white"/>
<path d="M105.915 66.4812H102.804C102.553 66.4812 102.349 66.2773 102.349 66.0261C102.349 65.7841 102.538 65.5848 102.779 65.5717L105.891 65.4045C106.151 65.3907 106.37 65.5979 106.37 65.8589V66.0261C106.37 66.2773 106.166 66.4812 105.915 66.4812Z" fill="#368796"/>
<path d="M97.8423 78.9133C97.6915 79.1166 97.6089 79.3678 97.6089 79.6228C97.6089 80.2773 98.1413 80.8104 98.7964 80.8104H109.959C110.614 80.8104 111.147 80.2779 111.147 79.6228C111.147 79.3684 111.063 79.1166 110.911 78.9127L109.118 76.5094H99.6253L97.8423 78.9127V78.9133Z" fill="#8ECBD7"/>
<path d="M103.857 53.8453C111.37 52.9933 116.729 45.8525 115.827 37.8959C114.925 29.9393 108.103 24.1799 100.589 25.032C93.076 25.884 87.7168 33.0248 88.6191 40.9814C89.5215 48.938 96.3436 54.6973 103.857 53.8453Z" fill="#368796"/>
<path d="M103.803 53.3644C111.066 52.5407 116.247 45.6376 115.375 37.9458C114.503 30.2541 107.907 24.6865 100.644 25.5102C93.3804 26.3339 88.1993 33.2371 89.0716 40.9288C89.9439 48.6205 96.5392 54.1882 103.803 53.3644Z" fill="#8ECBD7"/>
<path d="M90.0207 40.2812C89.9447 40.2812 89.8804 40.2222 89.8752 40.1448C89.8404 39.5953 89.8378 39.0399 89.8686 38.4923C89.8732 38.4123 89.9434 38.3494 90.022 38.3553C90.1027 38.3599 90.1637 38.4287 90.1591 38.5087C90.1289 39.0445 90.1316 39.5887 90.1657 40.1264C90.1709 40.2064 90.1099 40.2759 90.0293 40.2812C90.026 40.2812 90.0227 40.2812 90.0201 40.2812H90.0207Z" fill="#8ECBD7"/>
<path d="M90.7216 35.0327C90.7059 35.0327 90.6901 35.03 90.6744 35.0248C90.5983 34.9986 90.5583 34.9159 90.5839 34.8399C92.1865 30.1887 96.0816 26.971 100.748 26.4425C101.493 26.3579 102.247 26.3448 102.99 26.4025C103.07 26.4091 103.13 26.4786 103.124 26.5592C103.117 26.6392 103.047 26.6982 102.967 26.693C102.243 26.6366 101.507 26.6497 100.781 26.7317C96.2265 27.2477 92.4252 30.3913 90.8586 34.935C90.8377 34.9953 90.7813 35.0333 90.7209 35.0333L90.7216 35.0327Z" fill="#8ECBD7"/>
<path d="M103.881 51.4983C110.028 50.8011 114.413 44.9583 113.675 38.4479C112.937 31.9376 107.355 27.2251 101.207 27.9222C95.0593 28.6194 90.6742 34.4623 91.4125 40.9726C92.1508 47.483 97.733 52.1955 103.881 51.4983Z" fill="white"/>
<path d="M109.629 34.8628H106.193V31.4274C106.193 30.533 105.469 29.8084 104.574 29.8084H99.7565C98.862 29.8084 98.1374 30.533 98.1374 31.4274V34.8628H94.702C93.8076 34.8628 93.083 35.5874 93.083 36.4818V41.2996C93.083 42.194 93.8076 42.9186 94.702 42.9186H98.1374V46.354C98.1374 47.2484 98.862 47.973 99.7565 47.973H104.574C105.469 47.973 106.193 47.2484 106.193 46.354V42.9186H109.629C110.523 42.9186 111.248 42.194 111.248 41.2996V36.4818C111.248 35.5874 110.523 34.8628 109.629 34.8628Z" fill="#368796"/>
<path d="M99.7555 47.0176C99.3896 47.0176 99.0925 46.7199 99.0925 46.3546V41.9632H94.701C94.3351 41.9632 94.0381 41.6654 94.0381 41.3002V36.4825C94.0381 36.1166 94.3351 35.8195 94.701 35.8195H99.0925V31.4281C99.0925 31.0622 99.3902 30.7651 99.7555 30.7651H104.573C104.939 30.7651 105.236 31.0628 105.236 31.4281V35.8195H109.628C109.993 35.8195 110.291 36.1173 110.291 36.4825V41.3002C110.291 41.6661 109.993 41.9632 109.628 41.9632H105.236V46.3546C105.236 46.7205 104.938 47.0176 104.573 47.0176H99.7555Z" fill="#8ECBD7"/>
</g>
<defs>
<clipPath id="clip0_10106_4874">
<rect width="120.634" height="120" fill="white" transform="translate(0.0986328 0.94873)"/>
</clipPath>
</defs>
</svg>
