<svg width="208" height="201" viewBox="0 0 208 201" fill="none" xmlns="http://www.w3.org/2000/svg">
<g clip-path="url(#clip0_13191_945)">
<path d="M87.7867 0.375H115.857C155.342 0.375 187.394 32.4322 187.394 71.9124V192.354H16.2441V71.9124C16.2441 32.4322 48.3013 0.375 87.7867 0.375Z" fill="#ECF6F8"/>
<path d="M165.873 120.266V167.522C165.873 171.863 162.359 175.377 158.024 175.377H157.733C153.398 175.377 149.884 171.863 149.884 167.522V120.266H165.868H165.873Z" fill="#8ECBD7"/>
<path d="M166.299 120.271H149.431C148.74 120.271 148.184 119.715 148.184 119.023C148.184 118.332 148.74 117.776 149.431 117.776H166.299C166.991 117.776 167.547 118.332 167.547 119.023C167.547 119.715 166.991 120.271 166.299 120.271Z" fill="#8ECBD7"/>
<path d="M190.367 120.266V167.522C190.367 171.863 186.853 175.377 182.512 175.377H182.227C177.886 175.377 174.372 171.863 174.372 167.522V120.266H190.362H190.367Z" fill="#8ECBD7"/>
<path d="M190.793 120.271H173.925C173.234 120.271 172.678 119.715 172.678 119.023C172.678 118.332 173.234 117.776 173.925 117.776H190.793C191.485 117.776 192.041 118.332 192.041 119.023C192.041 119.715 191.485 120.271 190.793 120.271Z" fill="#8ECBD7"/>
<path d="M183.464 154.74C185.436 154.74 187.035 153.141 187.035 151.169C187.035 149.197 185.436 147.598 183.464 147.598C181.491 147.598 179.893 149.197 179.893 151.169C179.893 153.141 181.491 154.74 183.464 154.74Z" fill="#368796"/>
<path d="M186.354 140.778C186.354 141.578 185.704 142.223 184.909 142.223C184.114 142.223 183.464 141.573 183.464 140.778C183.464 139.983 184.114 139.333 184.909 139.333C185.704 139.333 186.354 139.983 186.354 140.778Z" fill="#368796"/>
<path d="M181.124 143.855C181.124 144.536 180.573 145.087 179.892 145.087C179.211 145.087 178.66 144.536 178.66 143.855C178.66 143.174 179.211 142.623 179.892 142.623C180.573 142.623 181.124 143.174 181.124 143.855Z" fill="#368796"/>
<path d="M205.427 130.761H134.799V137.331H205.427V130.761Z" fill="#334499"/>
<path d="M200.15 137.331V186.543H139.778V137.331H143.006V180.024H196.922V137.331H200.15Z" fill="#263373"/>
<path d="M182.591 75.5511C183.734 74.3243 183.667 72.4062 182.44 71.2678L168.914 58.6518C167.687 57.5082 165.769 57.5758 164.631 58.8026C163.487 60.0293 163.555 61.9474 164.782 63.0859L178.307 75.7018C179.534 76.8454 181.452 76.7779 182.591 75.5511Z" fill="#223766"/>
<g style="mix-blend-mode:multiply" opacity="0.5">
<path d="M182.591 75.5511C183.734 74.3243 184.041 72.7545 183.272 72.0423L174.819 64.1619L170.682 68.5959L179.134 76.4764C179.898 77.1885 181.447 76.7779 182.585 75.5511H182.591Z" fill="#223766"/>
</g>
<path d="M166.586 64.766L113.955 121.186L123.872 130.437L176.503 74.017L166.586 64.766Z" fill="#223766"/>
<g style="mix-blend-mode:multiply" opacity="0.5">
<path d="M172.017 69.8353L119.387 126.255L123.872 130.439L176.503 74.0194L172.017 69.8353Z" fill="#223766"/>
</g>
<path d="M123.013 134.554L125.187 132.224C125.341 132.058 125.332 131.798 125.167 131.644L112.653 119.971C112.487 119.816 112.228 119.825 112.073 119.991L109.899 122.321C109.745 122.487 109.754 122.747 109.92 122.902L122.433 134.574C122.599 134.729 122.858 134.72 123.013 134.554Z" fill="#94B3F1"/>
<g style="mix-blend-mode:multiply" opacity="0.5">
<path d="M125.192 132.222L123.015 134.556C122.859 134.723 122.602 134.732 122.435 134.576L117.121 129.619L119.855 126.688L125.168 131.645C125.336 131.801 125.345 132.059 125.189 132.226L125.192 132.222Z" fill="#94B4F0"/>
</g>
<path d="M108.254 131.446L113.282 126.057L119.063 131.45L114.035 136.84C113.833 137.056 113.495 137.068 113.279 136.866L108.28 132.203C108.064 132.001 108.052 131.663 108.254 131.446Z" fill="#223766"/>
<g style="mix-blend-mode:multiply" opacity="0.5">
<path d="M111.147 134.133L116.175 128.743L119.068 131.442L114.04 136.832C113.838 137.048 113.5 137.06 113.283 136.858L111.178 134.894C110.961 134.691 110.949 134.353 111.151 134.137L111.147 134.133Z" fill="#223766"/>
</g>
<path d="M172.043 82.7194L132.958 124.617C132.719 124.877 132.314 124.887 132.059 124.648L118.05 111.58C117.79 111.341 117.779 110.935 118.019 110.68L157.104 68.7831C157.343 68.5232 157.748 68.5128 158.003 68.7519L172.012 81.8201C172.272 82.0592 172.282 82.4647 172.043 82.7194Z" fill="#94B3F1"/>
<g style="mix-blend-mode:multiply" opacity="0.5">
<path d="M125.054 118.118L165.009 75.2878L172.014 81.8227C172.272 82.0638 172.286 82.4679 172.045 82.7264L132.96 124.626C132.719 124.884 132.315 124.898 132.056 124.657L125.051 118.122L125.054 118.118Z" fill="#94B4F0"/>
</g>
<path d="M86.9859 177.02H154.193C155.15 177.02 155.929 177.799 155.929 178.756V186.543H85.2549V178.756C85.2549 177.799 86.0346 177.02 86.9911 177.02H86.9859Z" fill="#223766"/>
<g style="mix-blend-mode:multiply" opacity="0.5">
<path d="M155.924 181.724H85.25V187.322H155.924V181.724Z" fill="#223766"/>
</g>
<path d="M156.319 96.8948V129.701C156.319 145.789 143.277 158.826 127.189 158.826H123.43C115.378 158.826 107.929 156.216 101.894 151.798L100.496 153.669L98.5518 156.268C105.585 161.446 114.276 164.508 123.68 164.508H129.808C148.506 164.508 163.669 149.35 163.669 130.647V96.8948H156.319Z" fill="#223766"/>
<g style="mix-blend-mode:multiply" opacity="0.5">
<path d="M159.994 131.203C159.324 148.502 145.029 160.9 127.646 161.331C114.126 161.669 103.818 156.201 100.496 153.669L101.894 151.798C107.929 156.216 115.378 158.826 123.43 158.826H127.189C143.277 158.826 156.319 145.789 156.319 129.701V97.4042L158.118 96.8948L159.994 96.3646C159.994 96.3646 160.01 96.5465 160.031 96.8948C160.317 100.903 160.54 116.747 159.994 131.203Z" fill="#223766"/>
</g>
<path d="M85.6297 147.602L89.6879 141.624L106.414 152.978L102.356 158.956C102.11 159.317 101.617 159.416 101.251 159.167L85.8367 148.704C85.4755 148.459 85.3772 147.965 85.6254 147.599L85.6297 147.602Z" fill="#94B3F1"/>
<g style="mix-blend-mode:multiply" opacity="0.5">
<path d="M89.6895 141.627L87.4385 144.943L104.164 156.297L106.415 152.981L89.6895 141.627Z" fill="#94B4F0"/>
</g>
<path d="M89.2321 132.608L85.6498 137.886C85.395 138.261 85.4927 138.772 85.868 139.026L110.241 155.572C110.616 155.826 111.127 155.729 111.382 155.353L114.964 150.076C115.219 149.701 115.121 149.19 114.746 148.935L90.3729 132.39C89.9976 132.135 89.4868 132.233 89.2321 132.608Z" fill="#223766"/>
<g style="mix-blend-mode:multiply" opacity="0.5">
<path d="M113.174 152.702L111.386 155.338C111.131 155.712 110.617 155.811 110.243 155.556L85.8735 139.016C85.4993 138.761 85.4005 138.246 85.6552 137.872L87.4434 135.237L113.174 152.702Z" fill="#223766"/>
</g>
<path d="M170.796 96.8948C170.796 102.862 165.962 107.702 159.995 107.702C157.38 107.702 154.978 106.771 153.112 105.222C150.716 103.242 149.188 100.248 149.188 96.8948C149.188 90.9273 154.027 86.0878 159.995 86.0878C162.963 86.0878 165.655 87.2886 167.605 89.2223C169.575 91.182 170.796 93.8955 170.796 96.8948Z" fill="#223766"/>
<path d="M159.994 102.686C163.192 102.686 165.785 100.093 165.785 96.8948C165.785 93.6967 163.192 91.104 159.994 91.104C156.796 91.104 154.203 93.6967 154.203 96.8948C154.203 100.093 156.796 102.686 159.994 102.686Z" fill="#94B3F1"/>
<g style="mix-blend-mode:multiply" opacity="0.5">
<path d="M170.796 96.8948C170.796 102.862 165.961 107.702 159.994 107.702C157.379 107.702 154.977 106.771 153.111 105.222L167.604 89.2223C169.574 91.182 170.796 93.8955 170.796 96.8948Z" fill="#223766"/>
</g>
<path d="M134.705 160.64V181.552H120.587V160.64C120.587 156.809 123.695 153.706 127.526 153.706H127.771C131.602 153.706 134.705 156.809 134.705 160.64Z" fill="#223766"/>
<path d="M130.91 161.331C130.91 163.135 129.449 164.596 127.645 164.596C125.842 164.596 124.381 163.135 124.381 161.331C124.381 159.528 125.842 158.067 127.645 158.067C129.449 158.067 130.91 159.528 130.91 161.331Z" fill="#94B3F1"/>
<g style="mix-blend-mode:multiply" opacity="0.5">
<path d="M127.646 153.706V181.552H120.587V160.64C120.587 156.809 123.695 153.706 127.526 153.706H127.646Z" fill="#223766"/>
</g>
<path d="M86.2159 166.187C86.2159 183.533 72.1548 189.708 54.8137 189.708C37.4725 189.708 23.4062 183.533 23.4062 166.187C23.4062 152.489 32.1756 139.478 44.4069 134.618V96.7077H65.2152V134.618C77.4465 139.484 86.2159 152.489 86.2159 166.187Z" fill="#8ECBD7"/>
<path d="M66.214 92.5231H43.6383C43.0727 92.5231 42.6143 92.9816 42.6143 93.5472V95.8916C42.6143 96.4571 43.0727 96.9156 43.6383 96.9156H66.214C66.7796 96.9156 67.238 96.4571 67.238 95.8916V93.5472C67.238 92.9816 66.7796 92.5231 66.214 92.5231Z" fill="#368796"/>
<path d="M82.2186 165.703C82.2186 180.778 69.9977 186.142 54.9281 186.142C39.8586 186.142 27.6377 180.773 27.6377 165.703C27.6377 161.56 28.5578 157.49 30.216 153.763C33.2933 154.574 34.125 156.731 38.5539 156.731C44.0068 156.731 44.0068 153.451 49.4649 153.451C54.9229 153.451 54.9229 156.731 60.381 156.731C65.8391 156.731 65.8391 153.451 71.2972 153.451C76.2199 153.451 76.7085 156.118 80.7527 156.643C81.704 159.548 82.2186 162.6 82.2186 165.703Z" fill="white"/>
<path d="M64.4564 153.046C65.5531 153.046 66.4421 152.157 66.4421 151.06C66.4421 149.963 65.5531 149.074 64.4564 149.074C63.3597 149.074 62.4707 149.963 62.4707 151.06C62.4707 152.157 63.3597 153.046 64.4564 153.046Z" fill="white"/>
<path d="M60.6676 140.549C60.6676 142.166 59.3577 143.476 57.741 143.476C56.1244 143.476 54.8145 142.166 54.8145 140.549C54.8145 138.933 56.1244 137.623 57.741 137.623C59.3577 137.623 60.6676 138.933 60.6676 140.549Z" fill="white"/>
<path d="M77.8422 162.174C77.8422 163.078 77.1093 163.811 76.2048 163.811C75.3003 163.811 74.5674 163.078 74.5674 162.174C74.5674 161.269 75.3003 160.536 76.2048 160.536C77.1093 160.536 77.8422 161.269 77.8422 162.174Z" fill="#43A9BC"/>
<path d="M75.4871 170.917C75.4871 172.331 74.3435 173.474 72.9296 173.474C71.5157 173.474 70.3721 172.331 70.3721 170.917C70.3721 169.503 71.5157 168.359 72.9296 168.359C74.3435 168.359 75.4871 169.503 75.4871 170.917Z" fill="#43A9BC"/>
<path d="M68.2877 186.142H10.4215C5.41569 186.142 2.29159 180.726 4.79711 176.391L26.4787 138.839V85.9682H52.2305V138.839L73.9173 176.391C76.4228 180.726 73.2935 186.142 68.2929 186.142H68.2877Z" fill="white"/>
<path d="M65.4604 182.046H12.7976C9.79305 182.046 7.91131 178.797 9.41878 176.188L28.7664 142.686C30.7157 144.006 31.719 146.21 35.0718 146.21C37.1407 146.21 38.3103 145.373 39.3603 144.417C40.743 143.164 41.9178 141.714 44.6313 141.714C48.0205 141.714 50.3181 144.287 50.999 145.285L68.8392 176.183C70.3467 178.787 68.4649 182.041 65.4604 182.041V182.046Z" fill="#94B3F1"/>
<g style="mix-blend-mode:multiply">
<path d="M68.2879 186.142H39.3496V85.9682H52.2255V138.839L73.9123 176.391C76.4178 180.726 73.2885 186.142 68.2879 186.142Z" fill="#D9DDF2"/>
</g>
<path d="M54.3624 82.4387V84.6791C54.3624 85.386 53.7906 85.963 53.0784 85.963H25.1746C24.4676 85.963 23.8906 85.386 23.8906 84.6791V82.4387C23.8906 81.7265 24.4676 81.1547 25.1746 81.1547H53.0784C53.7906 81.1547 54.3624 81.7265 54.3624 82.4387Z" fill="#94B3F1"/>
<g style="mix-blend-mode:multiply" opacity="0.5">
<path d="M54.3615 82.4387V84.6791C54.3615 85.386 53.7897 85.963 53.0776 85.963H31.3076V81.1495H53.0776C53.7897 81.1495 54.3615 81.7213 54.3615 82.4335V82.4387Z" fill="#6DA7F2"/>
</g>
<g style="mix-blend-mode:multiply" opacity="0.5">
<path d="M33.4081 154.283C34.4559 154.283 35.3054 153.433 35.3054 152.385C35.3054 151.338 34.4559 150.488 33.4081 150.488C32.3602 150.488 31.5107 151.338 31.5107 152.385C31.5107 153.433 32.3602 154.283 33.4081 154.283Z" fill="#94B4F0"/>
</g>
<path d="M37.3374 137.95C37.3374 139.073 36.4278 139.983 35.3049 139.983C34.1821 139.983 33.2725 139.073 33.2725 137.95C33.2725 136.827 34.1821 135.918 35.3049 135.918C36.4278 135.918 37.3374 136.827 37.3374 137.95Z" fill="#94B3F1"/>
<g style="mix-blend-mode:multiply" opacity="0.5">
<path d="M47.3646 126.94C47.3646 128.864 45.8052 130.428 43.8767 130.428C41.9481 130.428 40.3887 128.869 40.3887 126.94C40.3887 125.012 41.9481 123.452 43.8767 123.452C45.8052 123.452 47.3646 125.012 47.3646 126.94Z" fill="#1047AE"/>
</g>
<path d="M36.8861 118.997C36.8861 119.871 36.1791 120.578 35.3058 120.578C34.4325 120.578 33.7256 119.871 33.7256 118.997C33.7256 118.124 34.4325 117.417 35.3058 117.417C36.1791 117.417 36.8861 118.124 36.8861 118.997Z" fill="#94B3F1"/>
<path d="M50.6506 153.108C50.6506 154.553 49.481 155.723 48.0307 155.723C46.5804 155.723 45.416 154.553 45.416 153.108C45.416 151.663 46.5856 150.493 48.0307 150.493C49.4758 150.493 50.6506 151.663 50.6506 153.108Z" fill="#3E5A92"/>
<path d="M43.6535 161.066C43.6535 161.638 43.1909 162.106 42.6139 162.106C42.0369 162.106 41.5742 161.643 41.5742 161.066C41.5742 160.489 42.0369 160.027 42.6139 160.027C43.1909 160.027 43.6535 160.489 43.6535 161.066Z" fill="#3E5A92"/>
<path d="M207.557 193.472C207.557 195.38 206.783 197.105 205.535 198.353C204.283 199.6 202.557 200.375 200.649 200.375H7.50018C3.68471 200.375 0.591797 197.282 0.591797 193.472C0.591797 191.564 1.36633 189.838 2.61389 188.586C3.86665 187.338 5.59245 186.563 7.50018 186.563H200.649C204.464 186.563 207.557 189.656 207.557 193.472Z" fill="#334499"/>
<g style="mix-blend-mode:multiply" opacity="0.5">
<path d="M207.557 193.472C207.557 195.38 206.783 197.105 205.535 198.353C204.283 199.6 202.557 200.375 200.649 200.375H7.50018C3.68471 200.375 0.591797 197.282 0.591797 193.472H207.557Z" fill="#223766"/>
</g>
<path d="M127.345 53.2249C126.908 53.2613 126.456 53.0949 126.144 52.7415L116.491 41.7837C115.966 41.1859 116.023 40.2762 116.621 39.7512C117.219 39.2262 118.128 39.2834 118.653 39.8812L128.306 50.8389C128.831 51.4367 128.774 52.3464 128.176 52.8714C127.937 53.0845 127.641 53.1989 127.345 53.2249Z" fill="#6677CC"/>
<path d="M140.917 40.3386C140.413 40.3802 139.903 40.1567 139.602 39.7096L131.082 27.0832C130.635 26.4231 130.812 25.529 131.472 25.0819C132.132 24.6349 133.026 24.8116 133.473 25.4718L141.993 38.0982C142.44 38.7584 142.263 39.6524 141.603 40.0995C141.39 40.2398 141.156 40.323 140.917 40.3438V40.3386Z" fill="#69BAC9"/>
<path d="M149.353 39.0391C148.844 39.0807 148.329 38.8519 148.033 38.3997L135.38 19.2496C134.944 18.5842 135.126 17.6901 135.786 17.2535C136.451 16.8168 137.345 16.9988 137.782 17.659L150.434 36.809C150.871 37.4744 150.689 38.3685 150.029 38.8052C149.821 38.9403 149.587 39.0183 149.353 39.0391Z" fill="#69BAC9"/>
<path d="M123.144 62.5348C122.651 62.6492 122.105 62.4933 121.746 62.0878L106.521 44.9078C105.99 44.3152 106.048 43.4003 106.645 42.8753C107.243 42.3503 108.153 42.4023 108.678 43.0001L123.903 60.1801C124.434 60.7727 124.376 61.6875 123.779 62.2126C123.591 62.3789 123.373 62.4881 123.144 62.54V62.5348Z" fill="#6677CC"/>
<path d="M109.883 73.8721C109.416 73.976 108.906 73.8357 108.568 73.451L94.2629 57.3055C93.7691 56.7441 93.821 55.8916 94.3772 55.3925C94.9386 54.8987 95.7911 54.9507 96.2902 55.5069L110.596 71.6525C111.089 72.2139 111.037 73.0664 110.481 73.5654C110.304 73.7213 110.102 73.8253 109.883 73.8721Z" fill="#6677CC"/>
<path d="M157.494 35.5771C156.985 35.6187 156.465 35.3847 156.163 34.9273L141.905 12.9754C141.473 12.31 141.66 11.4159 142.331 10.9845C142.996 10.553 143.89 10.7402 144.322 11.4055L158.58 33.3575C159.012 34.0228 158.825 34.9169 158.154 35.3484C157.946 35.4835 157.717 35.5563 157.489 35.5771H157.494Z" fill="#69BAC9"/>
<path d="M117.203 69.1469C116.704 69.2457 116.174 69.0898 115.836 68.7051L99.7478 50.2827C99.2592 49.7213 99.3579 48.8844 99.9713 48.4114C100.585 47.9384 101.479 48.0111 101.967 48.5673L118.056 66.9897C118.544 67.5511 118.446 68.388 117.832 68.861C117.645 69.0066 117.427 69.1002 117.203 69.1469Z" fill="#6677CC"/>
<path d="M163.446 29.8539C162.936 29.8955 162.422 29.6667 162.12 29.2093L149.348 9.69014C148.912 9.02477 149.099 8.13069 149.764 7.69404C150.429 7.25739 151.324 7.44453 151.76 8.10989L164.532 27.6291C164.969 28.2944 164.782 29.1885 164.116 29.6252C163.908 29.7603 163.68 29.8383 163.446 29.8539Z" fill="#69BAC9"/>
<path d="M91.5969 66.0124C91.3994 66.028 91.1966 66.0072 90.9991 65.9345C90.2506 65.6693 89.8555 64.848 90.1206 64.0943C92.6677 56.9 95.7398 49.4666 102.752 44.6219C112.722 37.7291 121.123 37.6719 129.242 37.6148C130.162 37.6096 131.072 37.6044 131.987 37.5836C132.746 37.568 133.562 37.568 134.42 37.5628C140.969 37.542 149.941 37.516 157.317 32.453C163.353 28.31 166.326 19.9565 167.095 17.4978C167.334 16.7389 168.14 16.3178 168.899 16.5517C169.658 16.7909 170.084 17.5966 169.845 18.3555C169.008 21.0378 165.749 30.1606 158.945 34.8285C150.835 40.3906 141.354 40.4218 134.425 40.4426C133.583 40.4426 132.782 40.4426 132.034 40.4634C131.108 40.479 130.183 40.4842 129.258 40.4946C121.57 40.5465 113.627 40.5985 104.384 46.9923C98.0842 51.3484 95.22 58.3087 92.8341 65.0612C92.6417 65.6122 92.1427 65.9708 91.5969 66.0176V66.0124Z" fill="#6677CC"/>
<path d="M100.938 76.9806C100.184 77.043 99.5032 76.5075 99.394 75.7486C99.2797 74.9637 99.8255 74.2307 100.616 74.1164C104.748 73.5238 111.355 71.2106 116.377 66.6466C124.891 58.9065 126.731 49.4614 127.381 43.0313C128.587 31.0235 130.651 22.5764 137.611 14.9403C143.646 8.32302 152.447 6.71678 158.872 5.54719C159.667 5.40684 160.405 5.92666 160.545 6.70638C160.686 7.49131 160.171 8.23985 159.386 8.3802C153.029 9.53939 145.117 10.9793 139.737 16.8792C133.312 23.928 131.389 31.9072 130.245 43.3172C129.554 50.2204 127.558 60.3672 118.315 68.7779C112.811 73.7837 105.559 76.3152 101.026 76.9702C100.995 76.9702 100.969 76.9754 100.938 76.9806Z" fill="#69BAC9"/>
</g>
<defs>
<clipPath id="clip0_13191_945">
<rect width="206.966" height="200" fill="white" transform="translate(0.591797 0.375)"/>
</clipPath>
</defs>
</svg>
