<svg width="200" height="106" viewBox="0 0 200 106" fill="none" xmlns="http://www.w3.org/2000/svg">
<g clip-path="url(#clip0_13209_578)">
<path d="M133.722 104.733L18.9736 104.249C19.2274 81.767 24.0195 47.9076 42.5502 41.199C64.3439 33.3096 88.2622 34.6967 105.287 14.9734C124.456 -7.233 178.086 -7.25668 178.086 32.0934C178.086 68.1992 185.319 69.7097 169.743 93.4572C163.263 103.337 144.123 105.12 133.719 104.733H133.722Z" fill="url(#paint0_linear_13209_578)"/>
<path d="M21.4814 104.796C21.4814 104.796 21.8028 61.9371 43.2938 55.2218C64.7847 48.5064 89.4371 49.5805 107.049 31.9683C124.662 14.356 175.602 13.4849 175.602 44.988C175.602 76.4911 183.542 78.6089 167.767 96.4545C159.683 105.597 133.77 105.205 133.77 105.205L21.4831 104.796H21.4814Z" fill="url(#paint1_linear_13209_578)"/>
<path d="M133.5 104.846C137.981 88.7581 138.936 72.6682 136.367 56.58C135.098 48.6434 128.944 42.3745 121.026 41.001C104.512 38.1356 94.7636 37.5604 73.3776 39.8863C67.6196 60.408 52.2926 84.3246 58.0083 104.846H133.501H133.5Z" fill="#8C99D9"/>
<g style="mix-blend-mode:screen">
<path d="M136.367 56.58C135.098 48.6434 128.944 42.3745 121.026 41.001C104.512 38.1356 94.7636 37.5604 73.3776 39.8863C67.9393 59.2679 53.9656 81.679 57.2455 101.397C98.392 108.253 123.755 80.0348 136.697 58.7875C136.594 58.0517 136.484 57.3159 136.367 56.58Z" fill="#D5EAF9"/>
</g>
<path d="M107.065 21.6127H75.623V42.3221H107.065V21.6127Z" fill="#1D6294"/>
<path d="M107.065 21.6127H88.6406V42.3221H107.065V21.6127Z" fill="#6677CC"/>
<path d="M101.307 104.796C103.572 90.3058 104.271 75.8162 103.405 61.3265C102.608 47.9972 91.2478 37.6975 77.8187 38.0662C77.6749 38.0696 77.5295 38.0747 77.3857 38.0798C66.0034 38.4688 56.776 47.4323 55.9557 58.7215C54.8392 74.079 55.4803 89.4381 57.8806 104.796H101.307Z" fill="#69BAC9"/>
<path d="M98.2215 104.846C100.417 90.7118 101.095 76.5773 100.255 62.4429C99.4817 49.4401 88.4682 39.3924 75.4484 39.7527C75.308 39.7561 75.1676 39.7611 75.0289 39.7662C63.9934 40.1468 55.0469 48.8886 54.2518 59.9022C53.1693 74.8841 53.7917 89.866 56.1193 104.846H98.2232H98.2215Z" fill="#B4DDE4"/>
<path d="M75.9318 102.958C84.6675 102.958 91.7493 91.0783 91.7493 76.4234C91.7493 61.7685 84.6675 49.8883 75.9318 49.8883C67.196 49.8883 60.1143 61.7685 60.1143 76.4234C60.1143 91.0783 67.196 102.958 75.9318 102.958Z" fill="#43A9BC"/>
<path d="M74.9809 104.782C59.7639 103.593 52.8353 74.0028 63.1452 56.7052C70.0924 45.0506 81.8502 45.1825 88.7195 56.7052C99.0277 73.9978 92.1043 103.593 76.8839 104.782H81.6523C94.6314 98.6772 99.3829 72.1658 89.7869 56.0692C82.3272 43.5536 69.3971 43.7887 62.0762 56.0692C52.4953 72.1438 57.213 98.6738 70.2057 104.782H74.9792H74.9809Z" fill="#69BAC9"/>
<path d="M75.6228 99.4198C83.0871 99.4198 89.1381 89.124 89.1381 76.4234C89.1381 63.7229 83.0871 53.427 75.6228 53.427C68.1584 53.427 62.1074 63.7229 62.1074 76.4234C62.1074 89.124 68.1584 99.4198 75.6228 99.4198Z" fill="#368796"/>
<path d="M69.7303 64.8432C77.195 64.8432 83.2456 75.1396 83.2456 87.8396C83.2456 90.886 82.8972 93.7938 82.2662 96.4529C86.3682 92.5048 89.1372 85.0147 89.1372 76.4217C89.1372 63.7217 83.0866 53.4254 75.6219 53.4254C69.9468 53.4254 65.0904 59.3745 63.0859 67.8085C65.0481 65.9207 67.3148 64.8432 69.7303 64.8432Z" fill="#1B444B"/>
<path d="M62.2358 79.6306L89.0905 78.3348C89.1024 78.0862 89.1125 77.8375 89.1193 77.5872L62.1816 78.8863C62.1969 79.1349 62.2155 79.3836 62.2358 79.6306Z" fill="#32A4EA"/>
<path d="M80.8037 104.795H13.1424L9.9082 86.9261H84.7839L80.8037 104.795Z" fill="#368796"/>
<path d="M81.0521 104.795H28.4928L25.9521 86.9261H84.7836L81.0521 104.795Z" fill="#F1F9F4"/>
<path d="M28.4925 104.795H81.0518L84.7833 86.9261H73.5448C60.6435 92.5962 41.7863 100.306 28.2861 103.344L28.4925 104.795Z" fill="#69BAC9"/>
<path d="M86.5886 86.0144H-0.000976562V88.7513H86.5886V86.0144Z" fill="#8FBED1"/>
<path d="M86.588 86.0144H15.4219V88.7513H86.588V86.0144Z" fill="#D5EAF9"/>
<path d="M138.125 68.6745C137.414 57.2482 136.805 51.3617 131.504 45.9725C131.48 45.9505 130.492 45.0269 130.45 44.988C130.427 44.9694 129.393 44.1405 129.325 44.0881C125.239 41.1212 122.069 40.2331 107.063 38.6667V39.3755C111.282 39.8322 115.67 40.5156 120.866 41.4138C124.185 42.0566 126.023 43.0292 128.393 44.5702C129.682 45.4752 130.849 46.6626 130.826 46.6389C132.825 48.7094 134.231 51.0944 134.948 53.1446C136.54 57.1721 140.016 78.9776 133.224 104.491C133.199 104.491 100.708 104.821 98.2197 104.845C138.324 105.249 71.4174 104.65 133.767 105.203C134.364 102.426 138.869 89.8085 138.123 68.6745H138.125Z" fill="#757597"/>
<path d="M114.594 74.8418H95.1631V78.6968H114.594V74.8418Z" fill="#164A6F"/>
<path d="M114.594 78.6968H96.3896V84.4176H114.594V78.6968Z" fill="#164A6F"/>
<path d="M111.852 74.8418H95.1631V78.6968H111.852V74.8418Z" fill="#C3C9F5"/>
<path d="M111.851 78.6968H96.2148V84.4176H111.851V78.6968Z" fill="#608FB2"/>
<path d="M96.8576 75.8365H96.2148V77.8257H96.8576V75.8365Z" fill="#CCE5F8"/>
<path d="M104.627 79.5815C105.104 79.5815 105.491 79.9688 105.491 80.4459V82.8428H103.763V80.4459C103.763 79.9688 104.15 79.5815 104.627 79.5815Z" fill="#104E3D"/>
<path d="M108.883 79.3498H108.376V80.2209H108.883V79.3498Z" fill="#104E3D"/>
<path d="M95.613 75.2918H111.852V74.8418H95.1631V78.6968H95.613V75.2918Z" fill="#F3F4FD"/>
<path d="M89.9614 103.205C82.6184 103.065 78.486 96.2194 79.4367 88.7191L79.9306 88.7817C79.0036 96.101 83.0701 102.71 90.1542 102.71C97.8828 102.71 99.0855 93.3015 99.3139 86.1988L99.8112 86.2157C99.5541 94.2268 97.9911 103.376 89.9614 103.205Z" fill="#353D44"/>
<path d="M83.4914 96.5138C80.4737 94.0255 80.2724 88.9729 80.2656 88.7598L80.7629 88.7429C80.7629 88.7936 80.9659 93.787 83.8094 96.1315C85.073 97.1718 86.685 97.5456 88.6015 97.2394C96.161 96.0334 92.0911 76.6552 95.0226 74.6372C97.7476 72.7629 114.37 72.1066 114.841 75.3933C115.253 78.2841 114.859 90.0301 114.842 90.5274L114.345 90.5105C114.348 90.3887 114.754 78.3112 114.347 75.4626C113.98 72.8966 98.0064 73.1858 95.3033 75.0465C94.3798 75.6808 94.2884 78.9523 94.1903 82.4148C94.0076 88.8765 93.781 96.9163 88.6776 97.73C86.7916 98.0311 84.9816 97.7435 83.4897 96.5138H83.4914Z" fill="#353D44"/>
<path d="M99.8213 79.3498H99.955C101.063 79.3498 101.963 80.2497 101.963 81.3576V84.7068C101.963 85.0012 101.724 85.2397 101.43 85.2397H98.3463C98.052 85.2397 97.8135 85.0012 97.8135 84.7068V81.3576C97.8135 80.2497 98.7134 79.3498 99.8213 79.3498Z" fill="#6A7781"/>
<path d="M99.5067 79.3498H99.62C100.554 79.3498 101.312 80.1076 101.312 81.0413V84.7914C101.312 85.0401 101.11 85.2414 100.862 85.2414H98.2634C98.0148 85.2414 97.8135 85.0401 97.8135 84.7914V81.0413C97.8135 80.1076 98.5713 79.3498 99.505 79.3498H99.5067Z" fill="#CCE5F8"/>
<path d="M100.526 85.2397H98.96V86.7874H100.526V85.2397Z" fill="#6A7781"/>
<path d="M114.661 93.4098H114.527C113.42 93.4098 112.52 92.5099 112.52 91.4019V88.0527C112.52 87.7584 112.758 87.5199 113.052 87.5199H116.136C116.43 87.5199 116.669 87.7584 116.669 88.0527V91.4019C116.669 92.5099 115.769 93.4098 114.661 93.4098Z" fill="#6A7781"/>
<path d="M114.976 93.4098H114.862C113.929 93.4098 113.171 92.652 113.171 91.7183V87.9681C113.171 87.7195 113.372 87.5182 113.621 87.5182H116.219C116.468 87.5182 116.669 87.7195 116.669 87.9681V91.7183C116.669 92.652 115.911 93.4098 114.977 93.4098H114.976Z" fill="#FBFEFF"/>
<path d="M113.956 87.5199H115.522V85.9721H113.956V87.5199Z" fill="#6A7781"/>
<path d="M99.2139 76.6585C99.2139 77.0239 98.9178 77.3216 98.5508 77.3216C98.1837 77.3216 97.8877 77.0256 97.8877 76.6585C97.8877 76.2915 98.1837 75.9955 98.5508 75.9955C98.9178 75.9955 99.2139 76.2915 99.2139 76.6585Z" fill="#D4145A"/>
<path d="M101.686 76.6585C101.686 76.8666 101.517 77.0357 101.309 77.0357C101.101 77.0357 100.932 76.8666 100.932 76.6585C100.932 76.4505 101.101 76.2813 101.309 76.2813C101.517 76.2813 101.686 76.4505 101.686 76.6585Z" fill="#46FF3B"/>
<path d="M102.765 76.6585C102.765 76.8666 102.596 77.0357 102.388 77.0357C102.18 77.0357 102.011 76.8666 102.011 76.6585C102.011 76.4505 102.18 76.2813 102.388 76.2813C102.596 76.2813 102.765 76.4505 102.765 76.6585Z" fill="#D4145A"/>
<path d="M106.082 76.7702C106.082 76.9782 105.912 77.1474 105.704 77.1474C105.496 77.1474 105.327 76.9782 105.327 76.7702C105.327 76.5621 105.496 76.393 105.704 76.393C105.912 76.393 106.082 76.5621 106.082 76.7702Z" fill="#104E3D"/>
<path d="M107.049 76.7702C107.049 76.9782 106.88 77.1474 106.672 77.1474C106.464 77.1474 106.295 76.9782 106.295 76.7702C106.295 76.5621 106.464 76.393 106.672 76.393C106.88 76.393 107.049 76.5621 107.049 76.7702Z" fill="#104E3D"/>
<path d="M108.093 76.7702C108.093 76.9782 107.924 77.1474 107.716 77.1474C107.508 77.1474 107.339 76.9782 107.339 76.7702C107.339 76.5621 107.508 76.393 107.716 76.393C107.924 76.393 108.093 76.5621 108.093 76.7702Z" fill="#104E3D"/>
<path d="M109.137 76.7702C109.137 76.9782 108.968 77.1474 108.76 77.1474C108.552 77.1474 108.383 76.9782 108.383 76.7702C108.383 76.5621 108.552 76.393 108.76 76.393C108.968 76.393 109.137 76.5621 109.137 76.7702Z" fill="#104E3D"/>
<path d="M98.604 83.2843L98.5516 84.6104C98.4416 83.8036 98.0712 80.9009 98.4653 80.1989C98.8882 79.5071 99.942 79.6864 99.7915 80.1177C99.7526 80.2311 99.6376 80.2987 99.5242 80.2818C98.6514 80.1583 98.6954 80.9669 98.604 83.2843Z" fill="#E2FFF4"/>
<path d="M89.0707 78.7239C88.8964 81.6976 88.389 84.5055 87.6143 87.0361C88.5683 87.0361 89.3633 87.5046 90.2632 87.667C91.0582 84.8219 91.5606 81.7027 91.7061 78.416C90.8282 78.4295 89.9503 78.4854 89.0707 78.7239Z" fill="#2775A1"/>
<path d="M186.627 61.8965H169.474V73.1232H186.627V61.8965Z" fill="#334499"/>
<path d="M195.445 38.0561H161.099V66.4485H195.445V38.0561Z" fill="#333A50"/>
<path d="M165.636 40.705H190.907C192.235 40.705 193.314 41.7842 193.314 43.1121V61.3925C193.314 62.7203 192.235 63.7995 190.907 63.7995H165.636C164.308 63.7995 163.229 62.7203 163.229 61.3925V43.1121C163.229 41.7842 164.308 40.705 165.636 40.705Z" fill="#E2DEF6"/>
<path d="M190.381 76.716H167.678V103.772H190.381V76.716Z" fill="#334499"/>
<path d="M197.665 73.1216H159.067V77.6227H197.665V73.1216Z" fill="#96AAED"/>
<path d="M172.887 44.0796H164.042V52.9246H172.887V44.0796Z" fill="#368796"/>
<path d="M182.473 44.0796H173.628V52.9246H182.473V44.0796Z" fill="#368796"/>
<path d="M192.061 44.0796H183.216V52.9246H192.061V44.0796Z" fill="#368796"/>
<path d="M167.51 50.9929L167.324 50.592C166.844 50.5599 166.57 50.5108 166.507 50.4482C166.429 50.3704 166.297 50.0423 166.25 49.9205L166.096 49.7361L166.132 49.6177L166.04 49.5162L165.969 49.4113L166.018 49.1068L165.575 48.7804C165.888 48.3998 166.213 48.349 166.189 47.9008C166.171 47.5794 166.13 46.8284 166.788 45.8946C167.554 44.8053 170.132 44.8577 170.635 46.0063C171.545 48.0885 169.547 48.2966 170.257 50.9032C170.29 51.025 170.105 51.0724 170.075 50.9506C169.368 48.2425 171.32 48.0446 170.462 46.0824C170.019 45.0692 167.624 45.0404 166.945 46.0046C166.335 46.8723 166.385 47.4221 166.385 48.0057C166.385 48.3 166.105 48.5503 165.871 48.7618L166.226 49.024L166.171 49.369L166.193 49.4012L166.345 49.572L166.308 49.6938L166.421 49.8393C166.497 50.0389 166.605 50.2774 166.641 50.3146C166.731 50.362 167.429 50.4093 167.449 50.411C167.602 50.8034 167.783 50.9709 167.637 51.0386C167.624 51.0453 167.534 51.0386 167.512 50.9929H167.51Z" fill="#C7D0F9"/>
<path d="M167.686 45.6663C167.686 45.6663 167.483 45.986 167.192 46.1281C166.901 46.2701 166.483 46.8757 166.548 47.214C166.61 47.5523 166.84 47.5912 167.224 47.5912C167.608 47.5912 167.42 47.3781 167.813 47.7722C168.205 48.1664 168.698 47.5642 168.97 47.8348C169.242 48.1055 168.907 48.9986 168.907 48.9986C168.907 48.9986 170.151 48.3558 170.433 47.5591C170.717 46.7624 170.436 45.8303 169.767 45.5394C169.098 45.2485 167.911 45.4751 167.686 45.6663Z" fill="#C7D0F9"/>
<path d="M166.735 51.0521H165.366V51.1942H166.735V51.0521Z" fill="#C7D0F9"/>
<path d="M176.72 51.2805H175.352V51.4226H176.72V51.2805Z" fill="#C7D0F9"/>
<path d="M185.897 44.626H184.528V44.7681H185.897V44.626Z" fill="#C7D0F9"/>
<path d="M171.157 51.1942H169.914V51.3515H171.157V51.1942Z" fill="#C7D0F9"/>
<path d="M182.158 51.343H180.915V51.5004H182.158V51.343Z" fill="#C7D0F9"/>
<path d="M191.667 44.6175H190.424V44.7748H191.667V44.6175Z" fill="#C7D0F9"/>
<path d="M179.666 51.1874C179.72 51.069 180.207 50.022 180.556 49.8478C180.738 49.7564 180.603 49.567 180.485 49.4029C180.75 48.684 181.038 47.5422 180.921 46.7793C180.535 44.2742 175.64 45.1301 176.423 47.4509C176.699 48.278 177.13 49.391 176.887 49.6346C176.775 49.7463 177.112 50.1675 177.345 50.477C177.646 50.8779 177.729 51.3938 177.494 51.3312C177.438 51.316 177.406 51.2602 177.419 51.2044C177.419 51.2044 177.463 50.9794 177.179 50.6005C176.89 50.2165 176.482 49.7463 176.741 49.4875C176.843 49.386 176.636 48.7178 176.227 47.5168C175.89 46.5222 176.601 45.2603 178.296 45.0878C179.855 44.9271 180.941 45.5648 181.124 46.7489C181.274 47.7232 180.819 49.0781 180.716 49.3674C180.889 49.616 180.918 49.8985 180.647 50.0338C180.434 50.1404 180.046 50.8508 179.852 51.2737C179.796 51.3972 179.608 51.3126 179.664 51.1874H179.666Z" fill="#C7D0F9"/>
<path d="M178.836 45.4193C178.836 45.4193 178.354 45.2502 178.11 45.3314C177.865 45.4126 177.914 45.5682 177.914 45.5682C177.914 45.5682 177.427 45.5986 177.209 45.8168C176.991 46.0351 177.114 46.1179 177.114 46.1179C177.114 46.1179 176.761 46.6068 176.727 46.7556C176.693 46.9045 176.842 47.2513 176.842 47.2513C176.842 47.2513 176.659 47.4881 176.848 48.004C177.038 48.5199 178.049 48.574 178.274 48.2273C178.498 47.8805 178.268 47.4475 178.268 47.4475C178.268 47.4475 178.528 47.5151 178.587 47.4745C178.711 47.39 178.846 47.1227 178.601 46.8774C178.356 46.6322 178.961 46.7353 178.961 46.7353C178.961 46.7353 178.647 47.209 178.846 47.4086C179.046 47.6082 179.308 47.3629 179.308 47.4086C179.308 47.4542 179.042 47.6048 179.125 47.9922C179.206 48.3795 179.971 48.5047 180.374 48.1004C180.776 47.6961 180.802 46.3818 180.57 45.9962C180.338 45.6105 179.905 45.6832 179.905 45.6832C179.905 45.6832 179.056 45.0658 178.839 45.4176L178.836 45.4193Z" fill="#C7D0F9"/>
<path d="M172.084 45.0015H171.8V52.0028H172.084V45.0015Z" fill="#C7D0F9"/>
<path d="M174.591 44.697H174.307V51.6983H174.591V44.697Z" fill="#C7D0F9"/>
<path d="M191.809 45.1098H191.524V52.111H191.809V45.1098Z" fill="#C7D0F9"/>
<path d="M187.18 46.2922C187.18 46.2922 186.473 45.9741 186.392 46.1298C186.311 46.2837 186.383 46.2651 186.02 46.375C185.658 46.4833 184.851 47.4086 184.932 47.7164C185.013 48.0243 184.859 47.8078 184.714 48.388C184.568 48.9682 184.859 49.2219 184.714 49.6109C184.568 50 185.621 51.3059 185.847 51.3515C186.074 51.3972 186.236 51.5139 186.554 51.6695C186.872 51.8235 187.85 51.8776 188.494 51.4885C188.494 51.4885 189.355 50.8813 189.501 50.3197C189.646 49.7581 189.873 49.885 189.873 49.0866C189.873 48.2882 189.366 48.4438 189.366 47.872C189.366 47.3003 189.093 46.5577 188.713 46.3683C188.332 46.1788 188.297 46.5493 187.979 46.233C187.661 45.9166 187.182 46.2972 187.182 46.2972L187.18 46.2922Z" fill="#C7D0F9"/>
<path d="M185.645 51.8556C184.433 51.1891 183.968 49.1813 184.361 47.8314C184.753 46.4816 185.683 46.0316 185.722 46.013C186.458 45.7458 187.671 45.4785 188.408 45.7593C189.826 46.2972 191.616 49.2202 189.332 51.5021C188.618 52.2159 186.813 52.5001 185.645 51.8556ZM185.788 46.1619C185.731 46.1907 184.878 46.6389 184.518 47.8771C184.151 49.1407 184.597 51.091 185.724 51.7118C186.854 52.3343 188.559 52.0434 189.215 51.3853C191.391 49.21 189.682 46.419 188.349 45.9132C187.456 45.5749 185.878 46.1315 185.788 46.1636V46.1619Z" fill="#C7D0F9"/>
<path d="M187.335 52.5897C187.296 52.5897 187.264 52.5576 187.264 52.5187V44.2369C187.264 44.198 187.296 44.1659 187.335 44.1659C187.374 44.1659 187.406 44.198 187.406 44.2369V52.5187C187.406 52.5576 187.374 52.5897 187.335 52.5897Z" fill="#C7D0F9"/>
<path d="M191.279 48.3947H183.388C183.35 48.3947 183.317 48.3626 183.317 48.3237C183.317 48.2848 183.35 48.2527 183.388 48.2527H191.279C191.318 48.2527 191.35 48.2848 191.35 48.3237C191.35 48.3626 191.318 48.3947 191.279 48.3947Z" fill="#C7D0F9"/>
<path d="M191.352 41.336H165.366V42.8499H191.352V41.336Z" fill="#368796"/>
<path d="M199.999 102.385H163.229V105.286H199.999V102.385Z" fill="#12207C"/>
<path d="M190.381 55.9288H171.155V56.416H190.381V55.9288Z" fill="#368796"/>
<path d="M190.327 57.0689H171.101V57.5561H190.327V57.0689Z" fill="#368796"/>
<path d="M190.327 58.1413H171.101V58.6285H190.327V58.1413Z" fill="#368796"/>
<path d="M195.676 73.1215H163.669C163.669 72.1675 164.442 71.3962 165.396 71.3962H193.951C194.905 71.3962 195.676 72.1692 195.676 73.1215Z" fill="#333A50"/>
</g>
<defs>
<linearGradient id="paint0_linear_13209_578" x1="201.96" y1="117.061" x2="41.4964" y2="26.7516" gradientUnits="userSpaceOnUse">
<stop stop-color="#CBE8EE"/>
<stop offset="1" stop-color="#CEF0FF"/>
</linearGradient>
<linearGradient id="paint1_linear_13209_578" x1="24.2319" y1="124.522" x2="172.755" y2="35.7066" gradientUnits="userSpaceOnUse">
<stop stop-color="#61C7DB"/>
<stop offset="1" stop-color="#F9FDFF"/>
</linearGradient>
<clipPath id="clip0_13209_578">
<rect width="200" height="105.286" fill="white"/>
</clipPath>
</defs>
</svg>
