<svg width="41" height="40" viewBox="0 0 41 40" fill="none" xmlns="http://www.w3.org/2000/svg">
<path d="M9.03574 6.73305C12.0436 3.72498 16.1237 2.03503 20.3778 2.03503C24.6051 2.05879 28.6526 3.75052 31.6395 6.7423C34.6264 9.73401 36.3115 13.7837 36.3281 18.0111V18.9351C36.3347 19.0377 36.3347 19.1405 36.3281 19.243C36.3089 19.5255 36.2834 19.8076 36.245 20.09L36.1871 20.475C36.1359 20.7915 36.078 21.106 36.0139 21.4182L35.8792 21.9699C35.828 22.1944 35.7701 22.3998 35.7059 22.6115C35.2823 24.0264 34.6648 25.3759 33.8708 26.6215C33.7296 26.8332 33.5821 27.0515 33.4346 27.2631L33.0304 27.8148L32.9534 27.911L32.9084 27.9689C32.7543 28.1677 32.5939 28.3538 32.4272 28.5463C31.8819 29.1719 31.2875 29.7534 30.6499 30.285L30.1495 30.6891C29.6148 31.1093 29.0508 31.4908 28.4621 31.8314C28.2118 31.9789 27.9552 32.1201 27.6985 32.2547L26.2549 27.9239C28.5948 26.5302 30.3664 24.3545 31.2574 21.7812C32.1485 19.2074 32.1015 16.4018 31.1248 13.8598V13.8085C30.7865 12.9475 30.3448 12.1311 29.8095 11.3767C29.7917 11.3443 29.7702 11.3142 29.7453 11.287L29.6877 11.2166C29.5786 11.0628 29.399 10.8316 29.3412 10.7612C29.3245 10.7406 29.3077 10.7196 29.2909 10.6983C29.2495 10.6463 29.2071 10.5929 29.1616 10.5429L28.9754 10.3312C28.9365 10.2839 28.892 10.2365 28.8475 10.1891C28.8257 10.1659 28.804 10.1427 28.7829 10.1196C28.7508 10.0842 28.738 10.0714 28.7148 10.0481C28.6915 10.0249 28.6579 9.99123 28.5841 9.91418C28.4366 9.76008 28.2891 9.61886 28.135 9.48424C27.9938 9.35163 27.8463 9.22331 27.6922 9.09928C27.4292 8.85553 27.1534 8.65016 26.871 8.45768C26.7364 8.36144 26.5952 8.27149 26.4539 8.18814C26.104 7.9633 25.7396 7.76165 25.3632 7.58492L24.8373 7.34718L24.4332 7.18678L24.1508 7.08424C24.0204 7.03691 23.901 7.00057 23.7674 6.95989L23.7337 6.94962C23.7167 6.94444 23.6998 6.93926 23.683 6.93409C23.5536 6.89446 23.428 6.85598 23.2975 6.8276L23.0345 6.76344C22.9996 6.7547 22.9646 6.74454 22.9297 6.73438C22.8363 6.70723 22.7429 6.68009 22.6496 6.68009H22.4955L21.9885 6.59674C21.9609 6.59229 21.9333 6.58773 21.9057 6.58316C21.7342 6.55476 21.5622 6.52628 21.3853 6.52628H19.7363L19.3708 6.55864C19.2902 6.56617 19.2106 6.57864 19.1316 6.59101C19.0093 6.61017 18.8884 6.62911 18.7676 6.62911L18.2606 6.71246H18.1065C17.9782 6.73164 17.8498 6.76372 17.7215 6.79581L17.4586 6.85997C17.3652 6.88028 17.2718 6.90841 17.18 6.93605C17.1268 6.95206 17.0741 6.96791 17.0224 6.98199C16.8811 7.02037 16.7465 7.06534 16.6053 7.11661L16.3229 7.21915L15.9187 7.37955L15.3926 7.617C15.0162 7.79373 14.6518 7.99538 14.3018 8.22023C14.1606 8.30358 14.0194 8.39323 13.8848 8.48947C13.6001 8.68596 13.328 8.9005 13.0699 9.13108C12.9906 9.18751 12.9155 9.24966 12.8454 9.31726L12.8312 9.33026C12.6053 9.53736 12.3855 9.7389 12.1717 9.95886C12.1027 10.0217 12.0397 10.0908 11.9769 10.1599L11.9729 10.1642C11.9001 10.2327 11.836 10.3032 11.7804 10.3759L11.5624 10.6134C11.5269 10.6525 11.5131 10.67 11.4871 10.7029C11.4661 10.7293 11.4373 10.7658 11.3828 10.8316C11.2608 10.9791 11.1454 11.1329 11.0363 11.287L10.9784 11.3575C10.9535 11.3847 10.932 11.4151 10.9142 11.4474C10.3789 12.2016 9.93719 13.0182 9.59891 13.8789V13.9305C8.61873 16.4652 8.56403 19.2645 9.44424 21.8358C10.3242 24.4071 12.0831 26.5857 14.4109 27.988L12.9673 32.3188C12.7106 32.1842 12.454 32.043 12.2036 31.8955C11.615 31.5549 11.051 31.1734 10.5163 30.7532L10.0159 30.349C9.3783 29.8174 8.78425 29.236 8.2386 28.6104C8.0719 28.4179 7.9115 28.2317 7.75739 28.033L7.71242 27.9751L7.63537 27.8789L7.23122 27.3272C7.08371 27.1218 6.9362 26.9039 6.79499 26.6856C6.00101 25.4399 5.38349 24.0905 4.96015 22.6755C4.95324 22.6507 4.94641 22.6261 4.93965 22.6019C4.88361 22.4005 4.83261 22.2172 4.78685 22.0339L4.65223 21.4823C4.58807 21.1658 4.53021 20.8513 4.47894 20.5391L4.42108 20.1541C4.41616 20.1178 4.41112 20.0816 4.40608 20.0453C4.37189 19.7992 4.33773 19.5533 4.33773 19.3071C4.33143 19.2046 4.33143 19.1017 4.33773 18.9992V18.0751C4.33773 13.8211 6.02768 9.74111 9.03574 6.73305Z" fill="#368796"/>
<path d="M21.6609 8.45108C21.6597 8.25029 21.6113 8.05237 21.5197 7.87363C21.4188 7.87363 21.3181 7.86238 21.2164 7.85102C21.1302 7.84139 21.0434 7.83168 20.9551 7.82866C20.827 7.82447 20.7017 7.82586 20.5755 7.82726C20.5122 7.82796 20.4482 7.82866 20.384 7.82866H19.8128C19.6266 7.82866 19.4341 7.82866 19.2483 7.87363C19.152 8.05122 19.0996 8.24914 19.0944 8.45108C19.0944 8.90965 19.3391 9.33327 19.736 9.56241C20.133 9.79155 20.6223 9.79155 21.0193 9.56241C21.4162 9.33327 21.6609 8.90964 21.6609 8.45108Z" fill="#368796"/>
<path d="M16.5284 24.4912C16.1741 24.4912 15.8868 24.7785 15.8868 25.1328V27.0576H24.8693V25.1328C24.8693 24.9627 24.8017 24.7994 24.6814 24.6791C24.5611 24.5588 24.3978 24.4912 24.2277 24.4912H16.5284Z" fill="#368796"/>
<path d="M14.6033 26.5575C11.7954 24.6467 10.1137 21.4713 10.112 18.0751C10.1114 17.2334 10.2171 16.3947 10.4265 15.5792C10.879 15.9536 11.4493 16.1561 12.0368 16.1503C12.8568 16.1426 13.6239 15.7434 14.1008 15.0763C14.5777 14.4088 14.7069 13.5539 14.4482 12.7754C14.1899 11.9971 13.5752 11.389 12.7938 11.1395C14.1392 9.67101 15.8824 8.62552 17.8112 8.13028C17.8018 8.23712 17.8018 8.34425 17.8112 8.45108C17.8112 9.36788 18.3005 10.2152 19.0945 10.6737C19.8884 11.132 20.8669 11.132 21.6609 10.6737C22.4549 10.2152 22.9441 9.36796 22.9441 8.45108C22.9535 8.34425 22.9535 8.23712 22.9441 8.13028C24.8637 8.63007 26.5975 9.67527 27.9357 11.1395C27.1517 11.3901 26.5356 12.0017 26.279 12.7836C26.0223 13.5656 26.1561 14.4234 26.639 15.0897C27.1222 15.7562 27.8952 16.1506 28.7185 16.1503C29.306 16.1561 29.8762 15.9536 30.3288 15.5792C30.5382 16.3947 30.6439 17.2334 30.6433 18.0751C30.6416 21.4717 28.9599 24.647 26.1521 26.5575V25.1331C26.1521 24.6227 25.9492 24.1329 25.5884 23.772C25.2275 23.4111 24.7377 23.2083 24.2273 23.2083H16.528C16.0177 23.2083 15.5278 23.4112 15.1669 23.772C14.806 24.1328 14.6033 24.6227 14.6033 25.1331V26.5575Z" fill="#368796"/>
<path d="M13.3203 13.5839C13.3203 13.2436 13.1851 12.9171 12.9445 12.6765C12.7039 12.4359 12.3774 12.3007 12.0371 12.3007H11.8896C11.4912 12.8793 11.1555 13.4989 10.8886 14.1485C10.994 14.3636 11.1575 14.5449 11.3603 14.6718C11.5634 14.7986 11.7977 14.8662 12.0372 14.8671C12.3774 14.8671 12.704 14.7319 12.9446 14.4913C13.1852 14.2507 13.3203 13.9242 13.3203 13.5839Z" fill="#368796"/>
<path d="M29.3928 14.6772C29.19 14.8018 28.9566 14.8677 28.7186 14.8671C28.26 14.8671 27.8364 14.6225 27.6073 14.2255C27.3781 13.8285 27.3781 13.3393 27.6073 12.9423C27.8364 12.5453 28.26 12.3007 28.7186 12.3007H28.8661C29.2654 12.8833 29.6008 13.5071 29.8671 14.1614C29.76 14.3739 29.5959 14.5526 29.3928 14.6772Z" fill="#368796"/>
<path d="M33.4087 29.4766C31.9379 31.1694 30.148 32.556 28.1412 33.5571L28.7187 35.1931C28.7279 35.2613 28.7279 35.3303 28.7187 35.3985V37.9649H34.2302C34.4209 37.9652 34.602 37.8807 34.724 37.7341C34.8489 37.5868 34.9007 37.3912 34.8652 37.2013L33.4087 29.4766Z" fill="#368796"/>
<path d="M5.89075 37.1759L7.34723 29.4766C8.81808 31.1694 10.608 32.5561 12.6147 33.5572L12.0693 35.1932C12.0493 35.26 12.0384 35.329 12.0373 35.3986V37.9392H6.52577C6.335 37.9395 6.15398 37.855 6.03196 37.7084C5.90707 37.5611 5.85523 37.3655 5.89075 37.1759Z" fill="#368796"/>
<path fill-rule="evenodd" clip-rule="evenodd" d="M15.707 28.3408L13.3202 35.501V37.9649H27.4355V35.501L25.0486 28.3408H15.707ZM25.5107 35.3985C25.5107 35.5686 25.4431 35.7319 25.3228 35.8522C25.2025 35.9725 25.0392 36.0401 24.8691 36.0401H15.8867C15.5323 36.0401 15.245 35.7528 15.245 35.3985C15.245 35.0441 15.5323 34.7569 15.8867 34.7569H24.8691C25.0392 34.7569 25.2025 34.8245 25.3228 34.9448C25.4431 35.0651 25.5107 35.2283 25.5107 35.3985Z" fill="#368796"/>
</svg>
