<svg width="17" height="16" viewBox="0 0 17 16" fill="none" xmlns="http://www.w3.org/2000/svg">
<path d="M8.19896 5.03776C8.33959 4.89726 8.53015 4.81831 8.72895 4.8183C8.92776 4.8183 9.11833 4.89725 9.25897 5.03776C9.39948 5.1784 9.47843 5.36898 9.47843 5.56779V10.065C9.47843 10.3327 9.33558 10.5801 9.1037 10.7141C8.87184 10.8479 8.58611 10.8479 8.35423 10.7141C8.12236 10.5801 7.9795 10.3327 7.9795 10.065V5.56779C7.9795 5.36898 8.05845 5.17841 8.19896 5.03776Z" fill="#F0920A"/>
<path d="M11.3523 6.50476C11.1537 6.50476 10.963 6.58371 10.8225 6.72435C10.6818 6.86486 10.6029 7.05556 10.6029 7.25438V10.0651C10.6029 10.3328 10.7457 10.5803 10.9776 10.7142C11.2095 10.8481 11.4952 10.8481 11.7272 10.7142C11.9591 10.5802 12.1019 10.3328 12.1019 10.0651V7.25438C12.1019 7.05557 12.023 6.86485 11.8824 6.72435C11.7418 6.58371 11.5511 6.50476 11.3523 6.50476Z" fill="#F0920A"/>
<path d="M5.57558 7.84852C5.71608 7.70801 5.90678 7.62907 6.10558 7.62906C6.30426 7.62906 6.49496 7.70801 6.63547 7.84852C6.77612 7.98916 6.85506 8.17974 6.85506 8.37855V10.0651C6.85506 10.3328 6.71221 10.5802 6.48033 10.7141C6.24848 10.848 5.96274 10.848 5.73073 10.7141C5.49886 10.5802 5.35599 10.3328 5.35599 10.0651V8.37855C5.35599 8.17973 5.43494 7.98916 5.57558 7.84852Z" fill="#F0920A"/>
<path fill-rule="evenodd" clip-rule="evenodd" d="M13.4289 3.29621C14.0003 3.86753 14.3783 4.60355 14.5098 5.40086L14.5096 5.40087C14.6528 6.26107 14.7248 7.1316 14.725 8.00367C14.7269 8.87303 14.6573 9.74105 14.5171 10.5989C14.3856 11.3962 14.0077 12.1324 13.4362 12.7037C12.8649 13.275 12.1289 13.653 11.3316 13.7845C10.4714 13.9276 9.60086 13.9997 8.72879 13.9999C7.85448 14.0025 6.98147 13.933 6.11854 13.792C5.32122 13.6605 4.58521 13.2826 4.01375 12.7111C3.44243 12.1398 3.06441 11.4038 2.93305 10.6065C2.64601 8.88322 2.64601 7.12429 2.93305 5.4009C3.06469 4.60368 3.44283 3.8678 4.01415 3.29648C4.58551 2.72512 5.32139 2.34713 6.11857 2.21537C7.84183 1.92821 9.6009 1.92821 11.3242 2.21537C12.1215 2.34688 12.8576 2.72476 13.4289 3.29621ZM12.3768 11.6513C12.727 11.301 12.9587 10.8497 13.0388 10.3608H13.0389C13.1659 9.58156 13.2286 8.79314 13.2262 8.00352C13.2286 7.21393 13.1659 6.42548 13.0389 5.6462C12.9586 5.1571 12.7267 4.7055 12.376 4.3552C12.0254 4.00488 11.5736 3.77353 11.0843 3.69366C9.52421 3.43369 7.93178 3.43369 6.37164 3.69366C5.88267 3.77417 5.43121 4.00616 5.0809 4.35673C4.73075 4.70731 4.49926 5.15904 4.41914 5.64814C4.15929 7.20828 4.15929 8.80071 4.41914 10.3608C4.49924 10.8497 4.7309 11.301 5.08117 11.6513C5.43144 12.0016 5.8828 12.2332 6.37164 12.3133C7.15092 12.4404 7.93934 12.5031 8.72896 12.5007C9.51855 12.5031 10.307 12.4404 11.0863 12.3133C11.5751 12.2332 12.0265 12.0016 12.3768 11.6513Z" fill="#F0920A"/>
</svg>
