<svg width="157" height="152" viewBox="0 0 157 152" fill="none" xmlns="http://www.w3.org/2000/svg">
<g filter="url(#filter0_d_7714_24881)">
<path d="M150.5 10.8672C150.5 5.34434 146.023 0.867188 140.5 0.867188H16.5C10.9772 0.867188 6.5 5.34434 6.5 10.8672V115.832C6.5 121.355 10.9771 125.832 16.5 125.832H53.0736C56.8485 125.832 60.4033 127.609 62.6698 130.627L73.7019 145.321C76.102 148.517 80.898 148.517 83.2981 145.321L94.3302 130.627C96.5967 127.609 100.152 125.832 103.926 125.832H140.5C146.023 125.832 150.5 121.355 150.5 115.832V10.8672Z" fill="white"/>
<path d="M140.5 1.61719C145.609 1.61719 149.75 5.75855 149.75 10.8672V115.832C149.75 120.941 145.609 125.082 140.5 125.082H103.926C99.9156 125.082 96.1386 126.97 93.7304 130.177L82.6983 144.87C80.5982 147.667 76.4018 147.667 74.3017 144.87L63.2696 130.177C60.8614 126.97 57.0844 125.082 53.0736 125.082H16.5C11.3914 125.082 7.25 120.941 7.25 115.832V10.8672C7.25 5.75855 11.3914 1.61719 16.5 1.61719H140.5Z" stroke="#F7BF08" stroke-width="1.5"/>
</g>
<defs>
<filter id="filter0_d_7714_24881" x="0.5" y="0.867188" width="156" height="158.851" filterUnits="userSpaceOnUse" color-interpolation-filters="sRGB">
<feFlood flood-opacity="0" result="BackgroundImageFix"/>
<feColorMatrix in="SourceAlpha" type="matrix" values="0 0 0 0 0 0 0 0 0 0 0 0 0 0 0 0 0 0 127 0" result="hardAlpha"/>
<feOffset dy="6"/>
<feGaussianBlur stdDeviation="3"/>
<feComposite in2="hardAlpha" operator="out"/>
<feColorMatrix type="matrix" values="0 0 0 0 0.720747 0 0 0 0 0.568486 0 0 0 0 0.0709201 0 0 0 0.28 0"/>
<feBlend mode="normal" in2="BackgroundImageFix" result="effect1_dropShadow_7714_24881"/>
<feBlend mode="normal" in="SourceGraphic" in2="effect1_dropShadow_7714_24881" result="shape"/>
</filter>
</defs>
</svg>
