<svg width="16" height="17" viewBox="0 0 16 17" fill="none" xmlns="http://www.w3.org/2000/svg">
<path fill-rule="evenodd" clip-rule="evenodd" d="M5.30176 4.30127C5.30176 4.02513 5.52562 3.80127 5.80176 3.80127H13.8018C14.0779 3.80127 14.3018 4.02513 14.3018 4.30127C14.3018 4.57741 14.0779 4.80127 13.8018 4.80127H5.80176C5.52562 4.80127 5.30176 4.57741 5.30176 4.30127ZM7.80176 6.80127C7.80176 6.52513 8.02562 6.30127 8.30176 6.30127H13.8018C14.0779 6.30127 14.3018 6.52513 14.3018 6.80127C14.3018 7.07741 14.0779 7.30127 13.8018 7.30127H8.30176C8.02562 7.30127 7.80176 7.07741 7.80176 6.80127ZM8.30176 8.80127C8.02562 8.80127 7.80176 9.02513 7.80176 9.30127C7.80176 9.57741 8.02562 9.80127 8.30176 9.80127H13.8018C14.0779 9.80127 14.3018 9.57741 14.3018 9.30127C14.3018 9.02513 14.0779 8.80127 13.8018 8.80127H8.30176ZM5.30176 11.8013C5.30176 11.5251 5.52562 11.3013 5.80176 11.3013H13.8018C14.0779 11.3013 14.3018 11.5251 14.3018 11.8013C14.3018 12.0774 14.0779 12.3013 13.8018 12.3013H5.80176C5.52562 12.3013 5.30176 12.0774 5.30176 11.8013ZM5.96098 6.2999C5.76572 6.10464 5.44914 6.10464 5.25388 6.2999C5.05862 6.49517 5.05862 6.81175 5.25388 7.00701L5.79266 7.54579H2.19824C1.9221 7.54579 1.69824 7.76965 1.69824 8.04579C1.69824 8.32193 1.9221 8.54579 2.19824 8.54579H5.80362L5.25388 9.09553C5.05862 9.29079 5.05862 9.60737 5.25388 9.80264C5.44914 9.9979 5.76572 9.9979 5.96098 9.80264L7.35334 8.41028C7.45236 8.31126 7.50116 8.18104 7.49975 8.05127C7.50116 7.92149 7.45236 7.79128 7.35334 7.69226L5.96098 6.2999Z" fill="#14A9A9"/>
</svg>
