<svg width="14" height="20" viewBox="0 0 14 20" fill="none" xmlns="http://www.w3.org/2000/svg">
<path fill-rule="evenodd" clip-rule="evenodd" d="M10.7354 4.16132C10.7354 6.23955 9.05067 7.92428 6.97244 7.92428C4.89421 7.92428 3.20947 6.23955 3.20947 4.16132C3.20947 2.08308 4.89421 0.398346 6.97244 0.398346C9.05067 0.398346 10.7354 2.08308 10.7354 4.16132ZM6.75098 1.27646C6.97507 1.27646 7.15673 1.45812 7.15673 1.68221V4.25534C7.15673 4.29642 7.1754 4.33528 7.20748 4.36095L8.33231 5.26094C8.50728 5.40094 8.53563 5.65627 8.39563 5.83125C8.25563 6.00622 8.0003 6.03458 7.82532 5.89458L6.7005 4.99459C6.47594 4.81492 6.34523 4.54293 6.34523 4.25534V1.68221C6.34523 1.45812 6.52689 1.27646 6.75098 1.27646Z" fill="#368796"/>
<path fill-rule="evenodd" clip-rule="evenodd" d="M11.532 4.16131C11.532 6.67955 9.49052 8.72099 6.97228 8.72099C4.45403 8.72099 2.4126 6.67955 2.4126 4.16131C2.4126 3.66847 2.49079 3.1939 2.63544 2.74931H2.20307C1.00792 2.74931 0.0390625 3.71817 0.0390625 4.91331V17.4376C0.0390625 18.6328 1.00792 19.6016 2.20307 19.6016H11.5781C12.7733 19.6016 13.7421 18.6328 13.7421 17.4376V4.91331C13.7421 3.71817 12.7733 2.74931 11.5781 2.74931H11.3091C11.4538 3.1939 11.532 3.66847 11.532 4.16131ZM6.97193 14.1956C8.04563 14.1956 8.91604 13.3252 8.91604 12.2515C8.91604 11.1778 8.04563 10.3074 6.97193 10.3074C5.89824 10.3074 5.02783 11.1778 5.02783 12.2515C5.02783 13.3252 5.89824 14.1956 6.97193 14.1956ZM3.91748 17.4252C3.91748 15.8055 5.23051 14.4925 6.85021 14.4925H7.09426C8.71396 14.4925 10.027 15.8055 10.027 17.4252C10.027 17.6052 9.8811 17.7511 9.70113 17.7511H4.24334C4.06337 17.7511 3.91748 17.6052 3.91748 17.4252Z" fill="#368796"/>
</svg>
