<svg xmlns="http://www.w3.org/2000/svg" width="280.81" height="159" viewBox="0 0 280.81 159">
  <g id="Group_594" data-name="Group 594" transform="translate(-761.576 -282)">
    <path id="Path_904" data-name="Path 904" d="M1999.178,873.837c-.024-.056-.052-.115-.085-.177-.112-.436-1.091-2.75-1.2-3-.308-.72-.811-.337-.811.2,0,.166.071,1.354.029,1.526a8.089,8.089,0,0,0-3.487-1.855s-1.636-.538-.849,1.11c.526,1.1,1.152,1.24,1.918,2.781s2.181,2.6,3.448,2.5l1.359.46,1.374-2.032-.884-.546A2.081,2.081,0,0,1,1999.178,873.837Z" transform="translate(-1033.832 -545.303)" fill="#ffb27d"/>
    <g id="Group_573" data-name="Group 573" transform="translate(882.739 282)">
      <g id="Group_569" data-name="Group 569" transform="translate(0 0)">
        <rect id="Rectangle_40" data-name="Rectangle 40" width="80.51" height="115.856" fill="#fff"/>
        <g id="Group_559" data-name="Group 559" transform="translate(15.903 10.433)">
          <rect id="Rectangle_41" data-name="Rectangle 41" width="36.697" height="1.905" transform="translate(4.743)" fill="#f99746"/>
          <rect id="Rectangle_42" data-name="Rectangle 42" width="18.349" height="1.905" transform="translate(0 4.422)" fill="#f99746"/>
          <rect id="Rectangle_43" data-name="Rectangle 43" width="26.93" height="1.905" transform="translate(20.562 4.422)" fill="#f99746"/>
        </g>
        <g id="Group_562" data-name="Group 562" transform="translate(8.556 50.032)">
          <rect id="Rectangle_44" data-name="Rectangle 44" width="39.592" height="1.451" transform="translate(9.321 7.741)" fill="#aec3ff"/>
          <g id="Group_560" data-name="Group 560" transform="translate(0 3.871)">
            <rect id="Rectangle_45" data-name="Rectangle 45" width="28.035" height="1.451" transform="translate(30.199)" fill="#aec3ff"/>
            <rect id="Rectangle_46" data-name="Rectangle 46" width="27.311" height="1.451" fill="#aec3ff"/>
          </g>
          <g id="Group_561" data-name="Group 561" transform="translate(2.745)">
            <rect id="Rectangle_47" data-name="Rectangle 47" width="24.118" height="1.45" transform="translate(28.625)" fill="#aec3ff"/>
            <rect id="Rectangle_48" data-name="Rectangle 48" width="24.118" height="1.45" fill="#aec3ff"/>
          </g>
        </g>
        <g id="Group_568" data-name="Group 568" transform="translate(31.532 70.161)">
          <g id="Group_563" data-name="Group 563">
            <path id="Path_905" data-name="Path 905" d="M1654.881,1086.521H1643.24a.963.963,0,0,1-.961-.96h0a.963.963,0,0,1,.961-.96h11.642a.963.963,0,0,1,.961.96h0A.963.963,0,0,1,1654.881,1086.521Z" transform="translate(-1642.279 -1084.6)" fill="#a8c3f7"/>
            <path id="Path_906" data-name="Path 906" d="M1782.844,1086.521H1771.2a.963.963,0,0,1-.961-.96h0a.963.963,0,0,1,.961-.96h11.642a.963.963,0,0,1,.96.96h0A.963.963,0,0,1,1782.844,1086.521Z" transform="translate(-1754.001 -1084.6)" fill="#a8c3f7"/>
          </g>
          <g id="Group_567" data-name="Group 567" transform="translate(4.135 6.451)">
            <g id="Group_564" data-name="Group 564">
              <path id="Path_907" data-name="Path 907" d="M1685.348,1156.406a10.488,10.488,0,1,1,10.488-10.488A10.5,10.5,0,0,1,1685.348,1156.406Zm0-20.447a9.959,9.959,0,1,0,9.959,9.959A9.97,9.97,0,0,0,1685.348,1135.959Z" transform="translate(-1674.86 -1135.43)" fill="#a8c3f7"/>
            </g>
            <g id="Group_565" data-name="Group 565" transform="translate(2.037 2.037)">
              <path id="Path_908" data-name="Path 908" d="M1699.363,1168.383a8.451,8.451,0,1,1,8.451-8.451A8.461,8.461,0,0,1,1699.363,1168.383Zm0-16.373a7.922,7.922,0,1,0,7.922,7.922A7.931,7.931,0,0,0,1699.363,1152.01Z" transform="translate(-1690.912 -1151.481)" fill="#a8c3f7"/>
            </g>
            <g id="Group_566" data-name="Group 566" transform="translate(5.553 6.686)">
              <path id="Path_909" data-name="Path 909" d="M1723.658,1195.226a8.138,8.138,0,0,1-3.011.471c-1.284-.107-2.007-.779-2.035-1.894a2.858,2.858,0,0,1,1.064-2.286c-.007-.06-.013-.121-.017-.182-.047-.623.086-1.038.4-1.231.5-.312,1.246.115,1.277.133l-.167.285c-.167-.1-.662-.311-.937-.138-.237.148-.265.556-.244.887a7,7,0,0,1,2.282-1.021,12.263,12.263,0,0,1,2.151-.367c0-.078.01-.147.018-.2.023-.153.076-.332.226-.368a.248.248,0,0,1,.266.139.792.792,0,0,1,.1.4c.239-.005.461,0,.658.013l.006-.012a3.766,3.766,0,0,1,.051-1.148c.083-.382.22-.575.412-.594a.253.253,0,0,1,.261.162,3.089,3.089,0,0,1-.386,1.629.02.02,0,0,0,0,0c.273.046.459.122.518.228a.246.246,0,0,1-.067.309.389.389,0,0,1-.482.1.475.475,0,0,1-.176-.2,3.439,3.439,0,0,1-.65.968.325.325,0,0,1-.384.056.358.358,0,0,1-.083-.067,4.456,4.456,0,0,1-.251.52c-.345.605-.733.917-1.123.9a.635.635,0,0,1-.421-.186,6.107,6.107,0,0,1-.756,1.244.885.885,0,0,1-.985.349,2.872,2.872,0,0,1-1.435-2.221,2.471,2.471,0,0,0-.794,1.893c.025.95.608,1.48,1.733,1.574,2.84.237,7.82-2.4,8.2-4.347h0C1728.565,1192.6,1726.2,1194.4,1723.658,1195.226Zm-3.633-3.577a2.7,2.7,0,0,0,1.243,2.16.562.562,0,0,0,.63-.242,5.679,5.679,0,0,0,.794-1.357,2.007,2.007,0,0,1-.137-.431,3.1,3.1,0,0,1,0-1.263,8.338,8.338,0,0,0-1.555.541A5.091,5.091,0,0,0,1720.025,1191.649Zm3.032.541a.378.378,0,0,0,.29.2c.25.011.55-.255.822-.732a4.349,4.349,0,0,0,.34-.768,3.261,3.261,0,0,1-.093-.67c-.366.029-.764.079-1.174.153A2.482,2.482,0,0,1,1723.057,1192.19Zm1.8-1.3c.051.155.1.185.1.185a3.089,3.089,0,0,0,.586-.892c-.156-.006-.333-.007-.525,0A4.027,4.027,0,0,1,1724.853,1190.892Zm-1.935-.424a2.517,2.517,0,0,0-.042,1.233A1.625,1.625,0,0,0,1722.918,1190.469Zm3.246-.21h0Zm-.048-1.692a2.014,2.014,0,0,0-.078.345A2.517,2.517,0,0,0,1726.115,1188.567Z" transform="translate(-1718.611 -1188.109)" fill="#a8c3f7"/>
            </g>
          </g>
        </g>
      </g>
      <g id="Group_572" data-name="Group 572" transform="translate(5.161 32.41)">
        <rect id="Rectangle_49" data-name="Rectangle 49" width="44.209" height="1.451" transform="translate(10.408 7.741)" fill="#aec3ff"/>
        <g id="Group_570" data-name="Group 570" transform="translate(0 3.871)">
          <rect id="Rectangle_50" data-name="Rectangle 50" width="31.304" height="1.45" transform="translate(33.72)" fill="#aec3ff"/>
          <rect id="Rectangle_51" data-name="Rectangle 51" width="30.495" height="1.45" fill="#aec3ff"/>
        </g>
        <g id="Group_571" data-name="Group 571" transform="translate(3.065)">
          <rect id="Rectangle_52" data-name="Rectangle 52" width="26.93" height="1.451" transform="translate(31.963)" fill="#aec3ff"/>
          <rect id="Rectangle_53" data-name="Rectangle 53" width="26.93" height="1.451" fill="#aec3ff"/>
        </g>
      </g>
    </g>
    <g id="Group_574" data-name="Group 574" transform="translate(959.799 292.444)">
      <path id="Path_910" data-name="Path 910" d="M2068.742,845.686s6.769,25.929-13.81,21.619c-5.556-1.164-20.358-15.914-20.358-15.914s1.424-2.247,3.178-2.009c0,0,14.3,4.65,16.588,6.333,1.266.932,2.713-13.758,7.093-13.549A11.451,11.451,0,0,1,2068.742,845.686Z" transform="translate(-2030.312 -813.217)" fill="#91cecf"/>
      <path id="Path_911" data-name="Path 911" d="M2273.8,1720.293s-.378,6.1-1.558,6.186c-.157.012-5.984.012-5.984.012l-7.439-.043a2.414,2.414,0,0,1,2.223-2.172c2.174-.379,5.814-1.907,7.131-4.781C2269.563,1716.472,2273.8,1720.293,2273.8,1720.293Z" transform="translate(-2226.101 -1578.183)" fill="#163560"/>
      <path id="Path_912" data-name="Path 912" d="M2206.633,1219.193a15.507,15.507,0,0,1-4.027.757,14.781,14.781,0,0,1-3.76-.537,102.993,102.993,0,0,0-2.769-13.189c-1.228-4.755-2.983-10.868-5.478-18.465-6.9-21-9-33.277-9.19-34.44-.01-.061-.014-.092-.014-.092l.022-.01,21.213-9.314s-2.622,28.936.723,40.043a46.8,46.8,0,0,1,1.214,5.321C2206.682,1201.331,2206.633,1219.193,2206.633,1219.193Z" transform="translate(-2158.5 -1076.66)" fill="#2b478b"/>
      <path id="Path_913" data-name="Path 913" d="M2204.667,1189.267l-8.491,16.957c-1.228-4.755-2.982-10.868-5.478-18.465-6.9-21-9-33.277-9.19-34.44,0-.035,0-.067.008-.1l21.213-9.314s-2.622,28.936.723,40.043A46.746,46.746,0,0,1,2204.667,1189.267Z" transform="translate(-2158.598 -1076.66)" fill="#233862"/>
      <path id="Path_914" data-name="Path 914" d="M2143.258,1720.293s-.378,6.1-1.558,6.186c-.156.012-5.984.012-5.984.012l-7.439-.043a2.414,2.414,0,0,1,2.223-2.172c2.174-.379,5.814-1.907,7.131-4.781C2139.017,1716.472,2143.258,1720.293,2143.258,1720.293Z" transform="translate(-2112.123 -1578.183)" fill="#163560"/>
      <path id="Path_915" data-name="Path 915" d="M2151.511,1149.275a302,302,0,0,0,2.969,41.774c3.244,23.023,2.145,32.8,2.145,32.8a22.087,22.087,0,0,0,3.128.8,14.2,14.2,0,0,0,4.642-.537s4.643-23.031,3.312-34.555,6.359-39.542,6.359-39.542Z" transform="translate(-2132.403 -1081.35)" fill="#2b478b"/>
      <path id="Path_916" data-name="Path 916" d="M2205.869,735.509l-3.72,3.266-6.08-.268c.014-.49.125-2.527.228-4.373.007-.109.013-.218.019-.324.09-1.571.167-2.92.167-2.92l5.189-3.222,1.935-1.2c0,.033.079,1.718.092,1.964A14.247,14.247,0,0,0,2205.869,735.509Z" transform="translate(-2171.311 -712.203)" fill="#ffb27d"/>
      <path id="Path_917" data-name="Path 917" d="M2141.752,837.408c.085,9.9.744,33.05,1.23,33.521,5.155,4.976,27.829-1.364,29.032-6.846s-4.569-70.29-13.374-72.878c-1.827-.536-11.6,2.622-11.6,2.622a61.987,61.987,0,0,0-2.536,9.114c-.372,1.892-1.588,15.391-2.3,24.411-.187,2.4-.341,4.49-.431,5.953C2141.743,833.908,2141.735,835.381,2141.752,837.408Z" transform="translate(-2123.88 -768.671)" fill="#abddda"/>
      <path id="Path_918" data-name="Path 918" d="M2204.867,736.354c-.924,2.23-5.2,4.649-7,5.57.007-.109.013-.218.019-.324.09-1.571.168-2.92.168-2.92l5.189-3.222C2204.466,735.267,2205.249,735.436,2204.867,736.354Z" transform="translate(-2172.883 -719.992)" fill="#fca56b"/>
      <path id="Path_919" data-name="Path 919" d="M2167.81,655.415s9.389.873,9.843-4.982,1.971-9.686-4-10.491-7.314,1.339-7.941,3.257S2165.38,655.037,2167.81,655.415Z" transform="translate(-2144.556 -636.508)" fill="#ffb27d"/>
      <path id="Path_920" data-name="Path 920" d="M2160.215,620.171s1.926,6.291,3.192,5.731,2.425-1.023,2.642.951-1.146,4.6,3.012,4.069,7.79-12.315,6.243-14.071C2170.841,611.783,2154.039,614.144,2160.215,620.171Z" transform="translate(-2138.831 -614.085)" fill="#163560"/>
      <path id="Path_921" data-name="Path 921" d="M2185.914,773.737c.116-.049,6.7-3,7.471-2.749s1.73,2.606,1.73,2.606l-11.595,2.622A5.757,5.757,0,0,1,2185.914,773.737Z" transform="translate(-2160.354 -751.061)" fill="#91cecf"/>
      <path id="Path_922" data-name="Path 922" d="M2141.739,984.66c17.643-12.758,19.014-32.98,19.014-32.98-8.394,4.736-16.365,12.563-18.952,21.168-.187,2.4.056,6.245-.034,7.708C2141.73,981.16,2141.723,982.633,2141.739,984.66Z" transform="translate(-2123.867 -908.833)" fill="#91cecf"/>
      <path id="Path_923" data-name="Path 923" d="M2007.79,1151.144a1.391,1.391,0,0,0-.716-.217,10.088,10.088,0,0,1-1.819-.852c-.646-.585-.871.038-.421.66.1.135.447.364.568.493a13.427,13.427,0,0,0-3.929,2.587s-1.341,1.081.47,1.316c1.21.158,1.667-.293,3.377-.1s3.368-.417,3.975-1.533l1.125-.891-.959-2.258Z" transform="translate(-2000.996 -1081.844)" fill="#ffb27d"/>
      <path id="Path_924" data-name="Path 924" d="M2085.44,815.955s18.582-.892,1.778,30.371c-2.688,5-21.891,15.865-21.891,15.865s-1.805-1.955-1.123-3.588c0,0,12.5-14.231,14.181-14.81,1.486-.514,1.18-17.841,2.51-22.02A10.234,10.234,0,0,1,2085.44,815.955Z" transform="translate(-2056.047 -790.332)" fill="#abddda"/>
    </g>
    <g id="Group_576" data-name="Group 576" transform="translate(940.954 376.282)">
      <g id="Group_575" data-name="Group 575" transform="translate(0 0)">
        <path id="Path_925" data-name="Path 925" d="M1883.1,1368.376l-13.47,0-7.126,0a5.044,5.044,0,0,1-5.026-5.031l.016-49.776a5.041,5.041,0,0,1,5.029-5.027l6.319,0,14.277,0a5.042,5.042,0,0,1,5.026,5.03l-.014,49.776A5.045,5.045,0,0,1,1883.1,1368.376Z" transform="translate(-1856.848 -1304.236)" fill="#c0d8fb" opacity="0.5"/>
        <path id="Path_926" data-name="Path 926" d="M1894.011,1529.533l-.357-2.62h0l-.358-2.621a2.462,2.462,0,0,0-2.764-2.1c-.074.01-.146.025-.218.041a2.429,2.429,0,0,0,.422-1.16,2.453,2.453,0,0,0,4.651-1.514l-.615-2.571h0l-.616-2.573a2.455,2.455,0,0,0-4.774,1.142l.927,3.875a2.43,2.43,0,0,0-1.936-1.042,6.722,6.722,0,0,0-.51-5.177l-4.077-3.37a2.454,2.454,0,0,0-3.345,3.578,2.42,2.42,0,0,0-.654.084l-2.551.7h0l-2.55.7a2.46,2.46,0,0,0-1.735,1.789l-.268-.641h0l-1.019-2.44a2.455,2.455,0,0,0-4.53,1.892l1.019,2.44h0l.653,1.563a2.461,2.461,0,0,0-1.551,2.156l-.134,2.641h0l-.133,2.642a2.446,2.446,0,0,0,3.156,2.472,2.476,2.476,0,0,0-.2,1.659,2.44,2.44,0,0,0-1.041,1.182l-1.01,2.443h0l-1.01,2.445a8.882,8.882,0,0,1,4.835,3.584,2.461,2.461,0,0,0,3.441-.457l1.607-2.1h0l1.608-2.1a1.6,1.6,0,0,1,2.073-1.353l.421-.29-.583.762h0l-1.607,2.1a2.455,2.455,0,1,0,3.9,2.984l1.607-2.1h0l1.608-2.1c.021-.027.038-.055.057-.083a2.442,2.442,0,0,0,.471.554l-.573.748a2.455,2.455,0,0,0,3.9,2.984l3.215-4.2a2.446,2.446,0,0,0-1.044-3.771c.03,0,.059,0,.089-.008A2.461,2.461,0,0,0,1894.011,1529.533Zm-22.12-2.343.046-.9a2.353,2.353,0,0,0,.914.888l-1.125.776A2.409,2.409,0,0,0,1871.89,1527.191Zm16.542-2.234.48,3.523a2.462,2.462,0,0,0-2.548-1.351,2.423,2.423,0,0,0,.668-.6l1.38-1.8C1888.415,1524.8,1888.421,1524.88,1888.432,1524.956Zm-5.583-9.518.619.511-.637.439A2.418,2.418,0,0,0,1882.848,1515.438Zm.534,7.784a.661.661,0,0,1,.093-1.315l1.934-1.334Zm1.605,4.594a2.472,2.472,0,0,0-1.851-.558l.052-.661a1.26,1.26,0,1,1,1.8,1.219Zm-4.945-9.29a2.46,2.46,0,0,0,.018,2.755c.01.016.023.029.034.044a.539.539,0,1,1-.408-.812,2.448,2.448,0,0,0-.938-1.627l-.008,0Zm-2.444,5.9.947-1.237c-.014.076-.024.154-.031.232l-.179,2.271a2.456,2.456,0,0,0-1.247-.6l.51-.666Zm-4.432,10.375.278-.672a2.434,2.434,0,0,0,.118-1.493c.056-.033.112-.065.167-.1l4.354-3c.028-.019.053-.041.08-.061a2.459,2.459,0,0,0,.277.672l-.775.534a3.709,3.709,0,0,1-3.184,2.411Zm11.55-3.026.136.568a2.426,2.426,0,0,0-.68-.192Zm5.185.573-.189-.791h0l-.036-.151a.622.622,0,1,1,.225.941Zm-14.869-12.646-1.332,1.74h0l-1.607,2.1-.02.03.084-1.665c0-.043,0-.085,0-.127.075-.023.151-.05.225-.081a1.683,1.683,0,0,1,2.65-2Z" transform="translate(-1864.902 -1479.506)" fill="#afcdfb"/>
        <path id="Path_927" data-name="Path 927" d="M1869.63,1368.371l-7.126,0a5.044,5.044,0,0,1-5.026-5.031l.016-49.776a5.041,5.041,0,0,1,5.029-5.027l6.319,0a6.165,6.165,0,0,1,.825,3.109l-.017,56.222Q1869.65,1368.124,1869.63,1368.371Z" transform="translate(-1856.848 -1304.236)" fill="#afcdfb" opacity="0.5"/>
        <path id="Path_928" data-name="Path 928" d="M1883.48,1281.31l-19.131-.006-10.858,0a.979.979,0,0,1-.977-.978v-4.687a.98.98,0,0,1,.978-.977l10.843,0h0l19.145.005a.98.98,0,0,1,.977.978v4.687A.981.981,0,0,1,1883.48,1281.31Z" transform="translate(-1852.513 -1274.657)" fill="#f99746"/>
        <path id="Path_929" data-name="Path 929" d="M1864.348,1281.3l-10.858,0a.979.979,0,0,1-.977-.978v-4.687a.98.98,0,0,1,.978-.977l10.843,0h0a.98.98,0,0,1,.975.978v4.687A.981.981,0,0,1,1864.348,1281.3Z" transform="translate(-1852.513 -1274.657)" fill="#ef7e29"/>
      </g>
    </g>
    <g id="Group_577" data-name="Group 577" transform="translate(1020.222 434.145)">
      <path id="Path_930" data-name="Path 930" d="M2499.239,1733.86a3.309,3.309,0,0,1-3.3,3.3H2480.37a3.3,3.3,0,0,1,0-6.594h15.571A3.307,3.307,0,0,1,2499.239,1733.86Z" transform="translate(-2477.074 -1730.564)" fill="#ef7e29"/>
      <path id="Path_931" data-name="Path 931" d="M2491.206,1733.86a3.307,3.307,0,0,1-3.3,3.3h-7.54a3.3,3.3,0,0,1,0-6.594h7.54A3.306,3.306,0,0,1,2491.206,1733.86Z" transform="translate(-2477.074 -1730.564)" fill="#f99746"/>
      <rect id="Rectangle_54" data-name="Rectangle 54" width="15.787" height="1.04" rx="0.52" transform="translate(3.811 0.731)" fill="#ffe2cc" opacity="0.5"/>
    </g>
    <g id="Group_586" data-name="Group 586" transform="translate(855.952 345.798)">
      <g id="Group_581" data-name="Group 581" transform="translate(6.395)">
        <g id="Group_580" data-name="Group 580">
          <g id="Group_579" data-name="Group 579">
            <path id="Path_932" data-name="Path 932" d="M1271.112,1039.646v46.427a5.2,5.2,0,0,1-5.181,5.181h-27.6a5.118,5.118,0,0,1-2.079-.439,5.2,5.2,0,0,1-3.1-4.742v-46.427a5.2,5.2,0,0,1,5.181-5.181h27.6A5.2,5.2,0,0,1,1271.112,1039.646Z" transform="translate(-1233.156 -1034.466)" fill="#fcecdb"/>
            <path id="Path_933" data-name="Path 933" d="M1410.738,1096.906a5.639,5.639,0,1,1,7.261-3.3A5.639,5.639,0,0,1,1410.738,1096.906Z" transform="translate(-1385.005 -1079.447)" fill="#f7e0cb"/>
            <path id="Path_934" data-name="Path 934" d="M1420.485,1093.609l-10.558-3.965a5.639,5.639,0,0,1,10.558,3.965Z" transform="translate(-1387.491 -1079.447)" fill="#efcbab"/>
            <path id="Path_935" data-name="Path 935" d="M1271.492,1096a5.639,5.639,0,1,1,7.934-.8A5.639,5.639,0,0,1,1271.492,1096Z" transform="translate(-1264.816 -1079.456)" fill="#f7e0cb"/>
            <path id="Path_936" data-name="Path 936" d="M1288.171,1095.2l-8.737-7.132a5.639,5.639,0,1,1,8.737,7.132Z" transform="translate(-1273.561 -1079.456)" fill="#efcbab"/>
            <path id="Path_937" data-name="Path 937" d="M1410.738,1367.944a5.639,5.639,0,1,1,7.261-3.3A5.638,5.638,0,0,1,1410.738,1367.944Z" transform="translate(-1385.005 -1316.086)" fill="#f7e0cb"/>
            <path id="Path_938" data-name="Path 938" d="M1420.485,1367.667l-10.558-3.965a5.639,5.639,0,1,1,10.558,3.965Z" transform="translate(-1387.491 -1318.722)" fill="#efcbab"/>
            <path id="Path_939" data-name="Path 939" d="M1271.492,1367.042a5.639,5.639,0,1,1,7.934-.8A5.639,5.639,0,0,1,1271.492,1367.042Z" transform="translate(-1264.816 -1316.094)" fill="#f7e0cb"/>
            <path id="Path_940" data-name="Path 940" d="M1288.171,1369.259l-8.737-7.132a5.639,5.639,0,1,1,8.737,7.132Z" transform="translate(-1273.561 -1318.731)" fill="#efcbab"/>
            <g id="Group_578" data-name="Group 578" transform="translate(22.074 24.379)">
              <path id="Path_941" data-name="Path 941" d="M1415.136,1237.29a5.639,5.639,0,1,1,2.681-7.511A5.639,5.639,0,0,1,1415.136,1237.29Z" transform="translate(-1407.081 -1226.554)" fill="#f7e0cb"/>
              <path id="Path_942" data-name="Path 942" d="M1417.817,1229.779l-10.191,4.83a5.639,5.639,0,0,1,10.191-4.83Z" transform="translate(-1407.081 -1226.554)" fill="#efcbab"/>
            </g>
            <path id="Path_943" data-name="Path 943" d="M1269.816,1230.1a5.639,5.639,0,1,1,3.14,7.331A5.639,5.639,0,0,1,1269.816,1230.1Z" transform="translate(-1264.809 -1202.172)" fill="#f7e0cb"/>
            <path id="Path_944" data-name="Path 944" d="M1297.343,1240.215l4.191-10.471a5.639,5.639,0,0,1-4.191,10.471Z" transform="translate(-1289.197 -1204.96)" fill="#efcbab"/>
          </g>
        </g>
        <path id="Path_945" data-name="Path 945" d="M1312.816,1125.346v40.4a4.812,4.812,0,0,1-4.74,4.853h-25.251a4.594,4.594,0,0,1-1.9-.411v-39.25a5.639,5.639,0,0,1,1.737-4.08,5.485,5.485,0,0,1,1.334-.944,5.31,5.31,0,0,1,2.391-.568Z" transform="translate(-1274.859 -1113.812)" fill="#efcbab" opacity="0.5"/>
      </g>
      <g id="Group_584" data-name="Group 584" transform="translate(13.358 11.795)">
        <g id="Group_583" data-name="Group 583" transform="translate(0 0)">
          <rect id="Rectangle_55" data-name="Rectangle 55" width="56.788" height="37.957" rx="18.978" transform="translate(37.957 0) rotate(90)" fill="#fcecdb"/>
          <path id="Path_946" data-name="Path 946" d="M1465.606,1189.844a5.639,5.639,0,1,1,7.261-3.3A5.639,5.639,0,0,1,1465.606,1189.844Z" transform="translate(-1439.873 -1172.385)" fill="#f7e0cb"/>
          <path id="Path_947" data-name="Path 947" d="M1475.354,1186.547l-10.558-3.964a5.639,5.639,0,1,1,10.558,3.964Z" transform="translate(-1442.36 -1172.385)" fill="#efcbab"/>
          <path id="Path_948" data-name="Path 948" d="M1326.361,1188.942a5.639,5.639,0,1,1,7.934-.8A5.639,5.639,0,0,1,1326.361,1188.942Z" transform="translate(-1319.685 -1172.394)" fill="#f7e0cb"/>
          <path id="Path_949" data-name="Path 949" d="M1343.039,1188.14l-8.737-7.132a5.639,5.639,0,0,1,8.737,7.132Z" transform="translate(-1328.429 -1172.394)" fill="#efcbab"/>
          <path id="Path_950" data-name="Path 950" d="M1465.606,1460.883a5.639,5.639,0,1,1,7.261-3.3A5.639,5.639,0,0,1,1465.606,1460.883Z" transform="translate(-1439.873 -1409.024)" fill="#f7e0cb"/>
          <path id="Path_951" data-name="Path 951" d="M1475.354,1460.6l-10.558-3.965a5.639,5.639,0,1,1,10.558,3.965Z" transform="translate(-1442.36 -1411.66)" fill="#efcbab"/>
          <circle id="Ellipse_15" data-name="Ellipse 15" cx="5.639" cy="5.639" r="5.639" transform="translate(2.79 49.419) rotate(-65.857)" fill="#f7e0cb"/>
          <path id="Path_952" data-name="Path 952" d="M1343.039,1462.2l-8.737-7.132a5.639,5.639,0,0,1,8.737,7.132Z" transform="translate(-1328.429 -1411.669)" fill="#efcbab"/>
          <g id="Group_582" data-name="Group 582" transform="translate(22.074 24.38)">
            <path id="Path_953" data-name="Path 953" d="M1470,1330.228a5.639,5.639,0,1,1,2.681-7.511A5.638,5.638,0,0,1,1470,1330.228Z" transform="translate(-1461.949 -1319.492)" fill="#f7e0cb"/>
            <path id="Path_954" data-name="Path 954" d="M1472.685,1322.717l-10.191,4.83a5.639,5.639,0,1,1,10.191-4.83Z" transform="translate(-1461.949 -1319.492)" fill="#efcbab"/>
          </g>
          <path id="Path_955" data-name="Path 955" d="M1324.684,1323.035a5.639,5.639,0,1,1,3.14,7.331A5.639,5.639,0,0,1,1324.684,1323.035Z" transform="translate(-1319.677 -1295.11)" fill="#f7e0cb"/>
          <path id="Path_956" data-name="Path 956" d="M1352.211,1333.155l4.191-10.471a5.639,5.639,0,1,1-4.191,10.471Z" transform="translate(-1344.065 -1297.899)" fill="#efcbab"/>
        </g>
      </g>
      <g id="Group_585" data-name="Group 585" transform="translate(0 30.314)">
        <rect id="Rectangle_56" data-name="Rectangle 56" width="43.341" height="64.682" transform="translate(3.702 0)" fill="#ef7e29"/>
        <rect id="Rectangle_57" data-name="Rectangle 57" width="43.341" height="64.682" transform="translate(9.739)" fill="#f99746"/>
        <path id="Path_957" data-name="Path 957" d="M1217.979,1277.069l-2.077,3.23h-3.96v-6.983h6.037Z" transform="translate(-1208.24 -1273.315)" fill="#d8661a"/>
        <path id="Path_958" data-name="Path 958" d="M1188.809,1278.411h-6.037l3.7-5.1h6.037Z" transform="translate(-1182.772 -1273.315)" fill="#f99746"/>
        <path id="Path_959" data-name="Path 959" d="M1281.863,1358.479H1259.51v-61.941l22.354,2.148Z" transform="translate(-1249.77 -1293.59)" fill="#efcbab" opacity="0.5"/>
        <path id="Path_960" data-name="Path 960" d="M1302.851,1278.408l-3.517,1.888H1261.6l-2.089-3.23v-3.754Z" transform="translate(-1249.77 -1273.312)" fill="#ef7e29"/>
        <path id="Path_961" data-name="Path 961" d="M1305.909,1278.411h-43.341l-3.062-5.1h43.341Z" transform="translate(-1249.767 -1273.315)" fill="#f99746"/>
      </g>
    </g>
    <g id="Group_590" data-name="Group 590" transform="translate(761.576 334.441)">
      <path id="Path_962" data-name="Path 962" d="M814.989,1120.3a4.517,4.517,0,0,0-8.143-1.079,4.091,4.091,0,0,0-.609,2.053c-.11,4.319,8.407,21.036,9.538,22.515,2.058,2.692,14.482,9.166,14.482,9.166l2.64-.385a19.563,19.563,0,0,1-3.038-2.481c-3.192-3.187-7.846-8.368-8.7-9.085C819.7,1139.769,817.167,1127.29,814.989,1120.3Z" transform="translate(-759.649 -1095.253)" fill="#ed985f"/>
      <g id="Group_589" data-name="Group 589" transform="translate(66.163 59.124)">
        <g id="Group_588" data-name="Group 588">
          <path id="Rectangle_58" data-name="Rectangle 58" d="M23.539,0H45.9A23.538,23.538,0,0,1,69.44,23.538v0A23.538,23.538,0,0,1,45.9,47.077H23.539A23.539,23.539,0,0,1,0,23.539v0A23.539,23.539,0,0,1,23.539,0Z" fill="#fcecdb"/>
          <path id="Path_963" data-name="Path 963" d="M1036.835,1465.247a6.867,6.867,0,0,1-8.879,4.089,7.024,7.024,0,0,1-4.032-9.006,6.868,6.868,0,0,1,8.879-4.089A7.025,7.025,0,0,1,1036.835,1465.247Z" transform="translate(-1015.486 -1450.086)" fill="#f7e0cb"/>
          <path id="Path_964" data-name="Path 964" d="M1032.8,1456.241l-4.848,13.1a7.024,7.024,0,0,1-4.032-9.006A6.868,6.868,0,0,1,1032.8,1456.241Z" transform="translate(-1015.486 -1450.086)" fill="#efcbab"/>
          <path id="Path_965" data-name="Path 965" d="M1035.732,1637.976a6.829,6.829,0,0,1-9.7.995,7.062,7.062,0,0,1-.981-9.841,6.83,6.83,0,0,1,9.7-1A7.063,7.063,0,0,1,1035.732,1637.976Z" transform="translate(-1015.497 -1599.178)" fill="#f7e0cb"/>
          <path id="Path_966" data-name="Path 966" d="M1034.751,1628.135l-8.721,10.836a7.062,7.062,0,0,1-.981-9.841A6.83,6.83,0,0,1,1034.751,1628.135Z" transform="translate(-1015.497 -1599.178)" fill="#efcbab"/>
          <path id="Path_967" data-name="Path 967" d="M1368.26,1465.247a6.867,6.867,0,0,1-8.879,4.089,7.023,7.023,0,0,1-4.031-9.006,6.868,6.868,0,0,1,8.879-4.089A7.025,7.025,0,0,1,1368.26,1465.247Z" transform="translate(-1304.847 -1450.086)" fill="#f7e0cb"/>
          <path id="Path_968" data-name="Path 968" d="M1364.241,1456.241l-4.848,13.1a7.023,7.023,0,0,1-4.031-9.006A6.868,6.868,0,0,1,1364.241,1456.241Z" transform="translate(-1304.859 -1450.086)" fill="#efcbab"/>
          <path id="Path_969" data-name="Path 969" d="M1367.157,1637.972a6.825,6.825,0,0,1-9.393,1.234c-.1-.074-.207-.155-.309-.239a7.062,7.062,0,0,1-.981-9.841,6.828,6.828,0,0,1,9.7-.995c.1.084.2.168.293.257A7.065,7.065,0,0,1,1367.157,1637.972Z" transform="translate(-1304.859 -1599.175)" fill="#f7e0cb"/>
          <path id="Path_970" data-name="Path 970" d="M1366.469,1628.388l-8.705,10.818c-.1-.074-.207-.155-.309-.239a7.062,7.062,0,0,1-.981-9.841,6.828,6.828,0,0,1,9.7-.995C1366.276,1628.216,1366.373,1628.3,1366.469,1628.388Z" transform="translate(-1304.859 -1599.175)" fill="#efcbab"/>
          <g id="Group_587" data-name="Group 587" transform="translate(29.811 5.707)">
            <path id="Path_971" data-name="Path 971" d="M1208.5,1459.8a7.038,7.038,0,0,1-3.278,9.316,6.853,6.853,0,0,1-9.184-3.325,7.039,7.039,0,0,1,3.278-9.316A6.855,6.855,0,0,1,1208.5,1459.8Z" transform="translate(-1195.369 -1455.795)" fill="#f7e0cb"/>
            <path id="Path_972" data-name="Path 972" d="M1199.312,1461.116l5.906,12.641a6.853,6.853,0,0,1-9.184-3.325A7.039,7.039,0,0,1,1199.312,1461.116Z" transform="translate(-1195.369 -1460.441)" fill="#efcbab"/>
          </g>
          <path id="Path_973" data-name="Path 973" d="M1199.7,1640.032a7.027,7.027,0,0,1-3.839-9.092,6.863,6.863,0,0,1,8.964-3.895,7.029,7.029,0,0,1,3.839,9.092A6.864,6.864,0,0,1,1199.7,1640.032Z" transform="translate(-1165.554 -1599.164)" fill="#f7e0cb"/>
          <path id="Path_974" data-name="Path 974" d="M1212.074,1636.137l-12.8-5.2a6.863,6.863,0,0,1,8.964-3.895A7.029,7.029,0,0,1,1212.074,1636.137Z" transform="translate(-1168.964 -1599.164)" fill="#efcbab"/>
        </g>
      </g>
      <path id="Path_975" data-name="Path 975" d="M847.009,975.3c.069-.277-6.027,2.755-6.336,3.1-2.859,3.171-2.044,7.31-.408,7.349,1.049.026.846,1.769.846,1.769l11.688-4.944S851.392,974.367,847.009,975.3Z" transform="translate(-788.063 -971.388)" fill="#b5453c"/>
      <path id="Path_976" data-name="Path 976" d="M802.8,949.533s.418-4.553-4.669-4.553a5.973,5.973,0,0,1,2.339,1.255,6.015,6.015,0,0,0-6.776,1.022c-3.531,2.927-1.337,10.268-2.411,11.661s-5.255,1.672-4.744,6.179,13.271,10.151,12.451,13.88c0,0,5-7.351,1.425-10.705a6.626,6.626,0,0,1,1.92,3.593s.473-3.81-1.951-5.028c-2.145-1.078-3.9-5.022-3.717-5.727S802.8,949.533,802.8,949.533Z" transform="translate(-742.411 -944.98)" fill="#b5453c"/>
      <path id="Path_977" data-name="Path 977" d="M604.2,1317.457l-2.529-.372a29.9,29.9,0,0,1-9.77-19.368,22.538,22.538,0,0,1-.06-3.9.683.683,0,0,0-.088-.43l0,0c-.272-.417-.95-1.462-1.867-2.949-.9-1.464-2.451-4.234-4.153-7.341-3.066-5.6-6.636-12.287-7.861-14.419-3.9-6.793-2.021-11.361-2.021-11.361s10.885-1.076,13.867-3.685l1.074,1.656s2.358,10.44,2.247,10.489l.354,1.084a181.549,181.549,0,0,1,5.169,18.772,31.042,31.042,0,0,1,.817,8.11,14.235,14.235,0,0,0,.192,2.97C600.625,1304.2,604.2,1317.457,604.2,1317.457Z" transform="translate(-558.108 -1214.456)" fill="#2b478b"/>
      <path id="Path_978" data-name="Path 978" d="M771.183,1741.363H760.631a5.794,5.794,0,0,1,.3-2.828c.528-1.171,1.281-1.208.1-3.043.67.69,2.826.976,4.351.771a12.928,12.928,0,0,0,1.829,2.785C767.9,1739.543,770.971,1739.366,771.183,1741.363Z" transform="translate(-719.782 -1635.162)" fill="#233862"/>
      <path id="Path_979" data-name="Path 979" d="M593.393,1266.858c-.922,5.084-3.1,13.544-7.66,16.237-3.066-5.6-6.636-12.287-7.861-14.419-3.9-6.793-2.021-11.361-2.021-11.361s10.885-1.076,13.867-3.685l1.074,1.656s2.358,10.44,2.247,10.489Z" transform="translate(-558.108 -1214.456)" fill="#233862"/>
      <path id="Path_980" data-name="Path 980" d="M476.677,1242.952l.036-1.974c-3.932.5-13.558-4.7-13.558-4.7s-4.114,2.736-4.677,10.55c-.275,3.814-2.014,19.943-2.206,24.759-.07,1.745-.093,2.991-.1,3.489a.011.011,0,0,1,0,0,.687.687,0,0,1-.167.406,22.519,22.519,0,0,0-2.131,3.266c-6,11.163-2.862,26.332-2.862,26.332l1.393-.354s5.073-15.724,8.389-22.526a14.23,14.23,0,0,1,1.5-2.57,31.036,31.036,0,0,0,3.857-7.181,187.721,187.721,0,0,0,6.523-19.55C472.8,1252.926,476.677,1242.952,476.677,1242.952Z" transform="translate(-448.792 -1199.308)" fill="#2b478b"/>
      <path id="Path_981" data-name="Path 981" d="M815.528,1080.861c-6.428-1.475-2.321-10.508-1.949-10.349.891-.181,2.847-1.745,4.6-4.8l.236.205,3.948,3.461s-.913,1.346-1.68,2.665a6.021,6.021,0,0,0-1.029,2.4C819.969,1074.693,817.243,1081.255,815.528,1080.861Z" transform="translate(-764.633 -1050.39)" fill="#ffb27d"/>
      <path id="Path_982" data-name="Path 982" d="M835.85,1132.2a32.393,32.393,0,0,1,1.733,4.162c.6,1.932,2.112,8.077,2.112,8.077s-3.111,3.551-7.44,3.343c0,0-2.327-3.643-1.507-6.933S835.85,1132.2,835.85,1132.2Z" transform="translate(-780.897 -1108.441)" fill="#91cecf"/>
      <path id="Path_983" data-name="Path 983" d="M866.342,1070.8s-.913,1.344-1.68,2.665c-2.455-1.513-2.457-4.552-2.268-6.126Z" transform="translate(-808.615 -1051.807)" fill="#ed985f"/>
      <path id="Path_984" data-name="Path 984" d="M865.326,1023.985s-5.96-3.316-3.838-7,2.783-6.586,6.678-4.624,3.818,3.789,3.408,5.189S866.931,1024.753,865.326,1023.985Z" transform="translate(-807.49 -1003.261)" fill="#ffb27d"/>
      <path id="Path_985" data-name="Path 985" d="M868.271,1011.978c-.273-1.634-1.1-1.79-1.682-1.681a4.767,4.767,0,0,0-5.8-2.219,8.115,8.115,0,0,1-4.7,2.821s.692,1.287,3.541,2.083a4.87,4.87,0,0,0,2.811-.225,15.912,15.912,0,0,1-4.044,1.524c3.755.344,7.328-3.089,7.7-3.457a5.344,5.344,0,0,1,.3,2.46c-.247,1.107-1.229,3.111-.63,3.37C865.767,1016.657,868.68,1014.429,868.271,1011.978Z" transform="translate(-803.18 -999.832)" fill="#b5453c"/>
      <path id="Path_986" data-name="Path 986" d="M449.78,1740.84H439.228a5.8,5.8,0,0,1,.3-2.828c.528-1.171,1.355-1.7,1.157-3.119a3.8,3.8,0,0,0,3.289,1.258,11.579,11.579,0,0,0,1.831,2.374C446.493,1739.019,449.568,1738.843,449.78,1740.84Z" transform="translate(-439.17 -1634.638)" fill="#233862"/>
      <path id="Path_987" data-name="Path 987" d="M530.187,1112.011a25.66,25.66,0,0,1-5.212.945c-2.775.3-5.64.509-7.14,1.109a9.526,9.526,0,0,0-2,1.093v0a.6.6,0,0,0-.059.044,6.435,6.435,0,0,0-.827.714,4.523,4.523,0,0,0-.968,1.437c-.55,1.359.179,5.129.645,7.189a1.872,1.872,0,0,1-.958,2.077q-1.582.818-3.111,1.51l-.161.072c.01-.21.013-.418.013-.621a19.181,19.181,0,0,0-.179-2.6,10.909,10.909,0,0,1-2.077,4.177c-14.161,5.682-24.054,3.212-23.892.382.559-9.828,7.186-18.187,7.186-18.187,12.36-14.374,37.363-18.157,37.363-18.157s1.2-.144,2.642,1.592c2.079,2.5,2.182,3.154,2.182,3.154S534.182,1110.617,530.187,1112.011Z" transform="translate(-478.536 -1074.379)" fill="#abddda"/>
      <path id="Path_988" data-name="Path 988" d="M755.536,1146.107c-2.774.3-5.639.51-7.14,1.109a29.259,29.259,0,0,1,3.711-16.057S754.929,1142.639,755.536,1146.107Z" transform="translate(-709.098 -1107.53)" fill="#91cecf"/>
      <path id="Path_989" data-name="Path 989" d="M776.14,1117.19s-6.954.687-7.512,5.205,6.667,22.923,7.7,24.589c1.884,3.034,12.975,13.434,12.975,13.434l2.044-1.239s-7.867-13.318-9.085-14.564C780.351,1142.657,778.494,1118.755,776.14,1117.19Z" transform="translate(-726.788 -1095.333)" fill="#ffb27d"/>
      <path id="Path_990" data-name="Path 990" d="M774.67,1121.416s.714-11.65-8.2-8.833,1.384,22.855,1.384,22.855,5.234-.258,7.09-4.825Z" transform="translate(-721.755 -1090.927)" fill="#abddda"/>
      <path id="Path_991" data-name="Path 991" d="M693.157,1280.9a1.872,1.872,0,0,1-.958,2.077q-1.582.818-3.111,1.51c-.054-.174-.1-.356-.147-.549a9.558,9.558,0,0,1-.178-2.6c.236-4.35,3.2-7.645,4.717-9.06a4.527,4.527,0,0,0-.968,1.437C691.961,1275.068,692.69,1278.837,693.157,1280.9Z" transform="translate(-657.068 -1230.733)" fill="#91cecf"/>
      <path id="Path_992" data-name="Path 992" d="M835.284,1084.044s1.089-1.376,1.824-1.332c0,0,2.976,4.166,3,6.077C840.108,1088.789,836.4,1083.85,835.284,1084.044Z" transform="translate(-785.01 -1065.23)" fill="#91cecf"/>
      <path id="Path_993" data-name="Path 993" d="M1001.259,1397.4s-1.582.028-1.924-.021a10.152,10.152,0,0,0-1.234-.21,5.261,5.261,0,0,0-1.266.213.948.948,0,0,1-.188.018h-2.624a1.57,1.57,0,0,1-.551-.589c-.124-.2-.141-.678-.425-.836-1.589-.887,2.64-.385,2.64-.385a16.364,16.364,0,0,1,2.9.135A28.942,28.942,0,0,1,1001.259,1397.4Z" transform="translate(-922.438 -1338.275)" fill="#ed985f"/>
      <path id="Path_994" data-name="Path 994" d="M1002.907,1403.269a12.2,12.2,0,0,1,2.049.764l.462.292s.267-.3-.154-.63a2.024,2.024,0,0,1-.856-1.274C1004.388,1401.834,1002.57,1402.346,1002.907,1403.269Z" transform="translate(-931.323 -1344.145)" fill="#ed985f"/>
      <path id="Path_995" data-name="Path 995" d="M931.633,1447.506a6.456,6.456,0,0,0,2.027,1.239c.876.216,1.871,2.724,2.03,3.082s-.836-.159-1.234-.769-.67-.849-.786-.717a4.675,4.675,0,0,0,.733,2.733c.663.929,1.061,1.751.584,1.7s-3.317-.743-3.9-2.468-.156-1.785-1.5-3.559S931.633,1447.506,931.633,1447.506Z" transform="translate(-867.071 -1383.66)" fill="#ffb27d"/>
    </g>
    <g id="Group_593" data-name="Group 593" transform="translate(914.966 424.531)">
      <g id="Group_591" data-name="Group 591" transform="translate(13.765 8.777)">
        <path id="Path_996" data-name="Path 996" d="M1780.617,1727.6a3.644,3.644,0,0,1-3.632,3.632h-17.148a3.631,3.631,0,0,1,0-7.262h17.148A3.642,3.642,0,0,1,1780.617,1727.6Z" transform="translate(-1756.207 -1723.966)" fill="#2b478b"/>
        <path id="Path_997" data-name="Path 997" d="M1771.771,1727.6a3.643,3.643,0,0,1-3.631,3.632h-8.3a3.631,3.631,0,0,1,0-7.262h8.3A3.641,3.641,0,0,1,1771.771,1727.6Z" transform="translate(-1756.207 -1723.966)" fill="#699ff0"/>
        <rect id="Rectangle_59" data-name="Rectangle 59" width="17.386" height="1.145" rx="0.573" transform="translate(4.198 0.805)" fill="#e9f3fe" opacity="0.4"/>
      </g>
      <g id="Group_592" data-name="Group 592">
        <path id="Path_998" data-name="Path 998" d="M1671.293,1656.934a3.864,3.864,0,0,1-1.717,5.167l-16.254,8.145a3.849,3.849,0,0,1-3.449-6.883l16.254-8.145A3.861,3.861,0,0,1,1671.293,1656.934Z" transform="translate(-1647.75 -1654.812)" fill="#ef7e29"/>
        <path id="Path_999" data-name="Path 999" d="M1662.908,1690.038a3.86,3.86,0,0,1-1.716,5.166l-7.87,3.944a3.849,3.849,0,0,1-3.449-6.883l7.87-3.944A3.86,3.86,0,0,1,1662.908,1690.038Z" transform="translate(-1647.75 -1683.714)" fill="#f99746"/>
        <path id="Path_1000" data-name="Path 1000" d="M1689.541,1663.625l-15.5,7.769a.547.547,0,0,1-.732-.243l-.055-.11a.547.547,0,0,1,.243-.732l15.5-7.769a.547.547,0,0,1,.732.243l.055.11A.547.547,0,0,1,1689.541,1663.625Z" transform="translate(-1669.964 -1661.508)" fill="#ffe2cc" opacity="0.5"/>
      </g>
    </g>
  </g>
</svg>
