<svg xmlns="http://www.w3.org/2000/svg" width="24.146" height="23.527" viewBox="0 0 24.146 23.527">
  <g id="Group_637" data-name="Group 637" transform="translate(-136.958 -151.892)">
    <path id="Path_1016" data-name="Path 1016" d="M158.5,153.315h-.215a1.79,1.79,0,0,0-3.5,0h-1.619a1.79,1.79,0,0,0-3.5,0h-1.618a1.79,1.79,0,0,0-3.5,0h-1.253a1.79,1.79,0,0,0-3.5,0h-.213a2.609,2.609,0,0,0-2.607,2.607v16.89a2.61,2.61,0,0,0,2.607,2.608H158.5a2.61,2.61,0,0,0,2.607-2.608v-16.89A2.609,2.609,0,0,0,158.5,153.315Zm-1.966-.692a1.058,1.058,0,0,1,.99.692h-1.978A1.056,1.056,0,0,1,156.532,152.623Zm-5.123,0a1.054,1.054,0,0,1,.989.692H150.42A1.058,1.058,0,0,1,151.409,152.623Zm-5.122,0a1.058,1.058,0,0,1,.99.692H145.3A1.057,1.057,0,0,1,146.287,152.623Zm-4.757,0a1.056,1.056,0,0,1,.99.692h-1.978A1.056,1.056,0,0,1,141.53,152.623Zm-1.965,1.424h.213a1.793,1.793,0,0,0,1.752,1.424.366.366,0,1,0,0-.732,1.056,1.056,0,0,1-.989-.692h3.994a1.793,1.793,0,0,0,1.752,1.424.366.366,0,0,0,0-.732,1.057,1.057,0,0,1-.99-.692h4.359a1.8,1.8,0,0,0,1.753,1.424.366.366,0,1,0,0-.732,1.058,1.058,0,0,1-.99-.692h4.36a1.792,1.792,0,0,0,1.752,1.424.366.366,0,1,0,0-.732,1.057,1.057,0,0,1-.99-.692H158.5a1.877,1.877,0,0,1,1.875,1.875v.654H137.69v-.654A1.877,1.877,0,0,1,139.565,154.047Zm18.933,20.64H139.565a1.877,1.877,0,0,1-1.875-1.876v-15.5h22.683v15.5A1.877,1.877,0,0,1,158.5,174.687Z" transform="translate(0)" fill="#5dbece"/>
    <path id="Path_1017" data-name="Path 1017" d="M142.419,159.649H141.27a1.466,1.466,0,0,0-1.463,1.464v1.148a1.466,1.466,0,0,0,1.463,1.465h1.149a1.466,1.466,0,0,0,1.464-1.465v-1.148A1.466,1.466,0,0,0,142.419,159.649Zm.732,2.612a.732.732,0,0,1-.732.732H141.27a.732.732,0,0,1-.731-.732v-1.148a.732.732,0,0,1,.731-.732h1.149a.732.732,0,0,1,.732.732Z" transform="translate(0.222 0.605)" fill="#5dbece"/>
    <path id="Path_1018" data-name="Path 1018" d="M154.191,163.726h1.149a1.466,1.466,0,0,0,1.464-1.465v-1.148a1.466,1.466,0,0,0-1.464-1.464h-1.149a1.466,1.466,0,0,0-1.463,1.464v1.148A1.466,1.466,0,0,0,154.191,163.726Zm-.731-2.613a.732.732,0,0,1,.731-.732h1.149a.733.733,0,0,1,.732.732v1.148a.733.733,0,0,1-.732.732h-1.149a.732.732,0,0,1-.731-.732Z" transform="translate(1.23 0.605)" fill="#5dbece"/>
    <path id="Path_1019" data-name="Path 1019" d="M148.879,159.649h-1.148a1.466,1.466,0,0,0-1.463,1.464v1.148a1.466,1.466,0,0,0,1.463,1.465h1.148a1.465,1.465,0,0,0,1.464-1.465v-1.148A1.465,1.465,0,0,0,148.879,159.649Zm.732,2.612a.732.732,0,0,1-.732.732h-1.148a.733.733,0,0,1-.732-.732v-1.148a.733.733,0,0,1,.732-.732h1.148a.732.732,0,0,1,.732.732Z" transform="translate(0.726 0.605)" fill="#5dbece"/>
    <path id="Path_1020" data-name="Path 1020" d="M142.419,166.3H141.27a1.465,1.465,0,0,0-1.463,1.464v1.15a1.464,1.464,0,0,0,1.463,1.462h1.149a1.464,1.464,0,0,0,1.464-1.462v-1.15A1.465,1.465,0,0,0,142.419,166.3Zm.732,2.614a.732.732,0,0,1-.732.73H141.27a.731.731,0,0,1-.731-.73v-1.15a.732.732,0,0,1,.731-.732h1.149a.732.732,0,0,1,.732.732Z" transform="translate(0.222 1.123)" fill="#5dbece"/>
    <path id="Path_1021" data-name="Path 1021" d="M148.879,166.3h-1.148a1.465,1.465,0,0,0-1.463,1.464v1.15a1.464,1.464,0,0,0,1.463,1.462h1.148a1.463,1.463,0,0,0,1.464-1.462v-1.15A1.465,1.465,0,0,0,148.879,166.3Zm.732,2.614a.732.732,0,0,1-.732.73h-1.148a.732.732,0,0,1-.732-.73v-1.15a.733.733,0,0,1,.732-.732h1.148a.732.732,0,0,1,.732.732Z" transform="translate(0.726 1.123)" fill="#5dbece"/>
    <path id="Path_1022" data-name="Path 1022" d="M157.836,167.057,156,166.79l-.819-1.659a.366.366,0,0,0-.656,0l-.819,1.659-1.831.267a.366.366,0,0,0-.2.623L153,168.974l-.313,1.825a.366.366,0,0,0,.53.385l1.639-.86,1.638.86a.373.373,0,0,0,.17.043.366.366,0,0,0,.216-.071.362.362,0,0,0,.146-.357l-.313-1.825,1.325-1.294a.365.365,0,0,0-.2-.623Zm-1.771,1.526a.366.366,0,0,0-.1.324l.22,1.284-1.153-.607a.364.364,0,0,0-.34,0l-1.152.607.219-1.284a.366.366,0,0,0-.1-.324l-.932-.909,1.288-.188a.364.364,0,0,0,.275-.2l.577-1.166.577,1.166a.368.368,0,0,0,.276.2l1.289.188Z" transform="translate(1.139 1.016)" fill="#5dbece"/>
  </g>
</svg>
