<svg xmlns="http://www.w3.org/2000/svg" width="22.986" height="23" viewBox="0 0 22.986 23">
  <g id="Group_640" data-name="Group 640" transform="translate(-495.065 -248.274)">
    <g id="Group_625" data-name="Group 625" transform="translate(495.065 248.274)">
      <path id="Path_1023" data-name="Path 1023" d="M506.552,248.274a11.465,11.465,0,0,0-11.487,11.018.346.346,0,0,0,.347.362h4.507a.376.376,0,0,1,.374.376V265.7a.374.374,0,0,1-.374.373H497.6a.349.349,0,0,0-.28.558,11.5,11.5,0,1,0,9.23-18.359Zm0,22.3a10.7,10.7,0,0,1-8.229-3.8h1.6a1.073,1.073,0,0,0,1.071-1.071V260.03a1.072,1.072,0,0,0-1.071-1.072h-4.138a10.8,10.8,0,1,1,10.77,11.618Z" transform="translate(-495.065 -248.274)" fill="#5dbece"/>
    </g>
    <g id="Group_626" data-name="Group 626" transform="translate(501.869 251.439)">
      <path id="Path_1024" data-name="Path 1024" d="M513.069,259.57a1.856,1.856,0,0,0,.4-1.216,1.58,1.58,0,0,0-1.481-1.626h-3.907a7.983,7.983,0,0,0,.146-2.334c-.159-1.768-1.014-2.987-2.132-3.032a2.608,2.608,0,0,0-1.417.214.347.347,0,0,0-.159.367,8.4,8.4,0,0,1,.207,2.646,9.489,9.489,0,0,1-1.774,2.774c-.706.868-1.263,1.552-1.263,2.167v6.177a.985.985,0,0,0,.984.985h8.055a.759.759,0,0,0,.121-.009,3.463,3.463,0,0,0,2.274-4.749,1.768,1.768,0,0,0,.452-1.177A1.535,1.535,0,0,0,513.069,259.57Zm-.62,2.043a.348.348,0,0,0-.047.517,1.06,1.06,0,0,1,.291.729,1.071,1.071,0,0,1-.846,1.041.349.349,0,0,0-.233.508,1.065,1.065,0,0,1-.844,1.581.259.259,0,0,1-.039,0h-8.055a.286.286,0,0,1-.286-.286V259.53c0-.367.562-1.06,1.107-1.728a9.992,9.992,0,0,0,1.9-3,7.722,7.722,0,0,0-.129-2.693,3.421,3.421,0,0,1,.808-.049c.726.029,1.342,1.038,1.464,2.4a7.26,7.26,0,0,1-.231,2.525.349.349,0,0,0,.336.444h4.35a.9.9,0,0,1,.783.929c0,.69-.38.908-.456.922a.349.349,0,0,0,.006.7c.233,0,.556.273.556.783A1.058,1.058,0,0,1,512.449,261.613Z" transform="translate(-501.692 -251.357)" fill="#5dbece"/>
    </g>
    <g id="Group_627" data-name="Group 627" transform="translate(498.671 264.582)">
      <path id="Path_1025" data-name="Path 1025" d="M499.25,264.494a.337.337,0,1,0-.337.338A.338.338,0,0,0,499.25,264.494Z" transform="translate(-498.577 -264.157)" fill="#5dbece"/>
    </g>
  </g>
</svg>
