<svg xmlns="http://www.w3.org/2000/svg" width="18.782" height="18.782" viewBox="0 0 18.782 18.782">
  <g id="Group_642" data-name="Group 642" transform="translate(-324.386 -654.189)">
    <g id="Group_629" data-name="Group 629" transform="translate(324.386 654.189)">
      <path id="Path_1026" data-name="Path 1026" d="M342.171,654.189a1,1,0,0,0-1,1v2.052h-14.8v-2.052a1,1,0,0,0-1.992,0v17.5a.285.285,0,0,0,.285.285h1.422a.285.285,0,0,0,.285-.285v-4.126h14.8v4.126a.286.286,0,0,0,.284.285h1.423a.285.285,0,0,0,.285-.285v-17.5A1,1,0,0,0,342.171,654.189Zm-1,3.616v8.762h-14.8v-8.762Zm1.424,14.6h-.854v-4.125a.285.285,0,0,0-.285-.285H326.093a.285.285,0,0,0-.284.285V672.4h-.854V655.184a.427.427,0,0,1,.854,0v11.668a.285.285,0,0,0,.284.285H341.46a.285.285,0,0,0,.285-.285V655.184a.427.427,0,0,1,.854,0Z" transform="translate(-324.386 -654.189)" fill="#5dbece"/>
    </g>
    <g id="Group_630" data-name="Group 630" transform="translate(328.37 658.63)">
      <path id="Path_1027" data-name="Path 1027" d="M329.422,666.6a.285.285,0,0,0,.285-.284v-6.546a.285.285,0,0,0-.569,0v6.546A.285.285,0,0,0,329.422,666.6Z" transform="translate(-329.138 -659.485)" fill="#5dbece"/>
    </g>
    <g id="Group_631" data-name="Group 631" transform="translate(330.931 658.63)">
      <path id="Path_1028" data-name="Path 1028" d="M332.477,666.6a.285.285,0,0,0,.284-.284v-6.546a.285.285,0,0,0-.569,0v6.546A.285.285,0,0,0,332.477,666.6Z" transform="translate(-332.192 -659.485)" fill="#5dbece"/>
    </g>
    <g id="Group_632" data-name="Group 632" transform="translate(333.493 658.63)">
      <path id="Path_1029" data-name="Path 1029" d="M335.532,666.6a.284.284,0,0,0,.283-.284v-6.546a.284.284,0,1,0-.568,0v6.546A.285.285,0,0,0,335.532,666.6Z" transform="translate(-335.247 -659.485)" fill="#5dbece"/>
    </g>
    <g id="Group_633" data-name="Group 633" transform="translate(336.054 658.63)">
      <path id="Path_1030" data-name="Path 1030" d="M338.586,666.6a.285.285,0,0,0,.284-.284v-6.546a.284.284,0,1,0-.568,0v6.546A.284.284,0,0,0,338.586,666.6Z" transform="translate(-338.302 -659.485)" fill="#5dbece"/>
    </g>
    <g id="Group_634" data-name="Group 634" transform="translate(338.615 658.63)">
      <path id="Path_1031" data-name="Path 1031" d="M341.64,666.6a.285.285,0,0,0,.285-.284v-6.546a.285.285,0,0,0-.569,0v6.546A.285.285,0,0,0,341.64,666.6Z" transform="translate(-341.356 -659.485)" fill="#5dbece"/>
    </g>
  </g>
</svg>
