<svg xmlns="http://www.w3.org/2000/svg" width="22.869" height="19.381" viewBox="0 0 22.869 19.381">
  <g id="Group_641" data-name="Group 641" transform="translate(22.869) rotate(90)">
    <g id="Group_609" data-name="Group 609" transform="translate(0 0)">
      <path id="Path_1003" data-name="Path 1003" d="M19.377,19.176a.347.347,0,0,1-.018.092l-.011.033a.347.347,0,0,1-.066.1l0,0-3.368,3.367v0a.364.364,0,0,1-.1.065l-.033.011a.349.349,0,0,1-.092.018.133.133,0,0,1-.022,0H2.205a.346.346,0,0,1-.346-.346V21.009H.346A.345.345,0,0,1,0,20.663V.347A.345.345,0,0,1,.346,0h16.83a.344.344,0,0,1,.344.347V1.859h1.514a.348.348,0,0,1,.347.347V19.154C19.381,19.163,19.377,19.168,19.377,19.176ZM18.2,19.5H16.013v2.186ZM16.829.693H.692V20.315H1.859V2.206a.347.347,0,0,1,.346-.347H16.829Zm1.86,1.859H2.552V22.176H15.319V19.154a.347.347,0,0,1,.347-.346h3.023Z" fill="#5dbece"/>
    </g>
    <g id="Group_610" data-name="Group 610" transform="translate(10.615 19.174)">
      <path id="Path_1004" data-name="Path 1004" d="M.347,0H3.032a.347.347,0,0,1,0,.694H.347A.347.347,0,0,1,.347,0Z" fill="#5dbece"/>
    </g>
    <g id="Group_611" data-name="Group 611" transform="translate(10.615 16.993)">
      <path id="Path_1005" data-name="Path 1005" d="M0,.346A.346.346,0,0,1,.347,0h5.6a.347.347,0,1,1,0,.693H.347A.346.346,0,0,1,0,.346Z" fill="#5dbece"/>
    </g>
    <g id="Group_612" data-name="Group 612" transform="translate(10.615 14.813)">
      <path id="Path_1006" data-name="Path 1006" d="M5.95.692H.347A.346.346,0,1,1,.347,0h5.6a.346.346,0,1,1,0,.692Z" fill="#5dbece"/>
    </g>
    <g id="Group_613" data-name="Group 613" transform="translate(4.412 4.267)">
      <path id="Path_1007" data-name="Path 1007" d="M12.5,6.808a.315.315,0,0,1-.027.124V8.883a.346.346,0,0,1-.344.346H.346A.346.346,0,0,1,0,8.883V.346A.346.346,0,0,1,.346,0H12.13a.346.346,0,0,1,.344.346V2.3a.329.329,0,0,1,.027.126.311.311,0,0,1-.027.124V4.49a.319.319,0,0,1,.027.124.325.325,0,0,1-.027.126V6.683A.32.32,0,0,1,12.5,6.808ZM3.028,2.769v1.5H7.083v-1.5Zm4.054-.693V.693H3.028V2.076Zm0,4.385v-1.5H3.028v1.5Zm-4.054.693V8.536H7.083V7.154Zm4.749-.693h4.005v-1.5H7.777Zm-5.441-1.5H.693v1.5H2.336ZM.693,4.268H2.336v-1.5H.693Zm7.084,0h4.005v-1.5H7.777Zm4.005,2.886H7.777V8.536h4.005ZM2.336,8.536V7.154H.693V8.536ZM.693,2.076H2.336V.693H.693ZM7.777.693V2.076h4.005V.693Z" fill="#5dbece"/>
    </g>
    <g id="Group_614" data-name="Group 614" transform="translate(4.412 14.813)">
      <path id="Path_1008" data-name="Path 1008" d="M2.527,0A2.527,2.527,0,1,1,0,2.526,2.531,2.531,0,0,1,2.527,0Zm0,4.361A1.834,1.834,0,1,0,.693,2.526,1.836,1.836,0,0,0,2.527,4.361Z" fill="#5dbece"/>
    </g>
    <g id="Group_615" data-name="Group 615" transform="translate(5.589 15.99)">
      <path id="Path_1009" data-name="Path 1009" d="M.347,1H1V.347a.346.346,0,1,1,.692,0V1h.659a.347.347,0,0,1,0,.693H1.7v.657a.346.346,0,1,1-.692,0V1.7H.347A.347.347,0,1,1,.347,1Z" fill="#5dbece"/>
    </g>
  </g>
</svg>
