<svg xmlns="http://www.w3.org/2000/svg" width="23.089" height="22.878" viewBox="0 0 23.089 22.878">
  <g id="Group_638" data-name="Group 638" transform="translate(-793.381 -106.011)">
    <path id="Path_1010" data-name="Path 1010" d="M816.121,106.011h-22.39a.35.35,0,0,0-.35.35v18.068a.351.351,0,0,0,.35.349h8.615v1.837h-1.3a1.137,1.137,0,0,0,0,2.274H808.8a1.137,1.137,0,0,0,0-2.274h-1.3v-1.837h8.614a.35.35,0,0,0,.349-.349V106.361A.349.349,0,0,0,816.121,106.011Zm-22.04,9.775h2.628a.347.347,0,0,0,.326-.223l1.6-4.121,1.281,6.568a.349.349,0,0,0,.321.282.34.34,0,0,0,.355-.238l.447-1.337.577,2.19a.348.348,0,0,0,.314.259h.024a.351.351,0,0,0,.323-.214l2.647-6.34,1.256,3.016a.349.349,0,0,0,.323.215h0a.35.35,0,0,0,.323-.214l2.236-5.334,2.6,6.495a.349.349,0,0,0,.614.067l.724-1.065h2.774v5.688H794.081Zm21.691-9.075v8.382h-2.959a.347.347,0,0,0-.289.155l-.458.672-2.671-6.677a.352.352,0,0,0-.323-.22h0a.351.351,0,0,0-.324.214l-2.242,5.35-1.255-3.017a.349.349,0,0,0-.323-.214h0a.348.348,0,0,0-.323.214l-2.573,6.16-.612-2.324a.347.347,0,0,0-.326-.26.341.341,0,0,0-.344.239l-.4,1.19-1.259-6.453a.35.35,0,0,0-.67-.06l-1.953,5.024h-2.388v-8.375Zm-6.531,21.041a.436.436,0,0,1-.437.436h-7.756a.437.437,0,1,1,0-.873H808.8A.437.437,0,0,1,809.241,127.752Zm-2.434-1.137h-3.761v-1.837h3.761Zm8.965-2.537H794.081v-1.9h21.691Z" fill="#5dbece"/>
  </g>
</svg>
