<svg width="59" height="80" viewBox="0 0 59 80" fill="none" xmlns="http://www.w3.org/2000/svg">
<path d="M3.79102 10.5099C3.9251 10.5126 4.0588 10.5148 4.19141 10.5148H11.9424V16.2551C11.9424 16.7955 12.2593 17.2711 12.7158 17.5041C12.9115 17.5973 13.1172 17.6535 13.3408 17.6535H41.3818C41.8371 17.6535 42.2927 17.6581 42.748 17.6633C43.3551 17.6701 43.9623 17.6774 44.5693 17.6721C44.6904 17.6627 44.8115 17.6623 44.9326 17.6623C44.993 17.6623 45.0513 17.6607 45.1094 17.6584C45.1676 17.6561 45.2265 17.6535 45.2871 17.6535H45.3428C45.5663 17.6535 45.7805 17.5972 45.9668 17.5041C46.4234 17.2711 46.7402 16.7956 46.7402 16.2551V10.5148H55.6846C57.0544 10.5614 58.0611 11.5398 58.2383 12.8537C58.2476 12.9283 58.2568 13.0125 58.2568 13.0871V73.1027C58.2568 73.6059 58.2635 74.1093 58.2705 74.6125C58.2833 75.5349 58.2958 76.4576 58.2656 77.3801C58.219 78.8431 57.1012 79.9155 55.6475 79.9621C55.5228 79.9683 55.4023 79.9661 55.2832 79.9641C55.2242 79.963 55.1651 79.9621 55.1064 79.9621H7.44336C6.95787 79.9621 6.46825 79.972 5.97754 79.9816C4.94251 80.002 3.90095 80.0219 2.87695 79.9523C1.45144 79.8589 0.454854 78.7132 0.426758 77.3156V14.7922C0.426757 14.6122 0.425839 14.4321 0.424805 14.2521C0.422734 13.8919 0.42055 13.5313 0.426758 13.1711C0.445396 11.9316 1.24678 10.8035 2.50488 10.5705C2.92412 10.4924 3.35993 10.5015 3.79102 10.5099ZM42.3467 67.9807L38.9492 63.5275L36.5615 65.3508L40.8965 71.0334C41.2815 71.5408 41.8443 71.8283 42.4492 71.8283H42.5469C43.1917 71.7932 43.7569 71.4408 44.1094 70.8683L50.4619 60.4279L47.8994 58.8654L42.3467 67.9807ZM12.1475 66.6828C11.8401 66.6829 11.5899 66.933 11.5898 67.2404V69.4709C11.5901 69.7781 11.8402 70.0255 12.1475 70.0256H32.9834C33.2906 70.0254 33.5408 69.7781 33.541 69.4709V67.2404C33.541 66.933 33.2908 66.683 32.9834 66.6828H12.1475ZM42.3467 52.9621L38.9492 48.507L36.5615 50.3293L40.8965 56.0119C41.2815 56.5194 41.8442 56.8068 42.4492 56.8068H42.5469C43.1917 56.7717 43.7569 56.4217 44.1094 55.8469L50.4619 45.4094L47.8994 43.8469L42.3467 52.9621ZM12.1475 51.6633C11.8401 51.6634 11.5898 51.9135 11.5898 52.2209V54.4484C11.59 54.7557 11.8401 55.0059 12.1475 55.006H32.9834C33.2907 55.0059 33.5409 54.7557 33.541 54.4484V52.2209C33.541 51.9135 33.2908 51.6634 32.9834 51.6633H12.1475ZM29.0498 39.8947C28.8448 40.3547 28.45 40.6271 28 40.6271H27.9951C27.5451 40.6271 27.1503 40.3571 26.9453 39.8996L24.3525 34.2551L22.7998 37.1252C22.5123 37.6626 21.8873 38.0353 21.2773 38.0353H14.6699C14.1474 38.0353 13.7275 38.4577 13.7275 38.9777C13.7277 39.4976 14.1475 39.9221 14.6699 39.9221H20.8994C22.7494 42.0096 25.495 43.8996 29.415 45.2521C34.4924 43.5021 37.6129 40.8603 39.3379 38.0353H37.9297C37.3598 38.0402 36.7354 37.7094 36.418 37.2346L32.7129 31.7902L29.0498 39.8947ZM36.9453 24.3849C31.9032 22.5829 29.4301 27.1218 29.415 27.1496C29.3961 27.1147 26.9254 22.5844 21.8848 24.3849C18.6873 25.5277 16.4651 30.8926 18.54 36.1525H21.1826L23.3652 32.1125C23.5952 31.685 23.9954 31.4354 24.4404 31.4504C24.8853 31.4655 25.2697 31.7379 25.4746 32.1828L27.9902 37.6623L31.4951 29.9103C31.6851 29.4853 32.0578 29.2076 32.4854 29.1701C32.9203 29.1252 33.3304 29.3422 33.5879 29.7297L37.9727 36.175H45.3232C45.8406 36.1748 46.2656 35.7496 46.2656 35.2297C46.2655 34.7098 45.8426 34.2902 45.3252 34.2902H40.8477C41.8252 29.6827 39.7628 25.3925 36.9453 24.3849ZM30.0137 0.0314331C29.9671 0.0314331 30.3025 0.0777779 30.3584 0.0870972C30.5446 0.124361 30.7219 0.170869 30.9082 0.226746C31.0664 0.273288 31.2246 0.329113 31.3828 0.384949C31.4015 0.394268 31.4485 0.413185 31.4951 0.431824C31.5042 0.431824 31.5046 0.431532 31.5137 0.440613C31.5599 0.459113 31.6061 0.478101 31.625 0.487488C31.9325 0.645898 32.2404 0.813822 32.5293 1.00018C32.5758 1.02808 32.8172 1.21367 32.7998 1.20526C32.9022 1.28905 33.0045 1.37292 33.0977 1.466C33.2281 1.58709 33.3584 1.7179 33.4795 1.8576C33.5168 1.89488 33.7319 2.15546 33.7412 2.15546C33.9556 2.44435 34.1418 2.75266 34.3096 3.06952C34.338 3.11734 34.4682 3.40445 34.4775 3.42303C34.5428 3.59078 34.5984 3.75867 34.6543 3.93573C34.7102 4.11277 34.7567 4.29918 34.7939 4.48553C34.8126 4.55074 34.8686 5.00706 34.8594 4.85858C34.8966 5.30584 34.9054 5.75312 34.8682 6.20038C34.803 6.95521 35.5584 7.59784 36.2666 7.59784H42.3145C42.3888 7.59784 42.584 7.61676 42.5664 7.6076C42.6781 7.63552 42.7897 7.66367 42.9014 7.69159C42.9199 7.69159 42.9389 7.70031 42.9482 7.70038C43.0133 7.72826 43.0692 7.76574 43.125 7.80292C43.1902 7.84019 43.3859 7.99893 43.3486 7.95233C43.4325 8.02689 43.5172 8.11065 43.5918 8.19452C43.5918 8.20376 43.6004 8.204 43.6006 8.21307C43.6378 8.25964 43.6664 8.30615 43.6943 8.35272C43.7223 8.40864 43.7498 8.45599 43.7871 8.5119C43.7965 8.52194 43.8155 8.58622 43.834 8.62323C43.8433 8.65119 43.8525 8.67934 43.8525 8.68866C43.8712 8.77249 43.89 8.84701 43.918 8.93085C43.918 8.93085 43.9175 8.94939 43.9268 8.96796C43.9361 8.9866 43.9453 9.15493 43.9453 9.16425V14.8576H17.3018C16.4538 14.8576 15.5965 14.8205 14.7393 14.8205V9.02362C14.7393 8.97731 14.748 8.94942 14.748 8.93085C14.7573 8.87503 14.7666 8.82843 14.7852 8.77264C14.8504 8.5117 15.0187 8.22225 15.2051 8.02655C15.225 8.00694 15.3818 7.87762 15.3818 7.86835C15.4564 7.82175 15.5221 7.77574 15.5967 7.73846C15.6342 7.71975 15.8203 7.65402 15.8203 7.64471C15.904 7.61684 15.9876 7.59788 16.0713 7.57928C16.0899 7.56997 16.1093 7.57005 16.1279 7.56073H22.4092C23.1172 7.56044 23.8717 6.91787 23.8066 6.16327C23.7787 5.78118 23.7689 5.39887 23.7969 5.01678C23.7969 4.96088 23.8066 4.91396 23.8066 4.86737C23.8066 4.858 23.8064 4.83952 23.8154 4.83026V4.7746C23.8527 4.56957 23.8997 4.36439 23.9463 4.15936C23.9929 4.00095 24.0393 3.84219 24.0859 3.68378C24.1047 3.6183 24.2065 3.37795 24.207 3.36737C24.3375 3.07847 24.4963 2.79876 24.6641 2.5285C24.7479 2.39813 24.841 2.26774 24.9248 2.14667C24.9248 2.13742 24.9341 2.13721 24.9434 2.12811C24.9992 2.06297 25.0458 2.00671 25.1016 1.94159C25.3439 1.66201 25.6145 1.41924 25.8848 1.17694L25.8945 1.16815C25.9595 1.12171 26.0243 1.07494 26.0801 1.0285C26.2105 0.935316 26.3505 0.850654 26.4902 0.766785C26.6299 0.682961 26.7699 0.608873 26.9189 0.534363C26.9934 0.497135 27.0681 0.459769 27.1426 0.431824C27.1519 0.431824 27.1616 0.422058 27.1709 0.422058C27.1802 0.422017 27.1987 0.412802 27.208 0.403503C27.5249 0.291672 27.8418 0.188995 28.168 0.114441C28.2983 0.0865063 28.4195 0.0588577 28.5498 0.0402222H28.5596C28.5967 0.0401953 28.6429 0.0315072 28.6709 0.0314331C28.8013 0.0221174 28.9321 0.0124285 29.0625 0.00311279C29.3794 -0.00620647 29.6968 0.00347532 30.0137 0.0314331Z" fill="url(#paint0_linear_3828_1369)"/>
<defs>
<linearGradient id="paint0_linear_3828_1369" x1="29.3532" y1="-0.000793457" x2="29.3532" y2="80.0008" gradientUnits="userSpaceOnUse">
<stop stop-color="#4ECBDF"/>
<stop offset="1" stop-color="#239EBD"/>
</linearGradient>
</defs>
</svg>
