<svg width="173" height="2" viewBox="0 0 173 2" fill="none" xmlns="http://www.w3.org/2000/svg">
<path d="M172.274 1.02134C172.274 1.02134 161.518 1.13859 145.379 1.31981C137.309 1.36245 127.897 1.42641 117.812 1.47971C107.728 1.50102 96.9722 1.52235 86.2057 1.55433C75.4499 1.53301 64.694 1.51168 54.5991 1.47971C44.5149 1.41575 35.1022 1.36245 27.0326 1.31981C10.8935 1.13859 0.137695 1.02134 0.137695 1.02134C0.137695 1.02134 10.8935 0.90408 27.0326 0.722861C35.1022 0.680222 44.5149 0.616253 54.5991 0.562953C64.6834 0.541633 75.4392 0.520322 86.2057 0.488342C96.9616 0.509662 107.717 0.541633 117.812 0.562953C127.897 0.626913 137.309 0.680222 145.379 0.722861C161.518 0.90408 172.274 1.02134 172.274 1.02134Z" fill="#43A9BC"/>
</svg>
