<svg width="2" height="276" viewBox="0 0 2 276" fill="none" xmlns="http://www.w3.org/2000/svg">
<path d="M1.37666 0.466003C1.37666 0.466003 1.40864 4.76194 1.46194 12.2878C1.50458 19.8137 1.6325 30.5589 1.65382 43.4574C1.71778 69.2543 1.81372 103.643 1.899 138.032C1.81372 172.421 1.71778 206.81 1.65382 232.607C1.6325 245.505 1.49392 256.25 1.45128 263.776C1.39798 271.302 1.366 275.598 1.366 275.598C1.366 275.598 1.33402 271.302 1.28072 263.776C1.23808 256.25 1.0995 245.505 1.07818 232.607C1.01422 206.81 0.918287 172.421 0.833008 138.032C0.918287 103.643 1.01422 69.2543 1.07818 43.4574C1.0995 30.5589 1.23808 19.8137 1.28072 12.2878C1.33402 4.76194 1.366 0.466003 1.366 0.466003H1.37666Z" fill="#43A9BC"/>
</svg>
