<svg width="29" height="29" viewBox="0 0 29 29" fill="none" xmlns="http://www.w3.org/2000/svg">
<mask id="mask0_11_10" style="mask-type:luminance" maskUnits="userSpaceOnUse" x="0" y="0" width="28" height="28">
<path d="M27.9733 0.317075H0.547554V27.6656H27.9733V0.317075Z" fill="white"/>
</mask>
<g mask="url(#mask0_11_10)">
<path fill-rule="evenodd" clip-rule="evenodd" d="M14.4137 7.94762C17.8723 7.95029 20.6736 10.7553 20.6709 14.2129C20.6682 17.6706 17.8625 20.4711 14.4039 20.4684C10.9454 20.4658 8.14407 17.6608 8.14674 14.2031C8.14941 10.7455 10.9551 7.94495 14.4137 7.94762Z" fill="#FF8141"/>
<path fill-rule="evenodd" clip-rule="evenodd" d="M11.9527 5.92715C12.3505 5.82729 12.6163 5.46976 12.6163 5.07745C12.6163 5.00612 12.6074 4.93391 12.5895 4.86169L11.6111 0.980529C11.4926 0.510656 11.0154 0.225343 10.5454 0.343926C10.0754 0.462509 9.79004 0.938627 9.90862 1.40939L10.887 5.29055C11.0056 5.76042 11.4827 6.04574 11.9527 5.92715ZM8.5376 7.51806C8.5376 7.73737 8.45555 7.95766 8.29054 8.12794C7.95344 8.47566 7.39689 8.48543 7.0491 8.14754L4.1729 5.36396C3.82508 5.02693 3.81527 4.47057 4.15328 4.12284C4.49039 3.77423 5.04601 3.7653 5.39472 4.10233L8.27003 6.88682C8.44839 7.05893 8.5376 7.288 8.5376 7.51806ZM6.27559 12.0104C6.29432 11.9373 6.30324 11.8642 6.30324 11.792C6.30324 11.4006 6.04015 11.0439 5.64417 10.9423L1.76733 9.94455C1.29734 9.82331 0.818417 10.106 0.698019 10.5759C0.576729 11.0448 0.859442 11.5236 1.32944 11.644L5.20627 12.6417C5.67538 12.7629 6.1543 12.4803 6.27559 12.0104ZM6.18004 16.7096C6.18004 17.1001 5.91694 17.4558 5.52185 17.5584L1.64591 18.5597C1.17592 18.6809 0.696995 18.3992 0.575705 17.9293C0.454415 17.4603 0.736236 16.9815 1.20623 16.8603L5.08218 15.8581C5.55129 15.7368 6.0302 16.0195 6.15149 16.4885C6.17111 16.5624 6.18004 16.6365 6.18004 16.7096ZM8.27641 21.6166C8.46369 21.4437 8.55915 21.2075 8.55915 20.9711C8.55915 20.7581 8.48244 20.545 8.32636 20.3756C7.99817 20.0198 7.44254 19.9966 7.08583 20.3247L4.14184 23.037C3.78511 23.366 3.76282 23.9215 4.0919 24.2772C4.4201 24.6339 4.97572 24.6571 5.33246 24.328L8.27641 21.6166ZM12.8789 22.7852C12.8994 22.7094 12.9092 22.6327 12.9092 22.5578C12.9092 22.17 12.6514 21.8151 12.2591 21.7099C11.7908 21.5842 11.3092 21.8615 11.1835 22.3296L10.1445 26.1947C10.0178 26.6637 10.2961 27.1451 10.7643 27.2709C11.2326 27.3966 11.7141 27.1184 11.8399 26.6503L12.8789 22.7852ZM18.494 1.48243C18.494 1.55643 18.4842 1.63133 18.4646 1.70533L17.4469 5.57668C17.3239 6.04477 16.8441 6.32562 16.375 6.20169C15.9058 6.07865 15.6258 5.59807 15.7489 5.12999L16.7665 1.25953C16.8895 0.790546 17.3703 0.510581 17.8394 0.633622C18.2335 0.737046 18.494 1.0928 18.494 1.48243ZM24.5589 5.48588C24.7579 5.31291 24.8604 5.0695 24.8604 4.82431C24.8604 4.62013 24.79 4.41417 24.6446 4.24744C24.3262 3.88188 23.7723 3.84354 23.4058 4.16185L20.386 6.7885C20.0195 7.10679 19.9811 7.66138 20.2995 8.02694C20.6179 8.39251 21.1726 8.43086 21.5383 8.11342L24.5589 5.48588ZM27.9733 10.6825C27.9733 11.0677 27.7173 11.4207 27.3276 11.5277L23.4668 12.587C22.9995 12.7154 22.5161 12.4399 22.3877 11.9727C22.2593 11.5045 22.5349 11.0222 23.0022 10.8938L26.8629 9.83457C27.3303 9.70707 27.8136 9.98173 27.9421 10.4489C27.9635 10.5273 27.9733 10.6058 27.9733 10.6825ZM27.8792 17.7437C27.898 17.6707 27.9069 17.5975 27.9069 17.5253C27.9069 17.1339 27.6438 16.7773 27.2478 16.6756L23.3709 15.6779C22.901 15.5567 22.4221 15.8393 22.3017 16.3091C22.1804 16.7781 22.4631 17.2569 22.9331 17.3773L26.8099 18.375C27.279 18.4963 27.758 18.2136 27.8792 17.7437ZM24.6283 23.5523C24.6283 23.7797 24.54 24.0079 24.3643 24.1791C24.0174 24.5179 23.4618 24.5116 23.1229 24.1648L20.3243 21.3037C19.9854 20.9568 19.9907 20.4014 20.3376 20.0626C20.6846 19.7238 21.2402 19.73 21.5791 20.0759L24.3777 22.938C24.5454 23.1092 24.6283 23.3303 24.6283 23.5523ZM17.9339 27.635C18.3254 27.5298 18.5841 27.1758 18.5841 26.7888C18.5841 26.713 18.5743 26.6364 18.5538 26.5597L17.512 22.6946C17.3855 22.2265 16.9039 21.9492 16.4356 22.0758C15.9674 22.2015 15.69 22.6839 15.8167 23.152L16.8583 27.0162C16.9841 27.4843 17.4657 27.7616 17.9339 27.635Z" fill="#F98900"/>
</g>
</svg>
