<svg width="19" height="19" viewBox="0 0 19 19" fill="none" xmlns="http://www.w3.org/2000/svg">
<path fill-rule="evenodd" clip-rule="evenodd" d="M18.053 9.51953C18.053 14.4901 14.0235 18.5195 9.05298 18.5195C4.08242 18.5195 0.0529785 14.4901 0.0529785 9.51953C0.0529785 4.54897 4.08242 0.519531 9.05298 0.519531C14.0235 0.519531 18.053 4.54897 18.053 9.51953ZM14.6887 15.4509C13.2214 16.8455 11.2371 17.7014 9.05298 17.7014C4.53428 17.7014 0.87116 14.0382 0.87116 9.51953C0.87116 7.38773 1.68647 5.44635 3.02228 3.9902C3.04082 4.05444 3.0754 4.11503 3.12602 4.16566L6.75181 7.79145L5.21163 9.34294C5.1059 9.44954 5.04629 9.59342 5.04566 9.74356V12.7138L3.49471 14.2648C3.44107 14.318 3.39849 14.3813 3.36944 14.451C3.34038 14.5208 3.32542 14.5956 3.32542 14.6711C3.32542 14.7467 3.34038 14.8215 3.36944 14.8912C3.39849 14.9609 3.44107 15.0242 3.49471 15.0774C3.54792 15.1311 3.61121 15.1737 3.68095 15.2027C3.75069 15.2318 3.8255 15.2467 3.90105 15.2467C3.9766 15.2467 4.0514 15.2318 4.12114 15.2027C4.19088 15.1737 4.25418 15.1311 4.30739 15.0774L5.85833 13.5265H8.8286C8.97874 13.5259 9.12262 13.4663 9.22921 13.3605L10.7807 11.8203L14.3029 15.3426C14.4075 15.4472 14.5547 15.4833 14.6887 15.4509ZM14.9899 15.1494C15.0221 15.0155 14.986 14.8685 14.8815 14.764L11.3614 11.2439L13.9393 8.68479C14.2058 8.41898 14.4172 8.10321 14.5615 7.75556C14.7057 7.40791 14.78 7.03522 14.78 6.65883C14.78 6.28244 14.7057 5.90975 14.5615 5.5621C14.4172 5.21445 14.2058 4.89868 13.9393 4.63287C13.6735 4.36638 13.3577 4.15496 13.0101 4.0107C12.6624 3.86644 12.2897 3.79219 11.9133 3.79219C11.5369 3.79219 11.1642 3.86644 10.8166 4.0107C10.4689 4.15496 10.1532 4.36638 9.88737 4.63287L7.32824 7.21079L3.70457 3.58711C3.65404 3.53659 3.59359 3.50204 3.52948 3.48348C4.98498 2.15084 6.92402 1.33771 9.05298 1.33771C13.5717 1.33771 17.2348 5.00084 17.2348 9.51953C17.2348 11.7008 16.3812 13.6827 14.9899 15.1494ZM6.19027 9.9782L7.56094 8.60057L8.35993 9.39956L7.50085 10.2586C7.44721 10.3118 7.40463 10.3751 7.37558 10.4449C7.34652 10.5146 7.33156 10.5894 7.33156 10.665C7.33156 10.7405 7.34652 10.8153 7.37558 10.8851C7.40463 10.9548 7.44721 11.0181 7.50085 11.0713C7.55405 11.1249 7.61735 11.1675 7.68709 11.1966C7.75683 11.2256 7.83164 11.2406 7.90719 11.2406C7.98274 11.2406 8.05754 11.2256 8.12728 11.1966C8.19702 11.1675 8.26032 11.1249 8.31352 11.0713L9.1726 10.2122L9.97158 11.0112L8.59395 12.3819H6.19027V9.9782ZM8.13802 8.02057L8.93847 8.82102L11.507 6.25249C11.6148 6.14473 11.7609 6.08418 11.9133 6.08418C12.0657 6.08418 12.2119 6.14473 12.3197 6.25249C12.4274 6.36026 12.488 6.50642 12.488 6.65883C12.488 6.81124 12.4274 6.9574 12.3197 7.06517L9.75114 9.63369L10.5516 10.4341L13.1266 7.87212C13.4299 7.54665 13.595 7.11617 13.5871 6.67137C13.5793 6.22657 13.3991 5.80218 13.0845 5.48761C12.77 5.17304 12.3456 4.99286 11.9008 4.98501C11.456 4.97716 11.0255 5.14227 10.7 5.44554L8.13802 8.02057Z" fill="#43A9BC"/>
</svg>
