<svg width="17" height="18" viewBox="0 0 17 18" fill="none" xmlns="http://www.w3.org/2000/svg">
<path d="M11.4962 0.620689V1.91172C13.7307 2.11862 14.8149 3.45103 14.9804 5.42896C15.0052 5.66069 14.8066 5.86758 14.5666 5.86758H0.563827C0.332103 5.86758 0.133483 5.66896 0.150034 5.42896C0.315552 3.45103 1.39969 2.11862 3.63417 1.91172V0.620689C3.63417 0.281379 3.91555 0 4.25486 0C4.59417 0 4.87555 0.281379 4.87555 0.620689V1.86207H10.2549V0.620689C10.2549 0.281379 10.5362 0 10.8755 0C11.2149 0 11.4962 0.281379 11.4962 0.620689Z" fill="#67BBCB"/>
<path fill-rule="evenodd" clip-rule="evenodd" d="M10.048 14.6897C10.048 12.8607 11.5293 11.3793 13.3583 11.3793C15.1873 11.3793 16.6686 12.8607 16.6686 14.6897C16.6686 15.3103 16.4949 15.8979 16.1886 16.3945C15.6176 17.3545 14.5666 18 13.3583 18C12.7877 18.0012 12.2267 17.8538 11.7304 17.5722C11.2341 17.2907 10.8197 16.8848 10.528 16.3945C10.2218 15.8979 10.048 15.3103 10.048 14.6897ZM13.3087 15.9641L15.0714 14.3338C15.3197 14.0938 15.3362 13.7048 15.1045 13.4565C14.8728 13.2083 14.4755 13.1917 14.2273 13.4234L12.9031 14.6483L12.5059 14.251C12.2659 14.011 11.8687 14.011 11.6286 14.251C11.5132 14.3678 11.4485 14.5254 11.4485 14.6897C11.4485 14.8539 11.5132 15.0115 11.6286 15.1283L12.448 15.9476C12.5721 16.0717 12.7293 16.1297 12.8866 16.1297C13.0355 16.1297 13.1928 16.0717 13.3087 15.9641Z" fill="#67BBCB"/>
<path fill-rule="evenodd" clip-rule="evenodd" d="M0.944529 7.10899H14.1859C14.4069 7.11114 14.6183 7.1999 14.7746 7.35619C14.9309 7.51248 15.0196 7.72383 15.0218 7.94485V9.38485C15.0218 9.8814 14.5749 10.2704 14.0783 10.1959C13.8466 10.1545 13.6066 10.1379 13.3666 10.1379C10.859 10.1379 8.81487 12.1821 8.81487 14.6897C8.81487 15.0704 8.95556 15.6 9.12108 16.08C9.30315 16.6179 8.90591 17.1724 8.33487 17.1724H4.25487C1.35832 17.1724 0.116943 15.5173 0.116943 13.0345V7.93657C0.116943 7.4814 0.489357 7.10899 0.944529 7.10899ZM4.66867 14.2759C4.88384 14.2759 5.09901 14.1848 5.25625 14.0359C5.40522 13.8786 5.49625 13.6635 5.49625 13.4483C5.49625 13.2331 5.40522 13.018 5.25625 12.8607C5.02453 12.629 4.66039 12.5545 4.35418 12.6869C4.2466 12.7283 4.16384 12.7862 4.08108 12.8607C3.93211 13.018 3.84108 13.2331 3.84108 13.4483C3.84108 13.6635 3.93211 13.8786 4.08108 14.0359C4.23832 14.1848 4.45349 14.2759 4.66867 14.2759ZM5.13211 11.2386L5.25625 11.1393C5.40522 10.9821 5.49625 10.7669 5.49625 10.5517C5.49625 10.3366 5.40522 10.1214 5.25625 9.96416L5.13211 9.86485C5.08246 9.83174 5.0328 9.80692 4.98315 9.79036C4.93349 9.76554 4.88384 9.74899 4.83418 9.74071C4.56108 9.68278 4.27142 9.77381 4.08108 9.96416C3.93211 10.1214 3.84108 10.3366 3.84108 10.5517C3.84108 10.7669 3.93211 10.9821 4.08108 11.1393C4.23832 11.2883 4.45349 11.3793 4.66867 11.3793C4.71832 11.3793 4.77625 11.3711 4.83418 11.3628C4.88384 11.3545 4.93349 11.3379 4.98315 11.3131C5.0328 11.2966 5.08246 11.2717 5.13211 11.2386ZM7.56522 11.3793C7.78039 11.3793 7.99556 11.2883 8.1528 11.1393C8.30177 10.9821 8.3928 10.7669 8.3928 10.5517C8.3928 10.3366 8.30177 10.1214 8.1528 9.96416C7.8466 9.65795 7.29211 9.65795 6.97763 9.96416C6.82866 10.1214 6.73763 10.3366 6.73763 10.5517C6.73763 10.7669 6.82866 10.9821 6.97763 11.1393C7.13487 11.2883 7.35004 11.3793 7.56522 11.3793Z" fill="#67BBCB"/>
</svg>
