<svg width="26" height="24" viewBox="0 0 26 24" fill="none" xmlns="http://www.w3.org/2000/svg">
<g id="Group 33690">
<path id="Rectangle 4292" d="M0 0H26V24H14C6.26801 24 0 17.732 0 10V0Z" fill="url(#paint0_linear_7673_23418)"/>
<path id="Vector" fill-rule="evenodd" clip-rule="evenodd" d="M14.5965 6.24248C15.4886 6.24248 16.2119 5.51916 16.2119 4.6271C16.2119 3.73504 15.4886 3.01172 14.5965 3.01172C13.7045 3.01172 12.9812 3.73504 12.9812 4.6271C12.9812 5.51916 13.7045 6.24248 14.5965 6.24248ZM11.1504 7.85786C11.1504 7.56051 11.3915 7.3194 11.6889 7.3194H15.135C15.4653 7.3194 15.7177 7.61387 15.6672 7.94032L14.3812 15.2886C14.2795 16.0636 14.6365 16.2607 15.135 16.2607C15.5865 16.2607 15.9382 15.9083 16.1648 15.5583C16.2357 15.4583 16.34 15.4079 16.465 15.4583C16.5403 15.5088 16.565 15.6338 16.4881 15.7338C15.915 16.6867 14.7706 17.0117 13.8427 17.0117C12.342 17.0117 11.599 16.2358 11.7966 14.8579L12.7478 8.39636H11.6889C11.3915 8.39636 11.1504 8.15521 11.1504 7.85786Z" fill="#ECF6F8"/>
</g>
<defs>
<linearGradient id="paint0_linear_7673_23418" x1="8.35714" y1="0" x2="8.35714" y2="24" gradientUnits="userSpaceOnUse">
<stop stop-color="#2F7683"/>
<stop offset="1" stop-color="#4AADBF"/>
</linearGradient>
</defs>
</svg>
