<svg width="39" height="39" viewBox="0 0 39 39" fill="none" xmlns="http://www.w3.org/2000/svg">
<g id="img">
<circle id="Ellipse 21" cx="19.2001" cy="19.9221" r="19" fill="#DAEEF1"/>
<g id="Vector">
<path d="M12.0913 20.5362C13.1587 20.5362 14.024 19.6709 14.024 18.6035C14.024 17.5362 13.1591 16.672 12.0913 16.672C11.0253 16.672 10.1598 17.5364 10.1598 18.6035C10.1598 19.6707 11.0253 20.5362 12.0913 20.5362ZM30.7001 21.5747C30.7001 20.0449 29.459 18.804 27.9292 18.804H20.1067V24.4179H29.3775V27.1266H30.6998L30.6991 21.5746L30.7001 21.5747ZM14.0237 21.1781H19.3136V18.8042H16.7627C15.3668 18.8044 14.2161 19.837 14.0237 21.1781ZM9.02232 15.3168H7.70007V27.1273H9.02232V24.4184H19.3136V21.9717L9.02232 21.9719V15.3168Z" fill="#368796"/>
<path d="M20.0401 8.40729H18.3601V10.5673H16.2001V12.2473H18.3601V14.4073H20.0401V12.2473H22.2001V10.5673H20.0401V8.40729Z" fill="#368796"/>
</g>
</g>
</svg>
