<svg width="39" height="38" viewBox="0 0 39 38" fill="none" xmlns="http://www.w3.org/2000/svg">
<circle cx="19.5" cy="19" r="19" fill="#FAD3D1"/>
<path fill-rule="evenodd" clip-rule="evenodd" d="M22.7416 25.6819C25.6678 25.6819 28.0419 22.9912 28.0419 19.6713C28.0419 17.0232 24.6679 12.1476 23.3054 10.2867C23.0236 9.90445 22.4599 9.90445 22.182 10.2867C21.5334 11.1706 20.4293 12.734 19.4565 14.4211C20.9582 16.7839 22.5371 19.7177 22.5371 21.6479C22.5371 23.08 22.1356 24.4118 21.4561 25.5043C21.8692 25.6201 22.2976 25.6819 22.7416 25.6819ZM15.9619 11.7329C16.2563 11.3308 16.8543 11.3308 17.1488 11.7329H17.1494C18.5896 13.6996 22.1533 18.8489 22.1533 21.648C22.1533 25.156 19.6472 27.9999 16.5556 27.9999C13.4641 27.9999 10.9579 25.1561 10.9579 21.648C10.9579 18.849 14.5216 13.6998 15.9619 11.7329ZM12.3088 21.6477C12.3088 24.4055 14.2139 26.6487 16.5554 26.6487L16.5552 26.6486C16.662 26.6486 16.7483 26.5623 16.748 26.4555C16.748 26.3489 16.6618 26.2626 16.5551 26.2626C14.4264 26.2626 12.6947 24.1922 12.6947 21.6477C12.6947 21.5411 12.6085 21.4547 12.5017 21.4547C12.3951 21.4547 12.3088 21.5409 12.3088 21.6477Z" fill="#EC5046"/>
</svg>
