<svg width="39" height="39" viewBox="0 0 39 39" fill="none" xmlns="http://www.w3.org/2000/svg">
<circle cx="19.5" cy="19.5" r="19" fill="#DFE6F0"/>
<path fill-rule="evenodd" clip-rule="evenodd" d="M15.0466 18.3761C15.1054 18.2773 15.2151 18.2205 15.3298 18.2293C15.4443 18.2383 15.5439 18.3114 15.5866 18.418L16.7866 21.538L18.3226 16.93C18.3671 16.8055 18.4874 16.7243 18.6194 16.7298C18.7516 16.7353 18.8648 16.8262 18.8987 16.954L19.7416 20.3261H19.8577C20.4047 19.063 21.5369 18.1489 22.8869 17.8804C24.2369 17.612 25.6327 18.0234 26.6213 18.9811C26.7014 19.0557 26.8159 19.0808 26.9198 19.0465C27.0239 19.0121 27.1009 18.9238 27.1207 18.8161C27.2551 18.1269 27.3129 17.4249 27.2926 16.723C27.2972 15.3442 26.7545 14.0199 25.7838 13.0407C24.8131 12.0615 23.4935 11.5074 22.1146 11.5C20.6646 11.4972 19.2813 12.1087 18.3075 13.1829C17.3338 12.1087 15.9506 11.4972 14.5005 11.5C13.1232 11.507 11.8047 12.0595 10.834 13.037C9.86342 14.0142 9.31983 15.3365 9.3225 16.7141C9.19956 21.094 11.8125 24.7002 17.3086 27.745C17.9315 28.084 18.6836 28.084 19.3065 27.745C19.9678 27.3766 20.5906 26.9972 21.1745 26.6068H21.1747C21.2581 26.551 21.3079 26.4568 21.3075 26.3564V25.595C21.307 25.5002 21.2616 25.4111 21.1851 25.355C20.1265 24.5652 19.5043 23.3209 19.5075 22.0001C19.5079 21.74 19.5332 21.4805 19.583 21.2252C19.6045 21.0816 19.5208 20.943 19.3836 20.8952C19.2975 20.8629 19.2343 20.7883 19.2165 20.698L18.5655 18.097L17.0925 22.5223C17.0505 22.6403 16.9399 22.7199 16.8146 22.7226C16.6894 22.7253 16.5756 22.6503 16.5286 22.5342L15.2536 19.2252L14.3686 20.7762C14.3148 20.8694 14.2151 20.9266 14.1076 20.9262H10.8255C10.7266 20.7283 10.6366 20.5273 10.5585 20.3262H13.9336L15.0466 18.3761ZM10.8076 17.2001C10.6863 17.2001 10.5768 17.127 10.5305 17.0149C10.484 16.9028 10.5096 16.7738 10.5955 16.6879C10.6813 16.6021 10.8103 16.5765 10.9224 16.623C11.0345 16.6693 11.1076 16.7787 11.1076 16.9001C11.1076 16.9796 11.076 17.056 11.0197 17.1122C10.9635 17.1685 10.8871 17.2001 10.8076 17.2001ZM12.0615 14.428C11.6774 14.8411 11.4022 15.3431 11.2605 15.889C11.2192 16.0498 11.0554 16.1464 10.8946 16.1051C10.7339 16.0637 10.6372 15.8998 10.6786 15.739C10.8472 15.0977 11.1707 14.5073 11.6205 14.0201C11.7326 13.8986 11.9217 13.8906 12.0436 14.0021C12.1655 14.115 12.1735 14.3052 12.0615 14.428ZM24.6674 22.0002C24.6672 21.8509 24.6311 21.7039 24.5624 21.5713L25.1204 21.0133V21.0132C25.2381 20.8956 25.2381 20.7049 25.1204 20.5873C25.0028 20.4696 24.8121 20.4696 24.6945 20.5873L24.1366 21.1452H24.1364C24.0038 21.0765 23.8568 21.0405 23.7074 21.0402C23.4528 21.0402 23.2087 21.1413 23.0286 21.3213C22.8486 21.5015 22.7474 21.7456 22.7474 22.0002C22.7474 22.2548 22.8486 22.499 23.0286 22.6791C23.2087 22.8591 23.4528 22.9602 23.7074 22.9602C23.962 22.9602 24.2062 22.8591 24.3863 22.6791C24.5663 22.499 24.6674 22.2548 24.6674 22.0002ZM23.9417 29.5H23.4738H23.4737C23.2971 29.4994 23.1281 29.429 23.0034 29.3042C22.8786 29.1795 22.8083 29.0105 22.8076 28.834V27.088C22.5596 27.0583 22.3311 26.9385 22.1653 26.7517C21.9995 26.5648 21.9078 26.3238 21.9076 26.074V25.114C20.9861 24.5819 20.3471 23.6695 20.1623 22.6215C19.9777 21.5735 20.2659 20.4975 20.95 19.6823C21.6339 18.8672 22.6435 18.3963 23.7077 18.3963C24.7719 18.3963 25.7814 18.8672 26.4654 19.6823C27.1495 20.4976 27.4377 21.5735 27.253 22.6215C27.0682 23.6695 26.4292 24.5819 25.5077 25.114V26.074C25.5075 26.3238 25.4158 26.5649 25.25 26.7517C25.0842 26.9385 24.8557 27.0583 24.6077 27.088V28.834C24.607 29.0105 24.5367 29.1795 24.4119 29.3042C24.2872 29.429 24.1182 29.4994 23.9417 29.5ZM21.5864 19.8788C21.0238 20.4414 20.7077 21.2044 20.7077 22.0001C20.7089 22.7953 21.0256 23.5577 21.5878 24.12C22.1501 24.6823 22.9125 24.9989 23.7077 25.0001C24.5034 25.0001 25.2664 24.684 25.829 24.1214C26.3916 23.5587 26.7077 22.7958 26.7077 22.0001C26.7077 21.2044 26.3916 20.4415 25.829 19.8788C25.2664 19.3162 24.5034 19.0001 23.7077 19.0001C22.9121 19.0001 22.1491 19.3162 21.5864 19.8788Z" fill="#436CA7"/>
</svg>
