<svg width="39" height="39" viewBox="0 0 39 39" fill="none" xmlns="http://www.w3.org/2000/svg">
<circle cx="19.5" cy="19.5" r="19" fill="#F4EAF3"/>
<path d="M27.39 20.822C27.1978 20.9142 26.9881 20.9627 26.7756 20.9641C26.5621 20.9624 26.3517 20.9124 26.1592 20.8179V24.4302C26.1592 24.7143 26.0488 24.9867 25.8522 25.1875C25.6558 25.3883 25.3893 25.5011 25.1113 25.5011H22.5442C22.2664 25.5011 21.9998 25.3883 21.8033 25.1875C21.6068 24.9867 21.4963 24.7143 21.4963 24.4302V21.4274C21.1166 21.8139 20.707 22.1686 20.2715 22.4879V24.4343C20.2715 25.0507 20.5109 25.6416 20.937 26.0779C21.3631 26.5141 21.9412 26.7596 22.5442 26.7607H25.1113C25.7154 26.7607 26.2947 26.5157 26.7219 26.0794C27.1492 25.6432 27.3895 25.0515 27.39 24.4343V20.822Z" fill="#963687"/>
<path d="M26.7747 15.3073C25.8242 15.3073 25.0527 16.7112 25.0527 18.0765C25.0527 19.4419 25.8242 20.6589 26.7747 20.6589C27.7252 20.6589 28.4986 19.4398 28.4986 18.0765C28.4988 16.7131 27.7272 15.3073 26.7747 15.3073Z" fill="#963687"/>
<path d="M17.2771 13.6334C17.2771 13.6334 15.9688 11.5 13.863 11.5C13.2569 11.5112 12.663 11.6767 12.1351 11.9816C9.85638 13.2148 10.089 16.7765 12.0318 19.7022C12.8738 19.0701 13.9088 18.7654 14.951 18.8427C15.9932 18.9198 16.9742 19.374 17.7184 20.1236C18.4624 20.873 18.9208 21.869 19.0111 22.9327C23.7655 20.3706 25.706 13.7492 22.4173 11.9816C21.8891 11.6805 21.2961 11.5185 20.6913 11.5102C18.5856 11.5 17.2772 13.6334 17.2772 13.6334H17.2771Z" fill="#963687"/>
<path d="M14.6294 19.1171C13.5414 19.1171 12.498 19.5587 11.7288 20.3447C10.9595 21.1308 10.5273 22.1969 10.5273 23.3085C10.5273 24.4202 10.9595 25.4862 11.7288 26.2724C12.498 27.0584 13.5415 27.5 14.6294 27.5C15.7174 27.5 16.7607 27.0584 17.5301 26.2724C18.2993 25.4862 18.7315 24.4202 18.7315 23.3085C18.7315 22.1969 18.2993 21.1308 17.5301 20.3447C16.7607 19.5587 15.7174 19.1171 14.6294 19.1171ZM14.6294 26.4535C13.8132 26.4529 13.0306 26.1212 12.4538 25.5312C11.8769 24.941 11.553 24.141 11.5533 23.3069C11.5537 22.473 11.8782 21.6733 12.4556 21.0837C13.033 20.4942 13.8158 20.1631 14.6321 20.1632C15.4483 20.1634 16.231 20.4949 16.8081 21.0846C17.3853 21.6745 17.7094 22.4744 17.7094 23.3084C17.7085 24.1426 17.3835 24.9422 16.8061 25.5319C16.2287 26.1214 15.4458 26.453 14.6294 26.4535H14.6294Z" fill="#963687"/>
<path d="M17.4114 23.308C17.4114 22.5536 17.118 21.8302 16.596 21.2967C16.0739 20.7632 15.3658 20.4636 14.6275 20.4636C13.8892 20.4636 13.1813 20.7632 12.6592 21.2967C12.1371 21.8301 11.8438 22.5536 11.8438 23.308C11.8438 24.0624 12.1371 24.7859 12.6592 25.3194C13.1813 25.8529 13.8892 26.1524 14.6275 26.1524C15.3658 26.1524 16.0739 25.8528 16.596 25.3194C17.118 24.786 17.4114 24.0624 17.4114 23.308ZM14.6277 24.1207H14.6275C14.3435 24.1476 14.0669 24.0175 13.902 23.7795C13.7372 23.5414 13.709 23.2316 13.8285 22.9668C13.9477 22.7019 14.1963 22.5222 14.4805 22.4954V21.384C14.4799 21.3437 14.4952 21.3049 14.5228 21.2763C14.5505 21.2477 14.5883 21.2316 14.6275 21.2316C14.6675 21.2311 14.7059 21.2468 14.7343 21.2754C14.7627 21.3041 14.7787 21.3432 14.7787 21.384V22.5034C14.9747 22.542 15.1492 22.6544 15.2679 22.8184L15.763 22.5725H15.7629C15.8365 22.5359 15.9253 22.5667 15.9618 22.6416C15.9962 22.7174 15.9654 22.8074 15.8922 22.8447L15.401 23.0926C15.4209 23.1627 15.4315 23.2352 15.4329 23.308C15.4345 23.526 15.3503 23.7356 15.1992 23.8895C15.0482 24.0435 14.8429 24.129 14.6296 24.1267L14.6277 24.1207Z" fill="#963687"/>
<path d="M15.1331 23.3076C15.1331 23.5915 14.9078 23.8216 14.63 23.8216C14.3522 23.8216 14.127 23.5915 14.127 23.3076C14.127 23.0237 14.3522 22.7936 14.63 22.7936C14.9078 22.7936 15.1331 23.0237 15.1331 23.3076Z" fill="#963687"/>
</svg>
