<svg width="18" height="20" viewBox="0 0 18 20" fill="none" xmlns="http://www.w3.org/2000/svg">
<path d="M13.157 3.14971C10.7043 3.60575 8.50294 4.47965 6.30599 5.35179C5.911 5.5086 5.51612 5.66535 5.11998 5.81961C4.61278 4.74229 4.91257 3.25592 6.45218 2.67174C6.87332 2.51179 7.01106 2.30126 6.95862 1.96365C6.95404 1.93379 6.94957 1.9039 6.94513 1.87398L6.93244 1.78682C6.90175 1.57518 6.87099 1.36317 6.81775 1.15502C6.77311 0.978638 6.82165 0.863568 7.02906 0.807299C7.08547 0.792033 7.14185 0.776235 7.19826 0.760422C7.43629 0.693718 7.67512 0.626775 7.9206 0.598668C8.01844 0.587284 8.19925 0.726379 8.25089 0.827534C8.37778 1.07599 8.4841 1.3316 8.59039 1.58714C8.61064 1.63579 8.6309 1.68443 8.65127 1.73303C8.67309 1.78512 8.69507 1.83714 8.71743 1.88904L8.82857 1.90169C8.84672 1.84911 8.86644 1.79678 8.88617 1.74446C8.92924 1.63008 8.97231 1.51576 8.99918 1.39906C9.08609 1.02858 9.15966 0.656195 9.23167 0.283186C9.28884 -0.0154867 9.54273 -0.00598631 9.78817 0.00319768C9.82486 0.00457142 9.86136 0.00593745 9.89698 0.00626931C10.1764 0.00879297 10.3338 0.0966738 10.3525 0.365371C10.3777 0.719565 10.4337 1.07221 10.4897 1.42505L10.4898 1.42605C10.5137 1.57672 10.5377 1.72742 10.5592 1.8783C10.592 1.87893 10.6249 1.8802 10.6578 1.88082C10.7442 1.78086 10.8299 1.68046 10.9156 1.58004L10.9209 1.5737C11.1244 1.33517 11.328 1.09659 11.5415 0.863568C12.0307 0.329338 12.4549 0.370434 12.7954 0.981162C12.8259 1.03617 12.8079 1.11899 12.7829 1.18095C12.7521 1.25903 12.7102 1.33421 12.6683 1.40948C12.6515 1.43965 12.6347 1.46984 12.6185 1.50023C12.3078 2.08377 12.1763 2.63508 13.0287 3.01505C13.0394 3.01978 13.0487 3.02648 13.0579 3.03511C13.0705 3.04689 13.0829 3.0623 13.0982 3.08133C13.1135 3.10047 13.1318 3.12326 13.1563 3.14971H13.157Z" fill="#368796"/>
<path d="M8.93188 16.3677C9.81558 15.7051 10.3196 14.9281 10.4629 14.05C10.5717 13.3835 10.603 12.7085 10.6342 12.0337C10.6473 11.7522 10.6603 11.4706 10.6789 11.1898L10.6889 11.0367C10.7169 10.6006 10.745 10.1626 10.8277 9.71036C11.3089 10.1465 11.9277 10.3315 12.5397 10.5145C12.8495 10.6071 13.1576 10.6992 13.4451 10.8231C13.739 10.9495 14.004 11.1199 14.2821 11.2987L14.2836 11.2996C14.4138 11.3834 14.5469 11.4689 14.6873 11.5527C14.6535 11.5009 14.624 11.4459 14.5946 11.3911C14.5292 11.2691 14.4642 11.1481 14.3546 11.0665C14.0705 10.8553 13.7402 10.6802 13.4107 10.5145C13.2299 10.4237 13.0426 10.3413 12.8554 10.259C12.6194 10.1553 12.3836 10.0516 12.1614 9.931C11.9313 9.80582 11.7231 9.6288 11.5704 9.44102C11.3607 9.18245 11.3685 8.91754 11.666 8.66907C12.4268 8.03305 13.3214 7.55192 14.2771 7.13402C14.4973 7.03764 14.6061 7.12718 14.7348 7.23301L14.7413 7.23833C15.697 8.02356 16.1885 8.99278 16.4703 10.0499C16.8155 11.3466 16.5619 12.5984 16.0751 13.8388C15.4363 15.4649 14.6082 17.0164 13.2306 18.3283C12.7649 18.7721 12.206 19.1761 11.6073 19.4992C10.4097 20.144 9.14793 20.1693 7.89086 19.5567C6.81618 19.0332 5.92621 18.3428 5.12002 17.5765C3.5984 16.13 2.39848 14.5324 1.51007 12.7678C0.700746 11.1607 1.12731 9.80392 2.51275 8.55211C4.29189 6.94435 6.48899 5.81582 8.85911 4.88391C10.6414 4.1834 12.4972 3.64601 14.4603 3.38048C14.9346 3.31599 15.416 3.27679 15.8958 3.25845C16.0304 3.2534 16.2394 3.33748 16.2981 3.42978C16.6144 3.92293 16.9032 4.42744 17.1818 4.93513C17.3345 5.21268 17.2335 5.39476 16.8515 5.51614C15.1288 6.06492 13.4482 6.6883 11.9775 7.61451C11.5391 7.8908 11.1384 8.21576 10.7721 8.55527C10.1929 9.09203 10.0363 9.72553 10.1389 10.4387C10.3659 12.0098 10.297 13.5714 9.6379 15.0818C9.51365 15.3662 9.35301 15.6402 9.18198 15.9319L9.18175 15.9323C9.09962 16.0723 9.01512 16.2164 8.93111 16.3677H8.93188Z" fill="#368796"/>
<path d="M0.833022 7.99195C0.707778 8.41302 0.706211 8.86317 0.954368 9.33039H0.955935C1.036 9.23391 1.10759 9.14003 1.17623 9.04999C1.31634 8.86624 1.4443 8.69846 1.60715 8.55716C2.27113 7.98146 2.95292 7.41928 3.6346 6.85722C3.77341 6.74278 3.91218 6.62835 4.0508 6.5138C4.18621 6.40126 4.26059 6.31718 4.17528 6.13636C3.58743 4.8934 4.0383 3.54232 5.33997 2.71094C5.61469 2.53518 5.71253 2.35436 5.7008 2.10084C5.69904 2.06272 5.69992 2.02361 5.7008 1.98443C5.70305 1.88325 5.70534 1.78154 5.66246 1.69495C5.59825 1.56597 5.47381 1.39021 5.33607 1.36177C4.51497 1.19422 3.68684 1.20686 2.87908 1.42941C2.78437 1.45533 2.65756 1.57546 2.66303 1.64564C2.72368 2.44598 2.44866 3.19028 2.17321 3.93576C2.10748 4.11366 2.04174 4.29162 1.98051 4.47043C1.57975 5.64006 1.18212 6.81158 0.833022 7.99195Z" fill="#368796"/>
</svg>
