<svg width="39" height="39" viewBox="0 0 39 39" fill="none" xmlns="http://www.w3.org/2000/svg">
<circle cx="19.5" cy="19.5" r="19" fill="#F0DFE2"/>
<path d="M28.2356 19.2757L25.7997 16.7998C25.7997 13.3204 22.9792 10.5 19.4999 10.5H17.9233C14.1694 10.5 10.8756 13.28 10.5316 17.0181C10.2611 19.957 11.7598 22.5697 14.0833 23.922C14.6437 24.2482 14.9999 24.8347 14.9999 25.4833V28.5H22.1595V25.8H23.9998C24.9939 25.8 25.7998 24.9941 25.7998 24V21.3L27.8175 20.7855C28.4962 20.6158 28.7303 19.7706 28.2356 19.2759L28.2356 19.2757ZM19.198 17.1659L16.3719 20.2726C16.0874 20.5852 15.6243 20.2759 15.7196 19.8371L16.3716 16.8399H14.6732C14.3101 16.8399 14.1417 16.322 14.4156 16.0483L17.1528 13.3128C17.4465 13.0193 17.8929 13.3429 17.7886 13.774L17.1567 16.3888H18.9265C19.2804 16.3888 19.4536 16.8848 19.1978 17.1661L19.198 17.1659Z" fill="#AB3449"/>
</svg>
