<svg width="16" height="17" viewBox="0 0 16 17" fill="none" xmlns="http://www.w3.org/2000/svg">
<path fill-rule="evenodd" clip-rule="evenodd" d="M14.0289 2.30655H13.3047V2.13813C13.3047 1.36339 12.6816 0.740234 11.9068 0.740234C11.1321 0.740234 10.5089 1.36339 10.5089 2.13813V2.30655H9.41419V2.13813C9.41419 1.36339 8.79103 0.740234 8.0163 0.740234C7.24156 0.740234 6.6184 1.36339 6.6184 2.13813V2.30655H5.52366V2.13813C5.52366 1.36339 4.90051 0.740234 4.12577 0.740234C3.35103 0.740234 2.72788 1.36339 2.72788 2.13813V2.30655H2.00366C1.06051 2.30655 0.302612 3.06445 0.302612 4.0076V15.0392C0.302612 15.9823 1.06051 16.7402 2.00366 16.7402H13.9952C14.9384 16.7402 15.6963 15.9823 15.6963 15.0392V4.02445C15.73 3.08129 14.9721 2.30655 14.0289 2.30655ZM11.4016 2.15497C11.4016 1.86866 11.6373 1.64971 11.9068 1.64971C12.1931 1.64971 12.4121 1.8855 12.4121 2.15497V3.3676C12.4121 3.65392 12.1763 3.87287 11.9068 3.87287C11.6205 3.87287 11.4016 3.63708 11.4016 3.3676V2.15497ZM7.52788 2.15497C7.52788 1.86866 7.76366 1.64971 8.03314 1.64971C8.31945 1.64971 8.5384 1.8855 8.5384 2.15497V3.3676C8.5384 3.65392 8.30261 3.87287 8.03314 3.87287C7.74682 3.87287 7.52788 3.63708 7.52788 3.3676V2.15497ZM3.63735 2.15497C3.63735 1.86866 3.87314 1.64971 4.14261 1.64971C4.42893 1.64971 4.64788 1.8855 4.64788 2.15497V3.3676C4.64788 3.65392 4.41209 3.87287 4.14261 3.87287C3.8563 3.87287 3.63735 3.63708 3.63735 3.3676V2.15497ZM14.8542 15.056C14.8542 15.5108 14.4837 15.8813 14.0289 15.8813H2.03735C1.58261 15.8813 1.21209 15.5108 1.21209 15.056V6.12971H14.8373V15.056H14.8542ZM11.149 14.0623C11.2669 14.1802 11.4016 14.2308 11.5532 14.2308C11.7048 14.2308 11.8395 14.1802 11.9574 14.0623L13.5069 12.5129C13.7258 12.2939 13.7258 11.9234 13.5069 11.7044C13.2879 11.4855 12.9174 11.4855 12.6985 11.7044L11.5532 12.8497L11.1321 12.4287C10.9132 12.2097 10.5427 12.2097 10.3237 12.4287C10.1048 12.6476 10.1048 13.0181 10.3237 13.2371L11.149 14.0623ZM5.10259 10.4581H3.36785C3.13206 10.4581 2.92996 10.256 2.92996 10.0202V8.26866C2.92996 8.03287 3.13206 7.83076 3.36785 7.83076H5.10259C5.33838 7.83076 5.54048 8.03287 5.54048 8.26866V10.0202C5.54048 10.256 5.33838 10.4581 5.10259 10.4581ZM7.1743 10.4581H8.90904C9.14483 10.4581 9.34693 10.256 9.34693 10.0202V8.26866C9.34693 8.03287 9.14483 7.83076 8.90904 7.83076H7.1743C6.93851 7.83076 6.73641 8.03287 6.73641 8.26866V10.0202C6.71956 10.256 6.92167 10.4581 7.1743 10.4581ZM12.6984 10.4581H10.9637C10.7279 10.4581 10.5258 10.256 10.5258 10.0202V8.26866C10.5258 8.03287 10.7279 7.83076 10.9637 7.83076H12.6984C12.9342 7.83076 13.1363 8.03287 13.1363 8.26866V10.0202C13.1363 10.256 12.9342 10.4581 12.6984 10.4581ZM3.36785 14.1971H5.10259C5.33838 14.1971 5.54048 13.995 5.54048 13.7592V12.0076C5.54048 11.7718 5.33838 11.5697 5.10259 11.5697H3.36785C3.13206 11.5697 2.92996 11.7718 2.92996 12.0076V13.7592C2.92996 13.995 3.13206 14.1971 3.36785 14.1971ZM8.90904 14.1971H7.1743C6.92167 14.1971 6.71956 13.995 6.73641 13.7592V12.0076C6.73641 11.7718 6.93851 11.5697 7.1743 11.5697H8.90904C9.14483 11.5697 9.34693 11.7718 9.34693 12.0076V13.7592C9.34693 13.995 9.14483 14.1971 8.90904 14.1971Z" fill="#368796"/>
</svg>
