<svg width="28" height="20" viewBox="0 0 28 20" fill="none" xmlns="http://www.w3.org/2000/svg">
<mask id="mask0_16491_2330" style="mask-type:luminance" maskUnits="userSpaceOnUse" x="0" y="0" width="28" height="19">
<path d="M27.6555 0.178284H0.117188V18.845H27.6555V0.178284Z" fill="white"/>
</mask>
<g mask="url(#mask0_16491_2330)">
<path d="M27.6554 6.93133C27.6416 7.10303 27.6203 7.27554 27.5913 7.4487C27.0443 10.7163 23.9518 12.9219 20.684 12.3748C17.4166 11.8277 15.2109 8.73521 15.7581 5.46744C16.3052 2.19983 19.3977 -0.00580901 22.6653 0.541386C22.8383 0.570246 23.0083 0.606401 23.175 0.649366C20.9212 0.660229 18.9353 2.2903 18.5505 4.58869C18.1204 7.15848 19.8547 9.59046 22.4245 10.0206C24.7229 10.4053 26.911 9.05867 27.6554 6.93117V6.93133Z" fill="#FFAA00"/>
<path fill-rule="evenodd" clip-rule="evenodd" d="M3.60479 11.4279C1.68207 11.4279 0.117188 12.9977 0.117188 14.9279C0.117188 16.8569 1.68207 18.4273 3.60479 18.4273H18.7683C21.1824 18.4273 23.1456 16.4563 23.1456 14.0337C23.1456 11.6111 21.1824 9.64006 18.7683 9.64006C18.3192 9.64006 17.8725 9.70974 17.4422 9.84606L17.1617 9.93552L17.0626 9.6569C16.136 7.0421 13.659 5.28552 10.8998 5.28552C7.52638 5.28552 4.72664 7.82223 4.38693 11.1859L4.3555 11.4976L4.04602 11.4591C3.87437 11.4375 3.73413 11.4279 3.60479 11.4279Z" fill="#EDF3F9"/>
</g>
<mask id="mask1_16491_2330" style="mask-type:luminance" maskUnits="userSpaceOnUse" x="0" y="5" width="24" height="14">
<path fill-rule="evenodd" clip-rule="evenodd" d="M3.60479 11.428C1.68207 11.428 0.117188 12.9978 0.117188 14.9279C0.117188 16.8569 1.68207 18.4274 3.60479 18.4274H18.7683C21.1824 18.4274 23.1456 16.4563 23.1456 14.0338C23.1456 11.6111 21.1824 9.64012 18.7683 9.64012C18.3192 9.64012 17.8725 9.70981 17.4422 9.84612L17.1617 9.93558L17.0626 9.65696C16.136 7.04216 13.659 5.28558 10.8998 5.28558C7.52638 5.28558 4.72664 7.82229 4.38693 11.1859L4.3555 11.4976L4.04602 11.4592C3.87437 11.4376 3.73413 11.428 3.60479 11.428Z" fill="white"/>
</mask>
<g mask="url(#mask1_16491_2330)">
<path d="M17.0608 9.65696L16.223 9.95385L16.2234 9.95487L17.0608 9.65696Z" fill="#2D79B6"/>
<path d="M-0.773438 14.9279C-0.773438 17.345 1.18655 19.3162 3.60305 19.3162V17.5385C2.17413 17.5385 1.00434 16.3689 1.00434 14.9279H-0.773438Z" fill="#2D79B6"/>
<path d="M3.60305 19.3162H18.7666V17.5385H3.60305V19.3162Z" fill="#2D79B6"/>
<path d="M18.7666 19.3162C21.6748 19.3162 24.0328 16.9441 24.0328 14.0338H22.255C22.255 15.9686 20.6866 17.5385 18.7666 17.5385V19.3162Z" fill="#2D79B6"/>
<path d="M24.0328 14.0338C24.0328 11.1234 21.6748 8.75122 18.7666 8.75122V10.529C20.6866 10.529 22.255 12.0989 22.255 14.0338H24.0328Z" fill="#2D79B6"/>
<path fill-rule="evenodd" clip-rule="evenodd" d="M18.7666 8.75122C18.2253 8.75122 17.6882 8.83522 17.172 8.99873L17.7089 10.6935C18.0534 10.5844 18.4096 10.529 18.7666 10.529V8.75122ZM17.9974 9.63767L17.8983 9.35905L16.2234 9.95487L16.3225 10.2335L17.9974 9.63767ZM17.8987 9.36002C16.8472 6.39291 14.0363 4.39667 10.898 4.39667V6.17447C13.2782 6.17447 15.4213 7.69144 16.223 9.95385L17.8987 9.36002Z" fill="#2D79B6"/>
<path fill-rule="evenodd" clip-rule="evenodd" d="M17.1702 8.99927L16.8898 9.08878L17.4301 10.7824L17.7106 10.693L17.1702 8.99927ZM17.4404 9.84611L17.172 8.99873L17.1702 8.99927L17.4404 9.84611ZM17.16 9.93558L16.3225 10.2335L16.6107 11.0438L17.4301 10.7824L17.16 9.93558Z" fill="#2D79B6"/>
<path fill-rule="evenodd" clip-rule="evenodd" d="M10.898 4.39667C7.06664 4.39667 3.88618 7.2806 3.5008 11.0966L5.26957 11.2753C5.56357 8.36393 7.98264 6.17447 10.898 6.17447V4.39667ZM3.60305 10.5391C1.18655 10.5391 -0.773438 12.5098 -0.773438 14.9279H1.00434C1.00434 13.4858 2.17413 12.3169 3.60305 12.3169V10.5391ZM4.4633 10.6155L4.15384 10.5771L3.93474 12.3413L4.24421 12.3798L4.4633 10.6155ZM4.15536 10.5773C3.95619 10.5522 3.77788 10.5391 3.60305 10.5391V12.3169C3.68692 12.3169 3.78907 12.323 3.93322 12.3411L4.15536 10.5773Z" fill="#2D79B6"/>
<path fill-rule="evenodd" clip-rule="evenodd" d="M3.5008 11.0966L3.46936 11.4084L5.23815 11.5868L5.26957 11.2753L3.5008 11.0966ZM4.35376 11.4976L4.24421 12.3798L5.14691 12.4918L5.23815 11.5868L4.35376 11.4976ZM4.04429 11.4592L3.93322 12.3411L3.93474 12.3413L4.04429 11.4592Z" fill="#2D79B6"/>
</g>
</svg>
