<svg width="63" height="43" viewBox="0 0 63 43" fill="none" xmlns="http://www.w3.org/2000/svg">
<g clip-path="url(#clip0_733_10060)">
<path fill-rule="evenodd" clip-rule="evenodd" d="M41.2435 12.1191C46.5882 12.1232 50.9171 16.4309 50.913 21.7413C50.9089 27.0516 46.5733 31.3526 41.2286 31.3485C35.8838 31.3445 31.555 27.0367 31.5591 21.7264C31.5632 16.4161 35.8988 12.1151 41.2435 12.1191" fill="#F9C900"/>
<path fill-rule="evenodd" clip-rule="evenodd" d="M37.4581 9.01811C38.0728 8.86407 38.4835 8.31547 38.4835 7.71282C38.4835 7.60337 38.4699 7.49257 38.4427 7.38177L36.9304 1.42148C36.7482 0.699926 36.0097 0.262127 35.2835 0.443192C34.5572 0.625608 34.1166 1.35663 34.2988 2.07953L35.8111 8.03982C35.9934 8.76273 36.7318 9.20053 37.4581 9.01811ZM32.1806 11.4601C32.1806 11.7979 32.0541 12.1357 31.7984 12.3965C31.2776 12.9316 30.4181 12.9451 29.8795 12.4276L25.4364 8.15095C24.8979 7.63343 24.8843 6.7808 25.4052 6.24572C25.926 5.71063 26.7855 5.69712 27.3241 6.21464L31.7672 10.4899C32.0432 10.7548 32.1806 11.1074 32.1806 11.4601ZM28.6844 18.3603C28.7143 18.2468 28.7279 18.1346 28.7279 18.0238C28.7279 17.4225 28.3213 16.8753 27.7093 16.7185L21.7185 15.1862C20.9923 15.0011 20.2525 15.4348 20.0662 16.1551C19.8799 16.8753 20.3164 17.6117 21.0413 17.7968L27.0334 19.3291C27.7582 19.5142 28.4981 19.0805 28.6844 18.3603ZM28.5377 25.5758C28.5377 26.1758 28.131 26.7217 27.5204 26.8784L21.531 28.4175C20.8062 28.604 20.065 28.1702 19.8773 27.45C19.691 26.7298 20.1262 25.9934 20.8524 25.8069L26.8418 24.2692C27.5666 24.0827 28.3065 24.5151 28.4942 25.2367C28.5241 25.3502 28.5377 25.4637 28.5377 25.5758ZM31.7761 33.1111C32.0671 32.8462 32.214 32.4841 32.214 32.1206C32.214 31.7936 32.0957 31.4653 31.855 31.2072C31.3477 30.6586 30.4895 30.6248 29.9374 31.1288L25.3883 35.2933C24.8375 35.7987 24.8021 36.6513 25.3107 37.1985C25.818 37.7458 26.6762 37.7809 27.2269 37.2769L31.7761 33.1111ZM38.89 34.9072C38.9213 34.7897 38.9363 34.6735 38.9363 34.5573C38.9363 33.9627 38.5378 33.4168 37.9312 33.2547C37.2077 33.0628 36.4638 33.4884 36.2693 34.2073L34.6632 40.1432C34.4687 40.8621 34.8971 41.6012 35.622 41.7945C36.3455 41.9877 37.0894 41.562 37.2839 40.8432L38.89 34.9072ZM47.5659 2.19187C47.5659 2.30538 47.551 2.42023 47.521 2.53509L45.9489 8.47916C45.7585 9.19936 45.016 9.62905 44.2911 9.43988C43.5676 9.25071 43.1337 8.51294 43.3241 7.79408L44.8963 1.84866C45.0867 1.1298 45.8292 0.698761 46.5541 0.887934C47.1634 1.04738 47.5659 1.59328 47.5659 2.19187ZM56.9375 8.3404C57.2462 8.07421 57.404 7.69992 57.404 7.32428C57.404 7.01079 57.2952 6.6946 57.0708 6.43922C56.5785 5.87711 55.7217 5.81765 55.1573 6.3068L50.4898 10.3402C49.9241 10.8294 49.8642 11.6807 50.3565 12.2428C50.8475 12.8035 51.7056 12.863 52.27 12.3752L56.9375 8.3404ZM62.214 16.3199C62.214 16.9117 61.8183 17.4536 61.2158 17.6184L55.2509 19.2439C54.5274 19.4412 53.7808 19.0196 53.5836 18.3008C53.385 17.5819 53.8093 16.8414 54.5328 16.6442L60.4977 15.0186C61.2212 14.8214 61.9665 15.2429 62.1651 15.9618C62.1977 16.0807 62.214 16.201 62.214 16.3199ZM62.0679 27.1654C62.0978 27.0519 62.1114 26.9397 62.1114 26.8289C62.1114 26.2276 61.7048 25.6804 61.0928 25.5236L55.1021 23.9913C54.3758 23.8062 53.636 24.2399 53.4497 24.9601C53.262 25.6817 53.6999 26.4168 54.4248 26.6019L60.4169 28.1342C61.1417 28.3193 61.8816 27.8856 62.0679 27.1654ZM57.0455 36.0849C57.0455 36.4349 56.9095 36.7835 56.6375 37.047C56.1016 37.5685 55.2421 37.5591 54.7185 37.0267L50.3938 32.6311C49.8702 32.0987 49.8797 31.2461 50.4156 30.7259C50.9514 30.2043 51.8109 30.2138 52.3345 30.7462L56.6592 35.1417C56.9176 35.4039 57.0455 35.7444 57.0455 36.0849ZM46.7016 42.3557C47.3068 42.1935 47.7053 41.6503 47.7053 41.0558C47.7053 40.9396 47.6903 40.8207 47.6577 40.7031L46.0488 34.7685C45.8544 34.0497 45.1091 33.624 44.3856 33.8173C43.6621 34.0118 43.2337 34.751 43.4282 35.4698L45.0384 41.4044C45.2329 42.1233 45.9781 42.5489 46.7016 42.3557Z" fill="#F9C900"/>
<mask id="path-3-inside-1_733_10060" fill="white">
<path fill-rule="evenodd" clip-rule="evenodd" d="M8.10003 25.714C3.77392 25.714 0.25293 29.2461 0.25293 33.5889C0.25293 37.9291 3.77392 41.4626 8.10003 41.4626H42.2179C47.6497 41.4626 52.0669 37.0278 52.0669 31.577C52.0669 26.1261 47.6497 21.6913 42.2179 21.6913C41.2074 21.6913 40.2024 21.8481 39.2341 22.1548L38.6031 22.3561L38.38 21.7292C36.2952 15.8459 30.722 11.8936 24.5137 11.8936C16.9236 11.8936 10.6242 17.6012 9.85984 25.1694L9.78913 25.8707L9.09281 25.7842C8.70658 25.7356 8.39106 25.714 8.10003 25.714"/>
</mask>
<path fill-rule="evenodd" clip-rule="evenodd" d="M8.10003 25.714C3.77392 25.714 0.25293 29.2461 0.25293 33.5889C0.25293 37.9291 3.77392 41.4626 8.10003 41.4626H42.2179C47.6497 41.4626 52.0669 37.0278 52.0669 31.577C52.0669 26.1261 47.6497 21.6913 42.2179 21.6913C41.2074 21.6913 40.2024 21.8481 39.2341 22.1548L38.6031 22.3561L38.38 21.7292C36.2952 15.8459 30.722 11.8936 24.5137 11.8936C16.9236 11.8936 10.6242 17.6012 9.85984 25.1694L9.78913 25.8707L9.09281 25.7842C8.70658 25.7356 8.39106 25.714 8.10003 25.714" fill="#EDF3F9"/>
<path d="M39.2341 22.1548L38.6301 20.2482L38.6262 20.2494L39.2341 22.1548ZM38.6031 22.3561L36.7187 23.0265L37.3673 24.8497L39.211 24.2615L38.6031 22.3561ZM38.38 21.7292L36.4949 22.3972L36.4957 22.3995L38.38 21.7292ZM9.85984 25.1694L7.86997 24.9685L7.86994 24.9687L9.85984 25.1694ZM9.78913 25.8707L9.54263 27.8555L11.5737 28.1077L11.779 26.0714L9.78913 25.8707ZM9.09281 25.7842L8.8429 27.7685L8.84632 27.769L9.09281 25.7842ZM8.10003 23.714C2.6629 23.714 -1.74707 28.148 -1.74707 33.5889H2.25293C2.25293 30.3442 4.88495 27.714 8.10003 27.714V23.714ZM-1.74707 33.5889C-1.74707 39.0272 2.6629 43.4626 8.10003 43.4626V39.4626C4.88495 39.4626 2.25293 36.831 2.25293 33.5889H-1.74707ZM8.10003 43.4626H42.2179V39.4626H8.10003V43.4626ZM42.2179 43.4626C48.7614 43.4626 54.0669 38.1252 54.0669 31.577H50.0669C50.0669 35.9304 46.538 39.4626 42.2179 39.4626V43.4626ZM54.0669 31.577C54.0669 25.0287 48.7614 19.6913 42.2179 19.6913V23.6913C46.538 23.6913 50.0669 27.2235 50.0669 31.577H54.0669ZM42.2179 19.6913C41.0002 19.6913 39.7916 19.8803 38.6301 20.2482L39.8381 24.0614C40.6133 23.8159 41.4147 23.6913 42.2179 23.6913V19.6913ZM38.6262 20.2494L37.9952 20.4508L39.211 24.2615L39.842 24.0602L38.6262 20.2494ZM40.4874 21.6858L40.2644 21.0589L36.4957 22.3995L36.7187 23.0265L40.4874 21.6858ZM40.2652 21.0611C37.8994 14.3851 31.5749 9.89355 24.5137 9.89355V13.8936C29.869 13.8936 34.691 17.3068 36.4949 22.3972L40.2652 21.0611ZM24.5137 9.89355C15.8931 9.89355 8.73706 16.3824 7.86997 24.9685L11.8497 25.3704C12.5112 18.8199 17.9541 13.8936 24.5137 13.8936V9.89355ZM7.86994 24.9687L7.79922 25.67L11.779 26.0714L11.8498 25.3701L7.86994 24.9687ZM10.0356 23.8859L9.33931 23.7995L8.84632 27.769L9.54263 27.8555L10.0356 23.8859ZM9.34273 23.7999C8.89459 23.7435 8.49339 23.714 8.10003 23.714V27.714C8.28873 27.714 8.51857 27.7277 8.8429 27.7685L9.34273 23.7999Z" fill="#368796" mask="url(#path-3-inside-1_733_10060)"/>
</g>
<defs>
<clipPath id="clip0_733_10060">
<rect width="61.9613" height="42" fill="white" transform="translate(0.25293 0.402344)"/>
</clipPath>
</defs>
</svg>
