<svg width="24" height="25" viewBox="0 0 24 25" fill="none" xmlns="http://www.w3.org/2000/svg">
<path d="M16.1794 2.79619C16.1794 4.06964 15.1471 5.10202 13.8736 5.10202C12.6001 5.10202 11.5677 4.06964 11.5677 2.79619C11.5677 1.52271 12.6001 0.490356 13.8736 0.490356C15.1471 0.490356 16.1794 1.52271 16.1794 2.79619Z" fill="#796AC8"/>
<path d="M12.9758 14.5541L15.9693 17.5078C16.0841 17.6211 16.1738 17.7572 16.2327 17.9073L17.8291 21.9745C18.0617 22.5673 17.7698 23.2364 17.1771 23.469C16.5844 23.7016 15.9153 23.4097 15.6827 22.817L14.1757 18.9774L9.02861 13.8987C8.77681 13.6502 8.65299 13.2999 8.69276 12.9484L9.10504 9.30549C8.11129 10.2928 7.34471 11.6819 6.75725 13.5223C6.56367 14.1289 5.91498 14.4637 5.30837 14.2701C4.70177 14.0764 4.36702 13.4277 4.56065 12.8212C5.63874 9.44343 7.4287 6.9152 10.4318 5.75577L10.4455 5.75059C11.2103 5.46639 12.006 5.48928 12.7147 5.85567C13.3958 6.20777 13.8806 6.81588 14.1981 7.49743C14.3317 7.78439 14.4553 8.05256 14.5714 8.3043C14.8526 8.91407 15.0894 9.42781 15.3166 9.87929C15.6359 10.5136 15.8924 10.9335 16.1459 11.2289C16.3809 11.5027 16.6148 11.6709 16.9128 11.7872C17.2332 11.9123 17.6822 11.9985 18.3756 12.0193C19.0121 12.0384 19.5125 12.5699 19.4935 13.2063C19.4743 13.8427 18.9429 14.3432 18.3065 14.3241C17.4735 14.2992 16.7339 14.1928 16.074 13.9351C15.3917 13.6686 14.8538 13.2637 14.3963 12.7308C14.1078 12.3947 13.8548 12.0114 13.6176 11.5941L12.9758 14.5541Z" fill="#796AC8"/>
<path d="M8.69268 15.605L10.6037 17.4379L9.72436 20.4053C9.65628 20.6349 9.51845 20.8376 9.32989 20.9852L6.37001 23.304C5.86878 23.6966 5.14411 23.6086 4.75143 23.1074C4.35875 22.6061 4.44677 21.8815 4.94806 21.4888L7.61816 19.3971L8.42272 16.682L8.69268 15.605Z" fill="#796AC8"/>
</svg>
