<svg width="22" height="22" viewBox="0 0 22 22" fill="none" xmlns="http://www.w3.org/2000/svg">
<path d="M21.3222 19.9314C21.0351 19.2057 20.0585 16.8043 19.5544 16.3762C18.696 15.6472 17.4583 15.4393 16.3663 15.2556C16.0123 15.1961 15.6667 15.1379 15.3602 15.0655C16.244 14.9455 17.4751 14.7834 18.3671 14.6676C18.4683 14.6543 18.5589 14.599 18.6145 14.5161C18.6701 14.4333 18.6855 14.3307 18.6564 14.236C17.4295 10.2197 17.4339 9.76635 17.4547 7.58634C17.458 7.26231 17.4615 6.90124 17.4615 6.48609C17.4614 3.66724 14.6388 0.390625 10.9999 0.390625C9.49411 0.390625 8.08373 0.987567 6.92055 2.11675C5.62623 3.37345 4.76123 5.22306 4.76785 6.71886C4.77755 8.88106 4.65451 11.6803 3.60955 14.1564C3.56897 14.2521 3.57624 14.3606 3.62879 14.4504C3.68118 14.5405 3.7735 14.6024 3.87892 14.6185C4.72145 14.7476 5.8966 14.932 6.7325 15.0702C6.40654 15.1416 6.03174 15.1937 5.64742 15.247C4.49363 15.407 3.18557 15.588 2.33626 16.3876C1.87594 16.8207 0.948975 19.213 0.675915 19.9359C0.636787 20.0397 0.65247 20.1555 0.71779 20.246C0.783111 20.3365 0.890472 20.3906 1.00478 20.3906L2.1863 20.6575C7.989 21.9683 14.011 21.9683 19.8137 20.6574L20.9949 20.3906C21.11 20.3906 21.2181 20.3358 21.2835 20.2439C21.3489 20.1519 21.3633 20.0357 21.3222 19.9314ZM6.51895 7.7361C6.70861 7.58166 7.1652 7.1434 7.52514 6.27211C7.83267 5.52747 7.96575 4.91537 8.01861 4.46552C8.40084 5.07182 9.10609 5.92842 10.399 6.31965C12.8402 7.0582 14.511 5.85183 15.589 7.39677L15.5908 7.50837C15.5908 11.2334 13.5327 14.2637 11.003 14.2637C8.67715 14.2637 6.55703 11.1639 6.51895 7.7361Z" fill="#EB47CF"/>
</svg>
