<svg width="39" height="38" viewBox="0 0 39 38" fill="none" xmlns="http://www.w3.org/2000/svg">
<circle cx="19.5" cy="19" r="19" fill="#DAEEF1"/>
<path d="M26.5002 28V10C26.5002 9.44883 26.0514 9 25.5002 9H13.5C12.9488 9 12.5 9.44883 12.5 10V28C12.5 28.5512 12.9488 29 13.5 29H25.5002C26.0514 29 26.5002 28.5512 26.5002 28ZM18.7954 26.7087L16.7954 24.7087C16.5985 24.5118 16.2442 23.8465 16.7954 23.2953C17.1851 22.9055 17.819 22.9055 18.2088 23.2953L18.5001 23.5866V14.4135L18.2048 14.7087C17.8151 15.0985 17.1812 15.0985 16.7914 14.7087C16.1694 14.0867 16.5946 13.4883 16.7914 13.2953L18.7914 11.2953C18.9804 11.1103 19.2324 11.004 19.5001 11.004C19.7639 11.004 20.0198 11.1103 20.2088 11.2953L22.2088 13.2953C22.5985 13.6851 22.5985 14.319 22.2088 14.7087C21.819 15.0985 21.1851 15.0985 20.7954 14.7087L20.504 14.4174V23.5866L20.7954 23.2952C21.1851 22.9055 21.819 22.9055 22.2088 23.2952C22.5985 23.685 22.5985 24.3189 22.2088 24.7086L20.2088 26.7086C19.8151 27.0984 19.1851 27.0984 18.7954 26.7087Z" fill="#368796"/>
</svg>
