<svg _ngcontent-vyv-c420="" width="16" height="21" viewBox="0 0 16 21" fill="none" xmlns="http://www.w3.org/2000/svg" class="ng-star-inserted"><path _ngcontent-vyv-c420="" d="M15.249 14.3294C15.249 17.2927 13.026 19.8194 10.1869 20.0826C8.60149 20.2302 7.08029 19.7317 5.90998 18.6833C5.02635 17.8939 4.38664 16.9204 3.70627 15.8891C3.55651 15.6602 3.40246 15.4291 3.24842 15.1981C2.52954 14.139 1.77856 13.0008 1.17308 11.7984C1.04685 11.548 0.986944 11.3512 0.986944 11.1929C0.986944 10.9661 1.08536 10.75 1.25652 10.6067C1.57959 10.3371 2.0674 10.3799 2.33698 10.7008L5.1804 14.0919C5.31733 14.2567 5.54412 14.3166 5.74523 14.2438C5.94635 14.1711 6.08114 13.9785 6.08114 13.7646V3.61471C6.08114 3.22959 6.31862 2.89155 6.64597 2.81239C6.89202 2.75248 7.12736 2.80383 7.31564 2.95145C7.50178 3.09694 7.60876 3.31517 7.60876 3.55266V9.41066C7.60876 9.69094 7.83768 9.91987 8.11796 9.91987C8.39824 9.91987 8.62717 9.69094 8.62717 9.41066V1.57574C8.62717 1.19063 8.86465 0.854725 9.19414 0.773424C9.43804 0.715657 9.67553 0.764866 9.86381 0.912492C10.0478 1.06012 10.1548 1.27835 10.1548 1.5137V9.41066C10.1548 9.69094 10.3837 9.91987 10.664 9.91987C10.9443 9.91987 11.1753 9.69094 11.1753 9.41066V2.53425C11.1753 2.29676 11.2802 2.07853 11.4663 1.93304C11.6546 1.78328 11.8921 1.73407 12.136 1.79397C12.4633 1.87314 12.703 2.20904 12.703 2.59415V9.91987C12.703 10.2001 12.9297 10.4291 13.2122 10.4291C13.4946 10.4291 13.7214 10.2001 13.7214 9.91987V5.58948C13.7214 5.38409 13.8005 5.19153 13.9439 5.04818C14.1279 4.86418 14.3932 4.7893 14.6563 4.84279C14.9559 4.90697 15.249 5.30707 15.249 5.64939V14.3294Z" fill="#43BC94"></path><path _ngcontent-vyv-c420="" fill-rule="evenodd" clip-rule="evenodd" d="M5.1804 14.0919C5.31733 14.2567 5.54412 14.3166 5.74523 14.2438C5.94635 14.1711 6.08114 13.9785 6.08114 13.7646V3.61471C6.08114 3.22959 6.31862 2.89155 6.64597 2.81239C6.89202 2.75248 7.12736 2.80383 7.31564 2.95145C7.50178 3.09694 7.60876 3.31517 7.60876 3.55266V9.41066C7.60876 9.69094 7.83768 9.91987 8.11796 9.91987C8.39824 9.91987 8.62717 9.69094 8.62717 9.41066V1.57574C8.62717 1.19063 8.86465 0.854725 9.19414 0.773424C9.43804 0.715657 9.67553 0.764866 9.86381 0.912492C10.0478 1.06012 10.1548 1.27835 10.1548 1.5137V9.41066C10.1548 9.69094 10.3837 9.91987 10.664 9.91987C10.9443 9.91987 11.1753 9.69094 11.1753 9.41066V2.53425C11.1753 2.29676 11.2802 2.07853 11.4663 1.93304C11.6546 1.78328 11.8921 1.73407 12.136 1.79397C12.4633 1.87314 12.703 2.20904 12.703 2.59415V9.91987C12.703 10.2001 12.9297 10.4291 13.2122 10.4291C13.4946 10.4291 13.7214 10.2001 13.7214 9.91987V5.58948C13.7214 5.38409 13.8005 5.19153 13.9439 5.04818C14.1279 4.86418 14.3932 4.7893 14.6563 4.84279C14.9559 4.90697 15.249 5.30707 15.249 5.64939V14.3294C15.249 17.2927 13.026 19.8194 10.1869 20.0826C8.60149 20.2302 7.08029 19.7317 5.90998 18.6833C5.03246 17.8993 4.39549 16.9338 3.72037 15.9105L3.70627 15.8891C3.55655 15.6603 3.40256 15.4293 3.24856 15.1983L3.24842 15.1981C2.52954 14.139 1.77856 13.0008 1.17308 11.7984C1.04685 11.548 0.986944 11.3512 0.986944 11.1929C0.986944 10.9661 1.08536 10.75 1.25652 10.6067C1.57959 10.3371 2.0674 10.3799 2.33698 10.7008L5.1804 14.0919ZM0.886443 11.9427C0.752037 11.6761 0.666016 11.4257 0.666016 11.1929C0.666016 10.8743 0.804063 10.567 1.05046 10.3606L1.05091 10.3602C1.50915 9.97787 2.1989 10.0375 2.58272 10.4944L2.5829 10.4946L5.42721 13.8868C5.47646 13.9461 5.56031 13.9695 5.63608 13.942C5.70974 13.9154 5.76021 13.8438 5.76021 13.7646V3.61471C5.76021 3.11166 6.07167 2.62118 6.57037 2.50049C6.90924 2.41808 7.24595 2.48899 7.51366 2.6989C7.77718 2.90506 7.92968 3.21632 7.92968 3.55266V9.41066C7.92968 9.5137 8.01493 9.59894 8.11796 9.59894C8.22099 9.59894 8.30624 9.5137 8.30624 9.41066V1.57574C8.30624 1.07056 8.61931 0.584711 9.11725 0.461842L9.12017 0.461122C9.4537 0.382129 9.79243 0.44871 10.0618 0.659942L10.0632 0.66105L10.0646 0.662174C10.3228 0.869287 10.4757 1.17876 10.4757 1.5137V9.41066C10.4757 9.5137 10.561 9.59894 10.664 9.59894C10.7688 9.59894 10.8544 9.51195 10.8544 9.41066V2.53425C10.8544 2.20022 11.0029 1.88843 11.2676 1.68103C11.5374 1.46699 11.8773 1.40014 12.212 1.48217C12.7083 1.60251 13.0239 2.08876 13.0239 2.59415V9.91987C13.0239 10.0238 13.1079 10.1081 13.2122 10.1081C13.3165 10.1081 13.4004 10.0238 13.4004 9.91987V5.58948C13.4004 5.30022 13.5125 5.02566 13.7169 4.82125C13.9816 4.55663 14.358 4.45466 14.7203 4.52829L14.7219 4.52863L14.7236 4.52899C14.9772 4.58334 15.186 4.76425 15.3237 4.95188C15.4639 5.14288 15.5699 5.39349 15.5699 5.64939V14.3294C15.5699 17.4481 13.2308 20.1228 10.2165 20.4021C8.54351 20.5579 6.93381 20.0312 5.69615 18.9227C4.78735 18.1107 4.13063 17.1152 3.46323 16.1035L3.43771 16.0648C3.28909 15.8376 3.13609 15.6081 2.98217 15.3773C2.26308 14.3179 1.50194 13.165 0.886443 11.9427Z" fill="#43BC94"></path><svg _ngcontent-vyv-c420="" width="16" height="21" viewBox="0 0 16 21" fill="none" xmlns="http://www.w3.org/2000/svg" class="ng-star-inserted"><path _ngcontent-vyv-c420="" d="M15.249 14.3294C15.249 17.2927 13.026 19.8194 10.1869 20.0826C8.60149 20.2302 7.08029 19.7317 5.90998 18.6833C5.02635 17.8939 4.38664 16.9204 3.70627 15.8891C3.55651 15.6602 3.40246 15.4291 3.24842 15.1981C2.52954 14.139 1.77856 13.0008 1.17308 11.7984C1.04685 11.548 0.986944 11.3512 0.986944 11.1929C0.986944 10.9661 1.08536 10.75 1.25652 10.6067C1.57959 10.3371 2.0674 10.3799 2.33698 10.7008L5.1804 14.0919C5.31733 14.2567 5.54412 14.3166 5.74523 14.2438C5.94635 14.1711 6.08114 13.9785 6.08114 13.7646V3.61471C6.08114 3.22959 6.31862 2.89155 6.64597 2.81239C6.89202 2.75248 7.12736 2.80383 7.31564 2.95145C7.50178 3.09694 7.60876 3.31517 7.60876 3.55266V9.41066C7.60876 9.69094 7.83768 9.91987 8.11796 9.91987C8.39824 9.91987 8.62717 9.69094 8.62717 9.41066V1.57574C8.62717 1.19063 8.86465 0.854725 9.19414 0.773424C9.43804 0.715657 9.67553 0.764866 9.86381 0.912492C10.0478 1.06012 10.1548 1.27835 10.1548 1.5137V9.41066C10.1548 9.69094 10.3837 9.91987 10.664 9.91987C10.9443 9.91987 11.1753 9.69094 11.1753 9.41066V2.53425C11.1753 2.29676 11.2802 2.07853 11.4663 1.93304C11.6546 1.78328 11.8921 1.73407 12.136 1.79397C12.4633 1.87314 12.703 2.20904 12.703 2.59415V9.91987C12.703 10.2001 12.9297 10.4291 13.2122 10.4291C13.4946 10.4291 13.7214 10.2001 13.7214 9.91987V5.58948C13.7214 5.38409 13.8005 5.19153 13.9439 5.04818C14.1279 4.86418 14.3932 4.7893 14.6563 4.84279C14.9559 4.90697 15.249 5.30707 15.249 5.64939V14.3294Z" fill="#43BC94"></path><path _ngcontent-vyv-c420="" fill-rule="evenodd" clip-rule="evenodd" d="M5.1804 14.0919C5.31733 14.2567 5.54412 14.3166 5.74523 14.2438C5.94635 14.1711 6.08114 13.9785 6.08114 13.7646V3.61471C6.08114 3.22959 6.31862 2.89155 6.64597 2.81239C6.89202 2.75248 7.12736 2.80383 7.31564 2.95145C7.50178 3.09694 7.60876 3.31517 7.60876 3.55266V9.41066C7.60876 9.69094 7.83768 9.91987 8.11796 9.91987C8.39824 9.91987 8.62717 9.69094 8.62717 9.41066V1.57574C8.62717 1.19063 8.86465 0.854725 9.19414 0.773424C9.43804 0.715657 9.67553 0.764866 9.86381 0.912492C10.0478 1.06012 10.1548 1.27835 10.1548 1.5137V9.41066C10.1548 9.69094 10.3837 9.91987 10.664 9.91987C10.9443 9.91987 11.1753 9.69094 11.1753 9.41066V2.53425C11.1753 2.29676 11.2802 2.07853 11.4663 1.93304C11.6546 1.78328 11.8921 1.73407 12.136 1.79397C12.4633 1.87314 12.703 2.20904 12.703 2.59415V9.91987C12.703 10.2001 12.9297 10.4291 13.2122 10.4291C13.4946 10.4291 13.7214 10.2001 13.7214 9.91987V5.58948C13.7214 5.38409 13.8005 5.19153 13.9439 5.04818C14.1279 4.86418 14.3932 4.7893 14.6563 4.84279C14.9559 4.90697 15.249 5.30707 15.249 5.64939V14.3294C15.249 17.2927 13.026 19.8194 10.1869 20.0826C8.60149 20.2302 7.08029 19.7317 5.90998 18.6833C5.03246 17.8993 4.39549 16.9338 3.72037 15.9105L3.70627 15.8891C3.55655 15.6603 3.40256 15.4293 3.24856 15.1983L3.24842 15.1981C2.52954 14.139 1.77856 13.0008 1.17308 11.7984C1.04685 11.548 0.986944 11.3512 0.986944 11.1929C0.986944 10.9661 1.08536 10.75 1.25652 10.6067C1.57959 10.3371 2.0674 10.3799 2.33698 10.7008L5.1804 14.0919ZM0.886443 11.9427C0.752037 11.6761 0.666016 11.4257 0.666016 11.1929C0.666016 10.8743 0.804063 10.567 1.05046 10.3606L1.05091 10.3602C1.50915 9.97787 2.1989 10.0375 2.58272 10.4944L2.5829 10.4946L5.42721 13.8868C5.47646 13.9461 5.56031 13.9695 5.63608 13.942C5.70974 13.9154 5.76021 13.8438 5.76021 13.7646V3.61471C5.76021 3.11166 6.07167 2.62118 6.57037 2.50049C6.90924 2.41808 7.24595 2.48899 7.51366 2.6989C7.77718 2.90506 7.92968 3.21632 7.92968 3.55266V9.41066C7.92968 9.5137 8.01493 9.59894 8.11796 9.59894C8.22099 9.59894 8.30624 9.5137 8.30624 9.41066V1.57574C8.30624 1.07056 8.61931 0.584711 9.11725 0.461842L9.12017 0.461122C9.4537 0.382129 9.79243 0.44871 10.0618 0.659942L10.0632 0.66105L10.0646 0.662174C10.3228 0.869287 10.4757 1.17876 10.4757 1.5137V9.41066C10.4757 9.5137 10.561 9.59894 10.664 9.59894C10.7688 9.59894 10.8544 9.51195 10.8544 9.41066V2.53425C10.8544 2.20022 11.0029 1.88843 11.2676 1.68103C11.5374 1.46699 11.8773 1.40014 12.212 1.48217C12.7083 1.60251 13.0239 2.08876 13.0239 2.59415V9.91987C13.0239 10.0238 13.1079 10.1081 13.2122 10.1081C13.3165 10.1081 13.4004 10.0238 13.4004 9.91987V5.58948C13.4004 5.30022 13.5125 5.02566 13.7169 4.82125C13.9816 4.55663 14.358 4.45466 14.7203 4.52829L14.7219 4.52863L14.7236 4.52899C14.9772 4.58334 15.186 4.76425 15.3237 4.95188C15.4639 5.14288 15.5699 5.39349 15.5699 5.64939V14.3294C15.5699 17.4481 13.2308 20.1228 10.2165 20.4021C8.54351 20.5579 6.93381 20.0312 5.69615 18.9227C4.78735 18.1107 4.13063 17.1152 3.46323 16.1035L3.43771 16.0648C3.28909 15.8376 3.13609 15.6081 2.98217 15.3773C2.26308 14.3179 1.50194 13.165 0.886443 11.9427Z" fill="#43BC94"></path></svg></svg>