 <svg width="28" height="29" viewBox="0 0 28 29" fill="none" xmlns="http://www.w3.org/2000/svg">
                                    <rect x="0.5" y="1.05115" width="27" height="27" rx="13.5" fill="#FCEBE8"/>
                                    <rect x="0.5" y="1.05115" width="27" height="27" rx="13.5" stroke="#E63C1A"/>
                                    <path fill-rule="evenodd" clip-rule="evenodd" d="M6.71836 15.8127C6.60635 15.5905 6.53467 15.3819 6.53467 15.1878C6.53467 14.9224 6.64971 14.6662 6.85504 14.4943C7.23691 14.1756 7.81207 14.225 8.13192 14.6057L10.5023 17.4328C10.5434 17.4821 10.6132 17.5016 10.6764 17.4788C10.7378 17.4566 10.7798 17.3969 10.7798 17.3309V8.87269C10.7798 8.45348 11.0394 8.04475 11.455 7.94417C11.7373 7.8755 12.0179 7.93459 12.241 8.10952C12.4606 8.28132 12.5877 8.5407 12.5877 8.82098V13.7027C12.5877 13.7885 12.6588 13.8595 12.7446 13.8595C12.8305 13.8595 12.9015 13.7885 12.9015 13.7027V7.17355C12.9015 6.75257 13.1624 6.34769 13.5774 6.2453L13.5798 6.2447C13.8577 6.17887 14.14 6.23436 14.3645 6.41038L14.3657 6.41131L14.3669 6.41224C14.582 6.58484 14.7094 6.84273 14.7094 7.12185V13.7027C14.7094 13.7885 14.7805 13.8595 14.8663 13.8595C14.9536 13.8595 15.025 13.7871 15.025 13.7027V7.97231C15.025 7.69395 15.1488 7.43412 15.3693 7.26129C15.5941 7.08293 15.8774 7.02721 16.1563 7.09558C16.5699 7.19586 16.8329 7.60106 16.8329 8.02223V14.127C16.8329 14.2136 16.9029 14.2839 16.9898 14.2839C17.0767 14.2839 17.1467 14.2136 17.1467 14.127V10.5183C17.1467 10.2773 17.2401 10.0485 17.4104 9.87814C17.631 9.65762 17.9446 9.57265 18.2465 9.63401L18.2479 9.63429L18.2493 9.63459C18.4607 9.67988 18.6346 9.83064 18.7494 9.987C18.8662 10.1462 18.9546 10.355 18.9546 10.5683V17.8016C18.9546 20.4005 17.0053 22.6294 14.4934 22.8622C13.0993 22.992 11.7578 22.5531 10.7264 21.6293C9.96911 20.9527 9.42185 20.1231 8.86568 19.28L8.84441 19.2478C8.72056 19.0585 8.59306 18.8672 8.4648 18.6748C7.86556 17.792 7.23127 16.8313 6.71836 15.8127Z" fill="#EB6247"/>
                                </svg>  