<svg width="20" height="21" viewBox="0 0 20 21" fill="none" xmlns="http://www.w3.org/2000/svg">
<g clip-path="url(#clip0_8004_10072)">
<path fill-rule="evenodd" clip-rule="evenodd" d="M1.60846 10.6517L1.6079 10.6508C1.23979 10.0811 0.92141 9.48083 0.655968 8.85658C-0.202449 6.66714 -0.45767 3.69662 1.38868 1.92456C3.23503 0.152507 6.71462 0.181034 8.69018 1.98314C8.82946 2.11876 10.9736 4.17732 12.8599 4.17732C13.0572 4.17732 13.217 4.01744 13.217 3.82019C13.217 3.62309 13.0572 3.46322 12.8599 3.46322C11.6064 3.46322 10.1024 2.27772 9.47857 1.73433C11.4911 0.185763 14.7209 0.239614 16.4748 1.92533C17.8252 3.22035 18.2084 5.43344 17.5261 7.88604C16.5036 7.77696 15.4774 8.05293 14.6478 8.66024C13.1781 7.53623 10.8953 7.58795 9.60321 8.82882C8.49995 9.88677 8.41131 11.4831 8.74632 12.8635C7.85541 13.026 7.31125 13.7361 7.13276 14.9898C6.51386 19.4291 5.67588 20.6021 5.31876 20.6021C4.53326 20.6021 4.19307 19.5831 3.93632 18.6233C3.64265 17.4505 3.44083 16.2568 3.33282 15.0527C3.17813 13.8718 2.79858 12.7316 2.21491 11.6935C2.02195 11.3339 1.81179 10.9872 1.60846 10.6517ZM4.29055 2.03486C4.29055 1.83776 4.13067 1.67789 3.93342 1.67789C3.73617 1.67789 3.57629 1.83776 3.57629 2.03486C3.57629 2.23211 3.73617 2.39199 3.93342 2.39199C4.13067 2.39199 4.29055 2.23211 4.29055 2.03486ZM2.9969 2.50839C2.91284 2.33432 2.70537 2.25881 2.52917 2.33814C2.50522 2.34988 0.0414837 3.57855 1.00013 7.09657C1.03384 7.21968 1.13056 7.31549 1.25398 7.34798C1.37739 7.38048 1.50874 7.34463 1.59844 7.25386C1.6883 7.16324 1.72292 7.03159 1.68936 6.90848C0.891968 3.98693 2.75434 3.02325 2.83977 2.98084C3.01139 2.8919 3.08111 2.68245 2.9969 2.50839ZM17.0635 10.0541C16.4507 10.0541 15.6748 9.52463 15.2046 9.13653C15.9509 8.65477 16.8522 8.47354 17.7268 8.62945C18.2766 8.7164 18.7876 8.96613 19.194 9.34645C20.2874 10.3902 20.1023 12.2151 19.6117 13.461C19.4522 13.8359 19.2609 14.1967 19.0398 14.5392C18.9098 14.7538 18.7799 14.9688 18.6619 15.1915C18.2947 15.8461 18.0557 16.5647 17.9574 17.3087C17.892 18.0432 17.7689 18.7713 17.5893 19.4867C17.4426 20.0262 17.2545 20.6021 16.8774 20.6021C16.7356 20.559 16.2522 19.8523 15.8916 17.2665C15.7733 16.4441 15.4156 15.9665 14.826 15.8461C14.7796 15.8359 14.7326 15.8281 14.6853 15.8229C14.6722 15.8234 14.6591 15.8245 14.6461 15.8264C14.6324 15.8245 14.6185 15.8231 14.6046 15.8225C13.9323 15.8975 13.5278 16.3831 13.4028 17.2665C13.0425 19.8523 12.5569 20.5597 12.4227 20.6021C12.0359 20.6021 11.8489 20.0273 11.7043 19.4871C11.5255 18.7716 11.4028 18.0435 11.3372 17.309C11.2402 16.5648 11.0015 15.8461 10.6338 15.192C10.5159 14.9706 10.3871 14.7574 10.2582 14.545C10.0357 14.2007 9.84299 13.8379 9.6822 13.461C9.16871 12.1548 9.01173 10.3876 10.099 9.344C11.1862 8.30024 13.2382 8.31854 14.4043 9.38184C14.5093 9.48283 15.8562 10.7682 17.0635 10.7682C17.2606 10.7682 17.4205 10.6085 17.4205 10.4113C17.4205 10.214 17.2606 10.0541 17.0635 10.0541ZM10.9194 12.6515C10.3481 11.0076 11.3514 10.3838 11.4007 10.3545C11.5719 10.2564 11.6312 10.0383 11.5333 9.86711C11.4352 9.69594 11.217 9.6366 11.0459 9.73469C10.4981 10.0453 9.62545 11.1036 10.245 12.886C10.2866 13.0068 10.3896 13.0962 10.5151 13.1203C10.6407 13.1444 10.7694 13.0996 10.8529 13.0028C10.9363 12.9061 10.9618 12.772 10.9194 12.6515ZM11.789 9.53317C11.789 9.73042 11.9488 9.8903 12.1459 9.8903C12.3432 9.8903 12.5031 9.73042 12.5031 9.53317C12.5031 9.33607 12.3432 9.1762 12.1459 9.1762C11.9488 9.1762 11.789 9.33607 11.789 9.53317Z" fill="#368796"/>
</g>
<defs>
<clipPath id="clip0_8004_10072">
<rect width="20" height="20" fill="white" transform="translate(0 0.608826)"/>
</clipPath>
</defs>
</svg>
