<svg width="57" height="56" viewBox="0 0 57 56" fill="none" xmlns="http://www.w3.org/2000/svg">
<circle cx="28.4536" cy="27.9077" r="27.8479" fill="#DAEEF1"/>
<path d="M36.266 16.1888H34.7033V15.4078C34.7033 14.9762 34.3536 14.6265 33.9223 14.6265C33.4907 14.6265 33.1409 14.9762 33.1409 15.4078V16.1888H23.7661V15.4078C23.7661 14.9762 23.4164 14.6265 22.9848 14.6265C22.5534 14.6265 22.2037 14.9762 22.2037 15.4078V16.1888H20.6411C19.3981 16.1888 18.2058 16.6827 17.3267 17.5619C16.4475 18.441 15.9536 19.6333 15.9536 20.8763V36.5014C15.9536 37.7444 16.4475 38.9367 17.3267 39.8158C18.2058 40.695 19.3981 41.1889 20.6411 41.1889H36.2662C37.5092 41.1889 38.7015 40.695 39.5806 39.8158C40.4598 38.9367 40.9536 37.7444 40.9536 36.5014V20.8763C40.9536 19.6333 40.4598 18.441 39.5806 17.5619C38.7015 16.6827 37.5089 16.1888 36.266 16.1888ZM28.4534 36.5014C26.3815 36.5014 24.3943 35.6783 22.9292 34.2132C21.4641 32.7481 20.6409 30.7609 20.6409 28.689C20.6409 26.6171 21.4641 24.6299 22.9292 23.1648C24.3943 21.6997 26.3815 20.8765 28.4534 20.8765C30.5253 20.8765 32.5125 21.6997 33.9776 23.1648C35.4426 24.6299 36.2658 26.6171 36.2658 28.689C36.2658 30.7609 35.4426 32.7481 33.9776 34.2132C32.5125 35.6783 30.5253 36.5014 28.4534 36.5014ZM32.3595 28.6889C32.3595 28.896 32.2771 29.0946 32.1306 29.2413C31.9841 29.3878 31.7853 29.4699 31.5781 29.4699H28.4542C28.0228 29.4699 27.6721 29.1202 27.6721 28.6889V24.7825C27.6721 24.3512 28.0221 24.0014 28.4534 24.0014C28.885 24.0014 29.2347 24.3512 29.2347 24.7828V27.9075H31.5784C32.0098 27.9075 32.3595 28.2573 32.3595 28.6889Z" fill="#368796"/>
</svg>
