<svg width="33" height="32" viewBox="0 0 33 32" fill="none" xmlns="http://www.w3.org/2000/svg">
<g clip-path="url(#clip0_12948_1710)">
<circle cx="16.541" cy="16" r="16" fill="#EDF0FF"/>
<path d="M16.4033 5.75C17.2231 5.75 17.8883 6.41563 17.8883 7.235V7.86612H14.918V7.235C14.918 6.41525 15.584 5.75 16.4033 5.75Z" fill="#ECF6F8"/>
<path d="M15.2935 7.61C15.2935 6.78988 15.9583 6.125 16.7785 6.125C17.0927 6.125 17.383 6.224 17.6233 6.3905C17.3552 6.00425 16.9097 5.75 16.4035 5.75C15.5833 5.75 14.9185 6.41488 14.9185 7.235V7.86612H15.2935V7.61Z" fill="#78909C"/>
<path d="M10.541 11.0304C12.0028 10.9006 14.1658 11.0424 16.4038 12.3736C17.4612 13.0027 18.5495 13.2333 19.5775 13.233C20.5544 13.2328 21.4767 13.0241 22.2661 12.7509C22.2663 12.7509 22.266 12.7509 22.2661 12.7509L22.2665 13.5009C22.2664 13.5009 22.2666 13.5009 22.2665 13.5009L22.2661 21.5C22.2661 22.3284 21.5945 23 20.7661 23H12.041C11.2126 23 10.541 22.3284 10.541 21.5V11.0304Z" fill="#334499"/>
<path d="M11.291 10.9931C11.291 10.9934 11.291 10.9937 11.291 10.994C11.1301 10.9958 10.9741 11.0012 10.8245 11.0097C10.7273 11.0155 10.6328 11.0226 10.541 11.0308V9.3665C10.541 8.53813 11.2126 7.86609 12.041 7.86609H20.7665C20.9251 7.86609 21.0778 7.89081 21.221 7.93659C21.8272 8.12912 22.2665 8.69655 22.2665 9.3665V12.7509C20.6461 13.3111 18.4663 13.6006 16.4038 12.3736C14.5225 11.2546 12.6943 10.9763 11.291 10.9931Z" fill="#F7F8FC"/>
<path d="M17.6326 24.1659V23H15.1748V24.1659C15.1748 24.5803 15.5104 24.9159 15.9248 24.9159H16.8826C17.2966 24.9159 17.6326 24.5799 17.6326 24.1659Z" fill="#D9DDF2"/>
<path d="M20.1945 20.2599V16.9629H12.6128V20.2599H20.1945Z" fill="#F7F8FC"/>
<path fill-rule="evenodd" clip-rule="evenodd" d="M20.1945 16.7754H12.6128C12.4058 16.7754 12.2378 16.943 12.2378 17.1504V20.4474C12.2378 20.6548 12.4058 20.8224 12.6128 20.8224H20.1945C20.4015 20.8224 20.5695 20.6548 20.5695 20.4474V17.1504C20.5695 16.943 20.4015 16.7754 20.1945 16.7754ZM19.8195 20.0724H12.9878V17.5254H19.8195V20.0724Z" fill="#334499"/>
<path fill-rule="evenodd" clip-rule="evenodd" d="M20.7663 7.679H18.2639V7.4225C18.2639 6.39688 17.4295 5.5625 16.4039 5.5625C15.3783 5.5625 14.5439 6.39688 14.5439 7.4225V7.679H12.0415C11.0076 7.679 10.1665 8.52013 10.1665 9.554V21.6875C10.1665 22.7214 11.0076 23.5625 12.0415 23.5625H14.8V24.3534C14.797 25.0159 15.3739 25.5276 16.0284 25.4784V27.5C16.0284 27.5061 16.0286 27.5122 16.0289 27.5183V27.6875C16.0289 27.8949 16.1969 28.0625 16.4039 28.0625C16.6109 28.0625 16.7789 27.8949 16.7789 27.6875V25.4784C17.4336 25.5279 18.0111 25.016 18.0078 24.3534V23.5625H20.7663C21.8001 23.5625 22.6413 22.7214 22.6413 21.6875V9.554C22.6413 8.52013 21.8001 7.679 20.7663 7.679ZM16.7285 24.7288H16.8828C17.0894 24.7288 17.2578 24.5607 17.2578 24.3538V23.5629H15.5496V24.3538C15.5496 24.5607 15.718 24.7288 15.9246 24.7288H16.0784C16.1431 24.6164 16.2645 24.5409 16.4034 24.5409C16.5424 24.5409 16.6637 24.6164 16.7285 24.7288ZM15.2935 7.4225C15.2935 6.8105 15.7915 6.3125 16.4035 6.3125C17.0155 6.3125 17.5135 6.8105 17.5135 7.4225V7.679H15.2931L15.2935 7.4225ZM20.7666 8.429C21.3869 8.429 21.8916 8.93375 21.8916 9.554V12.6676C20.4801 13.1109 18.478 13.3591 16.5955 12.2394C14.4539 10.9651 12.3775 10.7487 10.9161 10.8177V9.55438C10.9161 8.93413 11.4209 8.429 12.0411 8.429H20.7666ZM21.8913 21.6879C21.8913 22.3081 21.3865 22.8129 20.7663 22.8129H12.0408C11.4205 22.8129 10.9158 22.3081 10.9158 21.6879V11.5677C12.2699 11.4976 14.2105 11.693 16.2119 12.8836C17.2296 13.4893 18.3693 13.7938 19.5858 13.7938C20.3286 13.7938 21.1011 13.673 21.8913 13.4454V21.6879Z" fill="#334499"/>
</g>
<defs>
<clipPath id="clip0_12948_1710">
<rect width="32" height="32" fill="white" transform="translate(0.541016)"/>
</clipPath>
</defs>
</svg>
