<svg width="32" height="33" viewBox="0 0 32 33" fill="none" xmlns="http://www.w3.org/2000/svg">
<circle cx="16" cy="16.5757" r="16" fill="#DAEEF1"/>
<path d="M16 15.6757C16.2967 15.6757 16.5867 15.5877 16.8334 15.4229C17.08 15.2581 17.2723 15.0238 17.3858 14.7497C17.4994 14.4756 17.5291 14.174 17.4712 13.8831C17.4133 13.5921 17.2704 13.3248 17.0607 13.115C16.8509 12.9053 16.5836 12.7624 16.2926 12.7045C16.0017 12.6466 15.7001 12.6763 15.426 12.7899C15.1519 12.9034 14.9176 13.0957 14.7528 13.3423C14.588 13.589 14.5 13.879 14.5 14.1757C14.5 14.5735 14.658 14.955 14.9393 15.2364C15.2206 15.5177 15.6022 15.6757 16 15.6757ZM15.4675 20.8582C15.5372 20.9285 15.6202 20.9843 15.7116 21.0224C15.803 21.0604 15.901 21.08 16 21.08C16.099 21.08 16.197 21.0604 16.2884 21.0224C16.3798 20.9843 16.4628 20.9285 16.5325 20.8582L19.6 17.7832C20.3125 17.0711 20.7977 16.1637 20.9945 15.1758C21.1912 14.1879 21.0905 13.1638 20.7051 12.2331C20.3198 11.3024 19.667 10.5069 18.8295 9.94723C17.992 9.38755 17.0073 9.08881 16 9.08881C14.9927 9.08881 14.008 9.38755 13.1705 9.94723C12.333 10.5069 11.6802 11.3024 11.2949 12.2331C10.9095 13.1638 10.8088 14.1879 11.0055 15.1758C11.2023 16.1637 11.6875 17.0711 12.4 17.7832L15.4675 20.8582ZM12.4225 13.8307C12.4737 13.296 12.6438 12.7794 12.9201 12.3188C13.1965 11.8581 13.5723 11.465 14.02 11.1682C14.6082 10.782 15.2964 10.5763 16 10.5763C16.7036 10.5763 17.3918 10.782 17.98 11.1682C18.4247 11.464 18.7984 11.8547 19.074 12.3122C19.3497 12.7697 19.5206 13.2826 19.5744 13.814C19.6282 14.3454 19.5635 14.8822 19.3851 15.3856C19.2067 15.8891 18.9189 16.3467 18.5425 16.7257L16 19.2682L13.4575 16.7257C13.0806 16.3504 12.7922 15.8958 12.6132 15.395C12.4341 14.8942 12.369 14.3598 12.4225 13.8307V13.8307ZM21.25 22.5757H10.75C10.5511 22.5757 10.3603 22.6547 10.2197 22.7954C10.079 22.936 10 23.1268 10 23.3257C10 23.5246 10.079 23.7154 10.2197 23.856C10.3603 23.9967 10.5511 24.0757 10.75 24.0757H21.25C21.4489 24.0757 21.6397 23.9967 21.7803 23.856C21.921 23.7154 22 23.5246 22 23.3257C22 23.1268 21.921 22.936 21.7803 22.7954C21.6397 22.6547 21.4489 22.5757 21.25 22.5757Z" fill="#368796"/>
</svg>
