<svg width="25" height="24" viewBox="0 0 25 24" fill="none" xmlns="http://www.w3.org/2000/svg">
<g clip-path="url(#clip0_72_1908)">
<path d="M11.0835 2.00003C16.0515 2.00003 20.0835 6.03203 20.0835 11C20.0835 15.968 16.0515 20 11.0835 20C6.1155 20 2.0835 15.968 2.0835 11C2.0835 6.03203 6.1155 2.00003 11.0835 2.00003ZM11.0835 18C14.9505 18 18.0835 14.867 18.0835 11C18.0835 7.13203 14.9505 4.00003 11.0835 4.00003C7.2155 4.00003 4.0835 7.13203 4.0835 11C4.0835 14.867 7.2155 18 11.0835 18ZM19.5685 18.071L22.3975 20.899L20.9825 22.314L18.1545 19.485L19.5685 18.071V18.071Z" fill="#368796"/>
</g>
<defs>
<clipPath id="clip0_72_1908">
<rect width="24" height="24" fill="white" transform="translate(0.0834961 3.24249e-05)"/>
</clipPath>
</defs>
</svg>
