<svg width="19" height="21" viewBox="0 0 19 21" fill="none" xmlns="http://www.w3.org/2000/svg">
<g clip-path="url(#clip0_8004_10071)">
<path d="M17.2481 11.0236C17.9531 10.0712 18.6188 9.17155 18.641 7.56124C18.6613 6.60674 18.5449 5.65425 18.2953 4.73275C17.9805 3.6495 17.3189 2.69948 16.4121 2.02855C14.094 0.20503 12.0651 -0.524592 7.40594 0.551448C6.2699 0.813583 5.10351 1.1775 4.26924 2.06105C3.7054 2.66433 3.27038 3.37617 2.99071 4.15313C2.86899 4.50725 2.76963 4.86866 2.69322 5.23524L2.66465 5.35988C2.57591 5.69289 2.45573 6.01672 2.30573 6.32699C2.19104 6.54012 2.11054 6.76994 2.06717 7.00804C2.08252 7.11804 2.21823 7.24304 2.36251 7.37518C2.65738 7.58332 2.84767 7.90894 2.88429 8.26801C2.87769 8.44328 2.82749 8.61415 2.73822 8.76514C2.71724 8.80364 2.6991 8.84363 2.68393 8.88477C2.61392 9.45124 2.37584 9.98375 2.00038 10.4137C1.5779 10.869 0.792204 11.7165 0.786133 11.9229C0.859726 11.9934 0.938648 12.0581 1.0222 12.1165C1.10818 12.1738 1.19831 12.2246 1.29183 12.2686C1.59677 12.4246 2.01472 12.6385 2.09752 13.0764C2.14918 13.346 2.1156 13.625 2.00145 13.8746C1.9411 14.0025 1.87824 14.1143 1.82289 14.211L1.80418 14.245C1.79107 14.2687 1.77765 14.2931 1.76539 14.315C1.91181 14.4321 2.11538 14.5853 2.20109 14.6489C2.27841 14.7063 2.3293 14.7924 2.34221 14.8878C2.35512 14.9832 2.32896 15.0798 2.26966 15.1557C2.2168 15.2249 2.17098 15.2991 2.13288 15.3774L2.20895 15.4214C2.52401 15.5577 2.76396 15.8247 2.86607 16.1524C2.9221 16.3974 2.91274 16.6529 2.83893 16.8931C2.75037 17.1803 2.76298 17.4891 2.87464 17.7681C2.95113 18.0987 3.27473 18.3101 3.60819 18.2474C4.64412 17.9938 5.66558 17.6844 6.6681 17.3206H6.67025C7.01702 17.202 7.3338 17.0906 7.58986 16.9992L7.59143 16.9986C7.86421 16.9028 8.07005 16.8306 8.17449 16.7978C9.65444 16.3335 9.95479 15.7953 9.94622 15.4271C9.94163 15.23 10.0977 15.0664 10.2948 15.0617C10.3902 15.0569 10.4833 15.0915 10.5524 15.1575C10.6215 15.2234 10.6604 15.3148 10.6601 15.4103C10.6812 16.3031 9.91694 16.9981 8.38948 17.4788C8.28983 17.5101 8.09194 17.5797 7.82937 17.6721L7.82664 17.6731L7.55986 17.7667C8.09904 18.3482 8.49984 19.0441 8.73233 19.8023C8.78136 19.9488 8.91788 20.048 9.07232 20.0494H13.5618C12.8993 18.1938 12.3051 16.0742 12.6944 13.885C12.7221 13.7273 12.7556 13.5674 12.7894 13.4058L12.7897 13.4043C12.9761 12.7987 12.9972 12.1543 12.8508 11.5379C12.0451 11.2183 11.6365 10.8447 11.4822 10.2729C11.2291 10.2523 10.979 10.2035 10.7366 10.1276C10.227 10.6035 9.52463 10.8146 8.83709 10.6986C8.14955 10.5825 7.55541 10.1526 7.23023 9.53583C6.07211 9.81791 4.85935 9.36251 4.17315 8.38787C3.48695 7.41322 3.46713 6.11793 4.12318 5.12274C3.96573 4.43289 4.33154 3.7306 4.98708 3.46422C5.02039 2.92451 5.29732 2.42924 5.73968 2.11826C6.18205 1.80728 6.74182 1.71434 7.26094 1.8657C7.72803 1.26271 8.44673 0.908361 9.20946 0.905009C9.68279 0.905764 10.1458 1.04344 10.5426 1.30143C10.8577 1.00416 11.289 0.863001 11.7189 0.916468C12.1488 0.969936 12.5324 1.21245 12.7651 1.57785C12.7831 1.57785 12.8 1.5764 12.8167 1.57496C12.8333 1.57354 12.8497 1.57213 12.8668 1.57213C14.3231 1.57995 15.5691 2.61992 15.8371 4.05135C16.2557 4.14019 16.6142 4.40811 16.818 4.78432C17.0217 5.16054 17.0503 5.6072 16.896 6.00629C17.3867 6.81589 17.3072 7.84816 16.6982 8.573C16.5417 9.30416 16.1188 9.95097 15.5118 10.3876C15.6415 10.6184 15.7472 10.8619 15.8271 11.1144C15.8633 11.2233 15.8817 11.3374 15.8814 11.4522C15.8807 11.8628 15.6507 12.2386 15.2853 12.4261C15.2561 12.8037 15.1984 13.1786 15.1129 13.5475L15.1068 13.5763C15.0764 13.7218 15.0462 13.8658 15.0214 14.0082C14.6447 16.1235 15.2796 18.2224 15.9443 20.0498H16.2782C16.401 20.0497 16.5151 19.9865 16.5803 19.8825C16.6456 19.7785 16.6529 19.6483 16.5996 19.5377C16.1153 18.4718 15.8135 17.3322 15.7068 16.1663C15.565 14.9719 15.7444 13.7613 16.2264 12.6593C16.5035 12.0769 16.8463 11.5281 17.2481 11.0236Z" fill="#7D8285"/>
<path fill-rule="evenodd" clip-rule="evenodd" d="M12.776 10.1333C12.597 10.1865 12.4138 10.2249 12.2285 10.248C12.3549 10.4979 12.6528 10.7304 13.4245 10.9886C13.8311 11.1181 14.1933 11.3587 14.4702 11.6833C14.5801 11.8212 14.767 11.8716 14.9313 11.8076C15.0731 11.7469 15.1652 11.6075 15.1652 11.4533C15.1653 11.4142 15.1591 11.3753 15.1466 11.3383C15.0797 11.125 14.9905 10.9194 14.8806 10.7247C14.6771 10.81 14.4647 10.872 14.2474 10.9097C14.2285 10.9128 14.2094 10.9144 14.1902 10.9144C14.0035 10.9148 13.848 10.7715 13.8333 10.5853C13.8186 10.3992 13.9497 10.2332 14.1342 10.2044C14.7239 10.108 15.2521 9.7836 15.6048 9.3012C15.056 9.46715 14.4641 9.41257 13.9549 9.14906C13.8045 9.07072 13.664 8.97481 13.5363 8.86335C12.9398 9.10256 12.2597 8.84204 11.9757 8.26551C11.9174 8.15124 11.925 8.01451 11.9954 7.90732C12.0658 7.80012 12.1883 7.73891 12.3163 7.74696C12.4443 7.755 12.5581 7.83107 12.6146 7.94624C12.6855 8.08133 12.8104 8.17998 12.9582 8.21764C13.1061 8.2553 13.263 8.22844 13.3899 8.14373C13.6068 7.99328 13.6802 7.70626 13.562 7.47018C13.5051 7.35599 13.5133 7.22007 13.5838 7.11364C13.6542 7.0072 13.776 6.94642 13.9034 6.95418C14.0308 6.96194 14.1443 7.03707 14.2013 7.15126C14.4057 7.55519 14.369 8.0392 14.1059 8.40765C14.1611 8.4474 14.219 8.4832 14.2792 8.51479C14.8937 8.82146 15.6369 8.68522 16.1027 8.18052L16.1091 8.17373C16.4817 7.75912 16.5984 7.17425 16.4134 6.64842C16.3306 6.71342 16.241 6.76933 16.1462 6.8152C16.0307 6.86942 15.895 6.8579 15.7903 6.78495C15.6856 6.71201 15.6277 6.58874 15.6385 6.46157C15.6493 6.3344 15.7271 6.22266 15.8427 6.16843C15.985 6.10152 16.1034 5.99242 16.1816 5.85594C16.3581 5.54619 16.2929 5.15506 16.0254 4.91933C15.758 4.6836 15.3618 4.66803 15.0766 4.88204C14.9188 5.00038 14.695 4.96841 14.5766 4.81062C14.4583 4.65282 14.4903 4.42897 14.6481 4.31063C14.7871 4.20687 14.9436 4.12886 15.1102 4.08028C14.8777 3.08202 14.0173 2.35491 12.9942 2.29212C12.9942 2.30582 12.9962 2.31909 12.9983 2.33239C13.0003 2.34578 13.0024 2.35921 13.0024 2.37319C13.0024 2.57043 12.8425 2.73032 12.6453 2.73032C12.448 2.73032 12.2881 2.57043 12.2881 2.37319C12.2881 2.1048 12.145 1.8568 11.9125 1.7226C11.6801 1.58841 11.3937 1.58841 11.1613 1.7226C10.9289 1.8568 10.7857 2.1048 10.7857 2.37319C10.7857 2.57043 10.6258 2.73032 10.4286 2.73032C10.2313 2.73032 10.0714 2.57043 10.0714 2.37319C10.0732 2.21323 10.1015 2.05467 10.155 1.90392C9.87415 1.71897 9.54557 1.61971 9.2093 1.61821C8.59067 1.6213 8.01889 1.94832 7.70256 2.47997C7.6203 2.61967 7.55791 2.77016 7.51721 2.9271C7.46216 3.11099 7.27159 3.21848 7.08573 3.17045C6.89988 3.12243 6.78523 2.93608 6.82616 2.74853C6.84306 2.68307 6.86631 2.61973 6.88954 2.55646L6.9008 2.52568C6.85781 2.51812 6.8144 2.51323 6.77081 2.51104C6.25944 2.51245 5.81838 2.8705 5.71191 3.37066C6.11487 3.41048 6.48254 3.61783 6.72509 3.94207C6.84284 4.10035 6.80999 4.32412 6.6517 4.44188C6.49342 4.55963 6.26965 4.52677 6.1519 4.36849C6.01158 4.17752 5.78853 4.065 5.55156 4.06564C5.13658 4.0678 4.80138 4.40492 4.80158 4.8199C4.80157 4.90345 4.8157 4.98641 4.84336 5.06525C4.90086 5.23264 5.0154 5.37449 5.16692 5.46595C5.27627 5.53173 5.34222 5.65084 5.33993 5.77842C5.33764 5.906 5.26746 6.02267 5.15583 6.08448C5.0442 6.14629 4.90807 6.14385 4.79872 6.07808C4.70205 6.01814 4.61276 5.94706 4.53266 5.8663C4.41909 6.1326 4.35983 6.41891 4.35838 6.70842C4.35021 7.3718 4.64572 8.00253 5.16067 8.42083C5.67562 8.83912 6.35353 8.99909 7.00116 8.85514C6.98081 8.73715 6.96994 8.61773 6.96866 8.49801C6.33958 8.42939 5.86273 7.8987 5.86155 7.2659C5.86114 7.0678 6.02059 6.90644 6.21868 6.90448C6.31291 6.90343 6.40365 6.94009 6.47072 7.00628C6.53779 7.07248 6.57563 7.16274 6.57581 7.25697V7.2659C6.5821 7.54716 6.80382 7.77618 7.08473 7.7916C7.13521 7.63127 7.20374 7.47719 7.289 7.33233C7.39048 7.16319 7.60986 7.10835 7.77899 7.20983C7.94812 7.31131 8.00297 7.53068 7.90149 7.69982C7.49568 8.37916 7.67546 9.25591 8.31587 9.72072C8.95629 10.1855 9.84559 10.0847 10.3657 9.48833C10.4674 9.37873 10.6236 9.3383 10.7657 9.38477C11.1412 9.5344 11.5462 9.59551 11.9492 9.56333C12.1584 9.54927 12.3652 9.51116 12.5656 9.44976C12.6876 9.41232 12.8203 9.44279 12.9137 9.5297C13.0071 9.61661 13.0471 9.74676 13.0185 9.87112C12.99 9.99548 12.8972 10.0952 12.7753 10.1326L12.776 10.1333ZM8.35683 5.40488C8.35683 5.60212 8.19694 5.76202 7.9997 5.76202C7.80246 5.76202 7.64257 5.60212 7.64257 5.40488C7.64375 4.49807 8.37857 3.76326 9.28537 3.76207C9.48261 3.76207 9.64251 3.92197 9.64251 4.11921C9.64251 4.31645 9.48261 4.47634 9.28537 4.47634C8.77255 4.47634 8.35683 4.89206 8.35683 5.40488ZM11.1585 7.3309C10.8973 8.02248 10.2339 8.47907 9.49465 8.47622C9.29741 8.47622 9.13752 8.31633 9.13752 8.11909C9.13752 7.92185 9.29741 7.76196 9.49465 7.76196C9.84011 7.7627 10.1644 7.59539 10.3639 7.3134C9.92327 7.21871 9.5235 6.98797 9.22109 6.65377C9.08884 6.50742 9.10027 6.28157 9.24663 6.14933C9.39298 6.01708 9.61883 6.02851 9.75107 6.17486C10.2406 6.69763 11.0372 6.78767 11.631 6.38735C11.9392 6.17417 12.1511 5.84814 12.2206 5.47988C12.2426 5.35262 12.3316 5.24713 12.4533 5.204C12.575 5.16087 12.7106 5.18682 12.8077 5.27186C12.9049 5.3569 12.9486 5.48779 12.9221 5.61416C12.7509 6.49883 12.0475 7.18363 11.1585 7.3309Z" fill="#7D8285"/>
<path d="M14.4119 13.4022C14.378 13.5636 14.3444 13.7264 14.3162 13.885C13.9262 16.0746 14.5205 18.1938 15.1833 20.0495H14.3212C13.6566 18.2224 13.0216 16.1228 13.3984 14.0082C13.4248 13.8571 13.457 13.7039 13.4895 13.5497C13.6288 13.0098 13.6835 12.4517 13.6516 11.8951C13.753 11.9666 13.845 12.0506 13.9255 12.145C14.0895 12.339 14.3132 12.4729 14.5616 12.5258C14.5278 12.8204 14.4779 13.113 14.4119 13.4022Z" fill="#7D8285"/>
</g>
<defs>
<clipPath id="clip0_8004_10071">
<rect width="17.8571" height="20" fill="white" transform="translate(0.786133 0.0498047)"/>
</clipPath>
</defs>
</svg>
