<svg width="28" height="28" viewBox="0 0 28 28" fill="none" xmlns="http://www.w3.org/2000/svg">
<path d="M17.091 14.308C17.7873 13.5603 18.1795 12.5797 18.191 11.558C18.191 10.4552 17.7529 9.39763 16.9732 8.61785C16.1934 7.83807 15.1358 7.4 14.033 7.4C12.9302 7.4 11.8726 7.83807 11.0929 8.61785C10.3131 9.39763 9.875 10.4552 9.875 11.558C9.88648 12.5797 10.2787 13.5603 10.975 14.308C10.0055 14.7908 9.17124 15.5069 8.54721 16.3921C7.92317 17.2773 7.52895 18.3037 7.4 19.379C7.36791 19.6707 7.45302 19.9633 7.63662 20.1923C7.82022 20.4212 8.08726 20.5679 8.379 20.6C8.67074 20.6321 8.96328 20.547 9.19226 20.3634C9.42124 20.1798 9.56791 19.9127 9.6 19.621C9.73127 18.5553 10.2477 17.5743 11.0521 16.8629C11.8565 16.1515 12.8932 15.7589 13.967 15.7589C15.0408 15.7589 16.0775 16.1515 16.8819 16.8629C17.6863 17.5743 18.2027 18.5553 18.334 19.621C18.3646 19.9031 18.503 20.1624 18.7203 20.3448C18.9375 20.5273 19.2169 20.6187 19.5 20.6H19.621C19.9094 20.5668 20.1729 20.421 20.3542 20.1944C20.5355 19.9677 20.6199 19.6786 20.589 19.39C20.4696 18.3203 20.0878 17.2967 19.4776 16.4101C18.8673 15.5236 18.0475 14.8015 17.091 14.308ZM14 13.516C13.6127 13.516 13.2342 13.4012 12.9122 13.186C12.5902 12.9709 12.3392 12.6651 12.191 12.3073C12.0428 11.9495 12.0041 11.5558 12.0796 11.176C12.1552 10.7962 12.3417 10.4473 12.6155 10.1735C12.8893 9.89965 13.2382 9.71317 13.618 9.63762C13.9978 9.56207 14.3915 9.60085 14.7493 9.74904C15.1071 9.89724 15.4129 10.1482 15.628 10.4702C15.8432 10.7922 15.958 11.1707 15.958 11.558C15.958 12.0773 15.7517 12.5753 15.3845 12.9425C15.0173 13.3097 14.5193 13.516 14 13.516ZM21.7 3H6.3C5.42479 3 4.58542 3.34768 3.96655 3.96655C3.34768 4.58542 3 5.42479 3 6.3V21.7C3 22.5752 3.34768 23.4146 3.96655 24.0335C4.58542 24.6523 5.42479 25 6.3 25H21.7C22.5752 25 23.4146 24.6523 24.0335 24.0335C24.6523 23.4146 25 22.5752 25 21.7V6.3C25 5.42479 24.6523 4.58542 24.0335 3.96655C23.4146 3.34768 22.5752 3 21.7 3ZM22.8 21.7C22.8 21.9917 22.6841 22.2715 22.4778 22.4778C22.2715 22.6841 21.9917 22.8 21.7 22.8H6.3C6.00826 22.8 5.72847 22.6841 5.52218 22.4778C5.31589 22.2715 5.2 21.9917 5.2 21.7V6.3C5.2 6.00826 5.31589 5.72847 5.52218 5.52218C5.72847 5.31589 6.00826 5.2 6.3 5.2H21.7C21.9917 5.2 22.2715 5.31589 22.4778 5.52218C22.6841 5.72847 22.8 6.00826 22.8 6.3V21.7Z" fill="#368796"/>
</svg>
