<svg width="20" height="21" viewBox="0 0 20 21" fill="none" xmlns="http://www.w3.org/2000/svg">
<g clip-path="url(#clip0_8004_10054)">
<path d="M5.30928 12.2297C5.08844 12.6089 5.18844 13.3131 4.92594 14.4256C5.16291 14.8308 5.53672 15.1381 5.98011 15.2922C6.08083 15.3256 6.16504 15.3961 6.21557 15.4893C6.26609 15.5826 6.27914 15.6917 6.25203 15.7942C6.22493 15.8968 6.15972 15.9852 6.06971 16.0413C5.97969 16.0975 5.87165 16.1172 5.76761 16.0964C5.31045 15.9695 4.89959 15.7134 4.58428 15.3589C4.28505 15.9399 3.79936 16.4036 3.20511 16.6756C3.10566 16.7242 2.99096 16.7313 2.88625 16.6954C2.78154 16.6594 2.6954 16.5833 2.64678 16.4839C2.59816 16.3844 2.59103 16.2697 2.62698 16.165C2.66292 16.0603 2.73899 15.9742 2.83845 15.9256C4.02595 15.3422 4.15094 14.3922 4.30511 13.0089C3.77594 13.0922 2.98428 13.3172 2.91345 13.9214C2.90088 14.0306 2.84565 14.1304 2.7598 14.1991C2.67395 14.2678 2.56443 14.2998 2.45511 14.2881C1.72178 14.1881 1.94261 12.3839 4.43844 12.1339C4.49726 11.9769 4.57417 11.8273 4.66761 11.6881C4.48455 11.4058 4.4041 11.0691 4.43975 10.7346C4.47541 10.4 4.625 10.0879 4.86344 9.85056C5.19678 9.51723 5.12178 9.76723 4.79261 9.14639C4.11344 9.25889 4.08011 9.56306 3.77595 9.56306C3.69077 9.56307 3.60763 9.53697 3.53774 9.48828C3.46785 9.43959 3.41456 9.37065 3.38505 9.29074C3.35554 9.21084 3.35123 9.12381 3.3727 9.04138C3.39416 8.95895 3.44038 8.88508 3.50511 8.82973C3.79666 8.58777 4.14274 8.42045 4.51344 8.34223C4.44864 7.97562 4.44864 7.60049 4.51344 7.23389C4.53002 7.12338 4.58982 7.02399 4.67968 6.95757C4.76954 6.89115 4.8821 6.86315 4.99261 6.87972C5.10312 6.8963 5.20251 6.9561 5.26893 7.04596C5.33535 7.13582 5.36335 7.24839 5.34678 7.35889C5.2877 7.64636 5.28905 7.94297 5.35074 8.2299C5.41243 8.51682 5.5331 8.78777 5.70511 9.02556L7.31761 7.41306C7.12938 6.78251 7.05047 6.1244 7.08428 5.46722C7.08439 5.35456 7.06166 5.24305 7.01746 5.13942C6.97325 5.03579 6.90849 4.9422 6.8271 4.8643C6.7457 4.78641 6.64935 4.72583 6.54388 4.68623C6.4384 4.64663 6.32599 4.62882 6.21344 4.63389C5.69173 4.63484 5.17751 4.75824 4.71218 4.99416C4.24685 5.23009 3.8434 5.57194 3.53428 5.99222C1.50896 8.62154 0.412857 11.8483 0.417612 15.1672C0.417612 17.3631 0.375945 17.0339 0.975945 18.8297C1.05364 19.0676 1.20575 19.2742 1.40982 19.419C1.61389 19.5638 1.85911 19.6391 2.10928 19.6339C3.61345 19.6339 3.91761 18.7339 5.83428 17.9672C6.93428 17.5506 7.91761 17.0047 7.91761 15.8839V11.3006C6.90928 11.9797 6.25094 12.6672 5.30928 12.2297Z" fill="#7D8285"/>
<path d="M16.4676 5.99222C16.1585 5.57194 15.755 5.23009 15.2897 4.99416C14.8244 4.75824 14.3102 4.63484 13.7884 4.63389C13.6759 4.62882 13.5635 4.64663 13.458 4.68623C13.3525 4.72583 13.2562 4.78641 13.1748 4.8643C13.0934 4.9422 13.0286 5.03579 12.9844 5.13942C12.9402 5.24305 12.9175 5.35456 12.9176 5.46722C12.9575 6.12072 12.8842 6.77619 12.7009 7.40473L14.3134 9.01723C14.4857 8.77956 14.6065 8.5086 14.6682 8.22164C14.7299 7.93468 14.7311 7.63802 14.6718 7.35056C14.6552 7.24005 14.6832 7.12749 14.7496 7.03762C14.816 6.94776 14.9154 6.88797 15.0259 6.87139C15.1365 6.85482 15.249 6.88282 15.3389 6.94924C15.4287 7.01566 15.4885 7.11505 15.5051 7.22556C15.5699 7.59216 15.5699 7.96729 15.5051 8.33389C15.8758 8.41212 16.2219 8.57944 16.5134 8.82139C16.5782 8.87675 16.6244 8.95062 16.6459 9.03305C16.6673 9.11548 16.663 9.20251 16.6335 9.28241C16.604 9.36231 16.5507 9.43125 16.4808 9.47994C16.4109 9.52863 16.3278 9.55473 16.2426 9.55473C15.9426 9.55473 15.9051 9.24223 15.2301 9.13806C15.1346 9.31046 15.0274 9.47612 14.9093 9.63389L15.1384 9.86306C15.3755 10.1012 15.5242 10.4132 15.5598 10.7473C15.5954 11.0815 15.5158 11.4178 15.3343 11.7006C15.4269 11.8358 15.5038 11.9812 15.5634 12.1339C18.1134 12.3964 18.2843 14.2797 17.5009 14.2797C16.7176 14.2797 17.6218 13.3006 15.6968 12.9964C15.8551 14.4089 15.9801 15.3506 17.1634 15.9339C17.2485 15.9751 17.317 16.0439 17.3577 16.1291C17.3985 16.2143 17.4091 16.3109 17.3878 16.4029C17.3664 16.4949 17.3145 16.577 17.2404 16.6356C17.1664 16.6942 17.0746 16.7259 16.9801 16.7256C16.7051 16.7172 15.8343 16.2006 15.4176 15.3589C15.0884 15.7452 14.6397 16.0107 14.1426 16.1131C14.0321 16.1274 13.9204 16.0973 13.8321 16.0293C13.7438 15.9613 13.6861 15.8611 13.6718 15.7506C13.6574 15.6401 13.6875 15.5284 13.7555 15.4401C13.8235 15.3518 13.9238 15.2941 14.0343 15.2797C14.4777 15.1256 14.8515 14.8183 15.0884 14.4131C14.8343 13.3297 14.9218 12.5881 14.7051 12.2172C13.7843 12.6339 13.1759 12.0172 12.0968 11.2631V15.8839C12.0968 17.0131 13.0634 17.5506 14.1801 17.9672C16.0801 18.7297 16.4051 19.6339 17.9051 19.6339C18.1553 19.6391 18.4005 19.5638 18.6046 19.419C18.8086 19.2742 18.9608 19.0676 19.0384 18.8297C19.6218 17.0506 19.5843 17.3714 19.5843 15.1672C19.589 11.8483 18.4929 8.62154 16.4676 5.99222Z" fill="#7D8285"/>
<path d="M14.5468 10.4297C11.9593 7.84222 11.2509 7.43389 11.2509 6.09639V0.467224H8.75095V6.09639C8.7512 6.42529 8.68656 6.75101 8.56072 7.05488C8.43488 7.35875 8.25032 7.6348 8.01761 7.86723L5.45511 10.4297C5.32527 10.5402 5.24464 10.6978 5.23096 10.8677C5.21729 11.0377 5.27169 11.2061 5.38219 11.336C5.4927 11.4658 5.65026 11.5465 5.82022 11.5601C5.99017 11.5738 6.1586 11.5194 6.28844 11.4089L9.53428 9.13389C9.6746 9.03527 9.84193 8.98235 10.0134 8.98235C10.185 8.98235 10.3523 9.03527 10.4926 9.13389L13.7384 11.4089C13.8702 11.4886 14.0263 11.5183 14.1781 11.4926C14.33 11.4668 14.4675 11.3872 14.5655 11.2685C14.6636 11.1497 14.7157 10.9996 14.7122 10.8456C14.7088 10.6916 14.65 10.544 14.5468 10.4297Z" fill="#7D8285"/>
</g>
<defs>
<clipPath id="clip0_8004_10054">
<rect width="20" height="20" fill="white" transform="translate(0.000976562 0.0505371)"/>
</clipPath>
</defs>
</svg>
