<svg width="33" height="33" viewBox="0 0 33 33" fill="none" xmlns="http://www.w3.org/2000/svg">
<g clip-path="url(#clip0_12948_1732)">
<circle cx="16.541" cy="16.6388" r="16" fill="#EDF0FF"/>
<path fill-rule="evenodd" clip-rule="evenodd" d="M17.3265 19.9705H12.2557C11.596 19.9705 11.0517 19.4664 10.9878 18.8231H12.1666C12.4704 18.8231 12.4703 18.3615 12.1666 18.3615H10.9814V17.8636H12.8673C13.1713 17.8636 13.1712 17.4021 12.8675 17.4021H10.9814V16.8332H12.1666C12.4705 16.8332 12.4703 16.3716 12.1666 16.3716H10.9814V15.8737H12.8673C13.1716 15.8737 13.1715 15.4122 12.8675 15.4122H10.9814V14.8431H12.1666C12.4705 14.8431 12.4703 14.3816 12.1666 14.3816H10.9814V9.56919C10.9814 8.86646 11.5531 8.2948 12.2556 8.2948H17.3265C18.0292 8.2948 18.6009 8.86646 18.6009 9.56919V18.6962C18.6009 19.3988 18.0292 19.9705 17.3265 19.9705ZM11.443 13.403C14.3166 12.5843 16.1404 15.1089 18.1392 14.4293V9.56918C18.1392 9.12108 17.7746 8.75634 17.3265 8.75634H12.2557C11.8076 8.75634 11.443 9.1209 11.443 9.56918L11.443 13.403Z" fill="#334499"/>
<path fill-rule="evenodd" clip-rule="evenodd" d="M15.8919 21.2694H13.9132C13.54 21.2694 13.2363 20.9656 13.2363 20.5923V20.432H16.569V20.5923C16.5689 20.9657 16.2652 21.2694 15.8919 21.2694Z" fill="#334499"/>
<path fill-rule="evenodd" clip-rule="evenodd" d="M15.4933 22.1177C13.8084 22.1177 13.8581 22.2685 13.8581 21.0385C13.8581 20.9111 13.9615 20.8077 14.0888 20.8077H15.7172C16.034 20.8077 15.9478 21.2585 15.948 21.6631C15.9481 21.9138 15.7441 22.1177 15.4933 22.1177Z" fill="#334499"/>
<path fill-rule="evenodd" clip-rule="evenodd" d="M17.1418 26.4262C15.78 26.4262 14.6724 25.3934 14.6724 24.1238V21.8869C14.6724 21.5831 15.1339 21.5832 15.1339 21.8869V24.1238C15.1339 25.1389 16.0347 25.9645 17.1418 25.9645C18.2489 25.9645 19.1497 25.1389 19.1497 24.1238V19.6501C19.1497 18.3805 20.2576 17.3477 21.6191 17.3477C22.8807 17.3477 23.936 18.2295 24.0736 19.399C24.1093 19.7005 23.6509 19.7554 23.6153 19.4532C23.5049 18.516 22.6467 17.8094 21.619 17.8094C20.5119 17.8094 19.6113 18.6351 19.6113 19.6502V24.1239C19.6113 25.3934 18.5035 26.4262 17.1418 26.4262ZM23.8579 22.6607C23.7305 22.6607 23.6271 22.5572 23.6271 22.4299V21.3696C23.6271 21.0658 24.0886 21.0659 24.0886 21.3696V22.4299C24.0886 22.5572 23.9852 22.6607 23.8579 22.6607Z" fill="#334499"/>
<path fill-rule="evenodd" clip-rule="evenodd" d="M24.4174 21.6005H23.2977C23.1703 21.6005 23.0669 21.497 23.0669 21.3697V19.426C23.0669 19.2986 23.1704 19.1952 23.2977 19.1952H24.4174C24.5448 19.1952 24.6482 19.2987 24.6482 19.426V21.3697C24.6483 21.497 24.5448 21.6005 24.4174 21.6005Z" fill="#334499"/>
<path fill-rule="evenodd" clip-rule="evenodd" d="M16.2137 8.75628H13.368C12.7731 8.75628 13.2911 6.85132 14.7907 6.85132C16.2914 6.85132 16.8078 8.75628 16.2137 8.75628ZM13.6172 8.29473H15.9646C15.7337 6.99591 13.8498 6.99446 13.6172 8.29473Z" fill="#334499"/>
<path fill-rule="evenodd" clip-rule="evenodd" d="M12.8669 9.90376H11.2118C10.9079 9.90376 10.9079 9.44226 11.2118 9.44226H12.867C13.171 9.44226 13.1711 9.90376 12.8669 9.90376Z" fill="#334499"/>
<path fill-rule="evenodd" clip-rule="evenodd" d="M12.1663 10.8632H11.2118C10.9079 10.8632 10.9079 10.4017 11.2118 10.4017H12.1663C12.47 10.4017 12.4702 10.8632 12.1663 10.8632Z" fill="#334499"/>
<path fill-rule="evenodd" clip-rule="evenodd" d="M12.8669 11.8937H11.2118C10.9079 11.8937 10.9079 11.4321 11.2118 11.4321H12.867C13.171 11.4321 13.1711 11.8937 12.8669 11.8937Z" fill="#334499"/>
<path fill-rule="evenodd" clip-rule="evenodd" d="M12.1663 12.8531H11.2118C10.9079 12.8531 10.9079 12.3915 11.2118 12.3915H12.1663C12.47 12.3915 12.4702 12.8531 12.1663 12.8531Z" fill="#334499"/>
</g>
<defs>
<clipPath id="clip0_12948_1732">
<rect width="32" height="32" fill="white" transform="translate(0.541016 0.638794)"/>
</clipPath>
</defs>
</svg>
