<svg width="40" height="41" viewBox="0 0 40 41" fill="none" xmlns="http://www.w3.org/2000/svg">
<circle cx="20" cy="20.5757" r="20" fill="#69BAC9"/>
<path d="M19.1036 10.5719C20.5511 10.5719 21.9038 10.9788 23.0513 11.6864C22.7094 12.0517 22.445 12.4901 22.2842 12.9757C21.3617 12.402 20.2714 12.0715 19.1036 12.0715C15.7789 12.0715 13.0959 14.745 13.0955 18.0699V22.4783L11.7497 25.5716H26.4662L25.1118 22.4793L25.1119 18.0827L25.1081 17.8576C25.1044 17.7492 25.0978 17.6417 25.0885 17.5349C25.2595 17.5605 25.4345 17.5738 25.6126 17.5738C25.9507 17.5738 26.2776 17.526 26.5869 17.4368C26.5976 17.5633 26.6052 17.6907 26.6096 17.819L26.6138 18.0699V22.1658L27.9957 25.3209C28.0649 25.4788 28.1006 25.6493 28.1006 25.8216C28.1006 26.5117 27.5401 27.0712 26.8489 27.0712L22.1077 27.0727C22.1077 28.7291 20.7627 30.0719 19.1036 30.0719C17.5038 30.0719 16.196 28.8233 16.1046 27.249L16.0991 27.0705L11.368 27.0712C11.1964 27.0712 11.0267 27.036 10.8693 26.9678C10.2352 26.6928 9.9445 25.9567 10.2199 25.3237L11.5934 22.1667V18.0698C11.594 13.9161 14.9501 10.5719 19.1036 10.5719ZM20.6052 27.0705L17.6016 27.0727C17.6016 27.9009 18.2741 28.5723 19.1036 28.5723C19.8844 28.5723 20.526 27.9776 20.5988 27.2171L20.6052 27.0705ZM23.149 13.6285C23.2442 13.1013 23.5049 12.6316 23.8755 12.275C24.3257 11.8418 24.938 11.5754 25.6126 11.5754C26.9952 11.5754 28.116 12.6944 28.116 14.0747C28.116 15.1676 27.4134 16.0967 26.4345 16.4362C26.1771 16.5255 25.9005 16.5741 25.6126 16.5741C25.3642 16.5741 25.1243 16.5379 24.8978 16.4707C23.8635 16.1636 23.1092 15.2071 23.1092 14.0747C23.1092 13.9224 23.1229 13.7733 23.149 13.6285Z" fill="#F8FCFC"/>
<circle cx="25.616" cy="14.0764" r="2.5" fill="#D94242"/>
</svg>
