<svg width="40" height="40" viewBox="0 0 40 40" fill="none" xmlns="http://www.w3.org/2000/svg">
<g clip-path="url(#clip0_7785_10842)">
<circle cx="20" cy="20" r="20" fill="#6877CA"/>
<path d="M19.6219 15.0063L15.8553 17.3048C15.5138 17.5142 15.4051 17.9596 15.6144 18.301C15.823 18.6433 16.2684 18.7512 16.6107 18.5426L19.9996 16.4745L23.3886 18.5426C23.5062 18.6143 23.6366 18.6489 23.7655 18.6489C24.0095 18.6489 24.2487 18.5257 24.3848 18.301C24.5934 17.9596 24.4855 17.5134 24.144 17.3048L20.3773 15.0063C20.1454 14.8646 19.8539 14.8646 19.6219 15.0063Z" fill="white"/>
<path d="M31.6529 16.4994L21.6367 9.58058C20.6276 8.96529 19.3728 8.96529 18.3645 9.58058L8.34744 16.4994C8.00597 16.7088 7.89724 17.1542 8.10664 17.4957C8.31522 17.8379 8.76139 17.9458 9.10287 17.7373L9.62876 17.4159V27.8606C9.62876 28.7046 10.3149 29.3908 11.1589 29.3908H28.8414C29.6854 29.3908 30.3716 28.7038 30.3716 27.8606V17.4167L30.8975 17.7381C31.0151 17.8097 31.1455 17.8444 31.2744 17.8444C31.5184 17.8444 31.7576 17.7212 31.8937 17.4965C32.1023 17.155 31.9944 16.7088 31.6529 16.4994ZM21.5722 27.9412H18.4281V22.8481C18.4281 22.8038 18.4644 22.7675 18.5087 22.7675H21.4917C21.536 22.7675 21.5722 22.8038 21.5722 22.8481V27.9412ZM28.9219 27.8614C28.9219 27.9057 28.8857 27.942 28.8414 27.942H23.0219V22.8481C23.0219 22.004 22.3357 21.3179 21.4917 21.3179H18.5087C17.6646 21.3179 16.9785 22.0049 16.9785 22.8481V27.9412H11.1589C11.1147 27.9412 11.0784 27.9049 11.0784 27.8606V16.5316L19.1191 10.8184C19.6627 10.4866 20.3384 10.4866 20.8812 10.8184L28.9219 16.5316V27.8614Z" fill="white"/>
</g>
<defs>
<clipPath id="clip0_7785_10842">
<rect width="40" height="40" fill="white"/>
</clipPath>
</defs>
</svg>
