<svg width="32" height="33" viewBox="0 0 32 33" fill="none" xmlns="http://www.w3.org/2000/svg">
<circle cx="16" cy="16.5757" r="16" fill="#DAEEF1"/>
<path d="M21.25 9.07569H10.75C10.1533 9.07569 9.58097 9.31274 9.15901 9.7347C8.73705 10.1567 8.5 10.729 8.5 11.3257V21.8257C8.5 22.4224 8.73705 22.9947 9.15901 23.4167C9.58097 23.8386 10.1533 24.0757 10.75 24.0757H21.25C21.8467 24.0757 22.419 23.8386 22.841 23.4167C23.2629 22.9947 23.5 22.4224 23.5 21.8257V11.3257C23.5 10.729 23.2629 10.1567 22.841 9.7347C22.419 9.31274 21.8467 9.07569 21.25 9.07569ZM22 21.8257C22 22.0246 21.921 22.2154 21.7803 22.356C21.6397 22.4967 21.4489 22.5757 21.25 22.5757H10.75C10.5511 22.5757 10.3603 22.4967 10.2197 22.356C10.079 22.2154 10 22.0246 10 21.8257V11.3257C10 11.1268 10.079 10.936 10.2197 10.7954C10.3603 10.6547 10.5511 10.5757 10.75 10.5757H21.25C21.4489 10.5757 21.6397 10.6547 21.7803 10.7954C21.921 10.936 22 11.1268 22 11.3257V21.8257Z" fill="#368796"/>
<path d="M16.2199 15.5004H16.7244L16.9901 15.2496C17.0468 15.1959 17.1274 15.169 17.208 15.178C17.2886 15.187 17.3572 15.2317 17.402 15.3004L17.5394 15.5124L18.1931 14.4586C18.2469 14.375 18.3394 14.3242 18.4409 14.3332C18.5394 14.3391 18.629 14.4018 18.6678 14.4914L19.2678 15.8497L19.3693 15.6467C19.4141 15.5572 19.5066 15.5004 19.6081 15.5004H20.4978C20.5007 15.4288 20.5007 15.3571 20.4978 15.2855C20.4948 15.2019 20.4858 15.1213 20.4739 15.0407C20.4619 14.9601 20.447 14.8795 20.4261 14.7989C20.3186 14.3571 20.0947 13.9391 19.7514 13.5958C19.6589 13.5033 19.5574 13.4167 19.4559 13.3421C19.4201 13.3182 19.3872 13.2913 19.3514 13.2704C19.3036 13.2376 19.2529 13.2107 19.2051 13.1809C19.1574 13.154 19.1066 13.1271 19.0588 13.1032C18.1782 12.6793 17.1005 12.7838 16.3183 13.4197C16.2854 13.4466 16.2526 13.4764 16.2197 13.5033C16.1869 13.5331 16.1541 13.563 16.1242 13.5928L16.0615 13.6555L15.9958 13.7152L15.8734 13.5928C15.3779 13.0973 14.7301 12.8495 14.0763 12.8435H14.0584C13.4016 12.8435 12.7419 13.0943 12.2433 13.5928C12.2135 13.6227 12.1806 13.6555 12.1538 13.6884C12.1239 13.7212 12.0971 13.754 12.0702 13.7869C11.9896 13.8884 11.915 13.9929 11.8523 14.1033C11.8105 14.175 11.7717 14.2496 11.7358 14.3272C11.5776 14.6676 11.5 15.0377 11.5 15.4079V15.4109C11.5 15.5661 11.5149 15.7243 11.5418 15.8796C11.5448 15.8945 11.5478 15.9065 11.5507 15.9214C11.6463 16.399 11.8791 16.8558 12.2463 17.223L12.3717 17.3484L15.9958 20.9755L19.7482 17.2231C19.8407 17.1305 19.9273 17.029 20.0019 16.9275C20.0527 16.8589 20.1004 16.7872 20.1422 16.7156C20.184 16.6439 20.2228 16.5693 20.2587 16.4917C20.3273 16.3454 20.3781 16.1931 20.4169 16.0409H19.7661L19.4825 16.5991C19.4377 16.6887 19.3451 16.7454 19.2436 16.7454H19.2377C19.1332 16.7424 19.0406 16.6798 18.9989 16.5842L18.3749 15.1752L17.766 16.1573C17.7182 16.2349 17.6316 16.2827 17.5391 16.2857H17.5361C17.4435 16.2857 17.36 16.2379 17.3092 16.1633L17.1181 15.8647L17.0107 15.9662C16.9599 16.014 16.8943 16.0409 16.8256 16.0409H16.2136C16.0643 16.0409 15.9449 15.9215 15.9449 15.7722C15.9449 15.6229 16.0706 15.5004 16.2199 15.5004Z" fill="#368796"/>
</svg>
