<svg width="33" height="17" viewBox="0 0 33 17" fill="none" xmlns="http://www.w3.org/2000/svg">
<path d="M29.8223 5.08352C22.587 -1.67628 11.332 -1.67628 4.09666 5.08352L0.96167 8.01367L4.10173 10.9438C11.3371 17.7036 22.592 17.7036 29.8274 10.9438L32.9624 8.01367L29.8223 5.08352ZM16.9621 14.0137C13.6471 14.0137 10.9619 11.3287 10.9619 8.01349C10.9619 4.69824 13.6469 2.0133 16.9621 2.0133C20.2774 2.0133 22.9623 4.69824 22.9623 8.01349C22.9623 11.3287 20.2774 14.0137 16.9621 14.0137Z" fill="#43A9BC"/>
<path d="M16.9621 4.01336C16.4021 4.01336 15.8671 4.12846 15.3821 4.33839C15.7323 4.61348 15.9622 5.03335 15.9622 5.51333C15.9622 6.33834 15.2873 7.01326 14.4623 7.01326C13.9823 7.01326 13.5623 6.7833 13.2874 6.43317C13.0772 6.91842 12.9621 7.45336 12.9621 8.01343C12.9621 10.2184 14.7571 12.0135 16.9622 12.0135C18.2522 12.0135 19.3923 11.3984 20.1273 10.4535C19.7422 10.3135 19.4623 9.94842 19.4623 9.51336C19.4623 8.96343 19.9123 8.51338 20.4623 8.51338C20.6223 8.51338 20.7772 8.55344 20.9123 8.62342C20.9422 8.42338 20.9623 8.2185 20.9623 8.01338C20.9623 5.80835 19.1672 4.01336 16.9621 4.01336Z" fill="#43A9BC"/>
</svg>
