<svg width="40" height="41" viewBox="0 0 40 41" fill="none" xmlns="http://www.w3.org/2000/svg">
<rect y="0.575684" width="40" height="40" rx="20" fill="#F08A75"/>
<path d="M24.1336 23.9901V26.0389C24.1336 27.4389 22.9728 28.5998 21.5728 28.5998H14.0609C12.6609 28.5998 11.5 27.4389 11.5 26.0389V15.1125C11.5 13.7125 12.6609 12.5516 14.0609 12.5516H21.5728C22.9728 12.5516 24.1336 13.7125 24.1336 15.1125V17.1613C24.1336 17.6393 23.758 18.0149 23.28 18.0149C22.802 18.0149 22.4264 17.6393 22.4264 17.1613V15.1125C22.4264 14.6345 22.0508 14.2589 21.5728 14.2589H14.0609C13.5829 14.2589 13.2072 14.6345 13.2072 15.1125V26.0389C13.2072 26.5169 13.5829 26.8925 14.0609 26.8925H21.5728C22.0508 26.8925 22.4264 26.5169 22.4264 26.0389V23.9901C22.4264 23.512 22.802 23.1364 23.28 23.1364C23.758 23.1364 24.1336 23.512 24.1336 23.9901ZM31.3382 21.0538C31.3382 21.0198 31.3723 21.0198 31.3723 20.9855C31.3723 20.9514 31.4063 20.9171 31.4063 20.9171C31.4063 20.8831 31.4404 20.8488 31.4404 20.8488C31.4404 20.8147 31.4404 20.8147 31.4745 20.7804C31.5085 20.678 31.5085 20.5413 31.4745 20.4389C31.4745 20.4048 31.4745 20.4048 31.4404 20.3705C31.4404 20.3364 31.4404 20.3021 31.4063 20.3021C31.4063 20.2681 31.3723 20.2338 31.3723 20.2338C31.3723 20.1997 31.3382 20.1997 31.3382 20.1654C31.3042 20.1314 31.2699 20.063 31.2358 20.029L27.4114 16.171C27.0698 15.8295 26.5237 15.8295 26.2162 16.171C25.8746 16.5125 25.8746 17.0587 26.2162 17.3662L28.5723 19.7223L17.8166 19.722C17.3386 19.722 16.963 20.0976 16.963 20.5756C16.963 21.0537 17.3386 21.4293 17.8166 21.4293H28.5381L26.182 23.7853C25.8405 24.1269 25.8405 24.673 26.182 24.9805C26.3528 25.1513 26.5577 25.2197 26.7965 25.2197C27.0357 25.2197 27.2405 25.1513 27.411 24.9805L31.2352 21.1564C31.2697 21.1564 31.3038 21.088 31.3381 21.0539L31.3382 21.0538Z" fill="white"/>
</svg>
