<svg width="24" height="22" viewBox="0 0 24 22" fill="none" xmlns="http://www.w3.org/2000/svg">
<g clip-path="url(#clip0_584_1043)">
<path d="M11.4072 11.1C11.1685 11.1 10.9396 11.1948 10.7708 11.3636C10.6021 11.5324 10.5072 11.7613 10.5072 12V15.6C10.5072 15.8387 10.6021 16.0676 10.7708 16.2364C10.9396 16.4052 11.1685 16.5 11.4072 16.5C11.6459 16.5 11.8748 16.4052 12.0436 16.2364C12.2124 16.0676 12.3072 15.8387 12.3072 15.6V12C12.3072 11.7613 12.2124 11.5324 12.0436 11.3636C11.8748 11.1948 11.6459 11.1 11.4072 11.1ZM11.7492 7.572C11.5301 7.48198 11.2843 7.48198 11.0652 7.572C10.9548 7.61483 10.8538 7.67906 10.7682 7.761C10.6887 7.84848 10.6248 7.94893 10.5792 8.058C10.5288 8.16481 10.5042 8.28194 10.5072 8.4C10.5065 8.51845 10.5292 8.63586 10.574 8.74551C10.6188 8.85517 10.6848 8.9549 10.7682 9.039C10.8557 9.1185 10.9562 9.18242 11.0652 9.228C11.2016 9.28402 11.3496 9.30568 11.4963 9.2911C11.643 9.27652 11.7838 9.22613 11.9065 9.14436C12.0291 9.06259 12.1298 8.95195 12.1997 8.82216C12.2696 8.69237 12.3065 8.5474 12.3072 8.4C12.3039 8.16171 12.2107 7.93347 12.0462 7.761C11.9606 7.67906 11.8597 7.61483 11.7492 7.572ZM11.4072 3C9.6272 3 7.88714 3.52784 6.4071 4.51677C4.92706 5.50571 3.7735 6.91131 3.09231 8.55585C2.41113 10.2004 2.2329 12.01 2.58016 13.7558C2.92743 15.5016 3.7846 17.1053 5.04327 18.364C6.30194 19.6226 7.90559 20.4798 9.65142 20.8271C11.3972 21.1743 13.2068 20.9961 14.8514 20.3149C16.4959 19.6337 17.9015 18.4802 18.8905 17.0001C19.8794 15.5201 20.4072 13.78 20.4072 12C20.4072 10.8181 20.1744 9.64778 19.7221 8.55585C19.2699 7.46392 18.6069 6.47177 17.7712 5.63604C16.9355 4.80031 15.9433 4.13738 14.8514 3.68508C13.7594 3.23279 12.5891 3 11.4072 3V3ZM11.4072 19.2C9.9832 19.2 8.59116 18.7777 7.40712 17.9866C6.22309 17.1954 5.30025 16.0709 4.7553 14.7553C4.21035 13.4397 4.06776 11.992 4.34558 10.5953C4.62339 9.19869 5.30912 7.91577 6.31606 6.90883C7.323 5.90189 8.60592 5.21616 10.0026 4.93835C11.3992 4.66053 12.8469 4.80312 14.1625 5.34807C15.4782 5.89302 16.6027 6.81586 17.3938 7.99989C18.185 9.18393 18.6072 10.576 18.6072 12C18.6072 13.9096 17.8487 15.7409 16.4984 17.0912C15.1481 18.4414 13.3168 19.2 11.4072 19.2V19.2Z" fill="#43A9BC"/>
</g>
<defs>
<clipPath id="clip0_584_1043">
<rect width="19" height="19" fill="white" transform="translate(2.20361 2.5)"/>
</clipPath>
</defs>
</svg>
