<svg width="32" height="33" viewBox="0 0 32 33" fill="none" xmlns="http://www.w3.org/2000/svg">
<g clip-path="url(#clip0_12864_7862)">
<circle cx="16" cy="16.6388" r="16" fill="#DAEEF1"/>
<path d="M17.3204 8.12548C17.3204 7.39715 16.7291 6.80548 16.0004 6.80548C15.2721 6.80548 14.6801 7.39681 14.6801 8.12548V8.68648H17.3204V8.12548Z" fill="#8ECBD7"/>
<path fill-rule="evenodd" clip-rule="evenodd" d="M10.7891 20.8055C10.7891 21.5418 11.3861 22.1388 12.1224 22.1388L14.9081 22.1388V23.1751C14.9081 23.5431 15.2067 23.8418 15.5747 23.8418H16.4261C16.7941 23.8418 17.0927 23.5431 17.0927 23.1751V22.1388L19.8781 22.1388C20.6144 22.1388 21.2114 21.5418 21.2114 20.8055V13.0286L21.2117 13.0285V10.0201C21.2117 9.28381 20.6147 8.68681 19.8784 8.68681H12.1224C11.3861 8.68681 10.7891 9.28381 10.7891 10.0201V20.8055ZM16.0004 12.6931C17.6706 13.6868 19.4274 13.5616 20.8159 13.1549C19.4277 13.5619 17.6707 13.6868 16.0004 12.6931Z" fill="#8ECBD7"/>
<path d="M19.8776 8.52013H17.6532V8.29213C17.6532 7.38046 16.9116 6.63879 15.9999 6.63879C15.0882 6.63879 14.3466 7.38046 14.3466 8.29213V8.52013H12.1222C11.2032 8.52013 10.4556 9.26779 10.4556 10.1868V20.9721C10.4556 21.8911 11.2032 22.6388 12.1222 22.6388H14.5742V23.3418C14.5716 23.9308 15.0846 24.3858 15.6666 24.3418V26.3055C15.6666 26.4898 15.8159 26.6388 15.9999 26.6388C16.1839 26.6388 16.3332 26.4898 16.3332 26.3055V24.3418C16.9152 24.3858 17.4286 23.9308 17.4256 23.3418V22.6388H19.8776C20.7966 22.6388 21.5442 21.8911 21.5442 20.9721V10.1868C21.5442 9.26779 20.7966 8.52013 19.8776 8.52013ZM15.0129 8.29213C15.0129 7.74813 15.4556 7.30546 15.9996 7.30546C16.5436 7.30546 16.9862 7.74813 16.9862 8.29213V8.52013H15.0126V8.29213H15.0129ZM12.1219 9.18679H19.8779C20.4292 9.18679 20.8779 9.63546 20.8779 10.1868V12.9545C19.6232 13.3485 17.8436 13.5691 16.1702 12.5738C14.2666 11.4411 12.4209 11.2488 11.1219 11.3101V10.1871C11.1219 9.63579 11.5706 9.18713 12.1219 9.18713V9.18679ZM16.7589 23.3421C16.7589 23.5261 16.6092 23.6755 16.4256 23.6755H15.5739C15.3902 23.6755 15.2406 23.5261 15.2406 23.3421V22.6391H16.7589V23.3421ZM19.8776 21.9725H12.1216C11.5702 21.9725 11.1216 21.5238 11.1216 20.9725V11.9768C12.3252 11.9145 14.0502 12.0881 15.8292 13.1465C16.7339 13.6848 17.7469 13.9555 18.8282 13.9555C19.4886 13.9555 20.1752 13.8481 20.8776 13.6458V20.9725C20.8776 21.5238 20.4289 21.9725 19.8776 21.9725Z" fill="#286571"/>
</g>
<defs>
<clipPath id="clip0_12864_7862">
<rect width="32" height="32" fill="white" transform="translate(0 0.638794)"/>
</clipPath>
</defs>
</svg>
