<svg width="33" height="32" viewBox="0 0 33 32" fill="none" xmlns="http://www.w3.org/2000/svg">
<g clip-path="url(#clip0_12948_1739)">
<circle cx="16.541" cy="16" r="16" fill="#EDF0FF"/>
<path d="M25.4697 19.7956C25.2872 16.4824 24.2251 13.5247 22.2203 10.8822C21.785 10.308 21.2495 9.81014 20.4913 9.60458C19.964 9.46209 19.5473 9.63247 19.2262 10.0205C18.7481 10.5972 18.6243 11.2969 18.5158 11.9972C18.2912 13.4519 18.0563 14.9059 17.8488 16.363C17.7467 17.0809 17.6037 17.8091 17.6395 18.5258C17.6995 19.7337 18.1341 20.8124 19.2562 21.534C19.6781 21.8056 20.0847 22.0985 20.5021 22.3768C21.3625 22.951 22.2248 23.5222 23.0864 24.0946C23.546 24.4002 23.9832 24.3687 24.3725 23.9812C24.9119 23.4452 25.1046 22.757 25.2163 22.0579C25.3382 21.292 25.3919 20.5159 25.4697 19.7943V19.7956Z" fill="#334499"/>
<path d="M7.61296 19.8125C7.66402 20.8482 7.70742 21.8814 8.06102 22.8643C8.21485 23.2918 8.46505 23.7083 8.76056 24.0637C9.07076 24.4372 9.51946 24.4426 9.93114 24.1692C11.2096 23.3185 12.4746 22.4489 13.7627 21.611C14.759 20.9634 15.193 20.0296 15.3985 18.9497C15.5562 18.1226 15.3436 17.3228 15.2313 16.517C15.0468 15.1891 14.8349 13.8648 14.625 12.5405C14.5133 11.836 14.4628 11.115 14.1137 10.4638C13.8807 10.0296 13.5897 9.64824 13.0242 9.587C12.6119 9.54213 12.2206 9.66279 11.9315 9.91443C11.4343 10.348 10.9122 10.7864 10.5369 11.3109C9.08544 13.3379 8.21165 15.5953 7.79104 18.008C7.68764 18.6022 7.66977 19.2104 7.61232 19.8119L7.61296 19.8125Z" fill="#334499"/>
<path d="M18.0467 12.8613C18.0748 12.734 18.1144 12.6078 18.1278 12.4793C18.1526 12.2374 18.1622 12.0427 17.9273 11.8184C17.3861 11.3012 17.074 10.6584 17.0989 9.89139C17.1225 9.16498 17.0912 8.43735 17.1059 7.71094C17.111 7.45203 17.0389 7.35198 16.7497 7.36229C16.0311 7.38715 16.1179 7.27983 16.1134 7.9547C16.1089 8.63139 16.0955 9.30808 16.1127 9.98355C16.1281 10.5899 15.9296 11.1083 15.5007 11.5528C15.4215 11.6347 15.359 11.7371 15.2651 11.7984C14.812 12.0943 14.8879 12.4738 15.0596 12.9056C15.3009 12.7188 15.5185 12.5314 15.7553 12.3702C16.4363 11.9057 16.8953 11.9287 17.5163 12.4635C17.6771 12.6024 17.7997 12.7813 17.9395 12.9419C17.9752 12.9147 18.011 12.888 18.0467 12.8607V12.8613Z" fill="#334499"/>
</g>
<defs>
<clipPath id="clip0_12948_1739">
<rect width="32" height="32" fill="white" transform="translate(0.541016)"/>
</clipPath>
</defs>
</svg>
