<svg width="57" height="56" viewBox="0 0 57 56" fill="none" xmlns="http://www.w3.org/2000/svg">
<circle cx="28.7579" cy="27.9077" r="27.8479" fill="#DAEEF1"/>
<path d="M28.7579 26.3412C29.2743 26.3412 29.779 26.1881 30.2084 25.9013C30.6377 25.6144 30.9723 25.2066 31.1699 24.7296C31.3675 24.2525 31.4192 23.7276 31.3185 23.2212C31.2177 22.7147 30.9691 22.2496 30.604 21.8844C30.2389 21.5193 29.7737 21.2707 29.2672 21.1699C28.7608 21.0692 28.2359 21.1209 27.7588 21.3185C27.2818 21.5161 26.874 21.8507 26.5872 22.2801C26.3003 22.7094 26.1472 23.2142 26.1472 23.7305C26.1472 24.4229 26.4222 25.087 26.9118 25.5766C27.4014 26.0662 28.0655 26.3412 28.7579 26.3412ZM27.8311 35.3613C27.9524 35.4837 28.0968 35.5808 28.2559 35.6471C28.415 35.7134 28.5856 35.7475 28.7579 35.7475C28.9302 35.7475 29.1009 35.7134 29.2599 35.6471C29.419 35.5808 29.5634 35.4837 29.6847 35.3613L35.0237 30.0093C36.2637 28.7699 37.1083 27.1906 37.4507 25.4712C37.7931 23.7517 37.6178 21.9693 36.9471 20.3495C36.2764 18.7296 35.1403 17.345 33.6827 16.3709C32.225 15.3968 30.5111 14.8768 28.7579 14.8768C27.0047 14.8768 25.2908 15.3968 23.8332 16.3709C22.3755 17.345 21.2394 18.7296 20.5687 20.3495C19.898 21.9693 19.7227 23.7517 20.0651 25.4712C20.4075 27.1906 21.2521 28.7699 22.4921 30.0093L27.8311 35.3613ZM22.5313 23.13C22.6205 22.1993 22.9164 21.3003 23.3974 20.4986C23.8785 19.6968 24.5325 19.0127 25.3117 18.496C26.3354 17.8238 27.5333 17.4657 28.7579 17.4657C29.9825 17.4657 31.1804 17.8238 32.2041 18.496C32.9781 19.0109 33.6284 19.6909 34.1083 20.4872C34.5881 21.2834 34.8855 22.1761 34.9791 23.101C35.0727 24.026 34.9602 24.9602 34.6497 25.8364C34.3391 26.7127 33.8383 27.5092 33.1831 28.1688L28.7579 32.594L24.3327 28.1688C23.6768 27.5156 23.1747 26.7244 22.8631 25.8528C22.5515 24.9811 22.4381 24.051 22.5313 23.13ZM37.8955 38.3506H19.6203C19.2741 38.3506 18.9421 38.4882 18.6973 38.733C18.4525 38.9778 18.315 39.3098 18.315 39.656C18.315 40.0022 18.4525 40.3342 18.6973 40.579C18.9421 40.8238 19.2741 40.9614 19.6203 40.9614H37.8955C38.2417 40.9614 38.5737 40.8238 38.8185 40.579C39.0633 40.3342 39.2009 40.0022 39.2009 39.656C39.2009 39.3098 39.0633 38.9778 38.8185 38.733C38.5737 38.4882 38.2417 38.3506 37.8955 38.3506Z" fill="#368796"/>
</svg>
