<svg width="20" height="21" viewBox="0 0 20 21" fill="none" xmlns="http://www.w3.org/2000/svg">
<g clip-path="url(#clip0_8004_10051)">
<path fill-rule="evenodd" clip-rule="evenodd" d="M1.60846 10.0934L1.6079 10.0925C1.23979 9.52284 0.92141 8.92254 0.655968 8.29829C-0.202449 6.10885 -0.45767 3.13833 1.38868 1.36628C3.23503 -0.405782 6.71462 -0.377255 8.69018 1.42486C8.82946 1.56048 10.9736 3.61903 12.8599 3.61903C13.0572 3.61903 13.217 3.45915 13.217 3.2619C13.217 3.0648 13.0572 2.90493 12.8599 2.90493C11.6064 2.90493 10.1024 1.71944 9.47857 1.17604C11.4911 -0.372525 14.7209 -0.318674 16.4748 1.36704C17.8252 2.66206 18.2084 4.87515 17.5261 7.32775C16.5036 7.21867 15.4774 7.49464 14.6478 8.10196C13.1781 6.97794 10.8953 7.02966 9.60321 8.27053C8.49995 9.32848 8.41131 10.9248 8.74632 12.3053C7.85541 12.4677 7.31125 13.1779 7.13276 14.4315C6.51386 18.8708 5.67588 20.0438 5.31876 20.0438C4.53326 20.0438 4.19307 19.0248 3.93632 18.0651C3.64265 16.8922 3.44083 15.6985 3.33282 14.4944C3.17813 13.3135 2.79858 12.1733 2.21491 11.1352C2.02195 10.7756 1.81179 10.4289 1.60846 10.0934ZM4.29055 1.47657C4.29055 1.27947 4.13067 1.1196 3.93342 1.1196C3.73617 1.1196 3.57629 1.27947 3.57629 1.47657C3.57629 1.67382 3.73617 1.8337 3.93342 1.8337C4.13067 1.8337 4.29055 1.67382 4.29055 1.47657ZM2.9969 1.9501C2.91284 1.77603 2.70537 1.70052 2.52917 1.77985C2.50522 1.79159 0.0414837 3.02026 1.00013 6.53829C1.03384 6.6614 1.13056 6.7572 1.25398 6.78969C1.37739 6.82219 1.50874 6.78634 1.59844 6.69557C1.6883 6.60495 1.72292 6.4733 1.68936 6.35019C0.891968 3.42864 2.75434 2.46496 2.83977 2.42255C3.01139 2.33362 3.08111 2.12416 2.9969 1.9501ZM17.0635 9.49585C16.4507 9.49585 15.6748 8.96634 15.2046 8.57824C15.9509 8.09648 16.8522 7.91525 17.7268 8.07116C18.2766 8.15811 18.7876 8.40784 19.194 8.78816C20.2874 9.83193 20.1023 11.6568 19.6117 12.9027C19.4522 13.2776 19.2609 13.6384 19.0398 13.9809C18.9098 14.1956 18.7799 14.4105 18.6619 14.6332C18.2947 15.2878 18.0557 16.0064 17.9574 16.7504C17.892 17.4849 17.7689 18.213 17.5893 18.9284C17.4426 19.4679 17.2545 20.0438 16.8774 20.0438C16.7356 20.0007 16.2522 19.294 15.8916 16.7083C15.7733 15.8858 15.4156 15.4082 14.826 15.2878C14.7796 15.2776 14.7326 15.2698 14.6853 15.2646C14.6722 15.2651 14.6591 15.2662 14.6461 15.2682C14.6324 15.2662 14.6185 15.2648 14.6046 15.2642C13.9323 15.3392 13.5278 15.8248 13.4028 16.7083C13.0425 19.294 12.5569 20.0014 12.4227 20.0438C12.0359 20.0438 11.8489 19.469 11.7043 18.9288C11.5255 18.2133 11.4028 17.4852 11.3372 16.7507C11.2402 16.0065 11.0015 15.2878 10.6338 14.6337C10.5159 14.4123 10.3871 14.1991 10.2582 13.9867C10.0357 13.6424 9.84299 13.2796 9.6822 12.9027C9.16871 11.5965 9.01173 9.82933 10.099 8.78572C11.1862 7.74195 13.2382 7.76025 14.4043 8.82355C14.5093 8.92454 15.8562 10.21 17.0635 10.21C17.2606 10.21 17.4205 10.0502 17.4205 9.85298C17.4205 9.65573 17.2606 9.49585 17.0635 9.49585ZM10.9194 12.0932C10.3481 10.4493 11.3514 9.82552 11.4007 9.79623C11.5719 9.69814 11.6312 9.47999 11.5333 9.30882C11.4352 9.13766 11.217 9.07831 11.0459 9.1764C10.4981 9.487 9.62545 10.5453 10.245 12.3277C10.2866 12.4485 10.3896 12.5379 10.5151 12.562C10.6407 12.5861 10.7694 12.5413 10.8529 12.4446C10.9363 12.3478 10.9618 12.2137 10.9194 12.0932ZM11.789 8.97488C11.789 9.17213 11.9488 9.33201 12.1459 9.33201C12.3432 9.33201 12.5031 9.17213 12.5031 8.97488C12.5031 8.77778 12.3432 8.61791 12.1459 8.61791C11.9488 8.61791 11.789 8.77778 11.789 8.97488Z" fill="#7D8285"/>
</g>
<defs>
<clipPath id="clip0_8004_10051">
<rect width="20" height="20" fill="white" transform="translate(0 0.0505371)"/>
</clipPath>
</defs>
</svg>
