<svg width="33" height="33" viewBox="0 0 33 33" fill="none" xmlns="http://www.w3.org/2000/svg">
<rect x="0.780029" y="1.41968" width="31" height="31" rx="7.5" fill="#F7F7FD"/>
<path fill-rule="evenodd" clip-rule="evenodd" d="M12.1675 12.874C11.1113 13.9483 10.5271 15.3883 10.5271 16.9198L8.28003 16.9198C8.28003 14.7941 9.08903 12.7826 10.5947 11.274C12.0778 9.74254 14.0557 8.91968 16.1453 8.91968C18.235 8.91968 20.2126 9.74254 21.696 11.2738L23.1566 9.78818V14.3596H18.6622L20.1228 12.874C19.0666 11.7997 17.6507 11.2055 16.1451 11.2055C14.6395 11.2055 13.2237 11.7997 12.1675 12.874ZM9.40342 24.0741V19.5026H13.8978L12.4484 20.9769C13.5033 22.044 14.9145 22.634 16.4147 22.634C17.9203 22.634 19.3361 22.0398 20.3923 20.9655C21.4485 19.8912 22.0328 18.4511 22.0328 16.9197H24.28C24.28 19.0455 23.4486 21.0568 21.9654 22.5654C20.4822 24.0969 18.5045 24.9197 16.4147 24.9197C14.3249 24.9197 12.3473 24.0969 10.864 22.5884L9.40342 24.0741Z" fill="#6666CC"/>
<rect x="0.780029" y="1.41968" width="31" height="31" rx="7.5" stroke="#6666CC"/>
</svg>
