<svg width="28" height="28" viewBox="0 0 28 28" fill="none" xmlns="http://www.w3.org/2000/svg">
<path d="M16.846 12.6919C17.2288 12.165 17.4584 11.5424 17.5095 10.8931C17.5606 10.2438 17.4311 9.59299 17.1354 9.01267C16.8396 8.43235 16.3892 7.9451 15.8339 7.60479C15.2785 7.26449 14.6399 7.08438 13.9885 7.08438C13.3372 7.08438 12.6986 7.26449 12.1432 7.60479C11.5879 7.9451 11.1374 8.43235 10.8417 9.01267C10.546 9.59299 10.4165 10.2438 10.4676 10.8931C10.5187 11.5424 10.7483 12.165 11.1311 12.6919C10.6455 13.0014 10.2132 13.3874 9.85094 13.8349C9.75638 13.9573 9.68683 14.097 9.64628 14.2462C9.60573 14.3954 9.59497 14.5512 9.6146 14.7045C9.63424 14.8579 9.68389 15.0059 9.76072 15.1401C9.83755 15.2742 9.94006 15.392 10.0624 15.4865C10.1847 15.5811 10.3245 15.6506 10.4737 15.6912C10.6229 15.7317 10.7786 15.7425 10.932 15.7229C11.0854 15.7032 11.2334 15.6536 11.3675 15.5768C11.5017 15.4999 11.6194 15.3974 11.714 15.2751C11.9931 14.9203 12.3489 14.6332 12.7547 14.4352C13.1604 14.2373 13.6057 14.1337 14.0571 14.1321V14.1321C14.5086 14.1337 14.9538 14.2373 15.3596 14.4352C15.7653 14.6332 16.1211 14.9203 16.4002 15.2751C16.5078 15.4077 16.6437 15.5145 16.798 15.5877C16.9523 15.6609 17.121 15.6986 17.2918 15.698C17.506 15.697 17.7157 15.6358 17.8969 15.5214C18.078 15.407 18.2234 15.2439 18.3164 15.0509C18.4093 14.8578 18.4461 14.6425 18.4226 14.4295C18.3991 14.2165 18.3161 14.0145 18.1833 13.8464C17.8048 13.3899 17.3528 12.9998 16.846 12.6919V12.6919ZM14 11.8576C13.7556 11.8574 13.5166 11.7853 13.3128 11.6504C13.109 11.5154 12.9495 11.3234 12.854 11.0984C12.7585 10.8734 12.7313 10.6253 12.7758 10.385C12.8202 10.1446 12.9344 9.92269 13.1041 9.74677C13.2738 9.57085 13.4915 9.44873 13.7301 9.39562C13.9687 9.34251 14.2176 9.36075 14.4459 9.44808C14.6742 9.5354 14.8718 9.68795 15.014 9.88673C15.1562 10.0855 15.2369 10.3217 15.2458 10.566C15.252 10.7334 15.2243 10.9003 15.1644 11.0568C15.1046 11.2133 15.0138 11.3561 14.8975 11.4766C14.7812 11.5972 14.6418 11.6931 14.4875 11.7585C14.3333 11.824 14.1675 11.8577 14 11.8576V11.8576ZM23.6696 11.2861C23.5092 9.61607 22.919 8.01608 21.9565 6.64191C20.994 5.26774 19.6922 4.16622 18.1776 3.44461C16.663 2.723 14.9874 2.4059 13.3139 2.52418C11.6403 2.64246 10.026 3.19209 8.62794 4.11955C7.42689 4.92267 6.41862 5.98182 5.67555 7.22092C4.93248 8.46002 4.47307 9.84831 4.33032 11.2861C4.19029 12.7144 4.36995 14.156 4.85629 15.5063C5.34262 16.8566 6.12343 18.0816 7.14206 19.0927L13.1999 25.1619C13.3061 25.269 13.4326 25.3541 13.5718 25.4121C13.7111 25.4701 13.8605 25.5 14.0114 25.5C14.1623 25.5 14.3117 25.4701 14.451 25.4121C14.5903 25.3541 14.7167 25.269 14.8229 25.1619L20.8579 19.0927C21.8765 18.0816 22.6573 16.8566 23.1437 15.5063C23.63 14.156 23.8097 12.7144 23.6696 11.2861V11.2861ZM19.2577 17.481L14 22.7388L8.74224 17.481C7.9674 16.7062 7.37386 15.7692 7.0043 14.7376C6.63473 13.706 6.49832 12.6053 6.60486 11.5147C6.71209 10.4072 7.06407 9.33746 7.63534 8.38271C8.20661 7.42795 8.98291 6.61207 9.90809 5.99405C11.1207 5.18851 12.5442 4.75882 14 4.75882C15.4558 4.75882 16.8792 5.18851 18.0919 5.99405C19.0142 6.60968 19.7888 7.42196 20.3599 8.37253C20.9311 9.3231 21.2846 10.3884 21.3951 11.4918C21.5051 12.5861 21.3704 13.6912 21.0007 14.7271C20.6311 15.7629 20.0357 16.7036 19.2577 17.481V17.481Z" fill="#368796"/>
</svg>
