<svg width="28" height="28" viewBox="0 0 28 28" fill="none" xmlns="http://www.w3.org/2000/svg">
<path d="M14.5312 17.2555H14.1612C14.0518 17.2555 13.9596 17.3454 13.9596 17.4549C13.9596 17.5643 14.0472 17.6519 14.1566 17.6519H14.6054C14.6558 17.6519 14.7039 17.6322 14.7412 17.5972L14.82 17.5227L14.9601 17.7417C14.9973 17.7964 15.0586 17.8314 15.1265 17.8314H15.1287C15.1965 17.8292 15.26 17.7942 15.295 17.7373L15.7416 17.017L16.1992 18.0503C16.2298 18.1204 16.2977 18.1664 16.3743 18.1686H16.3787C16.4531 18.1686 16.521 18.127 16.5538 18.0613L16.7618 17.6519H17.239C17.2106 17.7636 17.1734 17.8752 17.123 17.9825C17.0967 18.0394 17.0683 18.0941 17.0376 18.1467C17.007 18.1992 16.972 18.2518 16.9347 18.3021C16.88 18.3765 16.8165 18.451 16.7487 18.5188L13.9969 21.2706L11.2473 18.5188C10.978 18.2495 10.8073 17.9145 10.7372 17.5643C10.7361 17.5588 10.735 17.5539 10.7339 17.5489C10.7328 17.544 10.7317 17.5391 10.7306 17.5336C10.7109 17.4198 10.7 17.3037 10.7 17.1899V17.1877C10.7 16.9162 10.7569 16.6448 10.8729 16.3952C10.8992 16.3383 10.9277 16.2836 10.9583 16.231C11.0043 16.15 11.059 16.0734 11.1181 15.999C11.1378 15.9749 11.1575 15.9508 11.1794 15.9267C11.1991 15.9026 11.2232 15.8786 11.2451 15.8567C11.6107 15.4911 12.0945 15.3072 12.5762 15.3072H12.5893C13.0687 15.3116 13.5438 15.4933 13.9072 15.8567L13.997 15.9464L14.0451 15.9026L14.0911 15.8567C14.113 15.8348 14.137 15.8129 14.1611 15.791C14.1731 15.7812 14.1852 15.7707 14.1973 15.7603C14.2093 15.7499 14.2213 15.7395 14.2334 15.7297C14.807 15.2634 15.5973 15.1868 16.2432 15.4976C16.2782 15.5151 16.3154 15.5348 16.3504 15.5545C16.3637 15.5629 16.3774 15.5709 16.3911 15.5789C16.4134 15.592 16.436 15.6053 16.4577 15.6202C16.4738 15.6296 16.4891 15.6406 16.5045 15.6518C16.5143 15.6589 16.5241 15.666 16.5343 15.6728C16.6088 15.7275 16.6832 15.791 16.7511 15.8588C17.0028 16.1106 17.167 16.4171 17.2458 16.7411C17.2611 16.8002 17.2721 16.8593 17.2808 16.9184C17.2896 16.9775 17.2962 17.0366 17.2984 17.0979C17.3005 17.1505 17.3005 17.203 17.2984 17.2556H16.646C16.5715 17.2556 16.5037 17.2972 16.4708 17.3628L16.3964 17.5117L15.9564 16.5156C15.9279 16.4499 15.8622 16.404 15.79 16.3996C15.7156 16.393 15.6477 16.4302 15.6083 16.4915L15.1289 17.2643L15.0282 17.1089C14.9953 17.0585 14.945 17.0257 14.8859 17.0191C14.8267 17.0125 14.7676 17.0322 14.726 17.0717L14.5312 17.2555Z" fill="#368796"/>
<path fill-rule="evenodd" clip-rule="evenodd" d="M19.5 7.4H21.7C22.5752 7.4 23.4146 7.74768 24.0335 8.36655C24.6523 8.98542 25 9.82479 25 10.7V21.7C25 22.5752 24.6523 23.4146 24.0335 24.0335C23.4146 24.6523 22.5752 25 21.7 25H6.3C5.42479 25 4.58542 24.6523 3.96655 24.0335C3.34768 23.4146 3 22.5752 3 21.7V10.7C3 9.82479 3.34768 8.98542 3.96655 8.36655C4.58542 7.74768 5.42479 7.4 6.3 7.4H8.5V6.3C8.5 5.42479 8.84768 4.58542 9.46655 3.96655C10.0854 3.34768 10.9248 3 11.8 3H16.2C17.0752 3 17.9146 3.34768 18.5335 3.96655C19.1523 4.58542 19.5 5.42479 19.5 6.3V7.4ZM11.0222 5.52218C10.8159 5.72847 10.7 6.00826 10.7 6.3V7.4H17.3V6.3C17.3 6.00826 17.1841 5.72847 16.9778 5.52218C16.7715 5.31589 16.4917 5.2 16.2 5.2H11.8C11.5083 5.2 11.2285 5.31589 11.0222 5.52218ZM22.4778 22.4778C22.6841 22.2715 22.8 21.9917 22.8 21.7V14H5.2V21.7C5.2 21.9917 5.31589 22.2715 5.52218 22.4778C5.72847 22.6841 6.00826 22.8 6.3 22.8H21.7C21.9917 22.8 22.2715 22.6841 22.4778 22.4778ZM5.2 11.8H22.8V10.7C22.8 10.4083 22.6841 10.1285 22.4778 9.92218C22.2715 9.71589 21.9917 9.6 21.7 9.6H6.3C6.00826 9.6 5.72847 9.71589 5.52218 9.92218C5.31589 10.1285 5.2 10.4083 5.2 10.7V11.8Z" fill="#368796"/>
</svg>
