<svg width="20" height="21" viewBox="0 0 20 21" fill="none" xmlns="http://www.w3.org/2000/svg">
<g clip-path="url(#clip0_8004_10076)">
<path d="M5.30928 12.788C5.08844 13.1672 5.18844 13.8713 4.92594 14.9838C5.16291 15.3891 5.53672 15.6964 5.98011 15.8505C6.08083 15.8838 6.16504 15.9543 6.21557 16.0476C6.26609 16.1409 6.27914 16.25 6.25203 16.3525C6.22493 16.4551 6.15972 16.5435 6.06971 16.5996C5.97969 16.6558 5.87165 16.6755 5.76761 16.6547C5.31045 16.5278 4.89959 16.2717 4.58428 15.9172C4.28505 16.4982 3.79936 16.9619 3.20511 17.2338C3.10566 17.2825 2.99096 17.2896 2.88625 17.2536C2.78154 17.2177 2.6954 17.1416 2.64678 17.0422C2.59816 16.9427 2.59103 16.828 2.62698 16.7233C2.66292 16.6186 2.73899 16.5325 2.83845 16.4838C4.02595 15.9005 4.15094 14.9505 4.30511 13.5672C3.77594 13.6505 2.98428 13.8755 2.91345 14.4797C2.90088 14.5889 2.84565 14.6887 2.7598 14.7574C2.67395 14.8261 2.56443 14.8581 2.45511 14.8463C1.72178 14.7463 1.94261 12.9422 4.43844 12.6922C4.49726 12.5352 4.57417 12.3856 4.66761 12.2463C4.48455 11.9641 4.4041 11.6274 4.43975 11.2929C4.47541 10.9583 4.625 10.6462 4.86344 10.4088C5.19678 10.0755 5.12178 10.3255 4.79261 9.70468C4.11344 9.81718 4.08011 10.1213 3.77595 10.1213C3.69077 10.1214 3.60763 10.0953 3.53774 10.0466C3.46785 9.99788 3.41456 9.92894 3.38505 9.84903C3.35554 9.76913 3.35123 9.6821 3.3727 9.59967C3.39416 9.51724 3.44038 9.44337 3.50511 9.38801C3.79666 9.14606 4.14274 8.97874 4.51344 8.90051C4.44864 8.53391 4.44864 8.15878 4.51344 7.79218C4.53002 7.68167 4.58982 7.58228 4.67968 7.51586C4.76954 7.44944 4.8821 7.42144 4.99261 7.43801C5.10312 7.45459 5.20251 7.51439 5.26893 7.60425C5.33535 7.69411 5.36335 7.80667 5.34678 7.91718C5.2877 8.20465 5.28905 8.50126 5.35074 8.78818C5.41243 9.0751 5.5331 9.34606 5.70511 9.58385L7.31761 7.97135C7.12938 7.3408 7.05047 6.68269 7.08428 6.02551C7.08439 5.91285 7.06166 5.80133 7.01746 5.6977C6.97325 5.59408 6.90849 5.50049 6.8271 5.42259C6.7457 5.3447 6.64935 5.28412 6.54388 5.24452C6.4384 5.20491 6.32599 5.18711 6.21344 5.19218C5.69173 5.19313 5.17751 5.31653 4.71218 5.55245C4.24685 5.78837 3.8434 6.13023 3.53428 6.55051C1.50896 9.17983 0.412857 12.4066 0.417612 15.7255C0.417612 17.9213 0.375945 17.5922 0.975945 19.388C1.05364 19.6259 1.20575 19.8324 1.40982 19.9772C1.61389 20.122 1.85911 20.1974 2.10928 20.1922C3.61345 20.1922 3.91761 19.2922 5.83428 18.5255C6.93428 18.1088 7.91761 17.563 7.91761 16.4422V11.8588C6.90928 12.538 6.25094 13.2255 5.30928 12.788Z" fill="#368796"/>
<path d="M16.4676 6.55051C16.1585 6.13023 15.755 5.78837 15.2897 5.55245C14.8244 5.31653 14.3102 5.19313 13.7884 5.19218C13.6759 5.18711 13.5635 5.20491 13.458 5.24452C13.3525 5.28412 13.2562 5.3447 13.1748 5.42259C13.0934 5.50049 13.0286 5.59408 12.9844 5.6977C12.9402 5.80133 12.9175 5.91285 12.9176 6.02551C12.9575 6.67901 12.8842 7.33448 12.7009 7.96301L14.3134 9.57551C14.4857 9.33784 14.6065 9.06689 14.6682 8.77993C14.7299 8.49297 14.7311 8.1963 14.6718 7.90885C14.6552 7.79834 14.6832 7.68577 14.7496 7.59591C14.816 7.50605 14.9154 7.44626 15.0259 7.42968C15.1365 7.4131 15.249 7.44111 15.3389 7.50752C15.4287 7.57394 15.4885 7.67334 15.5051 7.78385C15.5699 8.15045 15.5699 8.52558 15.5051 8.89218C15.8758 8.97041 16.2219 9.13773 16.5134 9.37968C16.5782 9.43504 16.6244 9.50891 16.6459 9.59134C16.6673 9.67377 16.663 9.7608 16.6335 9.8407C16.604 9.9206 16.5507 9.98954 16.4808 10.0382C16.4109 10.0869 16.3278 10.113 16.2426 10.113C15.9426 10.113 15.9051 9.80051 15.2301 9.69635C15.1346 9.86875 15.0274 10.0344 14.9093 10.1922L15.1384 10.4213C15.3755 10.6595 15.5242 10.9715 15.5598 11.3056C15.5954 11.6398 15.5158 11.9761 15.3343 12.2588C15.4269 12.3941 15.5038 12.5395 15.5634 12.6922C18.1134 12.9547 18.2843 14.838 17.5009 14.838C16.7176 14.838 17.6218 13.8588 15.6968 13.5547C15.8551 14.9672 15.9801 15.9088 17.1634 16.4922C17.2485 16.5334 17.317 16.6022 17.3577 16.6874C17.3985 16.7726 17.4091 16.8692 17.3878 16.9612C17.3664 17.0532 17.3145 17.1353 17.2404 17.1939C17.1664 17.2525 17.0746 17.2842 16.9801 17.2838C16.7051 17.2755 15.8343 16.7588 15.4176 15.9172C15.0884 16.3035 14.6397 16.5689 14.1426 16.6713C14.0321 16.6857 13.9204 16.6556 13.8321 16.5876C13.7438 16.5196 13.6861 16.4194 13.6718 16.3088C13.6574 16.1983 13.6875 16.0867 13.7555 15.9984C13.8235 15.9101 13.9238 15.8524 14.0343 15.838C14.4777 15.6839 14.8515 15.3766 15.0884 14.9713C14.8343 13.888 14.9218 13.1463 14.7051 12.7755C13.7843 13.1922 13.1759 12.5755 12.0968 11.8213V16.4422C12.0968 17.5713 13.0634 18.1088 14.1801 18.5255C16.0801 19.288 16.4051 20.1922 17.9051 20.1922C18.1553 20.1974 18.4005 20.122 18.6046 19.9772C18.8086 19.8324 18.9608 19.6259 19.0384 19.388C19.6218 17.6088 19.5843 17.9297 19.5843 15.7255C19.589 12.4066 18.4929 9.17983 16.4676 6.55051Z" fill="#368796"/>
<path d="M14.5468 10.988C11.9593 8.40051 11.2509 7.99218 11.2509 6.65468V1.02551H8.75095V6.65468C8.7512 6.98358 8.68656 7.30929 8.56072 7.61317C8.43488 7.91704 8.25032 8.19309 8.01761 8.42551L5.45511 10.988C5.32527 11.0985 5.24464 11.2561 5.23096 11.426C5.21729 11.596 5.27169 11.7644 5.38219 11.8943C5.4927 12.0241 5.65026 12.1047 5.82022 12.1184C5.99017 12.1321 6.1586 12.0777 6.28844 11.9672L9.53428 9.69218C9.6746 9.59356 9.84193 9.54064 10.0134 9.54064C10.185 9.54064 10.3523 9.59356 10.4926 9.69218L13.7384 11.9672C13.8702 12.0469 14.0263 12.0766 14.1781 12.0509C14.33 12.0251 14.4675 11.9455 14.5655 11.8267C14.6636 11.708 14.7157 11.5579 14.7122 11.4039C14.7088 11.2499 14.65 11.1023 14.5468 10.988Z" fill="#368796"/>
</g>
<defs>
<clipPath id="clip0_8004_10076">
<rect width="20" height="20" fill="white" transform="translate(0.000976562 0.608826)"/>
</clipPath>
</defs>
</svg>
