<svg width="28" height="27" viewBox="0 0 28 27" fill="none" xmlns="http://www.w3.org/2000/svg">
<path fill-rule="evenodd" clip-rule="evenodd" d="M6.67787 0.151955C3.30799 0.151955 0.576172 2.88378 0.576172 6.25365C0.576172 9.62352 3.30799 12.3553 6.67787 12.3553C10.0477 12.3553 12.7796 9.62352 12.7796 6.25365C12.7796 2.88378 10.0477 0.151955 6.67787 0.151955ZM6.67791 14.7961C3.30803 14.7961 0.576213 17.5279 0.576213 20.8978C0.576213 24.2677 3.30803 26.9995 6.67791 26.9995C10.0478 26.9995 12.7796 24.2677 12.7796 20.8978C12.7796 17.5279 10.0478 14.7961 6.67791 14.7961ZM15.2203 6.25375C15.2203 2.88388 17.9521 0.152054 21.322 0.152054C24.6918 0.152054 27.4237 2.88388 27.4237 6.25375C27.4237 9.62362 24.6918 12.3554 21.322 12.3554C17.9521 12.3554 15.2203 9.62362 15.2203 6.25375ZM21.322 14.7961C17.9521 14.7961 15.2203 17.5279 15.2203 20.8978C15.2203 24.2677 17.9521 26.9995 21.322 26.9995C24.6918 26.9995 27.4237 24.2677 27.4237 20.8978C27.4237 17.5279 24.6918 14.7961 21.322 14.7961Z" fill="#368796"/>
</svg>
