<svg width="32" height="32" viewBox="0 0 32 32" fill="none" xmlns="http://www.w3.org/2000/svg">
<g clip-path="url(#clip0_12864_7870)">
<circle cx="16" cy="16" r="16" fill="#DAEEF1"/>
<path d="M24.9287 19.7956C24.7462 16.4824 23.6841 13.5247 21.6793 10.8822C21.244 10.308 20.7085 9.81014 19.9502 9.60458C19.423 9.46209 19.0062 9.63247 18.6852 10.0205C18.2071 10.5972 18.0833 11.2969 17.9748 11.9972C17.7501 13.4519 17.5153 14.9059 17.3078 16.363C17.2057 17.0809 17.0627 17.8091 17.0985 18.5258C17.1585 19.7337 17.5931 20.8124 18.7152 21.534C19.1371 21.8056 19.5437 22.0985 19.9611 22.3768C20.8215 22.951 21.6838 23.5222 22.5454 24.0946C23.005 24.4002 23.4422 24.3687 23.8315 23.9812C24.3709 23.4452 24.5636 22.757 24.6753 22.0579C24.7972 21.292 24.8508 20.5159 24.9287 19.7943V19.7956Z" fill="#368796"/>
<path d="M7.07195 19.8125C7.12301 20.8482 7.16641 21.8814 7.52001 22.8643C7.67383 23.2918 7.92403 23.7083 8.21955 24.0637C8.52975 24.4372 8.97845 24.4426 9.39013 24.1692C10.6686 23.3185 11.9336 22.4489 13.2216 21.611C14.218 20.9634 14.652 20.0296 14.8575 18.9497C15.0152 18.1226 14.8026 17.3228 14.6903 16.517C14.5058 15.1891 14.2939 13.8648 14.0839 12.5405C13.9722 11.836 13.9218 11.115 13.5727 10.4638C13.3397 10.0296 13.0487 9.64824 12.4832 9.587C12.0708 9.54213 11.6796 9.66279 11.3905 9.91443C10.8932 10.348 10.3711 10.7864 9.99584 11.3109C8.54442 13.3379 7.67064 15.5953 7.25002 18.008C7.14662 18.6022 7.12875 19.2104 7.07131 19.8119L7.07195 19.8125Z" fill="#368796"/>
<path d="M17.5057 12.8613C17.5338 12.734 17.5733 12.6078 17.5867 12.4793C17.6116 12.2374 17.6212 12.0427 17.3863 11.8184C16.8451 11.3012 16.533 10.6584 16.5579 9.89139C16.5815 9.16498 16.5502 8.43735 16.5649 7.71094C16.57 7.45203 16.4979 7.35198 16.2087 7.36229C15.49 7.38715 15.5768 7.27983 15.5724 7.9547C15.5679 8.63139 15.5545 9.30808 15.5717 9.98355C15.5871 10.5899 15.3885 11.1083 14.9596 11.5528C14.8805 11.6347 14.8179 11.7371 14.7241 11.7984C14.2709 12.0943 14.3469 12.4738 14.5186 12.9056C14.7599 12.7188 14.9775 12.5314 15.2143 12.3702C15.8953 11.9057 16.3542 11.9287 16.9753 12.4635C17.1361 12.6024 17.2587 12.7813 17.3984 12.9419C17.4342 12.9147 17.4699 12.888 17.5057 12.8607V12.8613Z" fill="#368796"/>
</g>
<defs>
<clipPath id="clip0_12864_7870">
<rect width="32" height="32" fill="white"/>
</clipPath>
</defs>
</svg>
