<svg width="19" height="21" viewBox="0 0 19 21" fill="none" xmlns="http://www.w3.org/2000/svg">
<g clip-path="url(#clip0_8004_10078)">
<path d="M17.2481 11.5819C17.9531 10.6295 18.6188 9.72984 18.641 8.11953C18.6613 7.16503 18.5449 6.21253 18.2953 5.29104C17.9805 4.20778 17.3189 3.25777 16.4121 2.58684C14.094 0.763318 12.0651 0.0336971 7.40594 1.10974C6.2699 1.37187 5.10351 1.73579 4.26924 2.61934C3.7054 3.22262 3.27038 3.93446 2.99071 4.71142C2.86899 5.06554 2.76963 5.42695 2.69322 5.79353L2.66465 5.91817C2.57591 6.25118 2.45573 6.57501 2.30573 6.88528C2.19104 7.09841 2.11054 7.32822 2.06717 7.56633C2.08252 7.67633 2.21823 7.80133 2.36251 7.93346C2.65738 8.14161 2.84767 8.46723 2.88429 8.8263C2.87769 9.00157 2.82749 9.17244 2.73822 9.32342C2.71724 9.36193 2.6991 9.40192 2.68393 9.44306C2.61392 10.0095 2.37584 10.542 2.00038 10.9719C1.5779 11.4273 0.792204 12.2748 0.786133 12.4812C0.859726 12.5517 0.938648 12.6164 1.0222 12.6748C1.10818 12.7321 1.19831 12.7829 1.29183 12.8269C1.59677 12.9829 2.01472 13.1968 2.09752 13.6347C2.14918 13.9043 2.1156 14.1833 2.00145 14.4329C1.9411 14.5608 1.87824 14.6726 1.82289 14.7693L1.80418 14.8033C1.79107 14.827 1.77765 14.8514 1.76539 14.8733C1.91181 14.9904 2.11538 15.1436 2.20109 15.2072C2.27841 15.2645 2.3293 15.3507 2.34221 15.4461C2.35512 15.5415 2.32896 15.6381 2.26966 15.714C2.2168 15.7831 2.17098 15.8574 2.13288 15.9357L2.20895 15.9797C2.52401 16.116 2.76396 16.3829 2.86607 16.7107C2.9221 16.9557 2.91274 17.2111 2.83893 17.4514C2.75037 17.7386 2.76298 18.0474 2.87464 18.3264C2.95113 18.657 3.27473 18.8684 3.60819 18.8056C4.64412 18.5521 5.66558 18.2427 6.6681 17.8789H6.67025C7.01702 17.7603 7.3338 17.6489 7.58986 17.5575L7.59143 17.5569C7.86421 17.4611 8.07005 17.3888 8.17449 17.356C9.65444 16.8918 9.95479 16.3536 9.94622 15.9854C9.94163 15.7882 10.0977 15.6247 10.2948 15.62C10.3902 15.6152 10.4833 15.6498 10.5524 15.7158C10.6215 15.7817 10.6604 15.8731 10.6601 15.9686C10.6812 16.8614 9.91694 17.5564 8.38948 18.0371C8.28983 18.0684 8.09194 18.138 7.82937 18.2304L7.82664 18.2314L7.55986 18.3249C8.09904 18.9065 8.49984 19.6024 8.73233 20.3606C8.78136 20.507 8.91788 20.6063 9.07232 20.6077H13.5618C12.8993 18.7521 12.3051 16.6325 12.6944 14.4433C12.7221 14.2855 12.7556 14.1257 12.7894 13.9641L12.7897 13.9626C12.9761 13.357 12.9972 12.7126 12.8508 12.0962C12.0451 11.7766 11.6365 11.403 11.4822 10.8312C11.2291 10.8105 10.979 10.7618 10.7366 10.6859C10.227 11.1618 9.52463 11.3729 8.83709 11.2569C8.14955 11.1408 7.55541 10.7109 7.23023 10.0941C6.07211 10.3762 4.85935 9.9208 4.17315 8.94615C3.48695 7.97151 3.46713 6.67622 4.12318 5.68103C3.96573 4.99118 4.33154 4.28889 4.98708 4.02251C5.02039 3.4828 5.29732 2.98753 5.73968 2.67655C6.18205 2.36557 6.74182 2.27263 7.26094 2.42398C7.72803 1.821 8.44673 1.46665 9.20946 1.4633C9.68279 1.46405 10.1458 1.60173 10.5426 1.85971C10.8577 1.56244 11.289 1.42129 11.7189 1.47476C12.1488 1.52822 12.5324 1.77073 12.7651 2.13614C12.7831 2.13614 12.8 2.13468 12.8167 2.13325C12.8333 2.13183 12.8497 2.13042 12.8668 2.13042C14.3231 2.13824 15.5691 3.17821 15.8371 4.60963C16.2557 4.69847 16.6142 4.9664 16.818 5.34261C17.0217 5.71883 17.0503 6.16549 16.896 6.56458C17.3867 7.37418 17.3072 8.40645 16.6982 9.13129C16.5417 9.86245 16.1188 10.5093 15.5118 10.9459C15.6415 11.1767 15.7472 11.4202 15.8271 11.6726C15.8633 11.7816 15.8817 11.8957 15.8814 12.0105C15.8807 12.4211 15.6507 12.7969 15.2853 12.9844C15.2561 13.362 15.1984 13.7368 15.1129 14.1058L15.1068 14.1346C15.0764 14.2801 15.0462 14.4241 15.0214 14.5665C14.6447 16.6818 15.2796 18.7806 15.9443 20.6081H16.2782C16.401 20.608 16.5151 20.5448 16.5803 20.4408C16.6456 20.3368 16.6529 20.2066 16.5996 20.096C16.1153 19.0301 15.8135 17.8905 15.7068 16.7246C15.565 15.5302 15.7444 14.3196 16.2264 13.2176C16.5035 12.6352 16.8463 12.0864 17.2481 11.5819Z" fill="#368796"/>
<path fill-rule="evenodd" clip-rule="evenodd" d="M12.776 10.6916C12.597 10.7448 12.4138 10.7832 12.2285 10.8062C12.3549 11.0562 12.6528 11.2887 13.4245 11.5469C13.8311 11.6763 14.1933 11.917 14.4702 12.2416C14.5801 12.3795 14.767 12.4299 14.9313 12.3658C15.0731 12.3052 15.1652 12.1658 15.1652 12.0116C15.1653 11.9725 15.1591 11.9336 15.1466 11.8966C15.0797 11.6833 14.9905 11.4776 14.8806 11.283C14.6771 11.3683 14.4647 11.4303 14.2474 11.468C14.2285 11.4711 14.2094 11.4727 14.1902 11.4727C14.0035 11.4731 13.848 11.3297 13.8333 11.1436C13.8186 10.9575 13.9497 10.7915 14.1342 10.7627C14.7239 10.6663 15.2521 10.3419 15.6048 9.85949C15.056 10.0254 14.4641 9.97086 13.9549 9.70735C13.8045 9.629 13.664 9.5331 13.5363 9.42164C12.9398 9.66085 12.2597 9.40032 11.9757 8.8238C11.9174 8.70953 11.925 8.5728 11.9954 8.46561C12.0658 8.35841 12.1883 8.2972 12.3163 8.30524C12.4443 8.31329 12.5581 8.38936 12.6146 8.50453C12.6855 8.63962 12.8104 8.73827 12.9582 8.77593C13.1061 8.81359 13.263 8.78673 13.3899 8.70202C13.6068 8.55157 13.6802 8.26455 13.562 8.02847C13.5051 7.91427 13.5133 7.77836 13.5838 7.67193C13.6542 7.56549 13.776 7.50471 13.9034 7.51247C14.0308 7.52023 14.1443 7.59535 14.2013 7.70955C14.4057 8.11347 14.369 8.59749 14.1059 8.96594C14.1611 9.00568 14.219 9.04149 14.2792 9.07308C14.8937 9.37975 15.6369 9.2435 16.1027 8.7388L16.1091 8.73202C16.4817 8.31741 16.5984 7.73254 16.4134 7.20671C16.3306 7.27171 16.241 7.32762 16.1462 7.37349C16.0307 7.42771 15.895 7.41618 15.7903 7.34324C15.6856 7.2703 15.6277 7.14703 15.6385 7.01986C15.6493 6.89269 15.7271 6.78095 15.8427 6.72672C15.985 6.65981 16.1034 6.55071 16.1816 6.41423C16.3581 6.10447 16.2929 5.71335 16.0254 5.47762C15.758 5.24189 15.3618 5.22631 15.0766 5.44033C14.9188 5.55867 14.695 5.52669 14.5766 5.3689C14.4583 5.21111 14.4903 4.98726 14.6481 4.86892C14.7871 4.76516 14.9436 4.68715 15.1102 4.63857C14.8777 3.64031 14.0173 2.9132 12.9942 2.85041C12.9942 2.86411 12.9962 2.87737 12.9983 2.89068C13.0003 2.90407 13.0024 2.9175 13.0024 2.93148C13.0024 3.12871 12.8425 3.28861 12.6453 3.28861C12.448 3.28861 12.2881 3.12871 12.2881 2.93148C12.2881 2.66309 12.145 2.41509 11.9125 2.28089C11.6801 2.1467 11.3937 2.1467 11.1613 2.28089C10.9289 2.41509 10.7857 2.66309 10.7857 2.93148C10.7857 3.12871 10.6258 3.28861 10.4286 3.28861C10.2313 3.28861 10.0714 3.12871 10.0714 2.93148C10.0732 2.77152 10.1015 2.61295 10.155 2.4622C9.87415 2.27726 9.54557 2.17799 9.2093 2.1765C8.59067 2.17959 8.01889 2.50661 7.70256 3.03826C7.6203 3.17796 7.55791 3.32845 7.51721 3.48539C7.46216 3.66928 7.27159 3.77677 7.08573 3.72874C6.89988 3.68072 6.78523 3.49437 6.82616 3.30682C6.84306 3.24136 6.86631 3.17802 6.88954 3.11474L6.9008 3.08397C6.85781 3.07641 6.8144 3.07152 6.77081 3.06933C6.25944 3.07074 5.81838 3.42879 5.71191 3.92895C6.11487 3.96876 6.48254 4.17612 6.72509 4.50036C6.84284 4.65864 6.80999 4.88241 6.6517 5.00016C6.49342 5.11792 6.26965 5.08506 6.1519 4.92677C6.01158 4.7358 5.78853 4.62329 5.55156 4.62393C5.13658 4.62609 4.80138 4.96321 4.80158 5.37819C4.80157 5.46174 4.8157 5.5447 4.84336 5.62354C4.90086 5.79093 5.0154 5.93277 5.16692 6.02424C5.27627 6.09001 5.34222 6.20913 5.33993 6.33671C5.33764 6.46429 5.26746 6.58096 5.15583 6.64277C5.0442 6.70458 4.90807 6.70214 4.79872 6.63637C4.70205 6.57642 4.61276 6.50534 4.53266 6.42459C4.41909 6.69089 4.35983 6.9772 4.35838 7.2667C4.35021 7.93009 4.64572 8.56082 5.16067 8.97912C5.67562 9.39741 6.35353 9.55738 7.00116 9.41343C6.98081 9.29544 6.96994 9.17602 6.96866 9.05629C6.33958 8.98768 5.86273 8.45699 5.86155 7.82419C5.86114 7.62609 6.02059 7.46473 6.21868 7.46277C6.31291 7.46172 6.40365 7.49837 6.47072 7.56457C6.53779 7.63077 6.57563 7.72102 6.57581 7.81526V7.82419C6.5821 8.10545 6.80382 8.33447 7.08473 8.34989C7.13521 8.18955 7.20374 8.03548 7.289 7.89061C7.39048 7.72148 7.60986 7.66664 7.77899 7.76812C7.94812 7.8696 8.00297 8.08897 7.90149 8.2581C7.49568 8.93745 7.67546 9.8142 8.31587 10.279C8.95629 10.7438 9.84559 10.643 10.3657 10.0466C10.4674 9.93702 10.6236 9.89659 10.7657 9.94306C11.1412 10.0927 11.5462 10.1538 11.9492 10.1216C12.1584 10.1076 12.3652 10.0695 12.5656 10.0081C12.6876 9.97061 12.8203 10.0011 12.9137 10.088C13.0071 10.1749 13.0471 10.305 13.0185 10.4294C12.99 10.5538 12.8972 10.6534 12.7753 10.6909L12.776 10.6916ZM8.35683 5.96317C8.35683 6.16041 8.19694 6.3203 7.9997 6.3203C7.80246 6.3203 7.64257 6.16041 7.64257 5.96317C7.64375 5.05636 8.37857 4.32154 9.28537 4.32036C9.48261 4.32036 9.64251 4.48026 9.64251 4.6775C9.64251 4.87473 9.48261 5.03463 9.28537 5.03463C8.77255 5.03463 8.35683 5.45035 8.35683 5.96317ZM11.1585 7.88919C10.8973 8.58077 10.2339 9.03736 9.49465 9.03451C9.29741 9.03451 9.13752 8.87462 9.13752 8.67738C9.13752 8.48014 9.29741 8.32025 9.49465 8.32025C9.84011 8.32099 10.1644 8.15368 10.3639 7.87169C9.92327 7.77699 9.5235 7.54626 9.22109 7.21206C9.08884 7.06571 9.10027 6.83986 9.24663 6.70761C9.39298 6.57537 9.61883 6.5868 9.75107 6.73315C10.2406 7.25592 11.0372 7.34596 11.631 6.94564C11.9392 6.73246 12.1511 6.40643 12.2206 6.03817C12.2426 5.91091 12.3316 5.80542 12.4533 5.76229C12.575 5.71916 12.7106 5.74511 12.8077 5.83015C12.9049 5.91519 12.9486 6.04608 12.9221 6.17245C12.7509 7.05711 12.0475 7.74192 11.1585 7.88919Z" fill="#368796"/>
<path d="M14.4119 13.9604C14.378 14.1219 14.3444 14.2847 14.3162 14.4433C13.9262 16.6329 14.5205 18.7521 15.1833 20.6077H14.3212C13.6566 18.7807 13.0216 16.6811 13.3984 14.5665C13.4248 14.4154 13.457 14.2622 13.4895 14.1079C13.6288 13.5681 13.6835 13.0099 13.6516 12.4533C13.753 12.5249 13.845 12.6089 13.9255 12.7033C14.0895 12.8973 14.3132 13.0312 14.5616 13.084C14.5278 13.3787 14.4779 13.6713 14.4119 13.9604Z" fill="#368796"/>
</g>
<defs>
<clipPath id="clip0_8004_10078">
<rect width="17.8571" height="20" fill="white" transform="translate(0.786133 0.608093)"/>
</clipPath>
</defs>
</svg>
