<svg width="38" height="39" viewBox="0 0 38 39" fill="none" xmlns="http://www.w3.org/2000/svg">
<g id="img">
<circle id="Ellipse 21" cx="19" cy="19.9221" r="19" fill="#DAEEF1"/>
<path id="Vector" fill-rule="evenodd" clip-rule="evenodd" d="M24.3195 22.9956H17.7944C17.5977 22.9956 17.438 22.8359 17.438 22.6386V21.3823C17.438 21.1849 17.5977 21.0252 17.7944 21.0252H24.3195C24.5168 21.0252 24.6765 21.1849 24.6765 21.3823V22.6386C24.6765 22.8359 24.5168 22.9956 24.3195 22.9956ZM28.0799 13.7204C27.5871 13.2276 26.9059 12.9221 26.1574 12.9221H11.8429C11.0937 12.9221 10.4132 13.2279 9.92039 13.7204V13.7238C9.42757 14.2166 9.12213 14.8965 9.12213 15.6429V24.2014C9.12213 24.9505 9.4279 25.6311 9.92039 26.1239C10.4132 26.6167 11.0937 26.9221 11.8429 26.9221H25.8233C26.6641 26.9221 27.4283 26.5788 27.9814 26.0256C28.5344 25.4725 28.8778 24.7084 28.8778 23.8676V15.6424C28.8778 14.8932 28.5724 14.2132 28.0799 13.7204ZM26.9923 23.8674C26.9923 24.1875 26.8609 24.4802 26.6484 24.6918C26.4364 24.9043 26.1447 25.0358 25.824 25.0358H11.8436C11.6155 25.0358 11.4064 24.9413 11.2548 24.7896C11.1025 24.6383 11.0087 24.4292 11.0087 24.2008V18.4163H26.9929L26.9923 23.8674ZM26.9923 16.6811H11.0081V15.6421C11.0081 15.4118 11.1013 15.2027 11.252 15.0514L11.2542 15.0536C11.4055 14.9022 11.6147 14.8075 11.8431 14.8075H26.1576C26.3866 14.8075 26.5948 14.9019 26.7464 15.0536C26.8987 15.2049 26.9925 15.414 26.9925 15.6424L26.9923 16.6811Z" fill="#368796"/>
</g>
</svg>
