<svg width="126" height="132" viewBox="0 0 126 132" fill="none" xmlns="http://www.w3.org/2000/svg">
<g id="Isolation_Mode">
<g id="Group">
<g id="Group_2" style="mix-blend-mode:multiply">
<path id="Vector" d="M24.6049 129.562C24.5426 129.562 24.4855 129.521 24.4683 129.458C19.3607 110.157 12.9308 104.479 10.8174 102.613L10.6387 102.455C10.581 102.403 10.5758 102.315 10.6272 102.258C10.6786 102.2 10.7666 102.195 10.8243 102.246L11.0019 102.404C13.1308 104.284 19.6086 110.004 24.7379 129.387C24.7579 129.461 24.7134 129.537 24.6386 129.557C24.6271 129.56 24.6157 129.562 24.6043 129.562H24.6049Z" fill="#DEDEDE"/>
</g>
<g id="Group_3" style="mix-blend-mode:multiply">
<path id="Vector_2" d="M20.286 128.803C20.2477 128.821 20.2003 128.812 20.1711 128.778C11.3862 118.321 5.75199 116.681 3.90076 116.142L3.74425 116.096C3.69341 116.082 3.66485 116.028 3.6797 115.978C3.69456 115.927 3.74768 115.898 3.79851 115.913L3.95445 115.959C5.81939 116.502 11.4953 118.154 20.3174 128.655C20.3511 128.696 20.3459 128.756 20.3059 128.79C20.2997 128.795 20.2928 128.8 20.286 128.803V128.803Z" fill="#DEDEDE"/>
</g>
<g id="Group_4">
<path id="Vector_3" d="M101.996 5.75057H100.758V3.5035C100.758 3.21219 100.959 2.96258 101.24 2.89975C101.23 2.87919 101.225 2.85691 101.225 2.83349C101.225 2.7501 101.293 2.68213 101.376 2.68213C101.46 2.68213 101.528 2.7501 101.528 2.83349C101.528 2.85691 101.523 2.87919 101.512 2.89975C101.794 2.96258 101.995 3.21277 101.995 3.5035V5.75057H101.996ZM100.796 5.7123H101.958V3.5035C101.958 3.22133 101.757 2.98086 101.479 2.93174L101.449 2.92603L101.468 2.90147C101.483 2.88147 101.491 2.85806 101.491 2.83349C101.491 2.77066 101.44 2.71983 101.377 2.71983C101.314 2.71983 101.263 2.77066 101.263 2.83349C101.263 2.85806 101.271 2.88147 101.286 2.90147L101.305 2.92603L101.275 2.93174C100.998 2.98086 100.796 3.22133 100.796 3.5035V5.7123Z" fill="#368796"/>
</g>
<g id="Group_5">
<path id="Vector_4" d="M22.9196 60.7199C22.8613 60.7199 22.8065 60.6976 22.7654 60.6565L22.365 60.2601L22.0691 60.5588C22.0194 60.6085 21.9389 60.6091 21.8892 60.5599C21.8652 60.536 21.8515 60.504 21.8515 60.4703C21.8515 60.436 21.8646 60.404 21.888 60.38L22.1839 60.0813L21.5059 59.4101C20.961 59.81 20.1916 59.7534 19.7095 59.2765C19.4656 59.0349 19.32 58.7133 19.3 58.3706L19.2988 58.35H19.3194C19.4508 58.3529 19.6073 58.3283 19.609 58.3283L19.6301 58.3249L19.6313 58.346C19.645 58.6093 19.7558 58.8561 19.9426 59.0412C20.3567 59.4513 21.0278 59.4478 21.4379 59.0332C21.8481 58.619 21.8446 57.9479 21.4299 57.5378C21.0153 57.1277 20.3447 57.1311 19.9346 57.5458C19.7963 57.6851 19.7038 57.8508 19.6593 58.0387L19.657 58.0496L19.6461 58.0524C19.5404 58.0833 19.4319 58.097 19.3331 58.093L19.312 58.0918L19.3154 58.0707C19.3611 57.7828 19.4942 57.5201 19.6998 57.3122C20.2384 56.7678 21.1192 56.7632 21.6636 57.3019C22.1456 57.7788 22.2096 58.5476 21.8161 59.0971L22.4941 59.7683L22.79 59.4695C22.8139 59.4456 22.8459 59.4318 22.8796 59.4318C22.8796 59.4318 22.8796 59.4318 22.8802 59.4318C22.9139 59.4318 22.9459 59.445 22.9699 59.469C23.0196 59.5181 23.0201 59.5992 22.971 59.6489L22.6751 59.9476L23.0755 60.344C23.1172 60.3852 23.1407 60.4406 23.1407 60.4988C23.1407 60.5577 23.1184 60.6131 23.0773 60.6548C23.0361 60.6965 22.9807 60.7199 22.9225 60.7199H22.9213H22.9196ZM22.3644 60.2058L22.7922 60.6291C22.8265 60.6633 22.8716 60.681 22.9208 60.6816C22.9693 60.6816 23.015 60.6622 23.0487 60.6279C23.083 60.5936 23.1012 60.548 23.1012 60.4994C23.1012 60.4508 23.0818 60.4052 23.0476 60.3715L22.6197 59.9482L22.9425 59.622C22.9773 59.5872 22.9767 59.5307 22.9419 59.4958C22.907 59.461 22.8505 59.4615 22.8157 59.4964L22.4929 59.8225L21.7647 59.1017L21.7744 59.0886C22.1679 58.5539 22.1085 57.7977 21.6356 57.3299C21.1061 56.8061 20.2499 56.8106 19.7261 57.3396C19.5307 57.5366 19.4034 57.784 19.3559 58.0558C19.4416 58.0564 19.5342 58.0444 19.625 58.0187C19.6724 57.8285 19.7672 57.6606 19.9077 57.5189C20.3327 57.0894 21.0278 57.086 21.4568 57.5109C21.8863 57.9359 21.8898 58.631 21.4648 59.06C21.0398 59.4895 20.3447 59.493 19.9157 59.068C19.7272 58.8812 19.613 58.6333 19.5941 58.3689C19.5496 58.3751 19.4416 58.3883 19.3394 58.3883C19.3634 58.7139 19.5033 59.0189 19.7364 59.2491C20.2087 59.7169 20.9656 59.7689 21.4962 59.3696L21.5093 59.3599L22.2376 60.0807L21.9149 60.4069C21.8983 60.424 21.8892 60.4463 21.8892 60.4703C21.8892 60.4943 21.8989 60.5165 21.9155 60.5331C21.9503 60.5679 22.0068 60.5674 22.0417 60.5325L22.3644 60.2064V60.2058Z" fill="#368796"/>
<path id="Vector_5" d="M19.3431 58.3882C18.9747 58.3882 18.6286 58.246 18.3664 57.9866C17.8843 57.5097 17.8203 56.7409 18.2139 56.1914L17.1783 55.1661L17.3365 55.6642C17.3491 55.7042 17.3394 55.7481 17.3108 55.7784C17.2971 55.7933 17.28 55.8041 17.2606 55.8104C17.2309 55.8201 17.1994 55.8173 17.1715 55.803C17.144 55.7887 17.1235 55.7641 17.1138 55.7344L16.7642 54.6332C16.7516 54.5938 16.7613 54.5498 16.7893 54.5189C16.8179 54.4881 16.8602 54.475 16.9007 54.4835L18.0334 54.7343C18.0962 54.748 18.1362 54.8108 18.1219 54.8736C18.1174 54.8936 18.1076 54.9125 18.0939 54.9273C18.0659 54.9576 18.0231 54.9713 17.9826 54.9622L17.4862 54.8525L18.5223 55.8784C19.0672 55.4785 19.8366 55.5351 20.3187 56.012C20.5603 56.2514 20.7054 56.5695 20.7277 56.9088L20.7288 56.9277L20.71 56.9288C20.71 56.9288 20.5295 56.9414 20.4204 56.9636L20.3987 56.9682L20.3975 56.9459C20.3844 56.6815 20.2736 56.433 20.0857 56.2474C19.6716 55.8372 19.0004 55.8407 18.5903 56.2554C18.1802 56.6695 18.1836 57.3406 18.5983 57.7507C19.0124 58.1609 19.6836 58.1574 20.0937 57.7427C20.2302 57.6051 20.3256 57.4332 20.3701 57.2452L20.3724 57.2344L20.3827 57.231C20.5272 57.1875 20.6883 57.1933 20.6951 57.1933H20.7163L20.7128 57.2155C20.6677 57.5046 20.5346 57.7673 20.3284 57.9752C20.0674 58.2385 19.7195 58.3853 19.3488 58.387C19.3466 58.387 19.3437 58.387 19.3414 58.387L19.3431 58.3882ZM17.0955 55.0302L18.2647 56.1874L18.255 56.2005C17.8615 56.7352 17.9209 57.4914 18.3938 57.9592C18.6486 58.2111 18.9856 58.3499 19.3437 58.3499C19.346 58.3499 19.3483 58.3499 19.3511 58.3499C19.7115 58.3482 20.0503 58.206 20.3039 57.9495C20.4992 57.7519 20.6272 57.5046 20.6746 57.2321C20.6272 57.2321 20.5124 57.2355 20.4073 57.2652C20.3598 57.456 20.2622 57.6302 20.1234 57.7702C19.6984 58.1997 19.0033 58.2031 18.5743 57.7782C18.1448 57.3532 18.1413 56.6581 18.5663 56.2291C18.9913 55.7995 19.6864 55.7961 20.1154 56.2211C20.305 56.4084 20.4187 56.6575 20.437 56.9231C20.5266 56.9071 20.6449 56.8968 20.6906 56.8934C20.6654 56.5707 20.5249 56.2685 20.2942 56.04C19.8218 55.5722 19.065 55.5202 18.5343 55.9195L18.5212 55.9292L17.3674 54.7874L17.9928 54.9256C18.0202 54.9319 18.0488 54.9228 18.0677 54.9022C18.0768 54.8919 18.0837 54.8794 18.0865 54.8662C18.0956 54.824 18.0688 54.7817 18.0265 54.7725L16.8939 54.5218C16.8664 54.5155 16.8379 54.5247 16.819 54.5452C16.8002 54.5663 16.7933 54.5955 16.8019 54.6223L17.1515 55.7236C17.1577 55.7436 17.1715 55.7601 17.1903 55.7698C17.2092 55.7796 17.2303 55.7813 17.2503 55.775C17.2634 55.771 17.2748 55.7636 17.284 55.7533C17.3028 55.7327 17.3097 55.703 17.3011 55.6762L17.0961 55.0307L17.0955 55.0302Z" fill="#368796"/>
</g>
<g id="Group_6">
<path id="Vector_6" d="M107.903 37.2446C107.612 37.2446 107.338 37.1327 107.132 36.9282C106.924 36.7226 106.809 36.4484 106.808 36.1554C106.806 35.8624 106.918 35.587 107.124 35.3791C107.33 35.1712 107.604 35.0564 107.897 35.0547C108.19 35.0541 108.465 35.1655 108.673 35.3711C108.868 35.5636 108.983 35.8207 108.996 36.0948C109 36.1948 108.97 36.3947 108.968 36.4027V36.4044C108.922 36.5992 108.823 36.7774 108.682 36.9202C108.476 37.1281 108.202 37.2429 107.909 37.2446C107.907 37.2446 107.905 37.2446 107.903 37.2446H107.903ZM107.903 35.093H107.897C107.614 35.0947 107.349 35.2055 107.151 35.406C106.953 35.6065 106.844 35.8726 106.845 36.1554C106.847 36.4381 106.958 36.7031 107.158 36.9014C107.359 37.0996 107.625 37.2092 107.908 37.2064C108.19 37.2047 108.456 37.0938 108.654 36.8934C108.79 36.7557 108.886 36.5838 108.93 36.3964C108.932 36.3827 108.961 36.1896 108.958 36.0965C108.944 35.8321 108.834 35.5842 108.646 35.398C108.446 35.2009 108.183 35.0924 107.902 35.0924L107.903 35.093Z" fill="#368796"/>
</g>
<path id="Vector_7" d="M76.1313 5.91683C75.8577 5.91683 75.5966 5.85514 75.4087 5.73633C75.3978 5.72948 75.3881 5.72034 75.3801 5.70948C75.3561 5.67578 75.355 5.63123 75.3773 5.59639C75.407 5.54955 75.4698 5.53527 75.5172 5.56497C75.748 5.71177 76.2118 5.78031 76.651 5.62895C76.8521 5.55926 77.2211 5.35534 77.4284 4.76987C77.7512 3.85997 78.0305 3.07286 79.0603 2.96205C78.9901 2.66503 79.106 2.35316 79.3573 2.17495C79.5196 2.05957 79.932 1.86365 80.3409 1.7357C80.6951 1.62489 81.1469 1.5335 81.2863 1.72942C81.5484 2.09898 80.5191 3.1991 80.2307 3.40415C79.9531 3.60122 79.5795 3.58808 79.3174 3.37331C78.4012 3.43214 78.0842 3.89995 77.7214 4.92181C77.5238 5.47929 77.0806 5.6952 76.7167 5.82087C76.5299 5.88541 76.3272 5.91683 76.1307 5.91683H76.1313ZM75.4635 5.62552C75.455 5.62552 75.447 5.62952 75.4418 5.63751C75.4361 5.64608 75.4367 5.65751 75.4424 5.66607C75.4441 5.66893 75.447 5.67121 75.4493 5.67293C75.7531 5.86599 76.2643 5.89741 76.6922 5.75004C77.04 5.63009 77.4633 5.42446 77.65 4.89782C78.0185 3.85939 78.3635 3.35503 79.3276 3.29848L79.3431 3.29734L79.3545 3.30705C79.591 3.50868 79.9331 3.52353 80.1867 3.34361C80.5169 3.10885 81.4313 2.06585 81.2246 1.77455C81.1377 1.65231 80.8242 1.66488 80.3638 1.80939C79.9622 1.93505 79.559 2.1264 79.4013 2.23835C79.1643 2.40685 79.0609 2.7073 79.1449 2.98604L79.1586 3.0306L79.1123 3.03459C78.143 3.11856 77.8682 3.75886 77.5004 4.79672C77.2822 5.41246 76.8904 5.62837 76.6762 5.70206C76.2141 5.86142 75.7234 5.78659 75.4772 5.63066C75.4732 5.6278 75.4681 5.62666 75.4635 5.62666V5.62552Z" fill="#368796"/>
<path id="Vector_8" d="M17.7972 35.7909C17.6755 35.7909 17.5595 35.7635 17.4762 35.7104C17.471 35.7069 17.467 35.7029 17.4636 35.6984C17.4527 35.6835 17.4522 35.6635 17.4624 35.6481C17.4756 35.627 17.5036 35.6207 17.5247 35.6344C17.6275 35.6995 17.8337 35.7303 18.0291 35.6629C18.1187 35.6321 18.2827 35.5413 18.3752 35.2808C18.5186 34.8758 18.6431 34.5257 19.1012 34.4766C19.0698 34.3446 19.1218 34.2058 19.2331 34.1264C19.3051 34.075 19.489 33.9882 19.6707 33.9311C19.8283 33.882 20.0294 33.8414 20.0911 33.9282C20.2076 34.0927 19.7501 34.5823 19.6215 34.6731C19.4982 34.761 19.332 34.7548 19.2154 34.6594C18.8082 34.6856 18.6665 34.8935 18.5054 35.3482C18.4175 35.5961 18.2204 35.6921 18.0588 35.7481C17.9754 35.7766 17.8851 35.7909 17.7983 35.7909H17.7972ZM17.5001 35.6612C17.4961 35.6612 17.4927 35.6629 17.4904 35.6664C17.4881 35.6704 17.4881 35.6749 17.4904 35.6789C17.491 35.6801 17.4921 35.6812 17.4939 35.6818C17.6292 35.7675 17.8566 35.7818 18.0468 35.7161C18.2016 35.6629 18.3895 35.5716 18.4729 35.3368C18.6368 34.8747 18.7905 34.6502 19.2194 34.6251H19.2263L19.2314 34.6291C19.3365 34.7188 19.489 34.7256 19.6016 34.6451C19.7484 34.5406 20.155 34.0767 20.0631 33.9471C20.0242 33.8928 19.8849 33.8985 19.6804 33.9625C19.5016 34.0185 19.3222 34.1036 19.2526 34.1533C19.1469 34.2281 19.1012 34.3618 19.1383 34.4857L19.144 34.5057L19.1235 34.5074C18.6922 34.5446 18.57 34.8296 18.4066 35.2911C18.3095 35.5647 18.1353 35.6612 18.0399 35.6938C17.8343 35.7646 17.6161 35.7315 17.5064 35.6618C17.5047 35.6607 17.5024 35.6601 17.5001 35.6601V35.6612Z" fill="#368796"/>
<g id="Group_7">
<path id="Vector_9" d="M64.3711 4.27423C64.2089 4.25538 64.0764 4.1777 63.9753 4.04404C63.7171 3.70304 63.7331 3.08844 63.7776 2.81141C63.8085 2.61892 63.7611 2.55837 63.6783 2.5321C63.4389 2.80284 63.1014 2.98562 62.9203 3.0713L62.9043 3.03703C63.0848 2.95192 63.4229 2.76914 63.6583 2.4984L63.6663 2.48926L63.6777 2.49211C63.8056 2.52639 63.8473 2.62406 63.8159 2.81769C63.7725 3.08958 63.7565 3.69047 64.0067 4.02119C64.1015 4.14628 64.2249 4.21883 64.3745 4.23596H64.4254C64.5727 4.21825 64.6961 4.14628 64.7909 4.02119C65.0411 3.69047 65.0251 3.08901 64.9817 2.81769C64.9509 2.62406 64.992 2.52696 65.1199 2.49211L65.1314 2.48926L65.1394 2.4984C65.3724 2.76686 65.7077 2.94907 65.8871 3.03417L65.8705 3.06845C65.6906 2.98334 65.3559 2.80113 65.1182 2.5321C65.0354 2.55837 64.988 2.61892 65.0188 2.81141C65.0634 3.08844 65.0788 3.70304 64.8212 4.04404C64.7201 4.1777 64.5876 4.25481 64.4277 4.27366H64.3723L64.3711 4.27423Z" fill="#368796"/>
<path id="Vector_10" d="M62.4589 3.03092C62.2721 2.89898 62.1636 2.69735 62.1893 2.52885C62.2064 2.41575 62.2841 2.33121 62.4081 2.29123C62.6651 2.20784 62.7576 2.25296 62.8987 2.32207C62.9684 2.35635 63.0478 2.39519 63.1666 2.43003C63.2786 2.46259 63.3876 2.46773 63.4847 2.47173C63.5053 2.47287 63.5247 2.47344 63.5442 2.47458L63.5858 2.47687L63.5567 2.50657C63.5053 2.55969 63.2277 2.83558 62.825 3.02807L62.8085 2.9938C63.1546 2.82815 63.4065 2.60024 63.499 2.51C63.4939 2.51 63.4888 2.51 63.483 2.50943C63.3842 2.50486 63.2723 2.50029 63.1557 2.46601C63.0341 2.43003 62.9495 2.3889 62.8816 2.35577C62.7445 2.28895 62.6617 2.24839 62.4195 2.32722C62.3081 2.3632 62.2418 2.43517 62.2264 2.53456C62.2036 2.68649 62.3081 2.87784 62.4806 2.99951L62.4583 3.03092H62.4589Z" fill="#368796"/>
<path id="Vector_11" d="M62.3094 3.13994C62.2757 3.10567 62.234 3.05427 62.2283 3.00057C62.2237 2.96116 62.2414 2.94745 62.2523 2.94288C62.3031 2.92232 62.3825 3.01485 62.4145 3.05598L62.3842 3.0794C62.318 2.99486 62.2751 2.97601 62.2665 2.9783C62.2665 2.9783 62.2643 2.98287 62.266 2.996C62.2694 3.02913 62.2945 3.07083 62.3362 3.1131L62.3094 3.13994Z" fill="#368796"/>
<path id="Vector_12" d="M62.2263 3.25517C62.0932 3.13408 62.0995 3.08953 62.1161 3.06725C62.1229 3.05754 62.1327 3.0524 62.1447 3.05183C62.1829 3.04955 62.2343 3.10152 62.2972 3.17007L62.3131 3.18777L62.2852 3.21405L62.2686 3.19634C62.2435 3.16892 62.1669 3.08553 62.1464 3.09067C62.1424 3.09695 62.1515 3.13637 62.252 3.22776L62.2263 3.25575V3.25517Z" fill="#368796"/>
<path id="Vector_13" d="M66.6107 3.38148L66.601 3.34436C66.6804 3.32379 66.7266 3.26039 66.7512 3.2107C66.7952 3.12273 66.8043 3.01078 66.774 2.93824C66.7398 2.85713 66.7558 2.75374 66.7729 2.64522C66.7866 2.5584 66.8003 2.46872 66.7906 2.38304C66.7815 2.30536 66.7055 2.20997 66.5913 2.13457C66.4627 2.05004 66.2611 1.97807 66.0812 2.03233C66.0075 2.05461 65.9441 2.07403 65.8864 2.09116C65.6985 2.14885 65.5745 2.18655 65.3552 2.23796C65.2981 2.2511 65.253 2.26366 65.2153 2.27394C65.0633 2.31507 65.0359 2.32249 64.8965 2.21682C64.7286 2.09002 64.6069 2.04832 64.3956 2.04661C64.1848 2.04889 64.0632 2.09002 63.8952 2.21682C63.7553 2.32249 63.7279 2.31507 63.5759 2.27394C63.5388 2.26366 63.4931 2.25167 63.436 2.23796C63.2167 2.18655 63.0927 2.14828 62.9048 2.09116C62.8471 2.07346 62.7843 2.05403 62.71 2.03233C62.5301 1.97864 62.329 2.05004 62.1999 2.13457C62.0857 2.20997 62.0092 2.30479 62.0006 2.38304C61.9909 2.46872 62.0046 2.55897 62.0183 2.64579C62.0354 2.75489 62.0514 2.8577 62.0172 2.93881C61.9875 3.01021 61.996 3.12102 62.0389 3.20898C62.0634 3.25868 62.1086 3.32265 62.1879 3.34436L62.1782 3.38091C62.1057 3.36149 62.044 3.30609 62.0052 3.22555C61.9578 3.12845 61.9486 3.0045 61.9823 2.92396C62.012 2.85256 61.9972 2.75489 61.9812 2.6515C61.9675 2.5624 61.9532 2.46986 61.9635 2.37904C61.9737 2.28879 62.0549 2.18541 62.18 2.10316C62.3159 2.01348 62.5295 1.93865 62.722 1.99634C62.7957 2.01862 62.8591 2.03804 62.9168 2.05575C63.1036 2.11287 63.2275 2.15114 63.4457 2.20197C63.5034 2.21568 63.5491 2.22768 63.5868 2.23796C63.7324 2.27737 63.7479 2.28194 63.873 2.18712C64.046 2.05632 64.178 2.0112 64.3962 2.00891C64.6149 2.0112 64.7469 2.05575 64.92 2.18712C65.045 2.28194 65.0599 2.27737 65.2061 2.23796C65.2438 2.22768 65.2895 2.21511 65.3472 2.20197C65.5654 2.15057 65.6888 2.11287 65.8761 2.05575C65.9338 2.03804 65.9972 2.01862 66.0709 1.99634C66.2634 1.93865 66.477 2.01348 66.613 2.10316C66.7381 2.18598 66.8192 2.28879 66.8294 2.37904C66.8397 2.46986 66.8254 2.5624 66.8117 2.6515C66.7957 2.75489 66.7803 2.85256 66.8106 2.92396C66.8449 3.00564 66.8352 3.13073 66.7866 3.22783C66.7466 3.30837 66.6844 3.36263 66.6112 3.38148H66.6107Z" fill="#368796"/>
<path id="Vector_14" d="M66.5688 3.25457L66.5431 3.22658C66.643 3.13519 66.6522 3.09635 66.6476 3.0895C66.627 3.0855 66.5505 3.16832 66.5254 3.19574L66.5065 3.2163L66.4785 3.19003L66.4968 3.17004C66.5596 3.10149 66.611 3.05009 66.6493 3.0518C66.6607 3.05237 66.671 3.05808 66.6779 3.06722C66.6944 3.0895 66.7007 3.13348 66.5682 3.25457H66.5688Z" fill="#368796"/>
<path id="Vector_15" d="M66.4823 3.14227L66.4554 3.11542C66.4983 3.07258 66.524 3.03031 66.528 2.99661C66.5297 2.98233 66.5268 2.97834 66.5268 2.97834C66.5194 2.97605 66.476 2.99547 66.4092 3.08058L66.3789 3.05716C66.4109 3.01603 66.4909 2.92236 66.5417 2.94349C66.5525 2.94806 66.5703 2.9612 66.5657 3.00118C66.5594 3.05545 66.5171 3.10857 66.4823 3.14284V3.14227Z" fill="#368796"/>
<path id="Vector_16" d="M66.3378 3.02921L66.3155 2.99837C66.4869 2.87613 66.5903 2.68535 66.5674 2.53456C66.552 2.43517 66.4858 2.36377 66.3744 2.32779C66.1322 2.24896 66.0494 2.28952 65.9123 2.35635C65.8443 2.38947 65.7604 2.4306 65.6381 2.46659C65.5222 2.50029 65.4102 2.50543 65.3108 2.51C65.3057 2.51 65.3 2.51 65.2948 2.51057C65.3874 2.60082 65.6393 2.82815 65.9843 2.9938L65.9677 3.02807C65.5661 2.83558 65.2885 2.55969 65.2371 2.50657L65.208 2.47687L65.2497 2.47458C65.2686 2.47344 65.2885 2.47287 65.3091 2.47173C65.4056 2.46773 65.5153 2.46259 65.6273 2.43003C65.7461 2.39519 65.8255 2.35635 65.8952 2.32207C66.0357 2.25296 66.1288 2.20784 66.3858 2.29123C66.5098 2.33178 66.5874 2.41575 66.6046 2.52827C66.6303 2.69563 66.5229 2.89669 66.3373 3.02921H66.3378Z" fill="#368796"/>
<path id="Vector_17" d="M65.2303 6.52001H63.5732L63.579 6.49659C63.5915 6.44404 63.6743 6.41034 63.7709 6.37093C63.8554 6.33666 63.9519 6.29725 63.9919 6.24527C64.0256 6.20243 63.9856 5.81802 63.9468 5.44674C63.8908 4.90525 63.8206 4.23182 63.8737 3.8634L63.9114 3.86911C63.8588 4.23296 63.9285 4.90411 63.9845 5.44332C64.037 5.94996 64.0628 6.21671 64.0216 6.26926C63.9748 6.32923 63.8783 6.36865 63.7846 6.40634C63.7263 6.42976 63.6629 6.45604 63.6326 6.48174H65.1709C65.1406 6.45604 65.0766 6.42976 65.0189 6.40634C64.9253 6.36807 64.8287 6.32866 64.7819 6.26926C64.7408 6.21671 64.7659 5.94711 64.8179 5.43532C64.8733 4.89326 64.9418 4.21811 64.8893 3.85483L64.927 3.84912C64.9801 4.21697 64.911 4.8944 64.8556 5.43875C64.8173 5.81402 64.7779 6.20243 64.8116 6.24527C64.8521 6.29725 64.9481 6.33609 65.0326 6.37093C65.1292 6.41034 65.212 6.44404 65.2246 6.49659L65.2303 6.52001Z" fill="#368796"/>
<path id="Vector_18" d="M64.6628 6.52033H64.1385L64.1333 6.51062C64.0905 6.43236 64.1265 6.31698 64.167 6.19361C64.1031 6.10907 64.0711 5.83775 64.1533 5.599C64.0848 5.50418 64.0128 5.22715 64.0945 4.84331C64.0197 4.69709 63.9957 4.35266 64.1173 4.16131L64.1493 4.18187C64.0351 4.3618 64.0591 4.69994 64.131 4.83132L64.1345 4.8376L64.1328 4.84445C64.0459 5.246 64.1328 5.5156 64.1893 5.583L64.1962 5.59157L64.1927 5.60185C64.1059 5.84232 64.147 6.11821 64.2019 6.1759L64.2099 6.1839L64.2064 6.19475C64.1693 6.30785 64.1345 6.41523 64.1619 6.48206H64.64C64.6674 6.41523 64.6325 6.30842 64.5954 6.19475L64.592 6.1839L64.6 6.1759C64.6554 6.11764 64.696 5.84175 64.6091 5.60185L64.6057 5.59157L64.6126 5.583C64.6685 5.51503 64.7559 5.24543 64.6691 4.84445L64.6674 4.8376L64.6708 4.83132C64.7434 4.69766 64.7673 4.35723 64.6503 4.17787L64.6822 4.15674C64.8073 4.34752 64.7845 4.6948 64.7079 4.84274C64.7896 5.22658 64.7177 5.50361 64.6491 5.59843C64.7319 5.83718 64.6994 6.1085 64.6354 6.19304C64.6754 6.31641 64.7114 6.43179 64.6691 6.51005L64.6634 6.51976L64.6628 6.52033Z" fill="#368796"/>
<path id="Vector_19" d="M62.5514 3.55011C62.516 3.55011 62.4731 3.54155 62.4229 3.51813C62.2321 3.55811 62.1841 3.45301 62.1738 3.41931C62.1499 3.34049 62.1887 3.23025 62.2927 3.18341C62.2944 3.1617 62.3012 3.12001 62.3269 3.09545C62.3383 3.08459 62.3526 3.07831 62.3686 3.0766C62.3909 3.04804 62.4714 2.95608 62.592 2.97207C62.6239 2.97607 62.6565 2.98806 62.6885 3.00691C62.8142 2.95665 62.949 3.02633 63.0135 3.12058C63.0683 3.20054 63.0672 3.28679 63.0112 3.34791C63.0112 3.36733 63.0049 3.41246 62.9644 3.4513C62.9084 3.50442 62.8119 3.52213 62.6771 3.50499C62.6605 3.51984 62.6188 3.55011 62.5514 3.55011ZM62.428 3.47814L62.4343 3.481C62.5822 3.55354 62.6536 3.47586 62.6565 3.47243L62.6634 3.46501L62.6736 3.46615C62.7993 3.48328 62.8907 3.469 62.9387 3.42445C62.9775 3.3879 62.9747 3.34391 62.9747 3.3422V3.33363L62.9804 3.32735C63.0289 3.2788 63.0301 3.20968 62.9838 3.14228C62.9255 3.05775 62.8016 2.99834 62.6965 3.04575L62.6873 3.04975L62.6788 3.04404C62.6485 3.02519 62.6188 3.01319 62.5891 3.0092C62.4732 2.99434 62.3966 3.10458 62.396 3.10573L62.3898 3.11487H62.3789C62.3692 3.11372 62.3612 3.11658 62.3549 3.12286C62.3361 3.14057 62.3321 3.1817 62.3321 3.19598V3.20911L62.3201 3.21368C62.231 3.24853 62.1921 3.3422 62.2121 3.40789C62.2333 3.47757 62.3121 3.50385 62.4229 3.47929L62.4292 3.47757L62.428 3.47814Z" fill="#368796"/>
<path id="Vector_20" d="M66.2428 3.55011C66.1748 3.55011 66.1331 3.51984 66.1171 3.50499C65.9817 3.52213 65.8852 3.50442 65.8298 3.4513C65.7892 3.41303 65.7835 3.36733 65.7829 3.34791C65.727 3.28622 65.7258 3.19997 65.7807 3.12058C65.8452 3.0269 65.98 2.95665 66.1057 3.00691C66.1376 2.98806 66.1702 2.97607 66.2022 2.97207C66.3227 2.95608 66.4038 3.04804 66.4255 3.0766C66.4415 3.07774 66.4552 3.08459 66.4672 3.09545C66.4929 3.12001 66.4998 3.1617 66.5015 3.18341C66.6055 3.23025 66.6443 3.34049 66.6203 3.41931C66.61 3.45301 66.562 3.55868 66.3713 3.51813C66.3216 3.54155 66.2787 3.55011 66.2428 3.55011ZM66.1314 3.46444L66.1382 3.47243C66.1411 3.47586 66.2125 3.55354 66.3604 3.481L66.3667 3.47814L66.373 3.47986C66.4838 3.50499 66.5626 3.47814 66.5837 3.40846C66.6037 3.34277 66.5655 3.2491 66.4758 3.21425L66.4638 3.20968V3.19655C66.4638 3.18227 66.4592 3.14114 66.4404 3.12343C66.4341 3.11715 66.4261 3.1143 66.4164 3.11487H66.4055L66.3993 3.1063C66.3987 3.10516 66.3221 2.99492 66.2062 3.00977C66.1765 3.01377 66.1468 3.02519 66.1165 3.04461L66.1079 3.05032L66.0988 3.04632C65.9931 2.99891 65.8698 3.05775 65.8115 3.14285C65.7652 3.21026 65.7664 3.27937 65.8149 3.32792L65.8212 3.3342V3.34277C65.8212 3.34277 65.8178 3.38847 65.8561 3.42502C65.9035 3.46958 65.9954 3.48386 66.1211 3.46672L66.1314 3.46501V3.46444Z" fill="#368796"/>
<path id="Vector_21" d="M64.4473 4.1759H64.3467C64.2508 4.1759 64.2365 4.02968 64.2199 3.86003C64.2108 3.7675 64.2005 3.6624 64.1759 3.57615C64.124 3.3928 64.1594 3.19745 64.1828 3.06779C64.1902 3.02781 64.1959 2.99354 64.1976 2.97012C64.2039 2.87644 64.0714 2.61426 63.9189 2.50117C63.8429 2.44462 63.8098 2.3995 63.8138 2.35894C63.8178 2.31553 63.8641 2.29383 63.8863 2.28297C63.916 2.26869 63.9583 2.28583 64.0286 2.31382C64.1182 2.3498 64.2416 2.3995 64.3976 2.40578C64.5523 2.3995 64.6752 2.35037 64.7648 2.31382C64.8351 2.28583 64.8774 2.26869 64.9071 2.28297C64.9293 2.29383 64.9756 2.3161 64.9796 2.35894C64.9836 2.3995 64.9499 2.44462 64.8745 2.50117C64.722 2.61426 64.5895 2.87644 64.5958 2.97012C64.5975 2.99354 64.6038 3.02781 64.6106 3.06779C64.634 3.19688 64.6694 3.3928 64.6175 3.57615C64.5929 3.66297 64.5826 3.7675 64.5735 3.86003C64.5569 4.02968 64.5426 4.1759 64.4467 4.1759H64.4473ZM63.9115 2.3161C63.908 2.3161 63.9052 2.3161 63.9035 2.31782C63.8789 2.32924 63.8544 2.34409 63.8521 2.36294C63.8509 2.37722 63.8606 2.41035 63.9423 2.4709C64.0971 2.5857 64.2439 2.85988 64.2365 2.97297C64.2348 2.99868 64.2285 3.03409 64.2211 3.07522C64.1982 3.20088 64.1639 3.39108 64.2136 3.56644C64.2393 3.65612 64.2496 3.76293 64.2588 3.85718C64.273 4.00169 64.2862 4.13877 64.3473 4.13877H64.4478C64.5089 4.13877 64.5226 4.00226 64.5364 3.85718C64.5455 3.76293 64.5558 3.65612 64.5815 3.56644C64.6312 3.39166 64.5969 3.20145 64.5741 3.07522C64.5666 3.03409 64.5603 2.99868 64.5586 2.97297C64.5512 2.85988 64.698 2.5857 64.8528 2.4709C64.9345 2.41035 64.9442 2.37722 64.943 2.36294C64.9413 2.34409 64.9162 2.32924 64.8916 2.31782C64.8774 2.31096 64.83 2.32981 64.7803 2.3498C64.6929 2.38465 64.5615 2.43777 64.3987 2.44405C64.2348 2.43777 64.1028 2.38465 64.0154 2.3498C63.9726 2.33267 63.932 2.3161 63.912 2.3161H63.9115Z" fill="#368796"/>
</g>
<path id="Vector_22" d="M30.4386 14.6755C30.3963 14.6755 30.3626 14.6412 30.362 14.5995C30.362 14.5572 30.3963 14.523 30.438 14.523C30.6899 14.523 30.9429 14.5075 31.1914 14.4773C31.2331 14.4721 31.2714 14.5018 31.2765 14.5441C31.2816 14.5858 31.2519 14.6241 31.2097 14.6292C30.9555 14.6601 30.6962 14.6755 30.438 14.676L30.4386 14.6755ZM29.676 14.6309C29.6732 14.6309 29.6697 14.6309 29.6669 14.6309C29.4116 14.6007 29.1557 14.5544 28.9061 14.4933C28.8649 14.483 28.8398 14.4419 28.8501 14.4013C28.8604 14.3602 28.9015 14.335 28.942 14.3453C29.1854 14.4047 29.435 14.4499 29.6846 14.4796C29.7263 14.4847 29.7566 14.5224 29.7514 14.5641C29.7468 14.6029 29.7137 14.6315 29.676 14.6315V14.6309ZM31.9522 14.4921C31.9179 14.4921 31.8865 14.4687 31.878 14.4339C31.8677 14.3927 31.8928 14.3516 31.9339 14.3413C32.1773 14.2814 32.42 14.2054 32.6542 14.1163C32.6936 14.1014 32.7376 14.1209 32.7525 14.1603C32.7673 14.1997 32.7479 14.2437 32.7085 14.2585C32.468 14.3499 32.2201 14.4276 31.9705 14.4887C31.9642 14.4904 31.9585 14.491 31.9522 14.491V14.4921ZM28.1944 14.2688C28.1852 14.2688 28.1761 14.2671 28.1675 14.2636C27.927 14.1728 27.69 14.066 27.4621 13.9466C27.425 13.9272 27.4101 13.881 27.4301 13.8438C27.4495 13.8067 27.4958 13.7924 27.5329 13.8118C27.7551 13.9284 27.987 14.0323 28.2218 14.1214C28.2612 14.1363 28.2812 14.1803 28.2663 14.2197C28.2549 14.2499 28.2258 14.2688 28.1949 14.2688H28.1944ZM33.3779 13.9501C33.3505 13.9501 33.3242 13.9352 33.3105 13.9095C33.2911 13.8724 33.3054 13.8261 33.3425 13.8067C33.5641 13.6902 33.7812 13.5582 33.9874 13.4154C34.0222 13.3914 34.0696 13.4 34.0936 13.4348C34.1176 13.4697 34.109 13.5171 34.0742 13.5411C33.8629 13.6873 33.6407 13.8221 33.4133 13.9421C33.4019 13.9478 33.3899 13.9506 33.3779 13.9506V13.9501ZM26.8429 13.5605C26.8281 13.5605 26.8126 13.5559 26.7995 13.5468C26.5882 13.4011 26.3831 13.2406 26.1906 13.0704C26.1592 13.0424 26.1563 12.9945 26.1838 12.9625C26.2117 12.9311 26.2597 12.9282 26.2917 12.9556C26.4796 13.1218 26.6796 13.2783 26.8863 13.4206C26.9212 13.4446 26.9297 13.492 26.9057 13.5268C26.8909 13.5485 26.8669 13.5599 26.8429 13.5599V13.5605ZM34.6311 13.0824C34.61 13.0824 34.5888 13.0739 34.574 13.0567C34.546 13.0253 34.5489 12.9768 34.5803 12.9488C34.7682 12.7825 34.9475 12.6026 35.1138 12.4147C35.1418 12.3833 35.1897 12.3804 35.2217 12.4084C35.2531 12.4364 35.256 12.4844 35.228 12.5164C35.0578 12.7089 34.8739 12.8928 34.6814 13.063C34.6671 13.0761 34.6488 13.0824 34.6305 13.0824H34.6311ZM25.7005 12.5501C25.6794 12.5501 25.6588 12.5415 25.6434 12.5244C25.4726 12.3325 25.3121 12.128 25.1653 11.9166C25.1413 11.8818 25.1499 11.8344 25.1847 11.8104C25.2196 11.7864 25.267 11.795 25.291 11.8298C25.4338 12.036 25.5909 12.2353 25.7576 12.4227C25.7856 12.4541 25.7828 12.5027 25.7514 12.5307C25.7371 12.5438 25.7188 12.5501 25.7005 12.5501ZM35.6427 11.9412C35.6278 11.9412 35.6124 11.9366 35.5993 11.9275C35.5644 11.9035 35.5559 11.8561 35.5799 11.8212C35.7227 11.6145 35.854 11.3974 35.9711 11.1752C35.9905 11.1381 36.0368 11.1238 36.0739 11.1432C36.1111 11.1627 36.1253 11.2089 36.1059 11.246C35.9865 11.4734 35.8517 11.6961 35.7055 11.9075C35.6907 11.9292 35.6667 11.9406 35.6427 11.9406V11.9412ZM24.8317 11.2975C24.8043 11.2975 24.7781 11.2826 24.7643 11.2569C24.6444 11.0296 24.537 10.7925 24.4456 10.5526C24.4308 10.5132 24.4502 10.4692 24.4896 10.4544C24.529 10.4395 24.573 10.4589 24.5878 10.4984C24.677 10.7325 24.7821 10.9639 24.8991 11.1861C24.9186 11.2232 24.9043 11.2695 24.8672 11.2889C24.8557 11.2946 24.8437 11.2975 24.8317 11.2975ZM36.3521 10.5903C36.343 10.5903 36.3338 10.5886 36.3253 10.5852C36.2858 10.5703 36.2659 10.5263 36.2807 10.4869C36.3698 10.2522 36.4452 10.0094 36.5052 9.76609C36.5155 9.72496 36.5566 9.7004 36.5977 9.71011C36.6388 9.72039 36.6634 9.76152 36.6537 9.80265C36.5926 10.0523 36.5149 10.3007 36.4241 10.5412C36.4127 10.5715 36.3835 10.5903 36.3527 10.5903H36.3521ZM24.288 9.87233C24.2537 9.87233 24.2229 9.84891 24.2137 9.81407C24.152 9.56503 24.1052 9.30914 24.0738 9.05381C24.0686 9.01212 24.0983 8.97385 24.14 8.96871C24.1817 8.96356 24.22 8.99327 24.2251 9.03496C24.2554 9.284 24.3017 9.53418 24.3617 9.77694C24.3719 9.81807 24.3468 9.85919 24.3057 9.86947C24.2994 9.87119 24.2931 9.87176 24.2874 9.87176L24.288 9.87233ZM36.716 9.10922C36.7131 9.10922 36.7097 9.10922 36.7068 9.10922C36.6651 9.10408 36.6354 9.06638 36.64 9.02411C36.6697 8.77564 36.6851 8.52261 36.6851 8.27071V8.24672C36.6851 8.20445 36.7188 8.17018 36.7611 8.17018C36.8033 8.17018 36.837 8.20388 36.8376 8.24615V8.27128C36.8376 8.52889 36.8222 8.78821 36.7919 9.04239C36.7874 9.08123 36.7542 9.10979 36.7165 9.10979L36.716 9.10922ZM24.1029 8.35296C24.0606 8.35296 24.0264 8.32497 24.0264 8.28271H24.1029L24.0264 8.27071C24.0264 8.01653 24.0412 7.76121 24.0709 7.51103C24.0761 7.46933 24.1138 7.43963 24.1555 7.4442C24.1972 7.44934 24.2274 7.48704 24.2223 7.52873C24.1932 7.7732 24.1789 8.02281 24.1789 8.27014C24.1789 8.31241 24.1446 8.35239 24.1023 8.35239L24.1029 8.35296ZM36.7125 7.56015C36.6748 7.56015 36.6417 7.53159 36.6371 7.49332C36.6063 7.24428 36.56 6.99467 36.4989 6.75134C36.4886 6.71022 36.5138 6.66909 36.5543 6.65881C36.5954 6.64853 36.6366 6.67366 36.6468 6.71421C36.7091 6.96325 36.7565 7.21915 36.7879 7.47447C36.7931 7.51617 36.7634 7.55444 36.7217 7.55958C36.7182 7.55958 36.7154 7.56015 36.712 7.56015H36.7125ZM24.2823 6.84445C24.2765 6.84445 24.2703 6.84387 24.264 6.84216C24.2229 6.83245 24.1977 6.79075 24.208 6.7502C24.2691 6.50059 24.3457 6.25155 24.4365 6.01108C24.4513 5.97167 24.4953 5.95167 24.5347 5.96652C24.5741 5.98138 24.5941 6.02536 24.5793 6.06477C24.4907 6.29953 24.4159 6.54229 24.3565 6.78618C24.3479 6.82103 24.3165 6.84445 24.2823 6.84445ZM36.3435 6.08076C36.3127 6.08076 36.2841 6.06191 36.2721 6.03164C36.1825 5.79745 36.0774 5.56669 35.9597 5.3445C35.9397 5.30737 35.954 5.2611 35.9911 5.24111C36.0282 5.22112 36.0745 5.2354 36.0945 5.27253C36.215 5.49986 36.323 5.73633 36.4149 5.97623C36.4298 6.01565 36.4104 6.05963 36.371 6.07505C36.3618 6.07848 36.3527 6.08019 36.3435 6.08019V6.08076ZM24.8203 5.41704C24.8083 5.41704 24.7963 5.41418 24.7849 5.40847C24.7478 5.38905 24.7329 5.34278 24.7529 5.30566C24.8717 5.07832 25.0065 4.85499 25.1522 4.64307C25.1762 4.60823 25.2236 4.59966 25.2584 4.62365C25.2933 4.64764 25.3018 4.69505 25.2778 4.7299C25.1356 4.93667 25.0042 5.15429 24.8883 5.37648C24.8746 5.40276 24.8483 5.41761 24.8209 5.41761L24.8203 5.41704ZM35.6295 4.73389C35.6056 4.73389 35.5816 4.72247 35.5667 4.70134C35.4233 4.49571 35.2663 4.29636 35.0989 4.10901C35.0709 4.07759 35.0738 4.02961 35.1052 4.00106C35.1366 3.97307 35.1846 3.97592 35.2131 4.00734C35.3845 4.19926 35.5456 4.40317 35.6924 4.61394C35.7164 4.64879 35.7078 4.6962 35.6735 4.72019C35.6604 4.72932 35.645 4.73389 35.6301 4.73389H35.6295ZM25.6851 4.16042C25.6674 4.16042 25.6491 4.15413 25.6348 4.14157C25.6034 4.11358 25.6 4.0656 25.628 4.03361C25.7982 3.84112 25.9816 3.65663 26.1735 3.48584C26.2049 3.45785 26.2529 3.46071 26.2814 3.49212C26.3094 3.52354 26.3066 3.57209 26.2751 3.60008C26.0878 3.76687 25.9084 3.94679 25.7428 4.13471C25.7279 4.15185 25.7068 4.16042 25.6857 4.16042H25.6851ZM34.614 3.59608C34.5963 3.59608 34.578 3.5898 34.5637 3.57723C34.3752 3.41159 34.1753 3.25508 33.9685 3.11342C33.9337 3.08943 33.9251 3.04203 33.9491 3.00718C33.9731 2.97234 34.0205 2.96377 34.0553 2.98776C34.2673 3.13342 34.4723 3.29335 34.6654 3.46299C34.6968 3.49098 34.7002 3.53896 34.6722 3.57095C34.6574 3.58808 34.6362 3.59665 34.6151 3.59665L34.614 3.59608ZM26.8241 3.14655C26.8001 3.14655 26.7761 3.13513 26.7612 3.114C26.7372 3.07915 26.7458 3.03174 26.7801 3.00775C26.9908 2.86096 27.213 2.72559 27.4398 2.60564C27.4769 2.58564 27.5232 2.59992 27.5432 2.63762C27.5626 2.67475 27.5489 2.72102 27.5112 2.74101C27.2896 2.8581 27.0731 2.99005 26.8669 3.13342C26.8538 3.14255 26.8383 3.14712 26.8235 3.14712L26.8241 3.14655ZM28.1715 2.43371C28.1407 2.43371 28.1121 2.41486 28.1001 2.38458C28.0853 2.34517 28.1047 2.30119 28.1441 2.28634C28.384 2.19438 28.6325 2.1167 28.8815 2.05444C28.9226 2.04415 28.9637 2.06929 28.974 2.10984C28.9843 2.15097 28.9592 2.19209 28.9186 2.20237C28.6753 2.26292 28.4331 2.33889 28.1989 2.42857C28.1898 2.43199 28.1806 2.43371 28.1715 2.43371ZM29.6515 2.06586C29.6138 2.06586 29.5806 2.0373 29.5761 1.99903C29.5709 1.95733 29.6006 1.91906 29.6423 1.91392C29.8965 1.88251 30.1558 1.86651 30.414 1.86594C30.458 1.86252 30.4905 1.89964 30.4905 1.94191C30.4905 1.98418 30.4568 2.01845 30.4146 2.01845C30.1627 2.01902 29.9096 2.03502 29.6612 2.06529C29.6577 2.06529 29.6549 2.06586 29.652 2.06586H29.6515Z" fill="#368796"/>
<g id="Group_8">
<path id="Vector_23" d="M32.3136 1.70329C31.844 1.70329 31.4619 1.32117 31.4619 0.851646C31.4619 0.382127 31.844 0 32.3136 0C32.7831 0 33.1652 0.382127 33.1652 0.851646C33.1652 1.32117 32.7831 1.70329 32.3136 1.70329ZM32.3136 0.0736837C31.8846 0.0736837 31.5362 0.422682 31.5362 0.851075C31.5362 1.27947 31.8852 1.62847 32.3136 1.62847C32.742 1.62847 33.091 1.27947 33.091 0.851075C33.091 0.422682 32.742 0.0736837 32.3136 0.0736837Z" fill="#368796"/>
<path id="Vector_24" d="M32.3419 5.03329C32.2511 5.03329 32.1734 4.98131 32.1385 4.89678L31.0401 2.2356C31.0121 2.16763 31.0196 2.09051 31.0607 2.02883C31.1018 1.96771 31.1704 1.93115 31.244 1.93115H33.3792C33.4517 1.93115 33.5197 1.96714 33.5608 2.02711C33.6019 2.08709 33.6105 2.16363 33.5842 2.2316L32.5475 4.89278C32.5144 4.97846 32.4361 5.03215 32.3442 5.03329H32.3419ZM31.2435 2.00541C31.1938 2.00541 31.1498 2.02883 31.1224 2.06995C31.095 2.11108 31.0898 2.16077 31.1087 2.20704L32.2071 4.86822C32.2351 4.93562 32.2962 4.95789 32.3436 4.95847C32.3916 4.95847 32.4515 4.93333 32.4784 4.86536L33.5151 2.20418C33.5328 2.15849 33.5271 2.10936 33.4997 2.06881C33.4723 2.02825 33.4283 2.00541 33.3792 2.00541H31.244H31.2435Z" fill="#368796"/>
</g>
<path id="Vector_25" d="M5.47904 128.831H124.545C125.039 128.831 125.44 129.232 125.44 129.726V132H4.58398V129.726C4.58398 129.232 4.98496 128.831 5.47904 128.831Z" fill="#6677CC"/>
<g id="Group_9">
<path id="Vector_26" d="M98.7851 8.68848H31.2383C30.1013 8.68848 29.1797 9.61013 29.1797 10.7471V126.774C29.1797 127.911 30.1013 128.832 31.2383 128.832H98.7851C99.922 128.832 100.844 127.911 100.844 126.774V10.7471C100.844 9.61013 99.922 8.68848 98.7851 8.68848Z" fill="#404040"/>
<path id="Vector_27" d="M98.823 10.1187H31.2003C30.8971 10.1187 30.6514 10.3644 30.6514 10.6676V122.952C30.6514 123.256 30.8971 123.501 31.2003 123.501H98.823C99.1262 123.501 99.3719 123.256 99.3719 122.952V10.6676C99.3719 10.3644 99.1262 10.1187 98.823 10.1187Z" fill="#737373"/>
<path id="Vector_28" d="M98.5756 11.0737H31.4492V122.546H98.5756V11.0737Z" fill="#C2D4FF"/>
<path id="Vector_29" d="M92.9551 117.084V16.5342L37.0692 16.5342L37.0692 117.084H92.9551Z" fill="white"/>
</g>
<g id="Group_10">
<g id="Group_11" style="mix-blend-mode:multiply">
<path id="Vector_30" d="M86.0004 75.2671H70.4051C68.3881 75.2671 66.7529 76.9022 66.7529 78.9193V106.982C66.7529 108.999 68.3881 110.634 70.4051 110.634H86.0004C88.0174 110.634 89.6526 108.999 89.6526 106.982V78.9193C89.6526 76.9022 88.0174 75.2671 86.0004 75.2671Z" fill="#EBE2DF"/>
</g>
<path id="Vector_31" d="M89.406 74.249H69.5463C68.7069 74.249 68.0264 74.9295 68.0264 75.769V108.096C68.0264 108.936 68.7069 109.616 69.5463 109.616H89.406C90.2455 109.616 90.926 108.936 90.926 108.096V75.769C90.926 74.9295 90.2455 74.249 89.406 74.249Z" fill="#DBE6FF"/>
<path id="Vector_32" d="M84.5107 77.8115H74.4389C74.1754 77.8115 73.9619 78.0251 73.9619 78.2885V88.3603C73.9619 88.6237 74.1754 88.8372 74.4389 88.8372H84.5107C84.7741 88.8372 84.9876 88.6237 84.9876 88.3603V78.2885C84.9876 78.0251 84.7741 77.8115 84.5107 77.8115Z" fill="#334499"/>
<path id="Vector_33" d="M86.9628 92.145H71.9879C71.8371 92.145 71.7148 92.2673 71.7148 92.4181V93.4833C71.7148 93.6341 71.8371 93.7564 71.9879 93.7564H86.9628C87.1136 93.7564 87.2358 93.6341 87.2358 93.4833V92.4181C87.2358 92.2673 87.1136 92.145 86.9628 92.145Z" fill="white"/>
<path id="Vector_34" d="M86.9628 97.1841H71.9879C71.8371 97.1841 71.7148 97.3063 71.7148 97.4571V98.5224C71.7148 98.6732 71.8371 98.7954 71.9879 98.7954H86.9628C87.1136 98.7954 87.2358 98.6732 87.2358 98.5224V97.4571C87.2358 97.3063 87.1136 97.1841 86.9628 97.1841Z" fill="white"/>
<path id="Vector_35" d="M86.9619 102.224H79.8746C79.7238 102.224 79.6016 102.346 79.6016 102.497V103.562C79.6016 103.713 79.7238 103.835 79.8746 103.835H86.9619C87.1127 103.835 87.235 103.713 87.235 103.562V102.497C87.235 102.346 87.1127 102.224 86.9619 102.224Z" fill="white"/>
</g>
<g id="Group_12">
<g id="Group_13" style="mix-blend-mode:multiply">
<path id="Vector_36" d="M58.4134 75.2671H42.8182C40.8012 75.2671 39.166 76.9022 39.166 78.9193V106.982C39.166 108.999 40.8012 110.634 42.8182 110.634H58.4134C60.4305 110.634 62.0656 108.999 62.0656 106.982V78.9193C62.0656 76.9022 60.4305 75.2671 58.4134 75.2671Z" fill="#EBE2DF"/>
</g>
<path id="Vector_37" d="M61.8182 74.249H41.9584C41.119 74.249 40.4385 74.9295 40.4385 75.769V108.096C40.4385 108.936 41.119 109.616 41.9584 109.616H61.8182C62.6576 109.616 63.3381 108.936 63.3381 108.096V75.769C63.3381 74.9295 62.6576 74.249 61.8182 74.249Z" fill="#DBE6FF"/>
<path id="Vector_38" d="M56.9238 77.8115H46.8519C46.5885 77.8115 46.375 78.0251 46.375 78.2885V88.3603C46.375 88.6237 46.5885 88.8372 46.8519 88.8372H56.9238C57.1872 88.8372 57.4007 88.6237 57.4007 88.3603V78.2885C57.4007 78.0251 57.1872 77.8115 56.9238 77.8115Z" fill="#334499"/>
<path id="Vector_39" d="M59.3749 92.145H44.4C44.2492 92.145 44.127 92.2673 44.127 92.4181V93.4833C44.127 93.6341 44.2492 93.7564 44.4 93.7564H59.3749C59.5257 93.7564 59.6479 93.6341 59.6479 93.4833V92.4181C59.6479 92.2673 59.5257 92.145 59.3749 92.145Z" fill="white"/>
<path id="Vector_40" d="M59.3749 97.1841H44.4C44.2492 97.1841 44.127 97.3063 44.127 97.4571V98.5224C44.127 98.6732 44.2492 98.7954 44.4 98.7954H59.3749C59.5257 98.7954 59.6479 98.6732 59.6479 98.5224V97.4571C59.6479 97.3063 59.5257 97.1841 59.3749 97.1841Z" fill="white"/>
<path id="Vector_41" d="M59.375 102.224H52.2877C52.1369 102.224 52.0146 102.346 52.0146 102.497V103.562C52.0146 103.713 52.1369 103.835 52.2877 103.835H59.375C59.5258 103.835 59.648 103.713 59.648 103.562V102.497C59.648 102.346 59.5258 102.224 59.375 102.224Z" fill="white"/>
</g>
<g id="Group_14">
<path id="Vector_42" d="M92.9558 16.5034H37.0762V21.0684H92.9558V16.5034Z" fill="#334499"/>
<path id="Vector_43" d="M90.6157 17.4009H45.2705V20.1712H90.6157V17.4009Z" fill="white"/>
<path id="Vector_44" d="M41.2813 17.7524C40.9271 17.3983 40.3502 17.3983 39.9961 17.7524C39.6419 18.1066 39.6419 18.6835 39.9961 19.0376C40.2657 19.3072 40.6644 19.3712 40.9957 19.2301L41.9353 20.1697L42.3859 19.719L41.456 18.7891C41.6188 18.451 41.5611 18.0323 41.2813 17.7518V17.7524ZM42.1746 19.719L41.9353 19.9584L41.1339 19.157C41.1859 19.1233 41.2356 19.0833 41.2813 19.0376C41.3172 19.0016 41.3487 18.9628 41.3778 18.9222L42.1746 19.719ZM41.1756 18.9314C40.8797 19.2272 40.3982 19.2272 40.1017 18.9314C39.8059 18.6355 39.8059 18.154 40.1017 17.8575C40.3976 17.5616 40.8791 17.5616 41.1756 17.8575C41.4715 18.1534 41.4715 18.6349 41.1756 18.9314Z" fill="white"/>
</g>
<g id="Group_15">
<path id="Vector_45" d="M38.0982 111.843L38.7236 111.352L35.6243 107.404L34.9988 107.894L38.0982 111.843Z" fill="#368796"/>
<path id="Vector_46" d="M28.4828 126.075H40.0654V118.168H28.4828V126.075Z" fill="#4357BC"/>
<path id="Vector_47" d="M58.8633 128.85H20.8551V125.983C20.8551 125.498 21.2486 125.105 21.733 125.105H57.9848C58.4692 125.105 58.8627 125.498 58.8627 125.983V128.85H58.8633Z" fill="#334499"/>
<path id="Vector_48" d="M34.7269 94.5175L31.675 97.2227C29.2475 93.8932 26.612 90.8419 24.3923 91.1886C20.0667 91.8643 12.74 98.8871 19.2596 107.765C25.7792 116.643 36.2526 111.788 39.0959 111.372C41.9399 110.955 45.4767 117.752 37.4315 120.596C29.3857 123.44 17.3867 120.111 12.3236 110.609C7.26061 101.106 7.26061 86.0559 24.0451 81.2699C25.6404 80.4376 34.7263 94.5175 34.7263 94.5175H34.7269Z" fill="#334499"/>
<path id="Vector_49" d="M34.1114 101.869L49.6934 89.6382L48.5799 88.2197L32.998 100.451L34.1114 101.869Z" fill="#334499"/>
<path id="Vector_50" d="M38.0161 114.162L58.6123 97.9951L56.6352 95.4763L36.039 111.643L38.0161 114.162Z" fill="#4357BC"/>
<path id="Vector_51" d="M36.3889 97.7874L45.1895 90.8794L32.0355 74.1216L23.235 81.0296L36.3889 97.7874Z" fill="#368796"/>
<path id="Vector_52" d="M23.876 80.5262L31.3965 74.623L31.0092 74.1297L23.4888 80.0329L23.876 80.5262Z" fill="#334499"/>
<path id="Vector_53" d="M25.533 78.4277L28.9648 75.7339L22.5997 67.6248L19.1679 70.3186L25.533 78.4277Z" fill="#4357BC"/>
<path id="Vector_54" d="M19.1723 70.3137L22.6045 67.62L22.1716 65.3403L16.9932 69.5249L19.1723 70.3137Z" fill="#368796"/>
<path id="Vector_55" d="M40.7255 102.997L42.7568 101.402L39.6575 97.4538L37.6262 99.0483L40.7255 102.997Z" fill="#4357BC"/>
<path id="Vector_56" d="M40.4474 103.214L43.0332 101.185L42.3984 100.376L39.8126 102.405L40.4474 103.214Z" fill="#368796"/>
<path id="Vector_57" d="M48.0383 101.013L51.2549 98.4878L46.3466 92.2348L43.13 94.7596L48.0383 101.013Z" fill="#4357BC"/>
<path id="Vector_58" d="M47.5979 101.358L51.6924 98.1436L50.6869 96.8626L46.5924 100.077L47.5979 101.358Z" fill="#368796"/>
<path id="Vector_59" d="M36.1484 119.473C37.8634 119.068 38.9256 117.35 38.5208 115.635C38.116 113.92 36.3975 112.857 34.6825 113.262C32.9675 113.667 31.9053 115.385 32.3101 117.1C32.7149 118.816 34.4333 119.878 36.1484 119.473Z" fill="#368796"/>
<path id="Vector_60" d="M14.9795 93.7746C17.634 91.1201 17.634 86.8164 14.9795 84.1619C12.3251 81.5075 8.02134 81.5075 5.36688 84.1619C2.71241 86.8164 2.71241 91.1201 5.36688 93.7746C8.02134 96.4291 12.3251 96.4291 14.9795 93.7746Z" fill="#4357BC"/>
<path id="Vector_61" d="M10.173 92.0207C11.8585 92.0207 13.2248 90.6544 13.2248 88.9689C13.2248 87.2834 11.8585 85.917 10.173 85.917C8.48747 85.917 7.12109 87.2834 7.12109 88.9689C7.12109 90.6544 8.48747 92.0207 10.173 92.0207Z" fill="#334499"/>
</g>
<g id="Group_16">
<path id="Vector_62" d="M110.66 108.636H74.4463V110.303H110.66V108.636Z" fill="#368796"/>
<path id="Vector_63" d="M75.5573 108.636H74.4463V127.78H75.5573V108.636Z" fill="#368796"/>
<path id="Vector_64" d="M78.4993 127.78H71.5039V128.84H78.4993V127.78Z" fill="#368796"/>
<path id="Vector_65" d="M78.4983 128.84H80.165V127.78H78.4983V128.84Z" fill="#368796"/>
<path id="Vector_66" d="M110.795 108.636H109.684V127.78H110.795V108.636Z" fill="#368796"/>
<path id="Vector_67" d="M113.738 127.78H106.742V128.84H113.738V127.78Z" fill="#368796"/>
<path id="Vector_68" d="M113.737 128.84H115.403V127.78H113.737V128.84Z" fill="#368796"/>
<g id="Group_17">
<path id="Vector_69" d="M79.4957 101.436H85.6577V123.392C85.6577 123.674 85.4286 123.903 85.1459 123.903H80.0069C79.7247 123.903 79.4951 123.674 79.4951 123.392V101.436H79.4957Z" fill="#368796"/>
<path id="Vector_70" d="M81.9082 112.961C83.3288 111.882 84.8841 112.045 84.8841 112.797C84.8841 113.549 85.0338 113.719 84.6545 113.946C84.2752 114.174 83.3853 114.515 83.3099 114.515C83.2345 114.515 82.4388 114.496 82.4006 114.42C82.3629 114.344 81.9082 112.962 81.9082 112.962V112.961Z" fill="#E04848"/>
<path id="Vector_71" d="M84.8844 112.797V120.823C84.8844 122.095 83.85 123.129 82.578 123.129C81.3059 123.129 80.2715 122.095 80.2715 120.823V112.797C80.7347 111.73 81.8708 112.242 82.7613 113.227C83.6512 114.212 84.7542 113.58 84.885 112.797H84.8844Z" fill="#FF6B6B"/>
<path id="Vector_72" d="M86.9504 100.83H78.1529C78.0857 100.83 78.0312 100.884 78.0312 100.951V102.172C78.0312 102.24 78.0857 102.294 78.1529 102.294H86.9504C87.0176 102.294 87.0721 102.24 87.0721 102.172V100.951C87.0721 100.884 87.0176 100.83 86.9504 100.83Z" fill="#334499"/>
</g>
<g id="Group_18">
<path id="Vector_73" d="M99.2447 101.436H105.407V123.392C105.407 123.674 105.178 123.903 104.895 123.903H99.7559C99.4738 123.903 99.2441 123.674 99.2441 123.392V101.436H99.2447Z" fill="#368796"/>
<g id="Group_19">
<path id="Vector_74" d="M101.656 116.833C103.077 115.754 104.632 115.918 104.632 116.669C104.632 117.421 104.782 117.591 104.403 117.818C104.024 118.046 103.133 118.387 103.058 118.387C102.983 118.387 102.187 118.368 102.149 118.292C102.111 118.216 101.656 116.834 101.656 116.834V116.833Z" fill="#E04848"/>
<path id="Vector_75" d="M104.632 116.669V120.822C104.632 122.094 103.597 123.128 102.326 123.128C101.055 123.128 100.02 122.094 100.02 120.822V116.669C100.483 115.602 101.619 116.114 102.509 117.099C103.399 118.084 104.502 117.453 104.633 116.669H104.632Z" fill="#FF6B6B"/>
</g>
<path id="Vector_76" d="M106.699 100.83H97.9019C97.8347 100.83 97.7803 100.884 97.7803 100.951V102.172C97.7803 102.24 97.8347 102.294 97.9019 102.294H106.699C106.767 102.294 106.821 102.24 106.821 102.172V100.951C106.821 100.884 106.767 100.83 106.699 100.83Z" fill="#334499"/>
</g>
<g id="Group_20">
<path id="Vector_77" d="M89.3717 101.436H95.5337V123.392C95.5337 123.674 95.3046 123.903 95.0219 123.903H89.8829C89.6007 123.903 89.3711 123.674 89.3711 123.392V101.436H89.3717Z" fill="#368796"/>
<g id="Group_21">
<path id="Vector_78" d="M91.7822 106.721C93.2028 105.641 94.7581 105.805 94.7581 106.557C94.7581 107.309 94.9078 107.479 94.5285 107.706C94.1492 107.933 93.2593 108.274 93.1839 108.274C93.1085 108.274 92.3129 108.256 92.2746 108.18C92.2369 108.104 91.7822 106.721 91.7822 106.721V106.721Z" fill="#E04848"/>
<path id="Vector_79" d="M94.7584 106.557V120.823C94.7584 122.095 93.7234 123.129 92.452 123.129C91.1805 123.129 90.1455 122.095 90.1455 120.823V106.557C90.6087 105.49 91.7448 106.001 92.6353 106.987C93.5253 107.971 94.6282 107.34 94.759 106.557H94.7584Z" fill="#FF6B6B"/>
</g>
<path id="Vector_80" d="M96.8254 100.83H88.0279C87.9607 100.83 87.9062 100.884 87.9062 100.951V102.172C87.9062 102.24 87.9607 102.294 88.0279 102.294H96.8254C96.8926 102.294 96.9471 102.24 96.9471 102.172V100.951C96.9471 100.884 96.8926 100.83 96.8254 100.83Z" fill="#334499"/>
</g>
</g>
<g id="Group_22" style="mix-blend-mode:multiply">
<path id="Vector_81" d="M101.443 44.4165H67.4082C66.5442 44.4165 65.8438 45.117 65.8438 45.981V68.2003C65.8438 69.0644 66.5442 69.7648 67.4082 69.7648H101.443C102.307 69.7648 103.007 69.0644 103.007 68.2003V45.981C103.007 45.117 102.307 44.4165 101.443 44.4165Z" fill="#EBE2DF"/>
</g>
<path id="Vector_82" d="M98.972 42.4829H64.9375C64.0735 42.4829 63.373 43.1834 63.373 44.0474V66.2668C63.373 67.1308 64.0735 67.8312 64.9375 67.8312H98.972C99.836 67.8312 100.536 67.1308 100.536 66.2668V44.0474C100.536 43.1834 99.836 42.4829 98.972 42.4829Z" fill="#DBE6FF"/>
<g id="Group_23">
<path id="Vector_83" d="M88.3751 61.577C91.9209 58.0312 91.9209 52.2823 88.3751 48.7364C84.8293 45.1906 79.0804 45.1906 75.5345 48.7365C71.9887 52.2823 71.9887 58.0312 75.5345 61.577C79.0804 65.1228 84.8293 65.1229 88.3751 61.577Z" fill="#FF6B6B"/>
<path id="Vector_84" d="M87.5792 60.7818C90.6858 57.6752 90.6858 52.6383 87.5792 49.5317C84.4725 46.4251 79.4357 46.4251 76.3291 49.5317C73.2225 52.6383 73.2225 57.6751 76.3291 60.7818C79.4357 63.8884 84.4725 63.8884 87.5792 60.7818Z" fill="#E04848"/>
<g id="Group_24">
<path id="Vector_85" d="M81.1912 48.7428C79.0219 48.2864 77.9286 50.0063 78.4004 51.5056C78.8722 53.005 81.0107 52.616 81.9406 53.5882C82.8711 54.5598 84.3288 53.5048 83.9815 51.7141C83.6342 49.9234 82.2462 48.965 81.1907 48.7434L81.1912 48.7428Z" fill="#FF6B6B"/>
<path id="Vector_86" d="M80.3156 49.4649C79.3068 49.3598 78.5249 50.3948 79.5102 51.0197C80.4961 51.6446 81.6482 49.6037 80.3156 49.4649Z" fill="#FF9E9E"/>
<path id="Vector_87" d="M82.0656 50.3536C81.0244 50.3439 81.4825 51.0893 82.121 51.6445C82.7596 52.1997 82.5929 53.3661 83.3011 52.8663C84.0094 52.3665 83.5924 50.3673 82.0656 50.3536Z" fill="#FF9E9E"/>
<path id="Vector_88" d="M80.9677 51.5334C80.2794 51.546 80.926 52.8106 81.3841 52.4496C81.8422 52.0886 81.7171 51.5197 80.9677 51.5334Z" fill="#FF9E9E"/>
<path id="Vector_89" d="M78.3429 53.238C78.3252 53.238 78.3081 53.2294 78.2984 53.2128C78.2624 53.1529 78.2487 52.9587 78.3092 52.7793C78.3566 52.6382 78.468 52.448 78.7268 52.3446C78.7536 52.3338 78.785 52.3469 78.7959 52.3743C78.8067 52.4017 78.7936 52.4326 78.7662 52.4434C78.5937 52.5126 78.476 52.6319 78.4149 52.7987C78.3532 52.9684 78.3743 53.13 78.3892 53.158C78.4029 53.1837 78.3943 53.2163 78.3692 53.2305C78.3606 53.2357 78.3515 53.238 78.3423 53.238H78.3429Z" fill="#FF9E9E"/>
<path id="Vector_90" d="M81.0089 48.5109C80.9912 48.5109 80.9741 48.5023 80.9644 48.4858C80.9284 48.4258 80.9147 48.2316 80.9752 48.0523C81.0226 47.9112 81.134 47.721 81.3928 47.6176C81.4196 47.6067 81.451 47.6199 81.4619 47.6473C81.4727 47.6747 81.4596 47.7055 81.4322 47.7164C81.2597 47.7855 81.142 47.9049 81.0809 48.0717C81.0192 48.2413 81.0403 48.403 81.0552 48.4309C81.0689 48.4567 81.0603 48.4892 81.0352 48.5035C81.0266 48.5086 81.0175 48.5109 81.0084 48.5109H81.0089Z" fill="#FF9E9E"/>
<path id="Vector_91" d="M82.4426 49.1098C82.426 49.1029 82.414 49.0881 82.4111 49.0692C82.4014 48.9995 82.4643 48.8156 82.5893 48.674C82.6882 48.562 82.8641 48.4301 83.1428 48.4352C83.172 48.4352 83.1954 48.4598 83.1948 48.4895C83.1948 48.5186 83.1702 48.542 83.1405 48.5414C82.9549 48.538 82.7995 48.6026 82.679 48.7328C82.5562 48.8653 82.5128 49.0224 82.5162 49.0544C82.5191 49.0829 82.4985 49.1098 82.4694 49.1132C82.4597 49.1144 82.45 49.1132 82.442 49.1092L82.4426 49.1098Z" fill="#FF9E9E"/>
<path id="Vector_92" d="M83.8319 50.7416C83.8182 50.7308 83.8102 50.7131 83.8131 50.6942C83.8222 50.6245 83.9325 50.4646 84.0912 50.3618C84.2163 50.2807 84.4214 50.2013 84.6887 50.2813C84.7167 50.2898 84.7327 50.3195 84.7241 50.3475C84.7156 50.3755 84.6859 50.3915 84.6579 50.3829C84.4802 50.3298 84.3134 50.3498 84.1621 50.4423C84.0084 50.5366 83.9239 50.6765 83.9182 50.7079C83.913 50.7365 83.8862 50.7565 83.8576 50.7519C83.8479 50.7502 83.8393 50.7462 83.8319 50.7411V50.7416Z" fill="#FF9E9E"/>
<path id="Vector_93" d="M79.6755 53.818C79.6578 53.8203 79.6401 53.814 79.6281 53.7992C79.5835 53.7449 79.543 53.5547 79.5773 53.3685C79.6041 53.2217 79.6875 53.0183 79.9291 52.879C79.9542 52.8647 79.9868 52.8733 80.0017 52.8984C80.0165 52.9241 80.0074 52.9567 79.9822 52.9709C79.8217 53.0635 79.7218 53.1988 79.6852 53.3725C79.6481 53.549 79.6921 53.7061 79.7109 53.7318C79.7281 53.7552 79.7241 53.7889 79.7012 53.806C79.6932 53.8123 79.6846 53.8157 79.6755 53.8169V53.818Z" fill="#FF9E9E"/>
<path id="Vector_94" d="M81.4857 54.4936C81.4691 54.5004 81.4503 54.4981 81.4348 54.4867C81.3789 54.4445 81.2943 54.2691 81.2835 54.0806C81.2749 53.9321 81.3069 53.7139 81.5085 53.5214C81.5296 53.5014 81.5633 53.502 81.5839 53.5231C81.6045 53.5443 81.6033 53.578 81.5822 53.5985C81.448 53.7265 81.3829 53.8818 81.3891 54.0595C81.3954 54.24 81.4748 54.3822 81.4994 54.4022C81.5216 54.4205 81.5256 54.4542 81.5079 54.477C81.5017 54.4844 81.4942 54.4902 81.4857 54.4936Z" fill="#FF9E9E"/>
</g>
<path id="Vector_95" d="M76.6503 53.1576C74.6517 53.4129 75.2064 56.3368 76.7057 56.4339C78.2051 56.531 78.4964 52.9217 76.6503 53.1576Z" fill="#FF6B6B"/>
<path id="Vector_96" d="M86.1365 52.3585C84.933 53.5374 86.7785 55.207 87.8272 54.5153C88.8759 53.8236 87.2486 51.2692 86.1365 52.3585Z" fill="#FF6B6B"/>
<g id="Group_25">
<path id="Vector_97" d="M79.8996 57.0038C78.7252 56.7617 78.6087 58.1702 78.1089 58.6557C77.6091 59.1418 76.2622 60.2105 78.4699 61.0439C80.6775 61.8767 83.4678 57.7395 79.9001 57.0038H79.8996Z" fill="#FF6B6B"/>
<path id="Vector_98" d="M79.9824 57.4346C79.02 57.2838 78.8303 58.4622 79.6351 58.8923C80.4405 59.3224 81.3984 57.6568 79.9824 57.4346Z" fill="#FF9E9E"/>
<path id="Vector_99" d="M79.177 59.253C78.4745 59.0525 78.1357 60.1692 78.8297 60.3223C79.5237 60.4748 80.4405 59.614 79.177 59.253Z" fill="#FF9E9E"/>
</g>
<g id="Group_26">
<path id="Vector_100" d="M84.0424 55.9996C84.0441 55.9847 84.0533 55.971 84.0687 55.9641C84.1241 55.9396 84.2909 55.9482 84.4377 56.0178C84.5536 56.0732 84.7044 56.1875 84.7667 56.4194C84.773 56.4434 84.7587 56.4691 84.7341 56.4754C84.7096 56.4816 84.6844 56.4674 84.6782 56.4428C84.637 56.2886 84.5468 56.1749 84.4103 56.1064C84.2715 56.0361 84.1315 56.0378 84.1058 56.0475C84.0824 56.0567 84.0556 56.0458 84.0459 56.023C84.0424 56.015 84.0413 56.007 84.0424 55.999V55.9996Z" fill="#FF9E9E"/>
<path id="Vector_101" d="M87.4487 57.4097C87.4504 57.3949 87.4595 57.3812 87.4749 57.3743C87.5303 57.3497 87.6971 57.3583 87.8439 57.428C87.9599 57.4834 88.1107 57.5976 88.1729 57.8295C88.1792 57.8535 88.1649 57.8792 88.1404 57.8855C88.1158 57.8918 88.0907 57.8775 88.0844 57.853C88.0433 57.6987 87.953 57.5851 87.8165 57.5165C87.6777 57.4463 87.5378 57.448 87.5121 57.4577C87.4887 57.4668 87.4618 57.456 87.4521 57.4331C87.4487 57.4251 87.4475 57.4171 87.4487 57.4092V57.4097Z" fill="#FF9E9E"/>
<path id="Vector_102" d="M86.9106 59.1075C86.9123 59.0926 86.9214 59.0789 86.9369 59.0721C86.9923 59.0475 87.1591 59.0561 87.3059 59.1258C87.4218 59.1812 87.5726 59.2954 87.6349 59.5273C87.6411 59.5513 87.6269 59.577 87.6023 59.5833C87.5777 59.5896 87.5526 59.5753 87.5463 59.5507C87.5052 59.3965 87.4149 59.2828 87.2784 59.2143C87.1396 59.144 86.9997 59.1457 86.974 59.1555C86.9506 59.1646 86.9237 59.1537 86.914 59.1309C86.9106 59.1229 86.9094 59.1149 86.9106 59.1069V59.1075Z" fill="#FF9E9E"/>
<path id="Vector_103" d="M83.7436 57.2422C83.7453 57.2274 83.7544 57.2137 83.7699 57.2068C83.8253 57.1823 83.9921 57.1908 84.1389 57.2605C84.2548 57.3159 84.4056 57.4302 84.4679 57.6621C84.4741 57.6861 84.4599 57.7118 84.4353 57.718C84.4107 57.7243 84.3856 57.71 84.3793 57.6855C84.3382 57.5313 84.248 57.4176 84.1114 57.3491C83.9726 57.2788 83.8327 57.2805 83.807 57.2902C83.7836 57.2994 83.7567 57.2885 83.747 57.2657C83.7436 57.2577 83.7425 57.2497 83.7436 57.2417V57.2422Z" fill="#FF9E9E"/>
<path id="Vector_104" d="M83.1108 58.4854C83.1125 58.4706 83.1216 58.4568 83.1371 58.45C83.1925 58.4254 83.3592 58.434 83.506 58.5037C83.622 58.5591 83.7728 58.6733 83.835 58.9052C83.8413 58.9292 83.8271 58.9549 83.8025 58.9612C83.7779 58.9675 83.7528 58.9532 83.7465 58.9286C83.7054 58.7744 83.6151 58.6608 83.4786 58.5922C83.3398 58.522 83.1999 58.5237 83.1742 58.5334C83.1508 58.5425 83.1239 58.5317 83.1142 58.5088C83.1108 58.5008 83.1096 58.4928 83.1108 58.4848V58.4854Z" fill="#FF9E9E"/>
<path id="Vector_105" d="M86.2988 55.7848C85.2044 55.5294 84.8765 56.3702 84.6612 57.4938C84.4459 58.6173 83.2989 59.5135 84.0517 59.9442C84.8046 60.3743 86.4422 59.8962 87.0276 58.6413C87.6131 57.3864 87.3744 56.0355 86.2988 55.7848Z" fill="#FF6B6B"/>
<path id="Vector_106" d="M86.0838 56.1313C85.2625 55.9034 85.331 56.7047 85.6537 57.1594C85.9765 57.6135 85.367 58.4743 86.0838 58.2829C86.8013 58.0916 87.1594 56.4306 86.0838 56.1313Z" fill="#FF9E9E"/>
<path id="Vector_107" d="M85.0917 57.5415C84.5953 57.5867 84.7569 58.3903 85.1157 58.247C85.4744 58.1036 85.4864 57.5061 85.0917 57.5415Z" fill="#FF9E9E"/>
<path id="Vector_108" d="M84.8049 58.8805C84.1789 58.9822 84.3628 59.8007 85.1157 59.5499C85.8685 59.2992 85.6891 58.7371 84.8049 58.8805Z" fill="#FF9E9E"/>
</g>
<g id="Group_27" style="mix-blend-mode:screen">
<path id="Vector_109" d="M82.5287 51.9576C82.4767 51.9319 82.4276 51.8982 82.3831 51.8565C81.9952 51.4898 81.5531 51.1825 81.0699 50.9443C80.7752 50.7992 80.6546 50.4422 80.7997 50.148C80.9448 49.8533 81.3018 49.7328 81.596 49.8779C82.186 50.1686 82.7258 50.5439 83.1999 50.9922C83.4386 51.2179 83.4489 51.5943 83.2233 51.833C83.0394 52.0272 82.7561 52.0707 82.5282 51.9581L82.5287 51.9576Z" fill="#6677CC"/>
</g>
<g id="Group_28" style="mix-blend-mode:screen">
<path id="Vector_110" d="M83.7836 58.9417C83.4889 58.7966 83.3683 58.4396 83.5134 58.1454C84.3434 56.4639 84.2263 54.435 83.2078 52.8511C83.0302 52.5746 83.1102 52.2068 83.3866 52.0291C83.5688 51.912 83.791 51.9069 83.9715 51.996C84.0652 52.0423 84.1474 52.1137 84.208 52.2073C85.4503 54.1403 85.5931 56.6169 84.5798 58.6709C84.4347 58.9657 84.0777 59.0862 83.7836 58.9411V58.9417Z" fill="#6677CC"/>
</g>
</g>
<g id="Group_29">
<g id="Group_30" style="mix-blend-mode:multiply">
<path id="Vector_111" d="M56.3947 26.4331H26.4968C25.2511 26.4331 24.2412 27.443 24.2412 28.6887V43.5574C24.2412 44.8032 25.2511 45.8131 26.4968 45.8131H56.3947C57.6405 45.8131 58.6503 44.8032 58.6503 43.5574V28.6887C58.6503 27.443 57.6405 26.4331 56.3947 26.4331Z" fill="#EBE2DF"/>
</g>
<path id="Vector_112" d="M58.5683 25.6421H26.0361C25.5178 25.6421 25.0977 26.0623 25.0977 26.5806V44.0836C25.0977 44.6019 25.5178 45.022 26.0361 45.022H58.5683C59.0866 45.022 59.5068 44.6019 59.5068 44.0836V26.5806C59.5068 26.0623 59.0866 25.6421 58.5683 25.6421Z" fill="#DBE6FF"/>
<path id="Vector_113" d="M57.0266 27.6196H27.9073C27.5206 27.6196 27.207 27.9332 27.207 28.3199V31.4677C27.207 31.8545 27.5206 32.168 27.9073 32.168H57.0266C57.4134 32.168 57.7269 31.8545 57.7269 31.4677V28.3199C57.7269 27.9332 57.4134 27.6196 57.0266 27.6196Z" fill="white"/>
<g id="Group_31">
<path id="Vector_114" d="M31.1806 30.54C30.6214 30.8678 29.9 30.6788 29.5721 30.1196C29.2443 29.5604 29.4333 28.839 29.9925 28.5111C30.5517 28.1832 31.2731 28.3723 31.601 28.9315C31.9289 29.4907 31.7404 30.2127 31.1806 30.54ZM30.0565 28.6202C29.5573 28.9126 29.3888 29.5564 29.6812 30.0556C29.9737 30.5548 30.6174 30.7233 31.1166 30.4309C31.6158 30.1384 31.7838 29.4947 31.4919 28.9955C31.1994 28.4962 30.5557 28.3277 30.0565 28.6202Z" fill="#334499"/>
<path id="Vector_115" d="M31.2027 30.4523L31.0938 30.5161L31.6934 31.5398L31.8023 31.476L31.2027 30.4523Z" fill="#334499"/>
</g>
<path id="Vector_116" d="M28.596 35.4639H43.8777C44.0628 35.4639 44.213 35.6141 44.213 35.7992V37.106C44.213 37.2911 44.0628 37.4413 43.8777 37.4413H28.596C28.411 37.4413 28.2607 37.2911 28.2607 37.106V35.7992C28.2607 35.6141 28.411 35.4639 28.596 35.4639Z" fill="white"/>
<path id="Vector_117" d="M56.5362 39.6826H28.6644C28.4792 39.6826 28.3291 39.8327 28.3291 40.0179V41.3248C28.3291 41.51 28.4792 41.6601 28.6644 41.6601H56.5362C56.7214 41.6601 56.8715 41.51 56.8715 41.3248V40.0179C56.8715 39.8327 56.7214 39.6826 56.5362 39.6826Z" fill="white"/>
</g>
<path id="Vector_118" d="M82.1579 25.5835H63.7792C63.3969 25.5835 63.0869 25.8934 63.0869 26.2758V28.9729C63.0869 29.3553 63.3969 29.6652 63.7792 29.6652H82.1579C82.5402 29.6652 82.8501 29.3553 82.8501 28.9729V26.2758C82.8501 25.8934 82.5402 25.5835 82.1579 25.5835Z" fill="#334499"/>
<path id="Vector_119" d="M58.152 49.9126H39.7733C39.391 49.9126 39.0811 50.2225 39.0811 50.6049V53.302C39.0811 53.6844 39.391 53.9943 39.7733 53.9943H58.152C58.5343 53.9943 58.8443 53.6844 58.8443 53.302V50.6049C58.8443 50.2225 58.5343 49.9126 58.152 49.9126Z" fill="#334499"/>
<path id="Vector_120" d="M89.4374 31.957H64.3746C63.7816 31.957 63.3008 32.4378 63.3008 33.0309V33.0314C63.3008 33.6245 63.7816 34.1053 64.3746 34.1053H89.4374C90.0304 34.1053 90.5112 33.6245 90.5112 33.0314V33.0309C90.5112 32.4378 90.0304 31.957 89.4374 31.957Z" fill="#C2D4FF"/>
<path id="Vector_121" d="M40.5309 58.8091H56.4991C57.092 58.8091 57.5729 59.2906 57.5729 59.8829C57.5729 60.4758 57.0914 60.9568 56.4991 60.9568H40.5309C39.938 60.9568 39.457 60.4753 39.457 59.8829C39.457 59.29 39.9385 58.8091 40.5309 58.8091Z" fill="#C2D4FF"/>
<path id="Vector_122" d="M40.5309 64.436H56.4991C57.092 64.436 57.5729 64.9176 57.5729 65.5099C57.5729 66.1028 57.0914 66.5837 56.4991 66.5837H40.5309C39.938 66.5837 39.457 66.1022 39.457 65.5099C39.457 64.917 39.9385 64.436 40.5309 64.436Z" fill="#C2D4FF"/>
<path id="Vector_123" d="M40.5309 70.0635H56.4991C57.092 70.0635 57.5729 70.545 57.5729 71.1373C57.5729 71.7302 57.0914 72.2112 56.4991 72.2112H40.5309C39.938 72.2112 39.457 71.7296 39.457 71.1373C39.457 70.5444 39.9385 70.0635 40.5309 70.0635Z" fill="#C2D4FF"/>
<path id="Vector_124" d="M89.4374 37.584H64.3746C63.7816 37.584 63.3008 38.0648 63.3008 38.6578V38.6584C63.3008 39.2515 63.7816 39.7322 64.3746 39.7322H89.4374C90.0304 39.7322 90.5112 39.2515 90.5112 38.6584V38.6578C90.5112 38.0648 90.0304 37.584 89.4374 37.584Z" fill="#C2D4FF"/>
</g>
</g>
</svg>
