<svg width="18" height="20" viewBox="0 0 18 20" fill="none" xmlns="http://www.w3.org/2000/svg">
<path fill-rule="evenodd" clip-rule="evenodd" d="M13.6479 7.05183C14.8139 8.21266 15.5341 9.81908 15.5341 11.5939C15.5341 14.0222 14.1827 16.136 12.1926 17.2228L11.7718 16.4925L11.6531 16.2845C11.6011 16.1731 11.4897 16.0964 11.3585 16.0964L7.76435 16.0965V16.099C7.65298 16.099 7.54652 16.1559 7.48468 16.2599L6.74212 17.547C5.53179 17.0618 4.50449 16.2202 3.78919 15.1509H7.31391C7.856 15.4281 8.47225 15.5841 9.12327 15.5841C11.3263 15.5841 13.1133 13.797 13.1133 11.5941C13.1133 10.7178 12.8312 9.90592 12.351 9.24751C12.5292 9.13613 12.6951 9.00491 12.8435 8.85647C13.3088 8.38865 13.6108 7.75506 13.6479 7.05202L13.6479 7.05183ZM1.94984 20V18.849H6.36303L5.69971 20H17.1723V18.849H12.7591L11.4919 16.656L11.3557 16.4208H7.76407L7.62793 16.656L5.69721 20H1.94984ZM9.56144 16.8614C9.19009 16.8614 8.85105 17.0125 8.60847 17.2573C8.36342 17.5024 8.21497 17.839 8.21497 18.2103C8.21497 18.5816 8.36604 18.9207 8.60847 19.1633C8.85352 19.4083 9.19012 19.5592 9.56144 19.5592C9.93276 19.5592 10.2694 19.4082 10.5144 19.1633C10.7595 18.9182 10.9104 18.5816 10.9104 18.2103C10.9104 17.839 10.7593 17.5024 10.5144 17.2573C10.2692 17.0123 9.93264 16.8614 9.56144 16.8614ZM10.0589 17.7128C9.93264 17.5865 9.75697 17.5073 9.56144 17.5073C9.36838 17.5073 9.19271 17.5865 9.06394 17.7128C8.93764 17.8391 8.85842 18.0148 8.85842 18.2103C8.85842 18.4034 8.93764 18.5791 9.06394 18.7078C9.19024 18.8341 9.36591 18.9134 9.56144 18.9134C9.7545 18.9134 9.93017 18.8341 10.0589 18.7078C10.1852 18.5815 10.2645 18.4059 10.2645 18.2103C10.2643 18.0148 10.1851 17.8391 10.0589 17.7128ZM13.3782 0L12.6727 0.705481L12.2692 0.304439L4.29183 8.28472L4.70026 8.69314L3.98986 9.39371L5.79923 11.2031L6.50963 10.5025L6.90558 10.8985L8.9477 8.85635C8.4502 8.35885 8.14069 7.66831 8.14069 6.90837C8.14069 6.14843 8.45004 5.45789 8.9477 4.96039C9.44521 4.46045 10.1357 4.15338 10.8957 4.15338C11.6556 4.15338 12.3462 4.46273 12.8437 4.96039L14.8858 2.91827L14.4847 2.51477L15.1902 1.80929L13.3782 0ZM10.8955 4.47282C9.55145 4.47282 8.46234 5.56197 8.46234 6.90596C8.46234 8.24999 9.55149 9.33909 10.8955 9.33909C12.2395 9.33909 13.3286 8.24994 13.3286 6.90596C13.3286 5.5644 12.237 4.47282 10.8955 4.47282ZM10.8955 5.70054C10.2297 5.70054 9.68758 6.2402 9.68758 6.90843C9.68758 7.57419 10.2272 8.11633 10.8955 8.11633C11.5612 8.11633 12.1034 7.57667 12.1034 6.90843C12.1009 6.24003 11.5614 5.70054 10.8955 5.70054ZM0.826172 13.1908V14.8294H9.51441V13.1908H0.826172Z" fill="#7C8283"/>
</svg>
