<svg width="14" height="20" viewBox="0 0 14 20" fill="none" xmlns="http://www.w3.org/2000/svg">
<path d="M7.01889 19.0195C3.42437 19.0195 0.5 16.0952 0.5 12.5006C0.5 7.38136 5.13463 1.74412 6.61622 0.19183C6.72124 0.0818008 6.86674 0.0195312 7.01889 0.0195312C7.17104 0.0195312 7.31655 0.0818008 7.42157 0.191867C8.87596 1.71565 13.5378 7.35776 13.5378 12.5007C13.5378 16.0952 10.6134 19.0195 7.01889 19.0195Z" fill="#EB6247"/>
<path d="M7.01889 0.0195312C7.17104 0.0195312 7.31655 0.0818008 7.42156 0.191867C8.87596 1.71565 13.5378 7.35776 13.5378 12.5007C13.5378 16.0952 10.6134 19.0195 7.01889 19.0195V0.0195312Z" fill="#E63C1A"/>
<path d="M10.651 12.4838C10.4533 12.4019 10.2356 12.4426 10.0818 12.5706L8.47359 11.9044L10.0818 11.2383C10.2357 11.3663 10.4534 11.4071 10.6511 11.3251C10.9352 11.2075 11.07 10.8819 10.9524 10.5979L10.7242 10.047C10.6066 9.76297 10.2809 9.62811 9.99689 9.74575C9.79913 9.82765 9.674 10.0104 9.65574 10.2098L8.0472 10.876L8.7135 9.26744C9.06106 9.23561 9.17454 8.93335 9.17744 8.92634C9.29508 8.64234 9.16022 8.3167 8.87622 8.19903L8.32548 7.97088C8.04141 7.85321 7.71581 7.98806 7.59817 8.2721C7.51627 8.46982 7.55698 8.6875 7.68497 8.84136L7.0189 10.4496L6.35286 8.84158C6.48089 8.68772 6.52163 8.47 6.43969 8.27228C6.32206 7.98825 5.99642 7.85339 5.71243 7.97103L5.16161 8.19918C4.87758 8.31681 4.74272 8.64245 4.86036 8.92648C4.94226 9.1242 5.12502 9.24937 5.32434 9.26763L5.99052 10.8759L4.38224 10.2098C4.36406 10.0104 4.23896 9.82765 4.04124 9.74567C3.75724 9.62796 3.43161 9.76271 3.31386 10.0467L3.08545 10.5976C2.9677 10.8816 3.10249 11.2072 3.38645 11.3249C3.39339 11.3278 3.68748 11.4615 3.95589 11.2382L5.56443 11.9045L3.95615 12.5706C3.80229 12.4426 3.58457 12.4019 3.38682 12.4838C3.10278 12.6014 2.96793 12.927 3.08556 13.211L3.31375 13.7619C3.43139 14.0459 3.75702 14.1808 4.04102 14.0631C4.23877 13.9812 4.36391 13.7985 4.38217 13.5991L5.99015 12.9331L5.32404 14.5413C5.12469 14.5596 4.94189 14.6848 4.86006 14.8826C4.7425 15.1667 4.8775 15.4922 5.16157 15.6098L5.71261 15.8378C5.99672 15.9553 6.32224 15.8203 6.43977 15.5363C6.5216 15.3385 6.48078 15.1208 6.35271 14.967L7.0189 13.3587L7.6852 14.9673C7.55717 15.1211 7.51642 15.3388 7.59832 15.5366C7.71596 15.8206 8.0416 15.9554 8.32559 15.8378L8.87644 15.6097C9.16048 15.492 9.29534 15.1664 9.1777 14.8824C9.0958 14.6846 8.91303 14.5595 8.71372 14.5412L8.04757 12.933L9.65574 13.5991C9.67404 13.7984 9.79917 13.9811 9.99689 14.063C10.281 14.1807 10.6066 14.0457 10.7242 13.7618L10.9523 13.211C11.0699 12.927 10.9351 12.6014 10.651 12.4838Z" fill="#ECF6F8"/>
<path d="M10.651 12.4838C10.4533 12.4019 10.2356 12.4426 10.0818 12.5706L8.47358 11.9044L10.0818 11.2383C10.2357 11.3663 10.4534 11.4071 10.6511 11.3251C10.9352 11.2075 11.07 10.8819 10.9524 10.5979L10.7242 10.047C10.6066 9.76297 10.2809 9.62811 9.99688 9.74575C9.79912 9.82765 9.67399 10.0104 9.65573 10.2098L8.04719 10.876L8.71349 9.26744C9.06106 9.23561 9.17454 8.93335 9.17743 8.92634C9.29507 8.64234 9.16021 8.3167 8.87621 8.19903L8.32547 7.97088C8.0414 7.85321 7.7158 7.98806 7.59817 8.2721C7.51627 8.46982 7.55698 8.6875 7.68497 8.84136L7.01889 10.4496V13.3587L7.68519 14.9673C7.55716 15.1211 7.51642 15.3388 7.59832 15.5366C7.71595 15.8206 8.04159 15.9554 8.32559 15.8378L8.87644 15.6097C9.16047 15.492 9.29533 15.1664 9.17769 14.8824C9.09579 14.6846 8.91303 14.5595 8.71371 14.5412L8.04756 12.933L9.65573 13.5991C9.67403 13.7984 9.79916 13.9811 9.99688 14.063C10.281 14.1807 10.6065 14.0457 10.7241 13.7618L10.9523 13.211C11.0699 12.927 10.935 12.6014 10.651 12.4838Z" fill="#ECF6F8"/>
<path d="M7.0189 14.2497C8.31418 14.2497 9.36421 13.1997 9.36421 11.9044C9.36421 10.6091 8.31418 9.55911 7.0189 9.55911C5.72362 9.55911 4.67358 10.6091 4.67358 11.9044C4.67358 13.1997 5.72362 14.2497 7.0189 14.2497Z" fill="#FCEBE8"/>
<path d="M7.01889 9.55911C8.31212 9.55911 9.3642 10.6112 9.3642 11.9044C9.3642 13.1976 8.31208 14.2497 7.01889 14.2497V9.55911Z" fill="#E5E6E7"/>
</svg>
