<svg width="19" height="20" viewBox="0 0 19 20" fill="none" xmlns="http://www.w3.org/2000/svg">
<path fill-rule="evenodd" clip-rule="evenodd" d="M4.24204 5.40194C4.24204 2.70966 6.60054 0.519531 9.49993 0.519531C12.3993 0.519531 14.758 2.70961 14.758 5.40195C14.758 5.70065 14.7216 6.00638 14.6439 6.35817C14.719 6.59977 14.7581 6.8699 14.7581 7.14592C14.7581 8.11756 14.2953 8.85552 13.6756 8.88894C12.9937 10.9892 11.3501 12.3771 9.50002 12.3771C7.64999 12.3771 6.00646 10.9891 5.32431 8.88894C4.70462 8.85543 4.24199 8.11756 4.24199 7.14592C4.24199 6.86916 4.28127 6.59844 4.35627 6.3563C4.27831 6.00529 4.24204 5.70009 4.24204 5.40194ZM5.03243 6.73058C5.00643 6.8621 4.99309 7.00236 4.99309 7.14592C4.99309 7.82108 5.27477 8.19217 5.3687 8.19217C5.47081 8.13355 5.60825 8.11475 5.7203 8.15726C5.83146 8.19906 5.92615 8.27998 5.95545 8.38811C6.48108 10.3572 7.90531 11.6796 9.50009 11.6796C11.0949 11.6796 12.5189 10.3572 13.0447 8.38811C13.074 8.27998 13.1567 8.19077 13.2678 8.14885C13.379 8.10705 13.506 8.11744 13.6073 8.17606C13.7366 8.19147 14.007 7.82039 14.007 7.14592C14.007 7.00736 13.9945 6.87187 13.9703 6.74435L13.2866 6.7963C13.276 6.797 13.2656 6.797 13.2558 6.797C13.1085 6.797 12.9734 6.71678 12.9134 6.58916C12.899 6.55983 12.6226 5.97683 12.5332 5.39087C10.9587 5.29596 9.3302 4.58038 8.52052 3.8382C8.22161 4.3216 7.57414 4.7045 6.27539 4.7045H6.21831C6.11381 4.92834 6.06652 5.63222 6.1123 6.32828C6.12651 6.36588 6.13481 6.4057 6.13481 6.4482C6.13481 6.64356 5.95689 6.79979 5.75179 6.79699C5.72852 6.79769 5.70979 6.79629 5.68791 6.79349C5.67573 6.79182 5.36674 6.74943 5.03243 6.73058Z" fill="#0885CA"/>
<path d="M15.2349 12.1162L13.303 11.4919C13.1618 11.4466 13.0048 11.4835 12.9026 11.5853C11.9554 12.5458 10.7469 13.0745 9.49991 13.0745C8.25296 13.0745 7.04442 12.5457 6.09724 11.586C5.99589 11.4842 5.83883 11.4472 5.69684 11.4926L3.76494 12.1169C1.80362 12.7494 0.486206 14.4702 0.486206 16.3987V18.1984C0.486206 18.3909 0.65446 18.5471 0.86182 18.5471C6.54738 19.8454 12.4526 19.8453 18.1382 18.5471C18.3456 18.5471 18.5138 18.3909 18.5138 18.1984V16.3987C18.5137 14.4702 17.1963 12.7496 15.2349 12.1162Z" fill="#0885CA"/>
</svg>
