<svg width="10" height="15" viewBox="0 0 10 15" fill="none" xmlns="http://www.w3.org/2000/svg">
<g clip-path="url(#clip0_4927_653)">
<path d="M7.55169 0.833344H2.78169C1.22919 0.833344 0.666687 1.50001 0.666687 3.37334V11.6267C0.666687 13.5 1.22919 14.1667 2.78169 14.1667H7.54606C9.10419 14.1667 9.66669 13.5 9.66669 11.6267V3.37334C9.66669 1.50001 9.10419 0.833344 7.55169 0.833344ZM5.16669 12.1856C4.62669 12.1856 4.18231 11.84 4.18231 11.2C4.18231 10.56 4.62669 10.2737 5.16669 10.2737C5.70669 10.2737 6.15106 10.56 6.15106 11.2C6.15106 11.84 5.70669 12.1856 5.16669 12.1856ZM6.29169 3.66668H4.04169C3.81106 3.66668 3.61981 3.44001 3.61981 3.16668C3.61981 2.89334 3.81106 2.66668 4.04169 2.66668H6.29169C6.52231 2.66668 6.71356 2.89334 6.71356 3.16668C6.71356 3.44001 6.52231 3.66668 6.29169 3.66668Z" fill="#8ECBD7"/>
</g>
<defs>
<clipPath id="clip0_4927_653">
<rect width="10" height="15" fill="white"/>
</clipPath>
</defs>
</svg>
