<svg width="66" height="44" viewBox="0 0 66 44" fill="none" xmlns="http://www.w3.org/2000/svg">
<g clip-path="url(#clip0_733_10020)">
<path fill-rule="evenodd" clip-rule="evenodd" d="M16.1478 8.2184C16.7072 8.07866 17.081 7.58098 17.081 7.03427C17.081 6.93498 17.0686 6.83446 17.0439 6.73395L15.6677 1.32689C15.5018 0.672305 14.8298 0.275142 14.1689 0.439401C13.508 0.604885 13.1071 1.26805 13.2729 1.92386L14.6491 7.33092C14.815 7.98673 15.487 8.38389 16.1478 8.2184ZM11.3454 10.4341C11.3454 10.7406 11.2303 11.047 10.9976 11.2836C10.5236 11.769 9.74145 11.7813 9.25137 11.3118L5.20813 7.43212C4.71804 6.96263 4.70567 6.18915 5.17967 5.70373C5.65367 5.2183 6.43583 5.20605 6.92592 5.67553L10.9692 9.554C11.2204 9.79426 11.3454 10.1142 11.3454 10.4341ZM19.5928 11.0325C24.4566 11.0362 28.3958 14.9441 28.3921 19.7615C28.3884 24.579 24.4429 28.4807 19.5792 28.4771C14.7154 28.4734 10.7761 24.5655 10.7798 19.748C10.7836 14.9306 14.729 11.0288 19.5928 11.0325ZM17.493 31.388C17.493 31.4934 17.4794 31.5988 17.4509 31.7054L15.9893 37.0904C15.8124 37.7426 15.1354 38.1287 14.477 37.9534C13.8174 37.7781 13.4275 37.1076 13.6045 36.4555L15.0661 31.0705C15.2431 30.4183 15.92 30.0322 16.5784 30.2063C17.1304 30.3534 17.493 30.8486 17.493 31.388ZM10.9773 30.0746C11.2422 29.8343 11.3758 29.5058 11.3758 29.1761C11.3758 28.8794 11.2682 28.5815 11.0491 28.3474C10.5875 27.8497 9.80656 27.8191 9.3041 28.2763L5.16433 32.0543C4.6631 32.5127 4.63093 33.2862 5.09379 33.7827C5.55541 34.2791 6.33634 34.311 6.83756 33.8538L10.9773 30.0746ZM8.03009 23.2394C8.03009 23.7836 7.66005 24.2789 7.10437 24.4211L1.65398 25.8173C0.994343 25.9864 0.319852 25.5929 0.149063 24.9396C-0.0204879 24.2862 0.375544 23.6182 1.03642 23.449L6.48681 22.054C7.14645 21.8849 7.8197 22.2771 7.99049 22.9317C8.01772 23.0347 8.03009 23.1376 8.03009 23.2394ZM8.16381 16.6939C8.19104 16.5909 8.20342 16.4891 8.20342 16.3886C8.20342 15.8431 7.83338 15.3467 7.27646 15.2045L1.82483 13.8144C1.16396 13.6465 0.490704 14.04 0.321153 14.6933C0.151602 15.3467 0.548871 16.0148 1.20851 16.1827L6.66137 17.5728C7.32101 17.7407 7.99426 17.3472 8.16381 16.6939ZM25.3461 2.02561C25.3461 2.12858 25.3325 2.23278 25.3053 2.33697L23.8746 7.72932C23.7014 8.38268 23.0256 8.77248 22.366 8.60087C21.7076 8.42926 21.3128 7.75996 21.4861 7.10783L22.9167 1.71426C23.09 1.06213 23.7657 0.671092 24.4254 0.842705C24.9798 0.987351 25.3461 1.48258 25.3461 2.02561ZM33.8743 7.60337C34.1552 7.36189 34.2988 7.02234 34.2988 6.68156C34.2988 6.39717 34.1998 6.11033 33.9956 5.87865C33.5475 5.36872 32.7679 5.31478 32.2543 5.75852L28.0068 9.41757C27.492 9.86132 27.4375 10.6336 27.8855 11.1435C28.3323 11.6522 29.1132 11.7062 29.6268 11.2636L33.8743 7.60337ZM38.6762 14.8429C38.6762 15.3798 38.3161 15.8713 37.7678 16.0209L32.3397 17.4955C31.6813 17.6745 31.0019 17.292 30.8224 16.6399C30.6418 15.9878 31.0279 15.316 31.6863 15.1371L37.1144 13.6624C37.7728 13.4834 38.451 13.8659 38.6317 14.518C38.6614 14.6259 38.6762 14.735 38.6762 14.8429ZM38.5432 24.6816C38.5704 24.5786 38.5828 24.4769 38.5828 24.3764C38.5828 23.8309 38.2127 23.3344 37.6558 23.1922L32.2042 21.8022C31.5433 21.6342 30.87 22.0277 30.7005 22.6811C30.5297 23.3356 30.9282 24.0025 31.5878 24.1704L37.0407 25.5605C37.7003 25.7284 38.3736 25.3349 38.5432 24.6816ZM33.9725 32.7724C33.9725 33.0899 33.8488 33.4062 33.6012 33.6452C33.1136 34.1184 32.3315 34.1098 31.855 33.6268L27.9194 29.6392C27.443 29.1563 27.4516 28.3828 27.9392 27.9109C28.4268 27.4377 29.209 27.4463 29.6855 27.9292L33.621 31.9168C33.8562 32.1546 33.9725 32.4635 33.9725 32.7724ZM24.5596 38.461C25.1104 38.3139 25.473 37.8212 25.473 37.2818C25.473 37.1764 25.4594 37.0685 25.4297 36.9619L23.9656 31.5781C23.7886 30.926 23.1104 30.5398 22.452 30.7151C21.7936 30.8916 21.4037 31.5622 21.5807 32.2143L23.046 37.5981C23.223 38.2502 23.9012 38.6363 24.5596 38.461Z" fill="#F9C900"/>
<mask id="path-2-inside-1_733_10020" fill="white">
<path fill-rule="evenodd" clip-rule="evenodd" d="M57.5796 21.3653C61.1439 21.3653 64.0436 24.2754 64.0436 27.8548C64.0436 31.4317 61.1439 34.3418 57.5796 34.3418H29.475C25.0023 34.3418 21.3625 30.6876 21.3625 26.1963C21.3625 21.7049 25.0023 18.0507 29.475 18.0507C30.3079 18.0507 31.1359 18.1794 31.9329 18.4332L32.4539 18.5987L32.6371 18.0826C34.3549 13.2345 38.9451 9.97754 44.0589 9.97754C50.3112 9.97754 55.5005 14.6798 56.1304 20.9167L56.1886 21.494L56.7628 21.4229C57.0796 21.3837 57.3395 21.3653 57.5796 21.3653"/>
</mask>
<path fill-rule="evenodd" clip-rule="evenodd" d="M57.5796 21.3653C61.1439 21.3653 64.0436 24.2754 64.0436 27.8548C64.0436 31.4317 61.1439 34.3418 57.5796 34.3418H29.475C25.0023 34.3418 21.3625 30.6876 21.3625 26.1963C21.3625 21.7049 25.0023 18.0507 29.475 18.0507C30.3079 18.0507 31.1359 18.1794 31.9329 18.4332L32.4539 18.5987L32.6371 18.0826C34.3549 13.2345 38.9451 9.97754 44.0589 9.97754C50.3112 9.97754 55.5005 14.6798 56.1304 20.9167L56.1886 21.494L56.7628 21.4229C57.0796 21.3837 57.3395 21.3653 57.5796 21.3653" fill="#D9E9F5"/>
<path d="M31.9329 18.4332L31.3261 20.3389L31.3275 20.3394L31.9329 18.4332ZM32.4539 18.5987L31.8485 20.5048L33.6918 21.0903L34.3387 19.2676L32.4539 18.5987ZM32.6371 18.0826L34.5219 18.7516L34.5222 18.7506L32.6371 18.0826ZM56.1304 20.9167L58.1203 20.7162L58.1203 20.7157L56.1304 20.9167ZM56.1886 21.494L54.1986 21.6945L54.4037 23.7303L56.4343 23.4789L56.1886 21.494ZM56.7628 21.4229L56.5171 19.4381L56.5171 19.4381L56.7628 21.4229ZM57.5796 23.3653C60.0322 23.3653 62.0436 25.3728 62.0436 27.8548H66.0436C66.0436 23.1781 62.2557 19.3653 57.5796 19.3653V23.3653ZM62.0436 27.8548C62.0436 30.3339 60.0326 32.3418 57.5796 32.3418V36.3418C62.2552 36.3418 66.0436 32.5295 66.0436 27.8548H62.0436ZM57.5796 32.3418H29.475V36.3418H57.5796V32.3418ZM29.475 32.3418C26.1145 32.3418 23.3625 29.5907 23.3625 26.1963H19.3625C19.3625 31.7846 23.8902 36.3418 29.475 36.3418V32.3418ZM23.3625 26.1963C23.3625 22.8019 26.1145 20.0507 29.475 20.0507V16.0507C23.8902 16.0507 19.3625 20.6079 19.3625 26.1963H23.3625ZM29.475 20.0507C30.1014 20.0507 30.7248 20.1475 31.3261 20.3389L32.5396 16.5274C31.547 16.2114 30.5144 16.0507 29.475 16.0507V20.0507ZM31.3275 20.3394L31.8485 20.5048L33.0593 16.6925L32.5383 16.527L31.3275 20.3394ZM34.3387 19.2676L34.5219 18.7516L30.7523 17.4136L30.5691 17.9297L34.3387 19.2676ZM34.5222 18.7506C35.9593 14.6947 39.7987 11.9775 44.0589 11.9775V7.97754C38.0915 7.97754 32.7504 11.7743 30.7519 17.4147L34.5222 18.7506ZM44.0589 11.9775C49.2803 11.9775 53.6134 15.8982 54.1405 21.1177L58.1203 20.7157C57.3876 13.4613 51.3421 7.97754 44.0589 7.97754V11.9775ZM54.1405 21.1172L54.1986 21.6945L58.1785 21.2936L58.1203 20.7162L54.1405 21.1172ZM56.4343 23.4789L57.0086 23.4078L56.5171 19.4381L55.9428 19.5092L56.4343 23.4789ZM57.0086 23.4078C57.2691 23.3755 57.4437 23.3653 57.5796 23.3653V19.3653C57.2354 19.3653 56.8902 19.3919 56.5171 19.4381L57.0086 23.4078Z" fill="#43A9BC" mask="url(#path-2-inside-1_733_10020)"/>
<mask id="path-4-inside-2_733_10020" fill="white">
<path fill-rule="evenodd" clip-rule="evenodd" d="M11.5167 28.1157C7.57988 28.1157 4.37573 31.32 4.37573 35.2598C4.37573 39.1971 7.57988 42.4026 11.5167 42.4026H42.5643C47.5073 42.4026 51.527 38.3795 51.527 33.4345C51.527 28.4896 47.5073 24.4665 42.5643 24.4665C41.6448 24.4665 40.7302 24.6087 39.849 24.8869L39.2748 25.0696L39.0718 24.5008C37.1746 19.1636 32.1029 15.5781 26.4533 15.5781C19.5462 15.5781 13.8137 20.756 13.1181 27.6217L13.0538 28.2579L12.4201 28.1795C12.0686 28.1353 11.7815 28.1157 11.5167 28.1157"/>
</mask>
<path fill-rule="evenodd" clip-rule="evenodd" d="M11.5167 28.1157C7.57988 28.1157 4.37573 31.32 4.37573 35.2598C4.37573 39.1971 7.57988 42.4026 11.5167 42.4026H42.5643C47.5073 42.4026 51.527 38.3795 51.527 33.4345C51.527 28.4896 47.5073 24.4665 42.5643 24.4665C41.6448 24.4665 40.7302 24.6087 39.849 24.8869L39.2748 25.0696L39.0718 24.5008C37.1746 19.1636 32.1029 15.5781 26.4533 15.5781C19.5462 15.5781 13.8137 20.756 13.1181 27.6217L13.0538 28.2579L12.4201 28.1795C12.0686 28.1353 11.7815 28.1157 11.5167 28.1157" fill="#EDF3F9"/>
<path d="M39.849 24.8869L39.2468 22.9798L39.2428 22.981L39.849 24.8869ZM39.2748 25.0696L37.3911 25.7418L38.0403 27.561L39.881 26.9755L39.2748 25.0696ZM39.0718 24.5008L37.1873 25.1707L37.1882 25.173L39.0718 24.5008ZM13.1181 27.6217L11.1283 27.4202L11.1283 27.4204L13.1181 27.6217ZM13.0538 28.2579L12.808 30.2428L14.8378 30.4941L15.0436 28.4592L13.0538 28.2579ZM12.4201 28.1795L12.171 30.1639L12.1744 30.1643L12.4201 28.1795ZM11.5167 26.1157C6.47472 26.1157 2.37573 30.216 2.37573 35.2598H6.37573C6.37573 32.424 8.68503 30.1157 11.5167 30.1157V26.1157ZM2.37573 35.2598C2.37573 40.3011 6.47472 44.4026 11.5167 44.4026V40.4026C8.68503 40.4026 6.37573 38.0931 6.37573 35.2598H2.37573ZM11.5167 44.4026H42.5643V40.4026H11.5167V44.4026ZM42.5643 44.4026C48.6131 44.4026 53.527 39.4828 53.527 33.4345H49.527C49.527 37.2762 46.4015 40.4026 42.5643 40.4026V44.4026ZM53.527 33.4345C53.527 27.3863 48.6131 22.4665 42.5643 22.4665V26.4665C46.4015 26.4665 49.527 29.5929 49.527 33.4345H53.527ZM42.5643 22.4665C41.4382 22.4665 40.3206 22.6407 39.2468 22.9798L40.4513 26.7941C41.1398 26.5767 41.8514 26.4665 42.5643 26.4665V22.4665ZM39.2428 22.981L38.6686 23.1637L39.881 26.9755L40.4552 26.7929L39.2428 22.981ZM41.1584 24.3974L40.9555 23.8286L37.1882 25.173L37.3911 25.7418L41.1584 24.3974ZM40.9563 23.8309C38.7765 17.6989 32.9519 13.5781 26.4533 13.5781V17.5781C31.2539 17.5781 35.5727 20.6284 37.1873 25.1707L40.9563 23.8309ZM26.4533 13.5781C18.521 13.5781 11.9274 19.5318 11.1283 27.4202L15.1079 27.8233C15.6999 21.9801 20.5715 17.5781 26.4533 17.5781V13.5781ZM11.1283 27.4204L11.0639 28.0566L15.0436 28.4592L15.108 27.823L11.1283 27.4204ZM13.2995 26.2731L12.6659 26.1946L12.1744 30.1643L12.808 30.2428L13.2995 26.2731ZM12.6693 26.1951C12.2561 26.1432 11.8835 26.1157 11.5167 26.1157V30.1157C11.6795 30.1157 11.8812 30.1275 12.171 30.1639L12.6693 26.1951Z" fill="#368796" mask="url(#path-4-inside-2_733_10020)"/>
</g>
<defs>
<clipPath id="clip0_733_10020">
<rect width="65.0949" height="42.7628" fill="white" transform="translate(0.109863 0.402344)"/>
</clipPath>
</defs>
</svg>
