<svg width="28" height="19" viewBox="0 0 28 19" fill="none" xmlns="http://www.w3.org/2000/svg">
<g clip-path="url(#clip0_14620_10036)">
<mask id="mask0_14620_10036" style="mask-type:luminance" maskUnits="userSpaceOnUse" x="0" y="0" width="28" height="19">
<path d="M27.6609 0.392517H0.0449219V18.5343H27.6609V0.392517Z" fill="white"/>
</mask>
<g mask="url(#mask0_14620_10036)">
<path fill-rule="evenodd" clip-rule="evenodd" d="M6.8489 3.70842C7.08622 3.64914 7.2448 3.438 7.2448 3.20606C7.2448 3.16394 7.23954 3.12129 7.22906 3.07865L6.64522 0.784749C6.57483 0.507046 6.28974 0.338553 6.00936 0.408238C5.72898 0.478444 5.5589 0.759786 5.62924 1.03801L6.21308 3.33191C6.28346 3.61014 6.56856 3.77863 6.8489 3.70842ZM4.81151 4.64841C4.81151 4.77844 4.76268 4.90843 4.66396 5.00881C4.46287 5.21473 4.13105 5.21995 3.92314 5.02077L2.20782 3.37485C1.99991 3.17567 1.99466 2.84753 2.19575 2.64159C2.39684 2.43565 2.72867 2.43045 2.93658 2.62963L4.65191 4.27504C4.75848 4.37697 4.81151 4.5127 4.81151 4.64841ZM8.31041 4.90228C10.3738 4.90385 12.045 6.56175 12.0434 8.60549C12.0419 10.6493 10.368 12.3045 8.30464 12.303C6.24121 12.3014 4.56999 10.6436 4.57156 8.59976C4.57317 6.55602 6.24698 4.90071 8.31041 4.90228ZM7.41959 13.5379C7.41959 13.5827 7.41382 13.6274 7.40173 13.6726L6.78165 15.9571C6.7066 16.2338 6.41939 16.3976 6.14007 16.3233C5.86024 16.2489 5.69483 15.9644 5.76992 15.6878L6.38999 13.4032C6.46508 13.1266 6.75225 12.9628 7.03157 13.0366C7.26576 13.099 7.41959 13.3091 7.41959 13.5379ZM4.65535 12.9807C4.76773 12.8788 4.82441 12.7394 4.82441 12.5996C4.82441 12.4737 4.77876 12.3473 4.68581 12.248C4.48998 12.0368 4.15867 12.0239 3.94551 12.2178L2.18924 13.8206C1.9766 14.0151 1.96295 14.3432 2.15932 14.5539C2.35515 14.7645 2.68646 14.778 2.8991 14.584L4.65535 12.9807ZM3.40502 10.081C3.40502 10.3118 3.24803 10.522 3.01229 10.5823L0.700002 11.1746C0.420156 11.2464 0.134008 11.0794 0.0615521 10.8023C-0.0103786 10.5251 0.157635 10.2417 0.438007 10.1699L2.75029 9.57807C3.03014 9.50633 3.31576 9.67272 3.38822 9.95043C3.39977 9.99412 3.40502 10.0378 3.40502 10.081ZM3.46175 7.30409C3.4733 7.26039 3.47855 7.2172 3.47855 7.17456C3.47855 6.94314 3.32157 6.73255 3.0853 6.67222L0.772484 6.08248C0.492114 6.01125 0.206491 6.17819 0.13456 6.45535C0.0626292 6.73255 0.231168 7.01598 0.511014 7.08721L2.82435 7.67695C3.1042 7.74818 3.38982 7.58124 3.46175 7.30409ZM10.7512 1.08118C10.7512 1.12486 10.7454 1.16907 10.7339 1.21327L10.1269 3.50093C10.0535 3.77811 9.76675 3.94348 9.48692 3.87068C9.2076 3.79788 9.04011 3.51393 9.11363 3.23727L9.72055 0.949088C9.79407 0.672426 10.0807 0.506531 10.3606 0.579337C10.5958 0.640702 10.7512 0.850799 10.7512 1.08118ZM14.3692 3.4475C14.4884 3.34505 14.5493 3.201 14.5493 3.05643C14.5493 2.93578 14.5073 2.81409 14.4207 2.7158C14.2306 2.49946 13.8998 2.47658 13.682 2.66483L11.88 4.21716C11.6616 4.40542 11.6385 4.73305 11.8285 4.94937C12.0181 5.16518 12.3494 5.18809 12.5673 5.00032L14.3692 3.4475ZM16.4064 6.51881C16.4064 6.74659 16.2536 6.9551 16.021 7.01857L13.7182 7.64416C13.4389 7.7201 13.1506 7.55783 13.0745 7.28118C12.9979 7.00453 13.1617 6.71952 13.441 6.64363L15.7438 6.018C16.0231 5.94206 16.3109 6.10433 16.3875 6.38098C16.4001 6.42675 16.4064 6.47304 16.4064 6.51881ZM16.35 10.6928C16.3615 10.6491 16.3668 10.606 16.3668 10.5633C16.3668 10.3319 16.2098 10.1213 15.9735 10.0609L13.6607 9.47124C13.3803 9.39997 13.0947 9.56691 13.0228 9.84411C12.9503 10.1218 13.1194 10.4047 13.3992 10.4759L15.7125 11.0657C15.9924 11.1369 16.278 10.97 16.35 10.6928ZM14.4109 14.1253C14.4109 14.26 14.3584 14.3942 14.2534 14.4955C14.0465 14.6963 13.7147 14.6926 13.5126 14.4877L11.8429 12.796C11.6408 12.5912 11.6444 12.263 11.8513 12.0628C12.0582 11.8621 12.39 11.8657 12.5922 12.0706L14.2618 13.7623C14.3615 13.8632 14.4109 13.9942 14.4109 14.1253ZM10.4175 16.5386C10.6512 16.4762 10.805 16.2672 10.805 16.0383C10.805 15.9936 10.7993 15.9479 10.7867 15.9026L10.1655 13.6186C10.0904 13.3419 9.80273 13.1781 9.5234 13.2525C9.24408 13.3274 9.07867 13.6118 9.15376 13.8885L9.7754 16.1725C9.8505 16.4492 10.1382 16.613 10.4175 16.5386Z" fill="#F9A200"/>
<path fill-rule="evenodd" clip-rule="evenodd" d="M24.4273 9.28588C25.9395 9.28588 27.1696 10.5205 27.1696 12.039C27.1696 13.5565 25.9395 14.7911 24.4273 14.7911H12.5042C10.6067 14.7911 9.0625 13.2408 9.0625 11.3354C9.0625 9.42996 10.6067 7.87969 12.5042 7.87969C12.8575 7.87969 13.2088 7.93429 13.5469 8.04196L13.7679 8.11217L13.8457 7.89322C14.5744 5.83645 16.5218 4.45471 18.6913 4.45471C21.3438 4.45471 23.5453 6.44961 23.8125 9.09557L23.8372 9.34048L24.0808 9.31032C24.2152 9.29369 24.3255 9.28588 24.4273 9.28588Z" fill="#D9E9F5"/>
<mask id="mask1_14620_10036" style="mask-type:luminance" maskUnits="userSpaceOnUse" x="9" y="4" width="19" height="11">
<path fill-rule="evenodd" clip-rule="evenodd" d="M24.422 9.28594C25.9341 9.28594 27.1643 10.5205 27.1643 12.0391C27.1643 13.5565 25.9341 14.7911 24.422 14.7911H12.4988C10.6013 14.7911 9.05713 13.2409 9.05713 11.3355C9.05713 9.43002 10.6013 7.87975 12.4988 7.87975C12.8521 7.87975 13.2034 7.93435 13.5415 8.04202L13.7626 8.11223L13.8403 7.89328C14.5691 5.83651 16.5164 4.45477 18.6859 4.45477C21.3384 4.45477 23.5399 6.44967 23.8071 9.09563L23.8318 9.34054L24.0754 9.31038C24.2098 9.29375 24.3201 9.28594 24.422 9.28594Z" fill="white"/>
</mask>
<g mask="url(#mask1_14620_10036)">
<path d="M13.5433 8.042L13.2859 8.85048L13.2865 8.85069L13.5433 8.042ZM13.7644 8.11221L13.5075 8.92086L14.2895 9.16925L14.564 8.39598L13.7644 8.11221ZM13.8421 7.89326L14.6417 8.17708L14.6418 8.17665L13.8421 7.89326ZM23.8336 9.34052L22.9894 9.42558L23.0764 10.2893L23.9379 10.1826L23.8336 9.34052ZM24.4238 10.1344C25.4643 10.1344 26.3176 10.9861 26.3176 12.039H28.0146C28.0146 10.055 26.4076 8.43743 24.4238 8.43743V10.1344ZM26.3176 12.039C26.3176 13.0908 25.4644 13.9426 24.4238 13.9426V15.6396C26.4074 15.6396 28.0146 14.0222 28.0146 12.039H26.3176ZM24.4238 13.9426H12.5006V15.6396H24.4238V13.9426ZM12.5006 13.9426C11.0749 13.9426 9.90742 12.7755 9.90742 11.3354H8.21045C8.21045 13.7062 10.1313 15.6396 12.5006 15.6396V13.9426ZM9.90742 11.3354C9.90742 9.89539 11.0749 8.72821 12.5006 8.72821V7.03124C10.1313 7.03124 8.21045 8.9646 8.21045 11.3354H9.90742ZM12.5006 8.72821C12.7663 8.72821 13.0308 8.76928 13.2859 8.85048L13.8007 7.23348C13.3796 7.09941 12.9416 7.03124 12.5006 7.03124V8.72821ZM13.2865 8.85069L13.5075 8.92086L14.0212 7.30352L13.8002 7.23331L13.2865 8.85069ZM14.564 8.39598L14.6417 8.17708L13.0425 7.60944L12.9648 7.82839L14.564 8.39598ZM14.6418 8.17665C15.2515 6.45597 16.8804 5.30321 18.6877 5.30321V3.60626C16.1561 3.60626 13.8902 5.21701 13.0423 7.60991L14.6418 8.17665ZM18.6877 5.30321C20.9028 5.30321 22.7411 6.96654 22.9648 9.18088L24.6532 9.01054C24.3423 5.93292 21.7776 3.60626 18.6877 3.60626V5.30321ZM22.9648 9.18088L22.9894 9.42558L24.6778 9.2555L24.6532 9.01054L22.9648 9.18088ZM23.9379 10.1826L24.1815 10.1524L23.973 8.46832L23.7294 8.49848L23.9379 10.1826ZM24.1815 10.1524C24.292 10.1387 24.3661 10.1344 24.4238 10.1344V8.43743C24.2777 8.43743 24.1313 8.44872 23.973 8.46832L24.1815 10.1524Z" fill="#43A9BC"/>
</g>
<path fill-rule="evenodd" clip-rule="evenodd" d="M4.88497 12.1497C3.2148 12.1497 1.85547 13.5091 1.85547 15.1806C1.85547 16.8509 3.2148 18.2108 4.88497 18.2108H18.0567C20.1537 18.2108 21.859 16.5041 21.859 14.4062C21.859 12.3084 20.1537 10.6016 18.0567 10.6016C17.6666 10.6016 17.2786 10.6619 16.9047 10.7799L16.6611 10.8574L16.575 10.6161C15.7701 8.35187 13.6185 6.83075 11.2217 6.83075C8.29143 6.83075 5.85946 9.02743 5.56435 11.9402L5.53707 12.2101L5.26823 12.1768C5.11911 12.158 4.99731 12.1497 4.88497 12.1497Z" fill="#EDF3F9"/>
<mask id="mask2_14620_10036" style="mask-type:luminance" maskUnits="userSpaceOnUse" x="1" y="6" width="21" height="13">
<path fill-rule="evenodd" clip-rule="evenodd" d="M4.88058 12.1496C3.21041 12.1496 1.85107 13.509 1.85107 15.1804C1.85107 16.8508 3.21041 18.2107 4.88058 18.2107H18.0523C20.1493 18.2107 21.8546 16.5039 21.8546 14.4061C21.8546 12.3082 20.1493 10.6015 18.0523 10.6015C17.6622 10.6015 17.2742 10.6618 16.9003 10.7798L16.6567 10.8573L16.5706 10.616C15.7657 8.35175 13.6141 6.83063 11.2173 6.83063C8.28703 6.83063 5.85506 9.02731 5.55996 11.94L5.53268 12.2099L5.26384 12.1767C5.11472 12.1579 4.99292 12.1496 4.88058 12.1496Z" fill="white"/>
</mask>
<g mask="url(#mask2_14620_10036)">
<path d="M16.9017 10.7799L16.6462 9.97078L16.6445 9.97129L16.9017 10.7799ZM16.6581 10.8574L15.8589 11.1425L16.1343 11.9143L16.9152 11.6659L16.6581 10.8574ZM16.5719 10.6161L15.7725 10.9003L15.7728 10.9012L16.5719 10.6161ZM5.534 12.21L5.42972 13.0521L6.29084 13.1587L6.37815 12.2954L5.534 12.21ZM5.26515 12.1767L5.15947 13.0186L5.16092 13.0187L5.26515 12.1767ZM4.88189 11.3012C2.74287 11.3012 1.00391 13.0407 1.00391 15.1805H2.70088C2.70088 13.9774 3.68058 12.9981 4.88189 12.9981V11.3012ZM1.00391 15.1805C1.00391 17.3192 2.74287 19.0592 4.88189 19.0592V17.3623C3.68058 17.3623 2.70088 16.3825 2.70088 15.1805H1.00391ZM4.88189 19.0592H18.0536V17.3623H4.88189V19.0592ZM18.0536 19.0592C20.6198 19.0592 22.7044 16.9721 22.7044 14.4061H21.0075C21.0075 16.0359 19.6815 17.3623 18.0536 17.3623V19.0592ZM22.7044 14.4061C22.7044 11.8402 20.6198 9.75301 18.0536 9.75301V11.45C19.6815 11.45 21.0075 12.7763 21.0075 14.4061H22.7044ZM18.0536 9.75301C17.5759 9.75301 17.1017 9.82692 16.6462 9.97078L17.1572 11.589C17.4493 11.4967 17.7512 11.45 18.0536 11.45V9.75301ZM16.6445 9.97129L16.4009 10.0488L16.9152 11.6659L17.1588 11.5885L16.6445 9.97129ZM17.4572 10.5722L17.3711 10.3309L15.7728 10.9012L15.8589 11.1425L17.4572 10.5722ZM17.3714 10.3319C16.4467 7.7304 13.9756 5.98218 11.2186 5.98218V7.67915C13.2553 7.67915 15.0875 8.97321 15.7725 10.9003L17.3714 10.3319ZM11.2186 5.98218C7.85341 5.98218 5.05613 8.50799 4.71712 11.8546L6.40543 12.0256C6.65658 9.54666 8.72332 7.67915 11.2186 7.67915V5.98218ZM4.71712 11.8546L4.6898 12.1246L6.37815 12.2954L6.40543 12.0256L4.71712 11.8546ZM5.63823 11.3679L5.36943 11.3346L5.16092 13.0187L5.42972 13.0521L5.63823 11.3679ZM5.37087 11.3348C5.19558 11.3128 5.03751 11.3012 4.88189 11.3012V12.9981C4.95096 12.9981 5.03653 13.0031 5.15947 13.0186L5.37087 11.3348Z" fill="#24859D"/>
</g>
</g>
</g>
<defs>
<clipPath id="clip0_14620_10036">
<rect width="28" height="18.6667" fill="white" transform="translate(0 0.221619)"/>
</clipPath>
</defs>
</svg>
