<svg width="39" height="38" viewBox="0 0 39 38" fill="none" xmlns="http://www.w3.org/2000/svg">
<g id="img">
<circle id="Ellipse 21" cx="19.6289" cy="19" r="19" fill="#FAE0BA"/>
<path id="allergy" fill-rule="evenodd" clip-rule="evenodd" d="M28.6289 19C28.6289 23.9706 24.5995 28 19.6289 28C14.6583 28 10.6289 23.9706 10.6289 19C10.6289 14.0294 14.6583 10 19.6289 10C24.5995 10 28.6289 14.0294 28.6289 19ZM25.2646 24.9314C23.7973 26.326 21.8131 27.1818 19.6289 27.1818C15.1102 27.1818 11.4471 23.5187 11.4471 19C11.4471 16.8682 12.2624 14.9268 13.5982 13.4707C13.6167 13.5349 13.6513 13.5955 13.702 13.6461L17.3277 17.2719L15.7876 18.8234C15.6818 18.93 15.6222 19.0739 15.6216 19.224V22.1943L14.0706 23.7452C14.017 23.7984 13.9744 23.8617 13.9454 23.9315C13.9163 24.0012 13.9014 24.076 13.9014 24.1516C13.9014 24.2271 13.9163 24.3019 13.9454 24.3717C13.9744 24.4414 14.017 24.5047 14.0706 24.5579C14.1238 24.6116 14.1871 24.6541 14.2569 24.6832C14.3266 24.7122 14.4014 24.7272 14.477 24.7272C14.5525 24.7272 14.6273 24.7122 14.6971 24.6832C14.7668 24.6541 14.8301 24.6116 14.8833 24.5579L16.4343 23.007H19.4045C19.5547 23.0063 19.6985 22.9467 19.8051 22.841L21.3566 21.3008L24.8789 24.823C24.9835 24.9276 25.1306 24.9637 25.2646 24.9314ZM25.5658 24.6299C25.5981 24.496 25.5619 24.349 25.4574 24.2445L21.9373 20.7244L24.5152 18.1653C24.7817 17.8994 24.9931 17.5837 25.1374 17.236C25.2816 16.8884 25.3559 16.5157 25.3559 16.1393C25.3559 15.7629 25.2816 15.3902 25.1374 15.0426C24.9931 14.6949 24.7817 14.3791 24.5152 14.1133C24.2494 13.8469 23.9336 13.6354 23.586 13.4912C23.2383 13.3469 22.8656 13.2727 22.4893 13.2727C22.1129 13.2727 21.7402 13.3469 21.3925 13.4912C21.0449 13.6354 20.7291 13.8469 20.4633 14.1133L17.9042 16.6913L14.2805 13.0676C14.23 13.0171 14.1695 12.9825 14.1054 12.9639C15.5609 11.6313 17.5 10.8182 19.6289 10.8182C24.1476 10.8182 27.8107 14.4813 27.8107 19C27.8107 21.1812 26.9572 23.1631 25.5658 24.6299ZM16.7662 19.4587L18.1369 18.081L18.9359 18.88L18.0768 19.7391C18.0231 19.7923 17.9806 19.8556 17.9515 19.9253C17.9225 19.9951 17.9075 20.0699 17.9075 20.1454C17.9075 20.221 17.9225 20.2958 17.9515 20.3655C17.9806 20.4353 18.0231 20.4986 18.0768 20.5518C18.13 20.6054 18.1933 20.648 18.263 20.677C18.3328 20.7061 18.4076 20.7211 18.4831 20.7211C18.5587 20.7211 18.6335 20.7061 18.7032 20.677C18.773 20.648 18.8363 20.6054 18.8895 20.5518L19.7485 19.6927L20.5475 20.4917L19.1699 21.8624H16.7662V19.4587ZM18.7139 17.501L19.5144 18.3015L22.0829 15.733C22.1907 15.6252 22.3369 15.5647 22.4893 15.5647C22.6417 15.5647 22.7878 15.6252 22.8956 15.733C23.0034 15.8407 23.0639 15.9869 23.0639 16.1393C23.0639 16.2917 23.0034 16.4379 22.8956 16.5456L20.3271 19.1142L21.1275 19.9146L23.7025 17.3526C24.0058 17.0271 24.1709 16.5966 24.1631 16.1518C24.1552 15.707 23.975 15.2827 23.6605 14.9681C23.3459 14.6535 22.9215 14.4733 22.4767 14.4655C22.0319 14.4576 21.6014 14.6227 21.276 14.926L18.7139 17.501Z" fill="#C07C16"/>
</g>
</svg>
