<svg width="39" height="39" viewBox="0 0 39 39" fill="none" xmlns="http://www.w3.org/2000/svg">
<circle cx="19.5" cy="19.5" r="19" fill="#E0F3F6"/>
<path fill-rule="evenodd" clip-rule="evenodd" d="M25.0962 11.2273C25.5551 11.5214 26.7104 12.3756 27.5244 13.952L27.5246 13.9521C28.3103 15.4734 28.5391 17.1752 28.2047 19.0099C27.7136 21.7047 26.0235 22.9238 24.7895 23.814L24.7894 23.8141L24.7881 23.815C24.141 24.2819 23.6298 24.6507 23.4702 25.0851C22.9913 26.3886 24.3055 29.7492 24.3188 29.7829C24.3509 29.8645 24.311 29.9566 24.2294 29.9888C24.2103 29.9964 24.1906 30 24.1712 30C24.1079 30 24.0482 29.9618 24.0235 29.8994C23.9672 29.7569 22.6516 26.3918 23.1721 24.9756C23.3653 24.4499 23.9115 24.0558 24.6032 23.5569L24.6036 23.5566C25.7938 22.6981 27.424 21.522 27.8922 18.9531C28.5617 15.2803 26.7122 12.64 24.925 11.4947C24.2548 11.0653 22.9892 10.5449 21.4471 10.3728C20.295 10.2441 18.6216 10.2778 17.1911 11.1691C15.5463 12.1937 15.2253 13.332 14.9673 14.2466L14.9673 14.2467L14.9672 14.2472C14.8283 14.7396 14.7083 15.1649 14.4147 15.4835C13.9885 15.9461 13.4248 16.0692 12.9274 16.1778C12.4584 16.2802 12.0532 16.3686 11.8688 16.7131C11.7435 16.9474 11.8137 17.1733 12.1125 17.4805C13.371 17.1875 14.7933 17.3029 16.1289 17.808C17.6146 18.3701 18.9474 19.3841 19.9831 20.7406C20.8937 21.9331 21.5753 23.8278 22.0089 26.372C22.3304 28.2585 22.3876 29.82 22.3881 29.8356C22.3895 29.8787 22.3735 29.9204 22.3436 29.9514C22.3138 29.9824 22.2726 29.9998 22.2295 29.9998H19.0473C19.002 29.9998 18.9586 29.9803 18.9285 29.9463C18.8983 29.9122 18.8842 29.8669 18.8898 29.8217C18.8946 29.7838 19.3366 26.0033 17.5472 23.5428C16.6206 22.2686 15.1834 21.6441 14.1408 21.3448C13.273 21.0955 12.5265 21.0233 12.2155 21.0031C12.2307 21.1443 12.2992 21.2957 12.3708 21.4538L12.3708 21.4538L12.3712 21.4548L12.3716 21.4556C12.4695 21.672 12.5708 21.8958 12.5708 22.1477C12.5708 22.3343 12.4839 22.5243 12.3919 22.7253C12.2168 23.1078 12.0358 23.5033 12.3536 23.9708C12.5545 24.2668 13.0917 24.3352 13.7138 24.4144L13.7138 24.4144L13.7144 24.4144C14.5516 24.521 15.5937 24.6537 16.2933 25.4352C17.5175 26.8031 16.8364 29.7528 16.8069 29.8777C16.7866 29.9629 16.701 30.0156 16.6159 29.9955C16.5306 29.9755 16.4779 29.8899 16.498 29.8046C16.5049 29.7756 17.1704 26.8914 16.0568 25.6471C15.4362 24.9538 14.5002 24.8346 13.6743 24.7296C12.9757 24.6407 12.3725 24.5639 12.0911 24.1495C11.6728 23.5343 11.9215 22.9908 12.1031 22.5938L12.1032 22.5935L12.1039 22.592C12.1808 22.4237 12.2533 22.265 12.2533 22.148C12.2533 21.9645 12.1702 21.7807 12.082 21.5861C11.9703 21.3395 11.8547 21.0843 11.9078 20.8071C11.9357 20.6594 11.9979 20.5153 12.0925 20.379C12.1469 20.3006 12.1741 20.2072 12.171 20.1089C12.1685 20.0309 12.146 19.9531 12.106 19.8836C11.9496 19.6142 11.9774 19.4088 12.0283 19.284C12.1161 19.0691 12.3089 18.9753 12.4637 18.9L12.4638 18.8999C12.6731 18.7982 12.744 18.7539 12.7156 18.5738C12.7066 18.5164 12.6632 18.443 12.5866 18.3558C12.4953 18.2521 12.3697 18.1423 12.2367 18.026L12.2353 18.0248L12.2343 18.0239L12.2343 18.0239L12.2342 18.0238C12.1408 17.9421 12.0444 17.8577 11.9531 17.7696C11.6434 17.4699 11.3221 17.0619 11.5888 16.5632C11.8424 16.0897 12.3364 15.9818 12.8593 15.8676L12.8596 15.8675C13.3331 15.7641 13.8228 15.6571 14.1812 15.2682C14.4234 15.0053 14.5338 14.6137 14.6616 14.1603C14.92 13.244 15.2739 11.989 17.0231 10.8993C18.531 9.96003 20.2803 9.92293 21.4823 10.0571C23.0786 10.2354 24.3959 10.7785 25.0962 11.2273ZM12.6025 19.1855C12.4746 19.2477 12.3641 19.3016 12.3221 19.4041C12.2872 19.4896 12.3069 19.5976 12.3806 19.7245C12.417 19.7877 12.4443 19.8554 12.4625 19.9249C13.2087 19.8258 13.9937 19.8133 14.7984 19.8875C15.5302 19.9549 16.3017 20.0958 17.0984 20.3078C16.5619 19.7801 15.9652 19.3584 15.3191 19.0509C14.6191 18.7177 13.842 18.5106 13.0057 18.4327C13.0166 18.4634 13.0244 18.4938 13.0291 18.5244C13.0954 18.9458 12.7988 19.0901 12.6025 19.1855ZM19.7614 19.2752C19.7225 19.2752 19.6845 19.261 19.6552 19.2345L18.3541 18.0628C18.3042 18.0177 18.288 17.9462 18.3137 17.8841C18.3394 17.822 18.4009 17.7832 18.4685 17.7863C19.7495 17.8532 20.6464 17.3894 21.2041 16.3696L20.2852 16.1595C20.2222 16.145 20.1742 16.0938 20.1639 16.03C20.1535 15.9663 20.183 15.9025 20.2382 15.869L22.0116 14.794C22.0849 14.7496 22.1801 14.7714 22.2269 14.8432L23.3579 16.5821C23.3932 16.6362 23.3919 16.7064 23.3549 16.7594C23.318 16.8124 23.2524 16.8378 23.1895 16.8233L22.2948 16.6189C22.1991 17.3505 21.9535 17.9404 21.5634 18.3746C21.1457 18.8395 20.5485 19.1417 19.7883 19.273C19.7794 19.2745 19.7703 19.2752 19.7614 19.2752ZM22.3126 22.0331C22.3002 22.0966 22.3274 22.1611 22.3815 22.1966L24.118 23.3311C24.1447 23.3485 24.1749 23.3569 24.2047 23.3569C24.255 23.3569 24.3042 23.3332 24.3349 23.2891L25.5238 21.5895C25.5609 21.5364 25.562 21.4663 25.5268 21.412C25.4917 21.3577 25.4272 21.3302 25.3636 21.3425L24.4623 21.5168C24.3914 20.7823 24.166 20.1843 23.791 19.7374C23.3893 19.2586 22.8025 18.9363 22.0471 18.7795C21.9996 18.7696 21.9499 18.7822 21.9126 18.8134L20.5729 19.9404C20.5215 19.9836 20.5029 20.0546 20.5265 20.1175C20.5501 20.1805 20.6107 20.2218 20.678 20.2205C21.96 20.1959 22.8413 20.6908 23.3641 21.7287L22.4383 21.9074C22.3747 21.9201 22.325 21.9696 22.3126 22.0331ZM24.159 17.0054C24.1587 16.9178 24.2296 16.8465 24.3172 16.8462C25.4568 16.8427 26.2649 16.4803 26.5341 15.852C26.773 15.2941 26.5708 14.5778 25.9649 13.8351C25.3358 13.0639 24.3546 12.3675 23.2021 11.8739C22.0497 11.3806 20.8685 11.1514 19.8762 11.2283C18.9204 11.3025 18.2626 11.6505 18.0236 12.2084C17.6777 13.0168 18.2864 14.1749 19.5744 15.1586C19.6442 15.2119 19.6574 15.3115 19.6043 15.3811C19.551 15.4508 19.4514 15.4641 19.3818 15.4109C17.9528 14.3196 17.3205 13.0446 17.7318 12.0834C18.0194 11.4115 18.7724 10.9954 19.8516 10.9117C20.8941 10.8309 22.1285 11.0689 23.3271 11.582C24.5259 12.0954 25.55 12.8243 26.211 13.6345C26.8954 14.4732 27.1138 15.3051 26.8261 15.9769C26.5047 16.7271 25.5906 17.1597 24.3183 17.1636H24.3178C24.2303 17.1636 24.1593 17.0929 24.159 17.0054Z" fill="#25818F"/>
</svg>
