<svg width="26" height="18" viewBox="0 0 26 18" fill="none" xmlns="http://www.w3.org/2000/svg">
<path fill-rule="evenodd" clip-rule="evenodd" d="M19.5394 12.9516H11.1501C10.8972 12.9516 10.6919 12.7463 10.6919 12.4926V10.8773C10.6919 10.6236 10.8972 10.4183 11.1501 10.4183H19.5394C19.7931 10.4183 19.9985 10.6236 19.9985 10.8773V12.4926C19.9985 12.7463 19.7931 12.9516 19.5394 12.9516ZM24.3743 1.02633C23.7407 0.392706 22.8649 0 21.9025 0H3.49812C2.53489 0 1.65993 0.393126 1.02633 1.02633V1.03073C0.392706 1.66435 0 2.53847 0 3.49812V14.5019C0 15.4651 0.393126 16.3401 1.02633 16.9737C1.65996 17.6073 2.53489 18 3.49812 18H21.4729C22.554 18 23.5365 17.5585 24.2476 16.8474C24.9587 16.1362 25.4002 15.1538 25.4002 14.0727V3.4975C25.4002 2.53427 25.0075 1.65993 24.3743 1.02633ZM22.976 14.0725C22.976 14.484 22.807 14.8604 22.5337 15.1324C22.2613 15.4057 21.8861 15.5747 21.4738 15.5747H3.49902C3.20577 15.5747 2.9369 15.4532 2.74195 15.2583C2.54618 15.0637 2.42553 14.7948 2.42553 14.5012V7.06393H22.9767L22.976 14.0725ZM22.976 4.83301H2.42484V3.4971C2.42484 3.20106 2.5447 2.93219 2.73846 2.73762L2.74125 2.74042C2.93581 2.54586 3.20468 2.424 3.49833 2.424H21.9027C22.1972 2.424 22.4648 2.54545 22.6598 2.74042C22.8555 2.93497 22.9762 3.20385 22.9762 3.49749L22.976 4.83301Z" fill="#8ECBD7"/>
</svg>
