<svg width="24" height="24" viewBox="0 0 24 24" fill="none" xmlns="http://www.w3.org/2000/svg">
<path d="M17 21.75H7C2.59 21.75 1.25 20.41 1.25 16V8C1.25 3.59 2.59 2.25 7 2.25H17C21.41 2.25 22.75 3.59 22.75 8V16C22.75 20.41 21.41 21.75 17 21.75ZM7 3.75C3.42 3.75 2.75 4.43 2.75 8V16C2.75 19.57 3.42 20.25 7 20.25H17C20.58 20.25 21.25 19.57 21.25 16V8C21.25 4.43 20.58 3.75 17 3.75H7Z" fill="#8ECBD7"/>
<path d="M19 8.75H14C13.59 8.75 13.25 8.41 13.25 8C13.25 7.59 13.59 7.25 14 7.25H19C19.41 7.25 19.75 7.59 19.75 8C19.75 8.41 19.41 8.75 19 8.75ZM19 12.75H15C14.59 12.75 14.25 12.41 14.25 12C14.25 11.59 14.59 11.25 15 11.25H19C19.41 11.25 19.75 11.59 19.75 12C19.75 12.41 19.41 12.75 19 12.75ZM19 16.75H17C16.59 16.75 16.25 16.41 16.25 16C16.25 15.59 16.59 15.25 17 15.25H19C19.41 15.25 19.75 15.59 19.75 16C19.75 16.41 19.41 16.75 19 16.75ZM8.5 12.042C7.09 12.042 5.94 10.892 5.94 9.482C5.94 8.072 7.09 6.922 8.5 6.922C9.91 6.922 11.06 8.072 11.06 9.482C11.06 10.892 9.91 12.042 8.5 12.042ZM8.5 8.422C7.92 8.422 7.44 8.902 7.44 9.482C7.44 10.062 7.92 10.542 8.5 10.542C9.08 10.542 9.56 10.062 9.56 9.482C9.56 8.902 9.08 8.422 8.5 8.422ZM12 17.082C11.62 17.082 11.29 16.792 11.25 16.402C11.1945 15.8739 10.958 15.3813 10.5807 15.0077C10.2035 14.634 9.70858 14.4024 9.18 14.352C8.72087 14.312 8.25913 14.312 7.8 14.352C6.71 14.452 5.84 15.312 5.73 16.402C5.69 16.812 5.32 17.122 4.91 17.072C4.71254 17.0518 4.53115 16.9541 4.40556 16.8004C4.27998 16.6467 4.22044 16.4495 4.23999 16.252C4.41999 14.452 5.85 13.022 7.66 12.862C8.21 12.812 8.76999 12.812 9.31999 12.862C11.12 13.032 12.56 14.462 12.74 16.252C12.7596 16.4495 12.7 16.6467 12.5744 16.8004C12.4488 16.9541 12.2674 17.0518 12.07 17.072C12.05 17.082 12.02 17.082 12 17.082Z" fill="#8ECBD7"/>
</svg>
