<svg width="22" height="32" viewBox="0 0 22 32" fill="none" xmlns="http://www.w3.org/2000/svg">
<path d="M21.8822 18.8081C21.5968 18.2219 21.301 17.6204 20.8984 17.1157C20.1133 16.1421 19.2622 15.2296 18.4261 14.3018C18.2374 14.0876 18.054 13.8685 17.8756 13.6441C17.7022 13.4452 17.5392 13.2363 17.3761 13.0221C16.8306 12.3135 16.3106 11.5743 15.6379 11.0086C14.5674 10.1063 14.6031 8.94408 14.394 7.79215C14.394 7.78191 14.3889 7.77167 14.3889 7.76165C14.2768 7.14494 14.18 6.52297 14.0729 5.90602C13.8332 4.5654 13.813 3.10237 13.2572 1.82297C12.4976 0.0692921 10.7697 -0.256777 9.01602 0.166233C8.33807 0.329402 7.73662 0.640259 7.25238 1.14502C7.22689 1.17051 7.2014 1.196 7.17592 1.22649C7.09445 1.3182 7.01275 1.41515 6.92104 1.52734C6.92104 1.52233 6.91603 1.5171 6.9108 1.5171C6.8803 1.56307 6.85481 1.60881 6.82933 1.65978C6.82432 1.69551 6.80885 1.73625 6.77835 1.78722C6.74262 1.84844 6.70689 1.90966 6.6764 1.97064C6.6764 1.97565 6.6714 1.97565 6.6714 1.97565C6.42152 2.45992 6.29408 2.96469 6.32481 3.50491C6.32982 3.61711 6.34006 3.7343 6.36054 3.8515C6.39103 4.04016 6.30456 4.30004 6.18212 4.46321C6.15163 4.49894 6.12614 4.53467 6.09542 4.57016C5.97822 4.70785 5.83554 4.83528 5.69785 4.95749C5.6264 5.0187 5.55517 5.07992 5.48371 5.1409C5.19834 5.39578 5.20835 5.56919 5.54493 5.7321C5.54993 5.73711 5.56018 5.74235 5.57042 5.74735C5.61638 5.76783 5.66213 5.79332 5.7131 5.80857C5.93749 5.88003 5.92725 6.03296 5.82529 6.18588C5.7131 6.35405 5.7081 6.49173 5.71834 6.70588C5.73882 6.96076 5.86102 7.11368 5.93248 7.31759C5.97845 7.43478 5.96298 7.58771 5.93248 7.71515C5.82553 8.17393 5.96298 8.39834 6.42699 8.47477C6.57992 8.50026 6.73285 8.50527 6.89078 8.5105H7.09468H7.10492C7.19663 8.49525 7.70637 8.43904 7.93078 8.77562C8.04297 8.88258 8.13969 9.01525 8.18066 9.1477C8.27237 9.43307 8.30809 9.72367 8.32334 10.0295C8.36931 10.2284 8.37432 10.4271 8.32334 10.6157C8.30286 10.7024 8.26736 10.7839 8.22139 10.8656C8.11443 11.039 8.00725 11.2122 7.89505 11.3856C7.84908 11.4061 7.81358 11.4263 7.78286 11.4366C7.08447 12.5325 6.2586 13.5113 5.23909 14.3779C4.11262 15.3312 3.51618 16.208 4.19406 17.7066C4.3165 17.9767 4.32651 18.2521 4.25528 18.5172C4.18906 18.7618 4.05138 19.0014 3.87296 19.2308C3.32247 19.924 2.6598 20.4238 2.06336 21.0557C0.967415 22.2076 0.483117 23.7369 0.569805 25.3072V25.3122C0.53931 26.4489 0.870654 27.5551 1.51288 28.4574C1.89019 29.1201 2.37446 29.7471 2.96572 30.3078H2.97072C3.21536 30.5422 3.41426 30.8175 3.5467 31.1284C3.66913 31.4138 3.78633 31.7044 3.91877 31.995H10.3825C11.9323 31.995 13.4817 31.995 15.0365 32C15.062 32 15.0875 32 15.108 31.995C15.1844 31.9797 15.2354 31.944 15.2864 31.8626C15.3119 31.8166 15.3324 31.7758 15.3578 31.7301C15.7352 31.0522 16.0155 30.3333 16.1175 29.5534C16.2399 28.6054 16.1125 27.6776 15.7811 26.7855C15.4905 25.9851 15.1489 25.2052 14.8331 24.4101C14.6497 23.9411 14.4865 23.4621 14.4713 22.9573C14.4968 22.9471 14.5222 22.9368 14.5477 22.9268C16.8059 21.9735 19.064 21.0202 21.3225 20.0619C21.8878 19.8225 22.1784 19.4095 21.8823 18.808L21.8822 18.8081ZM17.5242 18.961C16.6526 19.5778 15.786 20.21 14.8837 20.7757C15.1794 19.8683 15.4955 18.971 15.7808 18.0637C15.9082 17.6711 16.0152 17.2786 16.1019 16.876C16.6219 17.3398 17.1214 17.7885 17.6209 18.2421C17.9115 18.5072 17.7734 18.7826 17.5242 18.961L17.5242 18.961Z" fill="#69BAC9"/>
</svg>
