<svg width="39" height="39" viewBox="0 0 39 39" fill="none" xmlns="http://www.w3.org/2000/svg">
<circle cx="19.5" cy="19.5" r="19" fill="#D8E8CE"/>
<path d="M16.4966 20.0909L17.1748 16.1989C17.2067 16.0154 17.3654 15.8788 17.556 15.8706C17.7523 15.8636 17.9177 15.9839 17.9665 16.1635L19.5881 22.1046L20.8898 13.4186C20.9175 13.233 21.0757 13.092 21.2682 13.0813C21.4585 13.0681 21.6341 13.1933 21.6831 13.3749L23.5006 20.0916H27.0704C27.9757 18.8972 28.5 17.7132 28.5 16.3543C28.5 13.6736 26.2678 11.5 23.514 11.5C21.8649 11.5 20.4073 12.2825 19.5 13.4839C18.5922 12.2825 17.135 11.5 15.4857 11.5C12.7323 11.5 10.5 13.6736 10.5 16.3543C10.5 17.7865 10.9329 18.9758 11.682 20.0866L16.4966 20.0909Z" fill="#558437"/>
<path d="M23.1866 20.8809C23.0023 20.8809 22.8411 20.76 22.7943 20.5868L21.4037 15.4478L20.1038 24.1235C20.0758 24.3091 19.9178 24.4501 19.7256 24.4608C19.7178 24.4613 19.71 24.4616 19.7022 24.4616C19.5194 24.4616 19.3578 24.3418 19.3105 24.168L17.6606 18.1229L17.2374 20.5521C17.2044 20.742 17.0354 20.8807 16.8376 20.8807H16.8371L12.2734 20.8765C13.9265 22.875 16.5709 24.7396 19.4985 27.5002C22.3027 24.7204 24.7786 22.7401 26.4198 20.8812L23.1866 20.8809Z" fill="#558437"/>
</svg>
