<svg width="20" height="22" viewBox="0 0 20 22" fill="none" xmlns="http://www.w3.org/2000/svg">
<path d="M3.08263 2.87661C4.92434 1.03476 7.42264 0 10.0274 0C12.6158 0.014547 15.0941 1.0504 16.923 2.88227C18.7519 4.71411 19.7836 7.19373 19.7938 9.78218V10.348C19.7978 10.4108 19.7978 10.4737 19.7938 10.5365C19.7821 10.7095 19.7665 10.8822 19.7429 11.0551L19.7075 11.2908C19.6761 11.4846 19.6407 11.6772 19.6014 11.8684L19.519 12.2062C19.4876 12.3437 19.4522 12.4694 19.4129 12.599C19.1535 13.4654 18.7754 14.2917 18.2892 15.0544C18.2028 15.184 18.1124 15.3176 18.0221 15.4472L17.7746 15.785L17.7275 15.844L17.6999 15.8794C17.6056 16.0011 17.5074 16.1151 17.4053 16.233C17.0714 16.616 16.7075 16.972 16.3171 17.2975L16.0107 17.545C15.6832 17.8023 15.3379 18.0359 14.9775 18.2444C14.8242 18.3347 14.6671 18.4212 14.5099 18.5036L13.626 15.8519C15.0587 14.9985 16.1434 13.6663 16.689 12.0906C17.2346 10.5147 17.2059 8.79684 16.6078 7.24032V7.20892C16.4007 6.68173 16.1302 6.18188 15.8024 5.71993C15.7916 5.70011 15.7784 5.6817 15.7632 5.66503L15.7279 5.62189C15.6611 5.52771 15.5511 5.38618 15.5157 5.34303C15.5055 5.33047 15.4952 5.31759 15.4849 5.30457C15.4596 5.27269 15.4336 5.24002 15.4057 5.20939L15.2917 5.07978C15.2679 5.05082 15.2407 5.02177 15.2134 4.99275C15.2001 4.97855 15.1868 4.96435 15.1739 4.95018C15.1542 4.92851 15.1464 4.92067 15.1322 4.90644C15.1179 4.89221 15.0973 4.8716 15.0522 4.82443C14.9618 4.73007 14.8715 4.64361 14.7772 4.56118C14.6907 4.47997 14.6004 4.4014 14.506 4.32546C14.345 4.17621 14.1761 4.05046 14.0032 3.93261C13.9208 3.87368 13.8343 3.81861 13.7479 3.76757C13.5336 3.6299 13.3104 3.50643 13.08 3.39821L12.758 3.25265L12.5105 3.15443L12.3376 3.09165C12.2578 3.06267 12.1847 3.04041 12.1029 3.0155L12.0822 3.00922C12.0718 3.00605 12.0615 3.00287 12.0512 2.99971C11.9719 2.97544 11.8951 2.95188 11.8151 2.9345L11.6541 2.89522C11.6327 2.88987 11.6113 2.88365 11.5899 2.87742C11.5328 2.8608 11.4756 2.84418 11.4184 2.84418H11.3241L11.0136 2.79315C10.9967 2.79043 10.9799 2.78763 10.963 2.78483C10.8579 2.76744 10.7526 2.75 10.6443 2.75H9.6346L9.41082 2.76982C9.36149 2.77443 9.31275 2.78206 9.26438 2.78964C9.18946 2.80137 9.11543 2.81297 9.04146 2.81297L8.73103 2.864H8.63667C8.5581 2.87575 8.47953 2.89539 8.40096 2.91504L8.23996 2.95432C8.18277 2.96676 8.12557 2.98398 8.06935 3.00091C8.03679 3.01071 8.00456 3.02042 7.97285 3.02904C7.88639 3.05254 7.80396 3.08007 7.7175 3.11146L7.54457 3.17425L7.29711 3.27246L6.97493 3.41786C6.74447 3.52607 6.52139 3.64954 6.30707 3.78721C6.22061 3.83825 6.13414 3.89315 6.05171 3.95207C5.8774 4.07239 5.71078 4.20375 5.55276 4.34493C5.50418 4.37948 5.45823 4.41754 5.41526 4.45893L5.40658 4.46689C5.26827 4.5937 5.13367 4.71711 5.00277 4.85179C4.96052 4.89026 4.92197 4.9326 4.8835 4.97485L4.88105 4.97754C4.8365 5.01945 4.79722 5.0626 4.76319 5.10714L4.62973 5.25254C4.60797 5.27653 4.5995 5.28723 4.58358 5.30735C4.57076 5.32356 4.5531 5.34588 4.51976 5.38618C4.44505 5.4765 4.37437 5.57068 4.30755 5.66504L4.27212 5.70818C4.25686 5.72484 4.24371 5.74343 4.23284 5.76325C3.90504 6.22503 3.63458 6.72506 3.42746 7.25207V7.28363C2.82729 8.83567 2.7938 10.5497 3.33275 12.1241C3.87152 13.6985 4.94853 15.0324 6.37386 15.8911L5.48991 18.5429C5.33277 18.4604 5.17563 18.374 5.02235 18.2836C4.66191 18.0751 4.3166 17.8415 3.98916 17.5842L3.68276 17.3368C3.29238 17.0113 2.92863 16.6552 2.59453 16.2722C2.49246 16.1543 2.39424 16.0403 2.29989 15.9186L2.27235 15.8832L2.22517 15.8243L1.97771 15.4865C1.88739 15.3607 1.79707 15.2273 1.7106 15.0936C1.22445 14.3309 0.846337 13.5046 0.587124 12.6382C0.582896 12.623 0.578714 12.608 0.574576 12.5931C0.54026 12.4698 0.509032 12.3576 0.481016 12.2454L0.398589 11.9076C0.359303 11.7138 0.323875 11.5212 0.292482 11.3301L0.257054 11.0944C0.254036 11.0722 0.250952 11.05 0.247867 11.0277C0.226936 10.8771 0.206019 10.7265 0.206019 10.5758C0.20216 10.513 0.20216 10.45 0.206019 10.3872V9.82141C0.206019 7.21662 1.24078 4.71845 3.08263 2.87661Z" fill="#368796"/>
<path d="M10.813 3.92857C10.8123 3.80562 10.7827 3.68443 10.7266 3.57499C10.6648 3.57499 10.6032 3.5681 10.5409 3.56115C10.4881 3.55525 10.4349 3.54931 10.3809 3.54746C10.3025 3.54489 10.2257 3.54574 10.1485 3.5466C10.1097 3.54703 10.0705 3.54746 10.0312 3.54746H9.68146C9.56746 3.54746 9.4496 3.54746 9.33578 3.57499C9.27685 3.68373 9.24476 3.80492 9.2416 3.92857C9.2416 4.20935 9.39138 4.46873 9.63446 4.60904C9.87754 4.74934 10.1771 4.74934 10.4202 4.60904C10.6632 4.46873 10.813 4.20934 10.813 3.92857Z" fill="#368796"/>
<path d="M7.67043 13.75C7.45348 13.75 7.27757 13.9259 7.27757 14.1428V15.3214H12.7776V14.1428C12.7776 14.0387 12.7362 13.9387 12.6625 13.865C12.5889 13.7914 12.4889 13.75 12.3847 13.75H7.67043Z" fill="#368796"/>
<path d="M6.49163 15.0152C4.77235 13.8452 3.74269 11.9009 3.74163 9.82141C3.74128 9.30599 3.80597 8.79244 3.93417 8.29313C4.21128 8.52236 4.56047 8.64636 4.92018 8.64285C5.42227 8.63813 5.89195 8.39365 6.18396 7.98518C6.47597 7.57652 6.55507 7.05301 6.3967 6.57633C6.23853 6.09979 5.86215 5.72746 5.38372 5.57471C6.2075 4.67554 7.27486 4.03538 8.4559 3.73214C8.45011 3.79756 8.45011 3.86315 8.4559 3.92857C8.4559 4.48993 8.75546 5.00873 9.24161 5.28951C9.72777 5.57013 10.3269 5.57013 10.813 5.28951C11.2992 5.00877 11.5987 4.48997 11.5987 3.92857C11.6045 3.86315 11.6045 3.79756 11.5987 3.73214C12.7741 4.03817 13.8357 4.67814 14.6551 5.57471C14.1751 5.72817 13.7978 6.10262 13.6407 6.58141C13.4836 7.0602 13.5655 7.58546 13.8612 7.9934C14.157 8.40152 14.6304 8.64302 15.1344 8.64285C15.4941 8.64635 15.8433 8.52236 16.1204 8.29313C16.2486 8.79244 16.3133 9.30599 16.313 9.82141C16.312 11.9011 15.2823 13.8454 13.563 15.0152V14.143C13.563 13.8305 13.4388 13.5306 13.2178 13.3096C12.9969 13.0886 12.697 12.9645 12.3845 12.9645H7.67018C7.35769 12.9645 7.05776 13.0887 6.83678 13.3096C6.6158 13.5306 6.49163 13.8305 6.49163 14.143V15.0152Z" fill="#368796"/>
<path d="M5.7061 7.07142C5.7061 6.86306 5.62332 6.66313 5.476 6.51581C5.32868 6.36849 5.12874 6.28571 4.92039 6.28571H4.83007C4.58611 6.63998 4.38055 7.01934 4.21712 7.41709C4.28166 7.5488 4.38181 7.65981 4.50598 7.73751C4.63032 7.81521 4.77378 7.85659 4.92041 7.85712C5.12876 7.85712 5.3287 7.77434 5.47602 7.62702C5.62334 7.4797 5.7061 7.27977 5.7061 7.07142Z" fill="#368796"/>
<path d="M15.5473 7.74085C15.4232 7.81714 15.2802 7.85748 15.1345 7.85713C14.8537 7.85712 14.5943 7.70735 14.454 7.46427C14.3137 7.2212 14.3137 6.92164 14.454 6.67856C14.5943 6.43548 14.8537 6.28571 15.1345 6.28571H15.2248C15.4693 6.64242 15.6747 7.02441 15.8378 7.42499C15.7722 7.55513 15.6717 7.66456 15.5473 7.74085Z" fill="#368796"/>
<path d="M18.0063 16.8026C17.1057 17.8391 16.0097 18.6881 14.781 19.3011L15.1346 20.3028C15.1402 20.3446 15.1402 20.3868 15.1346 20.4286V22H18.5093C18.6261 22.0002 18.7369 21.9484 18.8116 21.8586C18.8881 21.7685 18.9198 21.6487 18.8981 21.5324L18.0063 16.8026Z" fill="#368796"/>
<path d="M1.15693 21.5169L2.04874 16.8026C2.94935 17.8391 4.04531 18.6882 5.27403 19.3011L4.94011 20.3029C4.92783 20.3437 4.92116 20.386 4.92046 20.4286V21.9843H1.54576C1.42895 21.9844 1.31811 21.9327 1.2434 21.8429C1.16693 21.7528 1.13519 21.633 1.15693 21.5169Z" fill="#368796"/>
<path fill-rule="evenodd" clip-rule="evenodd" d="M7.16746 16.1071L5.70599 20.4913V22H14.3488V20.4913L12.8874 16.1071H7.16746ZM13.1703 20.4285C13.1703 20.5327 13.1289 20.6327 13.0553 20.7063C12.9816 20.78 12.8816 20.8214 12.7774 20.8214H7.27746C7.06051 20.8214 6.8846 20.6455 6.8846 20.4285C6.8846 20.2116 7.06051 20.0357 7.27746 20.0357H12.7774C12.8816 20.0357 12.9816 20.0771 13.0553 20.1507C13.1289 20.2244 13.1703 20.3244 13.1703 20.4285Z" fill="#368796"/>
</svg>
