<svg width="39" height="39" viewBox="0 0 39 39" fill="none" xmlns="http://www.w3.org/2000/svg">
<circle cx="19.5" cy="19.5" r="19" fill="#EAEEF4"/>
<path d="M29.5 24.8284V25.2287C29.4943 28.5 29.3666 28.5 25.9917 28.5C22.4805 28.5 21.6035 25.7547 21.6035 23.0096C21.6035 22.3777 21.5524 21.2539 21.6035 20.0156L21.7681 18.0139C21.7681 17.9539 21.7851 17.8966 21.7964 17.8396C21.0414 17.6708 20.0081 17.2677 19.659 16.3583V16.3581C19.635 16.2913 19.5721 16.2468 19.5016 16.2468C19.4309 16.2468 19.3679 16.2913 19.344 16.3581C18.9892 17.2847 17.973 17.6792 17.2464 17.8451L17.2719 18.0139L17.4365 20.0155C17.4763 21.2536 17.4365 22.3777 17.4365 23.0096C17.4365 25.7549 16.5538 28.5 13.0283 28.5C9.50294 28.5 9.5 28.5 9.5 24.8397C9.5 17.9767 12.5854 13.4014 15.2307 14.3221C16.1646 14.6452 16.7152 15.5947 17.0331 16.77C17.5496 16.6242 18.0777 16.3639 18.2735 16.0894H18.2737C18.619 15.5855 18.7996 14.9857 18.7903 14.3735V9.22628C18.7903 8.82515 19.1132 8.5 19.5114 8.5C19.9096 8.5 20.2323 8.82513 20.2323 9.22628V14.5426C20.2218 14.992 20.3192 15.4374 20.5162 15.8409C20.7008 16.2041 21.3678 16.5702 22.0149 16.7561C22.3328 15.5836 22.8664 14.6343 23.8087 14.3112C26.4288 13.3958 29.4999 17.9684 29.4999 24.8283L29.5 24.8284Z" fill="#365796"/>
</svg>
