<svg width="39" height="39" viewBox="0 0 39 39" fill="none" xmlns="http://www.w3.org/2000/svg">
<circle cx="19.5" cy="19.5" r="19" fill="#F3F4EA"/>
<g clip-path="url(#clip0_5569_26920)">
<path fill-rule="evenodd" clip-rule="evenodd" d="M24.4791 20.9922C24.8639 22.7419 24.5406 24.4704 22.8398 26.142C21.573 27.3773 20.0655 27.9991 18.3067 27.9991C16.5532 27.9991 15.0492 27.3773 13.7824 26.142C12.7563 25.1378 12.2327 24.1107 12.0622 23.0674H13.7296L14.118 22.2341L16.1297 25.185L17.82 21.4919L19.6561 24.9473L21.3604 23.0788H22.0316V22.1413H20.8931L19.881 23.2514L17.7532 19.2475L15.9558 23.1765L13.9528 20.2387L13.0708 22.1299H12.0007C12.0886 18.8275 15.2424 15.4096 16.9028 12.1674C19.4945 6.96393 17.2701 6.6677 19.2045 11.0834C18.2856 12.1299 17.7357 13.463 17.7357 14.9164C17.7357 16.5945 18.4701 18.1146 19.6579 19.2149C20.8456 20.3152 22.4849 20.9955 24.2982 20.9955C24.3579 20.9955 24.4194 20.9939 24.4791 20.9922ZM24.7146 14.49C24.9904 14.6283 25.1784 14.8985 25.1784 15.211C25.1784 15.6618 24.7831 16.0281 24.2964 16.0281C23.8097 16.0281 23.4144 15.6618 23.4144 15.211C23.4144 14.9001 23.6024 14.6283 23.88 14.49V12.7598C23.88 12.5466 24.0662 12.3725 24.2982 12.3725C24.5283 12.3725 24.7163 12.545 24.7163 12.7598V14.49H24.7146Z" fill="#867963"/>
<path d="M26.9425 10.7434C27.3203 10.9582 27.6664 11.2203 27.9774 11.5067C28.9191 12.3791 29.5025 13.5852 29.5025 14.9166C29.5025 16.248 28.9209 17.454 27.9774 18.3264C27.0356 19.1988 25.7337 19.7392 24.2964 19.7392C22.8592 19.7392 21.559 19.1988 20.6154 18.3264C19.6737 17.454 19.0903 16.248 19.0903 14.9166C19.0903 13.5852 19.6719 12.3808 20.6154 11.5084C20.9387 11.2089 21.3024 10.9355 21.7013 10.7157C23.2176 9.8824 25.4385 9.89053 26.9425 10.7434ZM24.7462 10.8915V11.484H23.8466V10.8915C22.8187 10.9892 21.8981 11.4156 21.2076 12.0552C20.5118 12.6998 20.0497 13.5624 19.9478 14.5211H20.568V15.3544H19.953C20.062 16.2968 20.5206 17.1431 21.2076 17.7795C21.8981 18.4192 22.8205 18.8472 23.8466 18.9433V18.3915H24.7462V18.9433C25.7741 18.8456 26.6947 18.4192 27.387 17.7795C28.0723 17.1448 28.5326 16.2984 28.6415 15.3544H28.0266V14.5211H28.6468C28.5467 13.5608 28.0846 12.6998 27.3888 12.0552C26.6948 11.4156 25.7723 10.9892 24.7462 10.8915Z" fill="#867963"/>
</g>
<defs>
<clipPath id="clip0_5569_26920">
<rect width="17.5" height="20" fill="white" transform="translate(12 8)"/>
</clipPath>
</defs>
</svg>
