<svg width="39" height="39" viewBox="0 0 39 39" fill="none" xmlns="http://www.w3.org/2000/svg">
<circle cx="19.5" cy="19.5" r="19" fill="#F4ECEA"/>
<path d="M22.2824 22.0123C22.0091 21.7485 21.7359 21.5566 21.4128 21.3888V12.3468C21.4128 11.3395 20.5433 10.5 19.5 10.5C18.4566 10.5 17.5871 11.3395 17.5871 12.3468V21.3888C17.2891 21.5568 16.9909 21.7726 16.7176 22.0123C15.1775 23.4993 15.1775 25.8977 16.7176 27.3848C18.2577 28.8717 20.7419 28.8717 22.2821 27.3848C23.8226 25.8976 23.8226 23.4992 22.2823 22.0123H22.2824ZM19.3759 27.2169C18.0096 27.2169 16.8918 26.1376 16.8918 24.8185C16.8918 24.6505 17.0408 24.5307 17.1898 24.5307C17.3388 24.5307 17.4878 24.6746 17.4878 24.8185C17.4878 25.8019 18.3324 26.6173 19.351 26.6173C19.5249 26.6173 19.649 26.7612 19.649 26.905C19.6492 27.0489 19.5499 27.2169 19.3759 27.2169H19.3759ZM20.6429 13.2342H19.5001V14.7212H20.6429V15.2008H19.5001V16.6878H20.6429V17.1674H19.5001V18.6544H20.6429V19.134H19.5001V20.1652H18.5313V12.2985C18.5313 11.7947 18.9784 11.3631 19.5001 11.3631V12.7303H20.6429V13.2342Z" fill="#964536"/>
</svg>
