<svg width="16" height="17" viewBox="0 0 16 17" fill="none" xmlns="http://www.w3.org/2000/svg">
<path d="M10.6374 10.7638H7.64835C7.15604 10.7638 6.76923 10.377 6.76923 9.88467V5.31324C6.76923 4.82093 7.15604 4.43412 7.64835 4.43412C8.14066 4.43412 8.52747 4.82093 8.52747 5.31324V9.00555H10.6374C11.1297 9.00555 11.5165 9.39236 11.5165 9.88467C11.5165 10.377 11.1297 10.7638 10.6374 10.7638Z" fill="#368796"/>
<path fill-rule="evenodd" clip-rule="evenodd" d="M16 8.98132C16 13.3945 12.4132 16.9813 8 16.9813C3.58681 16.9813 0 13.3945 0 8.98132C0 4.56814 3.58681 0.981323 8 0.981323C12.4132 0.981323 16 4.56814 16 8.98132ZM14.2418 8.98132C14.2418 5.53517 11.4462 2.73956 8 2.73956C4.55385 2.73956 1.75824 5.53517 1.75824 8.98132C1.75824 12.4275 4.55385 15.2231 8 15.2231C11.4462 15.2231 14.2418 12.4275 14.2418 8.98132Z" fill="#368796"/>
</svg>
