<svg width="24" height="25" viewBox="0 0 24 25" fill="none" xmlns="http://www.w3.org/2000/svg">
<path d="M15.7098 9.05804C15.6169 8.96431 15.5063 8.88992 15.3844 8.83915C15.2626 8.78838 15.1318 8.76224 14.9998 8.76224C14.8678 8.76224 14.7371 8.78838 14.6153 8.83915C14.4934 8.88992 14.3828 8.96431 14.2898 9.05804L11.9998 11.358L9.70984 9.05804C9.52153 8.86974 9.26614 8.76395 8.99984 8.76395C8.73353 8.76395 8.47814 8.86973 8.28983 9.05804C8.10153 9.24634 7.99574 9.50174 7.99574 9.76804C7.99574 10.0343 8.10153 10.2897 8.28983 10.478L10.5898 12.768L8.28983 15.058C8.19611 15.151 8.12171 15.2616 8.07094 15.3835C8.02017 15.5053 7.99404 15.636 7.99404 15.768C7.99404 15.9001 8.02017 16.0308 8.07094 16.1526C8.12171 16.2745 8.19611 16.3851 8.28983 16.478C8.3828 16.5718 8.4934 16.6462 8.61526 16.6969C8.73712 16.7477 8.86782 16.7738 8.99984 16.7738C9.13185 16.7738 9.26255 16.7477 9.38441 16.6969C9.50627 16.6462 9.61687 16.5718 9.70984 16.478L11.9998 14.178L14.2898 16.478C14.3828 16.5718 14.4934 16.6462 14.6153 16.6969C14.7371 16.7477 14.8678 16.7738 14.9998 16.7738C15.1318 16.7738 15.2626 16.7477 15.3844 16.6969C15.5063 16.6462 15.6169 16.5718 15.7098 16.478C15.8036 16.3851 15.878 16.2745 15.9287 16.1526C15.9795 16.0308 16.0056 15.9001 16.0056 15.768C16.0056 15.636 15.9795 15.5053 15.9287 15.3835C15.878 15.2616 15.8036 15.151 15.7098 15.058L13.4098 12.768L15.7098 10.478C15.8036 10.3851 15.878 10.2745 15.9287 10.1526C15.9795 10.0308 16.0056 9.90005 16.0056 9.76804C16.0056 9.63603 15.9795 9.50532 15.9287 9.38346C15.878 9.2616 15.8036 9.151 15.7098 9.05804ZM19.0698 5.69804C18.1474 4.74294 17.0439 3.98111 15.8239 3.45702C14.6038 2.93293 13.2916 2.65707 11.9638 2.64553C10.6361 2.634 9.31926 2.88701 8.09029 3.38982C6.86133 3.89263 5.74481 4.63516 4.80589 5.57409C3.86696 6.51302 3.12443 7.62954 2.62162 8.8585C2.11881 10.0875 1.86579 11.4043 1.87733 12.7321C1.88887 14.0598 2.16473 15.372 2.68882 16.5921C3.21291 17.8121 3.97473 18.9156 4.92984 19.838C5.8523 20.7931 6.95575 21.555 8.17579 22.0791C9.39583 22.6031 10.708 22.879 12.0358 22.8905C13.3636 22.9021 14.6804 22.6491 15.9094 22.1463C17.1383 21.6434 18.2549 20.9009 19.1938 19.962C20.1327 19.0231 20.8752 17.9065 21.3781 16.6776C21.8809 15.4486 22.1339 14.1318 22.1223 12.804C22.1108 11.4762 21.8349 10.164 21.3109 8.94399C20.7868 7.72395 20.0249 6.62051 19.0698 5.69804ZM17.6598 18.428C16.3519 19.7375 14.6304 20.5529 12.7886 20.7353C10.9469 20.9178 9.09884 20.4561 7.55936 19.4288C6.01987 18.4015 4.88419 16.8722 4.34581 15.1015C3.80742 13.3308 3.89964 11.4282 4.60675 9.71782C5.31386 8.00747 6.59211 6.59519 8.22373 5.7216C9.85534 4.84801 11.7394 4.56717 13.5548 4.92691C15.3703 5.28666 17.0049 6.26473 18.1801 7.6945C19.3553 9.12427 19.9984 10.9173 19.9998 12.768C20.0034 13.8193 19.7984 14.8609 19.3968 15.8324C18.9951 16.804 18.4047 17.6862 17.6598 18.428Z" fill="#E53B19"/>
</svg>
