<svg width="24" height="25" viewBox="0 0 24 25" fill="none" xmlns="http://www.w3.org/2000/svg">
<path d="M14.72 9.55804L10.43 13.858L8.78 12.208C8.69036 12.1034 8.58004 12.0183 8.45597 11.9583C8.33191 11.8983 8.19678 11.8646 8.05906 11.8592C7.92134 11.8539 7.78401 11.8771 7.65568 11.9274C7.52736 11.9777 7.41081 12.0539 7.31335 12.1514C7.2159 12.2488 7.13964 12.3654 7.08937 12.4937C7.03909 12.622 7.01589 12.7594 7.02121 12.8971C7.02653 13.0348 7.06026 13.1699 7.12028 13.294C7.1803 13.4181 7.26532 13.5284 7.37 13.618L9.72 15.978C9.81344 16.0707 9.92426 16.144 10.0461 16.1938C10.1679 16.2436 10.2984 16.2688 10.43 16.268C10.6923 16.2669 10.9437 16.1628 11.13 15.978L16.13 10.978C16.2237 10.8851 16.2981 10.7745 16.3489 10.6526C16.3997 10.5308 16.4258 10.4 16.4258 10.268C16.4258 10.136 16.3997 10.0053 16.3489 9.88346C16.2981 9.7616 16.2237 9.651 16.13 9.55804C15.9426 9.37178 15.6892 9.26724 15.425 9.26724C15.1608 9.26724 14.9074 9.37178 14.72 9.55804ZM12 2.76804C10.0222 2.76804 8.08879 3.35453 6.4443 4.45334C4.79981 5.55215 3.51809 7.11394 2.76121 8.9412C2.00433 10.7685 1.8063 12.7791 2.19215 14.7189C2.578 16.6587 3.53041 18.4406 4.92894 19.8391C6.32746 21.2376 8.10929 22.19 10.0491 22.5759C11.9889 22.9617 13.9996 22.7637 15.8268 22.0068C17.6541 21.25 19.2159 19.9682 20.3147 18.3237C21.4135 16.6792 22 14.7458 22 12.768C22 11.4548 21.7413 10.1545 21.2388 8.9412C20.7363 7.72795 19.9997 6.62555 19.0711 5.69697C18.1425 4.76838 17.0401 4.03179 15.8268 3.52924C14.6136 3.02669 13.3132 2.76804 12 2.76804ZM12 20.768C10.4178 20.768 8.87104 20.2988 7.55544 19.4198C6.23985 18.5407 5.21447 17.2913 4.60897 15.8295C4.00347 14.3677 3.84504 12.7592 4.15372 11.2073C4.4624 9.65547 5.22433 8.23 6.34315 7.11118C7.46197 5.99236 8.88743 5.23044 10.4393 4.92175C11.9911 4.61307 13.5997 4.7715 15.0615 5.377C16.5233 5.9825 17.7727 7.00788 18.6518 8.32347C19.5308 9.63907 20 11.1858 20 12.768C20 14.8898 19.1572 16.9246 17.6569 18.4249C16.1566 19.9252 14.1217 20.768 12 20.768Z" fill="#43BC94"/>
</svg>
