<svg width="24" height="25" viewBox="0 0 24 25" fill="none" xmlns="http://www.w3.org/2000/svg">
<path d="M12 11.768C11.7348 11.768 11.4804 11.8734 11.2929 12.0609C11.1054 12.2485 11 12.5028 11 12.768V16.768C11 17.0333 11.1054 17.2876 11.2929 17.4751C11.4804 17.6627 11.7348 17.768 12 17.768C12.2652 17.768 12.5196 17.6627 12.7071 17.4751C12.8946 17.2876 13 17.0333 13 16.768V12.768C13 12.5028 12.8946 12.2485 12.7071 12.0609C12.5196 11.8734 12.2652 11.768 12 11.768ZM12.38 7.84804C12.1365 7.74802 11.8635 7.74802 11.62 7.84804C11.4973 7.89563 11.3851 7.967 11.29 8.05804C11.2017 8.15524 11.1306 8.26685 11.08 8.38804C11.024 8.50672 10.9966 8.63686 11 8.76804C10.9992 8.89964 11.0245 9.0301 11.0742 9.15194C11.124 9.27378 11.1973 9.3846 11.29 9.47804C11.3872 9.56637 11.4988 9.63739 11.62 9.68804C11.7715 9.75028 11.936 9.77435 12.099 9.75815C12.2619 9.74194 12.4184 9.68596 12.5547 9.59511C12.691 9.50425 12.8029 9.38132 12.8805 9.23711C12.9582 9.0929 12.9992 8.93182 13 8.76804C12.9963 8.50327 12.8927 8.24967 12.71 8.05804C12.6149 7.967 12.5028 7.89563 12.38 7.84804ZM12 2.76804C10.0222 2.76804 8.08879 3.35453 6.4443 4.45334C4.79981 5.55215 3.51809 7.11394 2.76121 8.9412C2.00433 10.7685 1.8063 12.7791 2.19215 14.7189C2.578 16.6587 3.53041 18.4406 4.92894 19.8391C6.32746 21.2376 8.10929 22.19 10.0491 22.5759C11.9889 22.9617 13.9996 22.7637 15.8268 22.0068C17.6541 21.25 19.2159 19.9682 20.3147 18.3237C21.4135 16.6792 22 14.7458 22 12.768C22 11.4548 21.7413 10.1545 21.2388 8.9412C20.7363 7.72795 19.9997 6.62555 19.0711 5.69697C18.1425 4.76838 17.0401 4.03179 15.8268 3.52924C14.6136 3.02669 13.3132 2.76804 12 2.76804ZM12 20.768C10.4178 20.768 8.87104 20.2988 7.55544 19.4198C6.23985 18.5407 5.21447 17.2913 4.60897 15.8295C4.00347 14.3677 3.84504 12.7592 4.15372 11.2073C4.4624 9.65547 5.22433 8.23 6.34315 7.11118C7.46197 5.99236 8.88743 5.23044 10.4393 4.92175C11.9911 4.61307 13.5997 4.7715 15.0615 5.377C16.5233 5.9825 17.7727 7.00788 18.6518 8.32347C19.5308 9.63907 20 11.1858 20 12.768C20 14.8898 19.1572 16.9246 17.6569 18.4249C16.1566 19.9252 14.1217 20.768 12 20.768Z" fill="#F7A708"/>
</svg>
