<svg width="24" height="24" viewBox="0 0 24 24" fill="none" xmlns="http://www.w3.org/2000/svg">
<path d="M17.3435 22.5074H6.65649C2.38169 22.5074 1.31299 21.34 1.31299 16.67V7.33011C1.31299 2.66016 2.38169 1.49268 6.65649 1.49268H17.3435C21.6183 1.49268 22.687 2.66016 22.687 7.33011V16.67C22.687 21.34 21.6183 22.5074 17.3435 22.5074Z" stroke="#368796" stroke-width="1.5" stroke-linecap="round" stroke-linejoin="round"/>
<mask id="path-3-inside-1_5575_27414" fill="white">
<path d="M17.5987 14.3336C17.4568 14.0039 17.3098 13.6655 17.1096 13.3816C16.7192 12.834 16.2961 12.3207 15.8804 11.7988C15.7866 11.6783 15.6954 11.555 15.6067 11.4288C15.5205 11.3169 15.4395 11.1994 15.3583 11.079C15.0871 10.6804 14.8286 10.2646 14.4941 9.94638C13.9619 9.43883 13.9796 8.78507 13.8757 8.13711C13.8757 8.13135 13.8732 8.12559 13.8732 8.11996C13.8174 7.77305 13.7693 7.4232 13.716 7.07617C13.5969 6.32206 13.5868 5.49911 13.3105 4.77945C12.9328 3.79301 12.0737 3.60959 11.2018 3.84753C10.8647 3.93932 10.5657 4.11417 10.325 4.3981C10.3123 4.41244 10.2996 4.42678 10.2869 4.44393C10.2464 4.49552 10.2058 4.55005 10.1602 4.61316C10.1602 4.61034 10.1577 4.6074 10.1551 4.6074C10.14 4.63325 10.1273 4.65898 10.1146 4.68766C10.1121 4.70775 10.1044 4.73067 10.0893 4.75934C10.0715 4.79378 10.0537 4.82821 10.0386 4.86251C10.0386 4.86533 10.0361 4.86533 10.0361 4.86533C9.91186 5.13773 9.8485 5.42167 9.86378 5.72554C9.86627 5.78865 9.87136 5.85457 9.88154 5.9205C9.8967 6.02662 9.85371 6.1728 9.79284 6.26458C9.77768 6.28468 9.765 6.30478 9.74973 6.32475C9.69146 6.40219 9.62052 6.47388 9.55206 6.54261C9.51654 6.57705 9.48112 6.61148 9.44559 6.64579C9.30371 6.78916 9.30869 6.8867 9.47603 6.97834C9.47852 6.98115 9.48361 6.9841 9.4887 6.98691C9.51156 6.99843 9.5343 7.01277 9.55964 7.02135C9.67121 7.06154 9.66611 7.14757 9.61543 7.23359C9.55964 7.32818 9.55716 7.40563 9.56225 7.52609C9.57243 7.66945 9.63319 7.75548 9.66872 7.87017C9.69157 7.93609 9.68388 8.02211 9.66872 8.0938C9.61554 8.35186 9.68388 8.47809 9.91458 8.52109C9.99062 8.53542 10.0666 8.53824 10.1452 8.54118H10.2465H10.2516C10.2972 8.53261 10.5507 8.50099 10.6622 8.69031C10.718 8.75048 10.7661 8.82511 10.7865 8.89961C10.8321 9.06013 10.8498 9.22359 10.8574 9.39565C10.8803 9.50753 10.8828 9.61928 10.8574 9.72538C10.8472 9.77415 10.8296 9.81998 10.8067 9.86593C10.7536 9.96348 10.7003 10.0609 10.6445 10.1584C10.6216 10.17 10.604 10.1813 10.5887 10.1871C10.2415 10.8036 9.83086 11.3541 9.32397 11.8416C8.7639 12.3778 8.46736 12.871 8.8044 13.714C8.86527 13.8659 8.87025 14.0208 8.83483 14.1699C8.80191 14.3075 8.73346 14.4423 8.64475 14.5714C8.37105 14.9613 8.04158 15.2424 7.74504 15.5979C7.20014 16.2458 6.95936 17.106 7.00246 17.9893V17.9921C6.9873 18.6315 7.15204 19.2538 7.47134 19.7613C7.65894 20.1341 7.89971 20.4867 8.19368 20.8022H8.19617C8.3178 20.934 8.41668 21.0889 8.48253 21.2638C8.54341 21.4243 8.60168 21.5877 8.66753 21.7512H11.8812C12.6517 21.7512 13.4221 21.7512 14.1951 21.754C14.2078 21.754 14.2205 21.754 14.2307 21.7512C14.2687 21.7426 14.294 21.7225 14.3194 21.6767C14.332 21.6509 14.3422 21.6279 14.3549 21.6022C14.5425 21.2209 14.6819 20.8165 14.7326 20.3778C14.7934 19.8446 14.7301 19.3227 14.5653 18.8209C14.4209 18.3707 14.251 17.932 14.094 17.4847C14.0028 17.2209 13.9217 16.9515 13.9141 16.6675C13.9268 16.6617 13.9394 16.656 13.9521 16.6504C15.0749 16.1141 16.1976 15.5779 17.3205 15.0389C17.6015 14.9042 17.7459 14.6719 17.5987 14.3336ZM15.432 14.4196C14.9987 14.7665 14.5678 15.1221 14.1192 15.4403C14.2662 14.93 14.4233 14.4252 14.5652 13.9149C14.6285 13.694 14.6817 13.4732 14.7248 13.2468C14.9834 13.5077 15.2317 13.7601 15.4801 14.0152C15.6246 14.1643 15.5559 14.3192 15.432 14.4196Z"/>
</mask>
<path d="M17.5987 14.3336C17.4568 14.0039 17.3098 13.6655 17.1096 13.3816C16.7192 12.834 16.2961 12.3207 15.8804 11.7988C15.7866 11.6783 15.6954 11.555 15.6067 11.4288C15.5205 11.3169 15.4395 11.1994 15.3583 11.079C15.0871 10.6804 14.8286 10.2646 14.4941 9.94638C13.9619 9.43883 13.9796 8.78507 13.8757 8.13711C13.8757 8.13135 13.8732 8.12559 13.8732 8.11996C13.8174 7.77305 13.7693 7.4232 13.716 7.07617C13.5969 6.32206 13.5868 5.49911 13.3105 4.77945C12.9328 3.79301 12.0737 3.60959 11.2018 3.84753C10.8647 3.93932 10.5657 4.11417 10.325 4.3981C10.3123 4.41244 10.2996 4.42678 10.2869 4.44393C10.2464 4.49552 10.2058 4.55005 10.1602 4.61316C10.1602 4.61034 10.1577 4.6074 10.1551 4.6074C10.14 4.63325 10.1273 4.65898 10.1146 4.68766C10.1121 4.70775 10.1044 4.73067 10.0893 4.75934C10.0715 4.79378 10.0537 4.82821 10.0386 4.86251C10.0386 4.86533 10.0361 4.86533 10.0361 4.86533C9.91186 5.13773 9.8485 5.42167 9.86378 5.72554C9.86627 5.78865 9.87136 5.85457 9.88154 5.9205C9.8967 6.02662 9.85371 6.1728 9.79284 6.26458C9.77768 6.28468 9.765 6.30478 9.74973 6.32475C9.69146 6.40219 9.62052 6.47388 9.55206 6.54261C9.51654 6.57705 9.48112 6.61148 9.44559 6.64579C9.30371 6.78916 9.30869 6.8867 9.47603 6.97834C9.47852 6.98115 9.48361 6.9841 9.4887 6.98691C9.51156 6.99843 9.5343 7.01277 9.55964 7.02135C9.67121 7.06154 9.66611 7.14757 9.61543 7.23359C9.55964 7.32818 9.55716 7.40563 9.56225 7.52609C9.57243 7.66945 9.63319 7.75548 9.66872 7.87017C9.69157 7.93609 9.68388 8.02211 9.66872 8.0938C9.61554 8.35186 9.68388 8.47809 9.91458 8.52109C9.99062 8.53542 10.0666 8.53824 10.1452 8.54118H10.2465H10.2516C10.2972 8.53261 10.5507 8.50099 10.6622 8.69031C10.718 8.75048 10.7661 8.82511 10.7865 8.89961C10.8321 9.06013 10.8498 9.22359 10.8574 9.39565C10.8803 9.50753 10.8828 9.61928 10.8574 9.72538C10.8472 9.77415 10.8296 9.81998 10.8067 9.86593C10.7536 9.96348 10.7003 10.0609 10.6445 10.1584C10.6216 10.17 10.604 10.1813 10.5887 10.1871C10.2415 10.8036 9.83086 11.3541 9.32397 11.8416C8.7639 12.3778 8.46736 12.871 8.8044 13.714C8.86527 13.8659 8.87025 14.0208 8.83483 14.1699C8.80191 14.3075 8.73346 14.4423 8.64475 14.5714C8.37105 14.9613 8.04158 15.2424 7.74504 15.5979C7.20014 16.2458 6.95936 17.106 7.00246 17.9893V17.9921C6.9873 18.6315 7.15204 19.2538 7.47134 19.7613C7.65894 20.1341 7.89971 20.4867 8.19368 20.8022H8.19617C8.3178 20.934 8.41668 21.0889 8.48253 21.2638C8.54341 21.4243 8.60168 21.5877 8.66753 21.7512H11.8812C12.6517 21.7512 13.4221 21.7512 14.1951 21.754C14.2078 21.754 14.2205 21.754 14.2307 21.7512C14.2687 21.7426 14.294 21.7225 14.3194 21.6767C14.332 21.6509 14.3422 21.6279 14.3549 21.6022C14.5425 21.2209 14.6819 20.8165 14.7326 20.3778C14.7934 19.8446 14.7301 19.3227 14.5653 18.8209C14.4209 18.3707 14.251 17.932 14.094 17.4847C14.0028 17.2209 13.9217 16.9515 13.9141 16.6675C13.9268 16.6617 13.9394 16.656 13.9521 16.6504C15.0749 16.1141 16.1976 15.5779 17.3205 15.0389C17.6015 14.9042 17.7459 14.6719 17.5987 14.3336ZM15.432 14.4196C14.9987 14.7665 14.5678 15.1221 14.1192 15.4403C14.2662 14.93 14.4233 14.4252 14.5652 13.9149C14.6285 13.694 14.6817 13.4732 14.7248 13.2468C14.9834 13.5077 15.2317 13.7601 15.4801 14.0152C15.6246 14.1643 15.5559 14.3192 15.432 14.4196Z" fill="#368796"/>
<path d="M17.5987 14.3336L16.374 14.8606L16.3761 14.8655L17.5987 14.3336ZM17.1096 13.3816L18.1994 12.6133L18.1953 12.6076L17.1096 13.3816ZM15.8804 11.7988L14.8284 12.618L14.8329 12.6237L14.8375 12.6295L15.8804 11.7988ZM15.6067 11.4288L16.6975 10.6621L16.6807 10.6382L16.6628 10.615L15.6067 11.4288ZM15.3583 11.079L16.4643 10.3342L16.4607 10.3289L15.3583 11.079ZM14.4941 9.94638L13.574 10.9113L13.5751 10.9124L14.4941 9.94638ZM13.8757 8.13711H12.5423V8.24342L12.5592 8.34838L13.8757 8.13711ZM13.8732 8.11996H15.2065V8.01344L15.1896 7.90828L13.8732 8.11996ZM13.716 7.07617L15.0339 6.87378L15.033 6.86809L13.716 7.07617ZM13.3105 4.77945L12.0653 5.25619L12.0658 5.25734L13.3105 4.77945ZM11.2018 3.84753L11.5521 5.13403L11.5528 5.13383L11.2018 3.84753ZM10.325 4.3981L11.324 5.28113L11.333 5.27087L11.3419 5.26042L10.325 4.3981ZM10.2869 4.44393L11.3356 5.26735L11.3477 5.25197L11.3593 5.23624L10.2869 4.44393ZM10.1602 4.61316H8.82688V8.73525L11.241 5.39402L10.1602 4.61316ZM10.1551 4.6074V3.27406H9.39129L9.00493 3.93298L10.1551 4.6074ZM10.1146 4.68766L8.89506 4.14873L8.81557 4.3286L8.7914 4.52377L10.1146 4.68766ZM10.0893 4.75934L8.91051 4.13606L8.90432 4.14806L10.0893 4.75934ZM10.0386 4.86251L8.81904 4.32354L8.70525 4.58102V4.86251H10.0386ZM10.0361 4.86533L10.0361 3.532L9.17874 3.53199L8.82297 4.31206L10.0361 4.86533ZM9.86378 5.72554L11.1961 5.67299L11.1958 5.66579L11.1954 5.6586L9.86378 5.72554ZM9.88154 5.9205L11.2015 5.73192L11.2004 5.72443L11.1992 5.71696L9.88154 5.9205ZM9.79284 6.26458L10.8572 7.06758L10.8816 7.03527L10.904 7.00153L9.79284 6.26458ZM9.74973 6.32475L8.69071 5.51457L8.68428 5.52312L9.74973 6.32475ZM9.55206 6.54261L10.48 7.50005L10.4885 7.49183L10.4968 7.48346L9.55206 6.54261ZM9.44559 6.64579L8.51947 5.68659L8.50855 5.69712L8.49789 5.7079L9.44559 6.64579ZM9.47603 6.97834L10.475 6.09531L10.3208 5.92076L10.1164 5.80887L9.47603 6.97834ZM9.4887 6.98691L8.84334 8.15366L8.86571 8.16603L8.88854 8.17754L9.4887 6.98691ZM9.55964 7.02135L10.0116 5.76695L9.99938 5.76255L9.98707 5.75838L9.55964 7.02135ZM9.61543 7.23359L10.764 7.91084L10.7642 7.91049L9.61543 7.23359ZM9.56225 7.52608L8.2301 7.5824L8.23091 7.60149L8.23227 7.62055L9.56225 7.52608ZM9.66872 7.87017L8.39509 8.2647L8.40167 8.28593L8.40895 8.30692L9.66872 7.87017ZM9.66872 8.0938L8.36423 7.81789L8.36282 7.8247L9.66872 8.0938ZM9.91458 8.52109L10.1616 7.21084L10.1589 7.21032L9.91458 8.52109ZM10.1452 8.54118L10.0952 9.87358L10.1202 9.87452H10.1452V8.54118ZM10.2516 8.54118V9.87452H10.3759L10.4981 9.85154L10.2516 8.54118ZM10.6622 8.69031L9.51355 9.36727L9.58664 9.49129L9.68451 9.59685L10.6622 8.69031ZM10.7865 8.89961L9.50029 9.25125L9.50389 9.26393L10.7865 8.89961ZM10.8574 9.39565L9.52538 9.45433L9.53001 9.55944L9.55107 9.66251L10.8574 9.39565ZM10.8574 9.72538L9.56058 9.4156L9.55614 9.43418L9.55224 9.45287L10.8574 9.72538ZM10.8067 9.86593L11.9774 10.5041L11.9894 10.4821L12.0006 10.4597L10.8067 9.86593ZM10.6445 10.1584L11.2446 11.3491L11.6028 11.1685L11.8019 10.8203L10.6445 10.1584ZM10.5887 10.1871L10.1183 8.93952L9.66482 9.11051L9.42698 9.53275L10.5887 10.1871ZM9.32397 11.8416L10.2461 12.8047L10.2482 12.8027L9.32397 11.8416ZM8.8044 13.714L7.56636 14.209L7.5667 14.2098L8.8044 13.714ZM8.83483 14.1699L10.1316 14.4802L10.1321 14.478L8.83483 14.1699ZM8.64475 14.5714L9.7361 15.3375L9.74349 15.3267L8.64475 14.5714ZM7.74504 15.5979L8.76552 16.456L8.76886 16.452L7.74504 15.5979ZM7.00246 17.9893H8.33579V17.9568L8.33421 17.9243L7.00246 17.9893ZM7.00246 17.9921L8.33542 18.0237L8.33579 18.0079V17.9921H7.00246ZM7.47134 19.7613L8.66236 19.1619L8.63377 19.1051L8.59991 19.0513L7.47134 19.7613ZM8.19368 20.8022L7.21829 21.7112L7.61371 22.1355H8.19368V20.8022ZM8.19617 20.8022L9.17618 19.8981L8.78018 19.4688H8.19617V20.8022ZM8.48253 21.2638L7.23474 21.7337L7.23583 21.7365L8.48253 21.2638ZM8.66753 21.7512L7.43077 22.2494L7.76718 23.0845H8.66753V21.7512ZM14.1951 21.754L14.1903 23.0874H14.1951V21.754ZM14.2307 21.7512L13.9372 20.4506L13.9061 20.4576L13.8753 20.4661L14.2307 21.7512ZM14.3194 21.6767L15.4861 22.322L15.5021 22.2931L15.5167 22.2635L14.3194 21.6767ZM14.3549 21.6022L15.551 22.1914L15.5513 22.1908L14.3549 21.6022ZM14.7326 20.3778L16.0571 20.5309L16.0573 20.529L14.7326 20.3778ZM14.5653 18.8209L13.2958 19.2283L13.2985 19.2367L14.5653 18.8209ZM14.094 17.4847L12.8338 17.9203L12.8359 17.9264L14.094 17.4847ZM13.9141 16.6675L13.3623 15.4537L12.5577 15.8195L12.5812 16.7031L13.9141 16.6675ZM13.9521 16.6504L14.4937 17.8688L14.5103 17.8614L14.5267 17.8535L13.9521 16.6504ZM17.3205 15.0389L16.7443 13.8364L16.7435 13.8368L17.3205 15.0389ZM15.432 14.4196L16.2653 15.4605L16.2713 15.4557L15.432 14.4196ZM14.1192 15.4403L12.8379 15.0714L11.7839 18.7314L14.8906 16.5279L14.1192 15.4403ZM14.5652 13.9149L13.2835 13.5471L13.2806 13.5578L14.5652 13.9149ZM14.7248 13.2468L15.6719 12.3082L13.8888 10.509L13.415 12.9974L14.7248 13.2468ZM15.4801 14.0152L16.4377 13.0874L16.4355 13.0851L15.4801 14.0152ZM18.8235 13.8066C18.6911 13.4989 18.493 13.0298 18.1993 12.6133L16.0199 14.1499C16.1265 14.3012 16.2226 14.5088 16.374 14.8606L18.8235 13.8066ZM18.1953 12.6076C17.7779 12.0221 17.3201 11.4663 16.9233 10.968L14.8375 12.6295C15.272 13.1751 15.6605 13.6458 16.0239 14.1555L18.1953 12.6076ZM16.9324 10.9796C16.8521 10.8765 16.7739 10.7708 16.6975 10.6621L14.5158 12.1955C14.6169 12.3393 14.721 12.4801 14.8284 12.618L16.9324 10.9796ZM16.6628 10.615C16.6036 10.5382 16.542 10.4496 16.4643 10.3342L14.2524 11.8238C14.3369 11.9493 14.4373 12.0957 14.5506 12.2427L16.6628 10.615ZM16.4607 10.3289C16.2406 10.0055 15.8798 9.42429 15.4132 8.98037L13.5751 10.9124C13.7774 11.1049 13.9336 11.3553 14.256 11.829L16.4607 10.3289ZM15.4143 8.98145C15.3845 8.95307 15.3539 8.91875 15.3197 8.77848C15.2996 8.69605 15.2828 8.59505 15.2631 8.44642C15.2463 8.32021 15.2219 8.11123 15.1922 7.92584L12.5592 8.34838C12.582 8.49032 12.6409 9.04922 12.7289 9.41033C12.8449 9.8858 13.0715 10.4321 13.574 10.9113L15.4143 8.98145ZM15.209 8.13711C15.209 8.08855 15.2064 8.04552 15.203 8.00943C15.1996 7.97347 15.1952 7.94281 15.1914 7.91922C15.1876 7.89581 15.1839 7.87685 15.1815 7.86514C15.1803 7.85914 15.1792 7.85422 15.1786 7.85105C15.1779 7.84809 15.1774 7.84556 15.1774 7.8454C15.1772 7.84453 15.1775 7.84622 15.1779 7.84816C15.1784 7.85036 15.1793 7.85436 15.1803 7.85942C15.1823 7.86923 15.1857 7.88651 15.1893 7.9083C15.1929 7.93026 15.1971 7.95962 15.2005 7.99445C15.2039 8.02942 15.2065 8.07177 15.2065 8.11996H12.5398C12.5398 8.16956 12.5426 8.21332 12.5461 8.2497C12.5496 8.28595 12.554 8.31672 12.5578 8.34011C12.5616 8.36332 12.5653 8.38203 12.5676 8.39327C12.5688 8.39904 12.5698 8.40375 12.5704 8.40667C12.5707 8.40816 12.571 8.40939 12.5712 8.41017C12.5713 8.41088 12.5715 8.41156 12.5715 8.41157C12.5716 8.41213 12.5712 8.41032 12.5707 8.40807C12.5702 8.40562 12.5693 8.40142 12.5682 8.39614C12.5662 8.38586 12.5627 8.36834 12.5592 8.34636C12.5556 8.32421 12.5514 8.29499 12.5481 8.26047C12.5449 8.22582 12.5423 8.18423 12.5423 8.13711H15.209ZM15.1896 7.90828C15.1333 7.55814 15.0929 7.25809 15.0339 6.87378L12.3981 7.27855C12.4457 7.58831 12.5015 7.98797 12.5568 8.33163L15.1896 7.90828ZM15.033 6.86809C14.9724 6.48429 14.9616 6.24771 14.8939 5.73883C14.8373 5.3142 14.7493 4.80701 14.5552 4.30155L12.0658 5.25734C12.148 5.47155 12.2032 5.73567 12.2505 6.09095C12.2866 6.36199 12.3405 6.91394 12.399 7.28424L15.033 6.86809ZM14.5557 4.30271C14.2443 3.48945 13.6735 2.89297 12.9105 2.60624C12.1955 2.33751 11.459 2.39526 10.8508 2.56124L11.5528 5.13383C11.8166 5.06186 11.9456 5.09236 11.9724 5.10245C11.9796 5.10515 11.9809 5.10596 11.9861 5.11141C11.9931 5.11866 12.0269 5.15587 12.0653 5.25619L14.5557 4.30271ZM10.8515 2.56104C10.28 2.71666 9.73939 3.02705 9.30801 3.53578L11.3419 5.26042C11.392 5.2013 11.4495 5.16198 11.5521 5.13403L10.8515 2.56104ZM9.32593 3.51508C9.31656 3.52568 9.2667 3.58103 9.21455 3.65162L11.3593 5.23624C11.3448 5.25592 11.3326 5.27076 11.3256 5.27907C11.3201 5.28556 11.3161 5.29003 11.324 5.28113L9.32593 3.51508ZM9.23824 3.62051C9.18324 3.69056 9.13147 3.76032 9.07946 3.83229L11.241 5.39402C11.2802 5.33978 11.3096 5.30047 11.3356 5.26735L9.23824 3.62051ZM11.4935 4.61316C11.4935 4.23708 11.339 3.93438 11.1641 3.73355C10.9968 3.54138 10.657 3.27406 10.1551 3.27406V5.94073C9.65588 5.94073 9.31864 5.67489 9.15317 5.48489C8.98016 5.28623 8.82688 4.98642 8.82688 4.61316H11.4935ZM9.00493 3.93298C8.95724 4.01432 8.92194 4.08789 8.89506 4.14873L11.3342 5.22659C11.3326 5.23007 11.3227 5.25219 11.3053 5.28181L9.00493 3.93298ZM8.7914 4.52377C8.81514 4.33204 8.87867 4.19642 8.91057 4.13609L11.268 5.38259C11.3302 5.26491 11.4091 5.08346 11.4378 4.85155L8.7914 4.52377ZM8.90432 4.14806C8.89009 4.17565 8.85325 4.24615 8.81904 4.32354L11.2581 5.40149C11.2549 5.40883 11.2537 5.41097 11.2567 5.40483C11.2582 5.40197 11.2602 5.39799 11.2632 5.39213C11.2663 5.38605 11.2696 5.3796 11.2742 5.37062L8.90432 4.14806ZM8.70525 4.86251C8.70525 4.66111 8.7518 4.42085 8.88949 4.1872C9.02657 3.95459 9.21179 3.80009 9.3809 3.70444C9.542 3.61331 9.69024 3.57374 9.78945 3.55504C9.84176 3.54518 9.88882 3.53955 9.92882 3.53632C9.94905 3.53469 9.96812 3.53361 9.98589 3.53294C9.99479 3.53261 10.0034 3.53237 10.0118 3.53222C10.016 3.53214 10.0201 3.53209 10.0241 3.53205C10.0262 3.53203 10.0282 3.53202 10.0302 3.53201C10.0312 3.53201 10.0322 3.532 10.0331 3.532C10.0336 3.532 10.0344 3.532 10.0346 3.532C10.0354 3.532 10.0361 3.532 10.0361 4.86533C10.0361 6.19866 10.0368 6.19866 10.0376 6.19866C10.0378 6.19866 10.0386 6.19866 10.0391 6.19866C10.04 6.19866 10.041 6.19865 10.042 6.19865C10.044 6.19864 10.046 6.19863 10.0481 6.19861C10.0521 6.19857 10.0562 6.19852 10.0604 6.19844C10.0688 6.19829 10.0774 6.19805 10.0864 6.19772C10.1042 6.19704 10.1233 6.19597 10.1436 6.19433C10.1837 6.19108 10.231 6.18544 10.2835 6.17553C10.3832 6.15674 10.5321 6.117 10.6938 6.02552C11.1046 5.79316 11.3719 5.35372 11.3719 4.86251H8.70525ZM8.82297 4.31206C8.62133 4.7542 8.50485 5.24997 8.53213 5.79249L11.1954 5.6586C11.1922 5.59336 11.2024 5.52127 11.2492 5.4186L8.82297 4.31206ZM8.53148 5.77809C8.53529 5.87459 8.54369 5.99359 8.56384 6.12404L11.1992 5.71696C11.1993 5.71701 11.1991 5.71611 11.1989 5.71416C11.1987 5.71221 11.1984 5.70939 11.198 5.7056C11.1973 5.69787 11.1966 5.68724 11.1961 5.67299L8.53148 5.77809ZM8.56161 6.10908C8.54746 6.01003 8.55045 5.93095 8.55526 5.88029C8.56026 5.82754 8.56922 5.78477 8.57802 5.75201C8.59307 5.69597 8.62101 5.6191 8.68167 5.52764L10.904 7.00153C11.0255 6.81829 11.1054 6.62243 11.1534 6.44383C11.1992 6.27343 11.2426 6.01987 11.2015 5.73192L8.56161 6.10908ZM8.72843 5.46158C8.71422 5.48041 8.70243 5.49681 8.69395 5.50878C8.6861 5.51986 8.67871 5.53053 8.67645 5.53378C8.67283 5.53899 8.67367 5.53774 8.67551 5.53517C8.67779 5.53198 8.68316 5.52452 8.69075 5.5146L10.8087 7.13489C10.8239 7.11499 10.8366 7.09753 10.846 7.08433C10.855 7.07174 10.8628 7.06047 10.8662 7.05565C10.8709 7.04887 10.8705 7.0495 10.8698 7.05053C10.8684 7.05245 10.8639 7.0588 10.8572 7.06758L8.72843 5.46158ZM8.68428 5.52312C8.69146 5.51359 8.69158 5.51467 8.67721 5.53016C8.66185 5.54671 8.64276 5.56615 8.6073 5.60177L10.4968 7.48346C10.556 7.42407 10.6926 7.28927 10.8152 7.12637L8.68428 5.52312ZM8.62411 5.58518C8.58642 5.62171 8.55385 5.65339 8.51947 5.68659L10.3717 7.60499C10.4084 7.56958 10.4467 7.53239 10.48 7.50005L8.62411 5.58518ZM8.49789 5.7079C8.39775 5.80908 7.95925 6.25146 8.01602 6.94087C8.07915 7.70765 8.67272 8.0586 8.83562 8.14781L10.1164 5.80887C10.1471 5.82564 10.2569 5.88795 10.373 6.01733C10.5034 6.16254 10.6473 6.4014 10.6737 6.72205C10.6989 7.02878 10.6041 7.2624 10.5358 7.38689C10.4709 7.50508 10.4052 7.57164 10.3933 7.58367L8.49789 5.7079ZM8.47701 7.86137C8.60122 8.00189 8.72678 8.08242 8.75586 8.10128C8.80086 8.13046 8.83941 8.15148 8.84334 8.15366L10.1341 5.82017C10.1358 5.82111 10.144 5.82568 10.1549 5.83197C10.1655 5.83818 10.1841 5.84919 10.2069 5.86397C10.2289 5.8782 10.2637 5.90175 10.3046 5.93399C10.3431 5.96438 10.4067 6.01799 10.475 6.09531L8.47701 7.86137ZM8.88854 8.17754C8.87619 8.17131 8.86763 8.16662 8.87274 8.16937C8.87322 8.16963 8.89053 8.17904 8.90755 8.1879C8.94301 8.20636 9.02474 8.24794 9.13222 8.28432L9.98707 5.75838C10.0299 5.77287 10.0646 5.78739 10.0893 5.79855C10.1136 5.80953 10.1315 5.8187 10.1389 5.82257C10.1442 5.82533 10.15 5.82846 10.139 5.82252C10.1326 5.81908 10.1126 5.80828 10.0889 5.79629L8.88854 8.17754ZM9.10769 8.27575C8.99431 8.23489 8.82158 8.15079 8.65944 7.98143C8.4866 7.80089 8.37467 7.57359 8.33389 7.33368C8.26185 6.90978 8.43261 6.61454 8.46669 6.55669L10.7642 7.91049C10.8489 7.76662 11.0476 7.38535 10.9629 6.88689C10.8542 6.24755 10.3828 5.90068 10.0116 5.76695L9.10769 8.27575ZM8.4669 6.55634C8.20486 7.00073 8.22286 7.41101 8.2301 7.5824L10.8944 7.46977C10.892 7.41247 10.8984 7.47624 10.8845 7.56853C10.8763 7.62294 10.862 7.6847 10.8388 7.7498C10.8158 7.81435 10.789 7.86838 10.764 7.91084L8.4669 6.55634ZM8.23227 7.62055C8.25023 7.87348 8.31523 8.0685 8.36327 8.19205C8.37414 8.22001 8.38423 8.24445 8.39101 8.26074C8.39994 8.28221 8.401 8.28458 8.40508 8.29453C8.41042 8.30755 8.40355 8.29202 8.39509 8.2647L10.9423 7.47564C10.9161 7.39097 10.8883 7.32168 10.872 7.28183C10.8678 7.2716 10.8639 7.26219 10.8608 7.25488C10.8572 7.24631 10.8556 7.24234 10.8532 7.23666C10.849 7.22662 10.8483 7.22464 10.8487 7.22571C10.85 7.2291 10.86 7.25484 10.8699 7.29359C10.8803 7.33435 10.8887 7.38121 10.8922 7.43162L8.23227 7.62055ZM8.40895 8.30692C8.35037 8.13798 8.34865 8.00312 8.35005 7.94671C8.35165 7.8825 8.35999 7.838 8.36424 7.8179L10.9732 8.3697C10.9999 8.2434 11.0753 7.85675 10.9285 7.43342L8.40895 8.30692ZM8.36282 7.8247C8.31661 8.04894 8.24247 8.54744 8.52565 9.0463C8.84251 9.6045 9.37363 9.77656 9.67031 9.83185L10.1589 7.21032C10.2248 7.22262 10.6064 7.31007 10.8447 7.72989C10.9502 7.9156 10.9783 8.0874 10.9838 8.19426C10.989 8.29502 10.9755 8.35841 10.9746 8.36289L8.36282 7.8247ZM9.66752 9.83133C9.85764 9.86718 10.0337 9.87127 10.0952 9.87358L10.1951 7.20879C10.1743 7.20801 10.161 7.2075 10.1488 7.20693C10.1373 7.20639 10.1312 7.206 10.1283 7.20578C10.1224 7.20534 10.1364 7.20609 10.1616 7.21084L9.66752 9.83133ZM10.1452 9.87452H10.2465V7.20785H10.1452V9.87452ZM10.2465 9.87452H10.2516V7.20785H10.2465V9.87452ZM10.4981 9.85154C10.4258 9.86515 10.3281 9.87716 10.1999 9.85447C10.0594 9.82962 9.72551 9.72693 9.51355 9.36727L11.8109 8.01336C11.4874 7.46437 10.971 7.28283 10.6645 7.2286C10.3703 7.17653 10.1231 7.20865 10.0052 7.23083L10.4981 9.85154ZM9.68451 9.59685C9.65721 9.5674 9.62726 9.52987 9.59782 9.48138C9.56949 9.43469 9.5295 9.35785 9.50035 9.25124L12.0726 8.54798C11.9786 8.20413 11.7904 7.94606 11.64 7.78378L9.68451 9.59685ZM9.50389 9.26393C9.50963 9.28413 9.52002 9.33255 9.52538 9.45433L12.1895 9.33696C12.1797 9.11464 12.1545 8.83613 12.0691 8.53528L9.50389 9.26393ZM9.55107 9.66251C9.54345 9.62522 9.53183 9.53594 9.56058 9.4156L12.1543 10.0352C12.2337 9.70262 12.2171 9.38984 12.1638 9.12878L9.55107 9.66251ZM9.55224 9.45287C9.57137 9.36122 9.60025 9.29763 9.61289 9.27221L12.0006 10.4597C12.0589 10.3423 12.1231 10.1871 12.1626 9.99789L9.55224 9.45287ZM9.63607 9.22773C9.58278 9.32547 9.53534 9.41208 9.48704 9.49654L11.8019 10.8203C11.8652 10.7097 11.9243 10.6015 11.9774 10.5041L9.63607 9.22773ZM10.0443 8.96781C10.0216 8.97925 10.003 8.98928 9.99116 8.99569C9.98541 8.99882 9.98036 9.00161 9.97787 9.00298C9.97448 9.00484 9.97473 9.0047 9.97512 9.00449C9.97521 9.00444 9.98937 8.99665 10.0094 8.98674C10.0295 8.9768 10.0677 8.95857 10.1183 8.93952L11.0591 11.4347C11.1173 11.4128 11.1635 11.3909 11.1919 11.3769C11.2202 11.3629 11.2431 11.3504 11.2524 11.3454C11.2574 11.3426 11.2623 11.3399 11.2638 11.3391C11.2661 11.3378 11.266 11.3379 11.2654 11.3382C11.2638 11.3391 11.2559 11.3434 11.2446 11.3491L10.0443 8.96781ZM9.42698 9.53275C9.13515 10.0509 8.80138 10.4943 8.39977 10.8805L10.2482 12.8027C10.8603 12.214 11.3478 11.5563 11.7504 10.8415L9.42698 9.53275ZM8.4019 10.8785C8.08247 11.1843 7.67616 11.6226 7.46734 12.2279C7.23837 12.8916 7.30748 13.5615 7.56636 14.209L10.0424 13.219C9.99942 13.1114 9.99563 13.0623 9.99536 13.0579C9.99524 13.0559 9.99567 13.0612 9.99428 13.0714C9.99288 13.0817 9.99046 13.0911 9.9882 13.0976C9.98369 13.1107 9.98621 13.0945 10.0251 13.0428C10.0663 12.9879 10.1336 12.9123 10.246 12.8047L8.4019 10.8785ZM7.5667 14.2098C7.5144 14.0793 7.5165 13.9506 7.53757 13.8619L10.1321 14.478C10.224 14.091 10.2161 13.6525 10.0421 13.2181L7.5667 14.2098ZM7.5381 13.8597C7.54723 13.8215 7.55743 13.7995 7.55968 13.7948C7.5619 13.7902 7.55892 13.7972 7.54601 13.816L9.74349 15.3267C9.89092 15.1123 10.0487 14.8266 10.1316 14.4802L7.5381 13.8597ZM7.55345 13.8053C7.47282 13.9202 7.37501 14.0321 7.23196 14.1843C7.10489 14.3195 6.90289 14.5259 6.72121 14.7437L8.76886 16.452C8.88373 16.3143 8.99474 16.2025 9.17496 16.0108C9.33921 15.836 9.54298 15.6125 9.73605 15.3374L7.55345 13.8053ZM6.72456 14.7397C5.92598 15.6894 5.61427 16.8976 5.67071 18.0543L8.33421 17.9243C8.30445 17.3144 8.47431 16.8023 8.76551 16.456L6.72456 14.7397ZM5.66912 17.9893V17.9921H8.33579V17.9893H5.66912ZM5.6695 17.9605C5.64857 18.8431 5.87431 19.7267 6.34278 20.4713L8.59991 19.0513C8.42976 18.7809 8.32602 18.4199 8.33542 18.0237L5.6695 17.9605ZM6.28033 20.3607C6.52191 20.8407 6.83392 21.2988 7.21829 21.7112L9.16906 19.8931C8.9655 19.6747 8.79597 19.4274 8.66236 19.1619L6.28033 20.3607ZM8.19368 22.1355H8.19617V19.4688H8.19368V22.1355ZM7.21615 21.7062C7.22878 21.7199 7.23309 21.7293 7.23475 21.7337L9.73032 20.7939C9.60028 20.4485 9.40681 20.1481 9.17618 19.8981L7.21615 21.7062ZM7.23583 21.7365C7.28346 21.8621 7.35887 22.0709 7.43077 22.2494L9.90428 21.253C9.84448 21.1046 9.80335 20.9864 9.72923 20.791L7.23583 21.7365ZM8.66753 23.0845H11.8812V20.4179H8.66753V23.0845ZM11.8812 23.0845C12.6521 23.0845 13.4201 23.0845 14.1903 23.0874L14.2 20.4207C13.4241 20.4179 12.6513 20.4179 11.8812 20.4179V23.0845ZM14.1951 23.0874C14.1967 23.0874 14.2093 23.0874 14.2234 23.0872C14.2383 23.087 14.2624 23.0864 14.2917 23.0847C14.3429 23.0817 14.453 23.0731 14.586 23.0363L13.8753 20.4661C13.9981 20.4321 14.0968 20.4249 14.136 20.4226C14.1758 20.4203 14.2093 20.4207 14.1951 20.4207V23.0874ZM14.5241 23.0519C14.7133 23.0092 14.9297 22.9212 15.131 22.7542C15.3166 22.6002 15.4257 22.4313 15.4861 22.322L13.1526 21.0314C13.1877 20.9679 13.2714 20.832 13.4286 20.7017C13.6013 20.5583 13.786 20.4847 13.9372 20.4506L14.5241 23.0519ZM15.5167 22.2635C15.5288 22.2387 15.5393 22.2162 15.5442 22.2058C15.5471 22.1996 15.5486 22.1964 15.5498 22.1938C15.5509 22.1915 15.5512 22.191 15.551 22.1914L13.1588 21.013C13.1462 21.0387 13.1355 21.0616 13.1301 21.073C13.1269 21.0798 13.1253 21.0832 13.1238 21.0863C13.1225 21.089 13.1221 21.09 13.1221 21.0899L15.5167 22.2635ZM15.5513 22.1908C15.7882 21.7092 15.9848 21.1568 16.0571 20.5309L13.4081 20.2248C13.379 20.4762 13.2968 20.7325 13.1585 21.0137L15.5513 22.1908ZM16.0573 20.529C16.1417 19.7894 16.0518 19.0741 15.8322 18.405L13.2985 19.2367C13.4083 19.5712 13.4452 19.8998 13.4078 20.2266L16.0573 20.529ZM15.8349 18.4134C15.6847 17.9454 15.4887 17.4322 15.3521 17.043L12.8359 17.9264C13.0134 18.4318 13.157 18.7959 13.2958 19.2283L15.8349 18.4134ZM15.3542 17.0491C15.2687 16.8017 15.2487 16.6972 15.247 16.6319L12.5812 16.7031C12.5947 17.2057 12.737 17.6401 12.8338 17.9203L15.3542 17.0491ZM14.4659 17.8813C14.4794 17.8752 14.487 17.8717 14.4937 17.8688L13.4106 15.432C13.3919 15.4402 13.3741 15.4483 13.3623 15.4537L14.4659 17.8813ZM14.5267 17.8535C15.6493 17.3174 16.7732 16.7806 17.8975 16.2409L16.7435 13.8368C15.6219 14.3752 14.5004 14.9109 13.3775 15.4472L14.5267 17.8535ZM17.8966 16.2413C18.2084 16.0919 18.6103 15.8106 18.8357 15.3106C19.0775 14.7743 19.0081 14.2308 18.8214 13.8017L16.3761 14.8655C16.3366 14.7747 16.2686 14.5165 16.4047 14.2146C16.5244 13.949 16.7136 13.8512 16.7443 13.8364L17.8966 16.2413ZM14.5987 13.3787C14.143 13.7436 13.7554 14.0637 13.3478 14.3528L14.8906 16.5279C15.3802 16.1806 15.8543 15.7894 16.2653 15.4605L14.5987 13.3787ZM15.4004 15.8093C15.5331 15.3485 15.7094 14.7772 15.8498 14.272L13.2806 13.5578C13.1373 14.0732 12.9992 14.5114 12.8379 15.0714L15.4004 15.8093ZM15.8468 14.2826C15.9208 14.0249 15.9835 13.7645 16.0346 13.4961L13.415 12.9974C13.3799 13.1819 13.3363 13.3632 13.2836 13.5471L15.8468 14.2826ZM13.7778 14.1853C14.0341 14.444 14.2796 14.6935 14.5247 14.9452L16.4355 13.0851C16.1838 12.8266 15.9326 12.5713 15.6719 12.3082L13.7778 14.1853ZM14.5225 14.943C14.441 14.8589 14.3426 14.7247 14.2819 14.5362C14.2196 14.3428 14.2138 14.144 14.2515 13.9633C14.3212 13.6292 14.5135 13.4477 14.5927 13.3836L16.2713 15.4557C16.4744 15.2912 16.763 14.982 16.8619 14.5081C16.9788 13.9481 16.7747 13.4353 16.4377 13.0874L14.5225 14.943Z" fill="#368796" mask="url(#path-3-inside-1_5575_27414)"/>
</svg>
