<svg width="29" height="26" viewBox="0 0 29 26" fill="none" xmlns="http://www.w3.org/2000/svg">
<path d="M9.19657 9.69119L8.79376 9.42264L4.26891 6.40595L4.10738 6.29853C3.97631 6.21136 3.81668 6.1777 3.66141 6.20453L3.66135 6.20454C3.5063 6.2313 3.36734 6.31658 3.27301 6.44289L3.27285 6.44311C3.17867 6.56909 3.13638 6.72646 3.15469 6.88281L9.19657 9.69119ZM9.19657 9.69119L9.47797 9.29726L13.9994 2.96777H13.9997L14.1493 2.75819C14.2649 2.59616 14.4516 2.5 14.6505 2.5C14.8494 2.5 15.0362 2.59616 15.1518 2.7582L15.1519 2.75841L19.8231 9.29726L20.1045 9.69118L20.5073 9.42265L25.194 6.29827L25.2046 6.29117C25.3336 6.20933 25.4887 6.1782 25.6397 6.20434C25.795 6.23125 25.9341 6.3166 26.0284 6.44281C26.1227 6.56928 26.1648 6.7269 26.1462 6.88329L26.1462 6.88377L24.3128 22.4693C24.3128 22.4693 24.3128 22.4693 24.3128 22.4693C24.2952 22.6191 24.2233 22.757 24.1106 22.8571L24.1102 22.8574C23.9977 22.9576 23.8522 23.013 23.7014 23.013H5.59943C5.44864 23.013 5.30321 22.9576 5.1906 22.8574L5.19027 22.8571C5.07758 22.757 5.00568 22.6191 4.98804 22.4693C4.98804 22.4693 4.98804 22.4693 4.98804 22.4693L3.15471 6.88295L9.19657 9.69119ZM17.0164 15.952L17.0164 15.9519C17.5043 15.1066 17.5043 14.0653 17.0164 13.2201C16.5284 12.375 15.6266 11.8543 14.6506 11.8543C13.6747 11.8543 12.7729 12.375 12.2849 13.2201L12.2849 13.2201C11.7969 14.0653 11.797 15.1066 12.2849 15.9519L12.2849 15.952C12.7729 16.7971 13.6747 17.3178 14.6506 17.3178C15.6266 17.3178 16.5284 16.7971 17.0164 15.952Z" fill="#F7BF08" stroke="#947305"/>
</svg>
