<svg width="20" height="18" viewBox="0 0 20 18" fill="none" xmlns="http://www.w3.org/2000/svg">
<path fill-rule="evenodd" clip-rule="evenodd" d="M1.55973 7.15074H3.00471L4.00105 4.77721C4.31406 4.03125 5.06002 3.5409 5.88942 3.52005C6.77101 3.53568 7.51178 4.05214 7.81432 4.83462L9.33756 8.76785L10.4017 6.92122C10.7773 6.27434 11.4502 5.89355 12.2119 5.89355C12.9891 5.90921 13.6725 6.33697 14.0167 7.00467L14.1367 7.23942L18.3517 7.22375C18.8212 7.22375 19.2437 7.43242 19.5306 7.75585C19.8384 7.08812 20.0001 6.36305 20.0001 5.61187V5.60665C19.9897 4.2347 19.4576 2.95143 18.4977 1.99161C16.4998 -0.00631651 13.2499 -0.00631651 11.252 1.99684L10 3.24356L8.74809 1.99684C7.77783 1.02654 6.48933 0.489258 5.11739 0.489258H5.11217C3.75067 0.494479 2.4674 1.02654 1.50236 1.98639C0.537315 2.94624 0.00522162 4.2347 0 5.61187C0 6.32131 0.146077 7.00989 0.422536 7.64629C0.704247 7.34375 1.11112 7.15074 1.55973 7.15074ZM12.2437 9.94673L10.9395 12.2629C10.5639 12.9097 9.88579 13.3062 9.15025 13.3062C9.12417 13.3062 9.0981 13.3049 9.07203 13.3036C9.04594 13.3022 9.01985 13.3009 8.99376 13.3009C8.19565 13.2383 7.51751 12.7375 7.23058 11.9916L5.84822 8.42871L5.59262 9.02862C5.2692 9.79024 4.52843 10.2806 3.69902 10.2806H2.54616L9.62497 17.3542C9.72408 17.4533 9.86494 17.5107 10.0005 17.5107C10.1414 17.5107 10.2718 17.4533 10.3709 17.3542L17.3767 10.3536H13.4748C13.0209 10.3536 12.5879 10.2076 12.2437 9.94673ZM13.4997 8.2854L18.3561 8.26935C18.6444 8.26935 18.8777 8.50292 18.8777 8.791C18.8777 9.07908 18.6444 9.31265 18.3561 9.31265H13.4738C13.0927 9.31265 12.7473 9.10226 12.5726 8.76375L12.16 7.96192L10.027 11.7541C9.84411 12.072 9.51349 12.2617 9.15129 12.2617C9.1248 12.2617 9.09831 12.2607 9.07131 12.2587C8.67854 12.2283 8.34589 11.9815 8.20376 11.6142L5.89352 5.65703L4.63372 8.62137C4.47376 8.99656 4.10748 9.23853 3.70045 9.23853H1.56036C1.27202 9.23853 1.03871 9.00496 1.03871 8.71688C1.03871 8.4288 1.27202 8.19523 1.56036 8.19523H3.70045L4.96178 5.18224C5.12327 4.80068 5.49668 4.57373 5.91084 4.56507C6.32551 4.5717 6.69026 4.8259 6.84003 5.2123L9.15435 11.1792L11.3077 7.44205C11.4931 7.12035 11.8329 6.93466 12.2099 6.93466C12.5812 6.94358 12.9175 7.15422 13.0871 7.48433L13.4997 8.2854Z" fill="#368796"/>
</svg>
