<svg width="40" height="39" viewBox="0 0 40 39" fill="none" xmlns="http://www.w3.org/2000/svg">
<g clip-path="url(#clip0_9441_21711)">
<path d="M20.3999 38.6667C30.8933 38.6667 39.3999 30.1601 39.3999 19.6667C39.3999 9.17328 30.8933 0.666687 20.3999 0.666687C9.90649 0.666687 1.3999 9.17328 1.3999 19.6667C1.3999 30.1601 9.90649 38.6667 20.3999 38.6667Z" fill="#D9DDF2"/>
<path fill-rule="evenodd" clip-rule="evenodd" d="M13.2945 7.69525H27.5056C28.448 7.69525 29.3516 8.06605 30.0178 8.72614C30.6842 9.38605 31.0585 10.2812 31.0585 11.2147V27.7853C31.0585 28.7188 30.6842 29.614 30.0178 30.2738C29.3516 30.934 28.448 31.3047 27.5056 31.3047H13.2945C12.3522 31.3047 11.4485 30.934 10.7824 30.2738C10.116 29.614 9.7417 28.7188 9.7417 27.7853V11.2147C9.7417 10.2812 10.116 9.38605 10.7824 8.72614C11.4485 8.06605 12.3522 7.69525 13.2945 7.69525ZM23.8108 18.6848L27.1325 16.3269C27.294 16.213 27.4122 16.0488 27.4685 15.8607C27.5248 15.6727 27.5161 15.4712 27.4436 15.2885C26.7587 13.3468 25.2878 11.7754 23.3847 10.9525C21.4816 10.1296 19.3186 10.1296 17.4156 10.9525C15.5125 11.7754 14.0416 13.3468 13.3569 15.2885C13.2843 15.4712 13.2755 15.6727 13.3318 15.8607C13.3881 16.0488 13.5063 16.213 13.6676 16.3269L17.0072 18.6848L19.8937 20.7262C20.0443 20.8323 20.2243 20.8892 20.409 20.8892C20.5936 20.8892 20.7737 20.8323 20.9241 20.7262L23.8108 18.6848ZM23.42 16.802L25.5072 15.3151C24.8976 14.0264 23.8148 13.0167 22.4793 12.4921C21.1438 11.9675 19.6564 11.9675 18.321 12.4921C16.9855 13.0166 15.9026 14.0263 15.293 15.3151L17.3803 16.802C17.9739 16.2479 18.7123 15.87 19.5119 15.711V14.7343C19.5119 14.4199 19.6813 14.1294 19.9561 13.9723C20.2307 13.8152 20.5694 13.8152 20.8442 13.9723C21.119 14.1294 21.2884 14.4198 21.2884 14.7343V15.711C22.0878 15.87 22.8264 16.2479 23.42 16.802ZM20.4 17.3942C19.8567 17.3942 19.3253 17.5525 18.8721 17.849L20.4 18.9312L21.9278 17.849C21.4745 17.5523 20.9432 17.3942 20.4 17.3942ZM28.5254 21.8013H26.9962V29.4636H28.5254V21.8013ZM18.6465 21.8013H20.7991L22.4258 27.0705H22.4452L23.9842 21.8013H26.1368V29.4636H24.705V24.0335H24.6855L22.981 29.4636H21.8024L20.0978 24.0871H20.0784V29.4636H18.6465V21.8013ZM15.3533 24.9027H13.8046V23.1105H15.2364C15.3728 23.1105 15.5027 23.1249 15.6261 23.1535C15.7559 23.1749 15.8696 23.2179 15.967 23.2822C16.0644 23.3466 16.1423 23.4361 16.2007 23.5505C16.2592 23.665 16.2884 23.8117 16.2884 23.9905C16.2884 24.3125 16.2007 24.545 16.0254 24.6881C15.8501 24.8312 15.6261 24.9027 15.3533 24.9027ZM15.5481 21.8013H12.2754V29.4636H15.6455C15.9572 29.4636 16.2592 29.4207 16.5514 29.3349C16.8501 29.249 17.1131 29.1167 17.3403 28.9378C17.5741 28.7589 17.7592 28.53 17.8955 28.251C18.0319 27.9648 18.1001 27.6285 18.1001 27.2422C18.1001 26.7629 17.9929 26.3551 17.7787 26.0188C17.5709 25.6754 17.2527 25.4357 16.8241 25.2998C17.1358 25.1352 17.3696 24.9242 17.5254 24.6666C17.6877 24.4091 17.7689 24.0871 17.7689 23.7008C17.7689 23.3431 17.7137 23.0426 17.6033 22.7993C17.4994 22.5561 17.3501 22.3629 17.1553 22.2198C16.9605 22.0696 16.7267 21.9623 16.454 21.8979C16.1812 21.8335 15.8793 21.8013 15.5481 21.8013ZM15.441 28.1544H13.8046V26.051H15.4702C15.8014 26.051 16.0676 26.1369 16.2689 26.3086C16.4702 26.4731 16.5709 26.7521 16.5709 27.1456C16.5709 27.3459 16.5384 27.5105 16.4735 27.6393C16.415 27.7681 16.3338 27.8718 16.2299 27.9505C16.1261 28.022 16.0059 28.0757 15.8696 28.1115C15.7332 28.1401 15.5903 28.1544 15.441 28.1544Z" fill="#4357BC"/>
</g>
<defs>
<clipPath id="clip0_9441_21711">
<rect width="39" height="39" fill="white" transform="translate(0.899902)"/>
</clipPath>
</defs>
</svg>
