<svg width="39" height="38" viewBox="0 0 39 38" fill="none" xmlns="http://www.w3.org/2000/svg">
<circle cx="19.5" cy="19" r="19" fill="#D9DDF2"/>
<path d="M25.4627 9H13.5373C12.7465 9 11.9882 9.31411 11.4292 9.87328C10.87 10.4323 10.5559 11.1906 10.5559 11.9814V26.0186C10.5559 26.8094 10.87 27.5677 11.4292 28.1267C11.9882 28.6859 12.7465 29 13.5373 29H25.4627C26.2535 29 27.0118 28.6859 27.5708 28.1267C28.13 27.5677 28.4441 26.8094 28.4441 26.0186V11.9814C28.4441 11.1906 28.13 10.4323 27.5708 9.87328C27.0118 9.31411 26.2535 9 25.4627 9ZM25.1496 16.312L22.3621 18.3094L19.9397 20.0387C19.8135 20.1286 19.6624 20.1768 19.5075 20.1768C19.3525 20.1768 19.2014 20.1286 19.0751 20.0387L16.6528 18.3094L13.8504 16.312C13.715 16.2155 13.6158 16.0764 13.5686 15.9171C13.5213 15.7578 13.5287 15.5871 13.5896 15.4324C14.1642 13.7875 15.3985 12.4564 16.9955 11.7593C18.5925 11.0622 20.4076 11.0622 22.0046 11.7593C23.6016 12.4564 24.8359 13.7875 25.4106 15.4324C25.4715 15.5871 25.4788 15.7578 25.4315 15.9171C25.3843 16.0764 25.2851 16.2155 25.1496 16.312ZM23.7857 15.4549L22.0342 16.7145C21.5361 16.2451 20.9163 15.925 20.2454 15.7903V14.9629C20.2454 14.6965 20.1033 14.4505 19.8727 14.3174C19.6421 14.1843 19.3579 14.1843 19.1274 14.3174C18.8968 14.4505 18.7547 14.6966 18.7547 14.9629V15.7903C18.0837 15.925 17.464 16.2451 16.9659 16.7145L15.2143 15.4549C15.7259 14.3631 16.6346 13.5078 17.7553 13.0635C18.8759 12.6191 20.1241 12.6191 21.2448 13.0635C22.3655 13.5079 23.2741 14.3632 23.7857 15.4549ZM18.2178 17.6014C18.5981 17.3502 19.044 17.2161 19.4999 17.2161C19.9558 17.2161 20.4016 17.3501 20.782 17.6014L19.4999 18.5182L18.2178 17.6014Z" fill="#4357BC"/>
</svg>
