<svg width="21" height="18" viewBox="0 0 21 18" fill="none" xmlns="http://www.w3.org/2000/svg">
<path d="M6.40522 4.09967L5.95682 3.71533L5.50843 4.09967C5.31626 4.22779 1.47284 7.87903 0.640099 11.2741C0.1917 12.8755 0.576042 14.7331 1.60095 16.0143C2.62586 17.2954 4.16323 18 6.02088 18C7.87853 18 9.4159 17.2954 10.4408 16.0143C11.4657 14.7331 11.786 12.9395 11.4017 11.2741C10.3768 7.94309 6.53334 4.29184 6.40522 4.09967ZM9.35184 15.2456C8.58316 16.2064 7.43013 16.7189 5.95682 16.7189C4.48351 16.7189 3.33049 16.2064 2.56181 15.2456C1.79312 14.2207 1.5369 12.8755 1.85718 11.5943C2.49775 9.22423 4.93191 6.46978 5.95682 5.44487C6.98174 6.46978 9.4159 9.16017 10.0565 11.5943C10.3768 12.8755 10.0565 14.2207 9.35184 15.2456Z" fill="#368796"/>
<path d="M13.7588 14.5713H19.5449M19.5449 14.5713L17.6162 12.6425M19.5449 14.5713L17.6162 16.5" stroke="#368796" stroke-width="1.25" stroke-linecap="round" stroke-linejoin="round"/>
<path d="M17.1028 3.52313C16.5903 1.60142 14.3484 0.256228 14.2843 0.192171L13.964 0L13.6437 0.192171C13.5797 0.256228 11.3377 1.60142 10.8252 3.52313C10.569 4.48399 10.7612 5.44484 11.3377 6.21352C11.9142 6.98221 12.875 7.43061 13.964 7.43061C15.053 7.43061 16.0138 6.98221 16.5903 6.21352C17.1669 5.44484 17.359 4.41993 17.1028 3.52313ZM15.5654 5.44484C15.2451 5.89324 14.6686 6.14947 13.964 6.14947C13.2594 6.14947 12.6829 5.89324 12.3626 5.44484C12.0423 4.99644 11.9142 4.41993 12.0423 3.84342C12.2985 2.75445 13.3875 1.92171 13.964 1.47331C14.6046 1.92171 15.6295 2.81851 15.8857 3.84342C16.0138 4.35587 15.8857 4.99644 15.5654 5.44484Z" fill="#368796"/>
</svg>
