<svg width="14" height="16" viewBox="0 0 14 16" fill="none" xmlns="http://www.w3.org/2000/svg">
<path fill-rule="evenodd" clip-rule="evenodd" d="M8.3804 10.059L12.19 14.4324V2.35752C12.19 1.87081 11.7954 1.47625 11.3087 1.47625H2.69151C2.20479 1.47625 1.81023 1.87081 1.81023 2.35752L1.81023 14.522L6.04358 10.0189C6.72065 9.43967 7.72356 9.45684 8.3804 10.059ZM11.5945 15.082L7.78489 10.7086C7.45647 10.4075 6.95502 10.3989 6.61648 10.6886L2.38314 15.1916C1.81132 15.6809 0.928955 15.2745 0.928955 14.522V2.35752C0.928955 1.38409 1.71808 0.594971 2.69151 0.594971H11.3087C12.2821 0.594971 13.0712 1.38409 13.0712 2.35752V14.4324C13.0712 15.1992 12.1597 15.6002 11.5945 15.082Z" fill="#368796" stroke="#368796" stroke-width="0.5"/>
</svg>
