<svg width="16" height="16" viewBox="0 0 16 16" fill="none" xmlns="http://www.w3.org/2000/svg">
<path d="M3.51967 12.4335L3.89967 10.7868C3.98634 10.4002 3.83301 9.86016 3.55301 9.58016L1.89967 7.92683C0.926341 6.9535 1.23967 5.96683 2.59967 5.74016L4.72634 5.38683C5.07967 5.32683 5.50634 5.0135 5.66634 4.68683L6.83967 2.34016C7.47301 1.06683 8.51301 1.06683 9.15301 2.34016L10.3263 4.68683C10.3997 4.84016 10.5397 4.98683 10.693 5.1135M13.3997 5.74016C14.7597 5.96683 15.0797 6.9535 14.0997 7.92683L12.4463 9.58016C12.1663 9.86016 12.013 10.4002 12.0997 10.7868L12.573 12.8335C12.9463 14.4535 12.0863 15.0802 10.653 14.2335L8.65967 13.0535C8.29967 12.8402 7.70634 12.8402 7.33967 13.0535L5.34634 14.2335M14.6663 1.3335L1.33301 14.6668" stroke="#368796" stroke-width="1.5" stroke-linecap="round" stroke-linejoin="round"/>
</svg>
