<svg width="14" height="16" viewBox="0 0 14 16" fill="none" xmlns="http://www.w3.org/2000/svg">
<path d="M10.83 5.07999C10.47 4.38666 9.97001 3.86666 9.33001 3.51999C8.69001 3.15999 7.95001 2.97999 7.11001 2.97999C6.19001 2.97999 5.37001 3.18666 4.65001 3.59999C3.93001 4.01333 3.36334 4.59999 2.95001 5.35999C2.55001 6.11999 2.35001 6.99999 2.35001 7.99999C2.35001 8.99999 2.55001 9.88666 2.95001 10.66C3.36334 11.42 3.93001 12.0067 4.65001 12.42C5.37001 12.8333 6.19001 13.04 7.11001 13.04C8.35001 13.04 9.35668 12.6933 10.13 12C10.9033 11.3067 11.3767 10.3667 11.55 9.17999H6.33001V7.35999H13.99V9.13999C13.8433 10.22 13.4567 11.2133 12.83 12.12C12.2167 13.0267 11.41 13.7533 10.41 14.3C9.42334 14.8333 8.32334 15.1 7.11001 15.1C5.80334 15.1 4.61001 14.8 3.53001 14.2C2.45001 13.5867 1.59001 12.74 0.95001 11.66C0.323343 10.58 0.0100098 9.35999 0.0100098 7.99999C0.0100098 6.63999 0.323343 5.41999 0.95001 4.33999C1.59001 3.25999 2.45001 2.41999 3.53001 1.81999C4.62334 1.20666 5.81668 0.899994 7.11001 0.899994C8.59001 0.899994 9.90334 1.26666 11.05 1.99999C12.21 2.71999 13.05 3.74666 13.57 5.07999H10.83Z" fill="#368796"/>
</svg>
