<svg width="20" height="20" viewBox="0 0 20 20" fill="none" xmlns="http://www.w3.org/2000/svg">
<path d="M18.5091 7.38133C17.0652 7.38133 15.8907 8.55585 15.8907 9.99973V16.3814C15.8907 17.2836 15.1563 18.0177 14.254 18.0177L8.93597 18.0181C8.20586 18.0181 7.59314 17.5339 7.38327 16.8724L9.9999 16.8722C11.4433 16.8722 12.6178 15.6977 12.6178 14.2538V5.74603C12.6178 4.30197 11.4433 3.12763 9.9999 3.12763H8.36322V2.55467C8.36322 1.69754 7.66602 1 6.80901 1C5.95188 1 5.25434 1.69754 5.25434 2.55467L5.2545 3.12763H3.61828C2.17439 3.12763 0.999878 4.30214 0.999878 5.74603V14.2543C0.999878 15.6982 2.17439 16.8725 3.61828 16.8725H6.36788C6.59864 18.0821 7.66076 19 8.93617 19L14.2542 18.9995C15.6981 18.9997 16.8725 17.8252 16.8725 16.3817V10C16.8725 9.09754 17.6068 8.36335 18.5091 8.36335C18.7805 8.36335 19.0001 8.1436 19.0001 7.87241C19.0001 7.60138 18.7805 7.38163 18.5091 7.38163L18.5091 7.38133ZM6.23627 2.55435C6.23627 2.23845 6.49317 1.98156 6.80905 1.98156C7.12479 1.98156 7.38137 2.23846 7.38137 2.55435L7.38154 3.1273H6.23627L6.23627 2.55435ZM3.61833 4.10902H10C10.9022 4.10902 11.6362 4.84321 11.6362 5.7457V7.38142L1.98186 7.38125V5.74554C1.98186 4.84321 2.71605 4.10898 3.61841 4.10898L3.61833 4.10902ZM1.98177 14.2536V8.36293H11.6362V14.2536C11.6362 15.1559 10.9021 15.8903 9.99995 15.8903H3.61824C2.71592 15.8903 1.98169 15.1559 1.98169 14.2536H1.98177ZM7.38142 12.1271C7.38142 11.8558 7.60117 11.6362 7.87236 11.6362L9.99982 11.6363C10.2709 11.6363 10.4908 11.8559 10.4908 12.1273C10.4908 12.3986 10.271 12.6182 9.99982 12.6182H7.87236C7.60117 12.6181 7.38142 12.3985 7.38142 12.1271V12.1271ZM7.38142 9.99965C7.38142 9.72862 7.60117 9.50871 7.87236 9.50871H9.99982C10.2709 9.50871 10.4908 9.72846 10.4908 9.99965C10.4908 10.2707 10.271 10.4906 9.99982 10.4906H7.87236C7.60117 10.4906 7.38142 10.2707 7.38142 9.99965ZM7.38142 14.2536C7.38142 13.9822 7.60117 13.7626 7.87236 13.7626L9.99982 13.7628C10.2709 13.7628 10.4908 13.9824 10.4908 14.2537C10.4908 14.5251 10.271 14.7447 9.99982 14.7447H7.87236C7.60117 14.7445 7.38142 14.5249 7.38142 14.2536V14.2536ZM7.38142 5.74574C7.38142 5.47471 7.60117 5.2548 7.87236 5.2548H9.99982C10.2709 5.2548 10.4908 5.47455 10.4908 5.74574C10.4908 6.01677 10.271 6.23669 9.99982 6.23669H7.87236C7.60117 6.23652 7.38142 6.01677 7.38142 5.74574Z" fill="#368796" stroke="#368796" stroke-width="0.25"/>
</svg>
