<svg width="14" height="14" viewBox="0 0 14 14" fill="none" xmlns="http://www.w3.org/2000/svg">
<path d="M12.1176 13.5C12.5318 13.5 12.8676 13.1642 12.8676 12.75V1.25C12.8676 0.835789 12.5318 0.5 12.1176 0.5H9.69454C9.28032 0.5 8.94454 0.835786 8.94454 1.25V6.76527L5.0475 0.837973C4.90881 0.627019 4.67328 0.5 4.42082 0.5H1.88257C1.46836 0.5 1.13257 0.835786 1.13257 1.25V12.75C1.13257 13.1642 1.46835 13.5 1.88257 13.5H4.30565C4.71986 13.5 5.05565 13.1642 5.05565 12.75V7.2625L8.95321 13.1634C9.09204 13.3735 9.32712 13.5 9.57902 13.5H12.1176Z" stroke="#368796"/>
</svg>
