<svg width="16" height="18" viewBox="0 0 16 18" fill="none" xmlns="http://www.w3.org/2000/svg">
<path fill-rule="evenodd" clip-rule="evenodd" d="M6.04748 14.3176C6.22625 13.1229 6.43079 11.7601 7.36639 11.1342C7.8925 10.7824 8.13392 10.7878 8.65838 11.1511C9.57273 11.7844 9.77515 13.1337 9.95266 14.3179C10.0275 14.8174 10.4889 16.7974 11.0789 16.5829C12.0797 16.2189 13.1126 13.2313 13.6537 9.96755C14.2029 6.65424 14.1946 3.13836 13.0821 1.82372C12.5729 1.22212 11.6847 1.23787 10.2893 2.27058C8.84006 3.34254 7.05941 3.24116 5.62304 2.20654C4.27782 1.23748 3.41632 1.23471 2.9179 1.82371C1.80543 3.13809 1.79699 6.65391 2.34638 9.96721C2.88747 13.2309 3.92043 16.2186 4.92119 16.5826C5.51119 16.7971 5.97263 14.8171 6.04764 14.3173L6.04748 14.3176ZM7.99981 12.4143C7.67386 12.8167 7.5385 13.7194 7.41873 14.5182C7.19316 16.0232 6.34989 18.5748 4.44941 17.8837C2.96418 17.3437 1.59316 13.8863 0.980545 10.1898C0.37595 6.54315 0.462744 2.58186 1.86105 0.929393C2.94006 -0.345625 4.59134 -0.445623 6.96788 1.49615C7.81466 1.82712 8.25018 1.81103 9.03181 1.49615C11.4084 -0.445752 13.0598 -0.345721 14.1386 0.929393C15.5372 2.58183 15.6239 6.54282 15.0193 10.1898C14.4064 13.8863 13.0355 17.3439 11.5501 17.8837C9.6497 18.5746 8.80647 16.0233 8.58077 14.5182C8.46126 13.7196 8.32577 12.8166 7.99968 12.4142L7.99981 12.4143Z" fill="#368796"/>
</svg>
