<svg width="10" height="10" viewBox="0 0 10 10" fill="none" xmlns="http://www.w3.org/2000/svg">
<path fill-rule="evenodd" clip-rule="evenodd" d="M0.757467 0.757181C0.497117 1.01753 0.497118 1.43964 0.757467 1.69999L4.05725 4.99977L0.757236 8.29978C0.496887 8.56013 0.496887 8.98224 0.757236 9.24259C1.01759 9.50294 1.4397 9.50294 1.70005 9.24259L5.00006 5.94258L8.29994 9.24246C8.56029 9.50281 8.9824 9.50281 9.24275 9.24246C9.5031 8.98211 9.5031 8.56 9.24275 8.29965L5.94286 4.99977L9.24252 1.70012C9.50287 1.43977 9.50287 1.01766 9.24252 0.757307C8.98217 0.496958 8.56006 0.496958 8.29971 0.757307L5.00006 4.05696L1.70028 0.757181C1.43993 0.496832 1.01782 0.496832 0.757467 0.757181Z" fill="#E63C1A"/>
</svg>
