<svg width="20" height="20" viewBox="0 0 20 20" fill="none" xmlns="http://www.w3.org/2000/svg">
<path d="M9.38188 6.88C9.54988 7.04801 9.75788 7.13201 10.0059 7.13201C10.2459 7.13201 10.4499 7.04801 10.6179 6.88C10.7859 6.712 10.8699 6.50401 10.8699 6.25601C10.8699 6.00801 10.7859 5.8 10.6179 5.63201C10.4499 5.464 10.2459 5.38 10.0059 5.38C9.75788 5.38 9.54988 5.464 9.38188 5.63201C9.21388 5.8 9.12988 6.00801 9.12988 6.25601C9.12988 6.50401 9.21388 6.712 9.38188 6.88Z" fill="#368796"/>
<path d="M10.6779 14.62V9.00801H9.30988V14.62H10.6779Z" fill="#368796"/>
<path fill-rule="evenodd" clip-rule="evenodd" d="M19 10C19 14.9706 14.9706 19 10 19C5.02944 19 1 14.9706 1 10C1 5.02944 5.02944 1 10 1C14.9706 1 19 5.02944 19 10ZM18 10C18 14.4183 14.4183 18 10 18C5.58172 18 2 14.4183 2 10C2 5.58172 5.58172 2 10 2C14.4183 2 18 5.58172 18 10Z" fill="#368796"/>
<path d="M9.38188 6.88C9.54988 7.04801 9.75788 7.13201 10.0059 7.13201C10.2459 7.13201 10.4499 7.04801 10.6179 6.88C10.7859 6.712 10.8699 6.50401 10.8699 6.25601C10.8699 6.00801 10.7859 5.8 10.6179 5.63201C10.4499 5.464 10.2459 5.38 10.0059 5.38C9.75788 5.38 9.54988 5.464 9.38188 5.63201C9.21388 5.8 9.12988 6.00801 9.12988 6.25601C9.12988 6.50401 9.21388 6.712 9.38188 6.88Z" stroke="#368796" stroke-width="0.5"/>
<path d="M10.6779 14.62V9.00801H9.30988V14.62H10.6779Z" stroke="#368796" stroke-width="0.5"/>
<path fill-rule="evenodd" clip-rule="evenodd" d="M19 10C19 14.9706 14.9706 19 10 19C5.02944 19 1 14.9706 1 10C1 5.02944 5.02944 1 10 1C14.9706 1 19 5.02944 19 10ZM18 10C18 14.4183 14.4183 18 10 18C5.58172 18 2 14.4183 2 10C2 5.58172 5.58172 2 10 2C14.4183 2 18 5.58172 18 10Z" stroke="#368796" stroke-width="0.5"/>
</svg>
