<svg width="26" height="10" viewBox="0 0 26 10" fill="none" xmlns="http://www.w3.org/2000/svg">
<path d="M7.36351 0.512876V1.96781H4.96866V9.5H3.16609V1.96781H0.77124V0.512876H7.36351Z" fill="#368796"/>
<path d="M15.7474 3.29399C15.7474 3.77468 15.6315 4.22532 15.3998 4.64592C15.1766 5.06652 14.8204 5.40558 14.3311 5.66309C13.8504 5.9206 13.241 6.04936 12.5028 6.04936H10.9963V9.5H9.19375V0.512876H12.5028C13.198 0.512876 13.7903 0.633048 14.2796 0.873391C14.7689 1.11373 15.1337 1.44421 15.374 1.86481C15.6229 2.28541 15.7474 2.7618 15.7474 3.29399ZM12.4255 4.59442C12.9234 4.59442 13.2925 4.48283 13.5328 4.25966C13.7732 4.0279 13.8933 3.70601 13.8933 3.29399C13.8933 2.41846 13.4041 1.98069 12.4255 1.98069H10.9963V4.59442H12.4255Z" fill="#368796"/>
<path d="M25.2289 9.5H23.4263L19.3448 3.33262V9.5H17.5422V0.5H19.3448L23.4263 6.68026V0.5H25.2289V9.5Z" fill="#368796"/>
</svg>
