<svg width="10" height="16" viewBox="0 0 10 16" fill="none" xmlns="http://www.w3.org/2000/svg">
<path d="M5.05989 15.11C4.12656 15.11 3.28656 14.95 2.53989 14.63C1.79323 14.2967 1.20656 13.83 0.779893 13.23C0.353226 12.63 0.139893 11.93 0.139893 11.13H2.57989C2.63323 11.73 2.86656 12.2233 3.27989 12.61C3.70656 12.9967 4.29989 13.19 5.05989 13.19C5.84656 13.19 6.45989 13.0033 6.89989 12.63C7.33989 12.2433 7.55989 11.75 7.55989 11.15C7.55989 10.6833 7.41989 10.3033 7.13989 10.01C6.87323 9.71667 6.53323 9.49 6.11989 9.33C5.71989 9.17 5.15989 8.99667 4.43989 8.81C3.53323 8.57 2.79323 8.33 2.21989 8.09C1.65989 7.83667 1.17989 7.45 0.779893 6.93C0.379893 6.41 0.179893 5.71667 0.179893 4.85C0.179893 4.05 0.379893 3.35 0.779893 2.75C1.17989 2.15 1.73989 1.69 2.45989 1.37C3.17989 1.05 4.01323 0.889999 4.95989 0.889999C6.30656 0.889999 7.40656 1.23 8.25989 1.91C9.12656 2.57667 9.60656 3.49667 9.69989 4.67H7.17989C7.13989 4.16333 6.89989 3.73 6.45989 3.37C6.01989 3.01 5.43989 2.83 4.71989 2.83C4.06656 2.83 3.53323 2.99667 3.11989 3.33C2.70656 3.66333 2.49989 4.14333 2.49989 4.77C2.49989 5.19667 2.62656 5.55 2.87989 5.83C3.14656 6.09667 3.47989 6.31 3.87989 6.47C4.27989 6.63 4.82656 6.80333 5.51989 6.99C6.43989 7.24333 7.18656 7.49667 7.75989 7.75C8.34656 8.00333 8.83989 8.39667 9.23989 8.93C9.65323 9.45 9.85989 10.15 9.85989 11.03C9.85989 11.7367 9.66656 12.4033 9.27989 13.03C8.90656 13.6567 8.35323 14.1633 7.61989 14.55C6.89989 14.9233 6.04656 15.11 5.05989 15.11Z" fill="#368796"/>
</svg>
