<svg width="20" height="20" viewBox="0 0 20 20" fill="none" xmlns="http://www.w3.org/2000/svg">
<path d="M3.24641 7.75089H10.7338C10.9417 7.75089 11.1076 7.58202 11.1076 7.37647C11.1076 7.17092 10.939 7.00205 10.7338 7.00205H3.24641C3.03843 7.00205 2.87251 7.17092 2.87251 7.37647C2.87251 7.58189 3.04115 7.75089 3.24641 7.75089Z" fill="#368796"/>
<path d="M10.7338 9.62546H3.24648C3.04122 9.62546 2.87258 9.45375 2.87258 9.24833C2.87258 9.04278 3.0385 8.87391 3.24648 8.87391H10.7365C10.9417 8.87391 11.1077 9.04563 11.1077 9.25105C11.1077 9.45659 10.9417 9.62546 10.7338 9.62546Z" fill="#368796"/>
<path d="M3.24641 11.5004H6.98919C7.19717 11.5004 7.36308 11.3315 7.36308 11.1259C7.36308 10.9204 7.19445 10.7515 6.98919 10.7515L3.24641 10.7517C3.03843 10.7517 2.87251 10.9205 2.87251 11.1261C2.87251 11.3315 3.04115 11.5004 3.24641 11.5004Z" fill="#368796"/>
<path d="M6.98919 13.6039H3.24641C3.04115 13.6039 2.87251 13.435 2.87251 13.2296C2.87251 13.024 3.03843 12.8552 3.24641 12.8552L6.98919 12.855C7.19445 12.855 7.36308 13.0239 7.36308 13.2295C7.36308 13.435 7.19717 13.6039 6.98919 13.6039Z" fill="#368796"/>
<path fill-rule="evenodd" clip-rule="evenodd" d="M18.4324 6.98513C17.6706 6.2223 16.4308 6.2223 15.669 6.98513L14.4856 8.17023L14.4854 2.87497C14.4854 1.84176 13.6448 1.00013 12.6132 1.00013L5.49517 1C5.39681 1 5.30117 1.0394 5.23089 1.10977L1.10962 5.23384C1.03934 5.30421 1 5.39999 1 5.49849V17.1252C1 18.1584 1.84059 19 2.87221 19H12.61C13.6418 19 14.4822 18.1582 14.4822 17.1252L14.4823 13.7048L18.4293 9.75228C18.7975 9.38357 19 8.8908 19 8.37007C19.0027 7.84376 18.8006 7.35384 18.4324 6.98513ZM5.11869 2.27812V3.99822C5.11869 4.61759 4.61548 5.12423 3.99426 5.12423H2.27942L5.11869 2.27812ZM13.735 17.1251C13.735 17.7445 13.2318 18.2511 12.6105 18.2511L2.87242 18.2512C2.25391 18.2512 1.74799 17.7473 1.74799 17.1252V5.87578H3.9941C5.02586 5.87578 5.86631 5.03401 5.86631 4.00094V1.74883H12.6073C13.2258 1.74883 13.7317 2.25274 13.7317 2.87483V8.92158L9.13272 13.53L9.12851 13.5357L9.1243 13.5413C9.09907 13.5694 9.07926 13.6004 9.06244 13.6342C9.06102 13.6385 9.05891 13.6427 9.05681 13.6469C9.05471 13.6511 9.0526 13.6553 9.05118 13.6595C9.04979 13.6622 9.04708 13.6664 9.04708 13.6664C9.04708 13.6664 9.04422 13.6707 9.04277 13.6736L7.92675 17.0263C7.88171 17.1615 7.91549 17.3107 8.0167 17.4092C8.08697 17.4795 8.18262 17.5189 8.28098 17.5189C8.32032 17.5189 8.35967 17.5134 8.39901 17.4992L11.747 16.3817L11.7507 16.3796C11.7541 16.3776 11.7568 16.3761 11.7611 16.3761C11.7653 16.3747 11.7688 16.3726 11.7724 16.3704C11.7759 16.3683 11.7794 16.3662 11.7836 16.3648C11.8201 16.348 11.8539 16.3254 11.882 16.3L11.8836 16.2986L11.8876 16.2958L11.8932 16.2916L13.7318 14.4505L13.7317 17.1248L13.735 17.1251ZM10.9378 15.8668L8.87442 16.5565L9.5632 14.4903L10.9378 15.8668ZM11.6294 15.5008L9.92583 13.7948L14.8174 8.89637L16.521 10.6023L11.6294 15.5008ZM17.9013 9.22012L17.0494 10.0732L15.3458 8.36721L16.1977 7.51416C16.6671 7.04409 17.4318 7.04409 17.9013 7.51416C18.1289 7.74213 18.2526 8.04617 18.2526 8.36721C18.2553 8.6881 18.1289 8.99215 17.9013 9.22012Z" fill="#368796"/>
<path d="M3.24641 7.75089H10.7338C10.9417 7.75089 11.1076 7.58202 11.1076 7.37647C11.1076 7.17092 10.939 7.00205 10.7338 7.00205H3.24641C3.03843 7.00205 2.87251 7.17092 2.87251 7.37647C2.87251 7.58189 3.04115 7.75089 3.24641 7.75089Z" stroke="#368796" stroke-width="0.5"/>
<path d="M10.7338 9.62546H3.24648C3.04122 9.62546 2.87258 9.45375 2.87258 9.24833C2.87258 9.04278 3.0385 8.87391 3.24648 8.87391H10.7365C10.9417 8.87391 11.1077 9.04563 11.1077 9.25105C11.1077 9.45659 10.9417 9.62546 10.7338 9.62546Z" stroke="#368796" stroke-width="0.5"/>
<path d="M3.24641 11.5004H6.98919C7.19717 11.5004 7.36308 11.3315 7.36308 11.1259C7.36308 10.9204 7.19445 10.7515 6.98919 10.7515L3.24641 10.7517C3.03843 10.7517 2.87251 10.9205 2.87251 11.1261C2.87251 11.3315 3.04115 11.5004 3.24641 11.5004Z" stroke="#368796" stroke-width="0.5"/>
<path d="M6.98919 13.6039H3.24641C3.04115 13.6039 2.87251 13.435 2.87251 13.2296C2.87251 13.024 3.03843 12.8552 3.24641 12.8552L6.98919 12.855C7.19445 12.855 7.36308 13.0239 7.36308 13.2295C7.36308 13.435 7.19717 13.6039 6.98919 13.6039Z" stroke="#368796" stroke-width="0.5"/>
<path fill-rule="evenodd" clip-rule="evenodd" d="M18.4324 6.98513C17.6706 6.2223 16.4308 6.2223 15.669 6.98513L14.4856 8.17023L14.4854 2.87497C14.4854 1.84176 13.6448 1.00013 12.6132 1.00013L5.49517 1C5.39681 1 5.30117 1.0394 5.23089 1.10977L1.10962 5.23384C1.03934 5.30421 1 5.39999 1 5.49849V17.1252C1 18.1584 1.84059 19 2.87221 19H12.61C13.6418 19 14.4822 18.1582 14.4822 17.1252L14.4823 13.7048L18.4293 9.75228C18.7975 9.38357 19 8.8908 19 8.37007C19.0027 7.84376 18.8006 7.35384 18.4324 6.98513ZM5.11869 2.27812V3.99822C5.11869 4.61759 4.61548 5.12423 3.99426 5.12423H2.27942L5.11869 2.27812ZM13.735 17.1251C13.735 17.7445 13.2318 18.2511 12.6105 18.2511L2.87242 18.2512C2.25391 18.2512 1.74799 17.7473 1.74799 17.1252V5.87578H3.9941C5.02586 5.87578 5.86631 5.03401 5.86631 4.00094V1.74883H12.6073C13.2258 1.74883 13.7317 2.25274 13.7317 2.87483V8.92158L9.13272 13.53L9.12851 13.5357L9.1243 13.5413C9.09907 13.5694 9.07926 13.6004 9.06244 13.6342C9.06102 13.6385 9.05891 13.6427 9.05681 13.6469C9.05471 13.6511 9.0526 13.6553 9.05118 13.6595C9.04979 13.6622 9.04708 13.6664 9.04708 13.6664C9.04708 13.6664 9.04422 13.6707 9.04277 13.6736L7.92675 17.0263C7.88171 17.1615 7.91549 17.3107 8.0167 17.4092C8.08697 17.4795 8.18262 17.5189 8.28098 17.5189C8.32032 17.5189 8.35967 17.5134 8.39901 17.4992L11.747 16.3817L11.7507 16.3796C11.7541 16.3776 11.7568 16.3761 11.7611 16.3761C11.7653 16.3747 11.7688 16.3726 11.7724 16.3704C11.7759 16.3683 11.7794 16.3662 11.7836 16.3648C11.8201 16.348 11.8539 16.3254 11.882 16.3L11.8836 16.2986L11.8876 16.2958L11.8932 16.2916L13.7318 14.4505L13.7317 17.1248L13.735 17.1251ZM10.9378 15.8668L8.87442 16.5565L9.5632 14.4903L10.9378 15.8668ZM11.6294 15.5008L9.92583 13.7948L14.8174 8.89637L16.521 10.6023L11.6294 15.5008ZM17.9013 9.22012L17.0494 10.0732L15.3458 8.36721L16.1977 7.51416C16.6671 7.04409 17.4318 7.04409 17.9013 7.51416C18.1289 7.74213 18.2526 8.04617 18.2526 8.36721C18.2553 8.6881 18.1289 8.99215 17.9013 9.22012Z" stroke="#368796" stroke-width="0.5"/>
</svg>
