<svg width="18" height="18" viewBox="0 0 18 18" fill="none" xmlns="http://www.w3.org/2000/svg">
<path fill-rule="evenodd" clip-rule="evenodd" d="M2 1H16C16.5523 1 17 1.44772 17 2V16C17 16.5523 16.5523 17 16 17H2C1.44772 17 1 16.5523 1 16V2C1 1.44772 1.44772 1 2 1ZM0 2C0 0.89543 0.895431 0 2 0H16C17.1046 0 18 0.895431 18 2V16C18 17.1046 17.1046 18 16 18H2C0.89543 18 0 17.1046 0 16V2ZM3.5 4H5.5V6H3.5V4ZM6.5 4H14.5V6H6.5V4ZM3.5 8H5.5V10H3.5V8ZM6.5 8H14.5V10H6.5V8ZM5.5 12H3.5V14H5.5V12ZM14.5 12H6.5V14H14.5V12Z" fill="#368796"/>
</svg>
