<svg width="18" height="18" viewBox="0 0 18 18" fill="none" xmlns="http://www.w3.org/2000/svg">
<path fill-rule="evenodd" clip-rule="evenodd" d="M8.49349 9.74132L10.2001 12.7066H11.6508L9.81597 9.63466C10.3991 9.4924 10.8294 9.22569 11.1068 8.83464C11.3913 8.43642 11.5334 7.99555 11.5334 7.51194C11.5334 7.0995 11.4338 6.72624 11.2348 6.39193C11.0428 6.05773 10.7476 5.79112 10.3494 5.59201C9.95833 5.3929 9.4783 5.29329 8.90929 5.29329H6.34939V12.7066H7.56532V9.74132H8.49349ZM8.90929 8.77062H7.56532V6.28526H8.90929C9.37153 6.28526 9.71658 6.39551 9.94401 6.61599C10.1717 6.82932 10.2854 7.12793 10.2854 7.51194C10.2854 7.89594 10.168 8.20171 9.93338 8.42925C9.70573 8.6569 9.36458 8.77062 8.90929 8.77062Z" fill="#368796"/>
<path fill-rule="evenodd" clip-rule="evenodd" d="M17 9C17 13.4183 13.4182 17 9 17C4.58181 17 1 13.4183 1 9C1 4.58171 4.58181 1 9 1C13.4182 1 17 4.58171 17 9ZM16.1111 9C16.1111 12.9274 12.9273 16.1111 9 16.1111C5.0727 16.1111 1.88889 12.9274 1.88889 9C1.88889 5.07259 5.0727 1.88889 9 1.88889C12.9273 1.88889 16.1111 5.07259 16.1111 9Z" fill="#368796"/>
<path fill-rule="evenodd" clip-rule="evenodd" d="M8.49349 9.74132L10.2001 12.7066H11.6508L9.81597 9.63466C10.3991 9.4924 10.8294 9.22569 11.1068 8.83464C11.3913 8.43642 11.5334 7.99555 11.5334 7.51194C11.5334 7.0995 11.4338 6.72624 11.2348 6.39193C11.0428 6.05773 10.7476 5.79112 10.3494 5.59201C9.95833 5.3929 9.4783 5.29329 8.90929 5.29329H6.34939V12.7066H7.56532V9.74132H8.49349ZM8.90929 8.77062H7.56532V6.28526H8.90929C9.37153 6.28526 9.71658 6.39551 9.94401 6.61599C10.1717 6.82932 10.2854 7.12793 10.2854 7.51194C10.2854 7.89594 10.168 8.20171 9.93338 8.42925C9.70573 8.6569 9.36458 8.77062 8.90929 8.77062Z" stroke="#368796" stroke-width="0.5"/>
<path fill-rule="evenodd" clip-rule="evenodd" d="M17 9C17 13.4183 13.4182 17 9 17C4.58181 17 1 13.4183 1 9C1 4.58171 4.58181 1 9 1C13.4182 1 17 4.58171 17 9ZM16.1111 9C16.1111 12.9274 12.9273 16.1111 9 16.1111C5.0727 16.1111 1.88889 12.9274 1.88889 9C1.88889 5.07259 5.0727 1.88889 9 1.88889C12.9273 1.88889 16.1111 5.07259 16.1111 9Z" stroke="#368796" stroke-width="0.5"/>
</svg>
